<?xml version="1.0" encoding="utf-8"?>
<!-- Generator: Adobe Illustrator 27.5.0, SVG Export Plug-In . SVG Version: 6.00 Build 0)  -->
<svg version="1.1" id="Ebene_1" xmlns="http://www.w3.org/2000/svg" xmlns:xlink="http://www.w3.org/1999/xlink" x="0px" y="0px"
	 viewBox="0 0 49.2 48.5" style="enable-background:new 0 0 49.2 48.5;" xml:space="preserve">
<style type="text/css">
	.st0{fill:#F6BB37;}
	.st1{fill:#3684C6;}
	.st2{fill:#DCA12A;}
	.st3{fill:#FCFCFE;}
	.st4{fill:#E97E2F;}
	.st5{fill:#28273D;}
	.st6{fill:#7F65AA;}
	.st7{fill:#B49ECB;}
	.st8{fill:#66529D;}
	.st9{fill:#33314C;}
	.st10{fill:#35ACC6;}
	.st11{fill:#27263D;}
	.st12{fill:#DB191D;}
	.st13{fill:#42BEE1;}
	.st14{fill:#EE715E;}
	.st15{fill:#396CB3;}
	.st16{fill:#EA5B4C;}
	.st17{fill:#F2C551;}
	.st18{fill:#27273D;}
	.st19{fill:#B0CF6D;}
	.st20{fill:#28263D;}
	.st21{fill:#9E4A30;}
	.st22{fill:#DB1E1D;}
	.st23{fill:#FBFBFD;}
	.st24{fill:#A3C163;}
	.st25{fill:#3F426D;}
	.st26{fill:#33304C;}
	.st27{fill:#DB181D;}
	.st28{fill:#83C4ED;}
	.st29{fill:#B6622B;}
	.st30{fill:#AB795E;}
	.st31{fill:#88C7EE;}
	.st32{fill:#9BB7CC;}
	.st33{fill:#E97F31;}
	.st34{fill:#CD6F2C;}
	.st35{fill:#A8A4A6;}
	.st36{fill:#84C4EC;}
	.st37{fill:#FEFEFE;}
	.st38{fill:#D91F1D;}
	.st39{fill:#F29454;}
	.st40{fill:#3C86C6;}
	.st41{fill:#F8FAFD;}
	.st42{fill:#AD8ABF;}
	.st43{fill:#67529E;}
	.st44{fill:#F6D373;}
	.st45{fill:#29273D;}
	.st46{fill:#EE715D;}
	.st47{fill:#F9C6BD;}
	.st48{fill:#A65E3A;}
	.st49{fill:#F18B88;}
	.st50{fill:#82C2EC;}
	.st51{fill:#E28080;}
	.st52{fill:#D57474;}
	.st53{fill:#4F5173;}
	.st54{fill:#3785C6;}
	.st55{fill:#E84680;}
	.st56{fill:#28273E;}
	.st57{fill:#E13072;}
	.st58{fill:#F5BA37;}
	.st59{fill:#F3C651;}
	.st60{fill:#DB5144;}
	.st61{fill:#A17FB8;}
	.st62{fill:#AC8ABE;}
	.st63{fill:#342E4F;}
	.st64{fill:#2DAC64;}
	.st65{fill:#5CB993;}
	.st66{fill:#9DBA5C;}
	.st67{fill:#5AB992;}
	.st68{fill:#66529E;}
	.st69{fill:#EA5A4C;}
	.st70{fill:#12994E;}
	.st71{fill:#DE5044;}
	.st72{fill:#EE715F;}
	.st73{fill:#E97F2F;}
	.st74{fill:#A89AC9;}
	.st75{fill:#38B3CD;}
	.st76{fill:#DD3D78;}
	.st77{fill:#F5D373;}
	.st78{fill:#FDEAB4;}
	.st79{fill:#7F66AA;}
	.st80{fill:#3885C6;}
	.st81{fill:#40436D;}
	.st82{fill:#A99ACA;}
	.st83{fill:#34314B;}
	.st84{fill:#F4D273;}
	.st85{fill:#83C5ED;}
	.st86{fill:#D29C2C;}
	.st87{fill:#87C7EE;}
	.st88{fill:#F6BB38;}
	.st89{fill:#F6BB3A;}
	.st90{fill:#E83D69;}
	.st91{fill:#F4BC3F;}
	.st92{fill:#85C5EB;}
	.st93{fill:#DA1E1D;}
	.st94{fill:#DDA736;}
	.st95{fill:#F18D88;}
	.st96{fill:#FFFEFE;}
	.st97{fill:#F9C8BC;}
	.st98{fill:#3B85C6;}
</style>
<g id="Ce3bkE_00000152238015342663028030000000382259664735015589_">
	<g>
		<path d="M16.8,0c0.9,0.2,1.8,0.3,2.7,0.5c2.5,0.6,4.7,1.8,6.7,3.5c1,0.9,1.9,1.9,2.6,3c0.9,1.3,1.5,2.6,2,4.1
			c0.5,1.6,0.8,3.3,0.7,4.9c0,2.2-0.5,4.4-1.4,6.4c-0.7,1.4-1.5,2.8-2.5,3.9c-1.7,1.9-3.8,3.3-6.2,4.3c-2.5,1-5.1,1.2-7.8,0.9
			c-2.6-0.3-5-1.3-7.2-2.9c-1.6-1.2-2.9-2.6-4-4.2c-1.4-2.2-2.2-4.6-2.4-7.1C0,17,0,16.9,0,16.8c0-0.7,0-1.4,0-2
			c0.1-0.4,0.1-0.7,0.2-1.1C0.4,11.8,1,10,1.9,8.3c1.2-2.2,2.8-4,4.8-5.4c1.6-1.2,3.4-2,5.4-2.4C13,0.3,13.9,0.2,14.8,0
			C15.5,0,16.1,0,16.8,0z M27.7,15.8c0-6.6-5.3-11.8-11.8-11.9C9.3,3.9,4,9.2,3.9,15.8c0,6.5,5.3,11.9,11.8,11.9
			C22.3,27.6,27.6,22.4,27.7,15.8z"/>
		<path d="M44.9,48.5c-2.6-2.8-5.3-5.6-7.9-8.4c-2.1-2.2-4.2-4.5-6.3-6.7c-0.9-1-1.9-2-2.8-3c-0.1-0.1-0.1-0.2-0.2-0.3
			c0.9-1,1.9-1.9,2.8-2.9c6.2,5.7,12.4,11.4,18.6,17.2c-0.3,0.3-0.5,0.5-0.8,0.7c-1.1,1-2.1,2-3.2,2.9
			C45.1,48.3,45.1,48.4,44.9,48.5C44.9,48.5,44.9,48.5,44.9,48.5z"/>
	</g>
</g>
</svg>
