<?xml version="1.0" encoding="utf-8"?>
<!-- Generator: Adobe Illustrator 27.3.1, SVG Export Plug-In . SVG Version: 6.00 Build 0)  -->
<svg version="1.1" id="Ebene_1" xmlns="http://www.w3.org/2000/svg" xmlns:xlink="http://www.w3.org/1999/xlink" x="0px" y="0px"
	 viewBox="0 0 141.7 141.7" style="enable-background:new 0 0 141.7 141.7;" xml:space="preserve">
<style type="text/css">
	.st0{fill:#F6BB37;}
	.st1{fill:#3684C6;}
	.st2{fill:#DCA12A;}
	.st3{fill:#FCFCFE;}
	.st4{fill:#E97E2F;}
	.st5{fill:#28273D;}
	.st6{fill:#7F65AA;}
	.st7{fill:#B49ECB;}
	.st8{fill:#66529D;}
	.st9{fill:#33314C;}
	.st10{fill:#35ACC6;}
	.st11{fill:#27263D;}
	.st12{fill:#DB191D;}
	.st13{fill:#42BEE1;}
	.st14{fill:#EE715E;}
	.st15{fill:#396CB3;}
	.st16{fill:#EA5B4C;}
	.st17{fill:#F2C551;}
	.st18{fill:#27273D;}
	.st19{fill:#B0CF6D;}
	.st20{fill:#28263D;}
	.st21{fill:#9E4A30;}
	.st22{fill:#DB1E1D;}
	.st23{fill:#FBFBFD;}
	.st24{fill:#A3C163;}
	.st25{fill:#3F426D;}
	.st26{fill:#33304C;}
	.st27{fill:#DB181D;}
	.st28{fill:#83C4ED;}
	.st29{fill:#B6622B;}
	.st30{fill:#AB795E;}
	.st31{fill:#88C7EE;}
	.st32{fill:#9BB7CC;}
	.st33{fill:#E97F31;}
	.st34{fill:#CD6F2C;}
	.st35{fill:#A8A4A6;}
	.st36{fill:#84C4EC;}
	.st37{fill:#FEFEFE;}
	.st38{fill:#D91F1D;}
	.st39{fill:#F29454;}
	.st40{fill:#3C86C6;}
	.st41{fill:#F8FAFD;}
	.st42{fill:#AD8ABF;}
	.st43{fill:#67529E;}
	.st44{fill:#F6D373;}
	.st45{fill:#29273D;}
	.st46{fill:#EE715D;}
	.st47{fill:#F9C6BD;}
	.st48{fill:#A65E3A;}
	.st49{fill:#F18B88;}
	.st50{fill:#82C2EC;}
	.st51{fill:#E28080;}
	.st52{fill:#D57474;}
	.st53{fill:#4F5173;}
	.st54{fill:#3785C6;}
	.st55{fill:#E84680;}
	.st56{fill:#28273E;}
	.st57{fill:#E13072;}
	.st58{fill:#F5BA37;}
	.st59{fill:#F3C651;}
	.st60{fill:#DB5144;}
	.st61{fill:#A17FB8;}
	.st62{fill:#AC8ABE;}
	.st63{fill:#342E4F;}
	.st64{fill:#2DAC64;}
	.st65{fill:#5CB993;}
	.st66{fill:#9DBA5C;}
	.st67{fill:#5AB992;}
	.st68{fill:#66529E;}
	.st69{fill:#EA5A4C;}
	.st70{fill:#12994E;}
	.st71{fill:#DE5044;}
	.st72{fill:#EE715F;}
	.st73{fill:#E97F2F;}
	.st74{fill:#A89AC9;}
	.st75{fill:#38B3CD;}
	.st76{fill:#DD3D78;}
	.st77{fill:#F5D373;}
	.st78{fill:#FDEAB4;}
	.st79{fill:#7F66AA;}
	.st80{fill:#3885C6;}
	.st81{fill:#40436D;}
	.st82{fill:#A99ACA;}
	.st83{fill:#34314B;}
	.st84{fill:#F4D273;}
	.st85{fill:#83C5ED;}
	.st86{fill:#D29C2C;}
	.st87{fill:#87C7EE;}
	.st88{fill:#F6BB38;}
	.st89{fill:#F6BB3A;}
	.st90{fill:#E83D69;}
	.st91{fill:#F4BC3F;}
	.st92{fill:#85C5EB;}
	.st93{fill:#DA1E1D;}
	.st94{fill:#DDA736;}
	.st95{fill:#F18D88;}
	.st96{fill:#FFFEFE;}
	.st97{fill:#F9C8BC;}
	.st98{fill:#3B85C6;}
</style>
<g id="IlJ7OD.tif">
	<g>
		<path class="st0" d="M27.8,127c-0.8-0.4-1.5-1.1-2.2-1.7c-1.8-1.6-3.6-3.1-5.3-4.8c-2.5-2.6-4.9-5.4-7-8.4c-1.5-2.2-3-4.4-4.2-6.7
			c-0.7-1.3-1.3-2.6-1.9-3.8c-1.6-3.1-2.8-6.4-3.9-9.7c-1.3-4-2.2-8.2-2.7-12.4c-0.1-0.9-0.3-1.8-0.3-2.7c-0.3-3.5-0.3-7-0.1-10.5
			c0.2-2.4,0.4-4.7,0.8-7c0.6-3.4,1.4-6.8,2.5-10.1c0.8-2.5,1.8-5,2.8-7.4c0.5-1,0.9-2,1.4-3c1.8-3.5,3.8-6.9,6.2-10
			c0.6-0.8,1.4-1.6,2-2.5c1.6-2.2,3.5-4.2,5.5-6.1c1.1-1.1,2.3-2.1,3.4-3.1c1.1-0.9,2.1-1.8,3.3-2.7c1.8-1.3,3.5-2.6,5.4-3.7
			c4.3-2.6,8.8-4.7,13.5-6.5c3.5-1.2,7-2.2,10.6-2.9c2.3-0.4,4.6-0.8,7-0.9c2.4-0.1,4.8-0.5,7.2-0.3c3.3,0.2,6.7,0.4,10,0.9
			c3.8,0.7,7.6,1.5,11.3,2.8c3.7,1.3,7.3,2.8,10.7,4.6c1.6,0.8,3.1,1.8,4.7,2.7c2,1.3,3.9,2.6,5.8,4.1c1.4,1.1,2.7,2.3,4.1,3.5
			c1.6,1.3,3,2.8,4.4,4.3c1.7,1.9,3.4,3.9,5,6c1.2,1.6,2.3,3.2,3.3,4.9c1,1.6,2,3.3,2.8,5.1c0.4,0.8,0.8,1.5,1.2,2.3
			c0.4,1,0.8,1.9,1.2,2.9c0.1,0.3,0.2,0.5,0.4,0.7c0.1,0.1,0,0.4,0.1,0.6c0.3,0.8,0.5,1.7,0.9,2.4c0.5,0.8,0.5,1.8,0.8,2.7
			c0.3,0.9,0.7,1.9,0.9,2.9c0.3,1.4,0.7,2.7,1.1,4c0.1,0.2-0.1,0.4-0.1,0.6c0.3,1.4,0.3,2.9,0.8,4.3c0,0.1,0.1,0.2,0,0.2
			c-0.3,1.1,0.1,2.1,0.1,3.1c0,0.6,0,1.3,0.1,1.9c0.1,1.5,0.2,2.9,0.1,4.4c-0.1,1.8-0.2,3.6-0.5,5.4c-0.2,1.2-0.2,2.4-0.4,3.6
			c-0.2,1.2-0.5,2.3-0.5,3.5c0,0.6-0.4,1.2-0.5,1.8c-0.2,1.2-0.4,2.4-0.9,3.6c-0.5,1.4-0.8,2.8-1.3,4.2c-0.6,1.4-1.2,2.8-1.7,4.3
			c-0.8,2.5-2.3,4.6-3.3,7c-0.5,1.1-1.2,1.9-1.8,2.9c-0.5,1-1.2,2-1.9,3c-1.5,2.1-3.1,4.1-4.8,6.1c-1.5,1.7-3.1,3.3-4.8,4.9
			c-1.4,1.4-3,2.7-4.5,4c-0.3,0.3-0.5,0.7-0.9,0.9c-0.1-0.1-0.2-0.3-0.4-0.4c-1.6-3.3-4.1-5.6-7.1-7.6c-2-1.3-4.3-2.3-6.5-3.3
			c0.4-0.4,0.9-0.3,1.3-0.5c1.8-0.6,3.6-1.2,5.5-1.9c1.3-0.5,2.7-1,4-1.6c1.2-0.5,2.4-1.2,3.6-1.8c1.2-0.7,2.4-1.2,3.5-1.9
			c1.8-1.1,3.4-2.4,4.9-3.8c1.9-1.8,3.5-3.8,4.7-6.1c1.2-2.5,1.8-5.1,1.4-8c-0.2-1.4-0.6-2.7-1.1-4c-1.4-3.3-3.8-5.9-6.6-8.2
			c-2.5-2.1-5.3-3.7-8.2-5.1c-3.4-1.7-7-3-10.6-4.1c-2.9-0.9-5.8-1.6-8.7-2.2c-1.4-0.3-2.8-0.5-4.2-0.7c-2-0.3-4-0.6-6.1-0.8
			c-1.8-0.2-3.7-0.4-5.5-0.4c-0.8,0-1.6,0-2.4-0.3c0-0.2,0-0.5,0-0.7c0-1.8,0-3.6,0-5.4c0.2-0.4,0.6-0.4,1-0.5
			c1.3-0.3,2.5-0.6,3.7-1.1c2.8-1.3,5.5-2.8,7.7-4.9c1.4-1.4,2.7-2.9,3.8-4.5c1.3-2.1,2.4-4.4,3.1-6.8c0.2-0.8,0.3-0.8,1-0.4
			c3,1.8,6.1,1.7,9.3,0.3c2.1-0.9,3.5-2.5,4.5-4.5c0.8-1.6,1-3.4,0.9-5.1c-0.1-1.5-0.4-2.9-1.3-4.1c-0.1-0.2-0.3-0.3-0.4-0.5
			c-0.5-0.8-1.1-1.5-1.8-2.1c-1.1-0.8-2.3-1.4-3.6-1.8c-1.4-0.4-2.7-0.5-4.1-0.3c-1.8,0.2-3.3,1-4.7,2c-0.5,0.4-0.7,0.4-0.9-0.2
			c-0.9-2.1-2.1-4-3.5-5.7c-2.2-2.7-4.9-4.9-8.1-6.4C79,10,75.9,9,72.6,8.8c-1.8-0.1-3.6,0-5.4,0.2c-3,0.4-5.9,1.4-8.5,2.9
			c-1.8,1-3.4,2.2-4.9,3.6c-2.5,2.3-4.3,5-5.6,8c-0.1,0.1-0.1,0.3-0.2,0.4c-0.2,0.2-0.4,0.3-0.6,0c-1.1-1-2.3-1.6-3.7-2
			c-3.9-1.2-8.5,0.7-10.7,3.9c-0.3,0.4-0.4,0.8-0.7,1.2c-0.4,0.6-0.8,1.8-0.9,2.5c-0.2,0.9-0.2,1.8-0.1,2.6c0.2,1.4,0.5,2.7,1.1,3.9
			c0.8,1.5,2,2.7,3.4,3.7c1.9,1.3,4,1.6,6.2,1.4c1.5-0.1,2.9-0.7,4.2-1.5c0.4-0.3,0.6-0.1,0.8,0.3c0.2,0.6,0.4,1.1,0.6,1.7
			c1,2.9,2.5,5.5,4.4,8c0.8,1.1,1.9,1.8,2.9,2.8c1.2,1.2,2.7,2.1,4.2,2.9c2,1,4.1,1.8,6.3,2.3c0.3,0.1,0.7,0.1,1,0.5
			c0,0.2,0,0.4,0,0.6c0,1.9,0,3.8,0,5.7c-0.8,0.1-1.5,0.2-2.3,0.1c-1.2-0.1-2.3,0.1-3.4,0.2c-2.1,0.2-4.2,0.5-6.3,0.7
			c-1.9,0.2-3.9,0.6-5.8,1c-1.7,0.3-3.4,0.8-5.1,1.1c-1.6,0.4-3.2,0.9-4.8,1.4c-0.7,0.2-1.5,0.4-2.2,0.8c-0.6,0.3-1.3,0.3-2,0.5
			c-1.6,0.6-3.2,1.3-4.7,2c-1.5,0.7-2.9,1.4-4.3,2.3c-3.7,2.2-7,4.9-9.6,8.4c-1.6,2.1-2.7,4.5-3,7.1c-0.3,2.6,0,5.2,1.2,7.6
			c1.1,2.1,2.4,4.1,4,5.8c2.1,2.1,4.5,3.9,7,5.5c1.3,0.7,2.5,1.5,3.8,2.2c1.5,0.7,3,1.3,4.5,1.9c1.5,0.6,3,1,4.5,1.6
			c1.1,0.4,2.2,0.7,3.3,1c0.2,0,0.3,0.1,0.4,0.3c-0.1,0.1-0.2,0.2-0.3,0.2c-1.2,0.6-2.4,1.2-3.6,1.8c-2.8,1.4-5.2,3.3-7.3,5.7
			C29.2,124.5,28.6,125.8,27.8,127z"/>
		<path class="st70" d="M100.1,115.8c2.2,1,4.4,2,6.5,3.3c3,1.9,5.5,4.3,7.1,7.6c0,0.3-0.1,0.6-0.3,0.8c-3.1,2.4-6.4,4.4-9.9,6.3
			c-2.6,1.4-5.4,2.6-8.2,3.6c-2.6,1-5.2,1.8-7.8,2.4c-1.6,0.4-3.2,0.6-4.8,1c-1.8,0.4-3.7,0.5-5.5,0.7c-1,0.2-2,0.3-3.1,0.2
			c-0.1-0.1-0.2-0.1-0.3,0c-0.1,0-0.3,0-0.4,0c0-0.1-0.1,0-0.1,0c-1.7,0.1-3.5,0.1-5.2,0c-0.4-0.1-0.8-0.2-1.2,0
			c-1.2,0-2.3-0.1-3.4-0.3c-1-0.1-2-0.2-3-0.4c-1.3-0.2-2.6-0.4-3.9-0.7c-4.8-0.9-9.4-2.5-13.8-4.4c-2.7-1.1-5.3-2.5-7.8-4
			c-2.3-1.4-4.4-2.8-6.6-4.4c-0.2-0.2-0.4-0.4-0.6-0.6c0.8-1.2,1.5-2.5,2.4-3.6c2.1-2.3,4.5-4.3,7.3-5.7c1.2-0.6,2.4-1.2,3.6-1.8
			c0.1-0.1,0.2-0.1,0.3-0.2c0.5,0,1,0.1,1.4,0.2c2.6,0.6,5.1,1.2,7.8,1.6c1.3,0.2,2.6,0.4,4,0.6c1.4,0.2,2.8,0.3,4.1,0.5
			c0.8,0.1,1.7,0.2,2.5,0.2c1,0.1,2.1,0.1,3.1,0.2c1.6,0.2,3.3,0.2,4.9,0.3c1.6,0.1,3.3,0.1,4.9-0.1c2.1-0.1,4.3-0.2,6.4-0.4
			c1.6-0.2,3.3-0.3,4.9-0.5c2.3-0.3,4.6-0.6,6.9-1.1c1.5-0.3,3-0.6,4.5-0.9C98,116.2,99,115.8,100.1,115.8z"/>
		<path class="st64" d="M113.4,127.5c0.2-0.2,0.3-0.5,0.3-0.8c0.1,0.1,0.2,0.3,0.4,0.4C113.9,127.3,113.7,127.5,113.4,127.5z"/>
		<path class="st64" d="M66.9,141.7c0.4-0.2,0.8-0.1,1.2,0C67.7,141.7,67.3,141.7,66.9,141.7z"/>
		<path class="st64" d="M73.8,141.7c0.1-0.1,0.2-0.1,0.3,0C74,141.7,73.9,141.7,73.8,141.7z"/>
		<path class="st64" d="M73.3,141.7c0-0.1,0.1-0.1,0.1,0C73.4,141.7,73.4,141.7,73.3,141.7L73.3,141.7z"/>
		<path class="st64" d="M100.1,115.8c-1.1,0.1-2.1,0.5-3.2,0.7c-1.5,0.3-3,0.6-4.5,0.9c-2.3,0.5-4.6,0.8-6.9,1.1
			c-1.6,0.2-3.3,0.3-4.9,0.5c-2.1,0.2-4.3,0.2-6.4,0.4c-1.6,0.1-3.3,0.1-4.9,0.1c-1.6-0.1-3.3-0.1-4.9-0.3c-1-0.1-2.1-0.1-3.1-0.2
			c-0.8-0.1-1.7-0.2-2.5-0.2c-1.4-0.2-2.8-0.3-4.1-0.5c-1.3-0.2-2.7-0.4-4-0.6c-2.6-0.4-5.2-1.1-7.8-1.6c-0.5-0.1-0.9-0.3-1.4-0.2
			c-0.1-0.2-0.2-0.2-0.4-0.3c-1.1-0.3-2.2-0.6-3.3-1c-1.5-0.6-3-1-4.5-1.6c-1.5-0.6-3-1.2-4.5-1.9c-1.3-0.6-2.6-1.4-3.8-2.2
			c-2.6-1.5-4.9-3.3-7-5.5c-1.7-1.7-2.9-3.7-4-5.8c-1.3-2.4-1.5-5-1.2-7.6c0.3-2.6,1.4-5,3-7.1c2.6-3.5,5.9-6.2,9.6-8.4
			c1.4-0.8,2.9-1.6,4.3-2.3c1.5-0.8,3.1-1.4,4.7-2c0.7-0.3,1.4-0.3,2-0.5c0.7-0.3,1.5-0.5,2.2-0.8c1.6-0.5,3.2-1.1,4.8-1.4
			c1.7-0.4,3.4-0.8,5.1-1.1c1.9-0.3,3.8-0.7,5.8-1c2.1-0.3,4.2-0.6,6.3-0.7c1.1-0.1,2.3-0.3,3.4-0.2c0.8,0,1.5-0.1,2.3-0.1
			c3.1-0.2,6.1,0,9.2-0.1c0.8,0.3,1.6,0.2,2.4,0.3c1.8,0.1,3.7,0.3,5.5,0.4c2,0.2,4.1,0.5,6.1,0.8c1.4,0.2,2.8,0.4,4.2,0.7
			c2.9,0.6,5.9,1.3,8.7,2.2c3.6,1.1,7.2,2.4,10.6,4.1c2.9,1.4,5.7,3,8.2,5.1c2.7,2.3,5.1,4.8,6.6,8.2c0.6,1.3,0.9,2.6,1.1,4
			c0.4,2.8-0.1,5.5-1.4,8c-1.2,2.3-2.8,4.3-4.7,6.1c-1.5,1.4-3.1,2.7-4.9,3.8c-1.1,0.7-2.4,1.3-3.5,1.9c-1.2,0.7-2.3,1.3-3.6,1.8
			c-1.3,0.6-2.6,1.1-4,1.6c-1.8,0.7-3.6,1.2-5.5,1.9C101,115.4,100.5,115.4,100.1,115.8z M64.6,78.2c-0.4,0-0.8,0.1-1.3,0.1
			c-0.6,0-1.2-0.1-1.8,0.1c-0.7,0.1-1.4,0.1-2,0.2c-1.3,0.2-2.5,0.3-3.8,0.5c-1.5,0.2-3,0.4-4.5,0.7c-0.5,0.1-1.1-0.1-1.5,0.4
			c-0.3-0.4-0.6,0-0.9,0c-0.7,0.1-1.5,0.2-2.1,0.6c0-0.1-0.1-0.1-0.2-0.1c-1.5,0.5-3.2,0.8-4.7,1.4c-1.4,0.6-2.9,1-4.3,1.7
			c-0.7,0.3-1.5,0.7-2.1,1.3c-0.2,0.2-0.4,0.1-0.6,0.2c-1.1,0.8-2.1,1.6-2.9,2.7c-1.2,1.5-1.6,3.1-0.8,5c0.2,0.5,0.4,1,0.7,1.4
			c1.2,1.5,2.8,2.6,4.4,3.6c0.5,0.3,0.9,0.4,1.4,0.7c1.5,0.8,3.1,1.5,4.7,2c1.3,0.4,2.6,0.7,3.9,1.1c1.6,0.4,3.2,0.6,4.8,1
			c1.5,0.3,3.1,0.5,4.6,0.7c2.5,0.4,5,0.7,7.5,0.8c2.9,0.2,5.9,0.3,8.8,0.2c2.3-0.1,4.7,0,7-0.2c1.5-0.1,3-0.2,4.6-0.4
			c1.3-0.1,2.5-0.4,3.7-0.6c2.8-0.3,5.5-1,8.3-1.5c0.4,0.2,0.9-0.1,1.1-0.2c0.8-0.5,1.7-0.6,2.6-0.9c1.4-0.5,2.8-0.9,4.1-1.5
			c1.1-0.6,2.1-1.1,3.2-1.7c2.1-1.2,3.7-2.7,4.4-5.1c0.3-1,0.2-1.9-0.2-2.8c-0.7-1.4-1.7-2.5-2.9-3.4c-0.4-0.4-0.8-0.8-1.4-0.9
			c0-0.2-0.2-0.3-0.3-0.5c-0.8-0.6-1.8-0.9-2.7-1.3c-2.2-1-4.6-1.5-6.9-2.4c-0.4-0.2-0.9-0.4-1.4-0.3c-1-0.3-1.9-0.5-2.9-0.6
			c-0.8,0-1.5-0.2-2.3-0.3c-1.9-0.3-3.8-0.6-5.7-0.8c-1.2-0.1-2.5-0.2-3.7-0.5c-0.7-0.2-1.5-0.1-2.2-0.2c-0.5-0.1-0.9-0.1-1.4,0
			c0-0.1-0.1-0.1-0.3-0.1c-2.6,0-5.2,0-7.8,0c-0.6,0-1.3,0.2-1.9,0.1C65.9,78.1,65.2,78.1,64.6,78.2z"/>
		<path class="st64" d="M66.3,58.1c-0.2-0.3-0.6-0.4-1-0.5c-2.2-0.5-4.3-1.3-6.3-2.3c-1.5-0.8-3-1.7-4.2-2.9c-0.9-0.9-2-1.7-2.9-2.8
			c-1.9-2.4-3.4-5-4.4-8c-0.2-0.6-0.4-1.1-0.6-1.7c-0.1-0.4-0.4-0.6-0.8-0.3c-1.3,0.8-2.7,1.3-4.2,1.5c-2.2,0.2-4.3-0.1-6.2-1.4
			c-1.4-1-2.6-2.2-3.4-3.7c-0.6-1.2-1-2.6-1.1-3.9c-0.1-0.9-0.1-1.8,0.1-2.6c0.1-0.7,0.5-1.9,0.9-2.5c0.3-0.4,0.4-0.8,0.7-1.2
			c2.2-3.2,6.8-5.1,10.7-3.9c1.4,0.4,2.7,1,3.7,2c0.3,0.3,0.5,0.2,0.6,0c0.1-0.1,0.1-0.2,0.2-0.4c1.4-3,3.2-5.8,5.6-8
			c1.5-1.4,3.1-2.6,4.9-3.6c2.7-1.5,5.5-2.4,8.5-2.9c1.8-0.3,3.5-0.3,5.4-0.2C75.9,9,79,10,81.9,11.4c3.2,1.5,5.9,3.7,8.1,6.4
			c1.4,1.7,2.6,3.7,3.5,5.7c0.3,0.6,0.4,0.7,0.9,0.2c1.4-1.1,2.9-1.8,4.7-2c1.4-0.2,2.7-0.1,4.1,0.3c1.3,0.4,2.5,1,3.6,1.8
			c0.7,0.5,1.3,1.3,1.8,2.1c0.1,0.2,0.2,0.3,0.4,0.5c0.9,1.2,1.2,2.7,1.3,4.1c0.1,1.8-0.1,3.5-0.9,5.1c-1,2-2.4,3.6-4.5,4.5
			c-3.1,1.4-6.2,1.5-9.3-0.3c-0.7-0.4-0.8-0.4-1,0.4c-0.7,2.4-1.8,4.7-3.1,6.8c-1,1.6-2.3,3.2-3.8,4.5c-2.3,2.2-4.9,3.6-7.7,4.9
			c-1.2,0.6-2.4,0.8-3.7,1.1c-0.4,0.1-0.8,0.1-1,0.5C72.3,58.1,69.3,58.2,66.3,58.1z M51.6,33.5c0,5.2,2,10,5.7,13.6
			c4.5,4.4,9.9,6.2,16.1,5.5c8.1-0.9,16.4-8.3,16.6-18.6c0.3-11.3-9.3-19.6-19-19.6C60.3,14.2,51.5,23.1,51.6,33.5z M40.9,35
			c2,0,3.7-1.6,3.7-3.6c0-1.9-1.8-3.7-3.7-3.7c-1.9,0-3.5,1.8-3.5,3.7C37.4,33.3,39.1,35,40.9,35z M104.2,31.4
			c0.1-2-1.9-3.8-3.6-3.7c-2.2,0.1-3.6,1.5-3.6,3.7c0,2.1,1.5,3.5,3.5,3.6C102.6,34.9,104.1,33.5,104.2,31.4z"/>
		<path class="st70" d="M66.3,58.1c3,0.1,6.1,0,9.1,0c0,1.8,0,3.6,0,5.4c0,0.2,0,0.5,0,0.7c-3.1,0.1-6.1-0.1-9.2,0.1
			c0.1-1.9,0.1-3.8,0-5.7C66.2,58.5,66.3,58.3,66.3,58.1z"/>
		<path class="st5" d="M106.2,85.1c0.6,0.1,1,0.5,1.4,0.9c1.2,1,2.2,2,2.9,3.4c0.4,0.9,0.6,1.8,0.2,2.8c-0.7,2.3-2.3,3.9-4.4,5.1
			c-1,0.6-2.1,1.1-3.2,1.7c-1.3,0.7-2.7,1-4.1,1.5c-0.9,0.3-1.8,0.4-2.6,0.9c-0.2,0.1-0.7,0.4-1.1,0.2c-0.2-1.2-0.7-2.3-1.1-3.4
			c-0.8-2.2-2.2-4-4-5.5c-1.8-1.4-3.9-2.4-6.2-2.8c-2.7-0.4-5.2-0.2-7.7,0.9c-2.1,1-3.9,2.3-5.4,4c-0.2,0.2-0.3,0.4-0.6,0.1
			c-2.2-2.9-5.3-4.5-8.9-5c-2.5-0.3-4.9,0-7.2,1c-3,1.3-5.4,3.4-6.8,6.4c-0.7,1.4-1.3,2.7-1.3,4.3c-1.3-0.4-2.6-0.7-3.9-1.1
			c-1.6-0.5-3.2-1.1-4.7-2c-0.5-0.3-0.9-0.4-1.4-0.7c-1.7-1-3.2-2.1-4.4-3.6c-0.3-0.4-0.5-0.9-0.7-1.4c-0.8-1.8-0.4-3.5,0.8-5
			c0.8-1,1.9-1.9,2.9-2.7c0.2-0.1,0.4,0,0.6-0.2c0.4,0.7,0.5,1.4,0.8,2.1c0.6,1.3,1.5,2.3,2.6,3.2c0.8,0.7,1.7,0.8,2.7,0.6
			c1.5-0.3,2.3-1.4,3-2.6c1.4-2.4,2-5,2.1-7.7c0.6-0.5,1.4-0.5,2.1-0.6c0.3-0.1,0.6-0.4,0.9,0c0.1,0.4,0.2,0.8,0.3,1.2
			c0.2,1.1,0.4,2.3,1,3.3c0.7,1.3,1.4,2.6,2.8,3.4c1.2,0.6,3.2,0.4,4.2-0.6c1.1-1.1,1.7-2.5,2.3-3.8c0.8-1.7,0.8-3.5,1.2-5.3
			c0.6-0.2,1.2-0.1,1.8-0.1c0.4,0,0.8-0.1,1.3-0.1c0.1,0.2,0.2,0.3,0.3,0.5c0.2,1.5,0.4,2.9,0.8,4.4c0.5,1.7,1.3,3.2,2.6,4.4
			c1.5,1.3,3.3,1.3,4.7,0.2c0.9-0.7,1.5-1.6,2-2.6c1.1-2.1,1.6-4.4,1.6-6.8c0.5-0.2,0.9-0.1,1.4,0c0.7,0.1,1.5,0,2.2,0.2
			c0,0.5,0.1,1,0.2,1.4c0.3,2.7,1.2,5.2,3,7.3c0.7,0.8,1.6,1.2,2.6,1.3c1.5,0.1,2.6-0.7,3.5-1.9c1.5-1.9,2.1-4.2,2.5-6.6
			c1,0.1,2,0.4,2.9,0.6c0,0.3,0.1,0.6,0.1,0.9c0.1,1.7,0.3,3.4,1,4.9c0.7,1.5,1.5,2.9,2.8,4c1.1,1,3.6,0.9,4.6-0.2
			c1-1.2,1.9-2.4,2.4-3.9C105.8,85.9,106,85.5,106.2,85.1z"/>
		<path class="st27" d="M46.2,101.7c0-1.6,0.6-2.9,1.3-4.3c1.5-3,3.8-5.1,6.8-6.4c2.3-1,4.7-1.3,7.2-1c3.6,0.5,6.6,2.1,8.9,5
			c0.2,0.3,0.4,0.2,0.6-0.1c1.5-1.7,3.3-3,5.4-4c2.5-1.1,5.1-1.3,7.7-0.9c2.3,0.3,4.4,1.3,6.2,2.8c1.8,1.4,3.2,3.3,4,5.5
			c0.4,1.1,0.9,2.2,1.1,3.4c-2.8,0.6-5.5,1.2-8.3,1.5c-1.3,0.1-2.5,0.4-3.7,0.6c-1.5,0.2-3,0.2-4.6,0.4c-2.3,0.2-4.7,0.1-7,0.2
			c-2.9,0.2-5.9,0-8.8-0.2c-2.5-0.1-5-0.4-7.5-0.8c-1.5-0.3-3.1-0.4-4.6-0.7C49.4,102.4,47.8,102.1,46.2,101.7z"/>
		<path class="st3" d="M76.5,78.3c0.1,2.4-0.5,4.7-1.6,6.8c-0.5,1-1.1,1.9-2,2.6c-1.5,1.2-3.2,1.1-4.7-0.2c-1.3-1.2-2.2-2.7-2.6-4.4
			c-0.4-1.4-0.6-2.9-0.8-4.4c0-0.2-0.1-0.4-0.3-0.5c0.7,0,1.4-0.1,2.1,0.1c0.6,0.1,1.3-0.1,1.9-0.1c2.6,0,5.2,0,7.8,0
			C76.4,78.1,76.5,78.1,76.5,78.3z"/>
		<path class="st3" d="M61.5,78.4c-0.4,1.8-0.4,3.6-1.2,5.3c-0.7,1.3-1.2,2.7-2.3,3.8c-1,1-3,1.2-4.2,0.6c-1.4-0.7-2.1-2.1-2.8-3.4
			c-0.6-1-0.7-2.2-1-3.3c-0.1-0.4-0.2-0.8-0.3-1.2c0.4-0.6,1-0.3,1.5-0.4c1.5-0.3,3-0.5,4.5-0.7c1.3-0.2,2.5-0.3,3.8-0.5
			C60.1,78.5,60.8,78.5,61.5,78.4z"/>
		<path class="st3" d="M91.9,80c-0.4,2.3-1,4.6-2.5,6.6c-0.9,1.2-1.9,2-3.5,1.9c-1-0.1-1.9-0.4-2.6-1.3c-1.7-2.1-2.7-4.6-3-7.3
			c-0.1-0.5-0.2-1-0.2-1.4c1.2,0.2,2.5,0.4,3.7,0.5c1.9,0.2,3.8,0.5,5.7,0.8C90.4,79.8,91.1,80,91.9,80z"/>
		<path class="st3" d="M106.2,85.1c-0.2,0.4-0.4,0.8-0.5,1.2c-0.5,1.5-1.4,2.7-2.4,3.9c-0.9,1.1-3.4,1.3-4.6,0.2
			c-1.2-1.1-2.1-2.5-2.8-4c-0.7-1.6-0.9-3.2-1-4.9c0-0.3-0.1-0.6-0.1-0.9c0.5-0.1,1,0.1,1.4,0.3c2.3,0.9,4.6,1.4,6.9,2.4
			c0.9,0.4,1.9,0.7,2.7,1.3C106,84.8,106.2,84.9,106.2,85.1z"/>
		<path class="st3" d="M46.6,80.8c-0.1,2.7-0.7,5.3-2.1,7.7c-0.7,1.2-1.6,2.2-3,2.6c-1,0.2-1.9,0.1-2.7-0.6c-1.1-0.9-2-1.9-2.6-3.2
			c-0.3-0.7-0.4-1.5-0.8-2.1c0.6-0.6,1.4-1,2.1-1.3c1.4-0.6,2.9-1.1,4.3-1.7c1.5-0.6,3.1-0.9,4.7-1.4C46.5,80.7,46.6,80.8,46.6,80.8
			z"/>
		<path class="st3" d="M51.6,33.5C51.5,23.1,60.3,14.2,71,14.3c9.7,0.1,19.3,8.3,19,19.6c-0.2,10.3-8.5,17.7-16.6,18.6
			c-6.2,0.7-11.6-1-16.1-5.5C53.7,43.5,51.6,38.7,51.6,33.5z M70.8,23.3c-6,0-11.3,5-11.3,11.2c0,6.3,4.8,11.3,11.5,11.3
			c2.8,0,5.4-1,7.6-3.1c2.7-2.6,3.8-5.9,3.4-9.5c-0.2-2.4-1.2-4.7-3-6.5C76.8,24.4,74,23.3,70.8,23.3z"/>
		<path class="st70" d="M40.9,35c-1.9,0-3.6-1.7-3.6-3.6c0-1.9,1.7-3.7,3.5-3.7c1.9,0,3.7,1.8,3.7,3.7C44.6,33.3,43,35,40.9,35z"/>
		<path class="st70" d="M104.2,31.4c-0.1,2-1.6,3.5-3.7,3.5c-2,0-3.6-1.5-3.5-3.6c0-2.1,1.4-3.5,3.6-3.7
			C102.3,27.6,104.3,29.4,104.2,31.4z"/>
		<path class="st64" d="M70.8,23.3c3.2,0.1,6,1.2,8.3,3.5c1.8,1.8,2.8,4.1,3,6.5c0.4,3.6-0.7,6.8-3.4,9.5c-2.1,2.1-4.7,3.1-7.6,3.1
			c-6.7-0.1-11.5-5-11.5-11.3C59.5,28.2,64.8,23.2,70.8,23.3z M78.2,30c0.1-0.8,0.3-1.5,0-2.3c-0.6-1.6-2.7-2.2-4.1-1
			c-1.6-0.7-3.3-0.8-4.9-0.5c-3.2,0.8-5.6,2.5-6.5,5.9c-0.5,1.9-0.5,3.8,0.3,5.7c0.8,1.7,1.9,3.1,3.5,4c1.7,1,3.6,1.2,5.6,0.9
			c3.9-0.6,7-4.2,7.1-8.1C79.2,33.1,78.6,31.6,78.2,30z"/>
		<path class="st5" d="M78.2,30c0.4,1.6,1,3,1,4.7c-0.1,3.9-3.2,7.5-7.1,8.1c-2,0.3-3.9,0-5.6-0.9c-1.7-0.9-2.8-2.3-3.5-4
			c-0.8-1.9-0.8-3.8-0.3-5.7c0.9-3.4,3.3-5.2,6.5-5.9c1.7-0.4,3.3-0.3,4.9,0.5c-1.5,1.4-1.3,3.5,0.6,4.5c0.9,0.5,2.6-0.1,3.2-1
			C78,30.1,78,30,78.2,30z M70.7,37.7c1.9,0.2,3.1-1.4,3.2-3.2c0.1-1.7-1.4-3-3.1-3.2c-1.6-0.1-3.3,1.6-3.3,3.2
			C67.5,36,69.1,37.9,70.7,37.7z"/>
		<path class="st3" d="M78.2,30c-0.2,0-0.2,0.1-0.3,0.2c-0.6,0.9-2.3,1.5-3.2,1c-1.9-1-2.1-3.1-0.6-4.5c1.4-1.2,3.5-0.6,4.1,1
			C78.5,28.5,78.4,29.2,78.2,30z"/>
		<path class="st3" d="M70.7,37.7c-1.6,0.3-3.2-1.6-3.2-3.1c0-1.6,1.8-3.3,3.3-3.2c1.7,0.1,3.2,1.5,3.1,3.2
			C73.8,36.3,72.6,37.8,70.7,37.7z"/>
	</g>
</g>
</svg>
