<?xml version="1.0" encoding="utf-8"?>
<!-- Generator: Adobe Illustrator 27.3.1, SVG Export Plug-In . SVG Version: 6.00 Build 0)  -->
<svg version="1.1" id="Ebene_1" xmlns="http://www.w3.org/2000/svg" xmlns:xlink="http://www.w3.org/1999/xlink" x="0px" y="0px"
	 viewBox="0 0 141.7 141.7" style="enable-background:new 0 0 141.7 141.7;" xml:space="preserve">
<style type="text/css">
	.st0{fill:#F6BB37;}
	.st1{fill:#3684C6;}
	.st2{fill:#DCA12A;}
	.st3{fill:#FCFCFE;}
	.st4{fill:#E97E2F;}
	.st5{fill:#28273D;}
	.st6{fill:#7F65AA;}
	.st7{fill:#B49ECB;}
	.st8{fill:#66529D;}
	.st9{fill:#33314C;}
	.st10{fill:#35ACC6;}
	.st11{fill:#27263D;}
	.st12{fill:#DB191D;}
	.st13{fill:#42BEE1;}
	.st14{fill:#EE715E;}
	.st15{fill:#396CB3;}
	.st16{fill:#EA5B4C;}
	.st17{fill:#F2C551;}
	.st18{fill:#27273D;}
	.st19{fill:#B0CF6D;}
	.st20{fill:#28263D;}
	.st21{fill:#9E4A30;}
	.st22{fill:#DB1E1D;}
	.st23{fill:#FBFBFD;}
	.st24{fill:#A3C163;}
	.st25{fill:#3F426D;}
	.st26{fill:#33304C;}
	.st27{fill:#DB181D;}
	.st28{fill:#83C4ED;}
	.st29{fill:#B6622B;}
	.st30{fill:#AB795E;}
	.st31{fill:#88C7EE;}
	.st32{fill:#9BB7CC;}
	.st33{fill:#E97F31;}
	.st34{fill:#CD6F2C;}
	.st35{fill:#A8A4A6;}
	.st36{fill:#84C4EC;}
	.st37{fill:#FEFEFE;}
	.st38{fill:#D91F1D;}
	.st39{fill:#F29454;}
	.st40{fill:#3C86C6;}
	.st41{fill:#F8FAFD;}
	.st42{fill:#AD8ABF;}
	.st43{fill:#67529E;}
	.st44{fill:#F6D373;}
	.st45{fill:#29273D;}
	.st46{fill:#EE715D;}
	.st47{fill:#F9C6BD;}
	.st48{fill:#A65E3A;}
	.st49{fill:#F18B88;}
	.st50{fill:#82C2EC;}
	.st51{fill:#E28080;}
	.st52{fill:#D57474;}
	.st53{fill:#4F5173;}
	.st54{fill:#3785C6;}
	.st55{fill:#E84680;}
	.st56{fill:#28273E;}
	.st57{fill:#E13072;}
	.st58{fill:#F5BA37;}
	.st59{fill:#F3C651;}
	.st60{fill:#DB5144;}
	.st61{fill:#A17FB8;}
	.st62{fill:#AC8ABE;}
	.st63{fill:#342E4F;}
	.st64{fill:#2DAC64;}
	.st65{fill:#5CB993;}
	.st66{fill:#9DBA5C;}
	.st67{fill:#5AB992;}
	.st68{fill:#66529E;}
	.st69{fill:#EA5A4C;}
	.st70{fill:#12994E;}
	.st71{fill:#DE5044;}
	.st72{fill:#EE715F;}
	.st73{fill:#E97F2F;}
	.st74{fill:#A89AC9;}
	.st75{fill:#38B3CD;}
	.st76{fill:#DD3D78;}
	.st77{fill:#F5D373;}
	.st78{fill:#FDEAB4;}
	.st79{fill:#7F66AA;}
	.st80{fill:#3885C6;}
	.st81{fill:#40436D;}
	.st82{fill:#A99ACA;}
	.st83{fill:#34314B;}
	.st84{fill:#F4D273;}
	.st85{fill:#83C5ED;}
	.st86{fill:#D29C2C;}
	.st87{fill:#87C7EE;}
	.st88{fill:#F6BB38;}
	.st89{fill:#F6BB3A;}
	.st90{fill:#E83D69;}
	.st91{fill:#F4BC3F;}
	.st92{fill:#85C5EB;}
	.st93{fill:#DA1E1D;}
	.st94{fill:#DDA736;}
	.st95{fill:#F18D88;}
	.st96{fill:#FFFEFE;}
	.st97{fill:#F9C8BC;}
	.st98{fill:#3B85C6;}
</style>
<g id="lfbJDR.tif">
	<g>
		<path class="st13" d="M85.4,140.1c-1.3,0.4-2.6,0.7-3.9,0.8c-2.7,0.4-5.3,0.7-8,0.7c-1.5,0-2.9,0.1-4.4,0.1
			c-1.4,0-2.9-0.1-4.3-0.2c-1.1-0.1-2.2-0.2-3.2-0.4c0.2,0,0.3-0.2,0.2-0.4c-0.4-0.9-1-1.6-1.6-2.4c-0.9-1.1-1.8-2.2-2.6-3.3
			c-0.8-1.2-1.6-2.5-2.5-3.7c-0.4-0.5-0.8-1-1.3-1.5c-1.3-1.5-2.1-3.3-3.5-4.7c-0.9-1-1.7-2.1-2.3-3.3c-0.5-0.8-1.2-1.4-1.7-2.1
			c-1.1-1.7-2.4-3.2-3.5-5c-0.4-0.6-0.9-1.1-1.3-1.7c-1.7-2.2-3.3-4.4-4.9-6.6c-1.7-2.3-3.3-4.6-5-6.9c-1.5-2-2.9-4-4.4-6
			c-1.9-2.4-3.6-4.8-5.4-7.3c-0.4-0.6-1.2-1.1-1-2.1c2.7-0.2,5.2-0.9,7.9-1.2c1.4-0.2,2.9-0.6,4.3-0.8c0.2,0,0.3-0.1,0.3-0.3
			c0.4,0.5,0.7,1.1,1.1,1.6c-0.1,0.2-0.2,0.4-0.3,0.5c-0.9,2.5-2,5-3,7.5c-0.5,1.2-1,2.3-1.4,3.5c-0.2,0.4-0.1,0.8,0.2,1.2
			c0.3,0.3,0.6,0.3,1,0.2c1.2-0.3,2.2-0.9,3.3-1.4c2.7-1.3,5.4-2.9,8.2-4c0.7,0.3,1.3,0.8,1.8,1.3c-0.2,0.2-0.1,0.5-0.1,0.7
			c-0.1,2.7-0.2,5.4-0.2,8.2c-0.1,2.7-0.1,5.4-0.2,8c0,0.7,0,1.4,0,2c0,0.6,0.3,1.2,0.9,1.4c0.6,0.2,1.1,0.1,1.6-0.3
			c1.1-0.8,1.9-1.9,2.8-2.9c3.2-3.4,6.3-6.9,9.5-10.3c0.1-0.2,0.3-0.3,0.2-0.5c1.4,0.2,2.7,0.8,4.1,0.8c-0.2,0.1-0.1,0.3,0,0.5
			c0.8,2.1,1.5,4.2,2.3,6.2c0.8,2,1.5,4,2.3,6c0.6,1.6,1.1,3.2,1.9,4.8c0.3,0.5,0.6,0.9,1.3,0.9c1.1,0,1.4-0.2,1.9-1.3
			c0.9-2.3,1.8-4.7,2.7-7c1-2.8,2.1-5.5,3.1-8.3c0.2-0.6,0.5-1.1,0.6-1.7c1.5-0.3,3-0.5,4.4-1.1c-0.1,0.3,0.1,0.4,0.3,0.6
			c1.9,2.4,4.1,4.5,6.1,6.9c1.3,1.5,2.7,2.9,4,4.3c0.5,0.6,1.1,1.2,1.7,1.8c0.4,0.4,1,0.7,1.6,0.7c0.5,0,1.1-0.4,1.1-0.8
			c0-0.7,0.2-1.3,0.1-2c-0.1-1.9-0.1-3.8-0.2-5.7c-0.1-1.8-0.1-3.6-0.1-5.3c-0.1-1.7,0.1-3.4-0.1-5.1c-0.1-0.4-0.1-0.9,0.1-1.4
			c0.1-0.2,0.2-0.4,0.4-0.5c0.5-0.4,1-0.8,1.5-1.2c0,0.3,0.2,0.3,0.4,0.4c3.1,1.5,6.3,3.1,9.4,4.6c0.6,0.3,1.1,0.6,1.8,0.7
			c1,0.2,1.5-0.3,1.3-1.3c-0.3-1.2-0.7-2.2-1.2-3.3c-0.6-1.5-1.2-2.9-1.8-4.4c-0.6-1.4-1.2-2.8-1.7-4.2c0.2-0.5,0.7-0.7,0.9-1.1
			c2.8,0.5,5.5,1,8.3,1.5c1.4,0.2,2.8,0.6,4.2,0.7c0.5,0,1-0.1,1.2-0.6c0.2-0.5,0.2-1-0.2-1.4c-2.3-2.9-4.6-5.7-6.9-8.6
			c-0.2-0.3-0.4-0.6-0.8-0.8c0-0.2,0.1-0.4,0.2-0.6c0.3-0.5,0.6-1.1,0.8-1.6c1.2-3.1,2.4-6.2,2.9-9.5c0.3-1.8,0.7-3.6,0.7-5.4
			c0-0.9,0.2-1.8,0.2-2.7c0-0.9,0.4-1.9-0.7-2.6c-0.9-0.6-2.2-0.6-3,0.2c-0.2,0.2-0.4,0.5-0.4,0.9c0,0.8-0.2,1.5-0.1,2.3
			c0.1,2-0.4,3.8-0.6,5.8c-0.1,0.7-0.2,1.3-0.4,2c-0.1,0.3-0.4,0.6-0.4,1c0,0.9-0.2,1.7-0.5,2.6c-0.8,1.9-1.4,3.9-2.3,5.7
			c-1.1,2.2-2.2,4.3-3.6,6.2c-2,2.8-4.2,5.5-6.9,7.8c-1.3,1.1-2.7,2.2-4.1,3.3c-2.2,1.6-4.7,2.9-7.2,4.1c-1.8,0.8-3.6,1.4-5.4,2
			c-1.6,0.5-3.3,0.9-4.9,1.1c-1.9,0.3-3.8,0.6-5.8,0.6c-1.2,0-2.4,0-3.6,0c-2.2,0-4.3-0.5-6.4-0.7c-0.7-0.1-1.4-0.4-2.1-0.5
			c-1.5-0.3-3-0.7-4.5-1.2c-3-1-5.7-2.4-8.4-4c-2.5-1.5-4.8-3.3-6.9-5.3c-0.8-0.8-1.5-1.6-2.3-2.4c-1.5-1.6-2.9-3.3-4.2-5
			c-1.5-2.1-2.7-4.3-3.7-6.6c-0.9-2-1.6-4-2.3-6.1c-0.5-1.9-0.9-3.7-1.2-5.6c-0.3-1.9-0.4-3.9-0.5-5.8c-0.1-1.6-0.6-2.4-1.8-2.6
			c-1-0.2-2.2,0.4-2.2,1.3c0,2.5-0.1,4.9,0.4,7.4c0.4,1.7,0.6,3.4,1,5.1c0.6,2.4,1.5,4.8,2.4,7.1c0.3,0.8,0.8,1.5,1,2.3
			c-0.9,0.8-1.5,1.8-2.3,2.7c-1.9,2.3-3.7,4.6-5.5,7c-0.3,0-0.5-0.2-0.6-0.4c-0.1-0.2-0.2-0.4-0.3-0.6c-1.1-1.6-1.6-3.4-2.2-5.2
			c-1-3.3-1.3-6.6-1.3-10c0-1.6,0.4-3.2,0.6-4.7c0.2-1.1,0.7-2.2,1-3.3c0.5-2.1,1.5-4,2.6-5.9c1-1.6,2-3.1,3.2-4.6
			c1.3-1.5,2.8-2.7,4.2-4c0.8-0.7,1.8-1.3,2.8-1.9c1.1-0.7,2.3-1.3,3.5-1.8c1.4-0.6,3-1,4.5-1.5c1.7-0.5,3.4-0.6,5.1-1
			c0.4-0.1,0.7,0,0.8,0.6c0.2,1.2,0.3,2.3,0.5,3.5c0.5,2.3,1.2,4.4,2.2,6.5c0.5,0.9,1,1.8,1.5,2.7c0.7,1.3,1.7,2.4,2.6,3.6
			c0.6,0.9,1.7,1.5,2.5,2.2c1,0.9,2.1,1.6,3.1,2.4c1.1,0.8,2.2,1.5,3.6,1.7c0.5,0.1,0.7,0,0.9-0.3C60,62,60,63.3,60.2,64.6
			c0.2,1.1,0.4,2.1,0.6,3.2c0.5,2.2,1.3,4.3,2.2,6.4c0.7,1.7,1.8,3.3,2.9,4.8c0.4,0.5,0.7,1.1,1.3,1.6c0.5,0.4,1,0.8,1.6,1.1
			c0.7,0.4,1.5,0.6,2.4,0.4c1.5-0.3,2.8-1.2,3.7-2.4c2.9-3.6,4.7-7.7,5.7-12.2c0.1-0.6,0.1-1.2,0.2-1.8c0.2-1.4,0.5-2.7,0.2-4.1
			c0.4,0.1,0.6-0.3,0.9-0.4c1.4-0.4,2.6-1.2,3.8-2c1-0.7,2-1.5,2.9-2.3c1.4-1.2,2.6-2.6,3.7-4c1.2-1.5,2-3.2,2.8-4.9
			c1-2,1.6-4.2,2.1-6.4c0.2-0.9,0.1-1.9,0.3-2.8c0.4-2.1,0.1-4.2-0.1-6.3c-0.2-1.5-0.6-3-1.1-4.4c-0.2-0.4-0.4-0.8-0.4-1.3
			c0-0.7-0.5-1.2-0.7-1.8c-0.3-0.7-0.7-1.2-1.1-1.9c-1.1-2.1-2.6-4-4.3-5.6c-1.5-1.5-3.2-2.8-5.1-4c-2.4-1.6-5-2.6-7.8-3.4
			C75,9.5,73,9.4,71.1,9.2c-0.2,0-0.4,0.1-0.4-0.2c0-0.2,0.2-0.2,0.4-0.2c1.3-0.2,2.7-0.6,4-0.8c1.8-0.3,3.6-0.3,5.5-0.3
			c0.8,0,1.5,0.2,2.3,0.1c0.3,0,0.5,0,0.5-0.4c0.1,0,0.2,0,0.3,0.1c2.8,1.4,5.3,3.1,7.6,5.2c1.4,1.3,2.7,2.7,3.9,4.2
			c0.8,1,1.4,2.2,2.1,3.3c0.3,0.6,0.6,1.2,1,1.8c0.5,0.9,0.8,1.8,1.2,2.7c0.4,0.9,0.6,2,0.8,3c0.5,2.3,0.9,4.6,1,6.9
			c0,0.4,0.1,0.6,0.6,0.5c1.1-0.1,2.2-0.2,3.2-0.2c1.8-0.1,3.7,0.2,5.5,0.5c2.7,0.6,5.4,1.4,7.9,2.7c0.7,0.4,1.5,0.9,2.4,1
			c-0.1,0.4,0.2,0.5,0.5,0.6c0.6,0.3,1.1,0.6,1.5,1c1.3,1,2.6,2.1,3.8,3.3c1.5,1.4,2.9,3,3.9,4.7c1.6,2.6,2.9,5.3,3.6,8.2
			c0.5,2.1,0.9,4.2,1.1,6.4c0.1,1.1,0,2.2,0,3.4c-0.1,1.2,0,2.4-0.3,3.5c-0.5,2.1-0.8,4.3-1.8,6.3c-0.6,1.1-0.9,2.3-1.7,3.3
			c-1,1.4-2.1,2.8-3.1,4.2c-1.2,1.6-2.4,3.2-3.6,4.8c-1.1,1.4-2.1,2.8-3.1,4.2c-1.1,1.5-2.3,3-3.4,4.6c-0.8,1.2-1.9,2.2-2.4,3.6
			c0,0.2-0.2,0.2-0.3,0.3c-0.2,0.1-0.4,0.3-0.6,0.5c-1,1.3-1.9,2.7-2.9,4c-0.8,1-1.4,2.1-2.2,3.1c-1.2,1.4-2.2,2.9-3.3,4.4
			c-0.7,0.9-1.3,1.9-2,2.8c-0.3,0.4-0.7,0.8-1,1.2c-0.5,0.8-1.1,1.6-1.6,2.3c-0.7,0.8-1.4,1.7-1.9,2.6c-0.6,1-1.4,1.9-2.1,2.8
			c-1.7,2.4-3.4,4.7-5.2,7.1c-1.5,2.1-3.1,4.1-4.6,6.2c-0.2,0.3-0.6,0.5-0.5,0.9c-0.1,0-0.3,0.1-0.4,0.1
			C86.5,139.9,85.9,139.9,85.4,140.1z M55.2,71.3c0.1-1-0.3-1.9-1-2.7c-0.7-0.8-1.8-1.2-2.7-1.2c-2,0.1-3.8,1.4-3.8,4
			c0,2.1,1.8,3.6,3.8,3.7C53.3,75.2,55.4,73.6,55.2,71.3z M94.2,71.3c0.1-0.7-0.1-1.4-0.5-2c-0.2-0.4-0.4-1-0.9-1.2
			c-0.5-0.1-1-0.3-1.6-0.4c-1.5-0.3-2.8,0.2-3.7,1.4c-0.9,1.2-1.1,2.6-0.4,3.9c0.7,1.4,1.9,2.1,3.3,2.1
			C92.4,75.3,94.4,73.6,94.2,71.3z M101.8,72.6c2.1,0,3.8-1.6,3.8-3.6c0-2.5-1.4-3.8-3.8-3.8c-2.3,0-3.8,1.8-3.8,3.7
			C98,70.8,99.4,72.6,101.8,72.6z M40.2,72.6c2.1,0,3.7-1.7,3.8-3.9c0-1.9-1.5-3.7-3.4-3.7c-2.3,0-4.1,1.6-4.1,3.9
			C36.4,70.9,38.2,72.6,40.2,72.6z M43.9,80.1c1.5,0,2.6-1,2.6-2.3c0-1.4-1.1-2.6-2.4-2.6c-1.4,0-2.5,1.1-2.6,2.4
			C41.5,78.7,42.5,80.2,43.9,80.1z M94.2,60.2c-1.6-0.1-2.4,1.4-2.4,2.5c0,1.2,1.2,2.4,2.4,2.5c1,0,2.6-1.1,2.6-2.4
			C96.7,61.1,95.8,60.2,94.2,60.2z M100.4,77.7c0-1.4-0.9-2.3-2.2-2.4c-1.6,0-2.6,0.9-2.7,2.4c-0.1,1.1,1.1,2.5,2.5,2.4
			C99.4,80.1,100.4,79.1,100.4,77.7z M50.2,62.6c0-1.4-1-2.4-2.4-2.5c-1.3,0-2.4,1.1-2.5,2.4c0,1.2,1.1,2.5,2.2,2.5
			C49,65,50.1,64.1,50.2,62.6z"/>
		<path class="st75" d="M20.7,84.2c-0.2,0.9,0.5,1.5,1,2.1c1.7,2.5,3.5,4.9,5.4,7.3c1.5,2,2.9,4,4.4,6c1.7,2.2,3.3,4.6,5,6.9
			c1.6,2.2,3.2,4.4,4.9,6.6c0.4,0.6,1,1.1,1.3,1.7c1.1,1.7,2.4,3.3,3.5,5c0.5,0.8,1.2,1.3,1.7,2.1c0.7,1.1,1.4,2.3,2.3,3.3
			c1.3,1.5,2.2,3.3,3.5,4.7c0.5,0.5,0.9,1,1.3,1.5c0.9,1.2,1.7,2.4,2.5,3.7c0.8,1.2,1.8,2.2,2.6,3.3c0.6,0.7,1.2,1.5,1.6,2.4
			c0.1,0.2,0.1,0.3-0.2,0.4c-1.6-0.2-3.1-0.5-4.6-0.8c-0.7-0.2-1.5-0.2-2.2-0.4c-0.3-0.1-0.6-0.2-0.9-0.4c-1.3-1.8-2.6-3.6-4-5.4
			c-2.6-3.6-5.3-7.1-7.9-10.7c-3.2-4.3-6.3-8.5-9.4-12.8c-0.6-0.8-1.2-1.6-1.8-2.4c-1.7-2.3-3.3-4.5-5-6.8c-1-1.4-2.1-2.8-3.1-4.2
			c-1.7-2.3-3.4-4.7-5.2-7c-1.2-1.6-2.3-3.2-3.5-4.7c-0.9-1.1-1.7-2.3-2.6-3.4c-0.9-1.2-1.7-2.5-2.3-3.9c-0.7-1.5-1.2-3-1.7-4.6
			c-0.4-1-0.4-2-0.6-3c-0.4-1.5-0.4-3.1-0.4-4.6c0-0.8,0.1-1.6,0.1-2.4c0-2.1,0.5-4.2,1-6.2c0.8-2.8,1.8-5.5,3.5-8
			c0.8-1.2,1.6-2.4,2.5-3.5c1.3-1.6,2.9-2.9,4.4-4.3c0.2-0.2,0.4-0.2,0.6-0.4c1-0.8,2.2-1.3,3.1-2.2c0.2,0,0.4-0.1,0.6-0.2
			c0.9-0.4,1.7-0.9,2.6-1.3c1.7-0.7,3.4-1.2,5.2-1.6c1.7-0.4,3.5-0.8,5.2-0.8c1.7,0,3.3-0.1,5,0.2c0.6,0.1,0.7-0.1,0.7-0.6
			c0-1.1,0-2.1,0.2-3.2c0.2-1.5,0.6-3.1,1-4.6c0.5-1.9,1.3-3.8,2.2-5.6c0.2-0.4,0.5-0.9,0.6-1.4c0.3-0.1,0.4-0.3,0.5-0.6
			c0.6-1.2,1.5-2.3,2.4-3.4c1-1.3,2.2-2.4,3.4-3.4c1.1-0.9,2.1-1.8,3.2-2.6c1.3-0.9,2.6-1.5,4-2.2c2.9-1.4,6-2.3,9.1-2.7
			c2.5-0.3,5.1-0.3,7.6,0.1c2.9,0.5,5.7,1.1,8.3,2.3c0,0.3-0.3,0.3-0.5,0.4c-0.8,0-1.5-0.1-2.3-0.1c-1.8,0-3.6-0.1-5.5,0.3
			c-1.3,0.2-2.7,0.6-4,0.8c-0.2,0-0.4,0-0.4,0.2c0,0.2,0.2,0.2,0.4,0.2c2,0.1,3.9,0.3,5.9,0.8c2.8,0.7,5.4,1.8,7.8,3.4
			c1.8,1.2,3.5,2.5,5.1,4c1.7,1.7,3.2,3.5,4.3,5.6c0.3,0.6,0.8,1.2,1.1,1.9c0.2,0.6,0.7,1.1,0.7,1.8c0,0.4,0.3,0.8,0.4,1.3
			c0.5,1.4,0.9,2.9,1.1,4.4c0.2,2.1,0.5,4.2,0.1,6.3c-0.2,0.9-0.1,1.9-0.3,2.8c-0.5,2.2-1.1,4.3-2.1,6.4c-0.8,1.7-1.6,3.4-2.8,4.9
			c-1.1,1.4-2.3,2.8-3.7,4c-0.9,0.8-1.8,1.7-2.9,2.3c-1.2,0.8-2.4,1.6-3.8,2c-0.3,0.1-0.5,0.5-0.9,0.4c-0.3-1.5-0.9-2.8-1.6-4.1
			c0.6-0.5,1.3-0.9,2-1.2c2.6-1.4,4.8-3.3,6.7-5.6c1.8-2.1,3-4.4,3.9-7c0.8-2.3,1.1-4.6,1.1-7.1c0-1-0.1-2.1-0.2-3.1
			c-0.1-1.2-0.3-2.3-0.7-3.4c-0.6-1.5-1.3-3.1-2-4.5c-0.3-0.6-0.6-1.3-1-1.8c-0.9-1.1-1.8-2.3-2.9-3.3c-4.1-3.9-9-6-14.7-6.2
			c-3.5-0.1-6.8,0.5-10,2c-1.8,0.8-3.5,1.9-5,3.2c-1.4,1.2-2.7,2.5-3.7,3.9c-4,5.7-5.3,11.9-3.7,18.7c0.2,1,0.7,1.9,1,2.9
			c0.6,1.7,1.5,3.2,2.5,4.7c1.1,1.6,2.4,3,3.9,4.2c0.6,0.4,1.2,0.8,1.7,1.2c1.2,0.9,2.4,1.8,3.8,2.3c-0.6,1.2-1.2,2.3-1.6,3.6
			c-0.2,0.3-0.4,0.4-0.9,0.3c-1.4-0.2-2.5-0.9-3.6-1.7c-1.1-0.8-2.2-1.5-3.1-2.4c-0.8-0.8-1.8-1.4-2.5-2.2c-0.9-1.2-1.9-2.3-2.6-3.6
			c-0.5-0.9-1.1-1.7-1.5-2.7c-1-2.1-1.7-4.3-2.2-6.5c-0.3-1.2-0.4-2.3-0.5-3.5c-0.1-0.5-0.4-0.7-0.8-0.6c-1.7,0.4-3.4,0.5-5.1,1
			c-1.5,0.5-3,0.9-4.5,1.5c-1.2,0.5-2.3,1.1-3.5,1.8c-1,0.6-1.9,1.2-2.8,1.9c-1.5,1.3-2.9,2.5-4.2,4c-1.2,1.4-2.2,3-3.2,4.6
			c-1.1,1.8-2.1,3.7-2.6,5.9c-0.3,1.1-0.8,2.1-1,3.3c-0.3,1.6-0.6,3.1-0.6,4.7c-0.1,3.4,0.3,6.8,1.3,10c0.5,1.8,1.1,3.6,2.2,5.2
			c0.1,0.2,0.2,0.4,0.3,0.6c0.1,0.3,0.3,0.5,0.6,0.4C19.6,83.7,19.9,84.1,20.7,84.2z"/>
		<path class="st16" d="M87.5,139.6c0-0.4,0.3-0.6,0.5-0.9c1.5-2.1,3.1-4.1,4.6-6.2c1.7-2.3,3.5-4.7,5.2-7.1
			c0.7-0.9,1.5-1.8,2.1-2.8c0.6-0.9,1.3-1.8,1.9-2.6c0.6-0.7,1.2-1.5,1.6-2.3c0.3-0.5,0.7-0.8,1-1.2c0.7-0.9,1.3-1.9,2-2.8
			c1.1-1.5,2.1-3,3.3-4.4c0.8-1,1.4-2.1,2.2-3.1c1-1.3,2-2.7,2.9-4c0.2-0.2,0.3-0.4,0.6-0.5c0.1-0.1,0.3-0.1,0.3-0.3
			c0.5-1.4,1.6-2.4,2.4-3.6c1-1.6,2.2-3.1,3.4-4.6c1-1.4,2.1-2.8,3.1-4.2c1.2-1.6,2.4-3.2,3.6-4.8c1-1.4,2-2.8,3.1-4.2
			c0.8-1,1.1-2.2,1.7-3.3c1-2,1.4-4.2,1.8-6.3c0.3-1.1,0.2-2.3,0.3-3.5c0.1-1.1,0.1-2.2,0-3.4c-0.1-2.2-0.5-4.3-1.1-6.4
			c-0.8-2.9-2.1-5.7-3.6-8.2c-1.1-1.7-2.4-3.3-3.9-4.7c-1.2-1.2-2.4-2.3-3.8-3.3c-0.5-0.4-1-0.7-1.5-1c-0.3-0.1-0.5-0.2-0.5-0.6
			c1.7-0.9,3-2.3,4.1-3.8c1.5-1.9,2.4-4.1,2.2-6.6c0-0.4,0-0.7,0-1.1c1.3,1.6,2.5,3.4,3.6,5.1c4.2,6.6,7.2,13.7,9.1,21.4
			c0.6,2.4,1,4.8,1.3,7.3c0.2,1.9,0.3,3.8,0.5,5.7c0.2,2.1,0.3,4.3,0.1,6.4c-0.2,2.1-0.3,4.2-0.6,6.3c-0.5,3.9-1.3,7.6-2.4,11.4
			c-0.3,1-0.7,2.1-1,3.1c-0.4,1.3-1,2.6-1.5,3.8c-0.9,2.2-1.9,4.3-3.1,6.4c-1.5,2.9-3.3,5.6-5.2,8.2c-1.7,2.3-3.6,4.4-5.5,6.6
			c-1.2,1.4-2.5,2.6-3.8,3.8c-2.3,2.1-4.7,4.1-7.3,5.8c-3.5,2.3-7,4.5-10.9,6.2c-3,1.4-6.1,2.6-9.3,3.5c-1,0.3-2,0.6-3.1,0.8
			C87.8,139.6,87.6,139.6,87.5,139.6z"/>
		<path class="st16" d="M21.4,38.9c-0.9,0.9-2.1,1.4-3.1,2.2c-0.2,0.1-0.4,0.2-0.6,0.4c-1.5,1.4-3.1,2.7-4.4,4.3
			c-0.9,1.1-1.7,2.3-2.5,3.5c-1.6,2.4-2.7,5.1-3.5,8c-0.6,2-1,4.1-1,6.2c0,0.8-0.1,1.6-0.1,2.4c0.1,1.5,0,3.1,0.4,4.6
			c0.3,1,0.3,2,0.6,3c0.6,1.5,1.1,3.1,1.7,4.6c0.6,1.4,1.4,2.7,2.3,3.9c0.9,1.1,1.7,2.3,2.6,3.4c1.2,1.6,2.3,3.2,3.5,4.7
			c1.7,2.3,3.4,4.7,5.2,7c1,1.4,2.1,2.8,3.1,4.2c1.7,2.3,3.4,4.5,5,6.8c0.6,0.8,1.2,1.6,1.8,2.4c3.1,4.3,6.3,8.5,9.4,12.8
			c2.6,3.6,5.3,7.1,7.9,10.7c1.3,1.8,2.6,3.6,4,5.4c-1,0-1.9-0.4-2.8-0.7c-2.5-0.7-4.9-1.6-7.3-2.6c-3.6-1.5-7.2-3.3-10.5-5.4
			c-3.5-2.2-6.8-4.8-9.9-7.5c-2.5-2.2-4.6-4.6-6.8-7.1c-0.9-1-1.7-2.2-2.6-3.3c-2-2.6-3.7-5.4-5.3-8.3c-0.7-1.3-1.3-2.6-1.9-3.9
			c-0.6-1.2-0.9-2.4-1.5-3.5c-1.5-3.4-2.5-7-3.4-10.6c-0.7-3-1.2-6-1.5-9.1C0.1,75,0,72.5,0,70c0-1.7,0.1-3.3,0.3-5
			C0.8,59.2,2,53.4,3.9,47.9c0.6-1.6,1.2-3.2,1.8-4.8c0.3-0.9,0.9-1.6,1-2.6c1.3-1.8,2.1-3.8,3.2-5.7c1.1-1.8,2.3-3.6,3.5-5.4
			c0.3-0.5,0.7-1,1-1.5c0.1-0.2,0.3-0.4,0.5-0.4c0.2,0.2,0.1,0.4,0.1,0.6c-0.3,1.8,0,3.6,0.8,5.2c1,2,2.6,3.6,4.3,5
			C20.6,38.6,20.9,39,21.4,38.9z"/>
		<path class="st1" d="M127,27.8c0,0.4-0.1,0.7,0,1.1c0.2,2.5-0.7,4.7-2.2,6.6c-1.1,1.5-2.4,2.9-4.1,3.8c-0.9-0.1-1.6-0.6-2.4-1
			c-2.5-1.3-5.2-2.1-7.9-2.7c-1.8-0.4-3.6-0.6-5.5-0.5c-1.1,0-2.2,0.1-3.2,0.2c-0.4,0-0.5-0.1-0.6-0.5c-0.1-2.3-0.4-4.7-1-6.9
			c-0.2-1-0.4-2.1-0.8-3c-0.4-0.9-0.7-1.9-1.2-2.7c-0.3-0.6-0.6-1.2-1-1.8c0.2-0.5,0.4-0.9,0.6-1.4c1-1.9,2.6-3.2,4.3-4.3
			c0.3-0.2,0.7-0.5,1.1-0.6c0.7-0.1,1.3-0.4,1.9-0.5c1.2-0.3,2.4-0.8,3.6-0.9c0.5,0,1.1-0.1,1.6-0.5c0.1,0.1,0.3,0.1,0.4,0.1
			c1.3-0.1,2.6-0.3,4-0.3c1-0.1,2.1-0.1,3.1-0.1c0.5,0,1,0.2,1.6,0.1c0.2,0,0.4,0.2,0.5,0.4C123.4,17,125.8,22.1,127,27.8z"/>
		<path class="st1" d="M21.4,38.9c-0.5,0.1-0.8-0.3-1.1-0.5c-1.7-1.4-3.3-3-4.3-5c-0.8-1.6-1.2-3.4-0.8-5.2c0-0.2,0.1-0.5-0.1-0.6
			c0.4-1.4,0.8-2.7,1.3-4.1c1.3-4.1,3.5-7.7,5.9-11.1c0.2-0.2,0.4-0.4,0.7-0.4c1.3-0.1,2.5-0.1,3.8,0c1.6,0.1,3.1,0.3,4.7,0.3
			c0.1,0.1,0.2,0.1,0.4,0.1c2.1,0.3,4.2,0.8,6.2,1.5c1.8,0.6,3.6,1.5,4.9,3c0.7,0.8,1.3,1.5,1.6,2.5c0.1,0.2,0.2,0.4,0.3,0.5
			c-0.1,0.5-0.4,0.9-0.6,1.4c-0.9,1.8-1.6,3.7-2.2,5.6c-0.4,1.5-0.8,3-1,4.6c-0.2,1-0.1,2.1-0.2,3.2c0,0.5-0.1,0.7-0.7,0.6
			c-1.6-0.2-3.3-0.2-5-0.2c-1.8,0-3.5,0.4-5.2,0.8c-1.8,0.4-3.5,1-5.2,1.6c-0.9,0.4-1.8,0.8-2.6,1.3C21.8,38.8,21.6,38.9,21.4,38.9z
			"/>
		<path class="st16" d="M44.7,19.9c-0.1-0.2-0.2-0.3-0.3-0.5c-0.3-1-1-1.7-1.6-2.5c-1.3-1.6-3.1-2.4-4.9-3c-2-0.7-4-1.3-6.2-1.5
			c-0.1,0-0.3,0-0.4-0.1c0.5-0.5,1.1-0.8,1.7-1.1c5.7-3.6,11.9-6.3,18.3-8.3c3.5-1,7.1-1.7,10.7-2.2c2.1-0.3,4.2-0.3,6.3-0.5
			C69.7,0,71,0,72.3,0c2.9,0.2,5.9,0.3,8.8,0.8c4.2,0.6,8.4,1.6,12.5,3c2.1,0.7,4.1,1.6,6.1,2.5c2,0.9,4,1.9,6,3
			c1.2,0.7,2.4,1.4,3.6,2.2c0.4,0.3,0.9,0.3,1.2,0.7c-0.5,0.3-1,0.5-1.6,0.5c-1.3,0.1-2.4,0.6-3.6,0.9c-0.6,0.1-1.2,0.5-1.9,0.5
			c-0.4,0-0.8,0.3-1.1,0.6c-1.7,1.2-3.4,2.4-4.3,4.3c-0.2,0.5-0.4,0.9-0.6,1.4c-0.7-1.1-1.3-2.2-2.1-3.3c-1.2-1.5-2.4-2.9-3.9-4.2
			c-2.3-2.1-4.9-3.8-7.6-5.2c-0.1,0-0.2-0.1-0.3-0.1c-2.6-1.2-5.4-1.9-8.3-2.3c-2.5-0.4-5.1-0.4-7.6-0.1c-3.2,0.4-6.2,1.3-9.1,2.7
			c-1.4,0.7-2.8,1.3-4,2.2c-1.2,0.8-2.2,1.7-3.2,2.6c-1.2,1.1-2.4,2.2-3.4,3.4c-0.8,1.1-1.8,2.1-2.4,3.4
			C45.1,19.6,44.9,19.8,44.7,19.9z"/>
		<path class="st75" d="M85.4,140.1c0.5-0.2,1.1-0.3,1.7-0.3C86.6,140.1,86,140.1,85.4,140.1z"/>
		<path class="st1" d="M34.2,83.5c-0.4-0.5-0.7-1.1-1.1-1.6c-0.3-0.3-0.5-0.7-0.8-1c-0.9-1.2-1.8-2.5-2.6-3.8c-0.6-1-1.2-2-1.8-3
			c-0.2-0.4-0.2-0.8-0.6-1.1c-0.2-0.8-0.7-1.5-1-2.3c-0.9-2.4-1.8-4.7-2.4-7.1c-0.4-1.7-0.7-3.4-1-5.1c-0.5-2.4-0.4-4.9-0.4-7.4
			c0-0.9,1.2-1.5,2.2-1.3c1.3,0.2,1.8,1,1.8,2.6c0.1,2,0.2,3.9,0.5,5.8c0.3,1.9,0.7,3.8,1.2,5.6c0.6,2.1,1.4,4.1,2.3,6.1
			c1,2.3,2.3,4.5,3.7,6.6c1.3,1.8,2.6,3.5,4.2,5c0.8,0.8,1.5,1.6,2.3,2.4c2.1,2,4.4,3.8,6.9,5.3c2.7,1.6,5.4,3,8.4,4
			c1.5,0.5,2.9,1,4.5,1.2c0.7,0.1,1.3,0.4,2.1,0.5c2.1,0.2,4.2,0.7,6.4,0.7c1.2,0,2.4,0,3.6,0c1.9,0,3.9-0.3,5.8-0.6
			c1.7-0.2,3.3-0.6,4.9-1.1c1.8-0.6,3.7-1.2,5.4-2c2.5-1.2,4.9-2.5,7.2-4.1c1.4-1,2.8-2.1,4.1-3.3c2.7-2.3,4.9-5,6.9-7.8
			c1.4-1.9,2.5-4.1,3.6-6.2c0.9-1.9,1.5-3.8,2.3-5.7c0.3-0.8,0.5-1.7,0.5-2.6c0-0.4,0.3-0.7,0.4-1c0.2-0.7,0.4-1.3,0.4-2
			c0.2-1.9,0.7-3.8,0.6-5.8c-0.1-0.8,0.1-1.5,0.1-2.3c0-0.3,0.2-0.6,0.4-0.9c0.8-0.8,2-0.8,3-0.2c1.1,0.7,0.7,1.7,0.7,2.6
			c0,0.9-0.2,1.8-0.2,2.7c0,1.8-0.4,3.6-0.7,5.4c-0.5,3.3-1.8,6.4-2.9,9.5c-0.2,0.6-0.5,1.1-0.8,1.6c-0.1,0.2-0.2,0.4-0.2,0.6
			c0,0.1-0.1,0.1-0.1,0.2c-1.5,3-3.2,6-5.4,8.6c-0.1,0.1-0.2,0.3-0.2,0.4c-0.2,0.4-0.7,0.6-0.9,1.1c-0.3,0.2-0.5,0.4-0.8,0.7
			c-0.7,0.8-1.3,1.6-2,2.4c-1.6,1.6-3.3,3.1-5.2,4.4c-0.5,0.4-1,0.8-1.5,1.2c-0.2,0.1-0.3,0.3-0.4,0.5c-0.2,0-0.4,0-0.6,0.1
			c-1.5,1-3.2,1.8-4.8,2.7c-2.2,1.1-4.5,2.1-6.8,2.8c-0.7,0.2-1.5,0.4-2.3,0.5c-1.4,0.6-2.9,0.8-4.4,1.1c-1.4,0.2-2.7,0.4-4.1,0.5
			c-2.4,0.2-4.9,0.3-7.3,0c-1.5-0.1-3-0.4-4.5-0.6c-1.4,0-2.7-0.6-4.1-0.8c-0.2-0.1-0.4-0.2-0.6-0.2c-2.3-0.4-4.4-1.3-6.5-2.2
			c-2.6-1.1-5-2.5-7.4-3.9c-0.5-0.6-1.1-1-1.8-1.3c-0.3-0.5-0.9-0.8-1.4-1.2c-1.8-1.5-3.5-2.9-5.2-4.6C35.2,84.6,34.8,84,34.2,83.5z
			"/>
		<path class="st12" d="M79.4,57.3c0.8,1.3,1.4,2.6,1.6,4.1c0.3,1.4,0.1,2.8-0.2,4.1c-0.1,0.6-0.1,1.2-0.2,1.8
			c-1,4.5-2.8,8.6-5.7,12.2c-1,1.2-2.2,2-3.7,2.4c-0.9,0.2-1.7-0.1-2.4-0.4c-0.5-0.3-1.1-0.7-1.6-1.1c-0.6-0.4-0.9-1-1.3-1.6
			c-1.1-1.5-2.2-3-2.9-4.8c-0.9-2.1-1.7-4.2-2.2-6.4c-0.2-1.1-0.5-2.1-0.6-3.2C60,63.3,60,62,60.4,60.8c0.3-1.3,1-2.5,1.6-3.6
			c0.9-0.8,1.7-1.8,2.6-2.6c1-0.8,2.2-1.1,3.3-1.6c0.5-0.2,1.2-0.1,1.8-0.2c2.2-0.4,4.2,0.3,6.1,1.4C77.3,54.9,78.4,56,79.4,57.3z"
			/>
		<path class="st3" d="M44.1,92.3c2.5,1.3,4.9,2.8,7.4,3.9c2.1,0.9,4.2,1.8,6.5,2.2c0.2,0,0.4,0.2,0.6,0.2c0,0.2-0.1,0.4-0.2,0.5
			c-3.2,3.4-6.4,6.8-9.5,10.3c-0.9,1-1.7,2.1-2.8,2.9c-0.5,0.4-1.1,0.5-1.6,0.3c-0.6-0.2-0.9-0.8-0.9-1.4c0-0.7,0-1.4,0-2
			c0.1-2.7,0.1-5.4,0.2-8c0.1-2.7,0.1-5.4,0.2-8.2C43.9,92.7,43.9,92.5,44.1,92.3z"/>
		<path class="st3" d="M62.6,99.4c1.5,0.2,3,0.5,4.5,0.6c2.4,0.2,4.9,0.2,7.3,0c1.4-0.1,2.7-0.3,4.1-0.5c0,0.6-0.4,1.2-0.6,1.7
			c-1,2.8-2,5.5-3.1,8.3c-0.9,2.3-1.8,4.7-2.7,7c-0.5,1.2-0.8,1.4-1.9,1.3c-0.7,0-1-0.4-1.3-0.9c-0.7-1.6-1.3-3.2-1.9-4.8
			c-0.8-2-1.5-4-2.3-6c-0.8-2.1-1.5-4.2-2.3-6.2C62.5,99.7,62.4,99.5,62.6,99.4z"/>
		<path class="st3" d="M82.9,98.4c0.8-0.1,1.5-0.3,2.3-0.5c2.3-0.8,4.6-1.7,6.8-2.8c1.6-0.8,3.3-1.7,4.8-2.7
			c0.2-0.1,0.4-0.2,0.6-0.1c-0.2,0.4-0.2,0.9-0.1,1.4c0.2,1.7,0,3.4,0.1,5.1c0.1,1.8,0.1,3.6,0.1,5.3c0.1,1.9,0.1,3.8,0.2,5.7
			c0,0.7-0.1,1.3-0.1,2c0,0.4-0.6,0.8-1.1,0.8c-0.6,0-1.2-0.2-1.6-0.7c-0.6-0.6-1.1-1.2-1.7-1.8c-1.3-1.5-2.7-2.8-4-4.3
			c-2-2.3-4.2-4.5-6.1-6.9C83,98.8,82.8,98.7,82.9,98.4z"/>
		<path class="st3" d="M99.4,90.6c1.9-1.2,3.6-2.7,5.2-4.4c0.7-0.7,1.4-1.6,2-2.4c0.2-0.3,0.4-0.5,0.8-0.7c0.6,1.4,1.2,2.8,1.7,4.2
			c0.6,1.5,1.2,2.9,1.8,4.4c0.4,1.1,0.9,2.1,1.2,3.3c0.2,1-0.3,1.5-1.3,1.3c-0.6-0.1-1.2-0.4-1.8-0.7c-3.1-1.5-6.3-3.1-9.4-4.6
			C99.6,90.9,99.4,90.8,99.4,90.6z"/>
		<path class="st3" d="M108.3,82c0-0.2,0.1-0.3,0.2-0.4c2.2-2.6,3.9-5.6,5.4-8.6c0-0.1,0.1-0.1,0.1-0.2c0.4,0.1,0.5,0.5,0.8,0.8
			c2.3,2.9,4.6,5.8,6.9,8.6c0.4,0.5,0.5,0.9,0.2,1.4c-0.2,0.5-0.7,0.6-1.2,0.6c-1.4-0.1-2.8-0.4-4.2-0.7
			C113.8,83.1,111.1,82.5,108.3,82z"/>
		<path class="st3" d="M34.2,83.5c0.6,0.4,1,1.1,1.5,1.6c1.6,1.6,3.4,3.1,5.2,4.6c0.5,0.4,1,0.7,1.4,1.2c-2.8,1.2-5.5,2.7-8.2,4
			c-1.1,0.5-2.1,1.1-3.3,1.4c-0.4,0.1-0.7,0.2-1-0.2c-0.3-0.4-0.4-0.8-0.2-1.2c0.5-1.2,0.9-2.3,1.4-3.5c1-2.5,2-5,3-7.5
			C34,83.9,34.1,83.7,34.2,83.5z"/>
		<path class="st3" d="M27.3,73.1c0.4,0.3,0.4,0.7,0.6,1.1c0.6,1,1.2,2,1.8,3c0.8,1.3,1.7,2.5,2.6,3.8c0.2,0.4,0.5,0.7,0.8,1
			c0,0.2-0.1,0.2-0.3,0.3c-1.4,0.2-2.9,0.6-4.3,0.8c-2.6,0.3-5.2,1-7.9,1.2c-0.8-0.1-1.1-0.5-1.1-1.4c1.7-2.4,3.6-4.7,5.5-7
			C25.8,74.9,26.4,73.9,27.3,73.1z"/>
		<path class="st3" d="M55.2,71.3c0.2,2.2-1.9,3.9-3.7,3.8c-2-0.1-3.8-1.6-3.8-3.7c0.1-2.6,1.8-3.9,3.8-4c0.9,0,2,0.4,2.7,1.2
			C55,69.5,55.4,70.4,55.2,71.3z"/>
		<path class="st3" d="M94.2,71.3c0.2,2.3-1.9,4-3.8,3.9c-1.5-0.1-2.7-0.8-3.3-2.1c-0.7-1.4-0.5-2.7,0.4-3.9
			c0.9-1.2,2.1-1.7,3.7-1.4c0.5,0.1,1,0.3,1.6,0.4c0.5,0.1,0.7,0.7,0.9,1.2C94.1,69.9,94.4,70.6,94.2,71.3z"/>
		<path class="st3" d="M101.8,72.6c-2.3-0.1-3.8-1.8-3.8-3.8c0-1.8,1.6-3.7,3.8-3.7c2.4,0,3.8,1.4,3.8,3.8
			C105.6,71,103.8,72.6,101.8,72.6z"/>
		<path class="st3" d="M40.2,72.6c-2,0-3.8-1.7-3.8-3.7c0.1-2.3,1.9-3.9,4.1-3.9c1.9,0,3.5,1.8,3.4,3.7C44,70.9,42.3,72.6,40.2,72.6
			z"/>
		<path class="st3" d="M43.9,80.1c-1.3,0.1-2.4-1.4-2.3-2.5c0-1.3,1.2-2.5,2.6-2.4c1.3,0,2.4,1.2,2.4,2.6
			C46.5,79.1,45.3,80.1,43.9,80.1z"/>
		<path class="st3" d="M94.2,60.2c1.5,0,2.5,1,2.6,2.5c0.1,1.3-1.6,2.4-2.6,2.4c-1.2,0-2.5-1.2-2.4-2.5
			C91.8,61.6,92.7,60.1,94.2,60.2z"/>
		<path class="st3" d="M100.4,77.7c0,1.4-1,2.4-2.3,2.5c-1.4,0.1-2.5-1.4-2.5-2.4c0.1-1.5,1-2.4,2.7-2.4
			C99.5,75.3,100.4,76.3,100.4,77.7z"/>
		<path class="st3" d="M50.2,62.6c-0.1,1.4-1.2,2.4-2.7,2.4c-1.1,0-2.2-1.3-2.2-2.5c0-1.3,1.1-2.4,2.5-2.4
			C49.2,60.2,50.2,61.3,50.2,62.6z"/>
		<path class="st3" d="M79.4,57.3c-1-1.3-2.1-2.4-3.5-3.1c-1.9-1.1-3.9-1.8-6.1-1.4c-0.6,0.1-1.3,0-1.8,0.2
			c-1.1,0.4-2.3,0.8-3.3,1.6c-1,0.8-1.7,1.8-2.6,2.6c-1.4-0.5-2.6-1.4-3.8-2.3c-0.6-0.4-1.2-0.8-1.7-1.2c-1.5-1.2-2.8-2.6-3.9-4.2
			c-1-1.5-1.9-3-2.5-4.7c-0.4-1-0.8-1.9-1-2.9c-1.6-6.8-0.3-13,3.7-18.7c1.1-1.5,2.3-2.8,3.7-3.9c1.5-1.3,3.2-2.3,5-3.2
			c3.2-1.4,6.5-2.1,10-2c5.7,0.2,10.6,2.3,14.7,6.2c1.1,1,1.9,2.2,2.9,3.3c0.4,0.5,0.7,1.2,1,1.8c0.8,1.5,1.5,3,2,4.5
			c0.4,1.1,0.6,2.3,0.7,3.4c0.1,1,0.2,2.1,0.2,3.1c0,2.4-0.4,4.8-1.1,7.1c-0.9,2.6-2.1,4.9-3.9,7c-1.9,2.3-4.1,4.1-6.7,5.6
			C80.7,56.5,80,56.8,79.4,57.3z M57.5,37.6c0.2,8,6.4,13.4,13.2,13.4c7.7-0.1,13-5.8,13.2-13.3c0.1-7.1-5.6-13.6-14.5-13
			C63.4,25,57.7,30.2,57.5,37.6z"/>
		<path class="st1" d="M57.5,37.6c0.2-7.4,5.9-12.6,11.8-13c8.9-0.6,14.7,5.9,14.5,13c-0.1,7.6-5.5,13.3-13.2,13.3
			C63.8,51,57.7,45.6,57.5,37.6z M70.5,34.1c-2.1-0.1-3.7,1.8-3.7,3.7c0.1,2.2,2,3.7,3.8,3.6c1.9-0.1,3.4-1.5,3.6-3.5
			C74.3,36.1,72.6,34,70.5,34.1z M76.5,27.9c-1.8-0.3-3.1,1.5-3.1,2.9c0,1.7,1.3,3.1,3.1,3.1c1.6,0,3-1.4,3-2.9
			C79.5,29.2,78,27.7,76.5,27.9z"/>
		<path class="st3" d="M70.5,34.1c2.1-0.2,3.8,2,3.7,3.7c-0.2,2.1-1.7,3.5-3.6,3.5c-1.8,0.1-3.7-1.4-3.8-3.6
			C66.8,35.9,68.5,34,70.5,34.1z"/>
		<path class="st3" d="M76.5,27.9c1.5-0.2,3,1.3,3,3.1c0,1.5-1.4,2.9-3,2.9c-1.8,0-3-1.4-3.1-3.1C73.3,29.4,74.7,27.7,76.5,27.9z"/>
	</g>
</g>
</svg>
