<?xml version="1.0" encoding="utf-8"?>
<!-- Generator: Adobe Illustrator 27.3.1, SVG Export Plug-In . SVG Version: 6.00 Build 0)  -->
<svg version="1.1" id="Ebene_1" xmlns="http://www.w3.org/2000/svg" xmlns:xlink="http://www.w3.org/1999/xlink" x="0px" y="0px"
	 viewBox="0 0 141.7 141.7" style="enable-background:new 0 0 141.7 141.7;" xml:space="preserve">
<style type="text/css">
	.st0{fill:#F6BB37;}
	.st1{fill:#3684C6;}
	.st2{fill:#DCA12A;}
	.st3{fill:#FCFCFE;}
	.st4{fill:#E97E2F;}
	.st5{fill:#28273D;}
	.st6{fill:#7F65AA;}
	.st7{fill:#B49ECB;}
	.st8{fill:#66529D;}
	.st9{fill:#33314C;}
	.st10{fill:#35ACC6;}
	.st11{fill:#27263D;}
	.st12{fill:#DB191D;}
	.st13{fill:#42BEE1;}
	.st14{fill:#EE715E;}
	.st15{fill:#396CB3;}
	.st16{fill:#EA5B4C;}
	.st17{fill:#F2C551;}
	.st18{fill:#27273D;}
	.st19{fill:#B0CF6D;}
	.st20{fill:#28263D;}
	.st21{fill:#9E4A30;}
	.st22{fill:#DB1E1D;}
	.st23{fill:#FBFBFD;}
	.st24{fill:#A3C163;}
	.st25{fill:#3F426D;}
	.st26{fill:#33304C;}
	.st27{fill:#DB181D;}
	.st28{fill:#83C4ED;}
	.st29{fill:#B6622B;}
	.st30{fill:#AB795E;}
	.st31{fill:#88C7EE;}
	.st32{fill:#9BB7CC;}
	.st33{fill:#E97F31;}
	.st34{fill:#CD6F2C;}
	.st35{fill:#A8A4A6;}
	.st36{fill:#84C4EC;}
	.st37{fill:#FEFEFE;}
	.st38{fill:#D91F1D;}
	.st39{fill:#F29454;}
	.st40{fill:#3C86C6;}
	.st41{fill:#F8FAFD;}
	.st42{fill:#AD8ABF;}
	.st43{fill:#67529E;}
	.st44{fill:#F6D373;}
	.st45{fill:#29273D;}
	.st46{fill:#EE715D;}
	.st47{fill:#F9C6BD;}
	.st48{fill:#A65E3A;}
	.st49{fill:#F18B88;}
	.st50{fill:#82C2EC;}
	.st51{fill:#E28080;}
	.st52{fill:#D57474;}
	.st53{fill:#4F5173;}
	.st54{fill:#3785C6;}
	.st55{fill:#E84680;}
	.st56{fill:#28273E;}
	.st57{fill:#E13072;}
	.st58{fill:#F5BA37;}
	.st59{fill:#F3C651;}
	.st60{fill:#DB5144;}
	.st61{fill:#A17FB8;}
	.st62{fill:#AC8ABE;}
	.st63{fill:#342E4F;}
	.st64{fill:#2DAC64;}
	.st65{fill:#5CB993;}
	.st66{fill:#9DBA5C;}
	.st67{fill:#5AB992;}
	.st68{fill:#66529E;}
	.st69{fill:#EA5A4C;}
	.st70{fill:#12994E;}
	.st71{fill:#DE5044;}
	.st72{fill:#EE715F;}
	.st73{fill:#E97F2F;}
	.st74{fill:#A89AC9;}
	.st75{fill:#38B3CD;}
	.st76{fill:#DD3D78;}
	.st77{fill:#F5D373;}
	.st78{fill:#FDEAB4;}
	.st79{fill:#7F66AA;}
	.st80{fill:#3885C6;}
	.st81{fill:#40436D;}
	.st82{fill:#A99ACA;}
	.st83{fill:#34314B;}
	.st84{fill:#F4D273;}
	.st85{fill:#83C5ED;}
	.st86{fill:#D29C2C;}
	.st87{fill:#87C7EE;}
	.st88{fill:#F6BB38;}
	.st89{fill:#F6BB3A;}
	.st90{fill:#E83D69;}
	.st91{fill:#F4BC3F;}
	.st92{fill:#85C5EB;}
	.st93{fill:#DA1E1D;}
	.st94{fill:#DDA736;}
	.st95{fill:#F18D88;}
	.st96{fill:#FFFEFE;}
	.st97{fill:#F9C8BC;}
	.st98{fill:#3B85C6;}
</style>
<g id="VQuBNc.tif">
	<g>
		<path class="st28" d="M55.5,139.6c-2.3,0.3-4.3-0.6-6.4-1.3c-9.7-3.3-18.5-8.1-26.1-15.1c-2.5-2.3-4.6-4.8-6.9-7.2
			c-0.2-0.2-0.3-0.3-0.5-0.5c-5.3-6.5-9.2-13.7-12-21.6c-1.3-3.7-2.9-7.4-3.2-11.2C0.1,76.4-0.2,70,0.2,63.5
			c0.4-5.7,2-11.1,3.8-16.4C6.3,40.2,9.7,33.8,14.1,28c4.4-5.7,9.5-10.9,15.5-15c9-6.1,18.8-10.4,29.7-12c4.3-0.6,8.6-1.1,12.9-1
			c8.3,0.3,16.5,1.7,24.3,4.8c9.9,4,18.8,9.5,25.9,17.5c6.8,7.5,12.3,15.8,15.4,25.6c2.4,7.6,4,15.3,3.8,23.2
			c-0.2,10.9-2.5,21.3-7.5,31.2c-3.8,7.4-8.5,13.9-14.4,19.6c-4.4,4.3-9.5,7.8-14.8,10.9c-5.5,3.2-11.4,5.2-17.5,6.7
			c-0.1-0.2-0.3-0.3-0.4-0.5c0-6.2,0-12.4,0-18.7c0.6-0.1,0.9-0.3,0.9-0.9c0.8,0,1.2-0.7,1.9-1.1c6.2-3.3,11.9-7.2,16.5-12.6
			c6.6-7.7,10.3-16.5,11.6-26.4c0.4-2.7,0.4-5.5,0.6-8.2c0.1-0.1,0.3-0.3,0.4-0.4c2.8,0,5.6,0,8.3,0c0.1,0.1,0.3,0.3,0.4,0.4
			c0.2,2.1,0.9,4,1.8,5.9c0.5,1,1.1,2,2.5,2c1.4,0,2-0.9,2.5-2c1.2-2.5,1.6-5.1,1.8-7.9c0.3-4-0.2-7.7-2.1-11.2
			c-1.1-2.1-3.1-2.2-4.4-0.3c-1.3,2-1.8,4.2-2.1,6.5c-0.1,0.1-0.3,0.3-0.4,0.4c-3.1,0-6.2,0-9.3,0c-0.2-0.1-0.4-0.2-0.6-0.3
			c-1.9-6.6-3.9-13.2-8.3-18.8c-0.1-0.1-0.3-0.3-0.4-0.4c-0.7-0.9-1.3-1.8-2-2.7c-1.3-1.6-4.3-2.8-3.9-4.7c0.4-1.9,3-3.3,4.6-4.9
			c0.9-1,1.7-1.4,2.8-0.2c1.3,1.3,3.2,1.8,4.9,2.5c1.5,0.6,2.4-0.6,3.5-1.2c0.5-0.2,0.5-0.9,0.3-1.3c-1.9-3.5-3.3-7.4-6.8-9.7
			c-0.1-0.1-0.2-0.2-0.4-0.4c-1.9-2.5-4.6-3.7-7.5-4.6c-0.9-0.3-2.4-0.6-2.7,0c-0.5,0.9-1.3,2.1-0.4,3.4c0.3,0.4,0.4,0.9,0.4,1.4
			c0.3,2,3.1,3.2,2.3,5.2c-0.8,1.7-2.7,3-4.2,4.4c-0.2,0.2-0.4,0.3-0.5,0.5c-1,1.5-2.3,1.4-3.6,0.5c-2.3-1.8-5-2.9-7.6-4.1
			c-4.7-2.1-9.7-3-14.8-3.3c-0.1-0.1-0.3-0.3-0.4-0.4c0-3.1,0-6.2,0-9.3c0.1-0.1,0.3-0.3,0.4-0.4c2-0.7,4.1-1.3,6.1-2.2
			c0.8-0.4,2-0.8,1.8-2.2c-0.1-1.4-0.9-2-2.1-2.6c-2.6-1.3-5.6-1.3-8.3-2c-0.5-0.5-1-0.5-1.4,0c-3.1,0.5-6.3,0.5-9.1,2.1
			c-0.9,0.5-2,0.9-1.8,2.3c0.1,1.2,0.4,2.1,1.6,2.7c1.5,0.7,2.9,1.3,4.5,1.5c0.8,0.1,2.3-0.1,2.2,1.5c0,2.6,0,5.2,0,7.8
			c0,0.9-0.4,1.4-1.4,1.3c-7.8-0.1-14.5,3-21.1,6.6c-1.3,0.7-2.4,1.9-4.1,1.8c-0.8-0.9-1.6-1.9-2.5-2.7c-2.8-2.3-5.1-4.6-1.8-8.1
			c0.1-0.1,0.3-0.3,0.4-0.4c0.1-0.5,0-1.1,0.3-1.6c0.9-1.5,0-3.2-1.7-3.3c-0.8-0.1-1.6,0-2.4,0c-0.6,0-1,0.2-1,0.9
			C29.6,20,28,21,26.3,22.3c-1.2,1-1.4,2.4-2.6,3.3c-2.3,1.6-3.2,4.1-4,6.6c-0.4,1.2,0.3,2,1.2,2.7c0.8,0.7,1.5,0.3,2.4,0.1
			c2.4-0.5,4.5-3.3,6.4-2.7c2.2,0.7,3.7,3.3,5.5,5.1c0.2,0.2,0.3,0.4,0.5,0.5c0.6,0.5,0.5,0.8,0,1.3c-3.3,2.9-5.5,6.7-7.9,10.4
			c-3,4.5-4.6,9.5-5.8,14.7c-2.7,0-5.5,0-8.2,0c0.1-2.3-0.6-4.5-1.9-6.4c-1.4-2.1-3.8-2-4.8,0.3c-2.8,6.3-2.8,12.8,0,19.1
			c1,2.3,3.3,2.4,4.8,0.4c0.5-0.7,0.9-1.5,1.2-2.3c0.5-1.3,0-3.4,1.4-4c1.3-0.6,3.1-0.1,4.6-0.2c0.1,0,0.2,0,0.2,0
			c1.6-0.3,1.9,0.5,1.9,1.9c-0.4,6.6,1.1,12.9,3.5,19.1c3.2,8.4,8.8,14.9,15.7,20.5c4.6,3.7,9.8,6.1,15.3,8.2
			C55.6,127.2,55.6,133.4,55.5,139.6z"/>
		<path class="st29" d="M87.2,120.5c0,6.2,0,12.4,0,18.7c-0.1,0.1-0.1,0.3-0.1,0.4c-2.8,1.4-5.9,1.7-8.8,1.9
			c-5.3,0.3-10.7,0.6-16.1-0.2c-2-0.3-4.1-0.2-6.1-1.2c0-6.4,0-12.7,0-19.1c2.1,0.4,4.1,1,6.2,1.3c6.2,1,12.4,1.1,18.4-0.8
			c2.1-0.5,4.2-1,6.3-1.5C87.1,120.1,87.2,120.3,87.2,120.5z"/>
		<path class="st30" d="M56.1,121c0,6.4,0,12.7,0,19.1c-0.3,0.1-0.5-0.1-0.6-0.4c0-6.2,0-12.4,0-18.6C55.8,121,55.9,121,56.1,121z"
			/>
		<path class="st31" d="M15.7,115.5c0.2,0.2,0.3,0.3,0.5,0.5C16.1,115.9,15.9,115.7,15.7,115.5z"/>
		<path class="st32" d="M87.1,139.6c0-0.2,0.1-0.3,0.1-0.4c0.1,0.2,0.3,0.3,0.4,0.5C87.4,139.6,87.3,139.6,87.1,139.6z"/>
		<path class="st33" d="M87.1,119.9c-2.1,0.5-4.2,1-6.3,1.5c-3.9-2-8.2-3.2-11.8-5.8c5.6,0.3,10.9-1,16.1-2.7c0.9-0.3,2-0.3,2.1-1.7
			c0.5-0.2,1.1-0.4,1.6-0.7c7.1-4.2,11.9-10.3,14.7-17.9c1.3-3.4,2.2-6.9,2-10.6c-0.1-1.1-0.2-2.4-1-2.7c-1.4-0.5-1.5,1.1-2,1.9
			c-1.3,2.3-2.2,4.8-4.2,6.8c-2.7,2.7-5.3,5.8-8.5,7.8c-4.1,2.4-8.5,4.5-13.4,5c-1.5,0.5-3,0.4-4.5,0.4c-2.5,0.1-4.9-0.1-7.4-0.4
			c-4.5-1-8.8-2.6-12.5-5.2c-3.3-2.3-6.4-5.1-8.7-8.6c0-0.5,0.1-1-0.1-1.5c-2.6-6.3-4.3-12.9-5.3-19.7c0.2,0,0.5-0.1,0.7-0.1
			c4.8,0.5,9.9-5.7,8.2-10.5c-1.4-4.2-3.6-6.1-9-6.3c0.1-1.5-0.2-3.2,0.3-4.6c1-3.3,1.6-6.7,2.2-10.1c1.7,0.1,2.8-1,4.1-1.8
			c6.6-3.5,13.3-6.7,21.1-6.6c0.9,0,1.4-0.5,1.4-1.3c0-2.6,0-5.2,0-7.8c0-1.7-1.5-1.4-2.2-1.5c-1.6-0.3-3.1-0.8-4.5-1.5
			c-1.2-0.6-1.5-1.5-1.6-2.7c-0.2-1.4,0.9-1.7,1.8-2.3c2.8-1.6,6-1.6,9.1-2.1c0.5,0,1,0,1.4,0c2.8,0.7,5.7,0.7,8.3,2
			c1.2,0.6,1.9,1.2,2.1,2.6c0.1,1.5-1,1.8-1.8,2.2c-1.9,0.9-4,1.5-6.1,2.2c-0.3,0-0.5,0.1-0.4,0.4c0,3.1,0,6.2,0,9.3
			C72.9,25.9,73,26,73.4,26c5.1,0.3,10.1,1.2,14.8,3.3c2.6,1.2,5.3,2.3,7.6,4.1c1.2,0.9,2.5,1,3.6-0.5c0.1-0.2,0.3-0.4,0.5-0.5
			c1.4-1.4,3.4-2.7,4.2-4.4c0.8-1.9-1.9-3.2-2.3-5.2c-0.1-0.5-0.2-1-0.4-1.4c-1-1.3-0.2-2.5,0.4-3.4c0.3-0.6,1.8-0.3,2.7,0
			c2.8,0.9,5.6,2.1,7.5,4.6c-0.1,0.3,0,0.4,0.4,0.4c3.6,2.4,5,6.2,6.8,9.7c0.2,0.4,0.2,1.1-0.3,1.3c-1.1,0.5-2,1.7-3.5,1.2
			c-1.7-0.7-3.6-1.2-4.9-2.5c-1.2-1.1-1.9-0.8-2.8,0.2c-1.6,1.7-4.1,3-4.6,4.9c-0.4,1.8,2.6,3,3.9,4.7c0.7,0.9,1.4,1.8,2,2.7
			c-0.1,0.3,0.1,0.4,0.4,0.4c4.4,5.5,6.4,12.1,8.3,18.8c0.1,0.2,0.2,0.4,0.6,0.3c3.1,0,6.2,0,9.3,0c0.3,0.1,0.5-0.1,0.4-0.4
			c0.3-2.3,0.8-4.6,2.1-6.5c1.2-1.9,3.3-1.8,4.4,0.3c1.9,3.5,2.4,7.3,2.1,11.2c-0.2,2.8-0.6,5.4-1.8,7.9c-0.5,1-1.1,2-2.5,2
			c-1.4,0-2-0.9-2.5-2c-0.9-1.9-1.7-3.8-1.8-5.9c0-0.3-0.1-0.5-0.4-0.4c-2.8,0-5.6,0-8.3,0c-0.3-0.1-0.5,0.1-0.4,0.4
			c-0.2,2.7-0.2,5.5-0.6,8.2c-1.3,9.9-5,18.7-11.6,26.4c-4.7,5.4-10.3,9.3-16.5,12.6c-0.6,0.3-1,1.1-1.9,1.1
			C87.7,119.5,87.3,119.5,87.1,119.9z M70.8,58c-8.5-1.1-15.2,7.7-15.2,14.4c-0.1,9,7.2,16,15.3,16c7.8,0,14.6-6.1,15.4-14.2
			C87.1,65.5,79.3,57,70.8,58z M102,49.7c-5.2,0-8.2,3.2-8.5,8.2c-0.3,4.4,4.5,8.8,8.4,8.6c4.8-0.3,8.5-3.8,8.5-8.7
			C110.3,52.9,107,49.7,102,49.7z M79.3,42.1c0.3-5.7-3.8-8.6-8.4-8.5c-4.7,0-8.2,2.6-8.3,8.4c-0.1,4.6,3.9,8.7,8.3,8.7
			C75.4,50.7,79.3,46.7,79.3,42.1z M100.9,41.2c0.1-2.5-2-4.8-4.2-4.8c-2.2,0-4.6,2.3-4.6,4.6c0,2.1,2.5,4.7,4.6,4.7
			C98.8,45.8,100.9,43.6,100.9,41.2z M92.5,35c-0.1-1.8-1.6-3.2-3.4-3.1c-1.8,0.2-2.9,1.2-2.9,3c0,1.6,1.8,3.3,3.4,3.3
			C91.2,38.3,92.6,36.8,92.5,35z"/>
		<path class="st34" d="M68.9,115.6c3.6,2.7,7.9,3.9,11.8,5.8c-6.1,1.9-12.2,1.9-18.4,0.8c-2.1-0.3-4.1-0.9-6.2-1.3
			c-0.2,0-0.4,0-0.5,0c-5.4-2.1-10.7-4.4-15.3-8.2c-6.9-5.6-12.4-12.2-15.7-20.5c-2.4-6.1-3.8-12.4-3.5-19.1
			c0.1-1.4-0.3-2.2-1.9-1.9c-0.1,0-0.2,0-0.2,0c-1.6,0-3.3-0.4-4.6,0.2c-1.3,0.6-0.8,2.7-1.4,4c-0.3,0.8-0.7,1.6-1.2,2.3
			c-1.5,2-3.8,1.9-4.8-0.4c-2.7-6.4-2.7-12.8,0-19.1c1-2.3,3.4-2.4,4.8-0.3c1.3,1.9,2,4.1,1.9,6.4c2.7,0.9,5.5,0.9,8.2,0
			c1.2-5.2,2.8-10.2,5.8-14.7c2.4-3.6,4.6-7.4,7.9-10.4c0.5-0.5,0.7-0.8,0-1.3c-0.2-0.1-0.4-0.3-0.5-0.5c-1.8-1.8-3.3-4.4-5.5-5.1
			c-2-0.6-4,2.2-6.4,2.7c-0.9,0.2-1.6,0.5-2.4-0.1c-0.9-0.7-1.6-1.6-1.2-2.7c0.8-2.5,1.7-5,4-6.6c1.2-0.8,1.4-2.3,2.6-3.3
			c1.6-1.3,3.3-2.4,5.2-3.2c0.8,0.2,1-0.2,1-0.9c0.8,0,1.6-0.1,2.4,0c1.7,0.2,2.6,1.9,1.7,3.3c-0.3,0.6-0.2,1.1-0.3,1.6
			c-0.3,0-0.4,0.1-0.4,0.4c-3.2,3.6-0.9,5.9,1.8,8.1c0.9,0.8,1.7,1.8,2.5,2.7c-0.6,3.4-1.2,6.8-2.2,10.1c-0.4,1.4-0.2,3.1-0.3,4.6
			c-4.1-0.2-7.8,3.6-7.9,8.3c-0.1,4.1,4.1,8.6,7.9,8.5c1.1,6.8,2.7,13.4,5.3,19.7c0.2,0.4,0,1,0.1,1.5c-2.1-1.9-3.2-4.4-4.4-6.9
			c-0.4-0.9-1.1-1.3-2-1c-0.9,0.3-0.6,1.2-0.5,1.9c0.1,0.5,0.6,1.2,0.4,1.6c-1.6,4.4,1.2,8.1,2.4,11.8c1.2,3.7,3.9,7.1,6.8,10.1
			c2.6,2.7,5.6,4.9,8.7,7C59.2,113.7,63.9,115.3,68.9,115.6z"/>
		<path class="st35" d="M22.1,64.4c-2.7,0.9-5.5,0.9-8.2,0C16.6,64.4,19.3,64.4,22.1,64.4z"/>
		<path class="st32" d="M87.1,119.9c0.3-0.4,0.7-0.4,1.1-0.3c0,0.6-0.4,0.9-0.9,0.9C87.2,120.3,87.1,120.1,87.1,119.9z"/>
		<path class="st36" d="M32.5,18.2c0,0.7-0.2,1.1-1,0.9C31.6,18.5,31.9,18.2,32.5,18.2z"/>
		<path class="st36" d="M70.9,6.8c-0.5,0-1,0-1.4,0C69.9,6.3,70.4,6.3,70.9,6.8z"/>
		<path class="st36" d="M109.3,45.7c-0.3,0-0.5-0.1-0.4-0.4C109,45.4,109.2,45.6,109.3,45.7z"/>
		<path class="st36" d="M36.1,23.6c-0.1-0.3,0.1-0.4,0.4-0.4C36.3,23.3,36.2,23.5,36.1,23.6z"/>
		<path class="st32" d="M127.5,70.9c0.3-0.1,0.5,0.1,0.4,0.4C127.8,71.2,127.6,71.1,127.5,70.9z"/>
		<path class="st36" d="M112.2,23c-0.3,0.1-0.4,0-0.4-0.4C112,22.8,112.1,22.9,112.2,23z"/>
		<path class="st32" d="M118.7,71.3c0-0.3,0.1-0.5,0.4-0.4C119,71.1,118.9,71.2,118.7,71.3z"/>
		<path class="st32" d="M73,16.3c-0.1-0.3,0.1-0.5,0.4-0.4C73.2,16,73.1,16.1,73,16.3z"/>
		<path class="st32" d="M73.4,26c-0.3,0-0.5-0.1-0.4-0.4C73.1,25.7,73.2,25.9,73.4,26z"/>
		<path class="st32" d="M127.9,64.4c0,0.3-0.1,0.5-0.4,0.4C127.6,64.7,127.8,64.5,127.9,64.4z"/>
		<path class="st32" d="M118.2,64.8c-0.3,0.1-0.5-0.1-0.6-0.3C117.8,64.6,118,64.7,118.2,64.8z"/>
		<path class="st20" d="M54.7,111.6c-3.1-2.1-6.1-4.3-8.7-7c-2.8-3-5.6-6.3-6.8-10.1c-1.2-3.7-4-7.4-2.4-11.8c0.2-0.4-0.3-1-0.4-1.6
			c-0.1-0.7-0.4-1.6,0.5-1.9c0.9-0.3,1.5,0,2,1c1.2,2.4,2.3,5,4.4,6.9c2.2,3.5,5.3,6.3,8.7,8.6c3.7,2.6,8.1,4.1,12.5,5.2
			c0.2,0.5,0.3,1,0.5,1.6c0.9,2.8,3.4,4.2,6.6,3.8c2.8-0.4,4.6-2.4,4.7-5.3c4.9-0.5,9.3-2.6,13.4-5c3.3-1.9,5.8-5,8.5-7.8
			c2-2,2.9-4.5,4.2-6.8c0.5-0.8,0.6-2.4,2-1.9c0.8,0.3,1,1.7,1,2.7c0.2,3.7-0.7,7.2-2,10.6c-2.8,7.7-7.6,13.7-14.7,17.9
			c-0.5,0.3-1,0.4-1.6,0.7c-0.5-0.1-1-0.1-1.4-0.3C75.3,106.2,64.9,106.4,54.7,111.6z"/>
		<path class="st37" d="M70.8,58c8.5-1.1,16.3,7.5,15.4,16.2c-0.8,8.1-7.6,14.2-15.4,14.2c-8.1,0.1-15.4-6.9-15.3-16
			C55.6,65.7,62.3,56.9,70.8,58z M73.3,67.4c0.2,0,0.5,0,0.7-0.1c0.7-0.1,1.8,0.3,1.9-0.6c0.2-1-1.1-1.1-1.7-1.3
			C67.9,63.1,62,67.4,62,74.2c0,3.1,2.4,6.8,5.2,7.9c3.7,1.5,7.7,0.7,10.5-2.1c1.9-2,2.8-6.8,1.7-9.4c-0.4-1-0.6-2.6-1.8-2.7
			c-1.5-0.1-0.2,1.9-1.1,2.5c-0.1,0-0.1,0.1-0.1,0.2c-0.9,0.7-1.8,1-2.7,0.2C72.5,69.8,72.6,68.6,73.3,67.4z"/>
		<path class="st38" d="M54.7,111.6c10.2-5.2,20.6-5.4,31.1-0.7c0.4,0.2,0.9,0.2,1.4,0.3c-0.1,1.3-1.2,1.4-2.1,1.7
			c-5.2,1.8-10.5,3-16.1,2.7C63.9,115.3,59.2,113.7,54.7,111.6z"/>
		<path class="st37" d="M37.9,65.9c-3.8,0.1-8-4.4-7.9-8.5c0.1-4.7,3.8-8.5,7.9-8.3c5.4,0.3,7.5,2.2,9,6.3c1.6,4.7-3.4,11-8.2,10.5
			C38.4,65.9,38.1,65.9,37.9,65.9z M43.8,57.8c0-2.4-2.4-4.7-5-4.7c-3.2,0-5.3,1.8-5.3,4.7c0,2.5,2.7,5.2,5.2,5.2
			C41.3,62.9,43.7,60.5,43.8,57.8z"/>
		<path class="st37" d="M102,49.7c5,0,8.3,3.2,8.3,8.1c0,4.9-3.6,8.4-8.5,8.7c-3.8,0.2-8.6-4.2-8.4-8.6
			C93.8,52.8,96.8,49.7,102,49.7z M101.7,53.6c-2.9,0-4.7,1.8-4.7,4.5c0,2.8,2.3,5.3,4.9,5.3c2.6,0,5-2.5,5-5.2
			C106.8,55.5,104.7,53.6,101.7,53.6z"/>
		<path class="st37" d="M79.3,42.1c0,4.6-3.8,8.5-8.4,8.5c-4.4,0-8.4-4.1-8.3-8.7c0.1-5.8,3.6-8.4,8.3-8.4
			C75.4,33.6,79.5,36.4,79.3,42.1z M66,42.3c0,2.7,2.4,5.5,4.8,5.4c2.7-0.1,5-2.5,5.1-5.1c0-2.5-2.5-5.1-5-5.2
			C68.7,37.4,65.5,39.6,66,42.3z"/>
		<path class="st39" d="M100.9,41.2c-0.1,2.4-2.1,4.6-4.3,4.5c-2.1-0.1-4.6-2.6-4.6-4.7c0-2.2,2.4-4.6,4.6-4.6
			C99,36.4,101,38.7,100.9,41.2z"/>
		<path class="st37" d="M76.3,100.9c-0.2,2.9-2,4.9-4.7,5.3c-3.2,0.4-5.7-1-6.6-3.8c-0.2-0.5-0.3-1-0.5-1.6c2.4,0.4,4.9,0.5,7.4,0.4
			C73.3,101.2,74.9,101.4,76.3,100.9z"/>
		<path class="st39" d="M92.5,35c0.1,1.7-1.3,3.3-2.9,3.3c-1.6,0-3.4-1.7-3.4-3.3c0.1-1.8,1.1-2.9,2.9-3C91,31.8,92.5,33.2,92.5,35z
			"/>
		<path class="st20" d="M73.3,67.4c-0.7,1.2-0.8,2.4,0.3,3.4c0.9,0.9,1.9,0.6,2.7-0.2c0.4,0.1,0.8,0.1,0.9,0.6
			c1.1,3.9-0.1,7-3.9,8.8c-2.4,1.1-5.1,0.6-6.9-1.2c-2.3-2.2-3-4.8-1.9-7.4C66,67.8,67.5,67.2,73.3,67.4z M71.2,76.2
			c1.1-0.2,2.2-0.8,2.2-2.5c-0.1-1.8-1.2-2.5-2.8-2.4c-1.7,0.1-2.1,1.1-2.1,2.6C68.5,75.5,69.2,76.3,71.2,76.2z"/>
		<path class="st40" d="M73.3,67.4c-5.9-0.3-7.3,0.4-8.8,4c-1.1,2.6-0.4,5.2,1.9,7.4c1.9,1.8,4.5,2.3,6.9,1.2c3.8-1.7,5-4.9,3.9-8.8
			c-0.1-0.5-0.5-0.6-0.9-0.6c0-0.1,0.1-0.2,0.1-0.2c1-0.6-0.4-2.5,1.1-2.5c1.2,0.1,1.4,1.7,1.8,2.7c1.1,2.6,0.2,7.4-1.7,9.4
			c-2.8,2.8-6.8,3.6-10.5,2.1C64.5,81,62,77.3,62,74.2c0-6.8,5.9-11.1,12.2-8.7c0.7,0.2,1.9,0.3,1.7,1.3c-0.1,0.9-1.2,0.5-1.9,0.6
			C73.8,67.4,73.6,67.4,73.3,67.4z"/>
		<path class="st40" d="M43.8,57.8c0,2.7-2.4,5.1-5.1,5.1c-2.5,0-5.2-2.7-5.2-5.2c0-2.8,2.1-4.7,5.3-4.7
			C41.4,53.1,43.8,55.4,43.8,57.8z M35,57.6c0,2.3,1.5,3.9,3.7,3.9c2,0,3.7-1.7,3.7-3.7c0-1.1-2.6-3.7-3.8-3.7
			C36.8,54.1,35,55.8,35,57.6z"/>
		<path class="st40" d="M101.7,53.6c3,0,5.1,1.9,5.1,4.6c0,2.7-2.4,5.2-5,5.2c-2.6,0-4.9-2.5-4.9-5.3C97,55.4,98.8,53.6,101.7,53.6z
			 M105.4,58.6c0.1-2-1.6-3.9-3.6-4c-2-0.1-3.8,1.6-3.8,3.6c0,2,1.6,3.7,3.6,3.8C104,62,105.3,60.9,105.4,58.6z"/>
		<path class="st40" d="M66,42.3c-0.5-2.7,2.7-4.9,4.9-4.9c2.5,0.1,5,2.7,5,5.2c0,2.7-2.4,5-5.1,5.1C68.4,47.8,66,45,66,42.3z
			 M71,46.2c1.7,0,3.9-2.2,3.8-3.7c-0.1-1.2-3-3.7-4.3-3.6C68.7,39,67,40.6,67,42.3C66.9,44.4,68.8,46.3,71,46.2z"/>
		<path class="st37" d="M71.2,76.2c-1.9,0.1-2.7-0.7-2.7-2.3c0-1.5,0.4-2.5,2.1-2.6c1.7-0.1,2.8,0.6,2.8,2.4
			C73.4,75.4,72.3,76,71.2,76.2z"/>
		<path class="st20" d="M35,57.6c0-1.8,1.8-3.5,3.6-3.5c1.1,0,3.7,2.6,3.8,3.7c0,2-1.7,3.7-3.7,3.7C36.4,61.5,34.9,59.9,35,57.6z
			 M38.4,59c0.8,0,1.5-0.3,1.5-1.2c0-0.9-0.6-1.2-1.4-1.3c-1.2-0.1-1.4,0.8-1.4,1.5C36.9,58.7,37.6,59,38.4,59z"/>
		<path class="st20" d="M105.4,58.6c-0.1,2.3-1.4,3.5-3.8,3.4c-2,0-3.6-1.8-3.6-3.8c0-2,1.8-3.7,3.8-3.6
			C103.7,54.7,105.4,56.5,105.4,58.6z M103.4,58.3c-0.2-0.7-0.5-1.3-1.4-1.3c-0.8,0-1.5,0.2-1.5,1.1c-0.1,0.9,0.4,1.3,1.3,1.3
			C102.6,59.5,103.2,59.2,103.4,58.3z"/>
		<path class="st20" d="M71,46.2c-2.2,0.1-4.1-1.8-4-3.9c0-1.7,1.7-3.3,3.5-3.4c1.3-0.1,4.3,2.4,4.3,3.6C74.9,44,72.7,46.2,71,46.2z
			 M72.4,42.6c-0.1-0.8-0.5-1.3-1.4-1.3c-0.6,0.1-1.5-0.3-1.5,0.9c0,1,0.3,1.5,1.4,1.5C71.7,43.8,72.2,43.4,72.4,42.6z"/>
		<path class="st37" d="M38.4,59c-0.7,0-1.4-0.3-1.4-1c0.1-0.7,0.3-1.6,1.4-1.5c0.8,0.1,1.4,0.4,1.4,1.3C39.8,58.7,39.2,59,38.4,59z
			"/>
		<path class="st23" d="M103.4,58.3c-0.2,0.9-0.8,1.2-1.7,1.2c-0.9,0-1.4-0.5-1.3-1.3c0.1-0.9,0.7-1.1,1.5-1.1
			C102.9,57.1,103.2,57.6,103.4,58.3z"/>
		<path class="st41" d="M72.4,42.6c-0.2,0.8-0.7,1.2-1.6,1.2c-1.1,0-1.4-0.6-1.4-1.5c0-1.2,0.9-0.9,1.5-0.9
			C71.8,41.3,72.3,41.7,72.4,42.6z"/>
	</g>
</g>
</svg>
