<?xml version="1.0" encoding="utf-8"?>
<!-- Generator: Adobe Illustrator 27.3.1, SVG Export Plug-In . SVG Version: 6.00 Build 0)  -->
<svg version="1.1" id="Ebene_1" xmlns="http://www.w3.org/2000/svg" xmlns:xlink="http://www.w3.org/1999/xlink" x="0px" y="0px"
	 viewBox="0 0 141.7 141.7" style="enable-background:new 0 0 141.7 141.7;" xml:space="preserve">
<style type="text/css">
	.st0{fill:#F6BB37;}
	.st1{fill:#3684C6;}
	.st2{fill:#DCA12A;}
	.st3{fill:#FCFCFE;}
	.st4{fill:#E97E2F;}
	.st5{fill:#28273D;}
	.st6{fill:#7F65AA;}
	.st7{fill:#B49ECB;}
	.st8{fill:#66529D;}
	.st9{fill:#33314C;}
	.st10{fill:#35ACC6;}
	.st11{fill:#27263D;}
	.st12{fill:#DB191D;}
	.st13{fill:#42BEE1;}
	.st14{fill:#EE715E;}
	.st15{fill:#396CB3;}
	.st16{fill:#EA5B4C;}
	.st17{fill:#F2C551;}
	.st18{fill:#27273D;}
	.st19{fill:#B0CF6D;}
	.st20{fill:#28263D;}
	.st21{fill:#9E4A30;}
	.st22{fill:#DB1E1D;}
	.st23{fill:#FBFBFD;}
	.st24{fill:#A3C163;}
	.st25{fill:#3F426D;}
	.st26{fill:#33304C;}
	.st27{fill:#DB181D;}
	.st28{fill:#83C4ED;}
	.st29{fill:#B6622B;}
	.st30{fill:#AB795E;}
	.st31{fill:#88C7EE;}
	.st32{fill:#9BB7CC;}
	.st33{fill:#E97F31;}
	.st34{fill:#CD6F2C;}
	.st35{fill:#A8A4A6;}
	.st36{fill:#84C4EC;}
	.st37{fill:#FEFEFE;}
	.st38{fill:#D91F1D;}
	.st39{fill:#F29454;}
	.st40{fill:#3C86C6;}
	.st41{fill:#F8FAFD;}
	.st42{fill:#AD8ABF;}
	.st43{fill:#67529E;}
	.st44{fill:#F6D373;}
	.st45{fill:#29273D;}
	.st46{fill:#EE715D;}
	.st47{fill:#F9C6BD;}
	.st48{fill:#A65E3A;}
	.st49{fill:#F18B88;}
	.st50{fill:#82C2EC;}
	.st51{fill:#E28080;}
	.st52{fill:#D57474;}
	.st53{fill:#4F5173;}
	.st54{fill:#3785C6;}
	.st55{fill:#E84680;}
	.st56{fill:#28273E;}
	.st57{fill:#E13072;}
	.st58{fill:#F5BA37;}
	.st59{fill:#F3C651;}
	.st60{fill:#DB5144;}
	.st61{fill:#A17FB8;}
	.st62{fill:#AC8ABE;}
	.st63{fill:#342E4F;}
	.st64{fill:#2DAC64;}
	.st65{fill:#5CB993;}
	.st66{fill:#9DBA5C;}
	.st67{fill:#5AB992;}
	.st68{fill:#66529E;}
	.st69{fill:#EA5A4C;}
	.st70{fill:#12994E;}
	.st71{fill:#DE5044;}
	.st72{fill:#EE715F;}
	.st73{fill:#E97F2F;}
	.st74{fill:#A89AC9;}
	.st75{fill:#38B3CD;}
	.st76{fill:#DD3D78;}
	.st77{fill:#F5D373;}
	.st78{fill:#FDEAB4;}
	.st79{fill:#7F66AA;}
	.st80{fill:#3885C6;}
	.st81{fill:#40436D;}
	.st82{fill:#A99ACA;}
	.st83{fill:#34314B;}
	.st84{fill:#F4D273;}
	.st85{fill:#83C5ED;}
	.st86{fill:#D29C2C;}
	.st87{fill:#87C7EE;}
	.st88{fill:#F6BB38;}
	.st89{fill:#F6BB3A;}
	.st90{fill:#E83D69;}
	.st91{fill:#F4BC3F;}
	.st92{fill:#85C5EB;}
	.st93{fill:#DA1E1D;}
	.st94{fill:#DDA736;}
	.st95{fill:#F18D88;}
	.st96{fill:#FFFEFE;}
	.st97{fill:#F9C8BC;}
	.st98{fill:#3B85C6;}
</style>
<g id="rLNh3e.tif">
	<g>
		<path class="st53" d="M110.6,129.3c-1.3,1.2-2.9,2-4.4,3c-2.5,1.6-5.2,2.8-7.9,4c-2.4,1-4.9,1.9-7.5,2.6c-2.5,0.7-4.9,1.4-7.4,1.9
			c-1.4,0.2-2.7,0.4-4.1,0.6c0-0.3-0.2-0.4-0.3-0.6c-0.6-0.6-1.1-1.1-1.7-1.7c-2.2-2.2-4.5-4.4-6.5-6.9c-1.1-1.4-2.4-2.7-3.5-4.1
			c-1.8-2.4-3.5-4.8-5.1-7.2c-1.4-2-2.8-4.1-3.9-6.3c-1.6-2.9-3.1-6-4.4-9c-1.3-2.8-2.5-5.6-3.5-8.6c-0.9-2.7-1.8-5.3-2.5-8.1
			c-0.5-2-1-3.9-1.4-5.9c-0.4-2.2-1-4.3-1.2-6.5c-0.2-1.6-0.4-3.3-0.6-4.9c-0.1-1.2-0.2-2.4-0.3-3.7c-0.1-1.4-0.4-2.9-0.4-4.3
			c0-2.3-0.1-4.6-0.2-6.9c-0.1-2.7,0.2-5.4,0.1-8.2c0-0.8,0-1.6,0.1-2.4c0.2-1.8,0.4-3.6,0.6-5.4c0.1-1.1,0.3-2.2,0.3-3.3
			c0-0.7,0.5-1.4,0.1-2.1c1.9-1.1,3.9-2.2,6-3.1c1.3-0.6,2.7-1,4.1-1.5c0.1-0.1,0.4-0.1,0.4-0.2c0.1-0.2-0.2-0.3-0.3-0.4
			c-0.6-0.3-1.1-0.7-1.7-1c-1-0.6-2.1-1.1-3.2-1.5c-2-0.8-4.2-1.3-6.4-1.5c-1.7-0.2-3.4,0.1-5,0.4c-1.7,0.3-3.5,0.8-5,1.5
			c-1.3,0.6-2.6,1.3-3.8,2.2c-0.3,0.2-0.4,0.2-0.5-0.2c-0.2-0.8,0-1.6,0.1-2.4c0.1-1.2,0.6-2.3,1.2-3.4c0.6-1.2,1.5-2.1,2.5-3
			c1.3-1.2,2.8-2,4.4-2.7c3.1-1.3,6.4-1.6,9.7-1.8c2.4-0.1,4.8-0.1,7.2,0.1c1.1,0.1,2.1,0.1,3.2,0.1c0.6,0,0.7-0.2,0.6-0.7
			c-0.2-1-0.2-2-0.1-3.1c0-0.1,0-0.1,0-0.2c0.1-0.8,0.2-1.6,0.5-2.4c0.8-2,1.9-3.7,3.8-4.9c1.9-1.2,3.9-2,6.2-2.4
			c1-0.2,2.1-0.5,3.2-0.3C71.3,4,71.2,5.2,71,6.2c-0.2,1.7,0,3.3,0.7,4.8c0.7,1.7,1.8,3,3,4.3c0.2,0.2,0.4,0.2,0.6,0
			c0.6-0.7,1.4-1.1,2.1-1.7c1-0.8,2.1-1.3,3.2-2c1.4-1,3-1.5,4.5-2c2.5-0.8,5-1.1,7.6-0.9c1.1,0.1,2.2,0.2,3.2,0.6
			c1.7,0.7,3.4,1.4,5,2.3c0.7,0.4,1.4,0.8,2,1.3c1.6,1.2,2.8,2.8,4.4,4.1c0.1,0.1,0.1,0.1,0,0.2c-0.5,0.2-0.8-0.2-1.2-0.2
			c-1.8-0.4-3.6-0.4-5.4-0.3c-1.8,0.1-3.6,0.2-5.3,0.8c-2.6,0.9-4.9,2.2-6.6,4.5c-0.1,0.2-0.4,0.3-0.2,0.5c0.1,0.2,0.4,0,0.6,0
			c2.7-0.7,5.5-0.7,8.3-0.2c1.6,0.3,3.2,0.9,4.6,1.9c1.5,1.1,2.5,2.4,3.3,4c0.2,0.4,0,0.6-0.4,0.5c-0.5-0.1-1-0.1-1.4-0.2
			c-2.2-0.5-4.4-0.4-6.6-0.4c-1.1,0-2.2,0.3-3.2,0.5c-2.5,0.4-4.9,1.3-7.2,2.3c-0.2,0.1-0.4,0.2-0.6,0.3c0.4,0.4,0.9,0.5,1.4,0.7
			c1.8,0.8,3.6,1.6,5.4,2.6c1.3,0.7,2.7,1.4,4,2.3c1,0.7,2,1.3,2.9,2.1c0.6,0.5,1.3,1,2,1.5c1.4,1.1,2.7,2.3,3.9,3.5
			c0.2,0.2,0.3,0.2,0.5,0.1c2.8-1.4,5.7-2,8.8-2c1.7,0,3.5,0,5.1,0.3c3.2,0.8,6.3,2.1,8.9,4.1c1,0.7,2,1.4,2.8,2.3
			c1.7,2,3.4,4,4.5,6.5c0.6,1.5,1.1,3.1,1.5,4.7c0.3,1.1,0.2,2.2,0.4,3.3c0.3,2.2,0.1,4.4-0.4,6.4c-1,4.5-3.2,8.5-6.5,11.7
			c-1,1-2.2,1.7-3.3,2.5c-1.3,1-2.9,1.7-4.4,2.4c-0.3,0.2-0.4,0.4-0.4,0.7c-0.1,2.3,0,4.6-0.2,6.8c-0.1,2-0.3,3.9-0.6,5.9
			c-0.4,2.9-1,5.8-1.8,8.6c-1.5,5.8-4,11.1-6.9,16.2C112.7,126.2,111.3,127.5,110.6,129.3z M82.4,71.6c-0.1,0-0.3,0-0.4,0
			c-0.2,0-0.4,0-0.6,0l0,0l0,0c-3.5-0.1-6.9,0-10.4,0c-4.2,0-8.4,0-12.6,0c-3.1,0-6.2,0.1-9.3-0.1c-0.3,0-0.5,0-0.2,0.3
			c-0.2,0.9-0.1,1.8,0,2.7c0.1,2.8,0.9,5.3,2.1,7.8c1.7,3.6,4.3,6.5,7.5,8.9c0.2,0.1,0.4,0.3,0.6,0.1c0.8-0.7,1.7-1.1,2.7-1.5
			c2.6-1.1,5.2-2,8.1-1.9c1,0,1.9,0,2.9,0c1.9,0,3.6,0.5,5.4,1.1c1.6,0.5,3.2,1.2,4.6,2.2c0.3,0.2,0.6,0.2,0.9,0
			c0.5-0.4,1-0.8,1.4-1.2c1.8-1.5,3.4-3.1,4.7-5.1c1.3-2.1,2.2-4.3,2.9-6.7c0.6-2,0.5-4.2,0.7-6.2c0-0.1-0.1-0.2-0.1-0.3
			c0-0.4-0.3-0.2-0.4-0.2C89.3,71.7,85.9,71.7,82.4,71.6z M99.4,65.3c0.1,4.8,2,8.8,5.7,12c3.5,3.1,7.7,4.3,12.3,3.9
			c8.1-0.8,15.2-7.6,14.8-17.2c-0.4-8.8-7.7-16-17.3-15.5C106.3,48.9,99,56.5,99.4,65.3z"/>
		<path class="st50" d="M110.6,129.3c0.7-1.8,2.1-3.1,3.1-4.7c3-5.1,5.4-10.5,6.9-16.2c0.8-2.8,1.4-5.7,1.8-8.6
			c0.3-2,0.4-3.9,0.6-5.9c0.2-2.3,0.1-4.6,0.2-6.8c0-0.3,0.1-0.6,0.4-0.7c1.5-0.7,3-1.4,4.4-2.4c1.1-0.8,2.3-1.5,3.3-2.5
			c3.3-3.3,5.4-7.2,6.5-11.7c0.5-2.1,0.7-4.3,0.4-6.4c-0.2-1.1-0.1-2.3-0.4-3.3c-0.5-1.6-0.9-3.2-1.5-4.7c-1-2.5-2.7-4.5-4.5-6.5
			c-0.8-0.9-1.9-1.6-2.8-2.3c-2.7-2-5.7-3.3-8.9-4.1c-1.7-0.4-3.4-0.3-5.1-0.3c-3.1,0-6.1,0.6-8.8,2c-0.2,0.1-0.4,0.1-0.5-0.1
			c-1.2-1.3-2.5-2.5-3.9-3.5c-0.7-0.5-1.4-1-2-1.5c-0.9-0.8-1.9-1.4-2.9-2.1c-1.3-0.9-2.7-1.6-4-2.3c-1.8-1-3.5-1.8-5.4-2.6
			c-0.5-0.2-1-0.2-1.4-0.7c0.2-0.1,0.4-0.2,0.6-0.3c2.3-1,4.7-1.8,7.2-2.3c1.1-0.2,2.2-0.4,3.2-0.5c2.2-0.1,4.4-0.1,6.6,0.4
			c0.5,0.1,1,0.1,1.4,0.2c0.4,0,0.6-0.1,0.4-0.5c-0.8-1.6-1.9-2.9-3.3-4c-1.4-1-2.9-1.6-4.6-1.9c-2.8-0.5-5.5-0.5-8.3,0.2
			c-0.2,0.1-0.4,0.2-0.6,0c-0.1-0.2,0.1-0.4,0.2-0.5c1.7-2.2,3.9-3.6,6.6-4.5c1.7-0.6,3.5-0.7,5.3-0.8c1.8-0.1,3.6-0.1,5.4,0.3
			c0.4,0.1,0.8,0.4,1.2,0.2c0.1-0.1,0-0.2,0-0.2c-1.5-1.3-2.7-2.9-4.4-4.1c-0.6-0.5-1.3-0.9-2-1.3c-1.6-0.9-3.3-1.6-5-2.3
			c-1-0.4-2.1-0.5-3.2-0.6c-2.6-0.2-5.2,0.1-7.6,0.9c-1.6,0.5-3.1,1.1-4.5,2c-1,0.7-2.2,1.2-3.2,2c-0.7,0.6-1.5,1-2.1,1.7
			c-0.2,0.2-0.4,0.2-0.6,0c-1.1-1.3-2.3-2.7-3-4.3c-0.6-1.5-0.9-3.2-0.7-4.8C71.2,5.2,71.3,4,71.7,3c-1.2-0.1-2.2,0.2-3.2,0.3
			c-2.2,0.4-4.3,1.2-6.2,2.4c-1.8,1.2-3,2.8-3.8,4.9c-0.3,0.8-0.4,1.6-0.5,2.4c-0.1,0-0.2,0-0.2,0.1c0,0,0.1,0.1,0.1,0.1
			c-0.1,1-0.1,2.1,0.1,3.1c0.1,0.5-0.1,0.8-0.6,0.7c-1.1,0-2.1-0.1-3.2-0.1c-2.4-0.2-4.8-0.2-7.2-0.1c-3.3,0.2-6.6,0.5-9.7,1.8
			c-1.6,0.7-3.1,1.5-4.4,2.7c-1,0.9-1.9,1.8-2.5,3c-0.5,1.1-1,2.2-1.2,3.4c-0.1,0.8-0.3,1.6-0.1,2.4c0.1,0.4,0.2,0.4,0.5,0.2
			c1.2-0.9,2.5-1.5,3.8-2.2c1.6-0.8,3.3-1.2,5-1.5c1.7-0.3,3.3-0.6,5-0.4c2.2,0.2,4.3,0.7,6.4,1.5c1.1,0.4,2.2,0.9,3.2,1.5
			c0.6,0.3,1.1,0.7,1.7,1c0.1,0.1,0.4,0.2,0.3,0.4c0,0.1-0.2,0.2-0.4,0.2c-1.4,0.5-2.7,0.9-4.1,1.5c-2.1,0.9-4,2-6,3.1
			c-1.7,1.1-3.4,2.3-5,3.6c-1.6,1.3-3.2,2.7-4.7,4.2c-0.3,0.3-0.7,0.3-1.1,0.1c-2.3-1-4.8-1.4-7.3-1.5c-1.2,0-2.3-0.1-3.5,0.1
			c-1.4,0.2-2.7,0.4-4,0.8c-2.6,0.8-4.9,2.2-7.1,3.7c-1.6,1.1-2.9,2.5-4,4c-1.7,2.3-3.2,4.8-4,7.6c-0.3,1.1-0.8,2.2-0.8,3.3
			c-0.1,1.6-0.5,3.2-0.2,4.9c0.2,0.9,0.1,1.9,0.3,2.8c0.3,1.6,0.7,3.1,1.4,4.5c1.5,3.2,3.3,6.1,6.1,8.4c1.7,1.3,3.4,2.6,5.3,3.6
			c0.3,0.2,0.4,0.4,0.4,0.7c0,0.9-0.1,1.9-0.1,2.8c0,2.6,0.3,5.2,0.4,7.8c0.1,2.4,0.6,4.7,1.1,6.9c0.7,3.1,1.4,6.2,2.5,9.2
			c1.7,4.4,3.5,8.7,6.2,12.6c0.2,0.3,0.4,0.6,0.4,0.9c-0.5-0.1-0.9-0.4-1.3-0.7c-2.2-2-4.5-3.9-6.5-6.1c-4-4.2-7.5-8.9-10.4-14
			c-1.1-2-2.1-4.1-3.1-6.2c-1.7-3.7-3-7.5-4-11.4c-0.7-2.5-1.2-5.1-1.5-7.7c-0.2-1.6-0.4-3.1-0.5-4.7c0-0.2,0-0.4-0.2-0.5
			C0,75.3,0,75.2,0,75.1c0.2-1.6,0-3.2,0.1-4.7c0.1-3.3,0.4-6.6,0.8-9.9c0.7-4.7,1.9-9.3,3.5-13.8c1.7-4.8,4-9.4,6.7-13.7
			c1.8-2.9,3.8-5.6,6.1-8.2C22.6,18.6,28.8,13.4,36,9.3C39.9,7,44,5.2,48.3,3.8c4-1.4,8.2-2.4,12.4-3c2.3-0.3,4.6-0.5,6.9-0.7
			C69.4,0,71.2,0,73,0c2.3,0.1,4.6,0.3,7,0.6c3.1,0.4,6.2,1,9.2,1.8c3.8,1.1,7.6,2.4,11.2,4c2.4,1.1,4.6,2.3,6.9,3.6
			c3.6,2.1,7,4.6,10.1,7.3c1.9,1.7,3.8,3.4,5.5,5.3c3.7,4,6.8,8.3,9.5,13c1.2,2.1,2.3,4.2,3.3,6.4c1.4,3.3,2.6,6.7,3.6,10.2
			c0.2,0.8,0.4,1.6,0.6,2.4c0.2,0.6,0.3,1.3,0.4,2c0,0,0,0,0,0.1c0.5,1.2,0.4,2.6,0.7,3.9c0.3,1.3,0.3,2.7,0.5,4
			c0.3,2.7,0.3,5.5,0.3,8.2c0,0.6-0.2,1.2,0,1.9c0.1,0.2-0.2,0.8-0.2,1.3c-0.2,2.7-0.6,5.4-1.1,8.1c-0.2,1.3-0.6,2.6-0.9,3.9
			c-0.2,0.9-0.6,1.8-0.8,2.7c-0.5,2-1.3,4-2,5.9c-0.6,1.6-1.3,3-1.9,4.6c-0.4,0.9-0.7,1.7-1.2,2.6c-0.5,1-1.2,1.9-1.7,2.9
			c-1.3,2.4-2.9,4.6-4.5,6.8c-1.7,2.4-3.7,4.6-5.7,6.7c-2.3,2.4-4.8,4.5-7.4,6.7c-0.9,0.8-1.9,1.5-2.9,2.2
			C111.2,129.2,110.9,129.2,110.6,129.3z"/>
		<path class="st25" d="M27.5,126.6c0-0.4-0.2-0.7-0.4-0.9c-2.7-3.9-4.6-8.2-6.2-12.6c-1.1-3-1.8-6.1-2.5-9.2
			c-0.5-2.3-0.9-4.6-1.1-6.9c-0.2-2.6-0.4-5.2-0.4-7.8c0-0.9,0.1-1.9,0.1-2.8c0-0.3-0.1-0.6-0.4-0.7c-1.9-1-3.6-2.3-5.3-3.6
			c-2.8-2.2-4.6-5.2-6.1-8.4c-0.7-1.4-1.1-3-1.4-4.5c-0.2-0.9-0.1-1.9-0.3-2.8c-0.3-1.6,0.1-3.2,0.2-4.9c0-1.1,0.5-2.2,0.8-3.3
			c0.8-2.8,2.3-5.3,4-7.6c1.1-1.5,2.4-3,4-4c2.2-1.5,4.6-2.8,7.1-3.7c1.3-0.4,2.7-0.6,4-0.8c1.2-0.2,2.3-0.1,3.5-0.1
			c2.5,0.1,4.9,0.5,7.3,1.5c0.4,0.2,0.8,0.2,1.1-0.1c1.5-1.5,3.1-2.9,4.7-4.2c1.6-1.3,3.2-2.5,5-3.6c0.4,0.7-0.1,1.4-0.1,2.1
			c0,1.1-0.2,2.2-0.3,3.3c-0.2,1.8-0.4,3.6-0.6,5.4c-0.1,0.8-0.1,1.6-0.1,2.4c0,2.7-0.2,5.4-0.1,8.2c0.1,2.3,0.1,4.6,0.2,6.9
			c0,1.4,0.3,2.9,0.4,4.3c0.1,1.2,0.1,2.4,0.3,3.7c0.2,1.6,0.5,3.2,0.6,4.9c0.2,2.2,0.8,4.3,1.2,6.5c0.4,2,0.9,3.9,1.4,5.9
			c0.7,2.7,1.6,5.4,2.5,8.1c1,2.9,2.2,5.8,3.5,8.6c1.4,3,2.9,6.1,4.4,9c1.2,2.2,2.5,4.2,3.9,6.3c1.7,2.4,3.4,4.9,5.1,7.2
			c1.1,1.4,2.3,2.7,3.5,4.1c2,2.4,4.3,4.6,6.5,6.9c0.6,0.6,1.1,1.1,1.7,1.7c0.2,0.2,0.4,0.3,0.3,0.6c-1.2,0.2-2.4,0.4-3.7,0.4
			c-3.1,0-6.3,0-9.4,0c-2.2-0.1-4.4-0.4-6.6-0.7c-1.4-0.2-2.7-0.5-4.1-0.7c-0.7-0.1-1.4-0.3-2-0.5c-1.5-0.5-3-0.8-4.5-1.3
			c-1.7-0.6-3.3-1.3-4.9-2c-3.4-1.3-6.5-3-9.6-4.8c-1.5-0.8-2.8-2-4.3-2.9C29.2,128.1,28.3,127.4,27.5,126.6z M42.9,65.5
			c0.1-1.5-0.1-2.8-0.3-4.1c-1-4.9-3.9-8.5-8.2-11c-2.6-1.5-5.4-1.9-8.4-1.8c-1.7,0.1-3.4,0.3-5,0.9c-2.8,1-5.1,2.7-7,5
			c-1.3,1.4-2.2,3-2.8,4.9c-0.5,1.5-1,3-1,4.7c0,1,0,2,0.1,2.9c0.2,1.8,0.8,3.5,1.5,5.1c0.6,1.4,1.5,2.7,2.6,3.8c1,1,2,2,3.1,2.8
			c0.8,0.6,1.8,1,2.7,1.4c1.9,0.9,4,1,6,1.3c0.8,0.1,1.6-0.4,2.4-0.3c0.9,0.1,1.6-0.3,2.4-0.4c1.7-0.3,3.1-1.1,4.6-2
			c1.9-1.2,3.4-2.7,4.6-4.6C41.9,71.4,42.8,68.5,42.9,65.5z"/>
		<path class="st11" d="M93.2,71.8c0,0.1,0.1,0.2,0.1,0.3c-0.2,2.1-0.1,4.2-0.7,6.2c-0.7,2.4-1.6,4.6-2.9,6.7
			c-1.2,2-2.9,3.7-4.7,5.1c-0.5,0.4-1,0.8-1.4,1.2c-0.3,0.3-0.6,0.3-0.9,0c-1.4-0.9-3-1.6-4.6-2.2c-1.7-0.6-3.5-1.1-5.4-1.1
			c-1,0-1.9,0-2.9,0c-2.9,0-5.5,0.8-8.1,1.9c-0.9,0.4-1.9,0.8-2.7,1.5c-0.3,0.2-0.5,0-0.6-0.1c-3.2-2.4-5.8-5.3-7.5-8.9
			c-1.2-2.5-2-5-2.1-7.8c0-0.9-0.2-1.8,0-2.7c0.3,0.1,0.4,0.3,0.6,0.5c1.2,1.2,2.4,2.5,3.5,3.7c0.8,0.9,2,0.8,2.8-0.1
			c1.1-1.3,2.3-2.5,3.5-3.7c0.6-0.7,0.8-0.6,1.4,0c1.1,1.2,2.3,2.5,3.4,3.7c1,1,2,1,3-0.1c1.2-1.3,2.4-2.5,3.6-3.8
			c0.3-0.4,0.7-0.4,1,0c0.1,0.1,0.3,0.3,0.4,0.4c1.1,1.2,2.3,2.4,3.4,3.6c0.8,0.8,1.9,0.8,2.7-0.1c1.2-1.5,2.6-2.8,3.9-4.2
			c0.1,0,0.3,0,0.4,0c0.3,0.3,0.6,0.6,0.8,0.9c1,1.2,2.1,2.3,3.2,3.4c0.7,0.7,2,0.7,2.7-0.1c1.1-1.3,2.2-2.6,3.4-3.8
			C92.8,72.1,92.9,71.9,93.2,71.8z"/>
		<path class="st3" d="M99.4,65.3c-0.4-8.8,6.9-16.4,15.5-16.8c9.6-0.4,16.9,6.7,17.3,15.5c0.4,9.6-6.7,16.4-14.8,17.2
			c-4.6,0.4-8.8-0.8-12.3-3.9C101.5,74.1,99.5,70.1,99.4,65.3z M115.9,75.4c5.1-0.1,9.6-4.2,9.5-9.7c-0.1-5.3-3.5-9.4-9.6-9.5
			c-5.2-0.1-9.9,4.2-9.6,10.2C106.5,71.6,110.8,75.4,115.9,75.4z"/>
		<path class="st3" d="M82,71.8c-1.3,1.4-2.7,2.8-3.9,4.2c-0.8,0.9-1.9,0.9-2.7,0.1c-1.1-1.2-2.3-2.4-3.4-3.6
			c-0.1-0.1-0.3-0.3-0.4-0.4c-0.3-0.3-0.7-0.4-1,0c-1.2,1.3-2.4,2.5-3.6,3.8c-0.9,1-2,1.1-3,0.1c-1.2-1.2-2.3-2.5-3.4-3.7
			c-0.6-0.6-0.8-0.6-1.4,0c-1.2,1.2-2.4,2.4-3.5,3.7c-0.8,0.9-1.9,0.9-2.8,0.1c-1.2-1.2-2.4-2.4-3.5-3.7c-0.2-0.2-0.3-0.4-0.6-0.5
			c-0.3-0.3-0.1-0.4,0.2-0.3c3.1,0.2,6.2,0,9.3,0.1c4.2,0,8.4,0,12.6,0c3.5,0,6.9-0.1,10.4,0c0,0,0,0,0,0l0,0c0.2,0,0.4,0,0.6,0
			C82,71.7,82,71.8,82,71.8z"/>
		<path class="st3" d="M93.2,71.8c-0.3,0-0.5,0.3-0.7,0.5c-1.2,1.2-2.3,2.5-3.4,3.8c-0.7,0.8-2,0.7-2.7,0.1
			c-1.1-1.1-2.2-2.2-3.2-3.4c-0.3-0.3-0.6-0.6-0.8-0.9c0-0.1,0-0.1,0-0.2c3.5,0.1,6.9,0,10.4,0C93,71.6,93.3,71.4,93.2,71.8z"/>
		<path class="st50" d="M82.4,71.6c0,0.1,0,0.1,0,0.2c-0.1,0-0.3,0-0.4,0c0-0.1,0-0.1,0-0.2C82.1,71.6,82.3,71.6,82.4,71.6z"/>
		<path class="st54" d="M58,13.3c0,0-0.1-0.1-0.1-0.1c0-0.1,0.1-0.1,0.2-0.1C58.1,13.1,58,13.2,58,13.3z"/>
		<polygon class="st50" points="81.4,71.7 81.4,71.7 81.3,71.7 81.4,71.6 		"/>
		<path class="st3" d="M42.9,65.5c-0.1,3-1,5.9-2.8,8.5c-1.2,1.8-2.7,3.4-4.6,4.6c-1.4,0.9-2.9,1.7-4.6,2c-0.8,0.1-1.5,0.5-2.4,0.4
			c-0.8-0.1-1.6,0.4-2.4,0.3c-2-0.2-4.1-0.4-6-1.3c-0.9-0.4-1.9-0.8-2.7-1.4c-1.2-0.8-2.1-1.8-3.1-2.8c-1.1-1.1-1.9-2.4-2.6-3.8
			c-0.8-1.6-1.3-3.3-1.5-5.1c-0.1-1-0.1-2-0.1-2.9c-0.1-1.6,0.5-3.1,1-4.7c0.6-1.9,1.6-3.5,2.8-4.9c1.9-2.2,4.3-3.9,7-5
			c1.6-0.6,3.3-0.8,5-0.9c3-0.1,5.8,0.3,8.4,1.8c4.3,2.5,7.2,6.1,8.2,11C42.8,62.7,43,64,42.9,65.5z M27,75.4
			c2.2-0.2,4.5-0.9,6.3-2.8c2.3-2.4,3.4-5.1,2.8-8.5c-0.8-4.3-3.8-7.9-9.6-8c-5.5-0.1-9.8,4.3-9.7,9.7C17,71.3,21.1,75.3,27,75.4z"
			/>
		<path class="st54" d="M115.9,75.4c-5.1-0.1-9.4-3.8-9.7-9.1c-0.3-6,4.3-10.3,9.6-10.2c6.1,0.1,9.5,4.3,9.6,9.5
			C125.5,71.3,121,75.3,115.9,75.4z M121.9,62.1c0.1-0.1,0.1-0.3,0.2-0.4c0.7-1.6-0.5-3.3-2.2-3.1c-0.5,0-0.9,0.4-1.3,0.5
			c-1.3-0.6-2.7-0.6-4.1-0.4c-4,0.7-6.5,4.7-5.8,8.3c0.8,3.9,4.3,6.5,8.2,5.8c4.2-0.7,7.1-4.8,5.7-9.5
			C122.4,62.9,122.3,62.4,121.9,62.1z"/>
		<path class="st54" d="M27,75.4c-5.8-0.2-10-4.2-10.1-9.6c-0.1-5.4,4.2-9.8,9.7-9.7c5.7,0.1,8.8,3.7,9.6,8c0.6,3.3-0.5,6.1-2.8,8.5
			C31.4,74.5,29.2,75.3,27,75.4z M32.7,62c0.8-1.1,0.3-2.7-1-3.3c-0.9-0.4-1.7-0.1-2.4,0.4c-0.3-0.2-0.7-0.3-1.1-0.4
			c-1.6-0.3-3.2-0.1-4.7,0.6c-3,1.3-4.7,4.7-4.1,7.8c0.6,3.1,2.8,5.3,6,5.9c2.7,0.5,5.7-0.9,7.2-3.4c1.4-2.2,1.3-4.5,0.4-6.9
			C32.9,62.4,33,62.1,32.7,62z"/>
		<path class="st11" d="M121.9,62.1c0.5,0.3,0.5,0.8,0.7,1.3c1.4,4.7-1.5,8.8-5.7,9.5c-3.9,0.6-7.4-2-8.2-5.8
			c-0.7-3.6,1.8-7.6,5.8-8.3c1.4-0.3,2.8-0.2,4.1,0.4c-0.1,0.2-0.3,0.5-0.4,0.7c-0.3,0.6-0.4,1.3-0.1,1.9
			C118.8,63.3,120.4,63.5,121.9,62.1z M118.3,65.6c0-1.5-1-2.5-2.6-2.5c-1.6-0.1-2.7,1.3-2.8,2.6c-0.1,1.3,1.3,2.8,2.7,2.8
			C117.3,68.4,118.3,67.3,118.3,65.6z"/>
		<path class="st3" d="M121.9,62.1c-1.4,1.4-3.1,1.2-3.9-0.5c-0.3-0.6-0.2-1.3,0.1-1.9c0.1-0.2,0.3-0.5,0.4-0.7
			c0.5-0.1,0.8-0.5,1.3-0.5c1.8-0.1,2.9,1.5,2.2,3.1C122,61.8,121.9,62,121.9,62.1z"/>
		<path class="st11" d="M33,62.6c0.9,2.3,1,4.7-0.4,6.9c-1.5,2.5-4.5,3.9-7.2,3.4c-3.2-0.6-5.4-2.7-6-5.9c-0.6-3.1,1.1-6.5,4.1-7.8
			c1.5-0.7,3.1-0.8,4.7-0.6c0.4,0.1,0.8,0.2,1.1,0.4c-0.4,0.5-0.7,1-0.8,1.6c-0.1,1.4,1.3,2.5,2.6,2.3c0.4-0.1,0.8-0.2,1.2-0.3
			C32.6,62.6,32.8,62.4,33,62.6z M26.4,68.4c1.3,0.2,2.7-1.2,2.7-2.4c0-1.6-0.9-2.9-2.7-2.8c-1.8,0-2.5,1.1-2.7,2.6
			C23.5,67.1,25,68.4,26.4,68.4z"/>
		<path class="st3" d="M32.3,62.6c-0.4,0.1-0.8,0.3-1.2,0.3c-1.4,0.2-2.7-0.9-2.6-2.3c0-0.6,0.4-1.1,0.8-1.6
			c0.7-0.5,1.5-0.8,2.4-0.4c1.3,0.6,1.7,2.1,1,3.3C32.6,62.3,32.2,62.3,32.3,62.6z"/>
		<path class="st53" d="M32.3,62.6c-0.1-0.3,0.3-0.4,0.3-0.6c0.3,0.1,0.3,0.4,0.3,0.6C32.8,62.4,32.6,62.6,32.3,62.6z"/>
		<path class="st3" d="M118.3,65.6c0,1.7-1,2.8-2.6,2.8c-1.4,0-2.8-1.5-2.7-2.8c0.1-1.2,1.1-2.6,2.8-2.6
			C117.3,63.2,118.3,64.1,118.3,65.6z"/>
		<path class="st3" d="M26.4,68.4c-1.4,0-2.9-1.3-2.7-2.7c0.2-1.5,0.9-2.6,2.7-2.6c1.8,0,2.7,1.3,2.7,2.8
			C29.1,67.2,27.7,68.6,26.4,68.4z"/>
	</g>
</g>
</svg>
