<?xml version="1.0" encoding="utf-8"?>
<!-- Generator: Adobe Illustrator 27.3.1, SVG Export Plug-In . SVG Version: 6.00 Build 0)  -->
<svg version="1.1" id="Ebene_1" xmlns="http://www.w3.org/2000/svg" xmlns:xlink="http://www.w3.org/1999/xlink" x="0px" y="0px"
	 viewBox="0 0 141.7 141.7" style="enable-background:new 0 0 141.7 141.7;" xml:space="preserve">
<style type="text/css">
	.st0{fill:#F6BB37;}
	.st1{fill:#3684C6;}
	.st2{fill:#DCA12A;}
	.st3{fill:#FCFCFE;}
	.st4{fill:#E97E2F;}
	.st5{fill:#28273D;}
	.st6{fill:#7F65AA;}
	.st7{fill:#B49ECB;}
	.st8{fill:#66529D;}
	.st9{fill:#33314C;}
	.st10{fill:#35ACC6;}
	.st11{fill:#27263D;}
	.st12{fill:#DB191D;}
	.st13{fill:#42BEE1;}
	.st14{fill:#EE715E;}
	.st15{fill:#396CB3;}
	.st16{fill:#EA5B4C;}
	.st17{fill:#F2C551;}
	.st18{fill:#27273D;}
	.st19{fill:#B0CF6D;}
	.st20{fill:#28263D;}
	.st21{fill:#9E4A30;}
	.st22{fill:#DB1E1D;}
	.st23{fill:#FBFBFD;}
	.st24{fill:#A3C163;}
	.st25{fill:#3F426D;}
	.st26{fill:#33304C;}
	.st27{fill:#DB181D;}
	.st28{fill:#83C4ED;}
	.st29{fill:#B6622B;}
	.st30{fill:#AB795E;}
	.st31{fill:#88C7EE;}
	.st32{fill:#9BB7CC;}
	.st33{fill:#E97F31;}
	.st34{fill:#CD6F2C;}
	.st35{fill:#A8A4A6;}
	.st36{fill:#84C4EC;}
	.st37{fill:#FEFEFE;}
	.st38{fill:#D91F1D;}
	.st39{fill:#F29454;}
	.st40{fill:#3C86C6;}
	.st41{fill:#F8FAFD;}
	.st42{fill:#AD8ABF;}
	.st43{fill:#67529E;}
	.st44{fill:#F6D373;}
	.st45{fill:#29273D;}
	.st46{fill:#EE715D;}
	.st47{fill:#F9C6BD;}
	.st48{fill:#A65E3A;}
	.st49{fill:#F18B88;}
	.st50{fill:#82C2EC;}
	.st51{fill:#E28080;}
	.st52{fill:#D57474;}
	.st53{fill:#4F5173;}
	.st54{fill:#3785C6;}
	.st55{fill:#E84680;}
	.st56{fill:#28273E;}
	.st57{fill:#E13072;}
	.st58{fill:#F5BA37;}
	.st59{fill:#F3C651;}
	.st60{fill:#DB5144;}
	.st61{fill:#A17FB8;}
	.st62{fill:#AC8ABE;}
	.st63{fill:#342E4F;}
	.st64{fill:#2DAC64;}
	.st65{fill:#5CB993;}
	.st66{fill:#9DBA5C;}
	.st67{fill:#5AB992;}
	.st68{fill:#66529E;}
	.st69{fill:#EA5A4C;}
	.st70{fill:#12994E;}
	.st71{fill:#DE5044;}
	.st72{fill:#EE715F;}
	.st73{fill:#E97F2F;}
	.st74{fill:#A89AC9;}
	.st75{fill:#38B3CD;}
	.st76{fill:#DD3D78;}
	.st77{fill:#F5D373;}
	.st78{fill:#FDEAB4;}
	.st79{fill:#7F66AA;}
	.st80{fill:#3885C6;}
	.st81{fill:#40436D;}
	.st82{fill:#A99ACA;}
	.st83{fill:#34314B;}
	.st84{fill:#F4D273;}
	.st85{fill:#83C5ED;}
	.st86{fill:#D29C2C;}
	.st87{fill:#87C7EE;}
	.st88{fill:#F6BB38;}
	.st89{fill:#F6BB3A;}
	.st90{fill:#E83D69;}
	.st91{fill:#F4BC3F;}
	.st92{fill:#85C5EB;}
	.st93{fill:#DA1E1D;}
	.st94{fill:#DDA736;}
	.st95{fill:#F18D88;}
	.st96{fill:#FFFEFE;}
	.st97{fill:#F9C8BC;}
	.st98{fill:#3B85C6;}
</style>
<g id="DZmfmz.tif">
	<g>
		<path class="st3" d="M19.3,119c0.5,0.9,1.3,1.5,2,2.2c3.7,3.6,7.7,6.8,12.1,9.6c4.4,2.8,9.2,5,14.1,6.8c2,0.8,4.1,1.2,6.2,1.8
			c1.1,0.3,2.3,0.7,3.4,0.8c2.2,0.3,4.5,0.8,6.7,0.9c1.2,0.1,2.4,0.4,3.7,0.3c0.8,0,1.5,0,2.3,0.1c0.4,0,0.8,0.3,1.3,0.2
			c0.6-0.2,1.3-0.2,1.9-0.2c2.1-0.1,4.3-0.2,6.4-0.5c2.9-0.4,5.8-0.9,8.7-1.6c5.4-1.3,10.5-3.3,15.5-5.8c2.1-1,4-2.3,6-3.5
			c3.7-2.4,7.1-5.2,10.4-8.1c0.2-0.2,0.5-0.4,0.5-0.8c0.4,0,0.6-0.2,0.8-0.4c0.9-1,1.7-1.9,2.6-2.9c1.8-1.9,3.4-4,4.9-6.2
			c1.3-1.8,2.5-3.6,3.5-5.5c0.6-1,1.2-2,1.8-3.1c0.3-0.6,0.8-1.1,0.8-1.8c0-0.1,0.1-0.3,0.3-0.4c0.3-0.1,0.3-0.3,0.3-0.5
			c0-0.3,0.1-0.5,0.2-0.8c0.5-1.1,0.9-2.2,1.3-3.3c0.6-1.6,1.2-3.3,1.7-5c0.9-2.9,1.5-5.8,2.1-8.8c0.7-3.5,0.9-7,1-10.5
			c0-1.5,0-2.9-0.1-4.4c-0.1-1.4-0.2-2.9-0.3-4.3c-0.3-3.3-0.9-6.5-1.7-9.7c-0.4-1.5-0.8-3-1.3-4.4c-1.9-6-4.6-11.7-8-17
			c-2-3-4.1-5.9-6.6-8.6c-1-1-1.9-2.1-2.9-3.1c-2.5-2.5-5.2-4.8-8.1-6.9c-4.6-3.3-9.5-6.1-14.7-8.3C94.5,4,90.8,2.8,87,1.9
			c-2-0.5-4-0.8-6-1.1c-2.6-0.4-5.3-0.7-7.9-0.8c-2.4-0.1-4.8,0-7.2,0.2c-2.7,0.2-5.4,0.5-8,1c-6,1.1-11.8,3-17.4,5.7
			c-7.8,3.7-14.7,8.7-20.6,14.9c-1.9,2-3.7,4-5.3,6.2c-1.4,1.8-2.6,3.7-3.9,5.6c-1,1.4-1.7,3-2.5,4.5C8,38.5,7.6,38.8,7.6,39
			c0,0.7-0.4,1.1-0.7,1.6c-0.9,2.1-1.8,4.2-2.6,6.3c-1.6,4.4-2.8,9-3.4,13.6c-0.4,3-0.7,6-0.8,9C0,71.4,0.2,73.2,0,75.1
			c0,0.1,0.1,0.2,0.2,0.3c0.2,0.1,0.2,0.3,0.2,0.5c0.1,1.4,0.2,2.7,0.4,4.1C1,82,1.4,83.9,1.8,85.8c1,4.7,2.5,9.3,4.5,13.8
			c1.1,2.5,2.4,4.9,3.8,7.3c2.3,3.9,5,7.5,8,10.9C18.4,118.2,18.7,118.8,19.3,119z"/>
		<path class="st49" d="M120.4,121.2c0,0.4-0.3,0.6-0.5,0.8c-3.3,2.9-6.7,5.7-10.4,8.1c-1.9,1.3-3.9,2.5-6,3.5
			c-5,2.5-10.1,4.5-15.5,5.8c-2.9,0.7-5.8,1.2-8.7,1.6c-2.1,0.3-4.3,0.4-6.4,0.5c-0.6,0-1.3,0-1.9,0.2c-0.4,0.1-0.8-0.2-1.3-0.2
			c-0.8,0-1.5,0-2.3-0.1c0-0.3-0.1-0.5-0.2-0.8c-0.3-0.6-0.7-1.1-1-1.7c-1-1.8-2.2-3.4-3-5.2c-0.9-2-1.9-3.9-2.9-5.8
			c-0.5-1-0.8-2-1.3-3c-0.7-1.7-1.5-3.4-2.1-5.1c-0.8-2-1.4-4.1-2.1-6.2c-0.2-0.6-0.3-1.4-0.9-1.8c1.1-1,2-2.1,3.3-2.8
			c0.2,0,0.5,0,0.7,0.1c2.1,0.9,4.2,1.5,6.4,2c0.6,1.4,1.1,2.7,1.7,4.1c1,2.4,2,4.7,3,7.1c0.3,0.7,1,1.3,1.6,1.4
			c0.9,0,1.3-0.2,1.7-1.2c1-2.7,2-5.4,3-8.1c0.4-1,0.8-2,1.1-3.1c0.4-0.3,0.9-0.1,1.3-0.2c1.8-0.5,3.6-0.9,5.3-1.6
			c0.4-0.1,0.7-0.4,1.2-0.4c0.3,0.2,0.6,0.4,0.8,0.6c2.6,2.3,5.2,4.6,7.9,6.9c0.4,0.4,1,0.8,1.5,0.6c0.6-0.3,1.3-0.6,1.4-1.5
			c0.1-0.6-0.1-1.2-0.1-1.7c0-1-0.2-2-0.3-3c-0.1-1.2-0.3-2.5-0.3-3.7c0-0.9-0.2-1.8-0.3-2.7c-0.1-0.7,0.1-1.5-0.2-2.2
			c0.6-0.8,1.4-1.4,2-2.2c0.5-0.7,1.3-1.3,1.8-2.1c0.2-0.3,0.3-0.6,0.6-0.8c1.9,0.2,3.7,0.6,5.6,0.9c1.8,0.3,3.6,0.6,5.4,0.9
			c0.7,0.1,1.4-0.1,1.8-0.8c0.4-0.7,0.2-1.4-0.3-2c-1.7-2.2-3.3-4.5-5-6.7c-0.7-1-1.4-2-2.3-2.9c0.4-1.4,0.9-2.9,1.1-4.3
			c0.3-1.7,0.5-3.5,0.5-5.2c0-0.8-0.2-1.5-0.6-2.1c-0.4-0.7-1.1-0.9-1.8-1.1c-0.9-0.3-2.6,0.8-2.8,1.5c-0.1,0.6-0.2,1.1-0.3,1.7
			c-0.2,2.1-0.4,4.2-0.9,6.3c-0.1,0.4-0.3,0.7-0.3,1c-0.2,1.2-0.7,2.2-1.1,3.3c-0.2,0.8-0.8,1.4-1.1,2.2c-0.3,0.9-0.8,1.7-1.3,2.5
			c-1.3,1.8-2.5,3.6-4.1,5.1c-0.3,0.3-0.7,0.4-0.9,0.7c-1.1,1.3-2.4,2.1-3.8,3c-2.3,1.5-4.7,2.8-7.4,3.6c-2.5,0.8-5,1.1-7.6,1.2
			c-2.3,0.1-4.6,0-6.9-0.5c-1-0.3-2-0.5-3-0.7c-0.6-0.2-1.2-0.5-1.8-0.7c-0.7-0.3-1.5-0.5-2.2-0.9c-2-0.9-3.8-2.1-5.5-3.3
			c-0.7-0.5-1.4-1.1-1.8-1.9c0-0.5-0.1-1-0.1-1.5c-0.1-2-0.7-3.9-1-5.9c-0.2-1.5-0.4-3.1-0.5-4.6c-0.2-1.6-0.5-3.2-0.4-4.8
			c0-0.3,0-0.4,0.2-0.6c1.1-1.1,0.9-2.3-0.4-3.1c-0.2-0.1-0.3-0.3-0.3-0.6c0.2-1.5,0.2-3,0-4.5c0-0.2,0-0.3,0.2-0.3
			c1.1,0,1.8-0.5,2.5-1.3c1.2-1.4,1.1-3.5-0.1-4.7c-0.6-0.7-1.4-1-2.3-1.1c-0.3,0-0.4-0.2-0.4-0.5c0.3-2.1,0.5-4.3,0.5-6.4
			c0-0.5,0-1.1,0.2-1.6c0.4-1.6,0.2-3.3,0.6-4.9c0.3-1,0.1-2.1,0.4-3.1c0.2-0.9,0.4-1.8,0.3-2.7c0-0.4,0.1-0.8,0.3-1.1
			c0.1-0.2,0.2-0.4,0.2-0.6c0.1,0.2,0.3,0.4,0.4,0.6c2.2,3.2,5,5.7,8.5,7.6c4.5,2.4,9.3,3,14.2,2.7c1-0.1,2-0.4,2.9-0.6
			c6.4-1.7,11.3-5.4,14.7-11.2c2-3.4,3.1-7.2,3.1-11.2c0-0.7-0.2-0.7-0.7-0.7c-3.2,0-6.4,0-9.7,0c-8.4,0-16.7,0-25.1,0
			c-1.9,0-3.9,0-5.8,0c0.1-0.2,0.2-0.4,0.2-0.6c0.4-2,1.1-4,1.7-6c0.6-2.1,1.5-4,2.2-6.1c1.1-2.9,2.3-5.6,3.7-8.4
			c0.3-0.6,0.7-1.1,0.8-1.8c0.5-0.1,1-0.2,1.5-0.3c2.2-0.5,4.5-0.8,6.8-0.8c1.5,0,2.9,0.2,4.4,0.4c2.6,0.2,5,1.1,7.4,2.1
			c2.2,0.9,4.3,2.1,6.2,3.5c2.9,2.2,5.4,4.7,7.3,7.8c0.8,1.3,1.7,2.2,3.2,2.7c0.8,0.2,1.6,0.5,2.5,0.8c1.9,0.6,3.8,1.1,5.8,1.1
			c1.6,0,3.2,0,4.7-0.4c0.7-0.2,1.6-0.3,2.3,0c1,0.3,1.2,1.6,0.5,2.8c-2.1,3.7-4.6,6.9-8.2,9.2c-1.7,1.1-3.4,2.1-5.4,2.3
			c-0.3,0-0.4,0.2-0.5,0.5c-0.1,0.6-0.2,1.2-0.2,1.8c-0.4,3.1-1.2,6-2.6,8.8c-1.2,2.4-2.6,4.7-4.4,6.8c-0.3,0.3-0.2,0.5,0.2,0.7
			c1.4,0.8,2.8,1.6,4.2,2.3c1,0.5,1.9,1.1,2.9,1.8c1.4,0.9,2.8,1.8,4,2.8c1.3,1,2.5,2.2,3.8,3.3c0.2,0.2,0.5,0.4,0.8,0.2
			c1.3-0.7,2.6-1.4,3.8-2.2c2.2-1.5,4.3-3,6-5.1c1-1.2,2-2.4,2.7-3.8c0.5-1.1,1.2-2,2.3-2.5c0.8-0.3,2.3,0,2.8,0.7
			c0.5,0.6,0.6,1.3,0.8,1.9c1.1,3.4,1.7,6.9,1.8,10.4c0.1,2,0.1,4-0.1,6c-0.2,1.9-0.4,3.9-0.9,5.7c-0.3,1-0.6,1.9-1,2.9
			c-0.4,0.9-0.7,1.9-1.1,2.8c-1,2.1-2.4,3.8-3.7,5.7c-0.2,0.4-0.5,0.7-0.4,1.2c0.1,0.6,0.3,1.2,0.4,1.8c0.6,2.8,0.9,5.6,0.9,8.4
			c0,1.3-0.1,2.5-0.1,3.8c0,1.9-0.3,3.8-0.6,5.6c-0.2,1.4-0.6,2.7-0.8,4c-0.2,1.4-0.9,2.5-1.2,3.8
			C120.8,120.1,120.4,120.6,120.4,121.2z M95.1,72.2c2.1,0.2,3.6-1.8,3.6-3.5c0-1.9-1.6-3.6-3.6-3.6c-1.9,0-3.6,1.6-3.6,3.7
			C91.5,70.5,93.3,72.3,95.1,72.2z M57.9,80c0.1-1.2-0.7-2.2-2.2-2.2c-1.2,0-2.3,1.1-2.2,2.3c0,1,1.2,2.1,2.2,2.1
			C56.8,82.2,58,81.3,57.9,80z M89.8,80.1c0-1.6-0.9-2.2-2.1-2.3c-1.1-0.1-2.2,1-2.2,2.2c0,1.2,0.9,2.1,2.1,2.1
			C88.8,82.2,90,81.1,89.8,80.1z M95.6,81.1c1.4,0,2.1-0.9,2.1-1.9c0-1.1-0.7-1.9-2-1.9c-1.1,0-1.9,0.9-2,2
			C93.7,80.1,94.7,81.1,95.6,81.1z M89.6,74.9c1.3,0.2,1.9-0.9,2-1.9c0.1-1-0.9-1.9-1.8-1.9c-1.1,0-2.1,0.9-2.1,1.9
			C87.6,73.9,88.6,75,89.6,74.9z M55.7,73c0.2-1-0.9-2-1.9-1.9c-1,0-2,0.9-1.9,1.9c0,0.9,0.6,2,2,1.9C55,74.8,55.7,74.1,55.7,73z"/>
		<path class="st50" d="M120.4,121.2c0-0.6,0.5-1.1,0.6-1.7c0.2-1.3,1-2.5,1.2-3.8c0.2-1.4,0.6-2.7,0.8-4c0.3-1.9,0.6-3.7,0.6-5.6
			c0-1.3,0.1-2.5,0.1-3.8c0-2.8-0.3-5.6-0.9-8.4c-0.1-0.6-0.3-1.2-0.4-1.8c-0.1-0.5,0.1-0.8,0.4-1.2c1.3-1.9,2.7-3.6,3.7-5.7
			c0.4-0.9,0.7-1.9,1.1-2.8c0.4-1,0.7-1.9,1-2.9c0.6-1.9,0.7-3.8,0.9-5.7c0.2-2,0.2-4,0.1-6c-0.1-3.5-0.7-7-1.8-10.4
			c-0.2-0.7-0.4-1.3-0.8-1.9c-0.5-0.6-2.1-1-2.8-0.7c-1.2,0.5-1.8,1.4-2.3,2.5c-0.7,1.4-1.7,2.6-2.7,3.8c-1.7,2.1-3.8,3.6-6,5.1
			c-1.2,0.8-2.5,1.5-3.8,2.2c-0.3,0.2-0.6,0-0.8-0.2c-1.3-1.1-2.4-2.3-3.8-3.3c-1.3-1-2.7-1.9-4-2.8c-0.9-0.6-1.9-1.3-2.9-1.8
			c-1.4-0.7-2.8-1.5-4.2-2.3c-0.3-0.2-0.4-0.3-0.2-0.7c1.8-2,3.2-4.3,4.4-6.8c1.4-2.8,2.2-5.8,2.6-8.8c0.1-0.6,0.2-1.2,0.2-1.8
			c0-0.3,0.2-0.4,0.5-0.5c2.1-0.2,3.8-1.3,5.4-2.3c3.6-2.3,6.2-5.5,8.2-9.2c0.7-1.2,0.5-2.4-0.5-2.8c-0.7-0.3-1.6-0.2-2.3,0
			c-1.6,0.5-3.1,0.4-4.7,0.4c-2,0-3.9-0.5-5.8-1.1c-0.8-0.3-1.6-0.5-2.5-0.8c-1.5-0.4-2.4-1.4-3.2-2.7c-1.9-3.1-4.4-5.6-7.3-7.8
			c-1.9-1.4-4.1-2.6-6.2-3.5c-2.3-1-4.8-1.8-7.4-2.1c-1.5-0.1-2.9-0.4-4.4-0.4c-2.3,0.1-4.6,0.3-6.8,0.8c-0.5,0.1-1,0.2-1.5,0.3
			c-0.2,0-0.4,0-0.7,0.1c-3.8,1.1-7.2,3.2-10.3,5.5c-2.9,2.2-5.1,5.1-7.1,8.1c-0.4,0.6-0.9,1-1.5,1.3c-0.4,0.2-0.8,0.2-1.2,0.3
			c-1.8,0.5-3.6,1.3-5.5,1.4c-0.5,0-0.9,0.3-1.4,0.3c-1.5,0-3,0-4.5,0c-0.4,0-0.7-0.1-1-0.2c-0.9-0.4-1.8-0.5-2.8-0.4
			c-1.2,0.2-1.7,1.4-1.3,2.4c0.4,1,1,1.9,1.6,2.8c1.5,2,2.9,3.9,4.9,5.4c1.4,1,2.6,2.3,4.2,2.9c1.2,0.5,2.3,1.1,3.6,1.3
			c0.4,0.1,0.7,0.4,0.7,0.9c0,1.2,0.4,2.4,0.6,3.6c0.3,1.5,0.7,3.1,1.4,4.5c0.5,1.2,1,2.4,1.7,3.5c1.1,1.8,2.2,3.5,3.5,5.1
			c0.3,0.3,0.1,0.4-0.1,0.6c-1,0.5-1.9,1-2.9,1.5c-0.7,0.4-1.5,0.7-2.2,1.2c-0.9,0.6-1.8,1.3-2.7,1.9c-2.3,1.3-4.2,3.3-6.3,4.9
			c-0.7,0.6-0.9,0.7-1.7,0.2c-1.8-1.2-3.7-2.3-5.4-3.7c-1.6-1.3-3-2.9-4.2-4.5c-1-1.3-1.5-2.9-2.7-4.1c-0.7-0.8-1.6-1.1-2.5-0.9
			c-1,0.2-1.8,0.8-2.2,1.9c-0.3,1-0.6,2-0.8,3c-0.3,1-0.3,2-0.5,2.9c-0.5,2-0.5,4.1-0.7,6.2c0,1.1-0.1,2.2,0,3.3
			c-0.1,0.3-0.1,0.6,0,0.9c-0.1,0.1,0,0.2,0,0.2c0.1,0.9,0.2,1.9,0.3,2.8c0.4,2.5,1,5,2,7.3c0.5,1.1,0.9,2.3,1.5,3.3
			c0.7,1.1,1.5,2.1,2.1,3.2c0.2,0.3,0.5,0.5,0.4,0.9c-0.3,1-0.5,2-0.7,3c-0.6,2.7-1,5.5-1,8.2c0,2.8-0.1,5.6,0.5,8.3
			c0.4,1.9,0.6,3.9,1.2,5.8c0.3,1,0.7,2,0.8,3.1c-0.6-0.2-0.8-0.8-1.2-1.2c-3-3.4-5.7-7-8-10.9c-1.4-2.4-2.6-4.8-3.8-7.3
			c-2-4.4-3.5-9-4.5-13.8C1.4,83.9,1,82,0.7,80c-0.2-1.3-0.3-2.7-0.4-4.1c0-0.2,0-0.4-0.2-0.5C0.1,75.4,0,75.3,0,75.1
			c0.2-1.9,0-3.8,0.1-5.6c0.1-3,0.4-6,0.8-9c0.7-4.7,1.8-9.2,3.4-13.6c0.8-2.1,1.7-4.2,2.6-6.3c0.2-0.5,0.7-1,0.7-1.6
			c0-0.1,0.4-0.5,0.5-0.7c0.8-1.5,1.6-3.1,2.5-4.5c1.3-1.9,2.5-3.8,3.9-5.6c1.6-2.2,3.4-4.2,5.3-6.2c6-6.2,12.9-11.2,20.6-14.9
			C46,4.3,51.8,2.4,57.9,1.3c2.6-0.5,5.3-0.8,8-1C68.3,0,70.7-0.1,73.1,0c2.6,0.1,5.3,0.4,7.9,0.8c2,0.3,4,0.6,6,1.1
			c3.8,0.9,7.5,2.1,11.1,3.6c5.2,2.2,10.1,5,14.7,8.3c2.9,2.1,5.5,4.4,8.1,6.9c1,1,1.9,2.1,2.9,3.1c2.5,2.7,4.6,5.6,6.6,8.6
			c3.4,5.3,6.1,10.9,8,17c0.5,1.5,0.9,2.9,1.3,4.4c0.8,3.2,1.4,6.4,1.7,9.7c0.1,1.4,0.3,2.8,0.3,4.3c0.1,1.5,0.1,2.9,0.1,4.4
			c-0.1,3.5-0.4,7-1,10.5c-0.6,3-1.2,5.9-2.1,8.8c-0.5,1.7-1.1,3.3-1.7,5c-0.4,1.1-0.9,2.2-1.3,3.3c-0.1,0.2-0.2,0.5-0.2,0.8
			c0,0.2,0,0.4-0.3,0.5c-0.2,0.1-0.3,0.2-0.3,0.4c0,0.7-0.5,1.2-0.8,1.8c-0.5,1-1.2,2-1.8,3.1c-1.1,1.9-2.3,3.8-3.5,5.5
			c-1.5,2.1-3.1,4.2-4.9,6.2c-0.9,0.9-1.7,1.9-2.6,2.9C120.9,121,120.7,121.2,120.4,121.2z"/>
		<path class="st51" d="M12.1,72.7c-0.1-0.3-0.1-0.6,0-0.9c0.1-1.1,0.1-2.2,0-3.3c0.3-2,0.3-4.1,0.7-6.2c0.2-1,0.3-2,0.5-2.9
			c0.3-1,0.5-2,0.8-3c0.3-1.1,1.2-1.6,2.2-1.9c0.9-0.2,1.7,0.1,2.5,0.9c1.2,1.2,1.7,2.8,2.7,4.1c1.3,1.6,2.6,3.2,4.2,4.5
			c1.7,1.3,3.6,2.5,5.4,3.7c0.8,0.5,1,0.4,1.7-0.2c2.1-1.6,3.9-3.6,6.3-4.9c1-0.5,1.8-1.3,2.7-1.9c0.7-0.4,1.4-0.8,2.2-1.2
			c0.9-0.5,1.9-1,2.9-1.5c0.3-0.1,0.4-0.3,0.1-0.6c-1.3-1.6-2.4-3.4-3.5-5.1c-0.7-1.1-1.1-2.3-1.7-3.5c-0.6-1.4-1-3-1.4-4.5
			c-0.3-1.2-0.6-2.4-0.6-3.6c0-0.5-0.3-0.8-0.7-0.9c-1.3-0.3-2.4-0.9-3.6-1.3c-1.7-0.6-2.8-1.9-4.2-2.9c-2-1.5-3.4-3.5-4.9-5.4
			c-0.6-0.9-1.2-1.8-1.6-2.8c-0.4-1,0-2.2,1.3-2.4c0.9-0.2,1.9,0,2.8,0.4c0.3,0.1,0.6,0.2,1,0.2c1.5,0,3,0,4.5,0
			c0.5,0,0.9-0.3,1.4-0.3c1.9-0.2,3.7-0.9,5.5-1.4c0.4-0.1,0.8-0.2,1.2-0.3c0.6-0.3,1.1-0.7,1.5-1.3c2-3,4.2-5.9,7.1-8.1
			c3.1-2.4,6.5-4.4,10.3-5.5c0.2-0.1,0.4-0.1,0.7-0.1c-0.1,0.7-0.5,1.2-0.8,1.8c-1.3,2.7-2.6,5.5-3.7,8.4c-0.8,2-1.6,4-2.2,6.1
			c-0.6,2-1.2,4-1.7,6c0,0.2-0.2,0.4-0.2,0.6c-0.9,0-1.8,0-2.6,0c-1.2,0-2.3,0.1-3.5-0.1c-0.1,0-0.3-0.2-0.4,0
			c-0.1,0.1,0,0.1,0.1,0.1c0.1,0.4,0.2,0.8,0.2,1.3c0,1.6,0.3,3.2,0.7,4.8c0.6,2.4,1.6,4.6,2.9,6.7c0,0.2-0.1,0.4-0.2,0.6
			c-0.2,0.3-0.3,0.7-0.3,1.1c0,0.9-0.1,1.8-0.3,2.7c-0.2,1-0.1,2.1-0.4,3.1c-0.4,1.6-0.2,3.3-0.6,4.9c-0.1,0.5-0.2,1.1-0.2,1.6
			c0,2.2-0.1,4.3-0.5,6.4c0,0.3,0,0.4,0.4,0.5c0.9,0.1,1.6,0.4,2.3,1.1c1.1,1.2,1.3,3.4,0.1,4.7c-0.7,0.8-1.5,1.3-2.5,1.3
			c-0.3,0-0.2,0.1-0.2,0.3c0.2,1.5,0.2,3,0,4.5c0,0.2,0.1,0.4,0.3,0.6c1.3,0.9,1.4,2,0.4,3.1c-0.2,0.2-0.2,0.4-0.2,0.6
			c-0.1,1.6,0.3,3.2,0.4,4.8c0.2,1.5,0.3,3.1,0.5,4.6c0.3,2,0.9,3.9,1,5.9c0,0.5,0.1,1,0.1,1.5c-0.2,0-0.3-0.2-0.5-0.3
			c-1.3-1.2-2.4-2.6-3.4-4c-1.5-2-2.7-4.3-3.5-6.6c-1-2.8-2-5.7-2-8.8c0-0.4-0.1-0.9-0.1-1.3c-0.1-0.9-0.2-1.7-1-2.4
			c-0.9-0.8-1.9-0.8-2.8-0.4c-0.9,0.3-1.5,1.1-1.6,2.1c-0.1,2,0,4,0.4,6c0.3,1.3,0.5,2.6,0.8,3.9c-0.4,0.6-0.7,1.2-1.2,1.7
			c-1.3,1.8-2.7,3.6-4,5.3c-0.8,1.1-1.6,2.1-2.4,3.2c-0.4,0.6-0.6,1-0.3,1.7c0.3,0.7,0.7,1.1,1.5,1.1c0.7,0,1.4-0.3,2-0.3
			c1.2,0,2.2-0.4,3.3-0.5c2-0.3,4-0.8,6.1-1c0.2,0,0.3,0,0.3-0.3c0.1,0.1,0.2,0.2,0.3,0.3c0.9,1.6,2.2,3,3.6,4.2
			c0.1,0.1,0.1,0.2,0.1,0.3c0,0.3,0,0.6,0,0.9c-0.2,1.6-0.4,3.2-0.5,4.8c-0.1,0.9-0.1,1.9-0.3,2.8c-0.2,1.6-0.3,3.1-0.4,4.7
			c-0.1,0.8,0.2,1.6,1,1.9c0.8,0.3,1.5,0.1,2.1-0.4c0.6-0.5,1.2-1,1.7-1.5c0.7-0.6,1.5-1.3,2.2-2c0.5-0.5,0.9-0.9,1.5-1.2
			c0.6,0.5,0.7,1.2,0.9,1.8c0.7,2.1,1.4,4.1,2.1,6.2c0.6,1.7,1.4,3.4,2.1,5.1c0.4,1,0.8,2,1.3,3c1,1.9,2,3.8,2.9,5.8
			c0.9,1.8,2.1,3.5,3,5.2c0.3,0.6,0.6,1.1,1,1.7c0.2,0.3,0.2,0.5,0.2,0.8c-1.2,0.1-2.4-0.2-3.7-0.3c-2.3-0.1-4.5-0.5-6.7-0.9
			c-1.1-0.2-2.3-0.5-3.4-0.8c-2.1-0.6-4.2-1.1-6.2-1.8c-4.9-1.9-9.7-4-14.1-6.8c-4.4-2.8-8.4-6-12.1-9.6c-0.7-0.7-1.6-1.3-2-2.2
			c-0.1-1.1-0.5-2.1-0.8-3.1c-0.6-1.9-0.8-3.9-1.2-5.8c-0.5-2.8-0.5-5.6-0.5-8.3c0-2.8,0.4-5.5,1-8.2c0.2-1,0.5-2,0.7-3
			c0.1-0.5-0.2-0.7-0.4-0.9c-0.7-1.1-1.5-2.1-2.1-3.2c-0.7-1-1-2.2-1.5-3.3c-1-2.3-1.6-4.8-2-7.3c-0.2-0.9-0.2-1.9-0.3-2.8
			C12.1,72.8,12.1,72.8,12.1,72.7z"/>
		<path class="st3" d="M50.8,44.1c-1.3-2.1-2.3-4.3-2.9-6.7c-0.4-1.6-0.7-3.1-0.7-4.8c0-0.4,0-0.9-0.2-1.3c0.1,0,0.2-0.1,0.3-0.1
			c1.2,0.2,2.3,0.1,3.5,0.1c0.9,0,1.8,0,2.6,0c1.9,0,3.9,0,5.8,0c8.4,0,16.7,0,25.1,0c3.2,0,6.4,0,9.7,0c0.5,0,0.7,0,0.7,0.7
			c-0.1,4-1.1,7.8-3.1,11.2c-3.4,5.7-8.3,9.5-14.7,11.2c-1,0.3-1.9,0.6-2.9,0.6c-5,0.3-9.8-0.3-14.2-2.7c-3.4-1.9-6.2-4.4-8.5-7.6
			C51.1,44.5,50.9,44.3,50.8,44.1z M60.8,32.6c-0.1,0-0.3,0-0.4,0c-0.4,0-0.7,0-1.1,0c-0.7,0-1.5,0-2.2,0c-0.3,0-0.5,0.1-0.4,0.4
			c0.3,0.8,0.2,1.7,0.4,2.6c0.9,3.5,2.6,6.4,5.6,8.5c5.1,3.5,10.7,3.7,15.8,0.4c2.6-1.7,4.3-4.1,5.5-7C84.6,36,85,34.5,85,33
			c0-0.3-0.1-0.4-0.4-0.4c-1.1,0-2.2,0-3.3,0c-2,0-4.1,0-6.1,0c-0.4,0-0.5,0.1-0.5,0.5c0,0.8-0.3,1.6-0.9,2.2
			c-0.6,0.5-1.2,0.9-1.9,1.2c-0.5,0.2-1,0.4-1.5,0.2c-1.1-0.3-2-0.9-2.7-1.7c-0.5-0.6-0.8-1.3-0.6-2.1c2.5,0,4.9,0,7.4,0
			c-0.2-0.3-0.4-0.2-0.6-0.3c-2.1-0.1-4.2,0.1-6.3-0.1c-0.2,0-0.4,0-0.5,0.1c-0.1,0-0.3,0-0.4,0c-0.5-0.2-1-0.1-1.6,0
			c-1.3,0-2.6,0-4,0C61,32.5,60.9,32.5,60.8,32.6z"/>
		<path class="st52" d="M37.1,86.2c-0.3-1.3-0.5-2.6-0.8-3.9c-0.4-2-0.6-4-0.4-6c0.1-1,0.7-1.8,1.6-2.1c0.9-0.3,1.9-0.4,2.8,0.4
			c0.8,0.7,0.9,1.5,1,2.4c0,0.4,0.1,0.9,0.1,1.3c0,3.1,0.9,6,2,8.8c0.9,2.4,2,4.6,3.5,6.6c1.1,1.4,2.1,2.8,3.4,4
			c0.1,0.1,0.2,0.3,0.5,0.3c0.4,0.8,1.1,1.3,1.8,1.9c1.7,1.3,3.5,2.5,5.5,3.3c0.7,0.3,1.5,0.6,2.2,0.9c0.6,0.2,1.2,0.6,1.8,0.7
			c1,0.2,2,0.5,3,0.7c2.3,0.6,4.6,0.7,6.9,0.5c2.6-0.1,5.1-0.4,7.6-1.2c2.6-0.9,5-2.1,7.4-3.6c1.4-0.9,2.7-1.8,3.8-3
			c0.2-0.3,0.6-0.5,0.9-0.7c1.7-1.5,2.8-3.3,4.1-5.1c0.5-0.7,1-1.6,1.3-2.5c0.3-0.8,0.8-1.4,1.1-2.2c0.3-1.1,0.9-2.2,1.1-3.3
			c0-0.3,0.2-0.7,0.3-1c0.5-2.1,0.7-4.2,0.9-6.3c0-0.6,0.1-1.1,0.3-1.7c0.2-0.7,1.8-1.8,2.8-1.5c0.7,0.2,1.4,0.5,1.8,1.1
			c0.4,0.7,0.6,1.4,0.6,2.1c-0.1,1.8-0.2,3.5-0.5,5.2c-0.2,1.5-0.7,2.9-1.1,4.3c0,0.2-0.1,0.4-0.1,0.5c-0.8,2.8-2.1,5.4-3.7,7.9
			c-0.5,0.7-1.1,1.3-1.4,2.1c-0.3,0.1-0.5,0.5-0.6,0.8c-0.5,0.8-1.2,1.4-1.8,2.1c-0.6,0.8-1.4,1.4-2,2.2c-0.5,0.3-0.9,0.7-1.3,1
			c-2.3,1.9-4.6,3.6-7.3,4.8c-0.6,0.3-1.3,0.6-1.9,0.9c-0.4-0.1-0.8,0.2-1.2,0.4c-1.7,0.6-3.5,1.1-5.3,1.6c-0.4,0.1-0.9-0.1-1.3,0.2
			c-1.2,0.1-2.4,0.3-3.6,0.4c-1.9,0.1-3.8,0-5.7-0.2c-0.9-0.1-1.9-0.2-2.8-0.4c-2.2-0.5-4.3-1.1-6.4-2c-0.2-0.1-0.5-0.1-0.7-0.1
			c-1.1-0.6-2.2-1-3.3-1.7c-1.6-1-3.3-2.1-4.7-3.3c-0.8-0.7-1.7-1.4-2.6-2.1c0-0.1-0.1-0.2-0.1-0.3c-1.5-1.2-2.7-2.6-3.6-4.2
			c-0.1-0.1-0.2-0.2-0.3-0.3c-0.4-0.6-0.8-1.1-1.1-1.7c-0.7-1.2-1.4-2.3-2-3.5c-0.6-1.3-1.2-2.6-1.6-3.9
			C37.6,87.4,37.3,86.8,37.1,86.2z"/>
		<path class="st3" d="M46.6,101.9c0.9,0.7,1.8,1.4,2.6,2.1c1.5,1.3,3.1,2.3,4.7,3.3c1.1,0.7,2.2,1.1,3.3,1.7
			c-1.3,0.7-2.2,1.8-3.3,2.8c-0.6,0.3-1.1,0.8-1.5,1.2c-0.7,0.7-1.4,1.3-2.2,2c-0.6,0.5-1.2,1-1.7,1.5c-0.6,0.5-1.3,0.8-2.1,0.4
			c-0.8-0.4-1.1-1.1-1-1.9c0.1-1.6,0.2-3.1,0.4-4.7c0.1-0.9,0.2-1.9,0.3-2.8c0.1-1.6,0.3-3.2,0.5-4.8
			C46.6,102.5,46.6,102.2,46.6,101.9z"/>
		<path class="st3" d="M84.2,109.1c0.6-0.3,1.3-0.6,1.9-0.9c2.7-1.2,5-2.9,7.3-4.8c0.4-0.4,0.8-0.8,1.3-1c0.4,0.7,0.1,1.5,0.2,2.2
			c0.1,0.9,0.3,1.8,0.3,2.7c0,1.3,0.2,2.5,0.3,3.7c0.1,1,0.4,2,0.3,3c0,0.6,0.2,1.1,0.1,1.7c-0.2,0.9-0.8,1.2-1.4,1.5
			c-0.6,0.2-1.1-0.2-1.5-0.6c-2.6-2.3-5.2-4.6-7.9-6.9C84.8,109.5,84.5,109.3,84.2,109.1z"/>
		<path class="st3" d="M64.3,111.1c0.9,0.1,1.9,0.3,2.8,0.4c1.9,0.2,3.8,0.3,5.7,0.2c1.2-0.1,2.4-0.3,3.6-0.4
			c-0.2,1.1-0.7,2.1-1.1,3.1c-1,2.7-2,5.4-3,8.1c-0.4,1-0.8,1.2-1.7,1.2c-0.6,0-1.3-0.7-1.6-1.4c-1-2.4-2-4.7-3-7.1
			C65.4,113.8,64.9,112.5,64.3,111.1z"/>
		<path class="st3" d="M99.2,97.3c0.3-0.8,0.9-1.4,1.4-2.1c1.6-2.5,2.8-5.1,3.7-7.9c0.1-0.2,0.1-0.4,0.1-0.5
			c0.9,0.9,1.5,1.9,2.3,2.9c1.7,2.2,3.3,4.5,5,6.7c0.5,0.6,0.7,1.3,0.3,2c-0.4,0.7-1,0.9-1.8,0.8c-1.8-0.3-3.6-0.6-5.4-0.9
			C102.9,98,101.1,97.5,99.2,97.3z"/>
		<path class="st51" d="M95.1,72.2c-1.8,0.1-3.5-1.7-3.5-3.5c0-2.1,1.7-3.7,3.6-3.7c1.9,0,3.6,1.7,3.6,3.6
			C98.7,70.3,97.1,72.3,95.1,72.2z"/>
		<path class="st51" d="M57.9,80c0.1,1.3-1.1,2.1-2.2,2.2c-1,0-2.2-1.1-2.2-2.1c0-1.2,1-2.3,2.2-2.3C57.2,77.8,58,78.8,57.9,80z"/>
		<path class="st51" d="M89.8,80.1c0.2,1-1.1,2-2.2,2c-1.2-0.1-2.1-0.9-2.1-2.1c0-1.2,1.1-2.3,2.2-2.2C89,77.9,89.9,78.5,89.8,80.1z
			"/>
		<path class="st51" d="M95.6,81.1c-0.9,0-1.9-1-1.9-1.8c0.1-1.1,0.9-2,2-2c1.3,0,1.9,0.8,2,1.9C97.7,80.3,96.9,81.2,95.6,81.1z"/>
		<path class="st51" d="M89.6,74.9c-1,0.2-1.9-0.9-1.9-1.9c0-1,1-1.9,2.1-1.9c1,0,1.9,0.9,1.8,1.9C91.5,73.9,90.9,75,89.6,74.9z"/>
		<path class="st51" d="M55.7,73c0,1.2-0.7,1.9-1.8,1.9c-1.4,0.1-1.9-1-2-1.9c0-1,0.9-1.9,1.9-1.9C54.7,71,55.8,72,55.7,73z"/>
		<path class="st49" d="M12.1,68.5c0.1,1.1,0.1,2.2,0,3.3C12,70.7,12.1,69.6,12.1,68.5z"/>
		<path class="st49" d="M12.1,72.7c0,0.1,0,0.1,0,0.2C12.1,72.8,12,72.8,12.1,72.7z"/>
		<path class="st3" d="M37.1,86.2c0.2,0.6,0.5,1.2,0.7,1.9c0.5,1.3,1,2.6,1.6,3.9c0.6,1.2,1.3,2.3,2,3.5c0.3,0.6,0.7,1.1,1.1,1.7
			c0,0.2-0.2,0.2-0.3,0.3c-2,0.2-4.1,0.7-6.1,1c-1.1,0.2-2.2,0.5-3.3,0.5c-0.6,0-1.3,0.3-2,0.3c-0.8,0-1.2-0.4-1.5-1.1
			c-0.3-0.6-0.1-1.1,0.3-1.7c0.7-1.1,1.6-2.2,2.4-3.2c1.3-1.8,2.7-3.6,4-5.3C36.4,87.3,36.7,86.7,37.1,86.2z"/>
		<path class="st49" d="M47.3,31.2c-0.1,0-0.2,0.1-0.3,0.1c-0.1,0-0.2-0.1-0.1-0.1C47,31,47.2,31.2,47.3,31.2z"/>
		<path class="st50" d="M81.2,32.6c1.1,0,2.2,0,3.3,0c0.3,0,0.4,0.1,0.4,0.4c0,1.5-0.3,3-0.9,4.4c-1.1,2.8-2.8,5.3-5.5,7
			c-5.1,3.2-10.8,3.1-15.8-0.4c-3-2.1-4.7-5-5.6-8.5C57,34.7,57,33.8,56.8,33c-0.1-0.3,0.1-0.4,0.4-0.4c0.7,0,1.5,0,2.2,0
			c0.4,0,0.7,0,1.1,0c-0.2,0.1-0.3,0.2-0.2,0.4c0.1,0.3,0.2,0.6,0.2,0.9c0.7,4.8,5.1,8.7,10,8.8c4.5,0.1,8.6-2.6,10.2-6.8
			C81,34.8,81.5,33.8,81.2,32.6z"/>
		<path class="st18" d="M81.2,32.6c0.2,1.2-0.2,2.2-0.6,3.3c-1.6,4.2-5.7,6.9-10.2,6.8c-4.8-0.1-9.3-4.1-10-8.8
			c0-0.3-0.1-0.6-0.2-0.9c-0.1-0.3,0-0.4,0.2-0.4c0.1,0,0.3,0,0.4,0c0.1,0,0.1,0,0.2,0c1.3,0,2.6,0,4,0c0.5,0,1,0,1.6,0
			c0.1,0,0.3,0,0.4,0c0,0.1,0,0.1,0,0.2c-0.2,0.8,0,1.5,0.6,2.1c0.7,0.8,1.7,1.4,2.7,1.7c0.5,0.1,1,0,1.5-0.2
			c0.7-0.3,1.3-0.7,1.9-1.2c0.6-0.6,1-1.3,0.9-2.2c0-0.4,0.1-0.5,0.5-0.5C77.1,32.6,79.2,32.6,81.2,32.6z"/>
		<path class="st50" d="M67,32.8c0-0.1,0-0.1,0-0.2c0.2-0.1,0.3-0.1,0.5-0.1c2.1,0.2,4.2,0,6.3,0.1c0.2,0,0.4-0.1,0.6,0.3
			C72,32.8,69.5,32.8,67,32.8z"/>
		<path class="st50" d="M66.6,32.6c-0.5,0-1,0-1.6,0C65.6,32.4,66.1,32.4,66.6,32.6z"/>
		<path class="st50" d="M61.1,32.6c-0.1,0-0.1,0-0.2,0C60.9,32.5,61,32.5,61.1,32.6z"/>
	</g>
</g>
</svg>
