<?xml version="1.0" encoding="utf-8"?>
<!-- Generator: Adobe Illustrator 27.3.1, SVG Export Plug-In . SVG Version: 6.00 Build 0)  -->
<svg version="1.1" id="Ebene_1" xmlns="http://www.w3.org/2000/svg" xmlns:xlink="http://www.w3.org/1999/xlink" x="0px" y="0px"
	 viewBox="0 0 141.7 141.7" style="enable-background:new 0 0 141.7 141.7;" xml:space="preserve">
<style type="text/css">
	.st0{fill:#F6BB37;}
	.st1{fill:#3684C6;}
	.st2{fill:#DCA12A;}
	.st3{fill:#FCFCFE;}
	.st4{fill:#E97E2F;}
	.st5{fill:#28273D;}
	.st6{fill:#7F65AA;}
	.st7{fill:#B49ECB;}
	.st8{fill:#66529D;}
	.st9{fill:#33314C;}
	.st10{fill:#35ACC6;}
	.st11{fill:#27263D;}
	.st12{fill:#DB191D;}
	.st13{fill:#42BEE1;}
	.st14{fill:#EE715E;}
	.st15{fill:#396CB3;}
	.st16{fill:#EA5B4C;}
	.st17{fill:#F2C551;}
	.st18{fill:#27273D;}
	.st19{fill:#B0CF6D;}
	.st20{fill:#28263D;}
	.st21{fill:#9E4A30;}
	.st22{fill:#DB1E1D;}
	.st23{fill:#FBFBFD;}
	.st24{fill:#A3C163;}
	.st25{fill:#3F426D;}
	.st26{fill:#33304C;}
	.st27{fill:#DB181D;}
	.st28{fill:#83C4ED;}
	.st29{fill:#B6622B;}
	.st30{fill:#AB795E;}
	.st31{fill:#88C7EE;}
	.st32{fill:#9BB7CC;}
	.st33{fill:#E97F31;}
	.st34{fill:#CD6F2C;}
	.st35{fill:#A8A4A6;}
	.st36{fill:#84C4EC;}
	.st37{fill:#FEFEFE;}
	.st38{fill:#D91F1D;}
	.st39{fill:#F29454;}
	.st40{fill:#3C86C6;}
	.st41{fill:#F8FAFD;}
	.st42{fill:#AD8ABF;}
	.st43{fill:#67529E;}
	.st44{fill:#F6D373;}
	.st45{fill:#29273D;}
	.st46{fill:#EE715D;}
	.st47{fill:#F9C6BD;}
	.st48{fill:#A65E3A;}
	.st49{fill:#F18B88;}
	.st50{fill:#82C2EC;}
	.st51{fill:#E28080;}
	.st52{fill:#D57474;}
	.st53{fill:#4F5173;}
	.st54{fill:#3785C6;}
	.st55{fill:#E84680;}
	.st56{fill:#28273E;}
	.st57{fill:#E13072;}
	.st58{fill:#F5BA37;}
	.st59{fill:#F3C651;}
	.st60{fill:#DB5144;}
	.st61{fill:#A17FB8;}
	.st62{fill:#AC8ABE;}
	.st63{fill:#342E4F;}
	.st64{fill:#2DAC64;}
	.st65{fill:#5CB993;}
	.st66{fill:#9DBA5C;}
	.st67{fill:#5AB992;}
	.st68{fill:#66529E;}
	.st69{fill:#EA5A4C;}
	.st70{fill:#12994E;}
	.st71{fill:#DE5044;}
	.st72{fill:#EE715F;}
	.st73{fill:#E97F2F;}
	.st74{fill:#A89AC9;}
	.st75{fill:#38B3CD;}
	.st76{fill:#DD3D78;}
	.st77{fill:#F5D373;}
	.st78{fill:#FDEAB4;}
	.st79{fill:#7F66AA;}
	.st80{fill:#3885C6;}
	.st81{fill:#40436D;}
	.st82{fill:#A99ACA;}
	.st83{fill:#34314B;}
	.st84{fill:#F4D273;}
	.st85{fill:#83C5ED;}
	.st86{fill:#D29C2C;}
	.st87{fill:#87C7EE;}
	.st88{fill:#F6BB38;}
	.st89{fill:#F6BB3A;}
	.st90{fill:#E83D69;}
	.st91{fill:#F4BC3F;}
	.st92{fill:#85C5EB;}
	.st93{fill:#DA1E1D;}
	.st94{fill:#DDA736;}
	.st95{fill:#F18D88;}
	.st96{fill:#FFFEFE;}
	.st97{fill:#F9C8BC;}
	.st98{fill:#3B85C6;}
</style>
<g id="nPZiKQ.tif">
	<g>
		<path class="st55" d="M121,120.7c-0.1,0.8,0.2,1.5,0.3,2.2c0.1,1,0.2,2-0.7,2.8c-0.6,0.6-1.4,0.7-2.2,0.9
			c-1.2,0.4-2.4,0.1-3.5,0.4c-0.3,0.1-0.6,0.1-1,0.2c-1.5-0.1-2.3,0.4-2.7,1.8c-0.4,0.5-0.9,0.8-1.5,1.1c-1.4,0.9-2.8,1.7-4.2,2.6
			c-0.9,0.5-1.9,1-2.9,1.4c-1.2,0.6-2.5,1.2-3.7,1.8c-0.6,0.3-1.1,0.7-1.8,0.5c-0.5,0.7-1.4,0.7-2.1,1c-3.3,1.3-6.7,2.2-10.1,3
			c-1.9,0.4-3.9,0.6-5.9,0.9c-3.8,0.6-7.5,0.5-11.3,0.4c-2.1,0-4.2-0.1-6.2-0.5c0.2-1.1-0.4-2-0.9-2.9c-0.6-1.1-1.5-1.6-2.8-1.5
			c-1.8,0.2-3.5,0.4-5.3,0.7c-1.5,0.2-2.9-0.6-3.1-1.8c-0.4-1.9-0.6-3.8-0.7-5.7c-0.1-1.9-1.5-2.8-3-2.9c-2-0.2-4-0.3-5.9-0.8
			c-0.6-0.1-1.4-1.1-1.5-1.7c-0.2-2.1,0.4-4.1,0.6-6.1c0.1-1.6-0.7-3.4-2.2-3.8c-1.6-0.5-3.2-1-4.8-1.6c-1-0.4-1.7-1-1.8-2.2
			c-0.1-0.9,0.3-1.5,0.6-2.3c0.4-1.5,1.2-2.8,1.6-4.3c0.3-1.1-0.1-2.5-0.9-3c-1.1-0.8-2.2-1.6-3.4-2.2c-1-0.5-1.9-1.1-2.6-2
			c-0.6-0.8-0.7-1.7,0-2.5c1.1-1.4,2.1-3,3-4.5c0.2-0.3,0.3-0.4,0.6-0.2c0.4,1,0.5,2.1,1,3.1c0.9,2.1,1.7,4.2,2.8,6.2
			c1.4,2.6,3.1,4.9,5,7.2c0.8,1.3,2,2.4,3.1,3.4c1.8,1.8,3.8,3.5,5.9,4.9c2,1.3,4,2.4,6,3.6c0.3,0.1,0.5,0.2,0.8,0.1
			c1,0.5,2,1,3,1.4c0.7,0.2,1.5,0.4,2.2,0.6c0.3,0.1,0.6,0.2,0.9,0.2c0.9,0.8,1.9,0.8,3,0.8c0.5,0.2,1,0.2,1.4,0.2
			c2.8,0.5,5.5,0.7,8.3,0.7c0.8,0,1.5,0,2.3-0.1c0.7,0,1-0.2,1-0.9c0,0.6,0.4,0.7,0.9,0.6c0.4-0.1,0.7-0.1,1.1-0.1
			c0.2,0,0.4,0,0.7,0c0.6,0,1.2-0.1,1.7-0.5l0.1,0l0.1,0c0.4,0,0.9,0.1,1.2-0.2l0,0c0.2,0,0.3,0.1,0.5-0.1c1.9-0.6,3.7-1.3,5.7-1.7
			c1.6-0.8,3.2-1.4,4.7-2.3c1.1-0.6,2.2-1.4,3.2-2c1.1-0.7,2.1-1.4,3.1-2.1c0.1,0,0.1-0.1,0.1-0.1c0,0,0.1-0.1,0.1-0.1
			c0.1,0,0.1-0.1,0.2-0.1c0,0,0,0,0.1,0c0.3,0.1,0.4-0.1,0.4-0.4c0.3-0.1,0.4-0.4,0.5-0.5c1.4-1.3,2.7-2.6,4-4
			c0.2,0,0.2-0.1,0.2-0.3c0.1-0.1,0.2-0.2,0.3-0.4c0.2,0,0.2-0.1,0.2-0.3c0.4-0.5,0.7-1.1,1.2-1.6c1-1.1,1.8-2.3,2.6-3.6
			c1.9-3.1,3.4-6.5,4.6-9.9c0.2-0.6,0.5-1.1,0.6-1.7c0.2-1,0.4-2,0.6-3c0.2-1.3,0.6-2.6,0.6-4c0-0.5,0.3-0.9,0.2-1.4
			c-0.3-1.2,0-2.5-0.1-3.8c-0.1-1.2-0.6-2-1.7-2.2c-1-0.2-2.4,0-2.9,1.1c0,0-0.1,0.1-0.1,0.1c-0.1,0.1-0.2,0.3-0.3,0.4
			c-0.2,0-0.3,0-0.3,0.3c-1,1.2-2.1,2.3-3.2,3.3c-1.4,1.2-3,2.2-4.6,3.1c-2.1,1.1-4.4,1.5-6.7,2c-0.4,0.1-0.9-0.2-1.2,0.3
			c-0.3,0-0.6,0-0.9,0c-2.3,0.4-4.5,0.9-6.9,0.8c-0.8,0-1.5,0.1-2.3,0.1c-2.2-0.1-4.4,0.2-6.7,0.1c-1.8,0-3.6,0-5.5,0
			c-0.3,0-0.5,0-0.8-0.1c-0.3,0-0.5-0.1-0.8,0.1c-0.9,0-1.9,0-2.8,0c-0.1-0.1-0.2-0.1-0.2,0c-0.1,0-0.2,0-0.3,0c0,0-0.1,0-0.1,0
			c-2.5-0.1-5.1-0.1-7.6,0c-1.4-0.1-2.9-0.1-4.3-0.2c-1.8,0-3.6-0.4-5.5-0.7c-0.7-0.1-1.4-0.2-2.1-0.3c-0.2-0.3-0.6-0.2-0.8-0.2
			c-1.8-0.4-3.6-0.8-5.4-1.5c-1.1-0.5-2.2-0.8-3.2-1.5c-1.4-1-2.8-2.1-4.1-3.3c-1.1-1-2-2.3-3-3.3c-1.1-1.1-3.2-0.6-3.7,0.9
			c-0.2,0.5-0.3,1-0.2,1.5c0.2,1.2,0.1,2.4,0.1,3.5c0,1.2,0.3,2.3,0.5,3.4c-0.1,0-0.3,0-0.4-0.1c-1.4-1-2.6-2.3-3.8-3.6
			c-0.1-0.1-0.1-0.1-0.1-0.2c-0.4-1.2,0.1-2.7,1-3.6c1.1-1,2.3-2,3.4-3.1c1.2-1.3,1.4-2.5,0.7-3.6c-0.5-0.9-1-1.8-1.7-2.6
			c-0.7-0.8-1.3-1.8-1.7-2.8c-0.4-1.2-0.2-2.4,0.9-3.1c0.9-0.6,1.9-1.2,2.8-1.8c1-0.7,2.1-1.1,2.9-2.2c0.6-0.9,0.6-1.8,0.3-2.6
			c-0.6-1.8-1.4-3.5-2-5.3c-0.4-1.1,0-2.4,0.9-2.9c0.5-0.3,1.1-0.5,1.6-0.7c1.4-0.4,2.8-0.9,4.2-1.5c1-0.4,1.9-1,2-2.3
			c0.1-1.2-0.1-2.3-0.3-3.4c-0.2-1.1-0.4-2.3-0.4-3.4c0-0.6,0.2-1.1,0.6-1.6c0.9-1,2.2-1.2,3.4-1.2c1.4-0.1,2.8-0.2,4.2-0.5
			c1.4-0.3,2-1,2.1-2.4c0.1-1.1,0.2-2.2,0.4-3.2c0.2-1,0-2.1,0.5-3.1c0.3-0.7,0.8-1.2,1.6-1.4c1.3-0.3,2.6,0,3.8,0.2
			c1.1,0.2,2.1,0.4,3.2,0.4c1.5-0.1,2.5-0.8,3-2.2c0.5-1.6,1.1-3.2,1.7-4.8c0.4-1.1,1.2-1.8,2.4-1.8c1,0,2,0.4,2.9,0.9
			c1.4,0.7,2.7,1.4,4.3,1.7c0.3,0,0.6,0.1,0.9,0c1.2-0.5,2.1-1.3,2.7-2.4c0.7-1.2,1.4-2.4,2.4-3.3c0.3-0.3,0.4-0.6,0.4-0.9
			c0.5-0.3,1-0.3,1.5,0.1c0.3,0.3,0.7,0.5,1,0.8c0.7,0.8,1.4,1.5,1.9,2.4c0.5,0.8,1.1,1.6,1.7,2.4c0.6,0.8,1.4,1.3,2.4,1.1
			c0.5-0.1,1-0.2,1.5-0.4c1.7-0.6,3.2-1.5,4.9-2c0.9-0.3,1.7-0.1,2.4,0.5c0.6,0.5,0.8,1.3,1.1,2c0.7,1.7,1.1,3.5,2.1,5.1
			c-0.1,0.3-0.2,0.5-0.5,0.7c-1.4,1-2.4,2.4-3.4,3.8c-0.4,0.6-0.2,1,0.1,1.4c0.3,0.4,0.7,0.7,1.3,0.5c0.6-0.2,1-0.6,1.4-1
			c1.1-1.1,2.2-2.2,3.3-3.3c0.5-0.4,0.9-0.9,1.6-1c0.2,0,0.4-0.1,0.6-0.2c1.3-0.5,2.6-0.8,4-0.7c1.4,0.1,2.5,0.7,2.7,2.2
			c0.1,1.1,0.2,2.2,0.3,3.2c0.1,1,0.1,1.9,0.4,2.9c0.3,0.9,0.8,1.7,1.7,1.9c0.8,0.2,1.6,0.5,2.5,0.5c0.6,0,1.2,0.2,1.7,0.1
			c0.9-0.2,1.8,0.2,2.6,0.4c0.9,0.3,1.7,0.9,1.8,2c0.1,0.5,0.1,1.1,0,1.7c-0.4,1.8-0.7,3.6-0.7,5.4c0,0.8,0.3,1.3,0.9,1.8
			c0.4,0.3,0.8,0.6,1.3,0.8c0.9,0.4,1.9,0.6,2.8,1c0.6,0.3,1.2,0.5,1.8,0.7c1.5,0.6,2.5,1.7,1.8,3.6c-0.7,1.8-1.5,3.6-2,5.5
			c-0.2,0.8,0.2,2.3,0.9,2.9c0.9,0.8,2.1,1.2,3,1.9c0.9,0.6,1.9,1,2.6,1.9c0.6,0.8,0.9,1.6,0.5,2.6c-0.2,0.4-0.4,0.9-0.7,1.3
			c-0.9,1.4-2.1,2.7-2.8,4.2c-0.4,0.8-0.6,1.8,0,2.6c0.7,0.8,1.4,1.6,2.2,2.3c0.9,0.8,1.9,1.7,2.6,2.7c0.5,0.7,0.8,1.6,0.3,2.4
			c-0.4,0.7-0.8,1.4-1.5,2c-1,0.8-1.9,1.7-2.8,2.7c-0.5,0.5-0.9,1-1.1,1.6c-0.4,1,0.2,1.8,0.7,2.6c0.9,1.4,1.8,2.7,2.7,4.1
			c0.6,0.9,0.9,2.1,0,3.2c-0.5,0.7-1.2,1.1-1.9,1.5c-1.3,0.7-2.6,1.5-3.8,2.4c-0.9,0.8-1.2,1.9-0.9,3c0.4,1.6,1.1,3,1.8,4.5
			c0.3,0.6,0.5,1.2,0.5,1.8c0,1-0.4,1.7-1.2,2.3c-0.3,0.2-0.5,0.4-0.8,0.5c-0.1,0-0.2,0-0.2,0c-1.8,0.6-3.6,1-5.3,1.8
			c-0.7,0.4-1.3,0.9-1.4,1.8C120.5,118.1,120.6,119.4,121,120.7z M43.6,52c-0.2,4.5,0.9,8.6,2.7,12.4c1.6,3.4,4,6.4,6.9,8.9
			c2.1,1.9,4.5,3.4,7,4.5c2.9,1.2,5.9,2,9,2.2c2.5,0.1,5.1,0.1,7.6-0.4c5.1-1,9.5-3.2,13.3-6.6c2.4-2.1,4.3-4.6,5.9-7.4
			c2.2-4,3.3-8.3,3.4-12.9c0-1.2-0.1-2.4-0.1-3.7c0-0.5-0.1-1-0.2-1.5c-0.9-5.5-3.3-10.3-7.1-14.5c-2.7-3-6-5.1-9.7-6.7
			c-2.5-1.1-5.2-1.8-7.9-2c-2-0.2-3.9-0.2-5.9,0c-1.9,0.2-3.8,0.5-5.6,1.1c-6.3,2.1-11.3,5.9-15,11.5c-1.7,2.6-2.9,5.5-3.7,8.5
			C43.7,47.7,43.4,49.9,43.6,52z"/>
		<path class="st76" d="M78.7,10.4c0.1,0.4-0.1,0.7-0.4,0.9c-1,0.9-1.7,2.1-2.4,3.3c-0.6,1.1-1.5,2-2.7,2.4c-0.3,0.1-0.6,0-0.9,0
			c-1.6-0.3-2.9-1-4.3-1.7c-0.9-0.4-1.9-0.9-2.9-0.9c-1.1,0-2,0.7-2.4,1.8c-0.6,1.6-1.1,3.2-1.7,4.8c-0.5,1.4-1.4,2.1-3,2.2
			c-1.1,0-2.1-0.2-3.2-0.4c-1.3-0.2-2.5-0.6-3.8-0.2c-0.8,0.2-1.2,0.7-1.6,1.4c-0.5,1-0.3,2.1-0.5,3.1c-0.2,1.1-0.3,2.2-0.4,3.2
			C48.6,32,48,32.6,46.6,33c-1.4,0.3-2.8,0.5-4.2,0.5c-1.2,0-2.5,0.2-3.4,1.2c-0.4,0.5-0.6,1-0.6,1.6c0,1.2,0.2,2.3,0.4,3.4
			c0.2,1.1,0.4,2.3,0.3,3.4c-0.1,1.2-1.1,1.8-2,2.3c-1.4,0.6-2.7,1.1-4.2,1.5c-0.6,0.2-1.1,0.4-1.6,0.7c-0.9,0.5-1.3,1.8-0.9,2.9
			c0.6,1.8,1.4,3.5,2,5.3c0.3,0.8,0.3,1.7-0.3,2.6c-0.8,1.1-1.9,1.5-2.9,2.2c-0.9,0.6-1.9,1.1-2.8,1.8c-1.1,0.8-1.3,1.9-0.9,3.1
			c0.4,1.1,1,2,1.7,2.8c0.7,0.8,1.2,1.7,1.7,2.6c0.7,1.1,0.5,2.4-0.7,3.6c-1.1,1.1-2.3,2-3.4,3.1c-1,0.9-1.5,2.4-1,3.6
			c0,0.1,0.1,0.2,0.1,0.2c1.2,1.2,2.4,2.5,3.8,3.6c0.1,0.1,0.2,0.1,0.4,0.1c0.4,1.5,0.6,3.1,1.1,4.6c-0.3-0.2-0.4-0.1-0.6,0.2
			c-1,1.5-1.9,3.1-3,4.5c-0.6,0.8-0.6,1.8,0,2.5c0.7,0.9,1.6,1.5,2.6,2c1.2,0.7,2.3,1.4,3.4,2.2c0.8,0.6,1.2,2,0.9,3
			c-0.4,1.5-1.2,2.8-1.6,4.3c-0.2,0.7-0.7,1.4-0.6,2.3c0.1,1.2,0.8,1.8,1.8,2.2c1.6,0.6,3.2,1.1,4.8,1.6c1.5,0.4,2.3,2.2,2.2,3.8
			c-0.2,2-0.8,4-0.6,6.1c0.1,0.6,0.8,1.6,1.5,1.7c2,0.4,3.9,0.5,5.9,0.8c1.5,0.2,2.8,1.1,3,2.9c0.1,1.9,0.4,3.8,0.7,5.7
			c0.2,1.2,1.7,2.1,3.1,1.8c1.7-0.3,3.5-0.5,5.3-0.7c1.2-0.1,2.2,0.4,2.8,1.5c0.5,0.9,1,1.8,0.9,2.9c-2.9-0.4-5.8-0.9-8.6-1.6
			c-0.9-0.2-1.8-0.6-2.7-0.8c-2.5-0.7-4.9-1.8-7.3-2.7c-3.5-1.4-6.7-3.4-10-5.2c-0.3-0.2-0.6-0.5-0.9-0.8c0.1-2.4-2.7-3.4-4.2-2.9
			c-0.9-0.3-1.9-0.2-2.9-0.4c-0.1,0-0.3,0-0.4-0.1c-0.1-0.1-0.2-0.1-0.3-0.1c-0.3,0-0.5,0-0.8-0.2c-0.1-0.1-0.2-0.1-0.3-0.1
			c-1.2-0.6-1.7-1.6-1.4-2.9c0.1-0.5,0.1-0.9,0.1-1.4c0.4-1.4,0.7-2.8,0.6-4.2c-0.1-1.2-0.5-2.2-1.8-2.7c-0.5-0.2-0.9-0.4-1.4-0.6
			c-1.4-0.5-2.9-0.9-4.2-1.6c-1.1-0.5-1.7-1.7-1.3-3c0.3-1.2,0.9-2.4,1.4-3.6c0.2-0.5,0.2-1.1,0.5-1.6c0.6-1.1,0.3-3-0.7-3.6
			c-0.3-0.2-0.5-0.4-0.8-0.6c-1.4-0.8-2.8-1.7-4.2-2.6c-0.7-0.5-1.5-1.8-1.2-2.5C8.9,94.9,9,94.5,9.3,94c0.8-1.4,1.9-2.6,2.7-4
			c0.9-1.7,1-2.6-0.1-4.1c-0.3-0.4-0.6-0.6-1-1c-1.1-1.1-2.4-2-3.3-3.3c-0.8-1.1-0.8-2.2,0.2-3.3c1.4-1.6,3.1-2.9,4.4-4.6
			c0.5-0.7,0.7-1.3,0.5-2.2c-0.4-1.3-1.3-2.3-2-3.4c-0.7-1.1-1.5-2-1.9-3.3c-0.1-0.5,0.2-2,0.6-2.2c1.2-0.8,2.4-1.5,3.6-2.3
			c0.3-0.2,0.6-0.6,1.1-0.7c1.2-0.5,2.2-2,1.8-3.4c-0.1-0.5-0.3-1-0.5-1.5c-0.4-1.6-1.2-3-1.6-4.6c-0.2-0.7-0.1-1.4,0.4-2
			c0.6-0.6,1.3-1,2.1-1.3c1.4-0.4,2.7-1,4-1.4c1.6-0.6,2.4-1.7,2.2-3.3c-0.1-1.3-0.4-2.6-0.5-3.9c-0.1-0.6-0.3-1.3-0.3-1.9
			c0.1-1.8,1.1-2.4,3-2.7c1.9-0.3,3.9-0.2,5.8-0.9c0.8-0.3,1.1-0.9,1.4-1.5c0.3-0.7,0.4-1.5,0.4-2.2c0.1-1.1,0.2-2.1,0.3-3.2
			c0.2-2.2,0.6-2.7,2.9-3.2c0.1,0,0.3,0,0.3-0.2c0-0.1-0.1-0.2-0.2-0.3c-1.1-0.6-2.1-1.4-3.2-2C30,19,27.6,17.7,25,17
			c-0.3-0.2-0.6-0.1-0.9-0.1c-0.2,0-0.4,0-0.5-0.2c0-0.1,0-0.2,0.1-0.3c0.4-0.7,0.5-1.4,0.1-2.1c-0.1-0.1-0.2-0.3-0.1-0.5
			c0.8,0,1.6,0.2,2.4,0.5c0.6,0.2,1.1,0.3,1.7,0.5c1.1,0.5,2.3,0.7,3.3,1.3c0.8,0.5,1.6,0.7,2.4,1.2c0.5,0.3,1.2,0.5,1.7,0.9
			c0.4,0.3,0.9,0.3,1.2,0.6c0.6,0.7,1.5,1,2.1,1.6c0.8,0.8,1.9,1.3,2.7,2.1c0.5,0.5,1,0.8,1.7,0.5c0.5-0.2,0.8-0.4,1.1-0.7
			c0.5-0.7,0.8-1.5,1.1-2.3c0.5-1.4,1-2.7,1.6-4.1c0.4-0.9,1.6-1.6,2.5-1.5c0.7,0.1,1.4,0.3,2,0.6c1.5,0.7,3.1,1.5,4.7,1.9
			c0.3,0.1,0.6,0.2,0.8,0.1c0.6-0.2,1.2-0.4,1.7-0.9c1-1.2,1.9-2.4,2.7-3.7c0.5-0.8,1.1-1.5,2-1.9c1.2-0.6,2.1,0,3.1,0.6
			c1.2,0.9,2.4,1.9,3.5,2.8c0.9,0.7,1.8,1.4,3.1,0.8c0.4-0.2,0.8-0.4,1.2-0.7c0.8-0.6,1.7-1.2,2.5-1.8c0.7-0.6,1.3-1.3,2.2-1.6
			c0,0,0.1-0.1,0.1-0.1C78.6,10.5,78.7,10.5,78.7,10.4z"/>
		<path class="st74" d="M25,17c2.6,0.8,5,2,7.5,3.2c1.1,0.6,2.1,1.4,3.2,2c0.1,0.1,0.2,0.2,0.2,0.3c0,0.2-0.2,0.1-0.3,0.2
			c-2.2,0.5-2.7,1-2.9,3.2c-0.1,1.1-0.2,2.1-0.3,3.2c-0.1,0.8-0.1,1.5-0.4,2.2c-0.3,0.6-0.6,1.2-1.4,1.5c-1.9,0.7-3.9,0.6-5.8,0.9
			c-1.9,0.3-2.9,0.9-3,2.7c-0.1,0.7,0.2,1.3,0.3,1.9c0.2,1.3,0.4,2.6,0.5,3.9c0.2,1.7-0.6,2.8-2.2,3.3c-1.3,0.5-2.7,1-4,1.4
			c-0.8,0.3-1.5,0.7-2.1,1.3c-0.5,0.6-0.6,1.2-0.4,2c0.4,1.6,1.2,3,1.6,4.6c0.1,0.5,0.3,1,0.5,1.5c0.4,1.4-0.6,2.9-1.8,3.4
			c-0.4,0.2-0.7,0.5-1.1,0.7c-1.2,0.8-2.4,1.5-3.6,2.3c-0.3,0.2-0.7,1.7-0.6,2.2c0.3,1.3,1.2,2.2,1.9,3.3c0.7,1.1,1.6,2.1,2,3.4
			c0.2,0.8,0,1.4-0.5,2.2c-1.3,1.7-3,3-4.4,4.6c-0.9,1.1-1,2.1-0.2,3.3c0.9,1.3,2.2,2.2,3.3,3.3c0.3,0.3,0.7,0.6,1,1
			c1.1,1.6,1.1,2.5,0.1,4.1c-0.8,1.4-1.9,2.6-2.7,4c-0.3,0.4-0.4,0.9-0.6,1.3c-0.3,0.7,0.5,2.1,1.2,2.5c1.4,0.9,2.8,1.8,4.2,2.6
			c0.3,0.2,0.5,0.4,0.8,0.6c1,0.6,1.3,2.5,0.7,3.6c-0.3,0.5-0.3,1.1-0.5,1.6c-0.5,1.2-1,2.4-1.4,3.6c-0.3,1.2,0.2,2.4,1.3,3
			c1.4,0.7,2.8,1.1,4.2,1.6c0.5,0.2,1,0.4,1.4,0.6c1.2,0.5,1.7,1.5,1.8,2.7c0.1,1.4-0.2,2.8-0.6,4.2c-0.3-0.1-0.5-0.3-0.7-0.5
			c-2.8-3-5.6-6-8-9.3c-1.8-2.6-3.5-5.3-4.9-8c-1.9-3.5-3.4-7.1-4.7-10.9c-1.3-3.8-2.2-7.8-2.8-11.8c-0.6-4-0.9-7.9-0.8-11.9
			c0.1-2.4,0.3-4.7,0.6-7.1c0.4-3.3,1-6.5,1.8-9.6c0.9-3.4,2.1-6.7,3.4-9.9c1.8-4.3,4.1-8.3,6.7-12.1c1.8-2.6,3.7-5.1,5.9-7.4
			c1.2-1.3,2.3-2.6,3.6-3.8C23.1,18.6,24,17.8,25,17z"/>
		<path class="st74" d="M78.7,10.4c-0.1,0-0.2,0-0.2,0.1c0,0-0.1,0.1-0.1,0.1c-0.9,0.3-1.5,1.1-2.2,1.6c-0.8,0.7-1.7,1.2-2.5,1.8
			c-0.4,0.3-0.8,0.5-1.2,0.7c-1.2,0.6-2.2-0.1-3.1-0.8c-1.2-0.9-2.3-1.9-3.5-2.8c-0.9-0.6-1.9-1.2-3.1-0.6c-0.9,0.4-1.5,1.2-2,1.9
			c-0.9,1.3-1.7,2.6-2.7,3.7c-0.5,0.5-1,0.8-1.7,0.9c-0.2,0.1-0.6-0.1-0.8-0.1c-1.6-0.5-3.1-1.2-4.7-1.9c-0.6-0.3-1.3-0.4-2-0.6
			c-0.9-0.1-2.1,0.6-2.5,1.5c-0.6,1.3-1,2.7-1.6,4.1c-0.3,0.8-0.6,1.6-1.1,2.3c-0.3,0.4-0.6,0.6-1.1,0.7c-0.7,0.2-1.3,0-1.7-0.5
			c-0.8-0.9-1.9-1.3-2.7-2.1c-0.6-0.6-1.5-0.9-2.1-1.6c-0.2-0.3-0.8-0.3-1.2-0.6c-0.5-0.4-1.2-0.6-1.7-0.9c-0.7-0.6-1.6-0.8-2.4-1.2
			c-1-0.6-2.2-0.9-3.3-1.3c0.5-0.2,0.8-0.6,1.2-0.9c2.8-2.1,5.8-3.9,8.9-5.6c5.5-2.9,11.3-5.1,17.4-6.5c3-0.7,6.1-1.2,9.2-1.5
			c2.4-0.2,4.9-0.4,7.3-0.3c3,0.1,5.9,0.3,8.8,0.7c4.5,0.6,8.9,1.7,13.2,3.1c2.5,0.8,4.9,1.8,7.3,3c4.1,1.9,8,4.2,11.6,6.9
			c0.3,0.2,0.5,0.5,0.7,0.7c-0.2,0.1-0.4,0.2-0.6,0.2c-2.2,0.5-4.2,1.6-6.1,2.6c-2.3,1.3-4.5,2.8-6.6,4.6c-0.3,0.2-0.5,0.4-0.9,0.5
			c-1-1.6-1.4-3.4-2.1-5.1c-0.3-0.7-0.5-1.4-1.1-2c-0.7-0.6-1.5-0.8-2.4-0.5c-1.7,0.6-3.2,1.5-4.9,2c-0.5,0.2-1,0.3-1.5,0.4
			c-1.1,0.2-1.8-0.3-2.4-1.1c-0.6-0.8-1.2-1.5-1.7-2.4c-0.5-0.9-1.2-1.6-1.9-2.4c-0.3-0.3-0.7-0.5-1-0.8
			C79.7,10.2,79.3,10.1,78.7,10.4z"/>
		<path class="st74" d="M129.5,110.4c0-0.6-0.3-1.2-0.5-1.8c-0.7-1.5-1.4-3-1.8-4.5c-0.3-1.1,0-2.2,0.9-3c1.2-0.9,2.5-1.7,3.8-2.4
			c0.7-0.4,1.4-0.8,1.9-1.5c0.9-1.1,0.6-2.3,0-3.2c-0.9-1.4-1.9-2.7-2.7-4.1c-0.5-0.8-1-1.6-0.7-2.6c0.2-0.7,0.7-1.2,1.1-1.6
			c0.9-0.9,1.8-1.9,2.8-2.7c0.7-0.5,1.1-1.2,1.5-2c0.4-0.9,0.2-1.7-0.3-2.4c-0.7-1-1.7-1.9-2.6-2.7c-0.8-0.7-1.5-1.5-2.2-2.3
			c-0.7-0.8-0.4-1.7,0-2.6c0.7-1.5,1.9-2.8,2.8-4.2c0.3-0.4,0.5-0.8,0.7-1.3c0.4-0.9,0.2-1.8-0.5-2.6c-0.7-0.9-1.7-1.2-2.6-1.9
			c-1-0.7-2.1-1.1-3-1.9c-0.7-0.6-1.1-2-0.9-2.9c0.5-1.9,1.3-3.7,2-5.5c0.7-1.9-0.3-3-1.8-3.6c-0.6-0.2-1.2-0.4-1.8-0.7
			c-0.9-0.4-1.9-0.6-2.8-1c-0.5-0.2-0.9-0.5-1.3-0.8c-0.5-0.5-0.9-1-0.9-1.8c0-1.8,0.3-3.6,0.7-5.4c0.1-0.6,0.1-1.1,0-1.7
			c-0.1-1.1-0.9-1.7-1.8-2c-0.8-0.2-1.7-0.6-2.6-0.4c-0.5,0.1-1.1-0.1-1.7-0.1c-0.8,0-1.7-0.3-2.5-0.5c-0.9-0.2-1.4-1-1.7-1.9
			c-0.3-0.9-0.2-1.9-0.4-2.9c-0.2-1.1-0.2-2.2-0.3-3.2c-0.1-1.6-1.3-2.1-2.7-2.2c-1.4-0.1-2.7,0.2-4,0.7c-0.2,0.1-0.4,0.1-0.6,0.2
			c0.5-0.8,1.4-1.3,2.2-1.8c3.4-2.4,7-4.3,11.2-4.9c0.3,0.2,0.6,0.4,0.9,0.5c0.4,0.2,0.8,0.3,1,0.8c0.2,0.4,0.5,0.7,0.9,0.9
			c1.3,1,2.4,2.2,3.5,3.4c0.9,1,1.8,2,2.7,3c0.8,1,1.6,2.1,2.4,3.1c1.5,2,2.8,4,4.1,6.1c1.3,2.3,2.6,4.6,3.7,7
			c0.8,1.8,1.5,3.7,2.2,5.6c0.1,0.3,0.3,0.6,0.2,0.9c-0.1,0.2,0.3,0.3,0.4,0.6c0.6,2.1,1.3,4.2,1.7,6.3c0.1,0.7,0.4,1.3,0.5,2
			c0.1,0.9,0.5,1.9,0.4,2.8c-0.1,0.6,0.3,1.1,0.3,1.7c0,0.6,0.1,1.2,0.2,1.9c0.4,3.5,0.6,7,0.4,10.6c-0.2,2.9-0.4,5.7-0.9,8.5
			c-0.5,2.9-1.2,5.7-2,8.5c-1.1,3.6-2.4,7-4,10.4c-1.4,2.9-2.8,5.9-4.8,8.5C129.8,110.1,129.7,110.3,129.5,110.4z"/>
		<path class="st11" d="M118.2,18c-0.2-0.4-0.6-0.6-1-0.8c-0.3-0.2-0.6-0.3-0.9-0.5c-0.1-0.6-0.5-1-0.4-1.7c0-0.5,0.4-0.8,0.4-1.3
			c0.7-0.2,1.1-0.9,1.7-1.3c1.5-1,3.2-1.5,4.9-1.8c1.6-0.3,3.3-0.5,5-0.4c0.1,0.1,0.3,0.1,0.4,0c1.7,0.2,3.4,0.4,4.9,1.3
			c1.7,1,2,2.6,0.6,4c-1.3,1.3-3,2-4.7,2.5c-2.3,0.7-4.7,0.9-7.1,0.8c-1.1-0.1-2.2-0.4-3.3-0.7C118.6,18.1,118.4,18.1,118.2,18z"/>
		<path class="st11" d="M23.5,13.8c-0.1,0.2,0.1,0.4,0.1,0.5c0.4,0.7,0.4,1.4-0.1,2.1c-0.1,0.1-0.1,0.2-0.1,0.3
			c-0.2,0.1-0.4,0.2-0.6,0.3c-1.4,1.3-3.1,1.6-4.9,1.8c-3,0.3-5.9-0.1-8.7-1.2c-1.3-0.5-2.5-1.2-3.4-2.3c-1.1-1.4-1-2.6,0.7-3.7
			c2.1-1.3,4.4-1.4,6.7-1.4c0.1,0,0.2,0,0.3,0c0.1,0.1,0.2,0.1,0.3,0C17.5,10.5,20.9,11.3,23.5,13.8z"/>
		<path class="st76" d="M116.4,13.8c0.1,0.5-0.3,0.8-0.4,1.3c-0.1,0.6,0.3,1.1,0.4,1.7c-4.2,0.6-7.8,2.5-11.2,4.9
			c-0.8,0.5-1.6,1-2.2,1.8c-0.6,0.1-1.1,0.6-1.6,1c-1.1,1.1-2.2,2.2-3.3,3.3c-0.4,0.4-0.8,0.8-1.4,1c-0.6,0.2-1-0.1-1.3-0.5
			c-0.3-0.4-0.5-0.9-0.1-1.4c1-1.4,2.1-2.7,3.4-3.8c0.2-0.2,0.4-0.4,0.5-0.7c0.3-0.1,0.6-0.3,0.9-0.5c2-1.7,4.2-3.3,6.6-4.6
			c1.9-1.1,3.9-2.2,6.1-2.6c0.2,0,0.4-0.2,0.6-0.2C114.4,14.2,115.3,13.9,116.4,13.8z"/>
		<path class="st74" d="M121,120.7c-0.4-1.3-0.5-2.6-0.3-3.9c0.1-0.8,0.7-1.4,1.4-1.8c1.7-0.8,3.5-1.3,5.3-1.8c0.1,0,0.2,0,0.2,0
			c-0.2,0.8-0.9,1.4-1.4,2.1c-1.4,1.7-2.8,3.5-4.4,5C121.5,120.5,121.3,120.7,121,120.7z"/>
		<path class="st74" d="M27.9,127.1c1.5-0.5,4.4,0.5,4.2,2.9c-0.9-0.4-1.7-1-2.5-1.6C29,128,28.3,127.7,27.9,127.1z"/>
		<path class="st74" d="M111.2,128.9c0.4-1.4,1.2-1.9,2.7-1.8C113.1,127.8,112.3,128.6,111.2,128.9z"/>
		<path class="st74" d="M128.4,10.2c-0.1,0.1-0.3,0.1-0.4,0C128.1,10.1,128.3,10.1,128.4,10.2z"/>
		<path class="st74" d="M14,10.2c-0.1,0.1-0.2,0.1-0.3,0C13.8,10.1,13.9,10.1,14,10.2z"/>
		<path class="st55" d="M23.2,126.2c0.1,0,0.3,0,0.3,0.1C23.4,126.3,23.3,126.3,23.2,126.2z"/>
		<path class="st55" d="M24.3,126.5c0.1,0,0.2,0,0.3,0.1C24.5,126.6,24.4,126.6,24.3,126.5z"/>
		<path class="st3" d="M43.6,52c-0.2-2,0.1-4.3,0.7-6.4c0.8-3,2-5.9,3.7-8.5c3.7-5.5,8.6-9.4,15-11.5c1.8-0.6,3.7-0.9,5.6-1.1
			c2-0.2,4-0.2,5.9,0c2.8,0.3,5.4,0.9,7.9,2c3.7,1.6,7,3.7,9.7,6.7c3.8,4.1,6.2,8.9,7.1,14.5c0.1,0.5,0.1,1,0.2,1.5
			c0.1,1.2,0.2,2.4,0.1,3.7c-0.1,4.6-1.2,8.9-3.4,12.9c-1.5,2.8-3.5,5.3-5.9,7.4c-3.8,3.4-8.3,5.6-13.3,6.6c-2.5,0.5-5,0.5-7.6,0.4
			c-3.2-0.2-6.2-1-9-2.2c-2.6-1.1-4.9-2.7-7-4.5c-2.9-2.5-5.2-5.5-6.9-8.9C44.4,60.5,43.4,56.5,43.6,52z M71.4,37.2
			c-8.8-0.1-16.8,7.3-16.4,17.3c0.2,4.2,1.8,7.9,4.9,10.9c3.6,3.5,7.9,5.3,13,4.8c7.7-0.7,15-6.8,15.1-16.5
			C88,44.1,80.4,37.3,71.4,37.2z"/>
		<path class="st11" d="M29.2,89.7c-0.5-1.5-0.7-3-1.1-4.6c-0.2-1.1-0.4-2.3-0.5-3.4c0-1.2,0-2.4-0.1-3.5c-0.1-0.5,0.1-1,0.2-1.5
			c0.5-1.5,2.6-2,3.7-0.9c1.1,1,2,2.3,3,3.3c1.3,1.2,2.6,2.3,4.1,3.3c0.9,0.7,2.1,1,3.2,1.5c1.7,0.7,3.6,1,5.4,1.5
			c0.3,0.1,0.6,0,0.8,0.2c0.2,1.8,0.1,3.5,0.2,5.3c0,0,0,0.1,0,0.1c0,0.1,0,0.3,0,0.4c0,0,0,0.1,0,0.1c0.4,1.5,1.4,2.4,2.8,2.8
			c1.4,0.4,2.7,0.7,4.1,1.1c2.1,0.6,4.5-1.1,4.6-3.3c0-1.5,0-2.9,0-4.4c0-0.3-0.1-0.7,0.1-1c2.5-0.1,5.1,0,7.6,0c0,0,0.1,0,0.1,0
			l0.1,0c0.1,0,0.2,0,0.3,0c0.1,0,0.2,0,0.2,0c0.9,0,1.9,0,2.8,0c0.2,0,0.4,0,0.6,0c0,1.4,0.2,2.8,0.1,4.3c0,0.4,0,0.9,0.1,1.3
			c0.2,1.5,1.6,2.8,3,2.7c1.5,0,2.8-1.2,3-2.7c0.2-1.9,0.1-3.8,0.1-5.6c2.2,0.1,4.4-0.3,6.7-0.1c0.2,0.3,0.1,0.6,0.1,1
			c0.1,1.7,1,3,2.5,3.1c1.6,0.2,3.3,0.1,4.9,0c0.4,0,0.9-0.1,1.2-0.4c0.5-0.6,0.9-1.2,1.1-2c0.2-0.9,0-1.8,0.2-2.6
			c0.3-0.4,0.8-0.2,1.2-0.3c2.3-0.5,4.6-0.9,6.7-2c1.6-0.9,3.2-1.9,4.6-3.1c1.2-1,2.3-2.1,3.2-3.3c0.2,0,0.3-0.1,0.3-0.3
			c0.1-0.1,0.2-0.3,0.3-0.4c0,0,0.1-0.1,0.1-0.1c0.5-1,1.9-1.3,2.9-1.1c1.1,0.3,1.6,1.1,1.7,2.2c0.1,1.3-0.2,2.5,0.1,3.8
			c0.1,0.5-0.2,0.9-0.2,1.4c-0.1,1.3-0.4,2.6-0.6,4c-0.2,1-0.4,2-0.6,3c-0.1,0.6-0.4,1.1-0.6,1.7c-1.2,3.5-2.7,6.8-4.6,9.9
			c-0.8,1.3-1.6,2.5-2.6,3.6c-0.5,0.5-0.8,1.1-1.2,1.6c-0.1,0-0.1,0.1-0.2,0.1c-1.3-0.5-2.5-1.1-3.8-1.6c-1.4-0.6-2.7-1.2-4.1-1.6
			c-1.5-0.4-3-0.9-4.5-1.3c-3-0.6-5.9-1.4-8.9-1.7c-2.9-0.3-5.8-0.5-8.7-0.7c-4.2-0.3-8.4,0-12.5,0.3c-2.9,0.2-5.7,0.5-8.5,1.2
			c-1.6,0.4-3.3,0.7-4.9,1.1c-1.1,0.3-2.1,0.6-3.1,0.9c-1.2,0.4-2.5,0.8-3.7,1.4c-1.4,0.6-2.8,1.1-4.2,1.7c-1.9-2.3-3.6-4.6-5-7.2
			c-1.1-2-1.9-4.1-2.8-6.2C29.7,91.8,29.5,90.7,29.2,89.7z"/>
		<path class="st27" d="M37.9,106.2c1.4-0.6,2.8-1.1,4.2-1.7c1.2-0.5,2.4-0.9,3.7-1.4c1-0.3,2.1-0.7,3.1-0.9
			c1.6-0.4,3.3-0.7,4.9-1.1c2.8-0.7,5.7-0.9,8.5-1.2c4.2-0.4,8.3-0.6,12.5-0.3c2.9,0.2,5.8,0.4,8.7,0.7c3,0.3,6,1.1,8.9,1.7
			c1.5,0.3,3,0.8,4.5,1.3c1.4,0.4,2.8,1.1,4.1,1.6c1.3,0.5,2.5,1.1,3.8,1.6c0,0,0,0.1,0,0.1c-0.1,0.1-0.2,0.2-0.3,0.4
			c-0.1,0.1-0.2,0.1-0.2,0.3c-1.3,1.4-2.7,2.7-4,4c-0.2,0.2-0.3,0.4-0.5,0.5c-0.1,0.1-0.3,0.2-0.4,0.4c0,0-0.1,0-0.1,0
			c-0.1,0-0.1,0.1-0.2,0.1c0,0-0.1,0.1-0.1,0.1c0,0-0.1,0.1-0.1,0.1c-1,0.7-2.1,1.5-3.1,2.1c-1.1,0.7-2.1,1.4-3.2,2
			c-1.5,0.9-3.1,1.5-4.7,2.3c-0.1-1.2,0.1-2.3-0.2-3.5c-0.3-1.3-0.9-2.3-2.1-2.9c-1.7-0.8-3.4-1.3-5.3-1.6c-1.3-0.2-2.4,0.3-3.3,1.2
			c-0.8,0.8-0.9,1.9-0.9,3c-0.1,2,0,3.9-0.1,5.9c0,0.7-0.3,0.9-1,0.9c-0.8,0-1.5,0.1-2.3,0.1c0-0.9,0-1.7,0-2.6
			c0-2.1-1.2-3.4-3.3-3.4c-1.1,0-2.3,0-3.4,0c-1.6,0-2.6,0.8-3,2.4c-0.2,0.9-0.1,1.8-0.1,2.7c-1.1,0.1-2.2,0-3-0.8
			c0-2.3,0.1-4.7-0.1-7c-0.1-1-0.4-1.9-1.1-2.5c-0.8-0.7-1.9-1-2.9-0.6c-1.2,0.4-2,1.4-2.1,2.7c-0.1,1.8,0,3.6,0,5.4
			c-0.3,0.2-0.5,0.1-0.8-0.1c-2-1.2-4.1-2.3-6-3.6c-2.2-1.4-4.1-3.1-5.9-4.9C39.9,108.6,38.8,107.5,37.9,106.2z"/>
		<path class="st74" d="M76.1,121.1c0.1-2,0-3.9,0.1-5.9c0-1,0.1-2.1,0.9-3c0.9-0.9,2-1.4,3.3-1.2c1.8,0.2,3.6,0.8,5.3,1.6
			c1.2,0.6,1.7,1.6,2.1,2.9c0.3,1.2,0.1,2.3,0.2,3.5c-2,0.4-3.8,1.1-5.7,1.7c-0.2,0-0.3-0.1-0.5,0.1c0,0,0,0,0,0
			c-0.4,0-0.8,0.1-1.2,0.2l-0.1,0c0,0-0.1,0-0.1,0c-0.8,0-1.6,0.2-2.4,0.5c-0.4,0-0.7,0-1.1,0.1C76.5,121.8,76.1,121.7,76.1,121.1z"
			/>
		<path class="st74" d="M48.1,90.8c-0.1-1.8,0-3.5-0.2-5.3c0.7,0.1,1.4,0.2,2.1,0.3c1.8,0.3,3.6,0.7,5.5,0.7c1.4,0,2.9,0.1,4.3,0.2
			c-0.2,0.3-0.1,0.7-0.1,1c0,1.5,0,2.9,0,4.4c-0.1,2.2-2.4,3.9-4.6,3.3c-1.4-0.4-2.7-0.7-4.1-1.1c-1.5-0.4-2.5-1.3-2.8-2.8
			c0,0,0-0.1,0-0.1C48.1,91.2,48.1,91.1,48.1,90.8C48.1,90.9,48.1,90.9,48.1,90.8z"/>
		<path class="st74" d="M53.8,118.1c0-1.8-0.1-3.6,0-5.4c0.1-1.3,0.8-2.2,2.1-2.7c1.1-0.4,2.1-0.1,2.9,0.6c0.7,0.6,1,1.5,1.1,2.5
			c0.2,2.4,0.1,4.7,0.1,7c-0.3,0.1-0.6-0.1-0.9-0.2c-0.7-0.2-1.5-0.4-2.2-0.6C55.8,119.1,54.8,118.6,53.8,118.1z"/>
		<path class="st74" d="M63,121.1c0-0.9-0.1-1.8,0.1-2.7c0.4-1.6,1.4-2.4,3-2.4c1.1,0,2.3,0,3.4,0c2.1,0,3.3,1.3,3.3,3.4
			c0,0.9,0,1.7,0,2.6c-2.8,0-5.6-0.2-8.3-0.7C64,121.2,63.5,121.3,63,121.1z"/>
		<path class="st74" d="M77.7,86.8c0,1.9,0.1,3.8-0.1,5.6c-0.2,1.5-1.5,2.7-3,2.7c-1.5,0-2.9-1.2-3-2.7c-0.1-0.4-0.1-0.9-0.1-1.3
			c0.1-1.4-0.2-2.9-0.1-4.3c0,0,0.1-0.1,0.1-0.1c0.2,0.1,0.5,0.1,0.8,0.1C74.1,86.8,75.9,86.8,77.7,86.8z"/>
		<path class="st74" d="M94.4,85.7c-0.1,0.9,0,1.8-0.2,2.6c-0.2,0.8-0.6,1.4-1.1,2c-0.3,0.4-0.8,0.4-1.2,0.4c-1.6,0.1-3.3,0.1-4.9,0
			c-1.5-0.1-2.4-1.4-2.5-3.1c0-0.3,0.1-0.7-0.1-1c0.8,0,1.5-0.2,2.3-0.1c2.3,0.1,4.6-0.4,6.9-0.8C93.9,85.7,94.1,85.6,94.4,85.7z"/>
		<path class="st76" d="M78.1,121.5c0.8-0.3,1.6-0.4,2.4-0.5c-0.5,0.4-1.1,0.5-1.7,0.5C78.5,121.5,78.3,121.5,78.1,121.5z"/>
		<path class="st76" d="M80.6,121c0.4-0.1,0.8-0.3,1.2-0.2C81.4,121.1,81,121.1,80.6,121z"/>
		<path class="st76" d="M71.5,86.6c0,0-0.1,0.1-0.1,0.1c-0.2,0-0.4,0-0.6,0C71,86.5,71.3,86.6,71.5,86.6z"/>
		<path class="st76" d="M99.5,112.2c0.1-0.1,0.3-0.2,0.4-0.4C99.9,112.1,99.8,112.2,99.5,112.2z"/>
		<path class="st76" d="M110.6,76.8c0,0.2-0.2,0.2-0.3,0.3C110.2,76.8,110.4,76.8,110.6,76.8z"/>
		<path class="st76" d="M105,106.7c0,0,0-0.1,0-0.1c0.1,0,0.1-0.1,0.2-0.1C105.2,106.5,105.1,106.6,105,106.7z"/>
		<path class="st76" d="M81.8,120.8c0.1-0.2,0.3-0.1,0.5-0.1C82.2,120.9,82,120.8,81.8,120.8z"/>
		<path class="st76" d="M104.5,107.3c0-0.1,0.1-0.2,0.2-0.3C104.7,107.2,104.6,107.3,104.5,107.3z"/>
		<path class="st76" d="M67.9,86.7c-0.1,0-0.2,0-0.2,0C67.8,86.6,67.8,86.6,67.9,86.7z"/>
		<path class="st76" d="M110.9,76.3c0,0-0.1,0.1-0.1,0.1C110.9,76.4,110.9,76.3,110.9,76.3z"/>
		<path class="st76" d="M67.4,86.7L67.4,86.7c-0.1,0-0.1,0-0.1,0C67.4,86.7,67.4,86.7,67.4,86.7z"/>
		<path class="st76" d="M99.3,112.3c0.1,0,0.1-0.1,0.2-0.1C99.4,112.2,99.3,112.3,99.3,112.3z"/>
		<path class="st76" d="M99,112.6c0,0,0.1-0.1,0.1-0.1C99.1,112.5,99.1,112.5,99,112.6z"/>
		<path class="st55" d="M78.4,10.6c0,0,0.1-0.1,0.1-0.1C78.5,10.5,78.4,10.6,78.4,10.6z"/>
		<path class="st74" d="M71.4,37.2C80.4,37.3,88,44.1,88,53.7c-0.1,9.7-7.4,15.8-15.1,16.5c-5,0.5-9.3-1.4-13-4.8
			c-3.1-3-4.7-6.7-4.9-10.9C54.6,44.6,62.7,37.1,71.4,37.2z M76.1,42.5C76,42.1,75.6,42,75.3,42c-0.7-0.2-1.4-0.3-2.2-0.4
			c-3.3-0.5-6.4,0.3-9.1,2.2c-4.6,3.3-6.3,9.1-4.3,14.3c1.9,5,6.8,8.1,11.9,8c2.2-0.1,4.3-0.7,6.2-1.9c2.1-1.4,3.8-3.1,4.8-5.5
			c0.7-1.7,1-3.5,1-5.3c0-2.1-0.8-3.9-1.4-5.8c0-0.2-0.1-0.3-0.3-0.2c0-0.2,0.1-0.3,0.2-0.4c1-2.1-0.2-4.6-2.5-5.2
			C78.3,41.2,77.1,41.6,76.1,42.5z"/>
		<path class="st76" d="M48.1,90.8C48.1,90.9,48.1,90.9,48.1,90.8C48,90.9,48,90.9,48.1,90.8z"/>
		<path class="st76" d="M48.1,91.3C48.1,91.3,48.1,91.4,48.1,91.3C48.1,91.4,48.1,91.3,48.1,91.3z"/>
		<path class="st11" d="M81.9,47.2c0.2,0,0.3,0.1,0.3,0.2c0.6,1.9,1.3,3.8,1.4,5.8c0,1.9-0.3,3.6-1,5.3c-0.9,2.4-2.7,4.2-4.8,5.5
			c-1.9,1.2-3.9,1.9-6.2,1.9c-5.1,0.1-10-2.9-11.9-8c-2-5.3-0.3-11,4.3-14.3c2.7-2,5.8-2.7,9.1-2.2c0.7,0.1,1.4,0.3,2.2,0.4
			c0.3,0.1,0.6,0.2,0.7,0.5c-0.9,1-1.4,2-1.1,3.4c0.4,1.6,1.3,2.7,2.9,3C79.5,49.3,80.9,48.7,81.9,47.2z M66.7,53.8
			c-0.1,2.5,2.4,4.6,4.7,4.5c2.7-0.1,4.6-2.3,4.6-4.7c0-2.6-2.3-4.6-4.7-4.6C68.9,49.1,66.5,51.2,66.7,53.8z"/>
		<path class="st3" d="M81.9,47.2c-1,1.5-2.4,2-4.1,1.7c-1.6-0.3-2.6-1.4-2.9-3c-0.3-1.4,0.3-2.4,1.1-3.4c1.1-0.9,2.3-1.2,3.6-0.9
			c2.2,0.6,3.4,3.1,2.5,5.2C82.1,46.9,81.9,47.1,81.9,47.2z"/>
		<path class="st3" d="M66.7,53.8c-0.1-2.6,2.2-4.7,4.6-4.8c2.4,0,4.7,2,4.7,4.6c0,2.4-1.9,4.6-4.6,4.7
			C69.1,58.4,66.6,56.3,66.7,53.8z"/>
	</g>
</g>
</svg>
