<?xml version="1.0" encoding="utf-8"?>
<!-- Generator: Adobe Illustrator 27.3.1, SVG Export Plug-In . SVG Version: 6.00 Build 0)  -->
<svg version="1.1" id="Ebene_1" xmlns="http://www.w3.org/2000/svg" xmlns:xlink="http://www.w3.org/1999/xlink" x="0px" y="0px"
	 viewBox="0 0 141.7 141.7" style="enable-background:new 0 0 141.7 141.7;" xml:space="preserve">
<style type="text/css">
	.st0{fill:#F6BB37;}
	.st1{fill:#3684C6;}
	.st2{fill:#DCA12A;}
	.st3{fill:#FCFCFE;}
	.st4{fill:#E97E2F;}
	.st5{fill:#28273D;}
	.st6{fill:#7F65AA;}
	.st7{fill:#B49ECB;}
	.st8{fill:#66529D;}
	.st9{fill:#33314C;}
	.st10{fill:#35ACC6;}
	.st11{fill:#27263D;}
	.st12{fill:#DB191D;}
	.st13{fill:#42BEE1;}
	.st14{fill:#EE715E;}
	.st15{fill:#396CB3;}
	.st16{fill:#EA5B4C;}
	.st17{fill:#F2C551;}
	.st18{fill:#27273D;}
	.st19{fill:#B0CF6D;}
	.st20{fill:#28263D;}
	.st21{fill:#9E4A30;}
	.st22{fill:#DB1E1D;}
	.st23{fill:#FBFBFD;}
	.st24{fill:#A3C163;}
	.st25{fill:#3F426D;}
	.st26{fill:#33304C;}
	.st27{fill:#DB181D;}
	.st28{fill:#83C4ED;}
	.st29{fill:#B6622B;}
	.st30{fill:#AB795E;}
	.st31{fill:#88C7EE;}
	.st32{fill:#9BB7CC;}
	.st33{fill:#E97F31;}
	.st34{fill:#CD6F2C;}
	.st35{fill:#A8A4A6;}
	.st36{fill:#84C4EC;}
	.st37{fill:#FEFEFE;}
	.st38{fill:#D91F1D;}
	.st39{fill:#F29454;}
	.st40{fill:#3C86C6;}
	.st41{fill:#F8FAFD;}
	.st42{fill:#AD8ABF;}
	.st43{fill:#67529E;}
	.st44{fill:#F6D373;}
	.st45{fill:#29273D;}
	.st46{fill:#EE715D;}
	.st47{fill:#F9C6BD;}
	.st48{fill:#A65E3A;}
	.st49{fill:#F18B88;}
	.st50{fill:#82C2EC;}
	.st51{fill:#E28080;}
	.st52{fill:#D57474;}
	.st53{fill:#4F5173;}
	.st54{fill:#3785C6;}
	.st55{fill:#E84680;}
	.st56{fill:#28273E;}
	.st57{fill:#E13072;}
	.st58{fill:#F5BA37;}
	.st59{fill:#F3C651;}
	.st60{fill:#DB5144;}
	.st61{fill:#A17FB8;}
	.st62{fill:#AC8ABE;}
	.st63{fill:#342E4F;}
	.st64{fill:#2DAC64;}
	.st65{fill:#5CB993;}
	.st66{fill:#9DBA5C;}
	.st67{fill:#5AB992;}
	.st68{fill:#66529E;}
	.st69{fill:#EA5A4C;}
	.st70{fill:#12994E;}
	.st71{fill:#DE5044;}
	.st72{fill:#EE715F;}
	.st73{fill:#E97F2F;}
	.st74{fill:#A89AC9;}
	.st75{fill:#38B3CD;}
	.st76{fill:#DD3D78;}
	.st77{fill:#F5D373;}
	.st78{fill:#FDEAB4;}
	.st79{fill:#7F66AA;}
	.st80{fill:#3885C6;}
	.st81{fill:#40436D;}
	.st82{fill:#A99ACA;}
	.st83{fill:#34314B;}
	.st84{fill:#F4D273;}
	.st85{fill:#83C5ED;}
	.st86{fill:#D29C2C;}
	.st87{fill:#87C7EE;}
	.st88{fill:#F6BB38;}
	.st89{fill:#F6BB3A;}
	.st90{fill:#E83D69;}
	.st91{fill:#F4BC3F;}
	.st92{fill:#85C5EB;}
	.st93{fill:#DA1E1D;}
	.st94{fill:#DDA736;}
	.st95{fill:#F18D88;}
	.st96{fill:#FFFEFE;}
	.st97{fill:#F9C8BC;}
	.st98{fill:#3B85C6;}
</style>
<g id="vQDIKL.tif">
	<g>
		<path class="st19" d="M109.4,131.4c-1.5,0.8-3.2,1.2-4.9,1.5c-2-0.1-3.9-0.2-5.9-0.3c-0.2-0.7-0.8-0.7-1.3-0.8
			c-7.7-0.6-15.2-2.2-22.4-4.9c-15.1-5.7-26.6-15.3-33-30.6c-3.2-7.7-4.6-15.7-4.7-23.8c0-3.9,0.1-7.9,0.7-11.9
			c1.5-9.6,5.2-18.1,11.8-25.3c4-4.4,8.7-7.9,14.2-10.3c4.2-1.8,8.3-3.8,13-3.8c4.7,0,8.8,1.9,13,3.6c6.5,2.7,11.9,7.1,16.5,12.2
			c0,0.5-0.3,0.9-0.6,1.3c-4,4.3-3.4,10.7,0.5,14.6c2.8,2.8,6,2.8,9.5,2.7c0,2.5,1.3,4.8,1,7.4c0,2.4,0,4.9,0,7.3
			c-0.1,0.8,0,1.6-0.2,2.4c-0.9,3.8-1.9,7.5-3.4,11.2c-1.6,4.1-3.5,8-6.2,11.2c-4.8,5.6-7.8,11.7-7.5,19.3c0.1,2.1,1.2,3.8,1.6,5.7
			C102.3,125,105.2,128.7,109.4,131.4z M101.5,68.2C102,49,86.7,37.5,72.6,36.9c-20.3-0.8-32.9,14.8-33.1,30.8
			c-0.2,15.2,12.2,33.1,35.2,31C87.8,97.6,102,85.5,101.5,68.2z M94.9,94.9c-2.9,0-5.6,2.5-5.7,5.3c-0.1,2.8,2.8,6,5.4,6
			c2.8,0,5.9-3,5.8-5.6C100.4,97.9,97.5,95,94.9,94.9z M66.8,113.1c3.2,0,5.6-2.2,5.7-5.1c0-3.1-2.5-5.7-5.4-5.7
			c-3,0-5.4,2.4-5.4,5.4C61.6,111.2,63.5,113.1,66.8,113.1z M77.4,115.9c0,2.5,1.6,4.1,4.1,4.1c2.1,0,4.2-2.1,4.2-4.2
			c0-2.1-2.3-4.3-4.3-4.2C79,111.7,77.4,113.5,77.4,115.9z M91.8,115.6c1.8,0.1,2.8-0.6,2.9-2.5c0-1.7-1.1-2.7-2.5-2.7
			c-1.6,0-2.9,0.9-2.8,2.7C89.3,114.6,90,115.7,91.8,115.6z M81.3,107.7c1.8,0,2.7-1.2,2.8-2.6c0.1-1.4-0.7-2.8-2.5-2.8
			c-1.7,0-2.6,1.1-2.8,2.8C78.7,107,79.9,107.5,81.3,107.7z M91.1,121.5c-1.9,0-2.8,0.6-2.9,2.2c-0.1,1.8,0.9,2.9,2.5,3
			c1.6,0.1,2.9-0.9,2.8-2.7C93.5,122.4,92.4,121.6,91.1,121.5z"/>
		<path class="st20" d="M98.6,132.6c2,0.1,3.9,0.2,5.9,0.3c-5.7,3.7-12.1,5.8-18.6,7.3c-6.3,1.4-12.8,1.8-19.3,1.5
			c-7.9-0.3-15.5-2.3-22.7-5.3c-7.7-3.2-14.7-7.5-20.8-13.3c-6.2-5.9-11.7-12.4-15.5-20.2c-3.5-7.2-6.1-14.7-7.1-22.8
			c-0.6-5.5-0.6-10.9-0.3-16.3C0.6,57,2.5,50.6,5,44.3c1.6-4.2,3.9-8,6-11.9c0.4,0.1,0.7,0.3,0.8,0.8c0.9,3.3,2,6.5,3.6,9.6
			c2.5,5,4.6,10.4,10.3,12.8c-0.5,3-1.4,6-1.5,9.1c-0.2,7.4-0.3,14.8,1.4,22.1c0.9,4,2.1,8,3.6,11.7c1.8,4.2,4.6,8,7.6,11.7
			c5.6,6.9,12.7,11.7,20.7,15.5c6.4,3,13.3,4.6,20.2,5.8C84.6,132.4,91.6,133.1,98.6,132.6z"/>
		<path class="st20" d="M19.8,21.7c5.9-5.9,12.4-10.9,20-14.5C46.3,4.1,53,1.8,60.2,1C64,0.5,67.8-0.1,71.5,0
			c15.9,0.7,30.5,5.2,43.1,15.3c2.6,2.1,5.1,4.2,7.5,6.4c-1.4,2.6-2.9,5.1-5.4,6.9c-2.1-0.3-4,0.4-5.9,1c-2.2,0.6-3.3-0.2-3.9-2.2
			c-1-3.7-2.2-7.4-3.3-11.1c-0.5-1.5-0.9-1.6-2.2-1.2c-2.8,1-5.7,1.9-8.4,3c-1.5,0.6-2.4,0.3-3.6-0.9c-4.2-4.1-8.3-8.3-12.3-12.8
			c-1.9,3.3-3.7,6.4-5.5,9.5c-1.2,2.2-2.9,4.1-3.5,6.6c-2.5,0.1-5.2,0.1-7.5,0.8c-8.1,2.4-16.1,5.2-22.1,11.8
			c-1,1.1-1.9,2.5-3.6,2.9c-0.8-0.1-1.7,0-2.4-0.5C27.7,31.5,22.8,27.5,19.8,21.7z"/>
		<path class="st20" d="M130.5,32.9c5,7.5,8.1,15.7,9.9,24.5c0.9,4.1,1.3,8.3,1.3,12.4c0,9-1.4,17.8-4.7,26.3
			c-2.1,5.6-5.2,10.6-8.5,15.5c-3.2,4.7-7.3,8.7-11.4,12.7c-0.5,0.5-1.1,0.6-1.8,0.6c-0.3-1.2,1.3-1.7,1.1-2.8
			c-3.5-1.5-7.5-1.8-11-3.7c3.4-2.3,6.6-4.6,9.8-6.9c-2.6-3-6.1-4.5-8.3-7.5c0.3-0.4,0.6-0.6,1-0.7c3.8-1.1,7.5-2.3,11.2-3.5
			c1.3-0.4,2.2-0.9,1.4-2.6c-1.2-2.4-1.9-5-3-7.4c-0.6-1.5-0.2-2.3,1-3.2c2.3-1.7,4.4-3.5,6.6-5.3c0.7-0.5,1-1,0.6-2
			c-1.6-4.1-3-8.4-4.7-12.5c-0.6-1.6-0.6-2.7,0.4-4c0.9-1.1,1.8-2.4,1.4-4c-0.6-2.3-0.8-4.6-1.1-6.9
			C125.3,45.6,128.6,39.6,130.5,32.9z"/>
		<path class="st21" d="M130.5,32.9c-1.9,6.7-5.2,12.7-8.5,18.8c-1.9,1.5-3.9,3-6.3,3.9c-3.4,0-6.6,0-9.5-2.7
			c-3.9-3.9-4.5-10.3-0.5-14.6c0.4-0.4,0.6-0.7,0.6-1.3c1.2-0.7,2.4-1.3,3.5-2.1c2.5-1.8,4.9-3.8,6.7-6.3c2.5-1.7,4-4.3,5.4-6.9
			c3.7-4.4,5.3-9.7,6.4-15.2c0.2-1.2,0.7-2.1,2-2c1.3,0.1,1.3,1.2,1.6,2.2c0.9,3.3,0.4,6.5,0.4,9.8c0.1,4.1-0.3,8.1-1.1,12
			C131.2,30,131.2,31.5,130.5,32.9z"/>
		<path class="st21" d="M19.8,21.7c3.1,5.7,7.9,9.8,12.9,13.7c0.7,0.5,1.5,0.5,2.4,0.5c-0.1,1,0.6,1.6,1.2,2.3
			c3.8,4.2,3.5,11.1-0.8,14.8c-2.7,2.4-6,3.3-9.6,2.4C20,53.1,18,47.7,15.5,42.7c-1.5-3-2.7-6.2-3.6-9.6c-0.1-0.5-0.4-0.6-0.8-0.8
			c0.1-4.5-2.4-8.7-1.3-13.3c0.2-0.9-1.2-2.2-0.8-3.4c1-2.6-0.1-5.4,1.2-7.9c0.2-0.3,0.2-0.6,0-0.9C9.6,5.8,10,4.8,11.2,4.5
			c1.2-0.3,2,0.5,2.2,1.7c0.7,3.2,1.6,6.3,2.9,9.3C17.3,17.7,18.1,19.9,19.8,21.7z"/>
		<path class="st22" d="M115.8,55.6c2.4-0.8,4.3-2.4,6.3-3.9c0.3,2.3,0.5,4.6,1.1,6.9c0.4,1.6-0.5,2.9-1.4,4c-1,1.3-1,2.5-0.4,4
			c1.7,4.1,3,8.4,4.7,12.5c0.4,1,0.1,1.4-0.6,2c-2.2,1.8-4.4,3.6-6.6,5.3c-1.2,0.9-1.6,1.8-1,3.2c1.1,2.4,1.8,5,3,7.4
			c0.9,1.8,0,2.2-1.4,2.6c-3.7,1.2-7.5,2.4-11.2,3.5c-0.4,0.1-0.8,0.3-1,0.7c2.2,3,5.7,4.6,8.3,7.5c-3.3,2.3-6.5,4.5-9.8,6.9
			c3.5,1.9,7.5,2.3,11,3.7c0.1,1.1-1.4,1.6-1.1,2.8c-1.7,2.5-3.7,4.6-6,6.4c-4.2-2.7-7.1-6.4-8.3-11.3c-0.5-1.9-1.5-3.6-1.6-5.7
			c-0.4-7.6,2.7-13.7,7.5-19.3c2.8-3.3,4.6-7.1,6.2-11.2c1.4-3.7,2.5-7.4,3.4-11.2c0.2-0.8,0.1-1.6,0.2-2.4c0.7-2.4,0.6-4.9,0-7.3
			C117.1,60.5,115.8,58.1,115.8,55.6z"/>
		<path class="st23" d="M101.5,68.2c0.5,17.3-13.7,29.3-26.8,30.5c-23,2.1-35.3-15.8-35.2-31c0.2-16,12.8-31.6,33.1-30.8
			C86.7,37.5,102,49,101.5,68.2z M75.6,56.7c-9.1-2.8-14.9,1.5-17.5,6.7c-3.1,6.2-1.4,13.3,4.3,17.5c5.7,4.2,12,3.9,17.9-1.2
			c4.4-3.8,5.9-11.5,2.3-17c-2,1.3-4,3-6.5,0.8C73.7,61.4,74.2,59.1,75.6,56.7z"/>
		<path class="st24" d="M25.8,55.5c3.6,0.8,6.9,0,9.6-2.4c4.3-3.7,4.6-10.6,0.8-14.8C35.6,37.6,34.9,37,35,36
			c1.7-0.3,2.6-1.8,3.6-2.9c6-6.6,14-9.4,22.1-11.8c2.3-0.7,5-0.7,7.5-0.8c0.9,0,1.8,0,2.7,0.1c2,0.3,4.1-0.6,6.1,0.5
			c-4.7,0.1-8.9,2-13,3.8c-5.5,2.4-10.1,5.9-14.2,10.3c-6.6,7.2-10.3,15.7-11.8,25.3c-0.6,4-0.7,8-0.7,11.9c0,8.1,1.5,16.2,4.7,23.8
			c6.4,15.2,17.8,24.9,33,30.6c7.2,2.7,14.7,4.3,22.4,4.9c0.6,0,1.2,0.1,1.3,0.8c-7,0.5-13.9-0.2-20.8-1.4
			c-6.9-1.2-13.8-2.8-20.2-5.8c-8-3.7-15.1-8.6-20.7-15.5c-3-3.6-5.7-7.4-7.6-11.7c-1.6-3.7-2.7-7.7-3.6-11.7
			c-1.7-7.3-1.6-14.7-1.4-22.1C24.4,61.5,25.2,58.5,25.8,55.5z"/>
		<path class="st22" d="M76.9,21.1c-2-1.1-4.1-0.2-6.1-0.5c-0.9-0.1-1.8-0.1-2.7-0.1c0.6-2.5,2.3-4.5,3.5-6.6
			c1.8-3.1,3.6-6.2,5.5-9.5c4.1,4.5,8.1,8.7,12.3,12.8c1.2,1.1,2.1,1.5,3.6,0.9c2.8-1.1,5.6-2,8.4-3c1.2-0.5,1.7-0.4,2.2,1.2
			c1.1,3.7,2.3,7.4,3.3,11.1c0.5,2.1,1.7,2.9,3.9,2.2c1.9-0.5,3.8-1.3,5.9-1c-1.8,2.5-4.3,4.4-6.7,6.3c-1.1,0.8-2.3,1.4-3.5,2.1
			c-4.7-5.2-10-9.6-16.5-12.2C85.8,23.1,81.6,21.2,76.9,21.1z"/>
		<path class="st24" d="M94.9,94.9c2.6,0,5.5,3,5.6,5.6c0,2.7-3.1,5.6-5.8,5.6c-2.6,0-5.5-3.1-5.4-6C89.3,97.4,92,94.9,94.9,94.9z"
			/>
		<path class="st24" d="M66.8,113.1c-3.3,0-5.2-1.9-5.2-5.4c0-3,2.4-5.4,5.4-5.4c2.9,0,5.5,2.7,5.4,5.7
			C72.4,111,70,113.1,66.8,113.1z"/>
		<path class="st24" d="M77.4,115.9c0-2.4,1.6-4.2,4.1-4.2c2.1-0.1,4.3,2.1,4.3,4.2c0,2-2.2,4.2-4.2,4.2
			C79,120,77.4,118.4,77.4,115.9z"/>
		<path class="st24" d="M91.8,115.6c-1.8,0.2-2.5-1-2.5-2.5c0-1.8,1.2-2.7,2.8-2.7c1.5,0,2.5,1,2.5,2.7
			C94.6,115,93.6,115.7,91.8,115.6z"/>
		<path class="st24" d="M81.3,107.7c-1.4-0.3-2.6-0.7-2.5-2.6c0.1-1.7,1.1-2.8,2.8-2.8c1.7,0,2.5,1.4,2.5,2.8
			C84.1,106.5,83.2,107.7,81.3,107.7z"/>
		<path class="st24" d="M91.1,121.5c1.2,0.1,2.4,0.9,2.4,2.5c0,1.8-1.3,2.7-2.8,2.7c-1.6-0.1-2.6-1.1-2.5-3
			C88.3,122.1,89.3,121.4,91.1,121.5z"/>
		<path class="st24" d="M116.7,63c0.6,2.4,0.7,4.9,0,7.3C116.7,67.9,116.7,65.4,116.7,63z"/>
		<path class="st20" d="M75.6,56.7c-1.4,2.4-1.9,4.7,0.5,6.8c2.5,2.1,4.5,0.5,6.5-0.8c3.6,5.5,2.1,13.2-2.3,17
			c-5.9,5.1-12.2,5.4-17.9,1.2c-5.7-4.2-7.4-11.3-4.3-17.5C60.7,58.2,66.4,53.9,75.6,56.7z M75.4,69.7c0-3.4-1.8-5.2-5.1-5.3
			c-2.8-0.1-4.8,2.1-4.8,5.2c0,3.1,1.9,5.1,4.8,5.1C73.5,74.7,75.4,72.9,75.4,69.7z"/>
		<path class="st23" d="M75.4,69.7c0,3.2-1.9,5-5.1,5.1c-2.9,0-4.8-2-4.8-5.1c0-3.1,1.9-5.3,4.8-5.2C73.6,64.5,75.4,66.3,75.4,69.7z
			"/>
	</g>
</g>
</svg>
