<?xml version="1.0" encoding="utf-8"?>
<!-- Generator: Adobe Illustrator 27.3.1, SVG Export Plug-In . SVG Version: 6.00 Build 0)  -->
<svg version="1.1" id="Ebene_1" xmlns="http://www.w3.org/2000/svg" xmlns:xlink="http://www.w3.org/1999/xlink" x="0px" y="0px"
	 viewBox="0 0 141.7 141.7" style="enable-background:new 0 0 141.7 141.7;" xml:space="preserve">
<style type="text/css">
	.st0{fill:#F6BB37;}
	.st1{fill:#3684C6;}
	.st2{fill:#DCA12A;}
	.st3{fill:#FCFCFE;}
	.st4{fill:#E97E2F;}
	.st5{fill:#28273D;}
	.st6{fill:#7F65AA;}
	.st7{fill:#B49ECB;}
	.st8{fill:#66529D;}
	.st9{fill:#33314C;}
	.st10{fill:#35ACC6;}
	.st11{fill:#27263D;}
	.st12{fill:#DB191D;}
	.st13{fill:#42BEE1;}
	.st14{fill:#EE715E;}
	.st15{fill:#396CB3;}
	.st16{fill:#EA5B4C;}
	.st17{fill:#F2C551;}
	.st18{fill:#27273D;}
	.st19{fill:#B0CF6D;}
	.st20{fill:#28263D;}
	.st21{fill:#9E4A30;}
	.st22{fill:#DB1E1D;}
	.st23{fill:#FBFBFD;}
	.st24{fill:#A3C163;}
	.st25{fill:#3F426D;}
	.st26{fill:#33304C;}
	.st27{fill:#DB181D;}
	.st28{fill:#83C4ED;}
	.st29{fill:#B6622B;}
	.st30{fill:#AB795E;}
	.st31{fill:#88C7EE;}
	.st32{fill:#9BB7CC;}
	.st33{fill:#E97F31;}
	.st34{fill:#CD6F2C;}
	.st35{fill:#A8A4A6;}
	.st36{fill:#84C4EC;}
	.st37{fill:#FEFEFE;}
	.st38{fill:#D91F1D;}
	.st39{fill:#F29454;}
	.st40{fill:#3C86C6;}
	.st41{fill:#F8FAFD;}
	.st42{fill:#AD8ABF;}
	.st43{fill:#67529E;}
	.st44{fill:#F6D373;}
	.st45{fill:#29273D;}
	.st46{fill:#EE715D;}
	.st47{fill:#F9C6BD;}
	.st48{fill:#A65E3A;}
	.st49{fill:#F18B88;}
	.st50{fill:#82C2EC;}
	.st51{fill:#E28080;}
	.st52{fill:#D57474;}
	.st53{fill:#4F5173;}
	.st54{fill:#3785C6;}
	.st55{fill:#E84680;}
	.st56{fill:#28273E;}
	.st57{fill:#E13072;}
	.st58{fill:#F5BA37;}
	.st59{fill:#F3C651;}
	.st60{fill:#DB5144;}
	.st61{fill:#A17FB8;}
	.st62{fill:#AC8ABE;}
	.st63{fill:#342E4F;}
	.st64{fill:#2DAC64;}
	.st65{fill:#5CB993;}
	.st66{fill:#9DBA5C;}
	.st67{fill:#5AB992;}
	.st68{fill:#66529E;}
	.st69{fill:#EA5A4C;}
	.st70{fill:#12994E;}
	.st71{fill:#DE5044;}
	.st72{fill:#EE715F;}
	.st73{fill:#E97F2F;}
	.st74{fill:#A89AC9;}
	.st75{fill:#38B3CD;}
	.st76{fill:#DD3D78;}
	.st77{fill:#F5D373;}
	.st78{fill:#FDEAB4;}
	.st79{fill:#7F66AA;}
	.st80{fill:#3885C6;}
	.st81{fill:#40436D;}
	.st82{fill:#A99ACA;}
	.st83{fill:#34314B;}
	.st84{fill:#F4D273;}
	.st85{fill:#83C5ED;}
	.st86{fill:#D29C2C;}
	.st87{fill:#87C7EE;}
	.st88{fill:#F6BB38;}
	.st89{fill:#F6BB3A;}
	.st90{fill:#E83D69;}
	.st91{fill:#F4BC3F;}
	.st92{fill:#85C5EB;}
	.st93{fill:#DA1E1D;}
	.st94{fill:#DDA736;}
	.st95{fill:#F18D88;}
	.st96{fill:#FFFEFE;}
	.st97{fill:#F9C8BC;}
	.st98{fill:#3B85C6;}
</style>
<g id="FhoqWk.tif">
	<g>
		<path class="st23" d="M28.2,126.4c1,2.8,3.8,3.8,5.8,5.1c5,3.2,10.4,5.8,16.3,7c3.9,1.9,8.2,2.7,12.3,2.9c9.8,0.6,19.6,0.6,29-2.9
			c2.8-1.1,5.6-2,8.4-3.2c7.3-3.2,13.7-7.6,19.4-13c7.1-6.6,12.5-14.4,16.5-23.2c4-8.8,5.6-18,5.8-27.5c0.2-6.3-0.6-12.5-2.2-18.6
			c-3.9-14.8-11.6-27.2-23.5-36.8c-3.3-2.6-6.5-5.5-10.2-7.4C96.5,4,86.7,0.8,76.1,0.1C70.8-0.2,65.7,0,60.5,0.7
			c-6.4,0.8-12.5,2.6-18.3,5.4c-5.5,2.6-10.8,5.3-15.5,9.1c-0.2,0.1-0.3,0.3-0.5,0.4c-2.5,2.6-5.3,4.7-7.7,7.4
			C11.2,31.1,6.2,40.4,3,50.7c-3.2,10.1-3.6,20.5-2.1,30.8c1.7,12.1,6.6,23,14.2,32.6c3.6,4.6,7.5,9.1,12.6,12.2
			c0.1,0.2,0.2,0.4,0.4,0.6C28,126.8,28.1,126.6,28.2,126.4z"/>
		<path class="st85" d="M26.7,15.2c4.7-3.8,10-6.5,15.5-9.1c5.9-2.8,12-4.6,18.3-5.4C65.7,0,70.8-0.2,76.1,0.1
			C86.7,0.8,96.5,4,105.9,8.8c3.7,1.9,6.9,4.7,10.2,7.4c11.9,9.7,19.6,22,23.5,36.8c1.6,6.1,2.3,12.3,2.2,18.6
			c-0.3,9.5-1.9,18.8-5.8,27.5c-4,8.8-9.4,16.6-16.5,23.2c-5.7,5.3-12.1,9.8-19.4,13c-2.8,1.2-5.6,2.1-8.4,3.2
			c-0.7-1.4-0.8-2.9,0-4.3c6.4-1.2,11.5-5.1,15.8-9.5c6.2-6.4,8.8-14.6,8.8-23.6c0-0.1,0-0.3,0-0.4c-0.1-1-0.1-2-0.2-3
			c-0.1-0.2-0.2-0.3-0.3-0.5c-0.5-8.5-3.2-16.2-7.6-23.5c6.7,0.6,15.7-5.7,18.7-12.3c2.8-6.2,3-12.8,3.3-19.4
			c0.1-1.2-0.8-2.1-1.8-2.2c-2-0.3-1.4-1.2-0.8-2.2c0.3-0.5,0.6-1.1,0.9-1.7c-4.3-0.3-8,0.9-11.4,3.4c-0.5-3.6-0.8-3.7-3.6-1.8
			c-2.2,1.5-3.9,3.5-5.7,5.6c-0.6-0.8,0.2-2-0.5-2.6c-0.6-0.2-0.8,0.1-1,0.4c-2.2,2.2-3,5.1-3.7,8c-0.2,1-0.2,1.7-1.4,1.1
			c-0.5-0.2-0.8-1.3-1.5-0.8c-0.8,0.6-0.7,1.6-0.5,2.5c0.3,1.5,0.3,3.2,1.1,4.4c1.8,2.6-0.1,4.9,0.2,7.5c-2-1-3-2.6-4.5-3.7
			c-5.5-4.3-11.4-7.8-18.3-9.2c-1.8-0.4-1.2-1-0.7-1.9c2-0.7,2.4-3.2,4.4-3.9c1-0.6,2-1.2,3-1.7c1.7-1,3.4-2,4.4-3.7
			c2.8-2.1,4-5.1,4.8-8.4c0.4-1.7,0.8-3.3,0.5-5c0.4-3.2-0.4-6.2-1.5-9.2c-0.2-1.8-1.4-3.2-2.1-4.8c-2.1-2.8-3.8-5.9-7.1-7.6
			c-1.2-1.4-2.8-1.8-4.6-1.9c-2.6,0.1-5.4-0.7-7.9,0.9c-1.9,0-3.1,1.2-4.4,2.4c-1.9,0.7-3.2,2.3-4.8,3.5c-1.3,0.8-2.7,1.6-4,2.4
			c-4.9,2.7-5.5,7.5-3.1,10.5c0.3,0.4,0.6,1.1,1.3,0.9c0.6-0.2,0.8-0.7,0.8-1.4c0.2-2.3,0.8-4.4,2.5-6.1c1.2-1.4,3-1.6,4.3-2.8
			c1.6-1,3.2-1.9,4.8-2.9c1.5-0.5,3-1.2,4.3-2.1c1.4,0.1,2.8-0.6,4.3-0.1c0.6,0.1,1.2,0.3,1.8,0.6c1.2,0.7,1.3,2.2,2.4,2.8
			c0.9,2.2,1.8,4.4,2.6,6.6c0.8,1.7,1.1,3.7,2.3,5.3c0.6,1.4,1.1,2.7,1.7,4.1c-0.7,1.5-0.5,3.3-1.5,4.8c-1,2-2.8,3.3-4.6,4.6
			c-2,0.9-4.1,1.7-5.9,3.1C73.2,40,71.1,41.5,69,43c-1.6,1.1-2.2,2.8-2.8,4.5c-0.2,1.7-0.8,2.8-2.9,3.2c-2.5,0.5-4.9,1.4-7.3,2.5
			c-4.3,2-8.3,4.6-11.8,7.9c-0.4,0.4-0.7,1-1.4,0.8c-0.7-0.3-0.3-1-0.4-1.5c-0.5-1.6-0.1-3.2,0.6-4.6c1.1-2.2,0.9-4.5,0.8-6.9
			c-1.2,0.2-1.4,1.6-2.7,1.6c-1-3.7-1.4-7.9-5.1-10.5c-0.1,1.2-0.1,2.1-0.2,3.4c-2.2-2.3-3.8-4.7-6.3-6.1c-2.7-1.5-2.9-1.4-3.5,1.5
			c0,0.2-0.3,0.3-0.4,0c-0.2-0.4-0.6-0.5-1-0.5c-3.1-2-6.5-2.3-10.5-2.5c1.3,1.2,1.5,2.3,2.1,3.2c-1.2,0.8-2.8,1.1-2.9,3.1
			c-0.3,5.9,0.8,11.6,2.1,17.2c0,0.6,0.2,1,0.9,1c-0.1,4.3,7.6,11.2,11.2,11.7c2,0.3,3.5,1.8,5.7,1.7c-0.3,0.6-0.4,1-0.6,1.3
			c-4.3,7.5-7,15.5-6.9,24.3c0,1.4,0.9,2.9,0.5,4c-1.4,3.4,0.2,6.2,1.1,9.2c1.7,5.8,4.8,10.7,9.3,14.6c4,3.5,8.7,5.9,13.8,7.5
			c0,1.3,0,2.5,0,3.8c-5.9-1.3-11.3-3.8-16.3-7c-2-1.3-4.8-2.4-5.8-5.1c-0.2,0-0.4,0-0.6,0c-5.1-3.1-8.9-7.6-12.6-12.2
			C7.5,104.6,2.6,93.6,0.8,81.5C-0.7,71.2-0.2,60.8,3,50.7C6.2,40.4,11.2,31.1,18.4,23c2.4-2.7,5.2-4.8,7.7-7.4
			C26.3,15.4,26.5,15.3,26.7,15.2z"/>
		<path class="st86" d="M50.3,138.5c0-1.3,0-2.5,0-3.8c0-1.5,0-2.9,0-4.4c0.9-0.2,1.6,0.3,2.3,0.6c5.7,2.4,11.8,3.2,17.8,3.2
			c7,0,14-1.2,20.7-3.8c0.8,1.3,0.4,2.7,0.5,4c-0.8,1.4-0.8,2.9,0,4.3c-9.4,3.4-19.3,3.4-29,2.9C58.5,141.2,54.2,140.4,50.3,138.5z"
			/>
		<path class="st87" d="M27.6,126.4c0.2,0,0.4,0,0.6,0c-0.1,0.2-0.2,0.4-0.3,0.6C27.8,126.8,27.7,126.6,27.6,126.4z"/>
		<path class="st87" d="M26.7,15.2c-0.2,0.1-0.3,0.3-0.5,0.4C26.3,15.4,26.5,15.3,26.7,15.2z"/>
		<path class="st88" d="M91.6,134.3c-0.1-1.3,0.3-2.8-0.5-4c2.9-1.6,6.1-2.7,8.4-5.3c2.9-2.2,4.7-5.1,5.7-8.5
			c1.6-5.3,0.4-8.4-3.6-10c-1.2-0.5-2.5,0.1-3.5-0.7c-4.1-0.4-8.2,0.3-12.3,0.5c-2.4-0.5-4.6,0.6-7,0.5c-6.3,0-12.7,0-19-0.1
			c-1.9-1.1-3.9-0.3-5.9-0.4c-0.7-0.2-1.4-0.2-2.1-0.3c-3.2-0.3-6.5-0.8-9.7,0.3c-3.7,0-7.7,4-6.7,7.3c1.1,3.8,2.6,7.6,5.8,10.4
			c2.8,2.6,5.9,4.7,9.3,6.4c0,1.5,0,2.9,0,4.4c-5.1-1.6-9.8-4-13.8-7.5c-4.5-3.9-7.6-8.8-9.3-14.6c-0.9-3-2.4-5.8-1.1-9.2
			c0.5-1.1-0.5-2.6-0.5-4c0-8.8,2.6-16.8,6.9-24.3c0.2-0.3,0.3-0.7,0.6-1.3c-2.2,0.1-3.6-1.4-5.7-1.7c-3.7-0.6-11.3-7.4-11.2-11.7
			c0.2-0.8-0.2-1-0.9-1c-1.3-5.7-2.4-11.4-2.1-17.2c0.1-2,1.7-2.3,2.9-3.1c-0.6-1-0.8-2.1-2.1-3.2c4,0.3,7.5,0.5,10.5,2.5
			c0.2,0.5,0.7,0.4,1,0.5c0.1,0.3,0.4,0.2,0.4,0c0.5-2.9,0.8-3,3.5-1.5c2.5,1.4,4.1,3.8,6.3,6.1c0.1-1.3,0.1-2.2,0.2-3.4
			c3.7,2.7,4,6.8,5.1,10.5c1.3,0,1.5-1.4,2.7-1.6c0.1,2.4,0.3,4.7-0.8,6.9c-0.7,1.5-1.1,3-0.6,4.6c0.1,0.5-0.3,1.2,0.4,1.5
			c0.7,0.3,1-0.4,1.4-0.8c3.5-3.3,7.4-5.9,11.8-7.9c2.3-1.1,4.8-2,7.3-2.5c2.1-0.4,2.7-1.5,2.9-3.2c3.5,0.5,7.1,1.1,10.7,1.1
			c-0.6,0.9-1.1,1.6,0.7,1.9c6.9,1.4,12.8,4.9,18.3,9.2c1.4,1.1,2.4,2.7,4.5,3.7c-0.3-2.6,1.5-4.9-0.2-7.5c-0.8-1.2-0.8-2.9-1.1-4.4
			c-0.2-0.9-0.3-1.9,0.5-2.5c0.7-0.5,1,0.5,1.5,0.8c1.2,0.5,1.2-0.2,1.4-1.1c0.6-2.9,1.4-5.8,3.7-8c0.2-0.2,0.4-0.5,1-0.4
			c0.7,0.6-0.2,1.7,0.5,2.6c1.8-2,3.4-4.1,5.7-5.6c2.8-1.9,3.2-1.8,3.6,1.8c3.4-2.5,7.1-3.7,11.4-3.4c-0.4,0.7-0.6,1.2-0.9,1.7
			c-0.6,1.1-1.2,2,0.8,2.2c1.1,0.1,1.9,1,1.8,2.2c-0.3,6.6-0.5,13.2-3.3,19.4c-2.9,6.6-11.9,12.9-18.7,12.3c4.4,7.3,7.1,15,7.6,23.5
			c0.1,0.2,0.2,0.3,0.3,0.5c0.1,1,0.1,2,0.2,3c-0.1,0.1-0.2,0.2-0.4,0.2c0.1,0.1,0.3,0.1,0.4,0.2c0.1,9-2.5,17.2-8.8,23.6
			C103.2,129.2,98,133,91.6,134.3z M38.1,97.3c0.8,0,1.3,0.6,1.8,1.1c6.6,6.2,16.1,6.9,23.8,2.5c4.6-2.6,9.2-3.4,13.7-0.1
			c4.1,2.9,9,2.9,13.6,2.6c4.6-0.3,8.4-2.6,11.7-6.2c3.8-4.1,5.8-8.5,6.1-13.8c0.2-5.1-2-9.2-5-13.4c-4.7-6.5-16.3-9.1-23.8-5.5
			c-5.8,2.8-11.6,3.2-17.4,0.3c-3.2-1.6-6.7-2-10.2-1.9c-7.1,0.2-12.3,3.8-16,9.4c-5,7.6-4.1,15.5,0.2,23.1c-1.1,0-2.3-0.1-3.4,0
			c-2,0.2-3.7,1.1-4.2,3.1c-0.6,2.3-0.2,4.4,1.8,5.9c1.5,1.2,3.2,1.5,5,0.7C38.4,103.9,39.4,100.5,38.1,97.3z M124.1,51.1
			c0-1,0-2,0-2.9c0.1-1.2-0.6-1.5-1.7-1.5c-5.9,0-13.2,5.1-14.7,10.9c-1.4,5,0.3,8.8,5.7,8.3c1.4-0.1,2.8-0.5,4.1-1.3
			C122.5,61.4,124,56.6,124.1,51.1z M29.5,65.8c3.7,0.1,6.4-2,6.5-4.7c0.1-3.8-1.4-7.3-4.1-9.8c-2.9-2.7-6.8-3.8-10.6-4.7
			c-1.5-0.4-2.4,0.1-2.5,2c-0.3,3.7,0.5,7.3,2,10.6C22.7,63.2,26.1,65.3,29.5,65.8z M113.8,100.3c0-2.3-2.3-5.3-4.2-5.4
			c-3.5-0.1-6.3,2.2-6.2,5.4c0,2.7,3.5,6,6.2,5.8C111.1,106,113.8,102.3,113.8,100.3z"/>
		<path class="st89" d="M83.3,4.2c3.3,1.7,5,4.8,7.1,7.6c-2.3,1.8-3.8,4.5-6.6,5.8c-0.9-2.2-1.8-4.4-2.6-6.6
			C81.2,8.5,82.4,6.5,83.3,4.2z"/>
		<path class="st90" d="M76.9,48.7c-3.6,0-7.1-0.6-10.7-1.1c0.6-1.7,1.2-3.4,2.8-4.5c4.1,0.6,8.2,1.1,12.3,1.7
			C79.3,45.5,78.8,47.9,76.9,48.7z"/>
		<path class="st89" d="M81.7,36.4c1.8-1.3,3.5-2.6,4.6-4.6c2.5,0.7,4.8-0.7,7.2-1c-0.8,3.3-2.1,6.3-4.8,8.4
			C86.1,39,84,37.5,81.7,36.4z"/>
		<path class="st89" d="M92.5,16.6c1,3,1.9,6,1.5,9.2c-2.1,0.4-4.2,0.8-6.3,1.2c-0.6-1.4-1.1-2.7-1.7-4.1
			C88.2,20.8,90.4,18.7,92.5,16.6z"/>
		<path class="st90" d="M92.5,16.6c-2.1,2.1-4.3,4.2-6.4,6.3c-1.1-1.6-1.4-3.6-2.3-5.3c2.7-1.3,4.3-3.9,6.6-5.8
			C91.1,13.4,92.3,14.8,92.5,16.6z"/>
		<path class="st90" d="M81.7,36.4c2.2,1.1,4.4,2.5,6.9,2.9c-1,1.8-2.7,2.7-4.4,3.7c-2.8-1.2-5.6-2.3-8.4-3.5
			C77.6,38.2,79.7,37.3,81.7,36.4z"/>
		<path class="st89" d="M75.9,39.6c2.8,1.2,5.6,2.3,8.4,3.5c-1,0.6-2,1.2-3,1.7c-4.1-0.6-8.2-1.1-12.3-1.7
			C71.1,41.5,73.2,40,75.9,39.6z"/>
		<path class="st89" d="M59.2,15.5c-1.7,1.7-2.4,3.8-2.5,6.1c0,0.6-0.3,1.2-0.8,1.4c-0.7,0.3-1-0.5-1.3-0.9c-2.4-3-1.8-7.9,3.1-10.5
			C58.2,12.8,58.7,14.1,59.2,15.5z"/>
		<path class="st90" d="M87.7,27c2.1-0.4,4.2-0.8,6.3-1.2c0.3,1.7-0.1,3.4-0.5,5c-2.4,0.3-4.7,1.6-7.2,1C87.2,30.4,87,28.6,87.7,27z
			"/>
		<path class="st90" d="M83.3,4.2c-0.9,2.2-2.2,4.3-2.1,6.8c-1.1-0.7-1.2-2.1-2.4-2.8c-0.6-0.3-1.1-0.6-1.8-0.6c0-2,1.2-3.5,1.8-5.2
			C80.5,2.4,82.1,2.8,83.3,4.2z"/>
		<path class="st89" d="M78.8,2.4c-0.6,1.7-1.8,3.3-1.8,5.2c-1.4-0.5-2.8,0.2-4.3,0.1c-0.6-1.5-1.2-2.9-1.8-4.4
			C73.4,1.7,76.1,2.5,78.8,2.4z"/>
		<path class="st91" d="M68.4,9.8c-1.6,1-3.2,1.9-4.8,2.9c-1-1-1.2-2.4-1.9-3.5c1.6-1.2,2.9-2.7,4.8-3.5C67.8,6.7,67.5,8.5,68.4,9.8
			z"/>
		<path class="st90" d="M68.4,9.8c-0.9-1.2-0.6-3-1.9-4.1c1.2-1.2,2.5-2.4,4.4-2.4c0.6,1.5,1.2,2.9,1.8,4.4
			C71.4,8.6,69.9,9.2,68.4,9.8z"/>
		<path class="st90" d="M61.7,9.1c0.7,1.1,0.9,2.5,1.9,3.5c-1.3,1.2-3.2,1.4-4.3,2.8c-0.5-1.3-1-2.6-1.5-4
			C59,10.7,60.4,9.9,61.7,9.1z"/>
		<path class="st92" d="M15.4,59.4c0.6,0,1.1,0.3,0.9,1C15.6,60.3,15.4,60,15.4,59.4z"/>
		<path class="st92" d="M25.7,38.7c-0.4-0.1-0.9,0.1-1-0.5C25.1,38.2,25.5,38.3,25.7,38.7z"/>
		<path class="st91" d="M116,97.8c-0.1-0.2-0.2-0.3-0.3-0.5C115.8,97.4,115.9,97.6,116,97.8z"/>
		<path class="st92" d="M116.2,101.2c-0.1-0.1-0.3-0.1-0.4-0.2c0.1-0.1,0.2-0.2,0.4-0.2C116.2,100.9,116.2,101.1,116.2,101.2z"/>
		<path class="st93" d="M50.3,130.4c-3.4-1.7-6.6-3.8-9.3-6.4c1.2-0.7,2.3-1.5,3.6-2c7.3-3.1,14.7-2.9,21.9,0.4c1.9,0.9,3.5,1,5.5,0
			c3.3-1.6,6.8-2.4,10.5-2.5c6.3-0.2,11.9,1.5,17,5.1c-2.3,2.6-5.5,3.6-8.4,5.3c-6.6,2.6-13.6,3.8-20.7,3.8c-6,0-12.1-0.8-17.8-3.2
			C51.9,130.6,51.2,130.2,50.3,130.4z"/>
		<path class="st45" d="M99.5,125c-5.1-3.5-10.8-5.3-17-5.1c-3.7,0.1-7.2,0.9-10.5,2.5c-1.9,1-3.6,0.8-5.5,0
			c-7.2-3.3-14.5-3.5-21.9-0.4c-1.3,0.5-2.4,1.3-3.6,2c-3.1-2.8-4.6-6.6-5.8-10.4c-1-3.3,3.1-7.4,6.7-7.3c1.3,2.2,2.5,4.4,3.9,6.5
			c1.7,2.6,3.5,2.5,4.9-0.3c1.1-2,2-4.1,3-6.2c2,0.1,4-0.6,5.9,0.4c2.1,3.5,4.3,7,6.3,10.6c1.6,2.9,6.2,3.2,7.6-0.2
			c1.5-3.5,3.4-6.9,5.1-10.3c2.3,0.1,4.6-1,7-0.5c1.3,2.1,2.6,4.2,3.9,6.2c1.9,2.9,3.4,2.8,5-0.1c1.2-2.2,2.2-4.4,3.3-6.6
			c1,0.8,2.4,0.2,3.5,0.7c4,1.7,5.2,4.8,3.6,10C104.1,119.9,102.4,122.8,99.5,125z"/>
		<path class="st94" d="M36.5,95.4c-4.2-7.7-5.2-15.5-0.2-23.1c3.7-5.6,9-9.2,16-9.4c3.6-0.1,7,0.3,10.2,1.9
			c5.9,2.9,11.7,2.5,17.4-0.3c7.4-3.6,19.1-1,23.8,5.5c3,4.2,5.2,8.3,5,13.4c-0.3,5.3-2.2,9.7-6.1,13.8c-3.4,3.6-7.1,5.9-11.7,6.2
			c-4.6,0.3-9.4,0.4-13.6-2.6c-4.6-3.2-9.1-2.5-13.7,0.1c-7.7,4.3-17.2,3.7-23.8-2.5c-0.5-0.5-1-1.1-1.8-1.1
			C37.5,96.7,37,96,36.5,95.4z M86.8,102.2c1.1,0,2.4,0.3,3.4,0c9.7-2.8,16.3-9.8,15.2-21.2c-1-10.4-8.7-16-18-16.6
			c-6.3-0.4-11.5,2.3-15.5,7.2c-1.1,1.4-1.6,0.9-2.3-0.1c-5.7-7.6-17-9.4-24.8-4.4c-11.1,7.2-12,22.6-1.6,31
			c4.6,3.7,10,5.1,15.9,3.6c3.8-1,7-2.9,9.6-5.9c1.4-1.5,2.5-1.8,4.1-0.1C76.5,99.8,81,102.5,86.8,102.2z"/>
		<path class="st95" d="M124.1,51.1c0,5.5-1.5,10.3-6.5,13.4c-1.3,0.8-2.7,1.2-4.1,1.3c-5.4,0.5-7.1-3.4-5.7-8.3
			c1.6-5.8,8.8-10.8,14.7-10.9c1.1,0,1.7,0.3,1.7,1.5C124,49.1,124.1,50.1,124.1,51.1z"/>
		<path class="st95" d="M29.5,65.8c-3.4-0.5-6.8-2.6-8.6-6.6c-1.5-3.3-2.3-6.8-2-10.6c0.1-1.9,1.1-2.4,2.5-2c3.8,1,7.7,2,10.6,4.7
			c2.7,2.5,4.2,5.9,4.1,9.8C35.9,63.8,33.2,65.9,29.5,65.8z"/>
		<path class="st96" d="M78.8,106.7c-1.7,3.4-3.6,6.8-5.1,10.3c-1.5,3.5-6,3.1-7.6,0.2c-2-3.6-4.2-7.1-6.3-10.6
			C66.1,106.7,72.4,106.7,78.8,106.7z"/>
		<path class="st97" d="M113.8,100.3c0,1.9-2.7,5.7-4.2,5.8c-2.6,0.2-6.1-3.1-6.2-5.8c0-3.1,2.7-5.5,6.2-5.4
			C111.5,95,113.8,98,113.8,100.3z"/>
		<path class="st97" d="M36.5,95.4c0.5,0.6,1,1.3,1.5,1.9c1.4,3.2,0.3,6.6-2.5,7.8c-1.8,0.8-3.4,0.6-5-0.7c-2-1.6-2.4-3.7-1.8-5.9
			c0.6-2,2.2-3,4.2-3.1C34.2,95.3,35.4,95.4,36.5,95.4z"/>
		<path class="st96" d="M53.8,106.2c-1,2.1-1.9,4.2-3,6.2c-1.5,2.8-3.3,2.9-4.9,0.3c-1.4-2.1-2.6-4.3-3.9-6.5
			c3.2-1.1,6.5-0.6,9.7-0.3C52.4,106,53.1,106.1,53.8,106.2z"/>
		<path class="st96" d="M98,105.8c-1.1,2.2-2.2,4.4-3.3,6.6c-1.6,3-3.2,3-5,0.1c-1.3-2.1-2.6-4.2-3.9-6.2
			C89.8,106,93.9,105.3,98,105.8z"/>
		<path class="st96" d="M86.8,102.2c-5.8,0.4-10.3-2.4-14-6.4c-1.6-1.7-2.7-1.4-4.1,0.1c-2.6,2.9-5.8,4.9-9.6,5.9
			c-5.9,1.5-11.3,0.1-15.9-3.6c-10.4-8.4-9.4-23.8,1.6-31c7.8-5.1,19.2-3.2,24.8,4.4c0.7,0.9,1.2,1.4,2.3,0.1
			c3.9-4.9,9.1-7.6,15.5-7.2c9.3,0.6,17,6.2,18,16.6c1.1,11.4-5.4,18.4-15.2,21.2C89.1,102.4,87.9,102.2,86.8,102.2z M54.7,73.1
			c-6.7,0-10.8,5.2-11.2,11.1c-0.3,5.6,5.9,12,11.3,11.5c6.6-0.7,11.1-4.3,11.2-11.5C66,77.6,61.7,73.5,54.7,73.1z M75.8,84.2
			c-0.2,7.3,5.5,11.3,11,11.6C92.7,96,98,90.4,98,84.5c0.1-6.4-4.7-11.2-11.1-11.3C81.2,73,75.5,77.8,75.8,84.2z"/>
		<path class="st98" d="M54.7,73.1c7,0.4,11.3,4.5,11.3,11.1c0,7.1-4.6,10.7-11.2,11.5c-5.4,0.6-11.6-5.9-11.3-11.5
			C43.9,78.4,48,73.2,54.7,73.1z M62,80.6c0.2-4.3-0.9-5.3-4.3-3.8c-2.6-1.1-5.3-0.9-7.7,0.6c-3.8,2.4-4.8,7.4-2.6,11
			c2.7,4.4,7,5.6,11.5,3.1C62.8,89.3,64.1,84.8,62,80.6z"/>
		<path class="st98" d="M75.8,84.2c-0.4-6.3,5.4-11.1,11.1-11c6.4,0.2,11.2,4.9,11.1,11.3C98,90.4,92.7,96,86.8,95.7
			C81.4,95.5,75.6,91.4,75.8,84.2z M89.8,76.6c-3.7-1.4-8-0.2-9.9,2.8c-2.5,4-1.9,8.2,1.6,11.4c2.7,2.5,7.3,2.5,10.5,0.1
			c3.3-2.5,4.1-6.7,2.2-10.4C94.1,76.2,93.1,75.3,89.8,76.6z"/>
		<path class="st45" d="M62,80.6c2,4.2,0.7,8.8-3,10.8c-4.5,2.5-8.8,1.3-11.5-3.1c-2.2-3.6-1.1-8.7,2.6-11c2.3-1.5,5-1.7,7.7-0.6
			c-0.7,1.2-0.9,2.4-0.1,3.5c0.9,1.3,2.2,1,3.4,0.4C61.4,80.5,61.7,80.6,62,80.6z M54.8,81.6c-2.1-0.5-3.3,0.8-3.4,2.6
			c0,1.5,0.9,3.1,2.9,3.2c2,0.1,3.4-1.2,3.4-3.2C57.6,82.5,56.9,81.3,54.8,81.6z"/>
		<path class="st23" d="M62,80.6c-0.3,0-0.7-0.1-1,0.1c-1.2,0.6-2.5,0.9-3.4-0.4c-0.8-1.1-0.6-2.4,0.1-3.5
			C61.2,75.3,62.2,76.2,62,80.6z"/>
		<path class="st45" d="M94.1,80.5c2,3.7,1.1,8-2.2,10.4c-3.2,2.4-7.7,2.3-10.5-0.1c-3.5-3.1-4.1-7.3-1.6-11.4
			c1.9-3,6.2-4.2,9.9-2.8c-1,1.2-0.9,2.5-0.1,3.5c0.8,1,1.9,1.4,3.2,0.5C93.2,80.4,93.7,80.5,94.1,80.5z M89.7,84.1
			c0-1.8-1.3-3.3-3.3-3c-1.6,0.2-2.8,1.1-2.7,3.1c0.1,1.9,0.8,3.2,2.8,3.2C88.3,87.3,89.8,86.6,89.7,84.1z"/>
		<path class="st96" d="M94.1,80.5c-0.4,0-0.9-0.1-1.2,0.1c-1.2,0.9-2.4,0.5-3.2-0.5c-0.8-1.1-0.9-2.4,0.1-3.5
			C93.1,75.3,94.1,76.2,94.1,80.5z"/>
		<path class="st96" d="M54.8,81.6c2.2-0.3,2.8,0.9,2.9,2.7c0.1,1.9-1.4,3.3-3.4,3.2c-2-0.1-2.9-1.8-2.9-3.2
			C51.4,82.4,52.7,81.1,54.8,81.6z"/>
		<path class="st96" d="M89.7,84.1c0.1,2.5-1.4,3.3-3.2,3.3c-2,0-2.7-1.3-2.8-3.2c-0.1-2,1.1-2.8,2.7-3.1
			C88.4,80.8,89.7,82.3,89.7,84.1z"/>
	</g>
</g>
</svg>
