<?xml version="1.0" encoding="utf-8"?>
<!-- Generator: Adobe Illustrator 27.3.1, SVG Export Plug-In . SVG Version: 6.00 Build 0)  -->
<svg version="1.1" id="Ebene_1" xmlns="http://www.w3.org/2000/svg" xmlns:xlink="http://www.w3.org/1999/xlink" x="0px" y="0px"
	 viewBox="0 0 141.7 141.7" style="enable-background:new 0 0 141.7 141.7;" xml:space="preserve">
<style type="text/css">
	.st0{fill:#F6BB37;}
	.st1{fill:#3684C6;}
	.st2{fill:#DCA12A;}
	.st3{fill:#FCFCFE;}
	.st4{fill:#E97E2F;}
	.st5{fill:#28273D;}
	.st6{fill:#7F65AA;}
	.st7{fill:#B49ECB;}
	.st8{fill:#66529D;}
	.st9{fill:#33314C;}
	.st10{fill:#35ACC6;}
	.st11{fill:#27263D;}
	.st12{fill:#DB191D;}
	.st13{fill:#42BEE1;}
	.st14{fill:#EE715E;}
	.st15{fill:#396CB3;}
	.st16{fill:#EA5B4C;}
	.st17{fill:#F2C551;}
	.st18{fill:#27273D;}
	.st19{fill:#B0CF6D;}
	.st20{fill:#28263D;}
	.st21{fill:#9E4A30;}
	.st22{fill:#DB1E1D;}
	.st23{fill:#FBFBFD;}
	.st24{fill:#A3C163;}
	.st25{fill:#3F426D;}
	.st26{fill:#33304C;}
	.st27{fill:#DB181D;}
	.st28{fill:#83C4ED;}
	.st29{fill:#B6622B;}
	.st30{fill:#AB795E;}
	.st31{fill:#88C7EE;}
	.st32{fill:#9BB7CC;}
	.st33{fill:#E97F31;}
	.st34{fill:#CD6F2C;}
	.st35{fill:#A8A4A6;}
	.st36{fill:#84C4EC;}
	.st37{fill:#FEFEFE;}
	.st38{fill:#D91F1D;}
	.st39{fill:#F29454;}
	.st40{fill:#3C86C6;}
	.st41{fill:#F8FAFD;}
	.st42{fill:#AD8ABF;}
	.st43{fill:#67529E;}
	.st44{fill:#F6D373;}
	.st45{fill:#29273D;}
	.st46{fill:#EE715D;}
	.st47{fill:#F9C6BD;}
	.st48{fill:#A65E3A;}
	.st49{fill:#F18B88;}
	.st50{fill:#82C2EC;}
	.st51{fill:#E28080;}
	.st52{fill:#D57474;}
	.st53{fill:#4F5173;}
	.st54{fill:#3785C6;}
	.st55{fill:#E84680;}
	.st56{fill:#28273E;}
	.st57{fill:#E13072;}
	.st58{fill:#F5BA37;}
	.st59{fill:#F3C651;}
	.st60{fill:#DB5144;}
	.st61{fill:#A17FB8;}
	.st62{fill:#AC8ABE;}
	.st63{fill:#342E4F;}
	.st64{fill:#2DAC64;}
	.st65{fill:#5CB993;}
	.st66{fill:#9DBA5C;}
	.st67{fill:#5AB992;}
	.st68{fill:#66529E;}
	.st69{fill:#EA5A4C;}
	.st70{fill:#12994E;}
	.st71{fill:#DE5044;}
	.st72{fill:#EE715F;}
	.st73{fill:#E97F2F;}
	.st74{fill:#A89AC9;}
	.st75{fill:#38B3CD;}
	.st76{fill:#DD3D78;}
	.st77{fill:#F5D373;}
	.st78{fill:#FDEAB4;}
	.st79{fill:#7F66AA;}
	.st80{fill:#3885C6;}
	.st81{fill:#40436D;}
	.st82{fill:#A99ACA;}
	.st83{fill:#34314B;}
	.st84{fill:#F4D273;}
	.st85{fill:#83C5ED;}
	.st86{fill:#D29C2C;}
	.st87{fill:#87C7EE;}
	.st88{fill:#F6BB38;}
	.st89{fill:#F6BB3A;}
	.st90{fill:#E83D69;}
	.st91{fill:#F4BC3F;}
	.st92{fill:#85C5EB;}
	.st93{fill:#DA1E1D;}
	.st94{fill:#DDA736;}
	.st95{fill:#F18D88;}
	.st96{fill:#FFFEFE;}
	.st97{fill:#F9C8BC;}
	.st98{fill:#3B85C6;}
</style>
<g id="dvFsgL.tif">
	<g>
		<path class="st47" d="M39,134c-1.5-0.5-2.9-1.4-4.2-2.2c-2.6-1.5-5.1-3.3-7.5-5.1c-1.6-1.2-3.1-2.6-4.6-3.9
			c-2.4-2.1-4.5-4.5-6.5-6.9c-2.4-2.9-4.5-5.9-6.4-9.1c-1.9-3.3-3.6-6.8-5-10.3c-1.5-3.8-2.6-7.7-3.4-11.7c-0.5-2.5-0.8-5-1.1-7.6
			C0.1,74.4-0.1,71.7,0,69c0.1-2.5,0.3-5.1,0.7-7.6C1,59.2,1.4,57,1.9,54.9c0.8-3.2,1.7-6.4,2.9-9.4c1-2.5,2.1-4.9,3.3-7.2
			c0.9-1.8,2-3.6,3.1-5.4c0.6-1,1.2-1.9,1.9-2.9c1.1-1.5,2.2-3,3.5-4.5c1.3-1.6,2.7-3.1,4.1-4.6c1.1-1.1,2.3-2.1,3.4-3.2
			c2.2-2,4.5-3.7,6.9-5.4c1.3-1,2.8-1.8,4.2-2.6c2.1-1.2,4.3-2.2,6.4-3.4c0.9-0.5,1.9-0.7,2.8-1.1c3.6-1.5,7.3-2.6,11-3.5
			c1.3-0.3,2.7-0.5,4-0.8c1.2-0.3,2.5-0.2,3.7-0.5c0.2,0,0.5-0.1,0.7-0.2c0.4-0.3,0.8,0,1.2,0c2.8-0.2,5.6-0.4,8.4-0.3
			c1.4,0.1,2.7,0.1,4.1,0.3c3.2,0.3,6.4,0.8,9.6,1.6c2.8,0.7,5.6,1.5,8.3,2.5c2.6,1,5.1,2.1,7.6,3.3c3.5,1.8,6.8,3.8,10,6.1
			c2.5,1.8,4.9,3.9,7.1,6c2.4,2.3,4.5,4.7,6.6,7.3c1.8,2.3,3.4,4.6,4.9,7.1c1.9,3,3.5,6.2,4.8,9.5c1.1,2.7,2.1,5.6,2.9,8.4
			c0.7,2.4,1.2,4.9,1.6,7.3c0.2,1.3,0.3,2.6,0.5,3.9c0.3,1.6,0.2,3.1,0.4,4.7c0.1,1.2,0.1,2.4,0.1,3.6c0,1.6-0.2,3.3-0.3,4.9
			c-0.1,1.9-0.4,3.8-0.7,5.6c-0.3,2-0.6,4-1.1,5.9c-0.7,2.6-1.5,5.2-2.4,7.7c-0.8,2.1-1.7,4.1-2.6,6.1c-1.3,2.7-2.8,5.2-4.3,7.7
			c-0.8,1.3-1.7,2.4-2.6,3.7c-1.5,2.2-3.4,4.1-5.1,6.1c-2.2,2.5-4.8,4.7-7.4,6.8c-3.8,3.1-7.9,5.6-12.2,7.9
			c-0.3,0.1-0.6,0.3-0.9,0.3c-0.1-0.2-0.1-0.5,0-0.7c0.5-3,1-6,1.5-9c0.1-0.4,0.3-0.6,0.7-0.8c2.2-0.9,4.4-1.8,6.6-2.7
			c2.2-1,4.4-2.1,6.4-3.4c2.3-1.5,4.4-3.2,6.5-5c3-2.6,5.2-5.6,7-9.1c2.7-5.4,3.8-11.2,3.3-17.3c-0.1-1.6-0.9-2.8-2.1-3.1
			c-1.6-0.4-2.5-0.4-3.8,1.2c-0.2,0.3-0.4,0.6-0.6,1c-0.3,0.5-0.6,0.9-1,1.3c-1.9,2.2-4.1,3.9-6.8,5.2c-2.2,1.1-4.6,1.8-7,2.2
			c-0.3,0.1-0.6,0.1-0.6-0.4c0.2-1,0-2,0-3c-0.1-14.9,0.2-29.7-0.1-44.6c-0.1-2.4-0.3-4.9-0.8-7.3c-1.2-5.5-3.3-10.6-6.5-15.3
			c-2.1-2.9-4.4-5.6-7.2-7.9c-2.4-2-4.9-3.7-7.7-5.1c-2.6-1.3-5.3-2.3-8.2-3.1c-3-0.8-6-1.4-9.1-1.5c-1.6-0.1-3.2,0-4.8,0.1
			c-2.1,0.1-4.1,0.5-6.1,0.8c-2.6,0.4-5,1.4-7.4,2.3c-1.4,0.5-2.7,1.4-4.1,2.1c-1.9,1-3.6,2.2-5.3,3.5c-1.4,1.1-2.6,2.4-3.8,3.6
			c-2.1,2.1-3.8,4.4-5.5,6.9c-2.2,3.4-3.6,7-4.7,10.9c-0.7,2.5-1.3,5-1.4,7.6c-0.1,1.4-0.2,2.8-0.2,4.2c0,15.1,0,30.1,0,45.2
			c0,0.7-0.1,0.8-0.8,0.6c-1.3-0.3-2.6-0.7-3.8-1c-2.3-0.6-4.3-1.9-6.3-3.1c-1.1-0.7-2.1-1.7-2.9-2.7c-0.8-1-1.3-2.1-2.1-3.1
			c-1.1-1.4-3.5-1.6-4.9-0.4c-0.8,0.7-1,1.6-1,2.5c-0.1,3-0.1,6.1,0.5,9.1c0.5,2.2,1.1,4.4,1.9,6.4c0.5,1.2,1.1,2.4,1.8,3.6
			c0.9,1.7,2.1,3.1,3.3,4.6c2.1,2.8,4.9,4.8,7.8,6.8c4.5,3,9.4,5.3,14.6,7.2c0.3,0.1,0.5,0.3,0.5,0.6c0.1,0.9,0.3,1.8,0.4,2.7
			C38.4,129.5,38.8,131.7,39,134z"/>
		<path class="st48" d="M61.4,7c2-0.3,4.1-0.7,6.1-0.8C69.1,6.1,70.7,6,72.4,6c3.1,0.1,6.1,0.7,9.1,1.5c2.8,0.8,5.5,1.7,8.2,3.1
			c2.8,1.4,5.4,3.1,7.7,5.1c2.7,2.3,5.1,5,7.2,7.9c3.3,4.6,5.4,9.8,6.5,15.3c0.5,2.4,0.7,4.8,0.8,7.3c0.3,14.9,0.1,29.7,0.1,44.6
			c0,1,0.1,2,0,3c-0.1,0.5,0.2,0.5,0.6,0.4c2.4-0.5,4.8-1.2,7-2.2c2.6-1.2,4.9-3,6.8-5.2c0.4-0.4,0.7-0.9,1-1.3
			c0.2-0.3,0.4-0.7,0.6-1c1.3-1.6,2.1-1.6,3.8-1.2c1.2,0.3,1.9,1.5,2.1,3.1c0.5,6.1-0.6,11.9-3.3,17.3c-1.7,3.5-4,6.6-7,9.1
			c-2.1,1.8-4.2,3.5-6.5,5c-2,1.3-4.2,2.4-6.4,3.4c-2.2,0.9-4.4,1.8-6.6,2.7c-0.4,0.2-0.6,0.4-0.7,0.8c-0.5,3-1,6-1.5,9
			c0,0.2-0.1,0.5,0,0.7c-0.1,0.2-0.2,0.2-0.4,0.3c-1.4,0.7-2.8,1.3-4.1,1.9c-1,0.4-2,0.8-3,1c-0.4,0.1-0.6,0.6-1.1,0.5
			c0-0.6-0.5-0.9-0.9-1.1c-1.2-0.5-2.3-1-3.4-1.7c-1.2-0.7-2.4-1.3-3.6-2.1c-1.9-1.3-3.8-2.6-5.6-4.2c-1.1-0.9-2.2-1.8-3.3-2.7
			c-3-3-6.1-5.9-8.6-9.3c-0.5-0.6-1.2-1-1.2-1.9c2.4,0,4.9,0.1,7.3,0c0.9,0,1.7,0,2.6-0.2c2.1-0.3,4.1-0.8,6.1-1.2
			c0.2,0,0.4-0.1,0.5-0.3c0.2,0,0.5,0,0.7,0c1.5-0.5,3-0.8,4.4-1.4c1.6-0.7,3.1-1.5,4.6-2.3c0.1-0.1,0.1-0.1,0.2-0.2
			c0.1,0,0.2,0,0.3-0.1c1.6-1.2,3.3-2.1,4.6-3.7c1-1.1,1.8-2.4,2.4-3.7c0.9-1.9,1.6-3.9,1.9-6c0.2-1.3,0.6-2.6,0.6-3.9
			c0-1.3,0.1-2.6-0.1-4c-0.1-1.3-0.2-2.7-0.4-4c-0.3-1.6-0.7-3.2-1.3-4.7c-0.3-0.8-0.5-1.7-1-2.4c-0.3-0.8-0.8-1.4-1.2-2.1
			c-0.4-0.6-0.9-1.1-1.3-1.6c-1.5-1.9-3.6-2.6-5.9-2.9c-0.5-0.1-1-0.1-1.4,0.2C89.1,71,88,71.5,87,72.3c-1.8,1.5-3.1,3.2-4,5.3
			c-0.4,0.9-0.7,1.7-1.1,2.6c-0.4,0.8-0.8,0.8-1.4,0.1c-0.2-0.3-0.3-0.6-0.4-0.9c-0.4-0.9-0.7-1.9-1.2-2.8c-0.7-1.4-1.7-2.5-2.7-3.7
			c-0.5-0.6-1.2-1.1-2-1.4c-1.1-1.1-2.6-1.3-4-1.2c-2,0.1-3.6,1-5,2.4c-0.3,0.3-0.7,0.5-0.9,1c-0.8,1-1.5,2-2,3.1
			c-0.5,1-1,2.1-1.5,3.2c-0.1,0.3-0.4,0.7-0.7,0.7c-0.4,0-0.7-0.3-0.9-0.7c-0.3-0.7-0.6-1.4-0.9-2.1c-1-2.5-2.6-4.6-4.8-6.1
			c-0.8-0.5-1.6-1-2.6-1.1c-0.6-0.2-1.2-0.2-1.9-0.2c-0.1-1.1-0.2-2.3-0.3-3.4c-0.2-1.7-0.4-3.5-0.5-5.2c0.1,0,0.3,0,0.4,0.1
			c1.4,0.3,2.8,0.3,4.1-0.3c2.4-1.1,4-2.9,5.2-5.1c1.2-2.1,1.6-4.5,1.8-6.9c0.3-3,0-6-1-8.9c-1.3-3.7-3.6-6.5-7.6-7.5
			c0-0.2,0-0.4,0.1-0.5c0.6-2.1,1.2-4.2,1.7-6.3c0.5-1.8,1.2-3.5,1.8-5.2c1.5-4,3.3-7.7,5.3-11.4c0.3-0.6,0.7-1.3,1.1-1.9
			C61.4,7.5,61.5,7.3,61.4,7z M81.3,47.6c-0.1,0.1-0.1,0.1,0,0.2c0,0.1,0,0.2,0,0.3c-0.1,0.1,0,0.1,0,0.2c0,0.1,0,0.2,0,0.3
			c0,0,0,0,0,0c0,0,0,0.1,0,0.1c0,2.2,0.5,4.3,1.3,6.3c0.5,1.4,1.2,2.7,2.2,3.8c1.2,1.3,2.6,2.4,4.4,2.9c1.4,0.4,2.6,0.2,4-0.2
			c1.1-0.3,2-1,2.8-1.7c1.5-1.4,2.6-3,3.3-4.9c1.7-4.6,1.8-9.3,0.3-14c-0.8-2.5-2.2-4.6-4.3-6.2c-1.3-1-2.7-1.7-4.4-1.7
			c-1.1,0-2.1,0.2-3.1,0.8c-1.7,1-3.1,2.3-4.1,3.9C81.9,40.8,81.2,44.1,81.3,47.6z M61,47.9c0,0.9,0,2.1,0.2,3.3
			c0.3,2.1,1,4.1,2.1,6c1.2,2,2.7,3.7,5,4.5c2.4,0.8,4.8,0.4,6.8-1.2c2.4-1.8,3.7-4.5,4.5-7.4c0.6-2.2,0.7-4.4,0.6-6.7
			c-0.1-2.1-0.4-4.1-1.1-6.1c-1.1-3-3-5.4-6-6.8c-1.6-0.7-3.3-0.7-4.9,0c-1.8,0.8-3.3,2.2-4.4,3.8C61.6,40.5,61,44,61,47.9z"/>
		<path class="st21" d="M66.7,115.2c0.1,0.9,0.8,1.3,1.2,1.9c2.6,3.4,5.6,6.4,8.6,9.3c1,1,2.2,1.8,3.3,2.7c1.7,1.5,3.6,2.9,5.6,4.2
			c1.1,0.8,2.4,1.4,3.6,2.1c1.1,0.6,2.2,1.2,3.4,1.7c0.4,0.2,0.9,0.5,0.9,1.1c-2.5,0.7-5,1.6-7.6,2.1c-1.9,0.4-3.8,0.8-5.8,1
			c-1.6,0.1-3.2,0.4-4.9,0.5c-2.9,0.1-5.8,0.1-8.7,0.1c-1.1,0-2.2-0.3-3.3-0.4c-1.3-0.1-2.5-0.3-3.8-0.5c-1-0.2-1.9-0.4-2.9-0.6
			c-1.7-0.2-3.2-0.8-4.9-1.1c0-0.2-0.1-0.2-0.3-0.2c-2.8-0.8-5.5-1.7-8.2-2.9c-1-0.4-1.9-0.9-3-1.3c-0.4-0.2-0.8-0.4-1-0.8
			c-0.2-2.3-0.6-4.5-0.9-6.7c-0.1-0.9-0.3-1.8-0.4-2.7c0-0.3-0.2-0.5-0.5-0.6c-5.1-1.8-10-4.1-14.6-7.2c-2.9-1.9-5.6-4-7.8-6.8
			c-1.1-1.5-2.3-2.9-3.3-4.6c-0.7-1.2-1.3-2.4-1.8-3.6c-0.8-2.1-1.5-4.2-1.9-6.4c-0.7-3-0.6-6-0.5-9.1c0-0.9,0.3-1.8,1-2.5
			c1.3-1.2,3.8-1.1,4.9,0.4c0.7,1,1.3,2.1,2.1,3.1c0.8,1,1.8,2,2.9,2.7c2,1.2,4,2.5,6.3,3.1c1.3,0.3,2.5,0.7,3.8,1
			c0.7,0.2,0.8,0.1,0.8-0.6c0-15.1,0-30.1,0-45.2c0-1.4,0.2-2.8,0.2-4.2c0.1-2.6,0.7-5.1,1.4-7.6c1.1-3.8,2.5-7.5,4.7-10.9
			c1.6-2.5,3.4-4.8,5.5-6.9c1.2-1.2,2.4-2.5,3.8-3.6c1.6-1.3,3.4-2.5,5.3-3.5c1.3-0.7,2.6-1.5,4.1-2.1c2.4-0.9,4.8-1.9,7.4-2.3
			c0.1,0.3,0,0.5-0.2,0.8c-0.4,0.6-0.7,1.2-1.1,1.9c-2,3.7-3.8,7.5-5.3,11.4c-0.6,1.7-1.3,3.4-1.8,5.2c-0.6,2.1-1.2,4.2-1.7,6.3
			c0,0.2-0.1,0.4-0.1,0.5c-1.1,0-2.2-0.1-3.2,0.4c-2.1,0.9-3.7,2.4-4.9,4.4c-1.2,1.9-1.9,4.1-2.2,6.3c-0.5,3.8-0.3,7.5,1.2,11.1
			c1.2,2.9,3,5.4,6.2,6.5c0.1,1.7,0.3,3.5,0.5,5.2c0.1,1.1,0.2,2.3,0.3,3.4c-0.1,0-0.2,0.1-0.3,0.1c-1.3,0.1-2.5,0.6-3.5,1.3
			c-1.8,1.3-2.9,3.1-4,5c-0.1,0.1,0,0.3-0.1,0.4c-0.2,0-0.3,0.1-0.3,0.3c-0.4,0.9-0.8,1.7-1.1,2.7c-0.6,2.2-1.1,4.4-1.3,6.7
			c-0.3,3.1,0,6.2,0.5,9.2c0.4,2.4,1.2,4.6,2.4,6.7c1,1.6,2,3.2,3.4,4.4c1.3,1.1,2.9,1.9,4.2,2.9c0.1,0.1,0.2,0.1,0.4,0.1
			c1.7,0.8,3.4,1.6,5.2,2.4c0.3,0.1,0.6,0.2,0.9,0.3c0.8,0.2,1.6,0.3,2.4,0.6c0.7,0.3,1.5,0.4,2.2,0.5c0.6,0.1,1.1,0.2,1.7,0.3
			C63.3,114.7,65,115,66.7,115.2z"/>
		<path class="st48" d="M51.2,138.9c0.2,0,0.2,0.1,0.3,0.2C51.3,139.2,51.2,139,51.2,138.9z"/>
		<path class="st11" d="M66.7,115.2c-1.7-0.1-3.4-0.4-5.1-0.7c-0.6-0.1-1.1-0.2-1.7-0.3c0-0.2-0.1-0.4-0.1-0.6
			c-0.4-1.1-0.8-2.3-1.2-3.4c-0.5-1.5-1-3-1.6-4.5c-0.5-1.5-1.1-3.1-1.6-4.6c-0.3,0.2-0.3,0.6-0.5,0.8c-1.7,2.6-3.3,5.2-5,7.7
			c-0.2,0.3-0.3,0.6-0.6,0.7c-0.1,0-0.3,0-0.4-0.1c-1.3-1.1-2.9-1.8-4.2-2.9c-1.5-1.2-2.5-2.8-3.4-4.4c-1.2-2.1-2-4.4-2.4-6.7
			c-0.5-3-0.8-6.1-0.5-9.2c0.2-2.3,0.7-4.5,1.3-6.7c0.2-0.9,0.7-1.8,1.1-2.7c0.1-0.1,0.2-0.2,0.3-0.3c0.2,0,0.3,0.2,0.4,0.4
			c1.4,2.3,2.9,4.5,4.3,6.8c0.1,0.1,0.1,0.2,0.2,0.2c0.2-1.2,0.7-2.4,1.1-3.5c0.4-1.2,0.9-2.5,1.3-3.7c0.8-2.2,1.5-4.5,2.3-6.7
			c1,0.1,1.8,0.6,2.6,1.1c2.2,1.6,3.8,3.6,4.8,6.1c0.3,0.7,0.6,1.4,0.9,2.1c0.2,0.4,0.5,0.7,0.9,0.7c0.4,0,0.6-0.4,0.7-0.7
			c0.5-1,0.9-2.1,1.5-3.2c0.6-1.1,1.2-2.2,2-3.1c0.2,0,0.2,0.2,0.3,0.3c2.6,2.8,5.3,5.6,7.8,8.5c0.6-3.7,1.2-7.3,1.8-11
			c0.8,0.3,1.5,0.8,2,1.4c1,1.2,2,2.4,2.7,3.7c0.5,0.9,0.8,1.8,1.2,2.8c0.1,0.3,0.2,0.6,0.4,0.9c0.5,0.7,1,0.6,1.4-0.1
			c0.4-0.9,0.7-1.7,1.1-2.6c0.9-2.1,2.3-3.8,4-5.3c1-0.8,2.1-1.3,3.3-1.7c0.1,0.2,0.2,0.3,0.3,0.5c0.9,2.6,1.8,5.1,2.7,7.7
			c0.3,1,0.7,1.9,1,2.9c0.3,0.8,0.7,1.6,0.7,2.5c0,0.1-0.1,0.4,0.1,0.4c0.2,0,0.2-0.2,0.3-0.3c1.4-2.5,3-5,4.7-7.3
			c0.5,0.7,0.7,1.6,1,2.4c0.6,1.5,1,3.1,1.3,4.7c0.2,1.3,0.3,2.7,0.4,4c0.1,1.3,0.1,2.6,0.1,4c0,1.3-0.4,2.6-0.6,3.9
			c-0.3,2.1-1.1,4.1-1.9,6c-0.6,1.3-1.4,2.6-2.4,3.7c-1.3,1.6-3,2.5-4.6,3.7c-0.1,0.1-0.2,0-0.3,0.1c-1.5-2.3-3-4.6-4.4-6.9
			c-0.3-0.4-0.6-0.9-0.9-1.3c-0.1-0.1-0.2-0.2-0.3-0.1c-0.1,0-0.1,0.1-0.1,0.2c0,0.9-0.5,1.7-0.7,2.6c-0.4,1.4-0.9,2.8-1.4,4.1
			c-0.6,1.8-1.3,3.6-2.1,5.4c-0.1,0.2-0.3,0.2-0.5,0.3c-2,0.4-4.1,0.9-6.1,1.2c-0.8,0.1-1.7,0.1-2.6,0.2
			C71.6,115.2,69.1,115.2,66.7,115.2z M71.8,105.2c2.5,0,4.7-0.3,6.7-1.1c2.1-0.9,4-2.1,5.2-4.2c1.3-2.3,1.4-4.7,0-7
			c-1.2-2-3-3.2-5.1-4c-2.8-1.1-5.8-1.5-8.8-1c-3.1,0.5-5.9,1.6-8,4.1c-1.7,1.9-2.3,4.1-1.5,6.5c0.6,1.8,1.8,3.1,3.3,4.2
			C66.1,104.5,69,105.1,71.8,105.2z"/>
		<path class="st3" d="M48.2,61.8c-3.2-1.1-5-3.6-6.2-6.5c-1.5-3.6-1.7-7.3-1.2-11.1c0.3-2.3,1-4.4,2.2-6.3c1.2-2,2.8-3.4,4.9-4.4
			c1-0.5,2.1-0.4,3.2-0.4c4,1,6.3,3.8,7.6,7.5c1,2.9,1.3,5.9,1,8.9c-0.2,2.4-0.7,4.7-1.8,6.9c-1.2,2.2-2.8,4-5.2,5.1
			c-1.3,0.6-2.7,0.6-4.1,0.3C48.5,61.8,48.4,61.8,48.2,61.8z M50.2,42.5c-2.7-0.1-4.9,2.1-5,5.1c-0.1,2.9,2.7,5.2,5,5.1
			c2.9-0.1,5-2.2,5.2-5.2C55.5,45.4,53.5,42.3,50.2,42.5z"/>
		<path class="st3" d="M81.3,48.6c0-0.1,0-0.2,0-0.3c0-0.1,0-0.1,0-0.2c0-0.1,0-0.2,0-0.3c0-0.1,0-0.1,0-0.2
			c-0.1-3.5,0.6-6.8,2.4-9.8c1-1.6,2.4-3,4.1-3.9c1-0.6,2-0.8,3.1-0.8c1.7,0,3.1,0.7,4.4,1.7c2.1,1.6,3.5,3.7,4.3,6.2
			c1.5,4.7,1.4,9.4-0.3,14c-0.7,1.9-1.8,3.5-3.3,4.9c-0.8,0.7-1.7,1.4-2.8,1.7c-1.3,0.3-2.5,0.5-4,0.2c-1.9-0.5-3.2-1.6-4.4-2.9
			c-1-1.1-1.6-2.4-2.2-3.8c-0.8-2-1.2-4.2-1.3-6.3C81.3,48.7,81.3,48.6,81.3,48.6z M90.9,42.5c-2.2-0.2-5.3,2.2-5.2,5.1
			c0.1,2.8,2.2,5.2,5.3,5.1c2.8-0.1,5.1-2.5,4.9-5.4C95.8,45,93.9,42.3,90.9,42.5z"/>
		<path class="st3" d="M61,47.9c0-3.9,0.6-7.4,2.7-10.5c1.1-1.7,2.6-3,4.4-3.8c1.6-0.7,3.3-0.7,4.9,0c3,1.4,4.9,3.8,6,6.8
			c0.7,2,1,4,1.1,6.1c0.1,2.3-0.1,4.5-0.6,6.7c-0.7,2.9-2.1,5.5-4.5,7.4c-2,1.5-4.3,2-6.8,1.2c-2.3-0.8-3.8-2.5-5-4.5
			c-1.1-1.8-1.7-3.9-2.1-6C61,50,60.9,48.8,61,47.9z M75.7,47.4c0.2-2.2-1.9-4.8-4.8-5c-3.1-0.2-5.4,2.3-5.4,5c0,3,2.1,5.1,4.8,5.2
			C73.3,52.8,75.8,50.4,75.7,47.4z"/>
		<path class="st3" d="M50.8,70.6c-0.9,2.2-1.5,4.5-2.3,6.7c-0.4,1.2-0.9,2.5-1.3,3.7c-0.4,1.2-0.9,2.3-1.1,3.5
			c-0.2,0-0.2-0.1-0.2-0.2c-1.4-2.3-2.9-4.5-4.3-6.8c-0.1-0.2-0.2-0.4-0.4-0.4c0-0.1,0-0.3,0.1-0.4c1.1-1.8,2.2-3.7,4-5
			c1.1-0.7,2.2-1.2,3.5-1.3c0.1,0,0.2-0.1,0.3-0.1C49.6,70.4,50.2,70.5,50.8,70.6z"/>
		<path class="st3" d="M100.2,77.1c-1.7,2.3-3.3,4.8-4.7,7.3c-0.1,0.1-0.1,0.3-0.3,0.3c-0.3,0-0.1-0.3-0.1-0.4
			c-0.1-0.9-0.5-1.7-0.7-2.5c-0.3-1-0.6-2-1-2.9c-0.9-2.6-1.8-5.1-2.7-7.7c-0.1-0.2-0.2-0.3-0.3-0.5c0.4-0.3,0.9-0.3,1.4-0.2
			c2.3,0.3,4.4,1,5.9,2.9c0.4,0.5,1,1,1.3,1.6C99.4,75.6,99.9,76.3,100.2,77.1z"/>
		<path class="st3" d="M74.2,71.6c-0.6,3.7-1.2,7.3-1.8,11c-2.5-2.9-5.2-5.7-7.8-8.5c-0.1-0.1-0.2-0.2-0.3-0.3
			c0.1-0.5,0.6-0.7,0.9-1c1.4-1.4,3-2.3,5-2.4C71.6,70.3,73.1,70.5,74.2,71.6z"/>
		<path class="st3" d="M83.2,113.6c0.8-1.8,1.4-3.6,2.1-5.4c0.5-1.4,1-2.7,1.4-4.1c0.2-0.8,0.7-1.6,0.7-2.6c0-0.1,0.1-0.2,0.1-0.2
			c0.1-0.1,0.2,0,0.3,0.1c0.3,0.4,0.6,0.8,0.9,1.3c1.5,2.3,3,4.6,4.4,6.9c0,0.1,0,0.2-0.2,0.2c-1.5,0.8-3,1.7-4.6,2.3
			c-1.4,0.6-2.9,1-4.4,1.4C83.7,113.6,83.4,113.5,83.2,113.6z"/>
		<path class="st47" d="M81.3,47.6c0,0.1,0,0.1,0,0.2C81.2,47.7,81.2,47.7,81.3,47.6z"/>
		<path class="st47" d="M81.3,48.1c0,0.1,0,0.1,0,0.2C81.2,48.2,81.2,48.2,81.3,48.1z"/>
		<path class="st47" d="M81.3,48.6c0,0,0,0.1,0,0.1C81.3,48.7,81.3,48.7,81.3,48.6C81.3,48.6,81.3,48.6,81.3,48.6z"/>
		<path class="st3" d="M49.3,110.3c0.3-0.1,0.5-0.4,0.6-0.7c1.7-2.6,3.3-5.2,5-7.7c0.2-0.3,0.2-0.7,0.5-0.8c0.6,1.6,1.1,3.1,1.6,4.6
			c0.5,1.5,1,3,1.6,4.5c0.4,1.2,0.8,2.3,1.2,3.4c0.1,0.2,0.2,0.4,0.1,0.6c-0.8-0.1-1.5-0.2-2.2-0.5c-0.7-0.3-1.6-0.5-2.4-0.6
			c-0.3-0.1-0.6-0.2-0.9-0.3C52.7,111.9,51,111.1,49.3,110.3z"/>
		<path class="st27" d="M71.8,105.2c-2.7-0.1-5.7-0.7-8.3-2.6c-1.5-1.1-2.7-2.4-3.3-4.2c-0.8-2.5-0.2-4.6,1.5-6.5
			c2.1-2.4,4.9-3.6,8-4.1c3.1-0.5,6-0.1,8.8,1c2.1,0.8,3.9,2.1,5.1,4c1.4,2.3,1.4,4.7,0,7c-1.2,2.1-3.1,3.3-5.2,4.2
			C76.4,104.9,74.3,105.2,71.8,105.2z"/>
		<path class="st11" d="M50.2,42.5c3.3-0.2,5.3,2.9,5.2,5.1c-0.1,2.9-2.2,5.1-5.2,5.2c-2.4,0.1-5.1-2.3-5-5.1
			C45.2,44.5,47.5,42.4,50.2,42.5z"/>
		<path class="st11" d="M90.9,42.5c3-0.1,4.9,2.5,5.1,4.8c0.2,2.9-2.1,5.3-4.9,5.4c-3.1,0.1-5.2-2.4-5.3-5.1
			C85.7,44.6,88.7,42.2,90.9,42.5z"/>
		<path class="st11" d="M75.7,47.4c0.1,3-2.3,5.4-5.4,5.2c-2.7-0.1-4.8-2.1-4.8-5.2c0-2.7,2.3-5.2,5.4-5
			C73.7,42.6,75.9,45.3,75.7,47.4z"/>
	</g>
</g>
</svg>
