<?xml version="1.0" encoding="utf-8"?>
<!-- Generator: Adobe Illustrator 27.3.1, SVG Export Plug-In . SVG Version: 6.00 Build 0)  -->
<svg version="1.1" id="Ebene_1" xmlns="http://www.w3.org/2000/svg" xmlns:xlink="http://www.w3.org/1999/xlink" x="0px" y="0px"
	 viewBox="0 0 141.7 141.7" style="enable-background:new 0 0 141.7 141.7;" xml:space="preserve">
<style type="text/css">
	.st0{fill:#F6BB37;}
	.st1{fill:#3684C6;}
	.st2{fill:#DCA12A;}
	.st3{fill:#FCFCFE;}
	.st4{fill:#E97E2F;}
	.st5{fill:#28273D;}
	.st6{fill:#7F65AA;}
	.st7{fill:#B49ECB;}
	.st8{fill:#66529D;}
	.st9{fill:#33314C;}
	.st10{fill:#35ACC6;}
	.st11{fill:#27263D;}
	.st12{fill:#DB191D;}
	.st13{fill:#42BEE1;}
	.st14{fill:#EE715E;}
	.st15{fill:#396CB3;}
	.st16{fill:#EA5B4C;}
	.st17{fill:#F2C551;}
	.st18{fill:#27273D;}
	.st19{fill:#B0CF6D;}
	.st20{fill:#28263D;}
	.st21{fill:#9E4A30;}
	.st22{fill:#DB1E1D;}
	.st23{fill:#FBFBFD;}
	.st24{fill:#A3C163;}
	.st25{fill:#3F426D;}
	.st26{fill:#33304C;}
	.st27{fill:#DB181D;}
	.st28{fill:#83C4ED;}
	.st29{fill:#B6622B;}
	.st30{fill:#AB795E;}
	.st31{fill:#88C7EE;}
	.st32{fill:#9BB7CC;}
	.st33{fill:#E97F31;}
	.st34{fill:#CD6F2C;}
	.st35{fill:#A8A4A6;}
	.st36{fill:#84C4EC;}
	.st37{fill:#FEFEFE;}
	.st38{fill:#D91F1D;}
	.st39{fill:#F29454;}
	.st40{fill:#3C86C6;}
	.st41{fill:#F8FAFD;}
	.st42{fill:#AD8ABF;}
	.st43{fill:#67529E;}
	.st44{fill:#F6D373;}
	.st45{fill:#29273D;}
	.st46{fill:#EE715D;}
	.st47{fill:#F9C6BD;}
	.st48{fill:#A65E3A;}
	.st49{fill:#F18B88;}
	.st50{fill:#82C2EC;}
	.st51{fill:#E28080;}
	.st52{fill:#D57474;}
	.st53{fill:#4F5173;}
	.st54{fill:#3785C6;}
	.st55{fill:#E84680;}
	.st56{fill:#28273E;}
	.st57{fill:#E13072;}
	.st58{fill:#F5BA37;}
	.st59{fill:#F3C651;}
	.st60{fill:#DB5144;}
	.st61{fill:#A17FB8;}
	.st62{fill:#AC8ABE;}
	.st63{fill:#342E4F;}
	.st64{fill:#2DAC64;}
	.st65{fill:#5CB993;}
	.st66{fill:#9DBA5C;}
	.st67{fill:#5AB992;}
	.st68{fill:#66529E;}
	.st69{fill:#EA5A4C;}
	.st70{fill:#12994E;}
	.st71{fill:#DE5044;}
	.st72{fill:#EE715F;}
	.st73{fill:#E97F2F;}
	.st74{fill:#A89AC9;}
	.st75{fill:#38B3CD;}
	.st76{fill:#DD3D78;}
	.st77{fill:#F5D373;}
	.st78{fill:#FDEAB4;}
	.st79{fill:#7F66AA;}
	.st80{fill:#3885C6;}
	.st81{fill:#40436D;}
	.st82{fill:#A99ACA;}
	.st83{fill:#34314B;}
	.st84{fill:#F4D273;}
	.st85{fill:#83C5ED;}
	.st86{fill:#D29C2C;}
	.st87{fill:#87C7EE;}
	.st88{fill:#F6BB38;}
	.st89{fill:#F6BB3A;}
	.st90{fill:#E83D69;}
	.st91{fill:#F4BC3F;}
	.st92{fill:#85C5EB;}
	.st93{fill:#DA1E1D;}
	.st94{fill:#DDA736;}
	.st95{fill:#F18D88;}
	.st96{fill:#FFFEFE;}
	.st97{fill:#F9C8BC;}
	.st98{fill:#3B85C6;}
</style>
<g id="Vi2Vrc.tif">
	<g>
		<path class="st0" d="M74.2,141.5c-0.9-0.1-1.7,0.2-2.5,0.2c-0.8,0-1.6-0.1-2.4-0.1c-1.7,0-3.3-0.2-5-0.3c-3.2-0.3-6.4-0.9-9.5-1.6
			c-3.2-0.7-6.4-1.7-9.4-2.9c-4.2-1.6-8.2-3.6-12-6c-0.5-0.3-1.1-0.7-1.6-1c-1.3-0.9-2.7-1.8-3.9-2.8c-0.8-0.7-1.8-1.3-2.6-2.1
			c-1.8-1.7-3.8-3.2-5.4-5c-1.3-1.5-2.8-2.9-3.9-4.6c-0.4-0.6-1-1.1-1.3-1.6c-1-1.5-2.1-3-3.1-4.5c-1.7-2.7-3.2-5.4-4.6-8.3
			C6.1,99.4,5.6,98,5,96.5c-0.7-1.7-1.3-3.5-1.9-5.3c-0.6-1.9-1.1-3.8-1.5-5.7c-0.7-3.2-1.1-6.4-1.4-9.6C0,73.6,0,71.4,0,69.2
			c0.1-2,0.1-4,0.4-6c0.5-3.3,1-6.6,1.8-9.8c1.4-5.5,3.5-10.8,6.2-15.9c2-3.8,4.4-7.4,7.1-10.8c2.1-2.7,4.4-5.2,6.9-7.5
			c2.3-2.2,4.8-4.2,7.4-6.1c3.5-2.4,7.2-4.6,11-6.4c2-0.9,4.1-1.8,6.2-2.5c1.1-0.4,2.3-0.9,3.4-1.2c1.1-0.3,2.2-0.6,3.3-0.9
			c1.2-0.3,2.4-0.6,3.6-0.8c1.4-0.3,2.9-0.5,4.3-0.7c1.4-0.2,2.8-0.4,4.2-0.4c1.1,0,2.2-0.3,3.3-0.1C69.6,0.3,70,0,70.4,0
			c2.1,0,4.1,0.2,6.2,0.3c2.4,0.1,4.7,0.6,7.1,1c2.3,0.4,4.5,0.9,6.7,1.6c1.8,0.5,3.5,1.1,5.3,1.8c1.8,0.7,3.5,1.4,5.3,2.2
			c2,0.9,3.9,2,5.8,3.1c1.1,0.6,2.3,1.1,3.2,1.9c1.5,1.3,3.2,2.3,4.8,3.6c1.4,1.1,2.7,2.3,4.1,3.5c2.7,2.4,5.1,5.1,7.4,7.9
			c3.5,4.4,6.5,9.2,8.9,14.3c1.3,2.8,2.4,5.7,3.4,8.7c0.8,2.4,1.3,4.9,1.9,7.4c0.4,1.6,0.4,3.2,0.8,4.8c0.2,0.8-0.1,1.7,0.1,2.4
			c0.2,0.8,0.1,1.7,0.2,2.5c0.3,1.6,0.2,3.2,0.2,4.8c0,1.5-0.1,2.9-0.3,4.4c-0.1,1-0.2,1.9-0.3,2.9c-0.1,1.5-0.4,2.9-0.6,4.4
			c-0.1,0.7-0.2,1.4-0.4,2c-0.1,0.6-0.3,1.2-0.5,1.7c-0.2,0.5-0.2,0.9-0.3,1.4c-0.1,1.2-0.6,2.3-0.9,3.4c-0.2,0.8-0.6,1.6-0.9,2.5
			c-0.4,1-0.8,2.1-1.2,3.1c-0.2,0.3-0.1,0.8-0.5,1c0.3,0.6-0.3,0.8-0.4,1.3c-0.8,2.1-1.8,4.1-3,5.9c-0.5,0.8-0.8,1.6-1.4,2.3
			c-0.4,0.4-0.5,0.9-0.8,1.4c-1.8,2.7-3.6,5.3-5.8,7.7c-0.8,0.9-1.6,2-2.4,2.8c-1.3,1.2-2.6,2.4-3.8,3.6c-1,1-2.1,1.8-3.2,2.7
			c-1,0.8-2.1,1.6-3.2,2.4c-1.3,0.9-2.5,1.7-3.8,2.5c-0.8,0.5-1.5,1.1-2.3,1.5c-1.6,0.8-3.1,1.6-4.8,2.4c-2.9,1.3-5.8,2.5-8.8,3.4
			c-4.1,1.3-8.3,2.2-12.6,2.7C77.7,141.3,76,141.4,74.2,141.5z M21.2,106L21.2,106c0,0.3,0.1,0.6,0.4,0.7c0.1,0.3,0.2,0.6,0.4,0.8
			c0.9,1.4,1.8,2.9,2.7,4.3c1.4,2.1,2.9,4.1,4.6,5.9c0.2,0.3,0.3,0.7,0.8,0.8c0.1,0.4,0.4,0.6,0.7,0.9c1.7,1.6,3.2,3.4,5.2,4.8
			c1.2,0.9,2.3,1.7,3.5,2.6c0.7,0.5,1.4,0.9,2,1.3c0.8,0.6,1.7,1.1,2.6,1.6c0.8,0.4,1.6,0.8,2.5,1.2c1.6,0.7,3.2,1.6,4.9,2.1
			c0.8,0.3,1.5,0.8,2.4,0.8c0.1,0,0.2,0.1,0.3,0.1c0.8,0.4,1.6,0.6,2.4,0.8c0.8,0.2,1.6,0.6,2.5,0.5c0.7,0,1.2,0.5,1.8,0.4
			c0.7,0,1.5,0,2.2,0.3c0.4,0.2,0.9,0.3,1.4,0.2c1.4-0.1,2.7,0.1,4,0.3c0.7,0.1,1.4,0,2,0.1c0.7,0.1,1.5,0.1,2.2,0
			c1.6-0.2,3.3-0.6,4.9-0.4c0.5,0,1-0.1,1.6-0.3c1.3-0.3,2.6-0.3,3.8-0.7c0,0,0,0,0.1,0c0.5,0,1-0.1,1.5-0.4
			c0.2-0.1,0.4-0.3,0.5-0.2c0.9,0.2,1.6-0.5,2.5-0.6c1-0.1,1.9-0.6,2.9-0.9c0.8-0.3,1.7-0.6,2.5-1c2-0.9,4-1.8,5.9-2.9
			c1-0.6,2-1.2,3-1.8c1.5-0.9,2.9-1.9,4.2-3c1.4-1.2,2.9-2.1,4.1-3.5c0.7-0.8,1.6-1.5,2.2-2.4c1-1.2,2-2.3,2.9-3.5
			c1.5-1.9,2.8-3.8,4-5.8c1.8-3,3.3-6.2,4.6-9.6c1-2.6,1.8-5.3,2.3-8c0.3-1.6,0.5-3.1,0.7-4.7c0.1-1,0.1-2.1,0.3-3.1
			c0.2-2,0.1-4.1,0-6.1c0-0.4,0-0.8-0.2-1.1c0-1.1-0.3-2.2-0.3-3.4c0-1.3-0.4-2.6-0.4-3.9c1-0.4,1.9-1.1,2.9-1.7
			c2.2-1.2,4.3-2.4,6.5-3.6c1-0.6,1.8-1.4,1.7-2.7c-0.1-1.3-0.8-2.2-2.1-2.6c-0.4-0.1-0.8-0.2-1.2-0.3c-2.3-0.4-4.5-0.8-6.8-1.2
			c-1.7-0.3-3.5-0.7-5.2-1c-0.7-1-1.2-2.1-1.7-3.2c0.4-0.5,0.8-1,1.2-1.5c2.7-3.3,5.4-6.6,8.1-10c0.7-0.8,1.1-1.7,1.1-2.8
			c-0.1-1.8-1.6-3.3-3.4-3.4c-1,0-2,0.1-2.9,0.3c-5.1,1-10.1,2-15.2,2.9c-0.3-0.1-0.6-0.2-0.8-0.4c-1.3-1.3-2.7-2.2-4.1-3.4
			c0-0.5,0.2-1,0.3-1.4c1.1-4.6,2.1-9.1,3.2-13.7c0.2-0.7,0.2-1.5,0-2.2c-0.7-2.7-3.6-3.4-5.3-2.2c-2.1,1.4-4.1,2.9-6.1,4.4
			c-0.9,0.7-1.8,1.4-2.7,2c-1.4,1.1-2.8,2.1-4.2,3.2c-0.7,0.5-1.5,1-2.1,1.6c-1.3-0.3-2.6-0.8-4-1.1c-0.6-0.1-1-0.5-1.7-0.4
			c-0.6,0.1-1.1-0.2-1.4-0.6c-0.8-2.2-1.5-4.4-2.2-6.6c-0.6-1.7-1.1-3.5-1.6-5.2c-0.2-0.8-0.7-1.5-0.6-2.4c-0.8-0.6-0.4-1.8-1.2-2.4
			c0-0.9-0.6-1.6-0.8-2.4c-0.1-0.2-0.2-0.5-0.5-0.5c-0.3,0-0.5-0.2-0.7-0.3c-0.9-0.4-1.8-0.6-2.8-0.2c-1.3,0.5-2,1.5-2.5,2.7
			c-1,2.4-1.9,4.9-2.9,7.3c-0.7,1.8-1.2,3.6-2.3,5.3c0.2,0.6-0.3,1.1-0.4,1.6c-0.4,1.2-1,2.4-1.5,3.6c-1.3,0.4-2.6,0.9-4,1.2
			c-0.7,0.2-1.4,0.6-2.2,0.4c-0.4-0.6-1-0.9-1.6-1.3c-2.1-1.7-4.3-3.2-6.4-4.9c-2.1-1.6-4.3-3.1-6.5-4.7c-0.7-0.5-1.5-0.7-2.4-0.7
			c-1.9,0-3.9,2-3.4,4.4c0.3,1.6,0.8,3.2,1.1,4.7c0.9,3.7,1.8,7.4,2.5,11.1c-0.1,0.1-0.2,0.2-0.3,0.3c-1.3,1-2.6,1.9-3.7,3.1
			c-0.1,0.2-0.3,0.2-0.6,0.2c-0.5-0.1-1-0.2-1.5-0.3c-4-0.8-8.1-1.6-12.1-2.4c-1.6-0.3-3.1-0.7-4.7-0.7c-1.3,0-2.8,1-3.2,2.2
			C10.8,39,11,40.3,12,41.4c1.2,1.4,2.1,3,3.4,4.3c0.4,0.4,0.7,1,1.1,1.4c1.2,1.1,2,2.5,3.1,3.7c0.7,0.8,1.2,1.7,2.1,2.4
			c-0.3,1-0.8,2-1.4,2.9c-0.2,0-0.4,0-0.7,0.1c-1,0.2-1.9,0.5-2.9,0.6c-2.6,0.4-5.2,1-7.8,1.4c-1.1,0.2-2.2,0.3-3.2,0.9
			c-1.3,0.7-1.8,2.6-0.8,4C5.4,63.7,6,64,6.7,64.4c2.5,1.4,5,2.9,7.5,4.2c0.5,0.3,0.8,0.9,1.6,0.9c0.2,0.6-0.1,1.1-0.1,1.7
			c-0.2,1-0.4,1.9-0.3,2.9C15,75.7,15,77.3,15,78.9c-0.2,1.2-0.2,2.4,0,3.7c0,0.9,0,1.8,0.1,2.7c0.2,1.9,0.3,3.8,0.7,5.6
			c0.3,1.5,0.6,2.9,1,4.4c0.2,0.8,0.4,1.7,0.8,2.5c0.1,0.4,0,0.8,0.4,1.1l0,0c0,0.2,0.1,0.3,0.1,0.5c0,0.1,0,0.2,0,0.2
			c0.5,1.3,1,2.5,1.6,3.8c0,0.2,0.1,0.3,0.2,0.4l0,0c0.1,0.4,0.2,0.7,0.5,1l0,0c0,0.1,0,0.2,0.1,0.3l0,0c0.1,0.3,0.1,0.6,0.4,0.7
			l0,0C21,105.8,21.1,105.9,21.2,106z"/>
		<path class="st6" d="M104.3,34.9c1.3,1.2,2.8,2.2,4.1,3.4c0.2,0.2,0.5,0.3,0.8,0.4c0,0.3,0.2,0.5,0.4,0.6c1.8,1.6,3.3,3.4,4.9,5.2
			c1.9,2.3,3.7,4.8,5.2,7.4c0.2,0.4,0.3,0.8,0.7,1.1c0.5,1.1,1,2.2,1.7,3.2c0.2,1,0.8,1.8,1.1,2.7c1.2,3.2,2.1,6.4,2.9,9.6
			c0.1,0.3,0.1,0.6,0.3,0.9c0,1.3,0.4,2.6,0.4,3.9c0,1.1,0.3,2.2,0.3,3.4c0.2,2.4,0.1,4.8,0.1,7.2c-0.2,1-0.2,2.1-0.3,3.1
			c-0.2,1.6-0.5,3.1-0.7,4.7c-0.5,2.8-1.3,5.4-2.3,8c-1.2,3.3-2.7,6.5-4.6,9.6c-1.2,2-2.5,4-4,5.8c-0.9,1.2-2,2.3-2.9,3.5
			c-0.3,0-0.5-0.1-0.5-0.5c0-0.3,0-0.5,0-0.8c-0.8-3.3-2.1-6.5-4.1-9.3c-1.8-2.6-3.9-5-6.3-7c-2.2-1.8-4.5-3.5-7.1-4.8
			c-2-1-4-2-6.1-2.7c-3-1-6.2-1.7-9.3-2.2c-2.9-0.5-5.8-0.7-8.8-0.6c-2.6,0-5.1,0.4-7.6,0.7c-4.4,0.7-8.6,2-12.6,3.9
			c-4.5,2.1-8.5,4.9-11.9,8.5c-1.4,1.5-2.7,3.1-3.7,4.8c0,0-0.1,0.1-0.1,0.1c0-0.3-0.1-0.5-0.2-0.8c-0.5-1-1.2-1.9-1.6-3
			c-0.2-0.4-0.4-0.8-0.4-1.3c1,0.5,1.3,0.7,2.6,0.4c2.3-0.4,3.5-2.8,2.6-4.9c-0.5-1.2-1.5-2-2.9-2.2c-1.1-0.1-3,0.4-3.6,1.8
			c-0.1,0.3-0.1,0.8-0.4,0.8c-0.4,0-0.3-0.6-0.4-0.9c-0.6-1.7-1.1-3.4-1.6-5.1c-0.1-0.4-0.1-0.8,0.3-1.2c1.3-0.9,0.9-2.9-0.8-3.5
			c-0.4-0.1-0.5-0.3-0.6-0.7c0-0.4,0-0.8-0.1-1.2c-0.4-2.4-0.4-4.9-0.4-7.4c0-1.1,0.1-2.1,0.1-3.2c0-0.2,0-0.4,0-0.6
			c0.2-1.7,0.5-3.4,0.7-5.1c0.3-2.4,0.9-4.8,1.7-7.1c1.2-3.9,2.9-7.6,4.9-11.2c1.2-2,2.4-4,3.8-5.9c0.9-1.3,2-2.5,3.1-3.7
			c1.3-1.5,2.7-2.9,4.3-4.2c0.8-0.7,1.7-1.4,2.5-2.1c1.6-1.5,3.5-2.6,5.2-3.8c0.7-0.5,1.5-0.8,2.3-1.3c2.2-1.3,4.6-2.3,6.9-3.3
			c2.3-1,4.7-1.6,7.1-2.2c1.5-0.4,3-0.7,4.5-0.9c0.6-0.1,1.4,0,1.8-0.7c0.1,0,0.2,0,0.4,0c1.2,0.2,2.3,0.4,3.5,0.5
			c0.4,0.1,0.9,0.3,1.3-0.2c0.4,0.4,0.8,0.7,1.4,0.6c0.6-0.1,1.1,0.3,1.7,0.4c1.4,0.3,2.6,0.7,4,1.1c0.8,0.2,1.5,0.4,2.3,0.6
			c0.9,0.3,1.8,0.7,2.7,0.9c0.4,0.1,0.9,0.3,1.3,0.5c0.7,0.4,1.4,0.8,2.1,1.1c0.9,0.4,1.9,0.9,2.8,1.3c1.1,0.6,2.1,1.2,3.1,1.9
			c0.6,0.4,1.2,0.7,1.6,1.3C103.6,34.7,103.9,34.8,104.3,34.9z M87.4,66.9c0.2-8.2-6.1-15.8-15.1-16.6c-8.9-0.7-17.2,6.1-17.7,15.4
			c-0.5,8.8,6.1,16.9,15.8,17.3C79,83.5,87.2,76.8,87.4,66.9z M45.8,91c3.9,0.1,7.1-2.9,7.2-6.8c0-3.8-3-7.1-7.4-6.9
			c-3.1,0.2-6.4,2.8-6.4,6.9C39.2,87.6,42.2,91,45.8,91z M102.9,84c0.2-3.6-3.1-6.9-6.9-6.8c-3.6,0-6.9,3-6.8,7
			c0,3.7,3.3,6.9,7.1,6.8C99.8,90.9,103.1,87.8,102.9,84z M104.7,100.6c0,1.9,1.7,3.6,3.6,3.6c2,0,3.6-1.5,3.7-3.6
			c0.1-1.8-1.7-3.6-3.3-3.7C106.3,96.9,104.7,98.6,104.7,100.6z M116.6,95.9c-1.4,0-2.6,1.1-2.6,2.5c0,1.4,1.1,2.5,2.5,2.5
			c1.2,0.1,2.7-1.1,2.6-2.6C119.2,97,118,95.9,116.6,95.9z M112.8,91.1c0,1.1,1.1,2.1,1.9,2.1c1.3,0,2.4-1,2.4-2.2
			c0-1.1-0.9-2-2.2-2.1C113.8,88.9,112.8,89.9,112.8,91.1z M107.7,91.1c-1.1,0-2.3,1.1-2.3,2.1c0,1,1.2,2.1,2.2,2.1
			c1.3,0,2.2-0.8,2.2-2.2C109.9,92,109,91.1,107.7,91.1z M36.3,93.2c0-1.1-1-2.1-2.1-2.1c-1.2,0-2.1,0.9-2.1,2.1
			c0,0.9,0.9,2.2,1.5,2.2C35.5,95.3,36.2,94.5,36.3,93.2z"/>
		<path class="st7" d="M34,108.7c0,0,0.1-0.1,0.1-0.1c1-1.8,2.3-3.3,3.7-4.8c3.4-3.6,7.4-6.4,11.9-8.5c4-1.9,8.2-3.2,12.6-3.9
			c2.5-0.4,5-0.7,7.6-0.7c2.9-0.1,5.9,0.1,8.8,0.6c3.2,0.6,6.3,1.2,9.3,2.2c2.1,0.7,4.1,1.7,6.1,2.7c2.6,1.3,4.9,3,7.1,4.8
			c2.5,2,4.5,4.4,6.3,7c2,2.8,3.2,6,4.1,9.3c0.1,0.3,0.1,0.5,0,0.8c0,0.4,0.2,0.5,0.5,0.5c-0.5,1-1.5,1.6-2.2,2.4
			c-1.2,1.4-2.8,2.3-4.1,3.5c-1.3,1.1-2.7,2.1-4.2,3c-1,0.6-2,1.2-3,1.8c-1.9,1.2-3.9,2.1-5.9,2.9c-0.8,0.3-1.7,0.6-2.5,1
			c-0.9,0.4-1.9,0.9-2.9,0.9c-0.9,0.1-1.5,0.8-2.5,0.6c-0.2,0-0.4,0.1-0.5,0.2c-0.5,0.2-0.9,0.4-1.5,0.4c0,0,0,0-0.1,0
			c-1.2,0.5-2.6,0.4-3.8,0.7c-0.5,0.1-1,0.3-1.6,0.3c-1.7-0.1-3.3,0.3-4.9,0.4c-0.7,0.1-1.5,0.1-2.2,0c-0.7-0.1-1.3,0-2-0.1
			c-1.3-0.2-2.7-0.4-4-0.3c-0.5,0-0.9-0.1-1.4-0.2c-0.7-0.3-1.4-0.3-2.2-0.3c-0.7,0-1.2-0.5-1.8-0.4c-0.9,0.1-1.7-0.3-2.5-0.5
			c-0.8-0.2-1.7-0.3-2.4-0.8c-0.1-0.1-0.2-0.1-0.3-0.1c-0.9,0.1-1.6-0.5-2.4-0.8c-1.7-0.5-3.2-1.4-4.9-2.1c-0.9-0.4-1.7-0.8-2.5-1.2
			c-0.9-0.5-1.8-1-2.6-1.6c-0.7-0.5-1.4-0.9-2-1.3c-1.2-0.8-2.3-1.7-3.5-2.6c-1.9-1.4-3.4-3.2-5.2-4.8c-0.3-0.3-0.6-0.5-0.7-0.9
			c0.2-0.2,0.2-0.4,0.3-0.7c0.5-1.8,1-3.6,1.7-5.4C32.5,111.2,33.3,110,34,108.7z M71.2,106.4c1.7-0.1,3.5-0.3,5.4-0.9
			c2.9-0.8,5.3-2.5,7.4-4.7c1.4-1.5,1.5-2.7,0.3-4.4c-1-1.4-2.9-1.8-4.3-0.9c-0.6,0.4-1.3,0.9-1.9,1.4c-3.4,2.5-7,3-11,1.7
			c-1.7-0.6-3.1-1.7-4.6-2.7c-1.6-1.2-2.7-1.2-4.3,0c-1.1,0.8-1.9,2.7-0.8,4.2c0.3,0.4,0.6,0.8,1,1.1c0.5,0.5,1,0.9,1.6,1.4
			c1.3,1.2,2.9,2,4.5,2.6C66.5,105.9,68.7,106.3,71.2,106.4z"/>
		<path class="st8" d="M34,108.7c-0.7,1.3-1.5,2.5-2,3.8c-0.7,1.7-1.2,3.5-1.7,5.4c-0.1,0.2-0.1,0.5-0.3,0.7c-0.5,0-0.5-0.5-0.8-0.8
			c-1.7-1.9-3.2-3.9-4.6-5.9c-0.9-1.4-1.8-2.9-2.7-4.3c-0.2-0.3-0.2-0.6-0.4-0.8c-0.1-0.3-0.2-0.5-0.4-0.7c0,0,0,0,0,0
			c0-0.1,0-0.2-0.1-0.3c0,0,0,0,0,0c-0.1-0.3-0.2-0.5-0.4-0.7c0,0,0,0,0,0c0-0.1,0-0.2-0.1-0.3c0,0,0,0,0,0c-0.1-0.4-0.2-0.7-0.5-1
			c0,0,0,0,0,0c0-0.2,0-0.3-0.2-0.4c-0.5-1.3-1-2.5-1.6-3.8c0-0.1,0-0.2,0-0.2c0.2-0.2,0-0.3-0.1-0.5c0,0,0,0,0,0
			c-0.1-0.4-0.1-0.8-0.4-1.1c-0.4-0.8-0.6-1.6-0.8-2.5c-0.4-1.4-0.7-2.9-1-4.4c-0.4-1.9-0.6-3.7-0.7-5.6C15,84.4,15,83.5,15,82.6
			c0-1.2,0-2.4,0-3.7c0-1.6,0-3.2,0.3-4.8c0.1-0.3,0.2-0.5,0.2-0.8c0.1-0.7,0.3-1.4,0.1-2.1c0-0.6,0.3-1.1,0.1-1.7
			c0.4-1.4,0.8-2.9,1.2-4.3c0.9-3.1,1.9-6.2,3.4-9.1c0.6-0.9,1-1.9,1.4-2.9c1.5-2.3,2.9-4.7,4.6-6.9c1.4-1.8,2.8-3.6,4.4-5.2
			c0.8-0.8,1.5-1.6,2.2-2.4c0.2,0,0.4-0.1,0.6-0.2c1.1-1.2,2.5-2.1,3.7-3.1c0.1-0.1,0.2-0.2,0.3-0.3c0.3-0.1,0.5-0.3,0.8-0.5
			c0.9-0.4,1.6-1.1,2.4-1.6c0.7-0.4,1.3-0.9,2-1.3c0.9-0.5,1.7-1,2.6-1.4c2.1-1,4.2-2.1,6.5-2.8c0.8-0.2,1.7-0.4,2.3-1
			c0.8,0.2,1.5-0.3,2.2-0.4c1.3-0.3,2.7-0.8,4-1.2c0.2,0.1,0.4,0.2,0.6,0.1c0.4-0.2,0.8-0.2,1.2-0.3c0.8-0.2,1.6,0.1,2.4-0.2
			c0.9-0.3,1.8-0.4,2.8-0.4c2.5,0,5,0,7.5,0c0.2,0,0.5-0.1,0.6,0.1c-0.4,0.7-1.2,0.6-1.8,0.7c-1.5,0.2-3,0.5-4.5,0.9
			c-2.4,0.6-4.8,1.3-7.1,2.2c-2.4,1-4.7,2-6.9,3.3c-0.7,0.5-1.6,0.8-2.3,1.3c-1.7,1.3-3.6,2.3-5.2,3.8c-0.8,0.7-1.7,1.4-2.5,2.1
			c-1.5,1.3-2.9,2.7-4.3,4.2c-1.1,1.2-2.1,2.4-3.1,3.7c-1.4,1.9-2.7,3.9-3.8,5.9c-2,3.6-3.6,7.3-4.9,11.2c-0.7,2.3-1.4,4.7-1.7,7.1
			c-0.2,1.7-0.5,3.4-0.7,5.1c0,0.2,0,0.4,0,0.6c0,1.1-0.1,2.1-0.1,3.2c0,2.5,0,4.9,0.4,7.4c0.1,0.4,0.1,0.8,0.1,1.2
			c0,0.4,0.2,0.6,0.6,0.7c1.7,0.6,2.1,2.6,0.8,3.5c-0.4,0.3-0.4,0.7-0.3,1.2c0.4,1.7,1,3.4,1.6,5.1c0.1,0.3,0,0.8,0.4,0.9
			c0.3,0,0.3-0.5,0.4-0.8c0.6-1.3,2.5-1.9,3.6-1.8c1.4,0.2,2.4,1,2.9,2.2c0.9,2.1-0.3,4.5-2.6,4.9c-1.3,0.2-1.6,0.1-2.6-0.4
			c0,0.5,0.2,0.9,0.4,1.3c0.5,1,1.1,2,1.6,3C33.9,108.2,34,108.4,34,108.7z"/>
		<path class="st9" d="M75.3,24.2c-0.2-0.2-0.4-0.1-0.6-0.1c-2.5,0-5,0-7.5,0c-0.9,0-1.9,0.1-2.8,0.4c-0.8,0.3-1.6,0-2.4,0.2
			c-0.4,0.1-0.8,0.1-1.2,0.3c-0.2,0.1-0.4,0-0.6-0.1c0.5-1.2,1-2.4,1.5-3.6c0.2-0.5,0.6-1,0.4-1.6c1.1-1.6,1.5-3.5,2.3-5.3
			c1-2.4,2-4.9,2.9-7.3C67.9,6,68.6,5,69.9,4.5c1-0.4,1.9-0.2,2.8,0.2C73,4.8,73.2,5,73.4,5c0.2,0,0.4,0.2,0.5,0.5
			c0.3,0.8,0.9,1.5,0.8,2.4c0.8,0.6,0.4,1.8,1.2,2.4c-0.1,0.9,0.4,1.6,0.6,2.4c0.5,1.8,1.1,3.5,1.6,5.2c0.7,2.2,1.4,4.4,2.2,6.6
			c-0.4,0.5-0.9,0.2-1.3,0.2c-1.2-0.2-2.3-0.4-3.5-0.5C75.5,24.2,75.4,24.2,75.3,24.2z"/>
		<path class="st9" d="M54.1,26.5c-0.7,0.6-1.5,0.7-2.3,1c-2.3,0.7-4.4,1.8-6.5,2.8c-0.9,0.4-1.8,0.9-2.6,1.4
			c-0.7,0.4-1.3,0.9-2,1.3c-0.8,0.5-1.5,1.2-2.4,1.6c-0.3,0.1-0.5,0.4-0.8,0.5c-0.7-3.7-1.7-7.4-2.5-11.1c-0.4-1.6-0.8-3.2-1.1-4.7
			c-0.5-2.4,1.5-4.4,3.4-4.4c0.9,0,1.7,0.2,2.4,0.7c2.2,1.6,4.4,3.1,6.5,4.7c2.1,1.6,4.3,3.2,6.4,4.9C53,25.6,53.6,26,54.1,26.5z"/>
		<path class="st9" d="M104.3,34.9c-0.4,0-0.7-0.2-0.9-0.5c-0.4-0.6-1.1-0.9-1.6-1.3c-1-0.7-2-1.4-3.1-1.9c-0.9-0.5-1.8-0.9-2.8-1.3
			c-0.7-0.3-1.4-0.7-2.1-1.1c-0.4-0.2-0.8-0.4-1.3-0.5c-1-0.2-1.8-0.7-2.7-0.9c-0.7-0.2-1.5-0.4-2.3-0.6c0.6-0.6,1.4-1.1,2.1-1.6
			c1.4-1.1,2.8-2.1,4.2-3.2c0.9-0.7,1.8-1.3,2.7-2c2-1.6,4-3,6.1-4.4c1.8-1.2,4.7-0.5,5.3,2.2c0.2,0.7,0.1,1.5,0,2.2
			c-1.1,4.6-2.1,9.1-3.2,13.7C104.5,33.9,104.3,34.4,104.3,34.9z"/>
		<path class="st9" d="M32.9,38.7c-0.7,0.8-1.5,1.6-2.2,2.4c-1.6,1.6-3,3.4-4.4,5.2c-1.7,2.2-3.1,4.6-4.6,6.9
			c-0.8-0.7-1.4-1.6-2.1-2.4c-1.1-1.2-1.9-2.6-3.1-3.7c-0.4-0.4-0.7-1-1.1-1.4c-1.3-1.3-2.2-2.9-3.4-4.3c-1-1.1-1.2-2.4-0.7-3.8
			c0.5-1.2,1.9-2.1,3.2-2.2c1.6-0.1,3.2,0.4,4.7,0.7c4,0.8,8.1,1.5,12.1,2.4C31.9,38.6,32.4,38.6,32.9,38.7z"/>
		<path class="st9" d="M120.3,53c-0.4-0.3-0.5-0.7-0.7-1.1c-1.4-2.7-3.2-5.1-5.2-7.4c-1.5-1.8-3.1-3.6-4.9-5.2
			c-0.2-0.2-0.4-0.3-0.4-0.6c5.1-1,10.1-2,15.2-2.9c1-0.2,1.9-0.4,2.9-0.3c1.8,0,3.3,1.6,3.4,3.4c0,1.1-0.4,2-1.1,2.8
			c-2.7,3.3-5.4,6.6-8.1,10C121.1,52,120.7,52.5,120.3,53z"/>
		<path class="st9" d="M20.3,56.1c-1.4,2.9-2.4,6-3.4,9.1c-0.4,1.4-0.8,2.9-1.2,4.3c-0.7,0-1-0.6-1.6-0.9c-2.5-1.4-5-2.8-7.5-4.2
			C6,64,5.4,63.7,4.9,63.1c-1-1.4-0.5-3.3,0.8-4c1-0.6,2.1-0.7,3.2-0.9c2.6-0.4,5.2-1,7.8-1.4c1-0.1,2-0.4,2.9-0.6
			C19.8,56.1,20.1,56.1,20.3,56.1z"/>
		<path class="st9" d="M126.2,69.4c-0.2-0.3-0.2-0.6-0.3-0.9c-0.8-3.3-1.7-6.5-2.9-9.6c-0.3-0.9-0.9-1.7-1.1-2.7
			c1.7,0.3,3.5,0.7,5.2,1c2.3,0.4,4.5,0.8,6.8,1.2c0.4,0.1,0.8,0.2,1.2,0.3c1.3,0.4,2,1.3,2.1,2.6c0.1,1.3-0.7,2.1-1.7,2.7
			c-2.1,1.2-4.3,2.4-6.5,3.6C128.2,68.2,127.3,68.9,126.2,69.4z"/>
		<path class="st7" d="M127.1,83.9c0-2.4,0.1-4.8-0.1-7.2c0.2,0.4,0.1,0.8,0.2,1.1C127.2,79.8,127.3,81.8,127.1,83.9z"/>
		<path class="st7" d="M15.6,71.2c0.1,0.7,0,1.4-0.1,2.1c0,0.3-0.1,0.5-0.2,0.8C15.3,73.1,15.5,72.2,15.6,71.2z"/>
		<path class="st6" d="M15,78.9c0,1.2,0,2.4,0,3.7C14.8,81.3,14.8,80.1,15,78.9z"/>
		<path class="st7" d="M20.1,103.8c0.3,0.3,0.4,0.6,0.5,1C20.2,104.5,20.1,104.1,20.1,103.8z"/>
		<path class="st7" d="M17.7,97.8c0.3,0.3,0.3,0.7,0.4,1.1C17.7,98.6,17.8,98.1,17.7,97.8z"/>
		<path class="st7" d="M20.7,105c0.2,0.2,0.3,0.5,0.4,0.7C20.8,105.6,20.7,105.3,20.7,105z"/>
		<path class="st7" d="M21.2,106c0.2,0.2,0.3,0.5,0.4,0.7C21.3,106.6,21.2,106.3,21.2,106z"/>
		<path class="st7" d="M18.1,98.9c0.1,0.1,0.3,0.3,0.1,0.5C18.1,99.2,18.1,99,18.1,98.9z"/>
		<path class="st7" d="M19.8,103.4c0.2,0,0.3,0.2,0.2,0.4C19.9,103.7,19.8,103.6,19.8,103.4z"/>
		<path class="st7" d="M20.6,104.8c0.1,0.1,0.1,0.1,0.1,0.3C20.6,105,20.5,104.9,20.6,104.8z"/>
		<path class="st7" d="M21,105.7c0.1,0.1,0.1,0.1,0.1,0.3C21.1,105.9,21,105.8,21,105.7z"/>
		<path class="st3" d="M87.4,66.9c-0.2,9.9-8.5,16.6-17,16.2c-9.7-0.5-16.3-8.5-15.8-17.3c0.5-9.3,8.8-16.2,17.7-15.4
			C81.4,51.1,87.6,58.7,87.4,66.9z M80.6,67.5c0.2-5-3.9-9.9-10-9.6c-4.9,0.2-9.2,4.3-9.2,9.6c0,5.3,4.1,9.7,9.7,9.7
			C76.4,77.2,80.8,72.6,80.6,67.5z"/>
		<path class="st7" d="M45.8,91c-3.6,0-6.6-3.4-6.6-6.8c0-4.1,3.3-6.8,6.4-6.9C50,77,53,80.4,53,84.2C52.9,88.1,49.7,91.1,45.8,91z"
			/>
		<path class="st7" d="M102.9,84c0.2,3.8-3.1,6.9-6.6,7c-3.8,0.1-7.1-3.1-7.1-6.8c0-4,3.3-6.9,6.8-7C99.8,77.2,103.1,80.4,102.9,84z
			"/>
		<path class="st8" d="M104.7,100.6c0-2,1.6-3.7,3.9-3.6c1.7,0.1,3.4,1.8,3.3,3.7c-0.1,2.1-1.6,3.5-3.7,3.6
			C106.4,104.3,104.7,102.6,104.7,100.6z"/>
		<path class="st8" d="M116.6,95.9c1.4,0,2.6,1.1,2.6,2.4c0,1.5-1.4,2.7-2.6,2.6c-1.4-0.1-2.5-1.1-2.5-2.5
			C114,97.1,115.2,95.9,116.6,95.9z"/>
		<path class="st8" d="M112.8,91.1c0-1.2,1-2.2,2-2.2c1.3,0,2.2,1,2.2,2.1c0,1.2-1.1,2.2-2.4,2.2C113.9,93.2,112.8,92.1,112.8,91.1z
			"/>
		<path class="st8" d="M107.7,91.1c1.2,0,2.1,0.8,2.1,2c0,1.3-0.8,2.2-2.2,2.2c-1,0-2.2-1.1-2.2-2.1
			C105.5,92.2,106.6,91.1,107.7,91.1z"/>
		<path class="st8" d="M36.3,93.2c-0.1,1.3-0.8,2.1-2.7,2.2c-0.6,0-1.5-1.2-1.5-2.2c0-1.2,0.9-2.1,2.1-2.1
			C35.3,91.1,36.3,92.1,36.3,93.2z"/>
		<path class="st9" d="M71.2,106.4c-2.5-0.1-4.7-0.4-6.7-1.2c-1.6-0.6-3.2-1.4-4.5-2.6c-0.5-0.5-1-0.9-1.6-1.4
			c-0.4-0.3-0.7-0.7-1-1.1c-1.1-1.5-0.3-3.4,0.8-4.2c1.6-1.2,2.7-1.2,4.3,0c1.4,1,2.8,2.1,4.6,2.7c4,1.3,7.6,0.8,11-1.7
			c0.6-0.5,1.2-0.9,1.9-1.4c1.4-1,3.4-0.6,4.3,0.9c1.1,1.7,1.1,2.9-0.3,4.4c-2.1,2.1-4.4,3.8-7.4,4.7
			C74.7,106,72.8,106.2,71.2,106.4z"/>
		<path class="st6" d="M80.6,67.5c0.2,5.1-4.2,9.7-9.5,9.6c-5.6,0-9.7-4.4-9.7-9.7c0-5.3,4.3-9.4,9.2-9.6
			C76.7,57.7,80.8,62.5,80.6,67.5z M72.2,60.4c-0.1-0.1-0.3-0.1-0.4-0.1c-0.3,0-0.6,0-0.9,0c0,0,0,0-0.1,0c-0.1,0-0.3,0-0.4,0
			c-0.1,0-0.2-0.1-0.3,0.1c-1.2,0.2-2.4,0.6-3.4,1.4c-2.2,1.7-3.2,4-2.8,6.7c0.5,3.9,4.2,6.9,8.2,6.2c2.6-0.4,4.4-1.7,5.5-4
			c1.1-2.3,0.8-4.6-0.2-6.9c0.1-0.3,0.1-0.5,0.2-0.8c0.3-1.4-0.7-2.6-2.1-2.7c-0.7,0-1.3,0.3-1.9,0.5C73.1,60.5,72.7,60.4,72.2,60.4
			z"/>
		<path class="st9" d="M70.8,60.3c0.3,0,0.6,0,0.9,0c0.1,0.1,0.3,0.1,0.4,0.1c0.5,0.1,1,0.1,1.3,0.5c-0.1,0.4-0.3,0.8-0.4,1.2
			c-0.4,1.1,0.2,2,1,2.5c0.9,0.5,2.1,0.3,2.7-0.4c0.1-0.1,0.2-0.3,0.5-0.3c1.1,2.3,1.4,4.6,0.2,6.9c-1.1,2.3-2.9,3.6-5.5,4
			c-4,0.7-7.7-2.3-8.2-6.2c-0.4-2.7,0.7-5,2.8-6.7c1-0.8,2.2-1.2,3.4-1.4c0.1,0,0.2,0,0.3-0.1C70.5,60.3,70.6,60.3,70.8,60.3
			C70.8,60.3,70.8,60.3,70.8,60.3C70.8,60.3,70.8,60.3,70.8,60.3z M73.6,67.5c0.1-1.7-1.2-2.6-2.6-2.7c-1.5,0-2.8,1.2-2.8,2.6
			c0,1.6,1.3,2.8,2.8,2.8C72.5,70.2,73.6,69.1,73.6,67.5z"/>
		<path class="st3" d="M77.2,63.8c-0.2,0-0.4,0.2-0.5,0.3c-0.6,0.7-1.8,0.9-2.7,0.4c-0.9-0.5-1.4-1.4-1-2.5c0.1-0.4,0.3-0.8,0.4-1.2
			c0.6-0.3,1.2-0.6,1.9-0.5c1.4,0.1,2.4,1.3,2.1,2.7C77.4,63.3,77.3,63.5,77.2,63.8z"/>
		<path class="st8" d="M72.2,60.4c-0.2,0-0.3,0.1-0.4-0.1C71.9,60.3,72.1,60.2,72.2,60.4z"/>
		<path class="st8" d="M70.3,60.3c-0.1,0.1-0.2,0.1-0.3,0.1C70.1,60.2,70.2,60.3,70.3,60.3z"/>
		<path class="st8" d="M70.8,60.3L70.8,60.3C70.8,60.3,70.8,60.3,70.8,60.3C70.8,60.3,70.8,60.3,70.8,60.3z"/>
		<path class="st3" d="M73.6,67.5c0,1.6-1.1,2.7-2.6,2.7c-1.6,0-2.8-1.2-2.8-2.8c0-1.3,1.4-2.6,2.8-2.6
			C72.4,64.9,73.7,65.8,73.6,67.5z"/>
	</g>
</g>
</svg>
