<?xml version="1.0" encoding="utf-8"?>
<!-- Generator: Adobe Illustrator 27.3.1, SVG Export Plug-In . SVG Version: 6.00 Build 0)  -->
<svg version="1.1" id="Ebene_1" xmlns="http://www.w3.org/2000/svg" xmlns:xlink="http://www.w3.org/1999/xlink" x="0px" y="0px"
	 viewBox="0 0 141.7 141.7" style="enable-background:new 0 0 141.7 141.7;" xml:space="preserve">
<style type="text/css">
	.st0{fill:#F6BB37;}
	.st1{fill:#3684C6;}
	.st2{fill:#DCA12A;}
	.st3{fill:#FCFCFE;}
	.st4{fill:#E97E2F;}
	.st5{fill:#28273D;}
	.st6{fill:#7F65AA;}
	.st7{fill:#B49ECB;}
	.st8{fill:#66529D;}
	.st9{fill:#33314C;}
	.st10{fill:#35ACC6;}
	.st11{fill:#27263D;}
	.st12{fill:#DB191D;}
	.st13{fill:#42BEE1;}
	.st14{fill:#EE715E;}
	.st15{fill:#396CB3;}
	.st16{fill:#EA5B4C;}
	.st17{fill:#F2C551;}
	.st18{fill:#27273D;}
	.st19{fill:#B0CF6D;}
	.st20{fill:#28263D;}
	.st21{fill:#9E4A30;}
	.st22{fill:#DB1E1D;}
	.st23{fill:#FBFBFD;}
	.st24{fill:#A3C163;}
	.st25{fill:#3F426D;}
	.st26{fill:#33304C;}
	.st27{fill:#DB181D;}
	.st28{fill:#83C4ED;}
	.st29{fill:#B6622B;}
	.st30{fill:#AB795E;}
	.st31{fill:#88C7EE;}
	.st32{fill:#9BB7CC;}
	.st33{fill:#E97F31;}
	.st34{fill:#CD6F2C;}
	.st35{fill:#A8A4A6;}
	.st36{fill:#84C4EC;}
	.st37{fill:#FEFEFE;}
	.st38{fill:#D91F1D;}
	.st39{fill:#F29454;}
	.st40{fill:#3C86C6;}
	.st41{fill:#F8FAFD;}
	.st42{fill:#AD8ABF;}
	.st43{fill:#67529E;}
	.st44{fill:#F6D373;}
	.st45{fill:#29273D;}
	.st46{fill:#EE715D;}
	.st47{fill:#F9C6BD;}
	.st48{fill:#A65E3A;}
	.st49{fill:#F18B88;}
	.st50{fill:#82C2EC;}
	.st51{fill:#E28080;}
	.st52{fill:#D57474;}
	.st53{fill:#4F5173;}
	.st54{fill:#3785C6;}
	.st55{fill:#E84680;}
	.st56{fill:#28273E;}
	.st57{fill:#E13072;}
	.st58{fill:#F5BA37;}
	.st59{fill:#F3C651;}
	.st60{fill:#DB5144;}
	.st61{fill:#A17FB8;}
	.st62{fill:#AC8ABE;}
	.st63{fill:#342E4F;}
	.st64{fill:#2DAC64;}
	.st65{fill:#5CB993;}
	.st66{fill:#9DBA5C;}
	.st67{fill:#5AB992;}
	.st68{fill:#66529E;}
	.st69{fill:#EA5A4C;}
	.st70{fill:#12994E;}
	.st71{fill:#DE5044;}
	.st72{fill:#EE715F;}
	.st73{fill:#E97F2F;}
	.st74{fill:#A89AC9;}
	.st75{fill:#38B3CD;}
	.st76{fill:#DD3D78;}
	.st77{fill:#F5D373;}
	.st78{fill:#FDEAB4;}
	.st79{fill:#7F66AA;}
	.st80{fill:#3885C6;}
	.st81{fill:#40436D;}
	.st82{fill:#A99ACA;}
	.st83{fill:#34314B;}
	.st84{fill:#F4D273;}
	.st85{fill:#83C5ED;}
	.st86{fill:#D29C2C;}
	.st87{fill:#87C7EE;}
	.st88{fill:#F6BB38;}
	.st89{fill:#F6BB3A;}
	.st90{fill:#E83D69;}
	.st91{fill:#F4BC3F;}
	.st92{fill:#85C5EB;}
	.st93{fill:#DA1E1D;}
	.st94{fill:#DDA736;}
	.st95{fill:#F18D88;}
	.st96{fill:#FFFEFE;}
	.st97{fill:#F9C8BC;}
	.st98{fill:#3B85C6;}
</style>
<g id="ww5xz3.tif">
	<g>
		<path class="st42" d="M118.8,122.9c-3.2,3.5-7.2,6-11.1,8.5c-9.2,5.8-19.3,9.2-30.1,10.1c-17.6,1.4-33.9-2.8-48.3-13.3
			c-1.8-1.3-3.8-2.3-5.1-4.2c0.9-0.8,0.5-1.8,0.5-2.8c0-17.9,0-35.8,0-53.7c0-4.3-0.1-8.5,2-12.4c2.2-2.6,5.1-4.1,7.8-6
			c2.8-0.6,5.7-1.1,8.6-1c2.4,0.9,4.8,0.8,7.2,0c4.8,0,9.6,0,14.4,0c0.7,0,1.5,0.2,2-0.5c0.5,0.4,0.5,1.1,1.4,1c2.2,0,4.3-0.2,6.3-1
			c0.3,1.2,1.4,0.9,2.2,0.9c4.5,0,9.1,0,13.6,0c2.4-0.2,4.9,0.6,7.3-0.5c0.6,0.8,1.5,0.5,2.3,0.5c2.4,0,4.8,0,7.1,0.1
			c2.6,1.3,5.2,2.6,7.2,4.9c0.4,0.5,0.8,1,1.6,0.9c3.1,5.6,2.6,11.6,2.6,17.7c0,16,0,31.9,0,47.9C118.3,121,117.9,122.1,118.8,122.9
			z M46.7,108.1c-0.4,0.1-0.7,0.2-0.8,0.7c-0.8,4.5-1.1,9,1.5,13.2c3.7,5.2,8.8,7.8,15.1,6.8c3.8-0.6,7.6-1,11.4-0.8
			c3.4,0.2,6.7,1.3,10.1,0.9c4.6-0.6,8.4-2.6,10.8-6.8c3.1-4.4,3.1-9.1,1.4-13.9C94.2,101.6,86,98,81,99c-6.2,1.3-12.3,1.3-18.6,0.3
			C55.2,98.1,49.4,101.5,46.7,108.1z M98.1,83.8C97.2,75.7,93.2,72,85.8,72c-7.1-0.1-11.7,5-11.7,11.6c0,6.9,5.1,12.3,11.9,12.2
			C92.8,95.6,97.6,91.3,98.1,83.8z M67.6,83.7c0.3-7.6-5.2-11.9-11.9-11.8C48.1,72,43.9,78.5,44,83.6c0.1,6.6,5.4,12,11.7,12.1
			C61.5,95.8,68.2,91.4,67.6,83.7z M30.6,102.3c-0.4,3.9,3.5,7.6,7.4,7.8c3.8,0.1,8.1-4.2,7.8-7.9c-0.3-3.8-2.6-7.3-7.5-7.3
			C33.8,94.9,30.6,97.9,30.6,102.3z M103.9,94.9c-5.1-0.3-7.7,3.9-7.7,7.3c0,3.4,3.3,7.7,7.5,7.9c4.1,0.1,7.6-3.7,7.6-7.9
			C111.4,97.8,108.4,94.9,103.9,94.9z"/>
		<path class="st43" d="M90.2,48.6c-4.5,0-9.1,0-13.6,0c-0.8,0-1.9,0.3-2.2-0.9c1-3.8,1.8-7.6,2.4-11.5c1.1-7.2,2.6-14.4,2.6-21.8
			c0-4.8-2.7-7.9-8.7-8.9c-3.6-0.6-7.8,2.9-9.1,6.9c-0.7,2.3-0.1,4.3,0.1,6.4c0.2,3.5,0.4,7,1.1,10.4c1.1,6.2,2.1,12.5,3.9,18.6
			c-0.5,0.7-1.3,0.5-2,0.5c-4.8,0-9.6,0-14.4,0c0-1.7-0.1-3.4,0.1-5.2c0.4-4.1-1.5-7.9-1.2-12c0.2-3.2-0.8-6.5-1.3-9.7
			c-0.5-2.9-1.3-5.8-1.8-8.7c-0.5-3-3.3-4-5.2-5.7c1.9-1.5,4.3-1.7,6.3-2.7c4.4-2,9.2-2.5,13.9-3.3c6-1.1,12-1,17.9-0.5
			c3.3,0.3,7,0.7,10.1,1.8c3.8,1.4,8,2.3,11.5,4.6c-3.5,1.1-6,3.3-6.8,6.9c-0.5,2.4-0.8,4.9-1.2,7.3C91.2,30.1,89.4,39.3,90.2,48.6z
			"/>
		<path class="st43" d="M26.7,55.1c-2.1,3.9-2.1,8.1-2,12.4c0.1,17.9,0,35.8,0,53.7c0,0.9,0.4,2-0.5,2.8
			C12.4,113.6,5,100.7,1.5,85.3c-1.6-6.9-1.8-13.9-1.3-20.8C0.8,56.2,2.8,48.1,7,40.7c0.9,0.7,1.9,1.3,2.7,2
			C15,47.3,20.8,51.4,26.7,55.1z"/>
		<path class="st43" d="M118.8,122.9c-0.9-0.8-0.4-1.9-0.5-2.8c0-16,0-31.9,0-47.9c0-6,0.5-12.1-2.6-17.7
			c6.4-4.7,12.9-9.5,19.3-14.2c2.8,5.9,4.8,12.1,5.8,18.6c1.1,7,1.3,14.1,0.3,21.3c-1.2,8.8-3.9,16.9-8.1,24.6
			C129.3,111.5,124.8,117.9,118.8,122.9z"/>
		<path class="st44" d="M40.9,6.9c1.9,1.8,4.6,2.7,5.2,5.7c0.5,2.9,1.3,5.8,1.8,8.7c0.6,3.2,1.6,6.5,1.3,9.7
			c-0.3,4.1,1.5,7.9,1.2,12c-0.2,1.7-0.1,3.4-0.1,5.2c-2.4,0.8-4.8,0.8-7.2,0c-0.9-1.5-2-2.9-2.8-4.4c-3.4-6.2-6.4-12.7-9.1-19.2
			c-1.3-3.1-2.7-6.3-3.1-9.7c1.3-2.8,2.2-5.8,5.3-7.2C35.9,6.3,38.4,7.2,40.9,6.9z"/>
		<path class="st44" d="M90.2,48.6c-0.8-9.4,1-18.5,2.4-27.7c0.4-2.4,0.7-4.9,1.2-7.3c0.7-3.5,3.3-5.8,6.8-6.9c1,0,2,0.1,2.9,0.1
			c3.2-0.3,5.2,1.4,6.9,3.9c0.8,1.1,1.4,2.4,2.1,3.5c-0.1,0.2-0.4,0.4-0.4,0.6c-1,6.6-4.2,12.4-7,18.3c-2.4,5.1-5,10-7.6,15
			C95.1,49.3,92.6,48.5,90.2,48.6z"/>
		<path class="st44" d="M26.7,55.1c-6-3.7-11.7-7.8-17.1-12.4c-0.9-0.7-1.8-1.4-2.7-2c-0.5-0.5-0.9-1.2-1.5-1.5
			c-4.6-2.8-4.8-9.5-2.5-12.6c3.2-4.4,8.3-5.2,13.1-2c0.3,0.2,0.5,0.4,0.8,0.6c2.4,3,5,5.9,7.3,9c3.6,4.9,7.7,9.6,10.5,15.1
			C31.9,51.1,28.9,52.6,26.7,55.1z"/>
		<path class="st44" d="M135,40.3c-6.4,4.7-12.9,9.5-19.3,14.2c-0.8,0.1-1.2-0.5-1.6-0.9c-2-2.3-4.6-3.6-7.2-4.9
			c4.2-6.8,9.1-13,14-19.3c1.4-1.7,3.7-3.1,3.7-5.7c0.8,0.6,1.5,0.1,2.3-0.2c4.5-1.8,9.5-0.5,11.6,3.1c2.7,4.7,1.8,9.4-2.5,12.7
			C135.6,39.6,135.3,40,135,40.3z"/>
		<path class="st43" d="M124.7,23.7c0,2.7-2.3,4-3.7,5.7c-4.9,6.3-9.8,12.5-14,19.3c-2.4,0-4.8,0-7.1-0.1c-0.8,0-1.7,0.3-2.3-0.5
			c2.5-5,5.1-9.9,7.6-15c2.8-5.9,6-11.7,7-18.3c0-0.2,0.3-0.4,0.4-0.6c2.6,0.6,4.4,2.5,6.3,4.1C120.8,20.1,122.3,22.4,124.7,23.7z"
			/>
		<path class="st43" d="M34.5,49.2C31.8,43.6,27.7,39,24.1,34c-2.3-3.1-4.9-6-7.3-9c3.6-3.6,6.7-7.8,11.3-10.3
			c0.3,3.5,1.7,6.6,3.1,9.7c2.8,6.5,5.7,13,9.1,19.2c0.8,1.5,1.9,3,2.8,4.4C40.2,48.1,37.4,48.5,34.5,49.2z"/>
		<path class="st44" d="M66.7,47.7c-1.9-6.1-2.8-12.3-3.9-18.6c-0.6-3.4-0.8-6.9-1.1-10.4c-0.1-2.1-0.8-4.1-0.1-6.4
			c1.3-4,5.4-7.5,9.1-6.9c5.9,1,8.6,4.1,8.7,8.9c0,7.4-1.5,14.6-2.6,21.8c-0.6,3.9-1.4,7.7-2.4,11.5c-2,0.9-4.1,1-6.3,1
			C67.2,48.7,67.1,48,66.7,47.7z"/>
		<path class="st45" d="M47.4,122c-2.6-4.2-2.3-8.6-1.5-13.2c0.1-0.5,0.4-0.6,0.8-0.7c0.4,0.4,0.8,0.8,1.2,1.3c2.8,3.1,3,3.2,4.3-1
			c0.7-2.4,1.4-1.8,2.6-0.5c2.6,2.7,2.7,2.6,4.9-0.5c0.1-0.2,0.2-0.5,0.3-0.6c1-1.1,1.9-2.5,3.1,0c0.5,1.1,1.5,2,2.2,3.2
			c0.5,0.9,1.1,1.2,1.5-0.2c0.4-1.2,1.1-2.3,1.9-3.8c1,1.7,1.5,3.2,2.8,4.4c0.9-1.5,1.8-2.9,2.8-4.4c0.9,1.7,1.3,3.4,2.6,4.9
			c0.6-0.8,1.1-1.5,1.7-2.3c0.5-0.8,1-1.6,1.6-2.4c0.6-0.8,1-1.6,1.9-0.1c0.6,1.1,1.7,1.9,2.4,3c0.8,1.2,1.4,1,2.3,0.3
			c3.2-2.7,3.2-2.7,4.6,1.2c0,0.1,0,0.2,0,0.2c0.5,1.3,1,1.9,2.2,0.6c0.9-1,1.3-2.4,2.7-3.1c1.7,4.8,1.7,9.5-1.4,13.9
			c-6.6-3.6-13.8-4-21.1-4.4c-3.3-0.2-6.6,0.1-10,0.4C58,118.5,52.6,119.5,47.4,122z"/>
		<path class="st46" d="M47.4,122c5.2-2.4,10.7-3.5,16.3-4c3.3-0.3,6.7-0.6,10-0.4c7.2,0.4,14.5,0.9,21.1,4.4
			c-2.4,4.2-6.1,6.3-10.8,6.8c-3.4,0.4-6.8-0.7-10.1-0.9c-3.8-0.2-7.6,0.2-11.4,0.8C56.2,129.7,51.1,127.2,47.4,122z"/>
		<path class="st23" d="M96.1,108.1c-1.4,0.6-1.8,2.1-2.7,3.1c-1.3,1.4-1.8,0.7-2.2-0.6c0-0.1,0-0.2,0-0.2c-1.4-3.9-1.4-3.9-4.6-1.2
			c-0.9,0.8-1.6,1-2.3-0.3c-0.7-1.1-1.8-1.9-2.4-3c-0.8-1.4-1.3-0.7-1.9,0.1c-0.5,0.8-1,1.6-1.6,2.4c-0.5,0.7-1,1.4-1.7,2.3
			c-1.2-1.4-1.7-3.1-2.6-4.9c-1,1.5-1.8,2.9-2.8,4.4c-1.2-1.2-1.8-2.7-2.8-4.4c-0.7,1.5-1.5,2.6-1.9,3.8c-0.4,1.5-1,1.1-1.5,0.2
			c-0.7-1.1-1.6-2.1-2.2-3.2c-1.2-2.5-2.1-1-3.1,0c-0.2,0.2-0.2,0.4-0.3,0.6c-2.2,3.2-2.2,3.2-4.9,0.5c-1.3-1.3-1.9-1.8-2.6,0.5
			c-1.3,4.2-1.5,4.1-4.3,1c-0.4-0.4-0.8-0.8-1.2-1.3c2.7-6.6,8.4-10,15.7-8.8c6.2,1,12.3,0.9,18.6-0.3C86,98,94.2,101.6,96.1,108.1z
			"/>
		<path class="st23" d="M98.1,83.8c-0.5,7.5-5.4,11.8-12.1,11.9c-6.7,0.1-11.9-5.2-11.9-12.2c0-6.5,4.6-11.7,11.7-11.6
			C93.2,72,97.2,75.7,98.1,83.8z M87.9,79.6c0.7-0.3,1.4-0.5,2.4-0.9c-2.8-1.3-5.4-1.6-7.7-0.3c-2.2,1.3-3.9,3.6-3.5,6.3
			c0.7,4.6,3.8,7.3,8.2,6.6c4.2-0.7,6.5-4.6,5.4-8.9c-0.2-0.9-0.5-1.9-1.4-2c-0.8-0.1-0.3,1.3-1,1.7C87.4,82.2,87,81.7,87.9,79.6z"
			/>
		<path class="st23" d="M67.6,83.7c0.6,7.7-6,12.1-11.9,12c-6.3-0.1-11.6-5.5-11.7-12.1c-0.1-5.1,4.1-11.6,11.7-11.7
			C62.4,71.8,67.9,76.1,67.6,83.7z M57.3,79.6c0.9-0.2,1.7-0.5,2.7-0.8c-4-2.5-8.7-0.6-10.1,1.8C48,84,49,88.4,52.3,90.5
			c2.5,1.6,7.1,0.8,9-1.7c1.9-2.4,1.8-6.7-0.4-8.6c-0.1,0.6-0.2,1.2-0.3,1.7C57.7,82.8,57.2,82.4,57.3,79.6z"/>
		<path class="st46" d="M30.6,102.3c0-4.4,3.1-7.4,7.7-7.4c4.9,0,7.2,3.4,7.5,7.3c0.3,3.7-4,8-7.8,7.9
			C34.2,109.9,30.3,106.2,30.6,102.3z"/>
		<path class="st46" d="M103.9,94.9c4.5,0,7.5,2.9,7.5,7.3c0,4.3-3.6,8.1-7.6,7.9c-4.3-0.1-7.5-4.5-7.5-7.9
			C96.2,98.7,98.8,94.6,103.9,94.9z"/>
		<path class="st45" d="M87.9,79.6c-0.9,2.2-0.5,2.6,2.4,2.4c0.6,0.4,0.9,0.9,0.9,1.6c0.2,2.4-0.9,4.4-3.2,5.4
			c-2.1,0.9-4.8,0.4-6-1.1c-1.3-1.7-1.6-4.5-0.5-6.2C82.9,79.5,85.1,78.8,87.9,79.6z M87.8,84c0.1-0.9-0.4-1.4-1.7-1.5
			c-1.2,0-2.2,0.5-2.3,1.7c-0.1,1.2,0.8,2.1,2,2.2C87.1,86.6,87.7,85.6,87.8,84z"/>
		<path class="st43" d="M87.9,79.6c-2.8-0.8-4.9-0.1-6.3,2.1c-1.1,1.6-0.8,4.5,0.5,6.2c1.2,1.5,3.9,2,6,1.1c2.2-1,3.4-3,3.2-5.4
			c-0.1-0.7-0.4-1.2-0.9-1.6c0.7-0.4,0.2-1.8,1-1.7c0.9,0.1,1.2,1.1,1.4,2c1,4.3-1.2,8.3-5.4,8.9c-4.4,0.7-7.5-2-8.2-6.6
			c-0.4-2.7,1.2-5,3.5-6.3c2.3-1.4,4.9-1,7.7,0.3C89.2,79.1,88.5,79.3,87.9,79.6z"/>
		<path class="st45" d="M57.3,79.6c-0.1,2.8,0.4,3.2,3.3,2.3c0.2,0.5,0.4,1.1,0.5,1.6c0.4,2.1-0.9,4.4-3.1,5.5
			c-2.4,1.2-4.3,0.7-6.1-1.3c-1.4-1.6-1.5-4.3-0.2-6.3C52.9,79.4,54.8,78.8,57.3,79.6z M57.8,84.7c-0.2-1.5-1-2.1-2.3-2.1
			c-1.2,0-1.7,0.8-1.6,1.6c0,1.1,0.4,2.3,1.9,2.3C57,86.5,57.5,85.6,57.8,84.7z"/>
		<path class="st43" d="M57.3,79.6c-2.5-0.8-4.4-0.2-5.6,1.8c-1.3,2-1.2,4.7,0.2,6.3c1.8,2.1,3.8,2.5,6.1,1.3
			c2.2-1.1,3.5-3.4,3.1-5.5c-0.1-0.6-0.3-1.1-0.5-1.6c0.1-0.5,0.2-1.1,0.3-1.7c2.2,1.9,2.3,6.2,0.4,8.6c-2,2.5-6.5,3.3-9,1.7
			C49,88.4,48,84,49.9,80.6c1.3-2.4,6.1-4.3,10.1-1.8C59,79.1,58.2,79.4,57.3,79.6z"/>
		<path class="st23" d="M87.8,84c-0.1,1.6-0.7,2.5-1.9,2.4c-1.2-0.1-2.1-1-2-2.2c0.1-1.2,1-1.7,2.3-1.7C87.4,82.6,88,83.2,87.8,84z"
			/>
		<path class="st23" d="M57.8,84.7c-0.2,1-0.8,1.8-2,1.8c-1.5,0-1.9-1.2-1.9-2.3c0-0.9,0.4-1.7,1.6-1.6
			C56.8,82.6,57.6,83.1,57.8,84.7z"/>
	</g>
</g>
</svg>
