<?xml version="1.0" encoding="utf-8"?>
<!-- Generator: Adobe Illustrator 27.3.1, SVG Export Plug-In . SVG Version: 6.00 Build 0)  -->
<svg version="1.1" id="Ebene_1" xmlns="http://www.w3.org/2000/svg" xmlns:xlink="http://www.w3.org/1999/xlink" x="0px" y="0px"
	 viewBox="0 0 141.7 141.7" style="enable-background:new 0 0 141.7 141.7;" xml:space="preserve">
<style type="text/css">
	.st0{fill:#F6BB37;}
	.st1{fill:#3684C6;}
	.st2{fill:#DCA12A;}
	.st3{fill:#FCFCFE;}
	.st4{fill:#E97E2F;}
	.st5{fill:#28273D;}
	.st6{fill:#7F65AA;}
	.st7{fill:#B49ECB;}
	.st8{fill:#66529D;}
	.st9{fill:#33314C;}
	.st10{fill:#35ACC6;}
	.st11{fill:#27263D;}
	.st12{fill:#DB191D;}
	.st13{fill:#42BEE1;}
	.st14{fill:#EE715E;}
	.st15{fill:#396CB3;}
	.st16{fill:#EA5B4C;}
	.st17{fill:#F2C551;}
	.st18{fill:#27273D;}
	.st19{fill:#B0CF6D;}
	.st20{fill:#28263D;}
	.st21{fill:#9E4A30;}
	.st22{fill:#DB1E1D;}
	.st23{fill:#FBFBFD;}
	.st24{fill:#A3C163;}
	.st25{fill:#3F426D;}
	.st26{fill:#33304C;}
	.st27{fill:#DB181D;}
	.st28{fill:#83C4ED;}
	.st29{fill:#B6622B;}
	.st30{fill:#AB795E;}
	.st31{fill:#88C7EE;}
	.st32{fill:#9BB7CC;}
	.st33{fill:#E97F31;}
	.st34{fill:#CD6F2C;}
	.st35{fill:#A8A4A6;}
	.st36{fill:#84C4EC;}
	.st37{fill:#FEFEFE;}
	.st38{fill:#D91F1D;}
	.st39{fill:#F29454;}
	.st40{fill:#3C86C6;}
	.st41{fill:#F8FAFD;}
	.st42{fill:#AD8ABF;}
	.st43{fill:#67529E;}
	.st44{fill:#F6D373;}
	.st45{fill:#29273D;}
	.st46{fill:#EE715D;}
	.st47{fill:#F9C6BD;}
	.st48{fill:#A65E3A;}
	.st49{fill:#F18B88;}
	.st50{fill:#82C2EC;}
	.st51{fill:#E28080;}
	.st52{fill:#D57474;}
	.st53{fill:#4F5173;}
	.st54{fill:#3785C6;}
	.st55{fill:#E84680;}
	.st56{fill:#28273E;}
	.st57{fill:#E13072;}
	.st58{fill:#F5BA37;}
	.st59{fill:#F3C651;}
	.st60{fill:#DB5144;}
	.st61{fill:#A17FB8;}
	.st62{fill:#AC8ABE;}
	.st63{fill:#342E4F;}
	.st64{fill:#2DAC64;}
	.st65{fill:#5CB993;}
	.st66{fill:#9DBA5C;}
	.st67{fill:#5AB992;}
	.st68{fill:#66529E;}
	.st69{fill:#EA5A4C;}
	.st70{fill:#12994E;}
	.st71{fill:#DE5044;}
	.st72{fill:#EE715F;}
	.st73{fill:#E97F2F;}
	.st74{fill:#A89AC9;}
	.st75{fill:#38B3CD;}
	.st76{fill:#DD3D78;}
	.st77{fill:#F5D373;}
	.st78{fill:#FDEAB4;}
	.st79{fill:#7F66AA;}
	.st80{fill:#3885C6;}
	.st81{fill:#40436D;}
	.st82{fill:#A99ACA;}
	.st83{fill:#34314B;}
	.st84{fill:#F4D273;}
	.st85{fill:#83C5ED;}
	.st86{fill:#D29C2C;}
	.st87{fill:#87C7EE;}
	.st88{fill:#F6BB38;}
	.st89{fill:#F6BB3A;}
	.st90{fill:#E83D69;}
	.st91{fill:#F4BC3F;}
	.st92{fill:#85C5EB;}
	.st93{fill:#DA1E1D;}
	.st94{fill:#DDA736;}
	.st95{fill:#F18D88;}
	.st96{fill:#FFFEFE;}
	.st97{fill:#F9C8BC;}
	.st98{fill:#3B85C6;}
</style>
<g id="_x35_12Oqs.tif">
	<g>
		<path class="st64" d="M80,141.2c-4.3,0.8-8.6,0.5-12.9,0.5c-1.5,0-3-0.1-4.4-0.3c-3.6-0.5-7.2-1.2-10.7-2.2
			c-1.8-0.5-3.5-1-5.3-1.7c-1.9-0.8-3.9-1.6-5.8-2.4c-2.7-1.2-5.4-2.7-7.9-4.3c0.3-1,0.1-2.1,0.1-3.1C33,104.4,33.2,81.1,33,57.9
			c0-1.7,0.2-3.3,0.4-4.9c0.2-1.7,0.2-3.3,0.6-4.9c0.5-1.7,0.9-3.5,1.5-5.1c0.3-0.8,0.3-1.6,0.1-2.5c-0.9-3.5-0.9-7.1-0.2-10.6
			c0.5-2.6,1.4-5.1,2.7-7.4c0.7-1.3,1.6-2.5,2.4-3.7c1.4-1.7,3-3.2,4.8-4.5c0.2-0.1,0.4-0.3,0.4-0.6c0.3,0,0.5-0.1,0.7-0.3
			c1-0.9,2.3-1.3,3.3-2c0.3,0.3,0.6,0,0.9-0.1c1.9-0.9,4-1.4,6-1.7c2.7-0.4,5.4-0.3,8.1,0.1c2.5,0.4,4.8,1.2,7.1,2.3
			c0.5,0.3,0.9,0.7,1.5,0.9c1.4,0.8,2.7,1.8,3.9,2.9c0.5,0.4,1,0.9,1.6,1c2,0.5,3.9,0.9,5.9,1.2c1.6,0.6,3.2,1.3,4.9,2
			c2.8,1.1,5.3,2.7,7.7,4.4c1.8,1.3,3.6,2.6,4.9,4.4c0.1,0.1,0.2,0.3,0.3,0.2c0.2-0.1,0.1-0.2,0.1-0.4c0.1-0.3,0.1-0.6,0.2-1
			c0.7-2.7,1-5.3,0.1-8c-0.6-1.7-1.4-3.2-2.8-4.3c-0.1-0.1-0.2-0.2-0.2-0.3c0.3-0.2,0.6-0.3,0.9-0.2c1.4,0.2,2.8,0.3,4.2,0.7
			c4,1.1,7.5,3,10.4,6.1c1.8,1.8,3.2,3.9,4.3,6.2c1.8,4.1,2.2,8.4,1.5,12.8c-0.6,4.3-2.6,7.9-5.5,11c-0.6,0.7-1.3,1.3-2,2
			c-0.1,0.1-0.3,0.3-0.2,0.5c0.1,0.2,0.3,0.3,0.4,0.3c0.4,0,0.8,0.2,1.2,0.3c1.4,0.3,2.7,0.5,4,1c1.7,0.6,3.5,1.2,5.2,2
			c2.1,1,4.1,2.3,5.8,4c1,1.1,2.1,2.1,2.9,3.4c0.6,1,1.4,1.8,1.7,2.9c0.2,0.8,0.7,1.5,0.9,2.4c0.3,1.1,0.5,2.3,0.6,3.4
			c0,0.7,0.4,1.4,0.2,2.1c-0.3,1.5-0.3,3-0.8,4.4c-0.6,1.6-1.3,3.3-2.2,4.7c-0.9,1.3-1.9,2.5-3,3.7c-0.9,1-2.1,1.7-3.2,2.6
			c-1.4,1.2-3,2-4.7,2.7c-1.7,0.7-3.4,1.3-5.2,1.6c-1.3,0.2-2.6,0.5-3.9,0.7c-0.3,0.1-0.6,0.1-0.9,0.1c-2.1,0-4.2,0-6.3,0
			c-2.1,0-4.2-0.1-6.3,0.1c-2.6,0.3-5.1,0.9-7.5,2c-2.8,1.4-5.3,3.1-7.4,5.6c-1.8,2.2-3.3,4.6-4.3,7.4c-0.9,2.5-1.3,5.2-1.3,7.9
			C79.9,126.5,79.7,133.9,80,141.2z M90.2,84c3.1,0,6.2,0,9.3,0c0.7,0,1.4,0,2.1,0c5.2,0,10.3,0,15.5,0c1.1,0,2.1-0.2,3.2-0.4
			c4.8-1.3,7.8-6,7.1-10.8c-0.4-3.1-2-5.6-4.7-7.2c-0.5-0.3-1.1-0.5-1.6-0.8c-0.7-0.4-1.4-0.6-2.2-0.6c-0.1-0.1-0.3-0.1-0.5-0.1
			c-3.8,0-7.5,0-11.3,0c-0.7,0-1.4,0-2.1,0c-5.2,0.1-10.3-0.1-15.5,0.1c-2.3,0.1-4.2,1-6,2.4c-1.3,1-2.2,2.5-2.9,4
			c-0.8,1.8-0.8,3.6-0.4,5.5c0.5,2.4,1.7,4.4,3.6,5.9c1.8,1.4,3.8,2.2,6.1,2.1l0,0l0,0C90,84,90.1,84,90.2,84z M43,35.1
			c-0.2,0.2-0.1,0.4,0,0.6c0,0.5,0,1,0,1.4c0,0,0,0,0,0.1c0,0,0,0.1,0,0.1c0,0.1,0,0.2,0,0.4c-0.1,0.1-0.1,0.2,0,0.2
			c0,0.4-0.1,0.8,0.1,1.2c0.5,1.8,0.8,3.7,1.8,5.4c1.2,2.2,2.6,4.1,4.6,5.6c3.6,2.8,7.6,4.1,12.2,3.8c2.6-0.2,5-0.9,7.2-2.1
			c1.8-1,3.4-2.2,4.6-3.7c2.3-2.7,3.8-5.7,4.2-9.3c0.3-2.4,0.1-4.8-0.5-7.1c-0.7-2.5-2-4.6-3.7-6.5c-3.2-3.6-7.2-5.7-12-6
			c-3-0.2-6,0.3-8.8,1.7c-1,0.5-2,1.1-2.9,1.7c-1.8,1.4-3.3,3-4.5,5C44.1,30,43.2,32.4,43,35.1z M60.6,66.8
			c-4.7-0.1-8.2,3.7-8.2,7.9c0,4.4,3.5,8.1,8,8.1c4.6,0.1,8.1-3.7,8.1-8C68.6,70.3,65,66.9,60.6,66.8z M77.2,77.8
			c0.2-1.5-1.3-3.3-3.2-3.3c-1.6,0-3.2,1.2-3.2,3.2c0,1.9,1.5,3.2,3.3,3.2C75.7,81,77.2,79.5,77.2,77.8z M65.9,86.8
			c-0.2,1.4,1.4,2.7,2.5,2.7c1.5,0,2.7-1.1,2.7-2.6c0.1-1.7-1.4-2.7-2.8-2.7C67.1,84.1,65.9,85.4,65.9,86.8z"/>
		<path class="st11" d="M113.7,96.1c1.3-0.2,2.6-0.5,3.9-0.7c1.8-0.3,3.6-0.9,5.2-1.6c1.6-0.7,3.3-1.5,4.7-2.7
			c1-0.9,2.3-1.5,3.2-2.6c1-1.2,2.1-2.3,3-3.7c1-1.5,1.6-3.1,2.2-4.7c0.5-1.4,0.5-2.9,0.8-4.4c0.1-0.7-0.2-1.4-0.2-2.1
			c-0.1-1.1-0.3-2.3-0.6-3.4c-0.2-0.8-0.7-1.6-0.9-2.4c-0.3-1.1-1.1-2-1.7-2.9c-0.8-1.3-1.9-2.3-2.9-3.4c-1.7-1.7-3.6-3-5.8-4
			c-1.7-0.8-3.4-1.4-5.2-2c-1.3-0.5-2.7-0.7-4-1c-0.4-0.1-0.8-0.3-1.2-0.3c-0.2,0-0.4,0-0.4-0.3c0-0.2,0.1-0.3,0.2-0.5
			c0.7-0.7,1.4-1.3,2-2c2.9-3.1,4.9-6.8,5.5-11c0.7-4.4,0.3-8.7-1.5-12.8c-1-2.3-2.5-4.4-4.3-6.2c-2.9-3-6.4-5-10.4-6.1
			c-1.4-0.4-2.8-0.4-4.2-0.7c-0.3-0.1-0.7,0-0.9,0.2c-1.7-1.9-3.5-3.5-5.5-5c-2.7-2-5.6-3.6-8.6-5.1c-0.3-0.2-0.6-0.2-1,0
			c-3.3,1.6-6.3,3.6-9.2,5.7c-0.7,0.6-1.6,1-2.2,1.8c-0.4,0.2-0.7,0.1-1-0.2c-0.1-0.2-0.4-0.3-0.6-0.4c-0.4-0.3-0.8-0.7-1.2-1
			c-3-2.4-6.3-4.2-9.7-5.9c-0.4-0.2-0.6-0.1-1,0.1c-3.7,1.8-7.1,4.1-10.4,6.5c-1,0.8-2.4,1.2-3.3,2c-0.2,0.2-0.4,0.3-0.7,0.3
			c-1-0.4-1.9-1.1-2.9-1.4c-1.4-0.4-2.9-0.6-4.3-0.9c-1.6-0.3-3.2-0.4-4.8-0.1c-0.3,0-0.6,0.1-0.9-0.1c1.2-0.9,2.6-1.6,3.8-2.4
			c1.6-1.1,3.4-1.9,5.2-2.6c4.9-2,10-3.8,15.2-4.8c2.9-0.5,5.8-1,8.7-1.2c2.1-0.1,4.3-0.3,6.4-0.2c1.8,0.1,3.6,0.2,5.3,0.3
			c2.6,0.2,5.1,0.6,7.6,1.1c4.4,0.9,8.8,2.2,13,4c2.1,0.9,4.1,1.7,6.1,2.8c1.4,0.8,2.8,1.7,4.2,2.6c2.6,1.5,5,3.3,7.3,5.2
			c2.9,2.4,5.7,5,8.2,7.8c1.8,2,3.4,4.2,5,6.4c3.5,5,6.3,10.4,8.5,16.2c1,2.7,1.9,5.5,2.5,8.3c0.4,1.9,0.8,3.8,1.1,5.7
			c0.3,1.8,0.4,3.6,0.6,5.3c0.2,2.4,0.3,4.8,0.2,7.2c0,1.8-0.2,3.6-0.4,5.3c-0.3,2.3-0.6,4.7-1.2,7c-0.5,1.9-0.9,3.9-1.4,5.8
			c-0.6,2-1.3,3.9-2.1,5.9c-1.6,4.1-3.6,8-6,11.7c-1.3,2.1-2.8,4.2-4.3,6.2c-1.6,2.1-3.4,4.1-5.4,6c-1.2,1.1-2.5,2.2-3.6,3.3
			c-0.8,0.8-1.6,1.4-2.4,2.2c-0.3,0.3-0.7,0.6-1.2,0.8c-0.2-0.3-0.1-0.5-0.1-0.8c0-8.9,0-17.8,0-26.6c0-0.3-0.2-0.8-0.1-0.9
			C113.8,97.8,113.6,97,113.7,96.1z"/>
		<path class="st65" d="M113.7,96.1c-0.1,0.9,0.1,1.7-0.1,2.6c-0.1,0.2,0.1,0.6,0.1,0.9c0,8.9,0,17.8,0,26.6c0,0.3,0,0.6,0.1,0.8
			c-0.2,0.6-0.9,0.8-1.3,1.2c-1.5,1.1-3,2.2-4.6,3.1c-0.6,0.3-1.3,0.6-1.7,1c-0.6,0.6-1.5,0.8-2.1,1.2c-0.7,0.5-1.5,0.8-2.3,1.1
			c-1.2,0.5-2.5,1-3.7,1.6c-0.8,0.4-1.8,0.5-2.5,1c-0.6,0.4-1.3,0.5-1.9,0.7c-0.7,0.2-1.4,0.8-2.3,0.7c-0.3,0-0.4,0.4-0.7,0.4
			c-0.9,0.1-1.8,0.6-2.7,0.6c-0.3,0-0.6,0.1-0.8,0.2c-0.3,0.2-0.7,0.3-1.1,0.3c-0.4,0-0.7,0.1-1,0.2c-1.7,0.3-3.3,0.8-5.1,0.8
			c-0.2-7.3-0.1-14.7-0.1-22c0-2.7,0.4-5.3,1.3-7.9c1-2.7,2.4-5.1,4.3-7.4c2-2.5,4.6-4.2,7.4-5.6c2.3-1.2,4.9-1.7,7.5-2
			c2.1-0.3,4.2-0.1,6.3-0.1c2.1,0,4.2,0,6.3,0C113.1,96.2,113.4,96.2,113.7,96.1z"/>
		<path class="st19" d="M32.9,11.2c0.3,0.2,0.6,0.2,0.9,0.1c1.6-0.2,3.2-0.2,4.8,0.1c1.5,0.2,2.9,0.4,4.3,0.9c1,0.3,1.9,0.9,2.9,1.4
			c-0.1,0.2-0.2,0.4-0.4,0.6c-1.8,1.2-3.4,2.8-4.8,4.5c-0.6,0.1-1.3,0.3-1.9,0.4c-2.1,0.3-4.3,0.8-6.4,1.3c-0.9,0.2-1.8,0.4-2.7,0.8
			c-0.7,0.3-1.4,0.5-2.1,0.6c-1,0.2-1.5,0.8-1.8,1.8c-1,3.1-1.9,6.3-2.5,9.6c-0.4,2.1-0.7,4.1-0.7,6.2c-0.1,2.7,0.2,5.3,1,7.8
			c0.6,1.7,1.4,3.3,2.7,4.5c1.3,1.3,2.8,2.4,4.4,3.3c0.5,0.3,0.5,0.4,0.1,0.8c-0.9,0.9-1.9,1.7-2.7,2.7c-2.1,2.5-3.8,5.3-5.3,8.2
			c-0.3,0.5-0.3,0.9,0,1.4c0.4,0.8,0.8,1.5,1.3,2.3c1.6,2.9,3.5,5.5,5.8,7.9c0.4,0.4,0.3,0.6,0,0.9c-0.9,0.9-1.8,1.8-2.6,2.9
			c-1.5,2-2.8,4.2-4.1,6.4c-0.5,0.9-0.7,1.8-0.1,2.7c0.4,0.6,0.7,1.3,1.1,1.9c1.1,1.9,2.3,3.7,3.6,5.4c0.6,0.8,1.3,1.5,2,2.1
			c0.4,0.3,0.4,0.6,0.1,1c-0.9,1-1.9,2-2.7,3.1c-1.6,2.1-2.9,4.5-4.2,6.8c-0.3,0.5-0.3,1.1-0.1,1.6c0.6,1.1,1.2,2.3,1.8,3.4
			c1.5,2.4,3.1,4.8,5.3,6.7c0.4,0.3,0.3,0.6,0,0.9c-0.4,0.4-0.9,0.8-1.3,1.3c-0.3,0.5-0.7,0.8-1.3,0.8c0,0,0,0,0,0
			c-0.1-0.1-0.1-0.3-0.3-0.3c-0.9-0.6-1.6-1.3-2.4-2c-0.3-0.3-0.5-0.7-1-0.6c0,0,0,0,0,0c0-0.3-0.2-0.4-0.3-0.5
			c-0.9-0.8-1.7-1.7-2.6-2.5c-0.3-0.3-0.6-0.8-1.1-0.9c-0.2-0.1-0.3-0.2-0.4-0.4c0.5-0.7,1.1-1.3,1.7-1.9c0.8-0.7,0.8-0.7,0-1.5
			c-2.9-2.9-5-6.4-6.8-10c-0.2-0.4-0.2-0.7,0-1.1c1.9-3.8,4-7.4,7.2-10.3c0.3-0.3,0.3-0.5,0-0.8c-0.7-0.8-1.6-1.4-2.2-2.3
			c-0.5-0.7-1-1.2-1.5-1.9c-1.3-1.9-2.5-4-3.5-6.1c-0.2-0.5-0.2-0.8,0-1.3c0.6-1,1.1-2,1.6-3c1.4-2.6,3.2-5.1,5.5-7
			c0.5-0.5,0.3-0.7,0-1c-0.9-0.8-1.7-1.7-2.4-2.7c-1.9-2.4-3.5-5-4.7-7.7c-0.1-0.2-0.2-0.4-0.1-0.6c0.6-1.2,1.1-2.3,1.8-3.5
			c1.7-3.1,3.7-5.9,6.5-8.1c0.3-0.3,0.4-0.4,0-0.6c-1.5-0.8-2.8-1.8-4-3c-2.7-2.6-3.8-5.9-4-9.5c0-0.5,0.1-0.9,0.1-1.4
			c-0.2-1.6-0.1-3.2,0.1-4.8c0-0.2,0-0.4-0.2-0.5c0.6-1.2,0.8-2.6,1.1-3.9c0.4-2.3,0.9-4.5,1.7-6.7c0.3-0.8,0.6-1.7,0.8-2.6
			c0.1-0.5,0.3-0.7,0.8-0.9c1.9-0.6,3.8-1.2,5.7-1.7c1.5-0.4,3.1-0.8,4.7-1C30,11.8,31.4,11.5,32.9,11.2z"/>
		<path class="st11" d="M13.9,28.8c0.2,0.1,0.2,0.3,0.2,0.5c-0.2,1.6-0.2,3.2-0.1,4.8c0,0.4-0.1,0.9-0.1,1.4c0.3,3.6,1.3,6.9,4,9.5
			c1.2,1.2,2.6,2.2,4,3c0.4,0.2,0.4,0.3,0,0.6c-2.7,2.2-4.8,5-6.5,8.1c-0.6,1.1-1.2,2.3-1.8,3.5c-0.1,0.2,0,0.4,0.1,0.6
			c1.3,2.7,2.9,5.3,4.7,7.7c0.7,1,1.5,1.9,2.4,2.7c0.3,0.3,0.5,0.5,0,1c-2.3,2-4,4.4-5.5,7c-0.5,1-1.1,2-1.6,3
			c-0.2,0.4-0.3,0.8,0,1.3c1.1,2.1,2.2,4.2,3.5,6.1c0.4,0.7,1,1.2,1.5,1.9c0.6,0.9,1.4,1.5,2.2,2.3c0.3,0.3,0.3,0.6,0,0.8
			c-3.2,2.9-5.3,6.5-7.2,10.3c-0.2,0.4-0.2,0.7,0,1.1c1.9,3.6,3.9,7.1,6.8,10c0.7,0.7,0.7,0.7,0,1.5c-0.6,0.6-1.2,1.2-1.7,1.9
			c-0.3-0.4-0.7-0.8-1-1.2c-2.6-2.8-4.8-5.8-6.8-9c-2.8-4.3-5.1-9-6.9-13.8c-1.1-3-2-6.1-2.7-9.2c-0.4-2-0.7-4.1-1.1-6.1
			C0,75.7,0,71.6,0,67.5c0-1.6,0.3-3.3,0.5-4.9c0.4-3.8,1.3-7.5,2.3-11.1c0.8-2.9,1.9-5.8,3.1-8.7c0.9-2.2,2-4.2,3-6.3
			c0.3-0.7,0.9-1.3,1.3-1.9C11.2,32.5,12.6,30.6,13.9,28.8z"/>
		<path class="st66" d="M27.2,126.5c0.6-0.1,1-0.3,1.3-0.8c0.4-0.5,0.8-0.9,1.3-1.3c0.3-0.3,0.4-0.6,0-0.9c-2.1-2-3.8-4.3-5.3-6.7
			c-0.7-1.1-1.2-2.2-1.8-3.4c-0.3-0.5-0.2-1.1,0.1-1.6c1.3-2.3,2.6-4.7,4.2-6.8c0.8-1.1,1.8-2.1,2.7-3.1c0.4-0.4,0.3-0.7-0.1-1
			c-0.7-0.7-1.4-1.4-2-2.1c-1.3-1.7-2.6-3.5-3.6-5.4c-0.4-0.6-0.7-1.3-1.1-1.9c-0.6-0.9-0.4-1.8,0.1-2.7c1.2-2.2,2.5-4.4,4.1-6.4
			c0.8-1,1.7-2,2.6-2.9c0.4-0.3,0.4-0.6,0-0.9c-2.3-2.3-4.2-5-5.8-7.9c-0.4-0.8-0.9-1.5-1.3-2.3c-0.3-0.5-0.3-0.9,0-1.4
			c1.5-2.9,3.2-5.7,5.3-8.2c0.8-1,1.8-1.9,2.7-2.7c0.4-0.4,0.4-0.5-0.1-0.8c-1.6-0.9-3-2.1-4.4-3.3c-1.3-1.3-2.1-2.8-2.7-4.5
			c-0.9-2.6-1.1-5.2-1-7.8c0.1-2.1,0.4-4.2,0.7-6.2c0.6-3.3,1.5-6.4,2.5-9.6c0.3-1,0.8-1.6,1.8-1.8c0.7-0.1,1.4-0.4,2.1-0.6
			c0.9-0.3,1.8-0.5,2.7-0.8c2.1-0.5,4.2-1,6.4-1.3c0.6-0.1,1.3-0.2,1.9-0.4c-0.9,1.2-1.7,2.4-2.4,3.7c-1.3,2.3-2.2,4.8-2.7,7.4
			c-0.7,3.6-0.7,7.1,0.2,10.6c0.2,0.9,0.2,1.7-0.1,2.5c-0.7,1.7-1,3.4-1.5,5.1c-0.5,1.6-0.5,3.3-0.6,4.9c-0.2,1.6-0.4,3.3-0.4,4.9
			c0.3,23.3,0.1,46.5,0.1,69.8c0,1,0.2,2.1-0.1,3.1c-1.3-0.8-2.6-1.6-3.8-2.5c-0.6-0.5-1.3-0.8-1.8-1.4
			C27.3,126.7,27.1,126.7,27.2,126.5z"/>
		<path class="st66" d="M19.4,119.6c0.5,0.1,0.8,0.6,1.1,0.9c0.9,0.8,1.7,1.7,2.6,2.5c0.2,0.1,0.4,0.3,0.3,0.5
			C22,122.3,20.6,121.1,19.4,119.6z"/>
		<path class="st66" d="M23.5,123.5c0.5-0.1,0.7,0.4,1,0.6c0.8,0.7,1.5,1.5,2.4,2c0.1,0.1,0.2,0.2,0.3,0.3c-0.5,0-0.8-0.4-1.2-0.7
			C25.1,125.1,24.3,124.3,23.5,123.5z"/>
		<path class="st11" d="M118.8,64.1c0.8,0,1.5,0.2,2.2,0.6c0.5,0.3,1.1,0.5,1.6,0.8c2.7,1.7,4.3,4.1,4.7,7.2
			c0.7,4.9-2.3,9.5-7.1,10.8c-1.1,0.3-2.1,0.4-3.2,0.4c-5.2,0-10.3,0-15.5,0c0-1.4,0-2.9-0.1-4.3c0-0.9,0-1.8-0.4-2.7
			c-1.2-2.8-3.9-4.3-7-3.5c-1.7,0.5-4.1,2.4-4.1,5.1c0,1.8,0,3.5-0.1,5.3c-2.3,0.1-4.3-0.7-6.1-2.1c-1.9-1.5-3-3.5-3.6-5.9
			c-0.4-1.9-0.4-3.7,0.4-5.5c0.7-1.5,1.5-2.9,2.9-4c1.8-1.4,3.7-2.3,6-2.4c5.2-0.2,10.3,0,15.5-0.1c0.7,0,1.4,0,2.1,0
			c0,1.6,0.1,3.2,0,4.9c-0.1,1.5,0.5,2.6,1.4,3.7c1.1,1.3,2.5,2.1,4.2,2.2c1.5,0.1,2.8-0.4,3.9-1.4c1.4-1.2,2.1-2.8,2.2-4.7
			C118.8,67.2,118.6,65.6,118.8,64.1z"/>
		<path class="st3" d="M43,37.6c0-0.1,0-0.2,0-0.4c0,0,0,0,0-0.1c0,0,0-0.1,0-0.1c0-0.5,0-1,0-1.4c0.1-0.2,0.1-0.4,0-0.6
			c0.2-2.7,1.1-5.1,2.4-7.4c1.2-2,2.7-3.6,4.5-5c0.9-0.7,1.9-1.2,2.9-1.7c2.8-1.4,5.7-1.9,8.8-1.7c4.8,0.3,8.8,2.4,12,6
			c1.7,1.9,3.1,4,3.7,6.5c0.6,2.4,0.7,4.7,0.5,7.1c-0.4,3.6-2,6.6-4.2,9.3c-1.3,1.5-2.9,2.7-4.6,3.7c-2.3,1.2-4.7,2-7.2,2.1
			c-4.5,0.3-8.6-1.1-12.2-3.8c-2-1.5-3.4-3.5-4.6-5.6c-1-1.7-1.3-3.6-1.8-5.4c-0.1-0.4,0-0.8-0.1-1.2C43,37.8,43,37.7,43,37.6z
			 M70.7,37.6c0-5.8-4.6-10.3-10.4-10.3c-5.5,0-10.3,4.6-10.2,10.4c0.1,6,4.6,10.2,10.3,10.2C66.6,47.8,70.7,42.8,70.7,37.6z"/>
		<path class="st66" d="M60.6,66.8c4.4,0.1,7.9,3.6,7.9,8.1c0,4.3-3.5,8-8.1,8c-4.5-0.1-8-3.7-8-8.1C52.5,70.5,55.9,66.7,60.6,66.8z
			"/>
		<path class="st19" d="M73.7,12.3c0.6-0.7,1.4-1.2,2.2-1.8c2.9-2.2,6-4.1,9.2-5.7c0.3-0.2,0.6-0.2,1,0c3,1.4,5.9,3.1,8.6,5.1
			c2,1.5,3.8,3.1,5.5,5c0.1,0.1,0.2,0.2,0.2,0.3c-0.5,0.1-0.7-0.3-1-0.5c-1.4-0.7-2.8-1.5-4.2-2.2c-0.5-0.3-1.2-0.4-1.7-0.1
			c-1.5,0.7-2.9,1.5-4.3,2.3c-0.5,0.3-1,0.7-1.5,1.1c-0.8,0.5-1.5,1-2.3,1.5c-0.3,0.2-0.5,0.4-0.5,0.7c-2-0.3-3.9-0.8-5.9-1.2
			c-0.7-0.2-1.1-0.6-1.6-1c-1.3-1-2.5-2-3.9-2.9C73.5,12.7,73.6,12.5,73.7,12.3z"/>
		<path class="st66" d="M84.9,18c0-0.4,0.2-0.6,0.5-0.7c0.8-0.5,1.5-1,2.3-1.5c0.5-0.3,1-0.8,1.5-1.1c1.4-0.8,2.8-1.6,4.3-2.3
			c0.5-0.3,1.2-0.1,1.7,0.1c1.4,0.7,2.8,1.5,4.2,2.2c0.3,0.2,0.5,0.6,1,0.5c1.4,1.1,2.2,2.7,2.8,4.3c0.9,2.7,0.6,5.4-0.1,8
			c-0.1,0.3-0.2,0.6-0.2,1c0,0.1,0,0.3-0.1,0.4c-0.2,0.1-0.3-0.1-0.3-0.2c-1.4-1.8-3.2-3.1-4.9-4.4c-2.4-1.7-4.9-3.3-7.7-4.4
			C88.1,19.3,86.5,18.6,84.9,18z"/>
		<path class="st3" d="M118.8,64.1c-0.1,1.5,0,3.1-0.1,4.6c0,1.9-0.7,3.4-2.2,4.7c-1.1,1-2.5,1.5-3.9,1.4c-1.7-0.1-3.1-0.9-4.2-2.2
			c-0.9-1.1-1.4-2.3-1.4-3.7c0.1-1.6,0-3.2,0-4.9c3.8,0,7.5,0,11.3,0C118.5,64,118.7,64,118.8,64.1z"/>
		<path class="st3" d="M89.9,83.9c0-1.8,0-3.5,0.1-5.3c0.1-2.7,2.4-4.7,4.1-5.1c3.1-0.8,5.8,0.7,7,3.5c0.4,0.8,0.3,1.8,0.4,2.7
			c0.1,1.4,0,2.9,0.1,4.3c-0.7,0-1.4,0-2.1,0c-3.1,0-6.2,0-9.3,0C90.1,84,90,84,89.9,83.9L89.9,83.9L89.9,83.9z"/>
		<path class="st19" d="M49.8,11.3c3.3-2.4,6.7-4.7,10.4-6.5c0.3-0.2,0.6-0.2,1-0.1c3.4,1.7,6.7,3.5,9.7,5.9c0.4,0.3,0.8,0.7,1.2,1
			c-0.1,0-0.2,0.1-0.2,0.3c-2.2-1.1-4.6-1.9-7.1-2.3c-2.7-0.5-5.4-0.5-8.1-0.1c-2.1,0.3-4.1,0.8-6,1.7
			C50.4,11.4,50.1,11.6,49.8,11.3z"/>
		<path class="st66" d="M77.2,77.8c0,1.7-1.5,3.1-3.1,3.2c-1.8,0-3.3-1.3-3.3-3.2c0-2,1.6-3.2,3.2-3.2
			C75.9,74.5,77.4,76.4,77.2,77.8z"/>
		<path class="st66" d="M65.9,86.8c0-1.4,1.2-2.7,2.5-2.6c1.4,0,2.8,1.1,2.8,2.7c-0.1,1.4-1.2,2.5-2.7,2.6
			C67.3,89.5,65.8,88.2,65.9,86.8z"/>
		<path class="st65" d="M71.9,12c0-0.1,0.1-0.2,0.2-0.3c0.2,0.1,0.4,0.3,0.6,0.4c0.3,0.4,0.6,0.4,1,0.2c-0.1,0.2-0.2,0.3-0.3,0.5
			C72.8,12.7,72.4,12.2,71.9,12z"/>
		<path class="st65" d="M43,35.1c0,0.2,0,0.4,0,0.6C42.9,35.5,42.9,35.3,43,35.1z"/>
		<path class="st65" d="M89.9,83.9c0.1,0,0.2,0.1,0.3,0.1C90.1,84,90,84,89.9,83.9z"/>
		<path class="st65" d="M43,37.6c0,0.1,0,0.2,0,0.2C42.9,37.8,42.9,37.7,43,37.6z"/>
		<path class="st65" d="M43,37.1c0,0,0,0.1,0,0.1c0,0,0,0,0,0.1C43,37.2,43,37.2,43,37.1C43,37.2,43,37.1,43,37.1z"/>
		<path class="st66" d="M70.7,37.6c0.1,5.3-4.1,10.2-10.2,10.3c-5.7,0-10.2-4.2-10.3-10.2c-0.1-5.7,4.6-10.4,10.2-10.4
			C66.1,27.3,70.6,31.8,70.7,37.6z M63.3,30.4c-1.6-0.6-3.3-0.7-5-0.2c-4.5,1.3-6.9,5.9-5.1,10.3c1.2,2.8,3.3,4.5,6.5,4.8
			c2.2,0.2,4.1-0.4,5.8-1.9c1.6-1.4,2.4-3.2,2.5-5.3c0.1-1.5,0-3-1.1-4.2c-0.1-0.1,0.1-0.2,0.1-0.3c0.5-1.2,0.4-2.8-1.1-3.4
			C65.1,29.7,64.1,29.8,63.3,30.4z"/>
		<path class="st11" d="M66.9,33.7c1.1,1.2,1.2,2.7,1.1,4.2c-0.1,2.1-0.9,3.9-2.5,5.3c-1.7,1.5-3.6,2.1-5.8,1.9
			c-3.2-0.2-5.3-1.9-6.5-4.8c-1.8-4.3,0.6-9,5.1-10.3c1.7-0.5,3.4-0.4,5,0.2c-0.6,0.4-0.7,1.1-0.8,1.8c-0.2,1.5,1.3,2.8,2.8,2.5
			C66,34.5,66.5,34.1,66.9,33.7z M63.1,37.5c0-1.7-1.1-2.7-2.7-2.8c-1.4-0.1-3,1.3-3,2.9c0.1,1.6,1.3,2.8,2.7,2.9
			C61.8,40.5,63.3,39.4,63.1,37.5z"/>
		<path class="st3" d="M66.9,33.7c-0.5,0.4-0.9,0.7-1.6,0.9c-1.5,0.3-3.1-1-2.8-2.5c0.1-0.6,0.2-1.3,0.8-1.8
			c0.8-0.6,1.8-0.7,2.7-0.3c1.4,0.6,1.6,2.2,1.1,3.4C67,33.6,66.9,33.6,66.9,33.7z"/>
		<path class="st3" d="M63.1,37.5c0.2,1.9-1.3,3.1-3,3c-1.4-0.1-2.6-1.2-2.7-2.9c-0.1-1.6,1.5-3,3-2.9
			C62.1,34.7,63.1,35.8,63.1,37.5z"/>
	</g>
</g>
</svg>
