<?xml version="1.0" encoding="utf-8"?>
<!-- Generator: Adobe Illustrator 27.3.1, SVG Export Plug-In . SVG Version: 6.00 Build 0)  -->
<svg version="1.1" id="Ebene_1" xmlns="http://www.w3.org/2000/svg" xmlns:xlink="http://www.w3.org/1999/xlink" x="0px" y="0px"
	 viewBox="0 0 141.7 141.7" style="enable-background:new 0 0 141.7 141.7;" xml:space="preserve">
<style type="text/css">
	.st0{fill:#F6BB37;}
	.st1{fill:#3684C6;}
	.st2{fill:#DCA12A;}
	.st3{fill:#FCFCFE;}
	.st4{fill:#E97E2F;}
	.st5{fill:#28273D;}
	.st6{fill:#7F65AA;}
	.st7{fill:#B49ECB;}
	.st8{fill:#66529D;}
	.st9{fill:#33314C;}
	.st10{fill:#35ACC6;}
	.st11{fill:#27263D;}
	.st12{fill:#DB191D;}
	.st13{fill:#42BEE1;}
	.st14{fill:#EE715E;}
	.st15{fill:#396CB3;}
	.st16{fill:#EA5B4C;}
	.st17{fill:#F2C551;}
	.st18{fill:#27273D;}
	.st19{fill:#B0CF6D;}
	.st20{fill:#28263D;}
	.st21{fill:#9E4A30;}
	.st22{fill:#DB1E1D;}
	.st23{fill:#FBFBFD;}
	.st24{fill:#A3C163;}
	.st25{fill:#3F426D;}
	.st26{fill:#33304C;}
	.st27{fill:#DB181D;}
	.st28{fill:#83C4ED;}
	.st29{fill:#B6622B;}
	.st30{fill:#AB795E;}
	.st31{fill:#88C7EE;}
	.st32{fill:#9BB7CC;}
	.st33{fill:#E97F31;}
	.st34{fill:#CD6F2C;}
	.st35{fill:#A8A4A6;}
	.st36{fill:#84C4EC;}
	.st37{fill:#FEFEFE;}
	.st38{fill:#D91F1D;}
	.st39{fill:#F29454;}
	.st40{fill:#3C86C6;}
	.st41{fill:#F8FAFD;}
	.st42{fill:#AD8ABF;}
	.st43{fill:#67529E;}
	.st44{fill:#F6D373;}
	.st45{fill:#29273D;}
	.st46{fill:#EE715D;}
	.st47{fill:#F9C6BD;}
	.st48{fill:#A65E3A;}
	.st49{fill:#F18B88;}
	.st50{fill:#82C2EC;}
	.st51{fill:#E28080;}
	.st52{fill:#D57474;}
	.st53{fill:#4F5173;}
	.st54{fill:#3785C6;}
	.st55{fill:#E84680;}
	.st56{fill:#28273E;}
	.st57{fill:#E13072;}
	.st58{fill:#F5BA37;}
	.st59{fill:#F3C651;}
	.st60{fill:#DB5144;}
	.st61{fill:#A17FB8;}
	.st62{fill:#AC8ABE;}
	.st63{fill:#342E4F;}
	.st64{fill:#2DAC64;}
	.st65{fill:#5CB993;}
	.st66{fill:#9DBA5C;}
	.st67{fill:#5AB992;}
	.st68{fill:#66529E;}
	.st69{fill:#EA5A4C;}
	.st70{fill:#12994E;}
	.st71{fill:#DE5044;}
	.st72{fill:#EE715F;}
	.st73{fill:#E97F2F;}
	.st74{fill:#A89AC9;}
	.st75{fill:#38B3CD;}
	.st76{fill:#DD3D78;}
	.st77{fill:#F5D373;}
	.st78{fill:#FDEAB4;}
	.st79{fill:#7F66AA;}
	.st80{fill:#3885C6;}
	.st81{fill:#40436D;}
	.st82{fill:#A99ACA;}
	.st83{fill:#34314B;}
	.st84{fill:#F4D273;}
	.st85{fill:#83C5ED;}
	.st86{fill:#D29C2C;}
	.st87{fill:#87C7EE;}
	.st88{fill:#F6BB38;}
	.st89{fill:#F6BB3A;}
	.st90{fill:#E83D69;}
	.st91{fill:#F4BC3F;}
	.st92{fill:#85C5EB;}
	.st93{fill:#DA1E1D;}
	.st94{fill:#DDA736;}
	.st95{fill:#F18D88;}
	.st96{fill:#FFFEFE;}
	.st97{fill:#F9C8BC;}
	.st98{fill:#3B85C6;}
</style>
<g id="_x31_NpZpw.tif">
	<g>
		<path class="st16" d="M58.9,140.7c-1.3-0.1-2.5-0.4-3.7-0.7c-3-0.7-5.9-1.6-8.8-2.6c-4.6-1.7-9.1-3.9-13.3-6.5
			c-3.5-2.2-6.8-4.7-9.9-7.5c-1.7-1.5-3.3-3.1-4.8-4.8c-0.8-0.9-1.6-1.7-2.3-2.6c-0.7-0.8-1.3-1.7-1.9-2.5c-2.2-2.9-4.1-5.9-5.8-9.1
			c-1.2-2.3-2.3-4.6-3.2-7C3.8,93.9,2.8,90.5,1.9,87c-0.4-1.7-0.7-3.5-1-5.2c-0.3-1.5-0.5-3.1-0.6-4.6c-0.1-2.5-0.4-5-0.3-7.5
			c0.1-1,0.2-1.9,0.1-2.9c0-0.7,0.2-1.4,0.1-2.1c0-0.2,0.1-0.3,0.2-0.4c0.1-0.1,0.2-0.2,0.1-0.2c-0.6-0.8,0-1.7,0.1-2.5
			c0.1-1.7,0.4-3.3,0.8-4.9c0.4-1.5,0.6-3.1,1.1-4.5c0.5-1.3,0.7-2.7,1.3-4c0.6-1.4,0.9-2.8,1.6-4.2c1.2-2.6,2.3-5.2,3.7-7.7
			c0.7-1.2,1.4-2.4,2.2-3.6c1.2-2,2.5-3.9,4-5.7c1.2-1.4,2.4-2.9,3.6-4.3c0.1-0.2,0.3-0.3,0.5-0.4c0.4,0.2,0.1,0.5,0.3,0.8
			c0.6,1.3,0.9,2.7,1.6,3.9c0.3,0.4,0.6,0.8,0.8,1.3c0.7,1.5,1.8,2.8,2.9,4c2.2,2.4,4.6,4.5,7.3,6.3c1.1,0.7,2.2,1.5,3.4,2.1
			c2.2,1,4.3,2.1,6.6,2.9c1.5,0.5,3,1.2,4.7,1.2c-0.8,1.4-1.7,2.9-2.7,4.2c-1.7,2.2-3.6,4.4-5.7,6.2c-1.4,1.3-3,2.5-4.6,3.5
			c-1.4,0.9-2.9,1.7-4.5,2.5c-1.3,0.6-2.5,1.3-3.7,1.9c-1.8,0.9-3.4,2.1-4.9,3.3c-1.4,1.1-2.7,2.4-3.7,3.9c-0.8,1.2-1.7,2.3-2.4,3.6
			c-0.6,1.2-1.1,2.5-1.6,3.7c-0.5,1.2-0.9,2.5-1.2,3.8c-0.2,0.8-0.2,1.7-0.3,2.5c-0.2,2.2-0.4,4.3,0.2,6.5c0.1,0.3,0.1,0.6,0.1,0.9
			c0.1,1.4,0.5,2.8,1,4.1c0.1,0.3,0.4,0.6,0.4,0.9c0.2,1.1,0.7,2,1.3,2.9c1.6,2.7,3.4,5.1,5.7,7.2c1.8,1.6,3.7,2.9,5.8,4
			c1,0.5,1.9,0.9,2.9,1.3c1.3,0.5,2.7,0.8,4,1.1c0.8,0.1,1.6,0.4,2.5,0.4c2,0,4,0.1,6,0.2c1.6,0.1,3.2,0.4,4.8,0.9
			c1.7,0.5,3.4,1.2,4.9,2.3c2.4,1.7,4.6,3.6,7.2,5.1c0.4,0.2,0.5,0.6,0.5,1.1c0,2.3,0,4.6,0.1,6.9C59,133.3,58.9,137,58.9,140.7z"/>
		<path class="st16" d="M122.7,22.7c1.3,1.4,2.6,2.9,3.8,4.4c1.1,1.5,2.2,2.9,3.2,4.5c1.1,1.6,2.1,3.3,3.1,5c0.7,1.3,1.4,2.6,2,4
			c0.8,1.6,1.5,3.3,2.2,5c0.6,1.6,1.1,3.2,1.6,4.8c0.6,1.8,1,3.7,1.5,5.6c0.3,1.2,0.5,2.3,0.7,3.5c0.2,1.3,0.4,2.7,0.5,4.1
			c0.1,1.4,0.3,2.8,0.3,4.2c0,0.6,0.3,1.3,0,1.9c-0.1,0.1,0.2,0.4,0.2,0.7c-0.1,1.8-0.1,3.7-0.3,5.5c-0.1,1.3-0.2,2.6-0.4,3.9
			c-0.2,1.4-0.3,2.8-0.6,4.2c-0.5,2.4-1,4.7-1.7,7.1c-0.8,2.8-1.8,5.5-3,8.2c-0.8,1.8-1.7,3.5-2.6,5.2c-1.1,2.1-2.4,4.1-3.7,6.1
			c-1.2,1.8-2.5,3.5-3.9,5.2c-1.9,2.2-3.8,4.4-5.9,6.4c-1.6,1.5-3.3,2.8-4.9,4.3c-0.8,0.6-1.6,1.3-2.4,1.8c-1.2,0.8-2.4,1.6-3.7,2.4
			c-2.1,1.4-4.4,2.6-6.6,3.7c-1,0.5-2,1-3,1.4c-2.6,1.2-5.4,2.1-8.1,3c-2,0.6-4,1.1-6,1.5c-0.6,0.1-1.2,0.2-1.8,0.4
			c0-0.9,0.1-1.7,0.1-2.6c0-5.3,0-10.7,0-16c0.1,0,0.2,0,0.3,0c0.7-0.7,1.6-1,2.4-1.6c2.3-1.7,4.5-3.4,7-4.8c2-1.1,4.1-1.8,6.3-2.1
			c1.6-0.2,3.2-0.4,4.9-0.3c1.7,0.1,3.2-0.3,4.8-0.6c2.5-0.5,4.9-1.4,7.1-2.6c2.9-1.6,5.6-3.6,7.8-6.3c1.9-2.4,3.7-4.8,4.6-7.8
			c1.2-3.6,2-7.2,1.7-11.1c-0.2-2.3-0.6-4.6-1.3-6.8c-1.1-3.6-3-6.8-5.6-9.5c-2.8-3-6.2-5.2-9.8-7c-0.6-0.3-1.3-0.6-1.9-0.9
			c-3.8-2.3-7.3-4.8-10.3-8.2c-2.1-2.4-4-4.9-5.6-7.7c1-0.3,2-0.4,3-0.8c4.2-1.4,8.1-3.4,11.8-5.8c2.2-1.4,4.1-3.2,5.9-5.1
			c2.3-2.4,4.3-5.1,5.4-8.3C122.1,24.1,122.2,23.4,122.7,22.7z"/>
		<path class="st16" d="M25.6,16.4c1.3-1,2.5-1.9,3.8-2.9c1.6-1.2,3.3-2.3,5-3.3c3.1-1.9,6.3-3.5,9.6-4.8c2.7-1.1,5.5-2,8.4-2.8
			c2.6-0.7,5.2-1.2,7.9-1.7c1.5-0.3,3.1-0.5,4.7-0.5c1.3-0.1,2.6-0.1,3.9-0.3C69.9,0,71-0.1,72,0c2.3,0.2,4.6,0.2,6.8,0.5
			C80.5,0.8,82.3,1,84,1.4c2,0.4,4,0.8,6,1.4c1.3,0.4,2.5,0.7,3.8,1.2c1.5,0.5,3,1.1,4.5,1.7c1.5,0.6,3,1.3,4.5,2.1
			c2.2,1.1,4.3,2.3,6.4,3.7c2,1.3,4,2.7,5.8,4.2c0.4,0.4,1.1,0.4,1.3,1c-0.1,0.2-0.1,0.4-0.2,0.6c-0.9,1.1-1.5,2.3-2.3,3.4
			c-1.7,2.2-3.7,3.9-5.8,5.6c-1.5,1.2-3.1,2.1-4.7,3c-2.3,1.3-4.6,2.2-7.1,3c-1.2,0.4-2.4,0.7-3.5,1.3c-0.4,0.2-1,0.3-1,0.9
			c-0.6,0-1.2,0-1.9,0c-0.2-0.3-0.4-0.5-0.6-0.8c-1.2-1.9-2.3-3.8-3.4-5.8c-0.9-1.5-1.7-3-2.7-4.5c-1.2-2-2.3-4-3.6-5.9
			c-0.4-0.7-1-1.3-1.5-1.8c-0.6-0.8-1.4-1.2-2.3-1.6c-1.4-0.6-2.9-1.1-4.5-1.1c-0.8,0-1.7,0.2-2.5,0.4c-2.2,0.6-3.9,1.8-5.2,3.7
			c-1.4,2-2.6,4.2-3.8,6.3c-0.9,1.4-1.8,2.9-2.6,4.3c-1.4,2.3-2.6,4.6-4.1,6.8c-0.9,0-1.7,0-2.6,0C50.2,34.3,50.1,34,50,34
			c-0.8-0.4-1.5-0.8-2.4-1.1c-1.4-0.4-2.7-0.7-4-1.3c-1.7-0.7-3.4-1.5-5-2.4c-1.6-1-3.2-2-4.8-3.1c-1.9-1.4-3.4-3.1-5-4.8
			c-1.2-1.4-2-3-3.1-4.4C25.5,16.7,25.6,16.6,25.6,16.4z"/>
		<path class="st61" d="M83.3,122.1c0,5.3,0,10.7,0,16c0,0.9-0.1,1.7-0.1,2.6c-0.8,0.4-1.7,0.6-2.7,0.6c-1.5,0-2.9,0.4-4.3,0.4
			c-0.3,0-0.5,0.1-0.8,0.1c-2.8,0-5.6,0-8.4,0c-1.8,0-3.6-0.2-5.4-0.5c-0.9-0.2-1.8-0.2-2.7-0.5c0-3.7,0.1-7.3,0-11
			c-0.1-2.3-0.1-4.6-0.1-6.9c0-0.4-0.1-0.8-0.5-1.1c-2.5-1.5-4.8-3.4-7.2-5.1c-1.5-1.1-3.2-1.8-4.9-2.3c-1.5-0.5-3.1-0.8-4.8-0.9
			c-2-0.1-4-0.2-6-0.2c-0.8,0-1.7-0.3-2.5-0.4c-1.4-0.2-2.7-0.5-4-1.1c-1-0.4-2-0.9-2.9-1.3c-2.1-1-4.1-2.4-5.8-4
			c-2.3-2.1-4.1-4.5-5.7-7.2c-0.5-0.9-1.1-1.8-1.3-2.9c-0.1-0.3-0.3-0.6-0.4-0.9c-0.5-1.3-0.9-2.7-1-4.1c0-0.3-0.1-0.6-0.1-0.9
			c-0.5-2.1-0.4-4.3-0.2-6.5c0.1-0.8,0.1-1.7,0.3-2.5c0.3-1.3,0.7-2.5,1.2-3.8c0.5-1.3,1-2.5,1.6-3.7c0.7-1.3,1.6-2.4,2.4-3.6
			c1-1.5,2.3-2.8,3.7-3.9c1.5-1.2,3.1-2.5,4.9-3.3c1.3-0.6,2.5-1.3,3.7-1.9c1.6-0.7,3-1.6,4.5-2.5c1.6-1,3.1-2.2,4.6-3.5
			c2.1-1.9,4-4,5.7-6.2c1-1.3,1.9-2.7,2.7-4.2c0.3-0.1,0.6-0.2,0.9-0.3c0.6-0.2,1.3-0.4,1.8-0.9c1.6-0.1,3.2-0.1,4.7,0
			c0.1,0,0.2,0,0.3,0.1c-0.2,0.3-0.5,0.5-0.7,0.8c-1.5,1.6-2.8,3.4-3.9,5.4c-1.5,2.7-2.1,5.6-2.6,8.7c-0.5,0-0.7,0.3-1.1,0.5
			c-2.2,1.3-4.5,2.4-6.7,3.5c-2.7,1.3-5.1,3-7.2,5.2c-0.6,0.6-1.4,1.1-1.9,1.8c-1,1.5-2.1,2.9-2.9,4.5c-0.4,0.8-0.8,1.8-1.4,2.5
			c-0.3-0.2-0.6-0.5-0.9-0.7c-1.3-1-2.4-2.4-3.9-3.3c-0.9-0.5-2.4,0.2-2.4,1.3c0,0.7,0.3,1.2,0.7,1.6c1.1,1.1,2.3,2,3.3,3.1
			c-0.3,0.3-0.1,0.5,0,0.8c0.6,2.2,1.2,4.4,1.7,6.6c-0.5,0.2-0.5,0.6-0.4,1c0.1,0.7,0.3,1.4,0.3,2.1c0,1.4,0.3,2.8,0.6,4.2
			c0.8,3.5,2.6,6.5,4.6,9.4c0.5,0.7,1.3,1.3,1.8,2c0.8,0.9,1.7,1.7,2.6,2.5c1.4,1.1,2.9,2,4.4,2.8c1.8,0.9,3.6,1.6,5.5,2.2
			c1.8,0.6,3.6,0.7,5.5,0.8c1.7,0.1,3.4,0.2,5.1,0.2c0.7,0,1.5,0.1,2.2,0.2c3.1,0.7,5.9,2,8.5,3.9c2,1.5,3.9,3,6.1,4.2
			c1.5,0.8,3,1.4,4.6,2c0.3,0.1,0.6,0.1,0.8,0.4c0.2,0.3,0.4,0.2,0.7,0.1c1.6-0.7,3.4-1.1,4.9-2C83,122,83.1,122.1,83.3,122.1z"/>
		<path class="st59" d="M91.6,34.4c0-0.6,0.7-0.7,1-0.9c1.1-0.6,2.3-0.9,3.5-1.3c2.5-0.8,4.9-1.7,7.1-3c1.6-0.9,3.3-1.8,4.7-3
			c2.1-1.7,4.1-3.5,5.8-5.6c0.8-1.1,1.4-2.3,2.3-3.4c0.1-0.1,0.1-0.4,0.2-0.6c0.2,0,0.3-0.1,0.4-0.3c1.9-3.6,3-7.5,3.6-11.5
			c0.1-0.9,0.2-1,0.9-1c0.5,0,0.8,0.2,0.9,0.7c1.1,3.7,1.5,7.5,1.4,11.4c0,2.1-0.3,4.1-0.9,6.1c-0.1,0.2,0,0.5,0,0.7
			c-0.5,0.6-0.6,1.4-0.8,2.1c-1.2,3.2-3.1,5.9-5.4,8.3c-1.8,1.9-3.7,3.7-5.9,5.1c-3.7,2.4-7.6,4.4-11.8,5.8c-1,0.3-2,0.5-3,0.8
			c-1.2-0.4-2.5-0.5-3.6-1.2c0.7,0,1.5,0,2.2,0c0.8,0,1.6-0.3,2.3-0.8c1.5-1.1,2.1-2.5,1.9-4.4c-0.2-1.7-1.6-3.4-3.3-3.7
			C94.1,34.4,92.8,34.5,91.6,34.4z"/>
		<path class="st59" d="M49.6,43.6c-0.5,0.5-1.2,0.7-1.8,0.9c-0.3,0.1-0.6,0.2-0.9,0.3c-1.7,0-3.2-0.7-4.7-1.2
			c-2.3-0.8-4.4-1.8-6.6-2.9c-1.2-0.6-2.3-1.3-3.4-2.1c-2.7-1.8-5.1-4-7.3-6.3c-1.1-1.2-2.2-2.5-2.9-4c-0.2-0.5-0.5-0.9-0.8-1.3
			c-0.7-1.2-1-2.7-1.6-3.9c-0.1-0.3,0.2-0.7-0.3-0.8c-0.3-1.7-0.7-3.4-0.9-5.2c-0.3-2.3-0.1-4.6,0.2-6.9c0.3-2,0.8-3.9,1.2-5.9
			c0.1-0.4,0.4-0.6,0.7-0.6c0.4,0,0.9,0.1,1,0.6C21.9,5.3,22,6.1,22.1,7c0.3,1.8,0.9,3.6,1.5,5.3c0.4,1.3,1,2.5,1.6,3.7
			c0.1,0.2,0.2,0.4,0.5,0.4c0,0.1-0.1,0.3,0.1,0.4c1.1,1.4,1.9,3,3.1,4.4c1.5,1.7,3.1,3.4,5,4.8c1.6,1.1,3.1,2.2,4.8,3.1
			c1.6,0.9,3.3,1.7,5,2.4c1.3,0.5,2.7,0.9,4,1.3c0.8,0.2,1.6,0.7,2.4,1.1c0.2,0.1,0.2,0.3,0.4,0.5c-0.7,0-1.3,0-2,0
			c-1.9,0-3.3,0.8-4.3,2.4c-0.7,1.1-0.7,2.4-0.3,3.7c0.5,1.5,1.5,2.6,3.2,2.9C47.8,43.7,48.7,43.5,49.6,43.6z"/>
		<path class="st62" d="M92.2,43.6c1.1,0.7,2.4,0.8,3.6,1.2c1.5,2.8,3.5,5.3,5.6,7.7c2.9,3.4,6.5,5.9,10.3,8.2
			c0.6,0.4,1.2,0.6,1.9,0.9c3.6,1.8,7,4,9.8,7c2.6,2.8,4.5,5.9,5.6,9.5c0.7,2.2,1.1,4.5,1.3,6.8c0.3,3.8-0.5,7.5-1.7,11.1
			c-1,2.9-2.7,5.4-4.6,7.8c-2.1,2.7-4.8,4.6-7.8,6.3c-2.2,1.2-4.6,2.1-7.1,2.6c-1.6,0.3-3.2,0.7-4.8,0.6c-1.6-0.1-3.3,0.1-4.9,0.3
			c-2.2,0.3-4.3,1-6.3,2.1c-2.5,1.4-4.7,3.1-7,4.8c-0.8,0.6-1.7,1-2.4,1.6c-0.1,0.1-0.2,0-0.3,0c-0.2,0-0.4,0-0.5,0.1
			c-1.5,0.9-3.3,1.3-4.9,2c-0.3,0.1-0.5,0.1-0.7-0.1c-0.2-0.2-0.5-0.3-0.8-0.4c-1.6-0.6-3.1-1.2-4.6-2c-2.2-1.2-4.1-2.7-6.1-4.2
			c-2.5-1.9-5.3-3.3-8.5-3.9c-0.7-0.2-1.4-0.3-2.2-0.2c-1.7,0-3.4,0-5.1-0.2c-1.8-0.1-3.7-0.3-5.5-0.8c-1.9-0.6-3.8-1.3-5.5-2.2
			c-1.6-0.8-3-1.7-4.4-2.8c-0.9-0.7-1.8-1.6-2.6-2.5c-0.6-0.7-1.3-1.2-1.8-2c-2.1-2.9-3.8-5.9-4.6-9.4c-0.3-1.4-0.6-2.8-0.6-4.2
			c0-0.7-0.2-1.4-0.3-2.1c-0.1-0.4-0.1-0.8,0.4-1c0.4,1.1,0.6,2.2,0.9,3.3c0.4,1.4,0.7,2.9,1.1,4.3c0.3,1.2,1.7,1.5,2.5,0.6
			c0.2-0.2,0.4-0.4,0.5-0.6c1.1-1.4,2.3-2.7,3.4-4.1c0,0.2,0.1,0.3,0.3,0.3c1.6,0.6,2.9,1.8,4.5,2.4c0.9,0.4,1.8,1,2.9,1
			c0.4,0.7,0.5,1.4,0.8,2.1c0.8,2,1.5,3.9,2.2,5.9c0.3,0.9,1.6,1.3,2.4,0.7c0.6-0.5,1.2-1.1,1.8-1.7c1.1-1.1,2.1-2.1,3.2-3.2
			c0.2,0.3,0.4,0.4,0.7,0.5c1.4,0.3,2.7,0.7,4.1,1c2.2,0.5,4.5,0.7,6.8,1c2.4,0.3,4.9,0.3,7.4,0.5c2.1,0.1,4.2-0.2,6.3-0.3
			c2.1-0.1,4.1-0.5,6.1-0.7c2.1-0.2,4.1-0.9,6.1-1.4c0.3-0.1,0.7-0.2,0.9-0.5c0.1,0.1,0.3,0.2,0.4,0.3c1.4,1.5,2.8,2.9,4.3,4.4
			c0.8,0.8,2.1,0.6,2.7-0.4c0.3-0.6,0.6-1.2,0.8-1.9c0.8-2.1,1.6-4.3,2.4-6.4c0.2,0.2,0.4,0.2,0.7,0.1c1.8-0.6,3.6-1.5,5.2-2.5
			c0.6-0.3,1.1-0.7,1.7-1c0.3,0.3,0.7,0.7,1,1c0.9,1.1,1.9,2.2,2.8,3.3c0.6,0.8,1.3,0.9,2.1,0.5c0.5-0.3,0.7-0.7,0.8-1.2
			c0.4-1.6,0.8-3.1,1.2-4.7c0.5-2.1,1.1-4.1,1.6-6.2c0.6,0.1,1.1-0.4,1.5-0.7c1-0.9,1.9-1.8,2.9-2.7c0.9-0.9,0.8-2.1-0.1-2.9
			c-0.1-0.1-0.2-0.2-0.2-0.4c0.1-0.2,0.3-0.3,0.4-0.5c0.5-0.6,0.6-1.6,0.1-2.1c-0.6-0.6-1.7-0.9-2.3-0.4c-0.7,0.6-1.5,1.1-2.1,1.7
			c-1.7,1.7-3.5,3.1-5.4,4.5c-0.9,0.6-1.8,1.2-2.6,1.9c-1.2,1-2.6,1.8-3.9,2.6c-0.3,0.2-0.8,0.2-1.1,0.4c-0.7,0.5-1.4,0.9-2.1,1.3
			c-1.4,0.9-3,1.3-4.4,2.1c-1.4,0.8-2.9,1.2-4.4,1.7c-3.4,1.3-6.9,2.2-10.5,2.9c-1.2,0.2-2.4,0.4-3.6,0.5c-1.2,0.1-2.4,0.4-3.6,0.4
			c-2,0-4,0.2-6,0.2c-2.4-0.1-4.8-0.1-7.2-0.4c-2.2-0.3-4.4-0.5-6.5-1c-3.7-0.8-7.3-1.9-10.8-3.3c-5.2-2.1-10-4.7-14.5-8
			c-1.5-1.1-3.2-2.2-4.5-3.5c0.6-0.7,1-1.7,1.4-2.5c0.8-1.7,1.9-3.1,2.9-4.5c0.5-0.7,1.3-1.2,1.9-1.8c2.1-2.2,4.5-3.8,7.2-5.2
			c2.3-1.1,4.6-2.2,6.7-3.5c0.3-0.2,0.6-0.6,1.1-0.5c0,0.2,0,0.5,0,0.7c0,2.7,0,5.4,0.9,8.1c0.5,1.6,1.2,3,2,4.5
			c1,1.9,2.2,3.6,3.8,5.1c1.7,1.6,3.4,3.1,5.4,4.2c0.8,0.4,1.6,0.9,2.4,1.2c1,0.4,2.1,0.7,3.2,1c3.4,0.9,6.9,1.1,10.4,0.4
			c2.2-0.4,4.2-1.1,6.2-2.2c2.6-1.5,5.1-3.3,7.1-5.6c3.2-3.7,5-8,5.5-12.8c0.2-1.7,0.1-3.5-0.1-5.3c-0.6-4.5-2.3-8.7-5.3-12.2
			c-0.6-0.7-1.1-1.5-2-2C88.6,43.4,90.4,43.5,92.2,43.6z M41.9,66c-2.3-0.3-4.4,1.8-4.4,4.2c0,2.3,2,4.4,4.3,4.3
			c2.5,0,4.3-1.8,4.3-4.4C46.1,68,44.5,65.8,41.9,66z M100,66c-2.5,0-4.3,1.8-4.3,4.2c0,2.4,2.2,4.4,4.3,4.3c2.4-0.1,4.3-2,4.3-4.4
			C104.3,67.9,102.7,65.9,100,66z M92.8,77c-1.7,0-3.1,1.3-3,3c0,1.8,1.3,3,2.9,3c1.8,0,3-1,3-3C95.8,78.4,94.4,77,92.8,77z
			 M49.2,77c-1.6,0-3.1,1.3-3.1,2.8c0,1.7,1.4,3.2,3,3.2c1.4,0,2.8-1,2.9-3C52,78.4,50.7,77,49.2,77z M104.4,79.1
			c0.2-1.2-1.1-2.2-2.1-2.1c-1.1,0-2.2,1-2.2,2.1c0,1.1,0.8,2.3,2.2,2.3C103.5,81.3,104.3,80.5,104.4,79.1z M39.5,81.3
			c1.4,0.1,2.2-1.1,2.2-2.2c0-1.1-0.7-2.1-2.1-2.1c-1.3,0-2.2,0.9-2.2,2.1C37.4,80.4,38.3,81.3,39.5,81.3z"/>
		<path class="st63" d="M92.2,43.6c-1.8-0.1-3.6-0.2-5.4,0c-0.4,0-0.7-0.1-1.1-0.1c-9.8,0-19.6,0-29.3,0c-0.6,0-1.2,0.1-1.8,0.1
			c-0.1-0.1-0.2-0.1-0.3-0.1c-1.6,0-3.2-0.1-4.7,0c-0.9-0.1-1.8,0-2.7-0.2c-1.6-0.4-2.7-1.4-3.2-2.9c-0.4-1.2-0.4-2.5,0.3-3.7
			c1-1.6,2.4-2.4,4.3-2.4c0.7,0,1.3,0,2,0c0.9,0,1.7,0,2.6,0c1.2,0.1,2.4,0,3.6,0c3.3,0,6.6,0,10,0c0.2,0,0.4,0,0.6,0
			c6.7,0,13.4,0,20,0c0.9,0,1.7,0,2.6,0c0.6,0,1.2,0,1.9,0c1.2,0,2.5,0,3.7,0.2c1.6,0.3,3.1,2,3.3,3.7c0.2,1.9-0.4,3.3-1.9,4.4
			c-0.7,0.5-1.5,0.8-2.3,0.8C93.7,43.6,93,43.6,92.2,43.6z"/>
		<path class="st61" d="M66.4,34.5c-3.3,0-6.6,0-10,0c-1.2,0-2.4,0.1-3.6,0c1.5-2.2,2.7-4.5,4.1-6.8c0.9-1.4,1.7-2.9,2.6-4.3
			c1.3-2.1,2.4-4.3,3.8-6.3c1.3-1.9,3-3.1,5.2-3.7c0.8-0.2,1.6-0.4,2.5-0.4c1.6-0.1,3,0.5,4.5,1.1c0.9,0.4,1.7,0.8,2.3,1.6
			c-0.5,0.4-0.9,0.8-1.3,1.3c-1,1.6-1.9,3.1-2.9,4.7c-1.4,2.3-2.7,4.6-4.1,6.9c-0.7,1.2-1.5,2.4-2.2,3.6
			C67,32.9,66.5,33.6,66.4,34.5z"/>
		<path class="st62" d="M66.4,34.5c0-0.9,0.5-1.5,1-2.2c0.7-1.2,1.5-2.4,2.2-3.6c1.4-2.3,2.7-4.6,4.1-6.9c0.9-1.6,1.9-3.1,2.9-4.7
			c0.3-0.5,0.8-1,1.3-1.3c0.6,0.6,1.1,1.1,1.5,1.8c1.3,1.9,2.4,4,3.6,5.9c0.9,1.5,1.8,3,2.7,4.5c1.1,2,2.3,3.9,3.4,5.8
			c0.2,0.3,0.4,0.5,0.6,0.8c-0.9,0-1.7,0-2.6,0c-6.7,0-13.4,0-20,0C66.9,34.5,66.7,34.5,66.4,34.5z"/>
		<path class="st3" d="M54.6,43.7c0.6,0,1.2-0.1,1.8-0.1c9.8,0,19.6,0,29.3,0c0.4,0,0.7,0,1.1,0.1c0.8,0.5,1.4,1.3,2,2
			c3,3.5,4.6,7.6,5.3,12.2c0.2,1.8,0.3,3.5,0.1,5.3c-0.5,4.8-2.3,9.1-5.5,12.8c-2,2.3-4.5,4.1-7.1,5.6c-1.9,1.1-4,1.8-6.2,2.2
			c-3.5,0.7-6.9,0.6-10.4-0.4c-1.1-0.3-2.1-0.6-3.2-1c-0.9-0.3-1.6-0.8-2.4-1.2c-2-1.1-3.7-2.6-5.4-4.2c-1.6-1.5-2.8-3.2-3.8-5.1
			c-0.8-1.4-1.5-2.9-2-4.5c-0.8-2.7-0.9-5.4-0.9-8.1c0-0.2,0-0.5,0-0.7c0.4-3,1.1-5.9,2.6-8.7c1.1-2,2.3-3.8,3.9-5.4
			C54.2,44.2,54.4,44,54.6,43.7z M69.7,75.7L69.7,75.7l0.1,0c0.8,0.2,1.5,0.1,2.3,0c3.3-0.3,6.2-1.5,8.5-3.8
			c2.4-2.4,3.7-5.2,4.1-8.6c0.3-3-0.3-5.8-1.7-8.3c-2.3-4.1-6.1-6.3-10.7-6.8c-3.4-0.4-6.6,0.5-9.4,2.6c-4.3,3.3-6.1,7.6-5.5,13
			c0.3,2.2,1.1,4.2,2.4,6.1c1.4,2,3.3,3.5,5.4,4.5C66.5,75.1,68,75.6,69.7,75.7z"/>
		<path class="st63" d="M26.3,76.7c1.4,1.4,3,2.4,4.5,3.5c4.5,3.3,9.3,6,14.5,8c3.5,1.4,7.1,2.5,10.8,3.3c2.2,0.5,4.4,0.7,6.5,1
			c2.4,0.4,4.8,0.4,7.2,0.4c2,0,4-0.1,6-0.2c1.2,0,2.4-0.3,3.6-0.4c1.2-0.1,2.4-0.2,3.6-0.5c3.6-0.7,7.1-1.6,10.5-2.9
			c1.5-0.6,3-1,4.4-1.7c1.4-0.8,3-1.2,4.4-2.1c0.7-0.4,1.4-0.8,2.1-1.3c0.3-0.2,0.7-0.2,1.1-0.4c1.3-0.8,2.6-1.6,3.9-2.6
			c0.8-0.7,1.7-1.2,2.6-1.9c1.9-1.4,3.7-2.8,5.4-4.5c0.6-0.6,1.4-1.2,2.1-1.7c0.6-0.5,1.7-0.2,2.3,0.4c0.5,0.6,0.5,1.5-0.1,2.1
			c-0.1,0.2-0.3,0.3-0.4,0.5c-1.1,1-2.1,2.1-3.3,2.9c0,0-0.1,0.1-0.1,0.2c-0.9,0.8-1.8,1.7-2.8,2.4c-1.8,1.3-3.5,2.8-5.4,3.9
			c-1.3,0.7-2.6,1.5-3.9,2.2c-0.5,0.3-1,0.6-1.6,0.8c-1,0.5-2.1,1-3.1,1.5c-3.5,1.8-7.1,3-10.9,4.1c-1,0.3-2.1,0.4-3,0.9
			c-1.8,0.4-3.5,0.8-5.3,1.1c-2.8,0.4-5.5,0.9-8.3,0.8c-0.1,0-0.2,0-0.4,0c-3.4,0.3-6.8,0-10.2-0.3c-2.2-0.2-4.4-0.6-6.7-1
			c-0.9-0.1-1.7-0.6-2.7-0.6c-0.5-0.3-1-0.4-1.5-0.5c-4.4-1.2-8.7-2.6-12.7-4.7c-1.2-0.6-2.4-1.2-3.6-1.8c-0.1-0.1-0.3-0.2-0.5-0.1
			c-0.3-0.3-0.7-0.5-1-0.7c-1.9-1.1-3.8-2.1-5.5-3.4c-1.9-1.5-4-2.9-5.8-4.6c-1-1.1-2.3-2-3.3-3.1c-0.4-0.4-0.8-0.9-0.7-1.6
			c0.1-1.1,1.5-1.8,2.4-1.3c1.5,0.8,2.5,2.2,3.9,3.3C25.8,76.2,26.1,76.4,26.3,76.7z"/>
		<path class="st3" d="M23.3,78.7c1.8,1.7,3.8,3.1,5.8,4.6c1.7,1.3,3.6,2.3,5.5,3.4c0.4,0.2,0.7,0.4,1,0.7c-0.2,0.1-0.4,0.2-0.5,0.4
			c-0.5,0.6-1,1.2-1.5,1.8c-1.1,1.4-2.3,2.7-3.4,4.1c-0.2,0.2-0.3,0.4-0.5,0.6c-0.9,0.9-2.2,0.6-2.5-0.6c-0.4-1.4-0.7-2.9-1.1-4.3
			c-0.3-1.1-0.5-2.2-0.9-3.3c-0.5-2.2-1.1-4.4-1.7-6.6C23.2,79.3,23,79,23.3,78.7z"/>
		<path class="st61" d="M53.9,94.6c0.9,0,1.8,0.5,2.7,0.6c2.2,0.3,4.4,0.7,6.7,1c3.4,0.3,6.8,0.6,10.2,0.3c0.1,0,0.2,0,0.4,0
			c2.8,0.1,5.6-0.3,8.3-0.8c1.8-0.3,3.6-0.6,5.3-1.1c0,0.3,0.2,0.4,0.4,0.5c0.6,0.7,1.3,1.4,2,2c-0.2,0.4-0.6,0.5-0.9,0.5
			c-2,0.6-4,1.2-6.1,1.4c-2,0.2-4.1,0.6-6.1,0.7c-2.1,0.1-4.2,0.4-6.3,0.3c-2.5-0.1-4.9-0.2-7.4-0.5c-2.3-0.3-4.6-0.5-6.8-1
			c-1.4-0.3-2.7-0.6-4.1-1c-0.3-0.1-0.5-0.2-0.7-0.5c0.6-0.6,1.2-1.2,1.8-1.9C53.5,95.1,53.8,95,53.9,94.6z"/>
		<path class="st3" d="M106.1,87.4c1.3-0.7,2.6-1.5,3.9-2.2c1.9-1.1,3.6-2.6,5.4-3.9c1-0.7,1.8-1.6,2.8-2.4c0.2,0.2,0.1,0.4,0.1,0.7
			c-0.3,1-0.6,2-0.8,3c-0.5,2.1-1.1,4.1-1.6,6.2c-0.4,1.6-0.8,3.1-1.2,4.7c-0.1,0.5-0.3,0.9-0.8,1.2c-0.8,0.4-1.4,0.3-2.1-0.5
			c-0.9-1.1-1.9-2.2-2.8-3.3c-0.3-0.4-0.6-0.7-1-1c-0.2-0.2-0.4-0.4-0.5-0.6C106.9,88.6,106.4,88.1,106.1,87.4z"/>
		<path class="st3" d="M89.8,97.2c-0.7-0.7-1.3-1.4-2-2c-0.2-0.2-0.4-0.3-0.4-0.5c1-0.5,2-0.6,3-0.9c3.7-1.1,7.4-2.3,10.9-4.1
			c0.5,0.2,0.1,0.5,0,0.7c-0.3,1-0.8,1.9-1,2.8c-0.8,2.1-1.6,4.3-2.4,6.4c-0.2,0.6-0.5,1.3-0.8,1.9c-0.5,1-1.9,1.1-2.7,0.4
			c-1.5-1.4-2.9-2.9-4.3-4.4C90.1,97.4,89.9,97.3,89.8,97.2z"/>
		<path class="st3" d="M53.9,94.6c0,0.4-0.4,0.5-0.6,0.7c-0.6,0.6-1.2,1.3-1.8,1.9c-1.1,1.1-2.1,2.1-3.2,3.2
			c-0.6,0.6-1.2,1.2-1.8,1.7c-0.8,0.7-2,0.3-2.4-0.7c-0.7-2-1.5-3.9-2.2-5.9c-0.3-0.7-0.4-1.5-0.8-2.1c-0.4-0.9-0.8-1.8-1.1-2.8
			c-0.1-0.4-0.5-0.7-0.4-1.2c4,2.1,8.3,3.5,12.7,4.7C52.9,94.3,53.4,94.3,53.9,94.6z"/>
		<path class="st16" d="M41.9,66c2.6-0.2,4.2,2.1,4.2,4.1c0,2.5-1.8,4.3-4.3,4.4c-2.3,0-4.3-2.1-4.3-4.3
			C37.5,67.8,39.5,65.7,41.9,66z"/>
		<path class="st16" d="M100,66c2.7-0.1,4.2,2,4.2,4.1c0,2.4-1.9,4.3-4.3,4.4c-2.1,0.1-4.3-2-4.3-4.3C95.7,67.7,97.5,66,100,66z"/>
		<path class="st16" d="M92.8,77c1.6,0,2.9,1.4,2.9,3c-0.1,2-1.3,3-3,3c-1.6,0-2.8-1.3-2.9-3C89.8,78.3,91.1,77,92.8,77z"/>
		<path class="st16" d="M49.2,77c1.6,0,2.9,1.4,2.8,3C51.9,82,50.5,83,49,83c-1.7,0-3-1.5-3-3.2C46.1,78.3,47.5,77,49.2,77z"/>
		<path class="st61" d="M100.4,93.2c0.2-1,0.7-1.9,1-2.8c0.1-0.2,0.4-0.5,0-0.7c1-0.5,2.1-1,3.1-1.5c0.5-0.3,1-0.6,1.6-0.8
			c0.3,0.7,0.9,1.2,1.3,1.8c0.2,0.2,0.4,0.4,0.5,0.6c-0.6,0.3-1.1,0.7-1.7,1c-1.6,1-3.4,1.9-5.2,2.5
			C100.8,93.4,100.6,93.5,100.4,93.2z"/>
		<path class="st61" d="M39.6,89.5c-0.1,0.5,0.2,0.8,0.4,1.2c0.3,0.9,0.7,1.8,1.1,2.8c-1.1,0-1.9-0.6-2.9-1
			c-1.6-0.6-2.9-1.9-4.5-2.4c-0.1,0-0.2-0.1-0.3-0.3c0.5-0.6,1-1.2,1.5-1.8c0.2-0.2,0.4-0.2,0.5-0.4c0.2,0,0.3,0,0.5,0.1
			C37.2,88.2,38.4,88.8,39.6,89.5z"/>
		<path class="st61" d="M117.4,82.6c0.2-1,0.5-2,0.8-3c0.1-0.2,0.2-0.5-0.1-0.7c0-0.1,0-0.1,0.1-0.2c1.2-0.8,2.2-1.9,3.3-2.9
			c0,0.2,0.1,0.3,0.2,0.4c0.9,0.8,1,2.1,0.1,2.9c-0.9,0.9-1.9,1.9-2.9,2.7C118.4,82.2,118,82.7,117.4,82.6z"/>
		<path class="st16" d="M104.4,79.1c0,1.3-0.8,2.2-2.1,2.2c-1.4,0-2.2-1.2-2.2-2.3c0-1.1,1.1-2,2.2-2.1
			C103.2,77,104.5,77.9,104.4,79.1z"/>
		<path class="st16" d="M39.5,81.3c-1.2,0-2.1-0.9-2.1-2.2c0-1.3,0.9-2.2,2.2-2.1c1.4,0,2.1,1,2.1,2.1
			C41.7,80.2,40.9,81.4,39.5,81.3z"/>
		<path class="st61" d="M69.7,75.7c-1.6,0-3.1-0.6-4.6-1.3c-2.2-1-4.1-2.5-5.4-4.5c-1.3-1.9-2.1-3.9-2.4-6.1
			c-0.6-5.4,1.2-9.7,5.5-13c2.8-2.1,6-3,9.4-2.6c4.6,0.5,8.4,2.7,10.7,6.8c1.4,2.5,2,5.3,1.7,8.3c-0.4,3.4-1.7,6.3-4.1,8.6
			c-2.3,2.3-5.2,3.5-8.5,3.8c-0.8,0.1-1.5,0.1-2.3,0C69.7,75.7,69.7,75.7,69.7,75.7z M79.6,56.6c0.6-1.1,0.7-2.3,0-3.4
			c-0.9-1.6-3.3-2-4.9-0.7c0-0.4-0.3-0.3-0.5-0.4c-3.5-1.1-6.7-0.6-9.6,1.6c-3.3,2.5-4.7,5.8-4,9.9c0.7,4,3,6.8,6.9,8.2
			c1.7,0.6,3.4,0.7,5.2,0.4c4.7-0.9,8.2-4.8,8.4-9.8c0.1-1.9-0.5-3.8-1.2-5.5C79.8,56.6,79.7,56.6,79.6,56.6z"/>
		<path class="st62" d="M69.7,75.7c0,0,0.1,0,0.1,0C69.8,75.7,69.7,75.7,69.7,75.7L69.7,75.7z"/>
		<path class="st63" d="M79.6,56.6c0.1,0,0.2,0,0.3,0.2c0.7,1.8,1.3,3.6,1.2,5.5c-0.3,4.9-3.7,8.9-8.4,9.8c-1.8,0.3-3.5,0.2-5.2-0.4
			c-3.9-1.4-6.2-4.2-6.9-8.2c-0.7-4,0.8-7.4,4-9.9c2.9-2.2,6.1-2.7,9.6-1.6c0.2,0.1,0.5,0,0.5,0.4c-0.7,0.9-1.2,1.8-0.9,3
			c0.3,1.3,1.1,2.2,2.5,2.5C77.6,58.2,78.7,57.6,79.6,56.6z M70.6,65.7c2.2,0.1,3.9-1.7,4-3.7c0.1-1.9-1.5-3.8-3.5-4
			c-2.7-0.1-4.1,1.8-4.2,3.6C66.8,63.7,68.2,65.7,70.6,65.7z"/>
		<path class="st3" d="M79.6,56.6c-0.9,1.1-2,1.6-3.3,1.3c-1.3-0.3-2.1-1.2-2.5-2.5c-0.3-1.2,0.2-2.1,0.9-3c1.7-1.3,4-0.9,4.9,0.7
			C80.3,54.3,80.2,55.4,79.6,56.6z"/>
		<path class="st3" d="M70.6,65.7c-2.4,0-3.8-2-3.7-4c0.1-1.8,1.5-3.8,4.2-3.6c2.1,0.1,3.7,2.1,3.5,4C74.5,64.1,72.8,65.8,70.6,65.7
			z"/>
	</g>
</g>
</svg>
