<?xml version="1.0" encoding="utf-8"?>
<!-- Generator: Adobe Illustrator 27.3.1, SVG Export Plug-In . SVG Version: 6.00 Build 0)  -->
<svg version="1.1" id="Ebene_1" xmlns="http://www.w3.org/2000/svg" xmlns:xlink="http://www.w3.org/1999/xlink" x="0px" y="0px"
	 viewBox="0 0 143.6 143.5" style="enable-background:new 0 0 143.6 143.5;" xml:space="preserve">
<style type="text/css">
	.st0{fill:#F6BB37;}
	.st1{fill:#3684C6;}
	.st2{fill:#DCA12A;}
	.st3{fill:#FCFCFE;}
	.st4{fill:#E97E2F;}
	.st5{fill:#28273D;}
	.st6{fill:#7F65AA;}
	.st7{fill:#B49ECB;}
	.st8{fill:#66529D;}
	.st9{fill:#33314C;}
	.st10{fill:#35ACC6;}
	.st11{fill:#27263D;}
	.st12{fill:#DB191D;}
	.st13{fill:#42BEE1;}
	.st14{fill:#EE715E;}
	.st15{fill:#396CB3;}
	.st16{fill:#EA5B4C;}
	.st17{fill:#F2C551;}
	.st18{fill:#27273D;}
	.st19{fill:#B0CF6D;}
	.st20{fill:#28263D;}
	.st21{fill:#9E4A30;}
	.st22{fill:#DB1E1D;}
	.st23{fill:#FBFBFD;}
	.st24{fill:#A3C163;}
	.st25{fill:#3F426D;}
	.st26{fill:#33304C;}
	.st27{fill:#DB181D;}
	.st28{fill:#83C4ED;}
	.st29{fill:#B6622B;}
	.st30{fill:#AB795E;}
	.st31{fill:#88C7EE;}
	.st32{fill:#9BB7CC;}
	.st33{fill:#E97F31;}
	.st34{fill:#CD6F2C;}
	.st35{fill:#A8A4A6;}
	.st36{fill:#84C4EC;}
	.st37{fill:#FEFEFE;}
	.st38{fill:#D91F1D;}
	.st39{fill:#F29454;}
	.st40{fill:#3C86C6;}
	.st41{fill:#F8FAFD;}
	.st42{fill:#AD8ABF;}
	.st43{fill:#67529E;}
	.st44{fill:#F6D373;}
	.st45{fill:#29273D;}
	.st46{fill:#EE715D;}
	.st47{fill:#F9C6BD;}
	.st48{fill:#A65E3A;}
	.st49{fill:#F18B88;}
	.st50{fill:#82C2EC;}
	.st51{fill:#E28080;}
	.st52{fill:#D57474;}
	.st53{fill:#4F5173;}
	.st54{fill:#3785C6;}
	.st55{fill:#E84680;}
	.st56{fill:#28273E;}
	.st57{fill:#E13072;}
	.st58{fill:#F5BA37;}
	.st59{fill:#F3C651;}
	.st60{fill:#DB5144;}
	.st61{fill:#A17FB8;}
	.st62{fill:#AC8ABE;}
	.st63{fill:#342E4F;}
	.st64{fill:#2DAC64;}
	.st65{fill:#5CB993;}
	.st66{fill:#9DBA5C;}
	.st67{fill:#5AB992;}
	.st68{fill:#66529E;}
	.st69{fill:#EA5A4C;}
	.st70{fill:#12994E;}
	.st71{fill:#DE5044;}
	.st72{fill:#EE715F;}
	.st73{fill:#E97F2F;}
	.st74{fill:#A89AC9;}
	.st75{fill:#38B3CD;}
	.st76{fill:#DD3D78;}
	.st77{fill:#F5D373;}
	.st78{fill:#FDEAB4;}
	.st79{fill:#7F66AA;}
	.st80{fill:#3885C6;}
	.st81{fill:#40436D;}
	.st82{fill:#A99ACA;}
	.st83{fill:#34314B;}
	.st84{fill:#F4D273;}
	.st85{fill:#83C5ED;}
	.st86{fill:#D29C2C;}
	.st87{fill:#87C7EE;}
	.st88{fill:#F6BB38;}
	.st89{fill:#F6BB3A;}
	.st90{fill:#E83D69;}
	.st91{fill:#F4BC3F;}
	.st92{fill:#85C5EB;}
	.st93{fill:#DA1E1D;}
	.st94{fill:#DDA736;}
	.st95{fill:#F18D88;}
	.st96{fill:#FFFEFE;}
	.st97{fill:#F9C8BC;}
	.st98{fill:#3B85C6;}
</style>
<g id="wFYZfp.tif">
	<g>
		<path class="st25" d="M75.1,142.5c-1.8,0.2-3.6,0.1-5.5,0.1c-2.3,0-4.5-0.3-6.8-0.6c-1.7-0.2-3.3-0.4-4.9-0.7
			c-0.3-0.1-0.6-0.2-0.9-0.3c-0.1-0.5-0.3-0.9-0.5-1.4c-1.5-3-2.5-6.2-3.6-9.4c-0.8-2.6-1.6-5.2-2.3-7.8c-0.7-2.4-1.2-4.9-1.7-7.4
			c-0.3-1.7-0.6-3.4-0.9-5c-0.3-1.4-0.4-2.8-0.6-4.2c-0.2-1.4-0.4-2.8-0.5-4.2c-0.1-1.2-0.2-2.4-0.3-3.6c-0.1-0.4-0.1-0.9,0-1.4
			c0.3,0.2,0.4,0.4,0.6,0.6c0.3,0.3,0.4,0.8,0.9,0.8c0,0.3,0.1,0.5,0.2,0.7c0.3,0.3,0.6,0.7,0.9,1c1.1,1,2.1,2.1,3.4,2.9
			c0.9,0.6,1.7,1.2,2.6,1.7c1.1,0.7,2.3,1.1,3.6,1.6c2.1,0.8,4.3,1.3,6.6,1.5c2.4,0.2,4.8,0.2,7.2,0.2c2.8,0.1,5.7-0.1,8.5-0.4
			c0.3,0,0.7-0.1,1-0.2c1.2-0.4,2.3-0.8,3.4-1.2c1-0.3,2-0.7,2.9-1.2c0.8-0.5,1.6-0.8,2.3-1.4c0.7-0.6,1.5-1,2.2-1.6
			c1.2-1,2.1-2.3,3.3-3.2c0.1-0.3,0.3-0.6,0.5-0.8c0.5-0.6,1-1.2,1.4-1.8c0.7-1,1.2-2.1,1.8-3.2c1.1-2.4,1.9-5,2.2-7.7
			c0.2-1.5,0.2-2.9,0.3-4.4c0-0.7-0.2-0.7-0.7-0.7c-2.9,0-5.7,0-8.6,0c-0.5,0-0.9-0.3-1.4,0c-0.3,0-0.7,0-1,0c-2.4,0-4.9,0-7.3,0
			c-0.1,0-0.1,0-0.2,0c-7.2,0-14.4,0-21.6,0c-0.3,0-0.4,0.2-0.5,0.4c0-0.4-0.2-0.4-0.5-0.4c-2.6,0-5.3,0-7.9,0c-2-0.1-4,0.2-6,0
			c-0.4,0-0.6-0.1-0.6-0.6c0.1-1.7,0.1-3.4,0.3-5.1c0.1-0.6,0-1.2,0.2-1.8c0.9,0.1,1.7-0.1,2.5-0.2c1.4-0.2,2.8-0.6,4.1-1.2
			c2.8-1.4,5-3.4,6.4-6.3c0.9-1.9,1.5-4,1.5-6.1c0-1.6-0.2-3.1-0.7-4.5c-1.2-3.3-3.3-5.7-6.3-7.5c-1.1-0.7-2.3-1-3.5-1.4
			c0.8-0.7,1-1.7,1.2-2.6c0.9-3,1.7-6.1,2.9-9c0.9-2.2,1.6-4.5,2.6-6.6c0.6-1.2,1.1-2.4,1.7-3.7c1-2.4,2.4-4.6,3.7-6.9
			c0.4-0.7,0.9-1.4,1.2-2.3c0.5-0.2,1,0,1.5-0.1c1.6-0.3,3.3-0.5,5-0.5c2.2,0,4.4-0.1,6.5,0.2c1.7,0.2,3.3,0.4,5,0.8
			c2.4,0.6,4.9,1.2,7.2,2.1c1,0.4,1.9,0.9,2.9,1.3c1.7,0.7,3.3,1.6,4.8,2.5c1.2,0.7,2.3,1.5,3.4,2.2c2.3,1.6,4.4,3.4,6.2,5.5
			c0.2,0.3,0.3,0.6,0.7,0.8c-0.3,0.2-0.5,0.7-0.8,0.9c-0.8,0.8-1.6,1.6-2.5,2.5c-0.4,0.4-0.7,0.9-0.9,1.4c-0.5,1.1,0,2.6,0.8,3.1
			c1.5,1.1,2.8,1.1,4.3-0.3c0.8-0.8,1.5-1.5,2.3-2.3c0.2-0.2,0.4-0.4,0.7-0.5c1.6,2.3,3,4.7,4.1,7.2c0.8,1.7,1.5,3.4,2,5.3
			c0.1,0.3,0.3,0.3,0.5,0.2c0.5,0,1.1-0.1,1.6-0.1c2.5,0,4.9,0,7.4,0c1,0,2.1,0,3,0.4c1.6,0.9,2.9,2.1,3.2,4.1
			c0.4,3.2-2.2,5.9-4.8,6c-2.7,0.1-5.4,0.1-8.1,0c-0.5,0-0.6,0.1-0.6,0.6c0.1,0.9,0.1,1.8,0,2.8c0,0.5,0.1,0.5,0.5,0.5
			c2.8-0.2,5.6-0.2,8.4,0.1c0.6,0,1.1,0.2,1.6,0.5c2.1,1.2,3.1,3,2.8,5.5c-0.2,1.4-0.9,2.5-2,3.5c-1.2,1-2.6,1.1-4.1,1.1
			c-2.1,0.1-4.2,0-6.3,0c-0.6,0-0.8,0.2-0.7,0.8c0,0.7,0,1.4,0,2.1c-0.1,0.7,0,0.8,0.6,0.8c2.3,0,4.5,0,6.8,0c1.4,0,2.8,0.2,4,1.2
			c0.7,0.6,1.3,1.3,1.6,2.2c0.7,2,0.3,3.8-1.1,5.4c-0.6,0.7-1.4,1.2-2.2,1.5c-1.7,0.5-3.4,0.3-5.2,0.3c-1.4,0-2.7,0-4.1,0
			c-0.4,0-0.5,0.1-0.5,0.5c0,11.3,0,22.6,0,33.9c0,1.4,0,2.7,0,4.1c-1,0.9-1.9,1.8-3,2.6c-1.8,1.4-3.5,2.9-5.4,4
			c-3.5,2.2-7,4.3-10.9,5.9c-1.2,0.5-2.3,1-3.4,1.5c-0.6,0.3-1.3,0.4-1.9,0.6c-2.8,1.1-5.7,1.7-8.6,2.4c-2.3,0.6-4.6,0.7-6.9,1.1
			C77.9,142.5,76.5,142.5,75.1,142.5C75.1,142.5,75.1,142.5,75.1,142.5z M109.4,58.6c0.2-7-5.3-13.4-12.9-13.9
			c-7.6-0.4-14.3,5.4-14.6,13.4c-0.1,3.5,1.1,6.8,3.6,9.4c3.6,3.9,8,5.3,13.2,4.3C103.1,71,109.3,66.5,109.4,58.6z"/>
		<path class="st26" d="M63.9,14c-0.3,0.8-0.8,1.5-1.2,2.3c-1.3,2.3-2.8,4.4-3.7,6.9c-0.5,1.2-1,2.5-1.7,3.7
			c-1.1,2.1-1.7,4.4-2.6,6.6c-1.2,2.9-2,6-2.9,9c-0.3,0.9-0.5,1.9-1.2,2.6c-0.1,0-0.2,0-0.4,0c-1.5-0.2-3-0.3-4.6-0.1
			c-1.9,0.2-3.7,0.7-5.3,1.8c-3.8,2.6-6.3,5.9-6.5,10.7c-0.1,1.1-0.2,2.2,0,3.4c0.3,1.8,1,3.5,1.9,5.1c0.9,1.4,2,2.6,3.4,3.6
			c1.9,1.4,3.9,2.2,6.2,2.6c0.4,0.1,0.9,0,1.4,0.2c-0.2,0.6-0.1,1.2-0.2,1.8c-0.2,1.7-0.2,3.4-0.3,5.1c0,0.4,0.1,0.5,0.6,0.6
			c2,0.2,4-0.1,6,0c0.1,1,0.1,2,0.1,3.1c0,1.4,1.3,3.1,2.6,3.5c1.4,0.4,2.8,0.2,4-0.7c0.6-0.5,1.3-1.1,1.4-2
			c0.2-1.1,0.2-2.3,0.3-3.4c0.1-0.2,0.2-0.4,0.5-0.4c7.2,0,14.4,0,21.6,0c0.1,0,0.1,0,0.2,0c0,0.9,0.1,1.8,0,2.7
			c-0.2,2.3,2.6,4.5,4.8,4c1.5-0.4,3.1-1.7,3.3-3.4c0.1-1.1,0.1-2.2,0.1-3.2c0.5-0.2,0.9,0,1.4,0c2.9,0,5.7,0,8.6,0
			c0.5,0,0.8,0,0.7,0.7c-0.1,1.5-0.1,2.9-0.3,4.4c-0.3,2.7-1,5.2-2.2,7.7c-0.5,1.1-1.1,2.2-1.8,3.2c-0.4,0.6-0.9,1.2-1.4,1.8
			c-0.2,0.3-0.4,0.5-0.5,0.8c-0.2-0.5-0.7-0.7-1-1.1c-1.5-1.7-3.2-3.3-5.2-4.4c-2.1-1.2-4.2-2.2-6.6-2.8c-2.3-0.6-4.6-1.1-7-1
			c-2.5,0-4.9,0-7.4,0c-3.5-0.1-6.9,0.5-10.2,1.7c-2.4,0.9-4.5,2.1-6.5,3.5c-1.5,1.1-3,2.3-4.2,3.8c-0.5,0-0.7-0.5-0.9-0.8
			c-0.2-0.2-0.3-0.5-0.6-0.6c-0.1,0.5-0.1,0.9,0,1.4c0.2,1.2,0.2,2.4,0.3,3.6c0.2,1.4,0.3,2.8,0.5,4.2c0.2,1.4,0.3,2.8,0.6,4.2
			c0.3,1.7,0.6,3.4,0.9,5c0.5,2.5,1,4.9,1.7,7.4c0.7,2.6,1.4,5.2,2.3,7.8c1,3.2,2.1,6.4,3.6,9.4c0.2,0.4,0.5,0.9,0.5,1.4
			c-1,0-1.9-0.3-2.8-0.5c-3-0.8-6-1.7-8.8-2.9c-4.8-2-9.4-4.4-13.6-7.3c-2.2-1.5-4.3-3.3-6.4-5c-0.3-0.2-0.6-0.5-0.7-0.8
			c0.1-0.3,0.1-0.5,0.1-0.8c0,0,0,0,0,0c0,0,0,0,0-0.1c0-0.2,0-0.4,0-0.6c0,0,0,0,0,0c0,0,0-0.1,0-0.1c0-0.1,0-0.2,0-0.3
			c0-0.1,0-0.1,0-0.2c0-0.1,0-0.2,0-0.3c0-0.1,0-0.2,0-0.3c0-0.1,0-0.1,0-0.2c0-0.1,0-0.2,0-0.3c0-0.1,0-0.1,0-0.2
			c0-0.1,0-0.2,0-0.3c0-0.1,0-0.1,0-0.2c0-0.1,0-0.2,0-0.3c0-0.1,0-0.1,0-0.2c0-0.1,0-0.2,0-0.3c0-0.1,0-0.1,0-0.2
			c0-0.1,0-0.2,0-0.3c0-0.1,0-0.1,0-0.2c0-0.1,0-0.2,0-0.3c0-0.1,0-0.1,0-0.2c0-0.1,0-0.2,0-0.3c0-0.1,0-0.1,0-0.2
			c0-0.1,0-0.2,0-0.3c0-0.1,0-0.1,0-0.2c0-0.1,0-0.2,0-0.3c0-0.1,0-0.1,0-0.2c0-0.1,0-0.2,0-0.3c0-0.1,0-0.1,0-0.2
			c0-0.1,0-0.2,0-0.3c0-0.1,0-0.1,0-0.2c0-0.1,0-0.2,0-0.3c0-0.1,0-0.1,0-0.2c0-0.1,0-0.2,0-0.3c0-0.1,0-0.1,0-0.2
			c0-0.1,0-0.2,0-0.3c0-0.1,0-0.1,0-0.2c0-0.1,0-0.2,0-0.3c0-0.1,0-0.1,0-0.2c0-0.1,0-0.2,0-0.3c0-0.1,0-0.1,0-0.2
			c0-0.1,0-0.2,0-0.3c0-0.1,0-0.1,0-0.2c0-0.1,0-0.2,0-0.3c0-0.1,0-0.1,0-0.2c0-0.1,0-0.2,0-0.3c0-0.1,0-0.1,0-0.2
			c0-0.1,0-0.2,0-0.3c0-0.1,0-0.1,0-0.2c0-0.1,0-0.2,0-0.3c0-0.1,0-0.1,0-0.2c0-0.1,0-0.2,0-0.3c0-0.1,0-0.1,0-0.2
			c0-0.1,0-0.2,0-0.3c0-0.1,0-0.1,0-0.2c0-0.1,0-0.2,0-0.3c0-0.1,0-0.1,0-0.2c0-0.1,0-0.2,0-0.3c0-0.1,0-0.1,0-0.2
			c0-0.1,0-0.2,0-0.3c0-0.1,0-0.1,0-0.2c0-0.1,0-0.2,0-0.3c0-0.1,0-0.1,0-0.2c0-0.1,0-0.2,0-0.3c0-0.1,0-0.1,0-0.2
			c0-0.1,0-0.2,0-0.3c0-0.1,0-0.1,0-0.2c0-0.1,0-0.2,0-0.3c0-0.1,0-0.1,0-0.2c0-0.1,0-0.2,0-0.3c0-0.1,0-0.1,0-0.2
			c0-0.1,0-0.2,0-0.3c0-0.1,0-0.1,0-0.2c0-0.1,0-0.2,0-0.3c0-0.1,0-0.1,0-0.2c0-0.1,0-0.2,0-0.3c0-0.1,0-0.1,0-0.2
			c0-0.1,0-0.2,0-0.3c0-0.1,0-0.1,0-0.2c0-0.1,0-0.2,0-0.3c0-0.1,0-0.1,0-0.2c0-0.1,0-0.2,0-0.3c0-0.1,0-0.1,0-0.2
			c0-0.1,0-0.2,0-0.3c0-0.1,0-0.1,0-0.2c0-0.1,0-0.2,0-0.3c0-0.1,0-0.1,0-0.2c0-0.1,0-0.2,0-0.3c0-0.1,0-0.1,0-0.2
			c0-0.1,0-0.2,0-0.3c0-0.1,0-0.1,0-0.2c0-0.1,0-0.2,0-0.3c0-0.1,0-0.1,0-0.2c0-0.1,0-0.2,0-0.3c0-0.1,0-0.1,0-0.2
			c0-0.1,0-0.2,0-0.3c0-0.1,0-0.1,0-0.2c0-0.1,0-0.2,0-0.3c0-0.1,0-0.1,0-0.2c0-0.1,0-0.2,0-0.3c0-0.1,0-0.1,0-0.2
			c0-0.1,0-0.2,0-0.3c0-0.1,0-0.1,0-0.2c0-0.1,0-0.2,0-0.3c0-0.1,0-0.1,0-0.2c0-0.1,0-0.2,0-0.3c0-0.1,0-0.1,0-0.2
			c0-0.1,0-0.2,0-0.3c0-0.1,0-0.1,0-0.2c0-0.1,0-0.2,0-0.3c0-0.1,0-0.1,0-0.2c0-0.1,0-0.2,0-0.3c0-0.1,0-0.1,0-0.2
			c0-0.1,0-0.2,0-0.3c0-0.1,0-0.1,0-0.2c0-0.1,0-0.2,0-0.3c0-0.1,0-0.1,0-0.2c0-0.1,0-0.2,0-0.3c0-0.1,0-0.1,0-0.2
			c0-0.1,0-0.2,0-0.3c0-0.1,0-0.1,0-0.2c0-0.1,0-0.2,0-0.3c0-0.1,0-0.1,0-0.2c0-0.1,0-0.2,0-0.3c0-0.1,0-0.1,0-0.2
			c0-0.1,0-0.2,0-0.3c0-0.1,0-0.1,0-0.2c0-0.1,0-0.2,0-0.3c0-0.1,0-0.1,0-0.2c0-0.1,0-0.2,0-0.3c0-0.1,0-0.1,0-0.2
			c0-0.1,0-0.2,0-0.3c0-0.1,0-0.1,0-0.2c0-0.1,0-0.2,0-0.3c0-0.1,0-0.1,0-0.2c0-0.1,0-0.2,0-0.3c0-0.1,0-0.1,0-0.2
			c0-0.1,0-0.2,0-0.3c0-0.1,0-0.1,0-0.2c0-0.1,0-0.2,0-0.3c0-0.1,0-0.1,0-0.2c0-0.1,0-0.2,0-0.3c0-0.1,0-0.1,0-0.2
			c0-0.1,0-0.2,0-0.3c0-0.1,0-0.1,0-0.2c0-0.1,0-0.2,0-0.3c0-0.1,0-0.2,0-0.3c0-0.1,0-0.1,0-0.2c0-0.1,0-0.2,0-0.3
			c0.1-0.1,0.1-0.1,0-0.2c0-0.1,0-0.2,0-0.3c0.1-0.1,0.1-0.2,0-0.2c0-0.1,0-0.2,0-0.3c0-0.1,0-0.2,0-0.3c0,0-0.1-0.1-0.1-0.1
			c-0.2,0-0.4-0.1-0.6,0c-0.1,0-0.3,0-0.4,0c0,0-0.1,0-0.1,0c-1.5,0-3.1,0.1-4.6,0c-0.3-0.1-0.6,0-0.9,0c-0.9,0.1-1.7-0.2-2.5-0.4
			c-2-0.6-3.7-3.1-3.4-5.8c0.2-2,2.4-4.3,4.7-4.5c0.1,0,0.1,0,0.2,0c0.5-0.1,1-0.1,1.5,0c0.8,0.2,1.7,0.1,2.5,0.1
			c0.6,0,1.2,0.1,1.8-0.1c0.4,0,0.8,0,1.2,0c0,0.1,0.1,0.1,0.1,0c0.1,0,0.2,0,0.2,0c0,0.1,0.1,0.2,0.2,0.1c0.2-0.2,0.1-0.4,0-0.5
			c0-0.1,0-0.2,0-0.3c0.1-0.1,0.1-0.2,0-0.2c0-0.1,0-0.2,0-0.3c0.1-0.2,0.1-0.4,0-0.6c0-0.1,0-0.2,0-0.3c0.1-0.1,0.1-0.2,0-0.2
			c0-0.1,0-0.2,0-0.3c0.1-0.2,0.1-0.4,0-0.6c0-0.5-0.3-0.5-0.6-0.5c-2.3,0-4.6,0-6.8,0c-0.5,0-1.1-0.1-1.6-0.3
			c-3.2-1.4-4.3-5-2.8-7.8c0.8-1.5,2.2-2.4,3.9-2.7c2.5-0.3,4.9-0.2,7.4,0c0.3,0,0.5,0,0.5-0.4c0-0.9,0.2-1.8,0.1-2.7
			c0-0.4-0.2-0.5-0.6-0.5c-1.9,0-3.9,0.1-5.8,0c-1.5,0-2.9-0.1-4.2-1.2c-1-0.8-1.8-1.7-2.1-3c-0.2-0.7-0.5-1.4-0.2-2.1
			c0.4-1.3,1-2.5,2-3.4c0.5-0.4,1.1-1,1.8-1.1c0.6-0.1,1.2-0.1,1.8-0.1c2.8,0,5.7,0,8.5,0c0.6,0,0.9,0,1.2-0.8
			c0.8-2.3,1.8-4.6,2.9-6.8c0.8-1.6,1.9-3.2,2.8-4.8c0.2,0,0.4,0.2,0.5,0.3c0.7,0.9,1.5,1.7,2.3,2.4c1,1,2.7,1.2,3.8,0.5
			c1.5-1.1,2-2.9,0.5-4.5c-0.6-0.7-1.3-1.4-2.1-2c-0.5-0.4-1-0.8-1.2-1.5c2-2.2,4.2-4.3,6.6-6.1c1.8-1.4,3.7-2.6,5.6-3.7
			c1.8-1,3.6-1.9,5.5-2.7c1.8-0.7,3.7-1.3,5.5-1.7C61.3,14.5,62.6,14.2,63.9,14z"/>
		<path class="st0" d="M24.8,106.4c0,0.1,0,0.1,0,0.2c-0.1,0.1-0.1,0.2,0,0.3c0,0.1,0,0.1,0,0.2c-0.1,0.1-0.1,0.2,0,0.3
			c0,0.1,0,0.1,0,0.2c-0.1,0.1-0.1,0.2,0,0.3c0,0.1,0,0.1,0,0.2c-0.1,0.1-0.1,0.2,0,0.3c0,0.1,0,0.1,0,0.2c-0.1,0.1-0.1,0.2,0,0.3
			c0,0.1,0,0.1,0,0.2c-0.1,0.1-0.1,0.2,0,0.3c0,0.1,0,0.1,0,0.2c-0.1,0.1-0.1,0.2,0,0.3c0,0.1,0,0.1,0,0.2c-0.1,0.1-0.1,0.2,0,0.3
			c0,0.1,0,0.1,0,0.2c-0.1,0.1-0.1,0.2,0,0.3c0,0.1,0,0.1,0,0.2c-0.1,0.1-0.1,0.2,0,0.3c0,0.1,0,0.1,0,0.2c-0.1,0.1-0.1,0.2,0,0.3
			c0,0.1,0,0.1,0,0.2c-0.1,0.1-0.1,0.2,0,0.3c0,0.1,0,0.1,0,0.2c-0.1,0.1-0.1,0.2,0,0.3c0,0.1,0,0.1,0,0.2c-0.1,0.1-0.1,0.2,0,0.3
			c0,0.1,0,0.1,0,0.2c-0.1,0.1-0.1,0.2,0,0.3c0,0.1,0,0.1,0,0.2c-0.1,0.1-0.1,0.2,0,0.3c0,0.1,0,0.1,0,0.2c-0.1,0.1-0.1,0.2,0,0.3
			c0,0.1,0,0.1,0,0.2c-0.1,0.1-0.1,0.2,0,0.3c0,0.1,0,0.1,0,0.2c-0.1,0.1-0.1,0.2,0,0.3c0,0.1,0,0.1,0,0.2c-0.1,0.1-0.1,0.2,0,0.3
			c0,0.1,0,0.1,0,0.2c-0.1,0.1-0.1,0.2,0,0.3c0,0.1,0,0.1,0,0.2c-0.1,0.1-0.1,0.2,0,0.3c0,0.1,0,0.1,0,0.2c-0.1,0.1-0.1,0.2,0,0.3
			c0,0.1,0,0.1,0,0.2c-0.1,0.1-0.1,0.2,0,0.3c0,0.1,0,0.1,0,0.2c-0.1,0.1-0.1,0.2,0,0.3c0,0.1,0,0.1,0,0.2c-0.1,0.1-0.1,0.2,0,0.3
			c0,0.1,0,0.1,0,0.2c-0.1,0.1-0.1,0.2,0,0.3c0,0.1,0,0.1,0,0.2c-0.1,0.1-0.1,0.2,0,0.3c0,0.1,0,0.1,0,0.2c-0.1,0.1-0.1,0.2,0,0.3
			c0,0.1,0,0.1,0,0.2c-0.1,0.1-0.1,0.2,0,0.3c0,0.1,0,0.1,0,0.2c-0.1,0.1-0.1,0.2,0,0.3c0,0.1,0,0.1,0,0.2c-0.1,0.1-0.1,0.2,0,0.3
			c0,0.1,0,0.2,0,0.3c0,0.1,0,0.1,0,0.2c0,0.1,0,0.2,0,0.3c0,0,0,0.1,0,0.1c0,0.2,0,0.4,0,0.6c0,0,0,0.1,0,0.1
			c0,0.3,0.1,0.5-0.1,0.8c-0.9-0.5-1.6-1.3-2.3-2c-2.3-2.1-4.2-4.5-6.1-6.9c-0.7-0.9-1.4-1.8-2-2.7c-1.6-2.1-3-4.4-4.2-6.7
			c-2.4-4.4-4.4-9-5.9-13.8c-0.8-2.8-1.5-5.6-2-8.4c-0.2-1.1-0.3-2.2-0.4-3.3c-0.1-0.9-0.2-1.9-0.4-2.8c0-0.1,0-0.1,0-0.2
			c-0.1-2.1-0.3-4.3-0.3-6.4C1,69.1,1.1,67,1.4,64.8c0.8-8.2,3-16.1,6.6-23.6c1.8-3.8,3.9-7.4,6.4-10.8c0.8-1.2,1.7-2.3,2.6-3.5
			c1.1,0.3,2.1,0.7,3.3,0.7c1.8,0,3.6-0.3,5.2-1c0.3-0.1,0.5-0.2,0.7,0.1c0.9,1.2,2.1,2.2,3.1,3.3c1.2,1.3,2.4,2.5,3.6,3.7
			c-0.9,1.6-1.9,3.1-2.8,4.8C29,40.8,28,43,27.2,45.3c-0.3,0.8-0.6,0.8-1.2,0.8c-2.8,0-5.7,0-8.5,0c-0.6,0-1.2,0-1.8,0.1
			c-0.6,0.1-1.2,0.6-1.8,1.1c-1.1,0.9-1.6,2.1-2,3.4c-0.2,0.7,0.1,1.4,0.2,2.1c0.3,1.3,1.1,2.1,2.1,3c1.3,1.1,2.7,1.1,4.2,1.2
			c1.9,0,3.9,0,5.8,0c0.4,0,0.6,0.1,0.6,0.5c0,0.9-0.2,1.8-0.1,2.7c0,0.3-0.2,0.4-0.5,0.4c-2.5-0.2-4.9-0.3-7.4,0
			c-1.7,0.2-3,1.2-3.9,2.7c-1.5,2.7-0.5,6.4,2.8,7.8c0.5,0.2,1,0.3,1.6,0.3c2.3,0,4.6,0,6.8,0c0.4,0,0.7,0,0.6,0.5
			c0,0.2,0,0.4,0,0.6c0,0.1,0,0.2,0,0.3c0,0.1,0,0.2,0,0.2c0,0.1,0,0.2,0,0.3c-0.1,0.2-0.1,0.4,0,0.6c0,0.1,0,0.2,0,0.3
			c0,0.1,0,0.2,0,0.2c0,0.1,0,0.2,0,0.3c0,0.2,0,0.3-0.2,0.4c-0.1,0-0.2,0-0.2,0c0,0-0.1,0-0.1,0c-0.4,0-0.8,0-1.2,0
			c-1.4,0-2.9,0-4.3,0c-0.5,0-1-0.1-1.5,0c-0.1-0.1-0.1,0-0.2,0c-2.4,0.2-4.5,2.5-4.7,4.5c-0.3,2.7,1.5,5.2,3.4,5.8
			c0.8,0.2,1.6,0.5,2.5,0.4c0.3,0.1,0.6,0.1,0.9,0c1.5,0.1,3.1,0.1,4.6,0c0,0,0.1,0,0.1,0l0.1,0c0.1,0,0.3,0,0.4,0
			c0.2,0,0.4,0,0.6,0c0,0,0.1,0.1,0.1,0.1c0,0.1,0,0.2,0,0.3c0,0.1,0,0.2,0,0.3c0,0.1,0,0.2,0,0.2c0,0.1,0,0.2,0,0.3
			c0,0.1,0,0.1,0,0.2c0,0.1,0,0.2,0,0.3c0,0.1,0,0.1,0,0.2c0,0.1,0,0.2,0,0.3c-0.1,0.1,0,0.2,0,0.3c0,0.1,0,0.1,0,0.2
			c-0.1,0.1-0.1,0.2,0,0.3c0,0.1,0,0.1,0,0.2c-0.1,0.1-0.1,0.2,0,0.3c0,0.1,0,0.1,0,0.2c-0.1,0.1-0.1,0.2,0,0.3c0,0.1,0,0.1,0,0.2
			c-0.1,0.1-0.1,0.2,0,0.3c0,0.1,0,0.1,0,0.2c-0.1,0.1-0.1,0.2,0,0.3c0,0.1,0,0.1,0,0.2c-0.1,0.1-0.1,0.2,0,0.3c0,0.1,0,0.1,0,0.2
			c-0.1,0.1-0.1,0.2,0,0.3c0,0.1,0,0.1,0,0.2c-0.1,0.1-0.1,0.2,0,0.3c0,0.1,0,0.1,0,0.2c-0.1,0.1-0.1,0.2,0,0.3c0,0.1,0,0.1,0,0.2
			c-0.1,0.1-0.1,0.2,0,0.3c0,0.1,0,0.1,0,0.2c-0.1,0.1-0.1,0.2,0,0.3c0,0.1,0,0.1,0,0.2c-0.1,0.1-0.1,0.2,0,0.3c0,0.1,0,0.1,0,0.2
			c-0.1,0.1-0.1,0.2,0,0.3c0,0.1,0,0.1,0,0.2c-0.1,0.1-0.1,0.2,0,0.3c0,0.1,0,0.1,0,0.2c-0.1,0.1-0.1,0.2,0,0.3c0,0.1,0,0.1,0,0.2
			c-0.1,0.1-0.1,0.2,0,0.3c0,0.1,0,0.1,0,0.2c-0.1,0.1-0.1,0.2,0,0.3c0,0.1,0,0.1,0,0.2c-0.1,0.1-0.1,0.2,0,0.3c0,0.1,0,0.1,0,0.2
			c-0.1,0.1-0.1,0.2,0,0.3c0,0.1,0,0.1,0,0.2c-0.1,0.1-0.1,0.2,0,0.3c0,0.1,0,0.1,0,0.2c-0.1,0.1-0.1,0.2,0,0.3c0,0.1,0,0.1,0,0.2
			c-0.1,0.1-0.1,0.2,0,0.3c0,0.1,0,0.1,0,0.2c-0.1,0.1-0.1,0.2,0,0.3c0,0.1,0,0.1,0,0.2c-0.1,0.1-0.1,0.2,0,0.3c0,0.1,0,0.1,0,0.2
			c-0.1,0.1-0.1,0.2,0,0.3c0,0.1,0,0.1,0,0.2c-0.1,0.1-0.1,0.2,0,0.3c0,0.1,0,0.1,0,0.2c-0.1,0.1-0.1,0.2,0,0.3c0,0.1,0,0.1,0,0.2
			c-0.1,0.1-0.1,0.2,0,0.3c0,0.1,0,0.1,0,0.2c-0.1,0.1-0.1,0.2,0,0.3c0,0.1,0,0.1,0,0.2c-0.1,0.1-0.1,0.2,0,0.3c0,0.1,0,0.1,0,0.2
			c-0.1,0.1-0.1,0.2,0,0.3c0,0.1,0,0.1,0,0.2c-0.1,0.1-0.1,0.2,0,0.3c0,0.1,0,0.1,0,0.2c-0.1,0.1-0.1,0.2,0,0.3c0,0.1,0,0.1,0,0.2
			c-0.1,0.1-0.1,0.2,0,0.3c0,0.1,0,0.1,0,0.2c-0.1,0.1-0.1,0.2,0,0.3c0,0.1,0,0.1,0,0.2c-0.1,0.1-0.1,0.2,0,0.3c0,0.1,0,0.1,0,0.2
			C24.7,106.2,24.7,106.3,24.8,106.4z"/>
		<path class="st0" d="M119.4,124.1c0-1.4,0-2.7,0-4.1c0-11.3,0-22.6,0-33.9c0-0.4,0.1-0.5,0.5-0.5c1.4,0,2.7,0.1,4.1,0
			c1.7,0,3.5,0.2,5.2-0.3c0.8-0.3,1.6-0.8,2.2-1.5c1.4-1.6,1.8-3.4,1.1-5.4c-0.3-0.9-0.9-1.6-1.6-2.2c-1.1-1-2.5-1.2-4-1.2
			c-2.3,0-4.5,0-6.8,0c-0.7,0-0.7-0.1-0.6-0.8c0.1-0.7,0.1-1.4,0-2.1c0-0.6,0.1-0.8,0.7-0.8c2.1,0,4.2,0.1,6.3,0
			c1.4,0,2.8-0.1,4.1-1.1c1.2-0.9,1.8-2,2-3.5c0.3-2.5-0.7-4.3-2.8-5.5c-0.5-0.3-1-0.4-1.6-0.5c-2.8-0.2-5.6-0.2-8.4-0.1
			c-0.4,0-0.5,0-0.5-0.5c0.1-0.9,0-1.8,0-2.8c0-0.5,0.1-0.6,0.6-0.6c2.7,0,5.4,0.1,8.1,0c2.6-0.1,5.2-2.8,4.8-6
			c-0.3-2.1-1.6-3.2-3.2-4.1c-0.9-0.5-2-0.4-3-0.4c-2.5-0.1-4.9,0-7.4,0c-0.5,0-1.1,0.1-1.6,0.1c-0.2,0-0.4,0-0.5-0.2
			c-0.5-1.8-1.2-3.6-2-5.3c-1.1-2.5-2.5-4.9-4.1-7.2c0.1-0.2,0.1-0.5,0.3-0.6c0.9-0.7,1.5-1.6,2.3-2.3c1.3-1.2,2.6-2.5,3.8-3.8
			c0.3-0.3,0.5-0.3,0.8-0.2c1.3,0.6,2.7,0.8,4.2,1c1.4,0.1,2.8-0.2,4.2-0.7c0.7,0.4,1,1.2,1.5,1.9c1,1.3,1.9,2.6,2.8,3.9
			c0.7,1.1,1.4,2.2,2.1,3.4c1,1.6,1.8,3.3,2.6,5c1.1,2.1,1.9,4.3,2.8,6.4c0.4,1,0.8,1.9,1,2.9c0.5,1.8,1,3.5,1.4,5.4
			c0.3,1.5,0.7,3,0.9,4.5c0.2,1.5,0.6,3,0.6,4.5c0,0.3,0.1,0.6,0.1,0.9c0.1,1.1,0.1,2.2,0.2,3.4c0.1,1,0.2,2.1,0.1,3.1
			c-0.1,1.5-0.2,3.1-0.3,4.6c-0.1,1-0.1,2.1-0.3,3.1c-0.2,1.5-0.4,2.9-0.6,4.4c-0.3,1.6-0.8,3.2-1,4.8c-0.1,0.7-0.6,1.4-0.5,2.2
			c0,0.3-0.3,0.5-0.4,0.8c-0.2,1.1-0.8,2-1,3.1c-0.1,0.6-0.6,1.2-0.6,1.7c0.1,0.9-0.7,1.3-0.8,2c-0.2,0.8-0.6,1.7-1.1,2.5
			c-0.5,0.8-0.9,1.6-1.2,2.5c-0.1,0.4-0.5,0.7-0.6,1.2c-0.3,1.1-1.2,1.8-1.6,2.8c-0.4,0.9-1.1,1.6-1.6,2.5c-0.3,0.5-0.7,0.9-1,1.4
			c-1.4,2.2-3,4.1-4.6,6.1c-0.2,0.3-0.5,0.5-0.8,0.8c-0.5,0.5-0.9,1.1-1.4,1.7c-0.8,0.9-1.7,1.6-2.5,2.4
			C120.3,123.4,120,123.8,119.4,124.1z"/>
		<path class="st0" d="M63.9,14c-1.3,0.2-2.6,0.6-3.9,0.9c-1.9,0.4-3.8,1-5.5,1.7c-1.9,0.8-3.7,1.7-5.5,2.7c-2,1.1-3.8,2.3-5.6,3.7
			c-2.4,1.8-4.6,3.9-6.6,6.1c-0.3,0-0.4-0.2-0.6-0.4c-1.8-1.8-3.6-3.6-5.4-5.4c-0.4-0.4-0.4-0.6-0.1-1.1c0.9-1.6,1.5-3.3,1.6-5.1
			c0.1-1.3,0-2.6-0.5-3.8c1.4-1.1,3-2,4.6-2.9C37.3,9.9,38.1,9.4,39,9c2.3-1.1,4.6-2.2,7-3.1c2.3-0.9,4.6-1.7,7-2.4
			c1.9-0.5,3.9-1,5.9-1.4c1.9-0.3,3.8-0.6,5.7-0.8c1.8-0.2,3.5-0.2,5.3-0.4c0.8-0.1,1.7,0,2.5,0c0.6,0,1.2,0,1.7,0
			c2,0.1,3.9,0,5.9,0.4c2,0.3,3.9,0.6,5.8,1c1.2,0.3,2.3,0.4,3.5,0.7c1.2,0.3,2.4,0.7,3.6,1.1c1.4,0.5,2.9,0.8,4.3,1.4
			c1.6,0.7,3.2,1.2,4.8,2c2.4,1.2,4.8,2.4,7.1,3.9c0.9,0.6,1.7,1.2,2.7,1.7c-0.2,0.3-0.1,0.7-0.2,1c-0.7,2.9,0.2,5.5,1.4,8.1
			c0.2,0.4,0.3,0.7-0.1,1c-1,0.8-1.8,1.8-2.8,2.7c-1,0.9-2,1.9-3,2.9c-0.4-0.1-0.5-0.5-0.7-0.8c-1.8-2.1-3.9-3.9-6.2-5.5
			c-1.1-0.8-2.2-1.6-3.4-2.2c-1.6-0.9-3.2-1.8-4.8-2.5c-1-0.4-1.9-0.9-2.9-1.3c-2.3-0.9-4.7-1.5-7.2-2.1c-1.6-0.4-3.3-0.5-5-0.8
			c-2.2-0.3-4.4-0.2-6.5-0.2c-1.7,0-3.3,0.2-5,0.5C64.9,13.9,64.4,13.7,63.9,14z"/>
		<path class="st15" d="M107.1,28.8c1-1,2-2,3-2.9c0.9-0.9,1.7-1.9,2.8-2.7c0.4-0.3,0.3-0.6,0.1-1c-1.3-2.5-2.1-5.2-1.4-8.1
			c0.1-0.3-0.1-0.7,0.2-1c0.3-0.9,0.7-1.8,1.1-2.6c1.7-2.9,4.3-4.8,7.6-5.5c1.5-0.3,2.9-0.3,4.4-0.1c1.2,0.2,2.4,0.7,3.5,1.3
			c2.2,1.2,3.8,3,4.8,5.3c0.5,1.2,0.8,2.5,1,3.8c0.2,1.6-0.1,3-0.6,4.4c-0.5,1.4-1.4,2.6-2.3,3.8c-1.1,1.4-2.6,2.2-4.1,2.9
			c-0.2,0.1-0.4,0.2-0.6,0.3c-1.4,0.5-2.8,0.8-4.2,0.7c-1.4-0.1-2.8-0.4-4.2-1c-0.3-0.1-0.6-0.1-0.8,0.2c-1.2,1.3-2.5,2.6-3.8,3.8
			c-0.8,0.7-1.4,1.6-2.3,2.3c-0.2,0.1-0.2,0.4-0.3,0.6c-0.3,0.1-0.5,0.3-0.7,0.5c-0.8,0.8-1.5,1.6-2.3,2.3c-1.4,1.4-2.8,1.4-4.3,0.3
			c-0.7-0.5-1.3-2-0.8-3.1c0.2-0.5,0.5-1,0.9-1.4c0.8-0.8,1.6-1.7,2.5-2.5C106.6,29.5,106.8,29.1,107.1,28.8z"/>
		<path class="st15" d="M31.9,13.3c0.5,1.2,0.5,2.5,0.5,3.8c-0.1,1.8-0.7,3.5-1.6,5.1c-0.2,0.4-0.3,0.7,0.1,1.1
			c1.8,1.8,3.6,3.6,5.4,5.4c0.2,0.2,0.3,0.4,0.6,0.4c0.2,0.6,0.7,1,1.2,1.5c0.7,0.6,1.4,1.3,2.1,2c1.4,1.6,1,3.5-0.5,4.5
			c-1,0.7-2.7,0.5-3.8-0.5c-0.8-0.8-1.6-1.6-2.3-2.4c-0.1-0.2-0.3-0.3-0.5-0.3c-1.2-1.2-2.4-2.5-3.6-3.7c-1-1.1-2.2-2-3.1-3.3
			c-0.2-0.3-0.4-0.2-0.7-0.1c-1.7,0.7-3.4,0.9-5.2,1c-1.2,0-2.2-0.4-3.3-0.7c-0.2-0.2-0.5-0.3-0.7-0.4c-2.3-1-4-2.6-5.3-4.8
			c-0.7-1.2-1.2-2.5-1.4-3.8c-0.3-2-0.1-4,0.8-6c0.7-1.6,1.6-3,2.8-4.2C15,6.3,17,5.2,19.4,5c1.7-0.2,3.2-0.1,4.8,0.4
			c1.6,0.5,3.2,1.2,4.4,2.4c1,1,2.3,1.9,2.5,3.5C31.7,11.8,31.5,12.6,31.9,13.3z"/>
		<polygon class="st15" points="75.1,142.5 75.1,142.5 75.1,142.6 		"/>
		<path class="st27" d="M48.3,98c1.2-1.5,2.7-2.7,4.2-3.8c2-1.5,4.1-2.7,6.5-3.5c3.3-1.2,6.7-1.7,10.2-1.7c2.5,0,4.9,0,7.4,0
			c2.4,0,4.7,0.5,7,1c2.3,0.6,4.5,1.6,6.6,2.8c2,1.2,3.7,2.7,5.2,4.4c0.3,0.4,0.8,0.6,1,1.1c-1.2,1-2.1,2.3-3.3,3.2
			c-0.7,0.5-1.5,1-2.2,1.6c-0.7,0.6-1.6,1-2.3,1.4c-0.9,0.5-1.9,0.9-2.9,1.2c-1.2,0.4-2.3,0.8-3.4,1.2c-0.3,0.1-0.7,0.1-1,0.2
			c-2.8,0.3-5.6,0.4-8.5,0.4c-2.4,0-4.8,0-7.2-0.2c-2.3-0.2-4.5-0.8-6.6-1.5c-1.2-0.4-2.5-0.9-3.6-1.6c-0.9-0.5-1.7-1.2-2.6-1.7
			c-1.2-0.8-2.3-1.9-3.4-2.9c-0.3-0.3-0.6-0.6-0.9-1C48.3,98.4,48.3,98.2,48.3,98z"/>
		<path class="st3" d="M46.7,72.3c-0.4-0.3-0.9-0.2-1.4-0.2c-2.3-0.4-4.4-1.2-6.2-2.6c-1.3-1-2.5-2.2-3.4-3.6
			c-1-1.5-1.6-3.3-1.9-5.1c-0.2-1.1-0.1-2.3,0-3.4c0.2-4.8,2.7-8.1,6.5-10.7c1.6-1.1,3.4-1.6,5.3-1.8c1.6-0.2,3.1-0.1,4.6,0.1
			c0.1,0,0.2,0,0.4,0c1.2,0.4,2.4,0.8,3.5,1.4c3,1.8,5.2,4.2,6.3,7.5c0.5,1.5,0.7,3,0.7,4.5c0,2.2-0.5,4.2-1.5,6.1
			c-1.4,2.8-3.6,4.9-6.4,6.3c-1.3,0.6-2.7,1.1-4.1,1.2C48.4,72.1,47.6,72.4,46.7,72.3z M47.3,67.2c4.4,0.1,8.1-3.5,8.1-8
			c0-4.4-3.5-7.9-7.9-8c-4.2-0.1-8.2,3.4-8.2,8C39.4,63.8,43.2,67.2,47.3,67.2z"/>
		<path class="st3" d="M109.4,58.6c-0.1,7.9-6.3,12.3-10.7,13.2c-5.2,1-9.6-0.4-13.2-4.3c-2.4-2.6-3.7-5.8-3.6-9.4
			c0.3-8,7-13.9,14.6-13.4C104.1,45.2,109.6,51.7,109.4,58.6z M103.7,59.2c0.3-4.4-4-8.1-7.8-8c-4.6,0.1-8.2,3.4-8.2,8
			c0,4.7,3.7,8,8.1,8.1C99.9,67.3,104,63.2,103.7,59.2z"/>
		<path class="st3" d="M91.8,79.7c0,1.1,0,2.2-0.1,3.2c-0.2,1.8-1.8,3.1-3.3,3.4c-2.3,0.5-5-1.7-4.8-4c0.1-0.9,0-1.8,0-2.7
			c2.4,0,4.9,0,7.3,0C91.1,79.8,91.4,79.7,91.8,79.7z"/>
		<path class="st3" d="M61.1,80.1c-0.1,1.1-0.1,2.3-0.3,3.4c-0.1,0.9-0.8,1.5-1.4,2c-1.2,0.9-2.5,1.1-4,0.7
			c-1.3-0.4-2.6-2.1-2.6-3.5c0-1,0-2-0.1-3.1c2.6,0,5.3,0,7.9,0C60.9,79.8,61.2,79.7,61.1,80.1z"/>
		<path class="st25" d="M18.7,74.9c1.4,0,2.9,0,4.3,0c-0.6,0.2-1.2,0.1-1.8,0.1C20.4,74.9,19.5,75,18.7,74.9z"/>
		<path class="st25" d="M19,85.7c-0.3,0.1-0.6,0.1-0.9,0C18.5,85.7,18.7,85.6,19,85.7z"/>
		<path class="st25" d="M24.6,74.9c0.2-0.1,0.1-0.3,0.2-0.4c0.1,0.2,0.2,0.4,0,0.5C24.7,75.1,24.6,75,24.6,74.9z"/>
		<path class="st25" d="M24.8,73.7c-0.1-0.2,0-0.4,0-0.6C24.9,73.3,24.9,73.5,24.8,73.7z"/>
		<path class="st25" d="M24.7,72.4c0-0.2,0-0.4,0-0.6C24.9,71.9,24.9,72.1,24.7,72.4z"/>
		<path class="st25" d="M24.7,85.7c-0.2,0.1-0.4,0.1-0.6,0C24.3,85.6,24.5,85.6,24.7,85.7z"/>
		<path class="st25" d="M24.8,86.1c0-0.1,0-0.2,0-0.3C24.8,85.9,24.8,86,24.8,86.1z"/>
		<path class="st25" d="M24.8,97c-0.1-0.1-0.1-0.2,0-0.3C24.8,96.8,24.8,96.9,24.8,97z"/>
		<path class="st25" d="M24.8,113.3c-0.1-0.1-0.1-0.2,0-0.3C24.8,113,24.8,113.2,24.8,113.3z"/>
		<path class="st25" d="M24.8,72.8c0-0.1,0-0.2,0-0.2C24.8,72.7,24.8,72.8,24.8,72.8z"/>
		<path class="st25" d="M24.8,86.6c0-0.1,0-0.2,0-0.2C24.8,86.5,24.8,86.6,24.8,86.6z"/>
		<path class="st25" d="M24.8,87.1c0-0.1,0-0.1,0-0.2C24.8,87,24.8,87,24.8,87.1z"/>
		<path class="st25" d="M24.8,87.6c0-0.1,0-0.1,0-0.2C24.8,87.5,24.8,87.5,24.8,87.6z"/>
		<path class="st25" d="M24.8,88.2c-0.1-0.1-0.1-0.2,0-0.3C24.8,88,24.8,88.1,24.8,88.2z"/>
		<path class="st25" d="M24.8,88.6c-0.1-0.1-0.1-0.2,0-0.3C24.8,88.4,24.8,88.5,24.8,88.6z"/>
		<path class="st25" d="M24.8,89.1c-0.1-0.1-0.1-0.2,0-0.3C24.8,88.9,24.8,89,24.8,89.1z"/>
		<path class="st25" d="M17,74.9c0.1,0,0.1-0.1,0.2,0C17.1,74.9,17,74.9,17,74.9z"/>
		<path class="st25" d="M24.8,89.6c-0.1-0.1-0.1-0.2,0-0.3C24.8,89.4,24.8,89.5,24.8,89.6z"/>
		<path class="st25" d="M24.8,90.1c-0.1-0.1-0.1-0.2,0-0.3C24.8,89.9,24.8,90,24.8,90.1z"/>
		<path class="st25" d="M24.8,90.6c-0.1-0.1-0.1-0.2,0-0.3C24.8,90.4,24.8,90.5,24.8,90.6z"/>
		<path class="st25" d="M24.8,91.1c-0.1-0.1-0.1-0.2,0-0.3C24.8,90.9,24.8,91,24.8,91.1z"/>
		<path class="st25" d="M24.8,91.6c-0.1-0.1-0.1-0.2,0-0.3C24.8,91.4,24.8,91.5,24.8,91.6z"/>
		<path class="st25" d="M24.8,92.1c-0.1-0.1-0.1-0.2,0-0.3C24.8,91.9,24.8,92,24.8,92.1z"/>
		<path class="st25" d="M24.8,92.6c-0.1-0.1-0.1-0.2,0-0.3C24.8,92.4,24.8,92.5,24.8,92.6z"/>
		<path class="st25" d="M24.8,93.1c-0.1-0.1-0.1-0.2,0-0.3C24.8,92.9,24.8,93,24.8,93.1z"/>
		<path class="st25" d="M24.8,93.6c-0.1-0.1-0.1-0.2,0-0.3C24.8,93.4,24.8,93.5,24.8,93.6z"/>
		<path class="st25" d="M24.8,94.1c-0.1-0.1-0.1-0.2,0-0.3C24.8,93.8,24.8,94,24.8,94.1z"/>
		<path class="st25" d="M24.8,122.6c0-0.1,0-0.1,0-0.2C24.8,122.4,24.8,122.5,24.8,122.6z"/>
		<path class="st25" d="M24.8,95c-0.1-0.1-0.1-0.2,0-0.3C24.8,94.8,24.8,94.9,24.8,95z"/>
		<path class="st25" d="M24.8,95.5c-0.1-0.1-0.1-0.2,0-0.3C24.8,95.3,24.8,95.4,24.8,95.5z"/>
		<path class="st25" d="M24.8,96c-0.1-0.1-0.1-0.2,0-0.3C24.8,95.8,24.8,95.9,24.8,96z"/>
		<path class="st25" d="M24.8,96.5c-0.1-0.1-0.1-0.2,0-0.3C24.8,96.3,24.8,96.4,24.8,96.5z"/>
		<path class="st25" d="M24.8,74.2c0-0.1,0-0.2,0-0.2C24.8,74,24.8,74.1,24.8,74.2z"/>
		<path class="st25" d="M24.8,97.5c-0.1-0.1-0.1-0.2,0-0.3C24.8,97.3,24.8,97.4,24.8,97.5z"/>
		<path class="st25" d="M24.8,98c-0.1-0.1-0.1-0.2,0-0.3C24.8,97.8,24.8,97.9,24.8,98z"/>
		<path class="st25" d="M24.8,98.5c-0.1-0.1-0.1-0.2,0-0.3C24.8,98.3,24.8,98.4,24.8,98.5z"/>
		<path class="st25" d="M24.8,99c-0.1-0.1-0.1-0.2,0-0.3C24.8,98.8,24.8,98.9,24.8,99z"/>
		<path class="st25" d="M24.8,99.5c-0.1-0.1-0.1-0.2,0-0.3C24.8,99.3,24.8,99.4,24.8,99.5z"/>
		<path class="st25" d="M24.8,100c-0.1-0.1-0.1-0.2,0-0.3C24.8,99.8,24.8,99.9,24.8,100z"/>
		<path class="st25" d="M24.8,100.5c-0.1-0.1-0.1-0.2,0-0.3C24.8,100.2,24.8,100.4,24.8,100.5z"/>
		<path class="st25" d="M24.8,101c-0.1-0.1-0.1-0.2,0-0.3C24.8,100.7,24.8,100.8,24.8,101z"/>
		<path class="st25" d="M24.8,101.4c-0.1-0.1-0.1-0.2,0-0.3C24.8,101.2,24.8,101.3,24.8,101.4z"/>
		<path class="st25" d="M24.8,101.9c-0.1-0.1-0.1-0.2,0-0.3C24.8,101.7,24.8,101.8,24.8,101.9z"/>
		<path class="st25" d="M24.8,102.4c-0.1-0.1-0.1-0.2,0-0.3C24.8,102.2,24.8,102.3,24.8,102.4z"/>
		<path class="st25" d="M24.8,102.9c-0.1-0.1-0.1-0.2,0-0.3C24.8,102.7,24.8,102.8,24.8,102.9z"/>
		<path class="st25" d="M24.8,103.4c-0.1-0.1-0.1-0.2,0-0.3C24.8,103.2,24.8,103.3,24.8,103.4z"/>
		<path class="st25" d="M24.8,103.9c-0.1-0.1-0.1-0.2,0-0.3C24.8,103.7,24.8,103.8,24.8,103.9z"/>
		<path class="st25" d="M24.8,104.4c-0.1-0.1-0.1-0.2,0-0.3C24.8,104.2,24.8,104.3,24.8,104.4z"/>
		<path class="st25" d="M24.8,104.9c-0.1-0.1-0.1-0.2,0-0.3C24.8,104.7,24.8,104.8,24.8,104.9z"/>
		<path class="st25" d="M24.8,105.4c-0.1-0.1-0.1-0.2,0-0.3C24.8,105.2,24.8,105.3,24.8,105.4z"/>
		<path class="st25" d="M24.8,105.9c-0.1-0.1-0.1-0.2,0-0.3C24.8,105.7,24.8,105.8,24.8,105.9z"/>
		<path class="st25" d="M24.8,106.4c-0.1-0.1-0.1-0.2,0-0.3C24.8,106.2,24.8,106.3,24.8,106.4z"/>
		<path class="st25" d="M24.8,106.9c-0.1-0.1-0.1-0.2,0-0.3C24.8,106.6,24.8,106.8,24.8,106.9z"/>
		<path class="st25" d="M24.8,107.4c-0.1-0.1-0.1-0.2,0-0.3C24.8,107.1,24.8,107.2,24.8,107.4z"/>
		<path class="st25" d="M24.8,107.8c-0.1-0.1-0.1-0.2,0-0.3C24.8,107.6,24.8,107.7,24.8,107.8z"/>
		<path class="st25" d="M24.8,108.3c-0.1-0.1-0.1-0.2,0-0.3C24.8,108.1,24.8,108.2,24.8,108.3z"/>
		<path class="st25" d="M24.8,108.8c-0.1-0.1-0.1-0.2,0-0.3C24.8,108.6,24.8,108.7,24.8,108.8z"/>
		<path class="st25" d="M24.8,109.3c-0.1-0.1-0.1-0.2,0-0.3C24.8,109.1,24.8,109.2,24.8,109.3z"/>
		<path class="st25" d="M24.8,109.8c-0.1-0.1-0.1-0.2,0-0.3C24.8,109.6,24.8,109.7,24.8,109.8z"/>
		<path class="st25" d="M24.8,110.3c-0.1-0.1-0.1-0.2,0-0.3C24.8,110.1,24.8,110.2,24.8,110.3z"/>
		<path class="st25" d="M24.8,110.8c-0.1-0.1-0.1-0.2,0-0.3C24.8,110.6,24.8,110.7,24.8,110.8z"/>
		<path class="st25" d="M24.8,111.3c-0.1-0.1-0.1-0.2,0-0.3C24.8,111.1,24.8,111.2,24.8,111.3z"/>
		<path class="st25" d="M24.8,111.8c-0.1-0.1-0.1-0.2,0-0.3C24.8,111.6,24.8,111.7,24.8,111.8z"/>
		<path class="st25" d="M24.8,112.3c-0.1-0.1-0.1-0.2,0-0.3C24.8,112.1,24.8,112.2,24.8,112.3z"/>
		<path class="st25" d="M24.8,112.8c-0.1-0.1-0.1-0.2,0-0.3C24.8,112.6,24.8,112.7,24.8,112.8z"/>
		<path class="st25" d="M24.8,122.1c-0.1-0.1,0-0.2,0-0.3C24.8,121.9,24.8,122,24.8,122.1z"/>
		<path class="st25" d="M24.8,113.8c-0.1-0.1-0.1-0.2,0-0.3C24.8,113.5,24.8,113.6,24.8,113.8z"/>
		<path class="st25" d="M24.8,114.2c-0.1-0.1-0.1-0.2,0-0.3C24.8,114,24.8,114.1,24.8,114.2z"/>
		<path class="st25" d="M24.8,114.7c-0.1-0.1-0.1-0.2,0-0.3C24.8,114.5,24.8,114.6,24.8,114.7z"/>
		<path class="st25" d="M24.8,115.2c-0.1-0.1-0.1-0.2,0-0.3C24.8,115,24.8,115.1,24.8,115.2z"/>
		<path class="st25" d="M24.8,115.7c-0.1-0.1-0.1-0.2,0-0.3C24.8,115.5,24.8,115.6,24.8,115.7z"/>
		<path class="st25" d="M24.8,116.2c-0.1-0.1-0.1-0.2,0-0.3C24.8,116,24.8,116.1,24.8,116.2z"/>
		<path class="st25" d="M24.8,116.7c-0.1-0.1-0.1-0.2,0-0.3C24.8,116.5,24.8,116.6,24.8,116.7z"/>
		<path class="st25" d="M24.8,117.2c-0.1-0.1-0.1-0.2,0-0.3C24.8,117,24.8,117.1,24.8,117.2z"/>
		<path class="st25" d="M24.8,117.7c-0.1-0.1-0.1-0.2,0-0.3C24.8,117.5,24.8,117.6,24.8,117.7z"/>
		<path class="st25" d="M24.8,118.2c-0.1-0.1-0.1-0.2,0-0.3C24.8,118,24.8,118.1,24.8,118.2z"/>
		<path class="st25" d="M24.8,118.7c-0.1-0.1-0.1-0.2,0-0.3C24.8,118.5,24.8,118.6,24.8,118.7z"/>
		<path class="st25" d="M24.8,119.2c-0.1-0.1-0.1-0.2,0-0.3C24.8,119,24.8,119.1,24.8,119.2z"/>
		<path class="st25" d="M24.8,119.7c-0.1-0.1-0.1-0.2,0-0.3C24.8,119.5,24.8,119.6,24.8,119.7z"/>
		<path class="st25" d="M24.8,120.2c-0.1-0.1-0.1-0.2,0-0.3C24.8,119.9,24.8,120,24.8,120.2z"/>
		<path class="st25" d="M24.8,120.6c-0.1-0.1-0.1-0.2,0-0.3C24.8,120.4,24.8,120.5,24.8,120.6z"/>
		<path class="st25" d="M24.8,121.1c-0.1-0.1-0.1-0.2,0-0.3C24.8,120.9,24.8,121,24.8,121.1z"/>
		<path class="st25" d="M24.8,121.6c-0.1-0.1-0.1-0.2,0-0.3C24.8,121.4,24.8,121.5,24.8,121.6z"/>
		<path class="st25" d="M24.8,94.6c-0.1-0.1-0.1-0.2,0-0.3C24.8,94.3,24.8,94.4,24.8,94.6z"/>
		<path class="st25" d="M23.7,85.7L23.7,85.7c-0.1,0-0.1,0-0.1,0C23.6,85.7,23.7,85.7,23.7,85.7z"/>
		<path class="st25" d="M24.8,122.9c0,0,0-0.1,0-0.1C24.8,122.9,24.8,122.9,24.8,122.9C24.8,122.9,24.8,122.9,24.8,122.9z"/>
		<path class="st25" d="M24.8,123.7c0,0,0-0.1,0-0.1C24.8,123.6,24.8,123.6,24.8,123.7C24.8,123.7,24.8,123.7,24.8,123.7z"/>
		<path class="st25" d="M24.2,74.8c0,0,0.1,0,0.1,0C24.3,74.9,24.3,74.9,24.2,74.8z"/>
		<path class="st0" d="M47.3,67.2c-4.1,0.1-7.9-3.4-8-8c0-4.6,3.9-8.1,8.2-8c4.4,0.1,7.9,3.6,7.9,8C55.4,63.7,51.7,67.3,47.3,67.2z
			 M52.6,56c0.5-1,0.2-2.2-0.7-2.7c-0.7-0.4-1.5-0.2-2.2,0.1c-2.1-0.6-4.1-0.6-6,0.8c-0.2,0-0.3,0.1-0.3,0.2
			c-0.1,0.1-0.1,0.1-0.2,0.2c-0.3,0.2-0.6,0.5-0.7,0.9l0,0l0,0c-0.1,0-0.2,0.1-0.2,0.3c-2.1,3.5-0.8,7.9,3.5,9.2
			c3.3,0.9,6.6-1,7.5-4.3C53.6,59.1,53.4,57.5,52.6,56z"/>
		<path class="st0" d="M103.7,59.2c0.4,4-3.8,8.1-7.9,8c-4.4-0.1-8.1-3.4-8.1-8.1c0-4.6,3.6-7.9,8.2-8
			C99.6,51.1,104,54.8,103.7,59.2z M100.9,55.9c0-0.2,0.1-0.4,0.1-0.5c0.2-0.6,0.1-1.2-0.4-1.7c-0.5-0.5-1.1-0.8-1.9-0.5
			c-0.2,0.1-0.5,0.2-0.7,0.3c-2.3-0.8-4.5-0.5-6.3,1.1c-2,1.8-2.6,4.4-1.7,6.8c0.9,2.3,3.3,3.9,5.8,3.8c2-0.1,3.6-1,4.8-2.7
			c0.5-0.8,0.9-1.7,1-2.7C101.7,58.5,101.6,57.2,100.9,55.9z"/>
		<path class="st26" d="M43.8,54.3c1.8-1.4,3.9-1.4,6-0.8c-0.1,0.2-0.3,0.4-0.4,0.7c-0.5,1.1-0.1,2.1,0.9,2.6
			c0.7,0.3,1.6,0.1,2.3-0.7c0.8,1.5,1.1,3,0.6,4.7C52.3,64,49,65.9,45.8,65c-4.3-1.2-5.6-5.6-3.5-9.2c0.2,0,0.3-0.1,0.2-0.3l0,0
			c0,0,0,0,0,0c0.5-0.1,0.8-0.3,0.7-0.9c0.1-0.1,0.1-0.1,0.2-0.2C43.6,54.5,43.8,54.4,43.8,54.3z M47.3,61.4c1.2,0,2.2-1,2.2-2.2
			c0-1.2-1-2.2-2.2-2.2c-1.3,0-2.3,0.9-2.3,2.2C45.1,60.4,46.1,61.4,47.3,61.4z"/>
		<path class="st3" d="M52.6,56c-0.7,0.8-1.6,1-2.3,0.7c-1-0.5-1.4-1.5-0.9-2.6c0.1-0.2,0.3-0.5,0.4-0.7c0.7-0.3,1.4-0.5,2.2-0.1
			C52.8,53.9,53.1,55,52.6,56z"/>
		<path class="st25" d="M43.3,54.6c0,0.5-0.3,0.8-0.7,0.9C42.6,55.1,42.9,54.8,43.3,54.6z"/>
		<path class="st25" d="M42.5,55.6c0,0.2,0,0.3-0.2,0.3C42.3,55.7,42.4,55.6,42.5,55.6z"/>
		<path class="st25" d="M43.8,54.3c0,0.2-0.1,0.2-0.3,0.2C43.5,54.3,43.6,54.2,43.8,54.3z"/>
		<path class="st26" d="M100.9,55.9c0.6,1.2,0.8,2.6,0.7,3.9c0,1-0.5,1.9-1,2.7c-1.1,1.7-2.7,2.6-4.8,2.7c-2.5,0.1-4.9-1.4-5.8-3.8
			c-1-2.4-0.4-5,1.7-6.8c1.9-1.6,4-1.9,6.3-1.1c-0.1,0.2-0.3,0.5-0.4,0.7c-0.4,0.8-0.1,1.9,0.6,2.3c0.8,0.5,1.8,0.4,2.4-0.4
			C100.7,56,100.8,56,100.9,55.9z M93.3,59.2c0,1,1.1,2.4,2,2.4c1.4,0,2.5-1,2.5-2.5c0-1.3-0.8-2.1-2.3-2.1
			C94.3,56.9,93.3,58.2,93.3,59.2z"/>
		<path class="st3" d="M100.9,55.9c-0.1,0.1-0.3,0.1-0.4,0.2c-0.6,0.8-1.5,0.9-2.4,0.4c-0.7-0.5-1-1.5-0.6-2.3
			c0.1-0.3,0.3-0.5,0.4-0.7c0.2-0.1,0.5-0.2,0.7-0.3c0.7-0.3,1.4,0,1.9,0.5c0.5,0.5,0.6,1,0.4,1.7C101,55.6,100.9,55.7,100.9,55.9z"
			/>
		<path class="st3" d="M47.3,61.4c-1.2,0-2.2-1-2.2-2.2c0-1.3,1-2.2,2.3-2.2c1.2,0,2.2,1,2.2,2.2C49.6,60.4,48.5,61.4,47.3,61.4z"/>
		<path class="st3" d="M93.3,59.2c-0.1-0.9,0.9-2.2,2.3-2.2c1.5,0,2.3,0.8,2.3,2.1c0,1.4-1.1,2.5-2.5,2.5
			C94.5,61.5,93.3,60.2,93.3,59.2z"/>
	</g>
</g>
</svg>
