<?xml version="1.0" encoding="utf-8"?>
<!-- Generator: Adobe Illustrator 27.3.1, SVG Export Plug-In . SVG Version: 6.00 Build 0)  -->
<svg version="1.1" id="Ebene_1" xmlns="http://www.w3.org/2000/svg" xmlns:xlink="http://www.w3.org/1999/xlink" x="0px" y="0px"
	 viewBox="0 0 141.7 141.7" style="enable-background:new 0 0 141.7 141.7;" xml:space="preserve">
<style type="text/css">
	.st0{fill:#F6BB37;}
	.st1{fill:#3684C6;}
	.st2{fill:#DCA12A;}
	.st3{fill:#FCFCFE;}
	.st4{fill:#E97E2F;}
	.st5{fill:#28273D;}
	.st6{fill:#7F65AA;}
	.st7{fill:#B49ECB;}
	.st8{fill:#66529D;}
	.st9{fill:#33314C;}
	.st10{fill:#35ACC6;}
	.st11{fill:#27263D;}
	.st12{fill:#DB191D;}
	.st13{fill:#42BEE1;}
	.st14{fill:#EE715E;}
	.st15{fill:#396CB3;}
	.st16{fill:#EA5B4C;}
	.st17{fill:#F2C551;}
	.st18{fill:#27273D;}
	.st19{fill:#B0CF6D;}
	.st20{fill:#28263D;}
	.st21{fill:#9E4A30;}
	.st22{fill:#DB1E1D;}
	.st23{fill:#FBFBFD;}
	.st24{fill:#A3C163;}
	.st25{fill:#3F426D;}
	.st26{fill:#33304C;}
	.st27{fill:#DB181D;}
	.st28{fill:#83C4ED;}
	.st29{fill:#B6622B;}
	.st30{fill:#AB795E;}
	.st31{fill:#88C7EE;}
	.st32{fill:#9BB7CC;}
	.st33{fill:#E97F31;}
	.st34{fill:#CD6F2C;}
	.st35{fill:#A8A4A6;}
	.st36{fill:#84C4EC;}
	.st37{fill:#FEFEFE;}
	.st38{fill:#D91F1D;}
	.st39{fill:#F29454;}
	.st40{fill:#3C86C6;}
	.st41{fill:#F8FAFD;}
	.st42{fill:#AD8ABF;}
	.st43{fill:#67529E;}
	.st44{fill:#F6D373;}
	.st45{fill:#29273D;}
	.st46{fill:#EE715D;}
	.st47{fill:#F9C6BD;}
	.st48{fill:#A65E3A;}
	.st49{fill:#F18B88;}
	.st50{fill:#82C2EC;}
	.st51{fill:#E28080;}
	.st52{fill:#D57474;}
	.st53{fill:#4F5173;}
	.st54{fill:#3785C6;}
	.st55{fill:#E84680;}
	.st56{fill:#28273E;}
	.st57{fill:#E13072;}
	.st58{fill:#F5BA37;}
	.st59{fill:#F3C651;}
	.st60{fill:#DB5144;}
	.st61{fill:#A17FB8;}
	.st62{fill:#AC8ABE;}
	.st63{fill:#342E4F;}
	.st64{fill:#2DAC64;}
	.st65{fill:#5CB993;}
	.st66{fill:#9DBA5C;}
	.st67{fill:#5AB992;}
	.st68{fill:#66529E;}
	.st69{fill:#EA5A4C;}
	.st70{fill:#12994E;}
	.st71{fill:#DE5044;}
	.st72{fill:#EE715F;}
	.st73{fill:#E97F2F;}
	.st74{fill:#A89AC9;}
	.st75{fill:#38B3CD;}
	.st76{fill:#DD3D78;}
	.st77{fill:#F5D373;}
	.st78{fill:#FDEAB4;}
	.st79{fill:#7F66AA;}
	.st80{fill:#3885C6;}
	.st81{fill:#40436D;}
	.st82{fill:#A99ACA;}
	.st83{fill:#34314B;}
	.st84{fill:#F4D273;}
	.st85{fill:#83C5ED;}
	.st86{fill:#D29C2C;}
	.st87{fill:#87C7EE;}
	.st88{fill:#F6BB38;}
	.st89{fill:#F6BB3A;}
	.st90{fill:#E83D69;}
	.st91{fill:#F4BC3F;}
	.st92{fill:#85C5EB;}
	.st93{fill:#DA1E1D;}
	.st94{fill:#DDA736;}
	.st95{fill:#F18D88;}
	.st96{fill:#FFFEFE;}
	.st97{fill:#F9C8BC;}
	.st98{fill:#3B85C6;}
</style>
<g id="Yi8sJ5.tif">
	<g>
		<path class="st49" d="M44.6,136.7c-1.2-0.5-2.4-1-3.7-1.6c-3.8-1.7-7.2-3.8-10.6-6.1c-0.1-0.1-0.2-0.2-0.3-0.3c0-0.9,0-1.7,0-2.6
			c0-12.1,0-24.2,0-36.3c0-8.5-0.2-17.1,0.1-25.6c0.1-1.7,0.2-3.5,0.6-5.2c0.2-1,0.5-2,0.3-3c0.5-0.3,0.7-1,0.8-1.4
			c0.3-1.6,0.9-3.1,1.5-4.6c1.1-2.8,2.6-5.3,4.3-7.8c1.5-2.1,3.1-4.1,5.1-5.8c0.3-0.2,0.6-0.4,0.6-0.8c0.3-0.1,0.5-0.2,0.7-0.4
			c2.4-2,5-3.7,7.7-5.3c1.1-0.6,2.3-1.1,3.5-1.5c0.9-0.3,0.9-0.5,0.6-1.3c-0.7-2.1-2-3.9-3.7-5.3c-1.7-1.4-3.6-2.3-5.7-2.9
			c-0.5-0.2-0.9-0.6-1.4-0.8c-0.3-0.1-0.4-0.4-0.4-0.8c-0.1-1.1,0.5-1.5,1.3-2c1.2-0.7,2.6-1.1,4-1.3c1.5-0.3,3.1-0.4,4.6,0.2
			c1.3,0.5,2.5,0.7,3.9,0.7c0.9,0,1.7-0.4,2.5-0.9c1-0.7,1.7-1.8,2.7-2.5c0.9-0.7,1.7-1.7,2.7-2.3c1-0.6,2.1-1.2,3.3-1.7
			c1.6-0.6,3.2-0.9,4.8-1c1.5-0.1,2.9,0.2,4.3,0.4c1.1,0.1,1.7,1.4,1.2,2.4c-0.2,0.5-0.5,1-0.8,1.5c-0.7,1.3-1,2.7-0.5,4.1
			c0.7,2.2,2.1,3.7,4.5,4.1c1.1,0.2,2.2,0,3.3-0.3c2.3-0.5,4.5-0.3,6.7,0.6c0.6,0.3,1.2,0.6,1.3,1.4c0.1,0.7-0.3,1.2-1.1,1.6
			c-1,0.5-2.1,0.7-3.2,1.1c-2.5,0.8-4.2,2.6-5.4,4.8c-0.1,0.2-0.2,0.4,0.1,0.5c1.5,0.8,3.1,1.5,4.6,2.4c1.8,1.1,3.5,2.1,5.1,3.4
			c0.8,0.7,1.7,1.3,2.5,1.9c0,0.1,0,0.2,0.1,0.3c1.2,1,2.1,2.3,3.1,3.5c1.4,1.5,2.4,3.2,3.5,4.9c0.4,0.7,0.7,1.5,1.1,2.2
			c1.2,2.2,2,4.6,2.9,7c0.3,0.8,0.3,1.6,0.6,2.4c0,0.4-0.1,0.8,0.1,1.3c0.4,1.1,0.6,2.3,0.7,3.5c0.1,1.4,0.2,2.9,0.2,4.3
			c0,7.8,0,15.5,0,23.3c0,13.5,0,27,0,40.5c0,0.3,0,0.6-0.2,0.9c0,0.2-0.1,0.4-0.3,0.5c-1.3,0.8-2.6,1.6-4,2.3
			c-1.4,0.8-2.8,1.5-4.3,2.2c-1.4,0.7-2.9,1.3-4.4,1.8c0.2-0.4,0.3-0.9,0.2-1.3c-0.1-3.9,0.3-7.9-0.3-11.8c-0.2-1.4-0.5-2.7-0.9-4
			c-0.8-2.3-1.7-4.5-3.2-6.5c-0.7-0.9-1.4-1.8-2.1-2.7c-1-1.3-2.3-2.2-3.6-3.2c-0.5-0.4-1.2-0.5-1.5-1.1c0.3-0.1,0.5-0.2,0.8-0.2
			c1.1-0.2,2.2-0.7,2.9-1.6c1.2-1.5,1.7-3.2,1.6-5.1c-0.1-1.7,0-3.5,0-5.2c0-0.9,0-0.9-0.8-0.9c-3.5,0-7,0-10.4,0
			c-0.6,0-0.7,0.2-0.7,0.7c0,1.9,0,3.7,0,5.6c0,1.3,0.3,2.5,0.8,3.7c-0.3,0-0.6,0-0.8-0.1c-2.8-0.8-5.7-1.4-8.7-1.2
			c-1.8,0.1-3.7,0.3-5.4,0.8c-1.1,0.3-2.1,0.7-3.1,1c0-0.5,0-0.9,0-1.4c0-2.7,0-5.3,0-8c0-0.7-0.2-1.2-1-1.1c-3.3,0-6.7,0-10,0
			c-0.9,0-0.9,0-0.9,0.9c0,4.6,0,9.1,0,13.7c0,1.7,0.1,3.3,0.5,4.9c-0.9,1.4-1.8,2.7-2.4,4.2c-1.4,3.1-2.2,6.3-2.3,9.6
			c-0.1,3.1,0,6.2,0,9.3C44.7,136.2,44.7,136.5,44.6,136.7z M96.4,57.9c0.3-14.5-11.9-27-27.1-26.6c-6.9,0.2-12.9,2.6-17.9,7.4
			c-6,5.8-8.7,12.9-8.2,21.1c0.4,6.4,2.9,12,7.4,16.7c5.6,5.7,12.4,8.4,20.3,8.1C84.4,84,96.5,72.9,96.4,57.9z"/>
		<path class="st68" d="M109.1,130.3c0.2-0.3,0.2-0.6,0.2-0.9c0-13.5,0-27,0-40.5c0-7.8,0-15.5,0-23.3c0-1.4,0-2.9-0.2-4.3
			c-0.1-1.2-0.3-2.3-0.7-3.5c-0.2-0.4-0.1-0.8-0.1-1.3c3-0.7,5.4-2.5,7.2-4.9c1.3-1.8,2.1-3.8,2.2-6.1c0.4-0.2,0.2-0.5,0.2-0.8
			c0-0.3-0.1-0.5,0.3-0.7c0.4,0.1,0.9,0.4,1.3,0.4c2.5,0.1,4.9-0.4,7-2c2.1-1.6,3.3-3.6,3.7-6.1c0.2-1,0.2-2-0.1-3
			c-0.1-0.4-0.4-0.9-0.2-1.4c1.2,1.3,2,2.9,2.9,4.4c0.3,0.5,0.5,1.1,0.9,1.5c0.2,0.2,0.2,0.4,0.3,0.7c2.2,4.2,3.7,8.7,5.1,13.2
			c0.7,2.3,1.2,4.7,1.6,7.1c0.4,2.1,0.6,4.3,0.8,6.4c0.3,2.3,0.3,4.7,0.2,7.1c-0.1,1.6-0.2,3.3-0.3,4.9c-0.1,2.2-0.5,4.3-0.8,6.5
			c-0.2,1.6-0.7,3.3-1.1,4.9c-0.6,2.4-1.5,4.7-2.3,7c-0.5,1.4-1.1,2.9-1.7,4.2c-0.9,1.9-1.9,3.8-2.8,5.7c-1.9,3.7-4.4,7.1-7,10.4
			c-1.9,2.4-4,4.6-6.3,6.7c-2.7,2.5-5.5,4.8-8.5,6.8C110.3,129.8,109.8,130.2,109.1,130.3z"/>
		<path class="st68" d="M31.1,56c0.2,1-0.1,2-0.3,3c-0.3,1.7-0.5,3.5-0.6,5.2c-0.3,8.5-0.1,17.1-0.1,25.6c0,12.1,0,24.2,0,36.3
			c0,0.9,0,1.7,0,2.6c-1.8-1.1-3.4-2.6-5.1-3.9c-3.3-2.6-6.1-5.6-8.7-8.8c-2.1-2.6-4-5.3-5.7-8.2c-0.9-1.4-1.7-2.8-2.4-4.3
			c-1.3-2.6-2.6-5.1-3.6-7.8C3,91.7,1.9,87.6,1.2,83.3c-0.2-1.4-0.3-2.8-0.7-4.2c-0.3-1.2-0.1-2.4-0.3-3.5C-0.1,74.4,0,73.1,0,71.9
			c0-1.2,0-2.5,0-3.7c0.1-2.2,0.4-4.3,0.6-6.5c0.4-3.2,1.1-6.4,1.9-9.5c0.5-1.9,1.1-3.8,1.9-5.7c0.1-0.2,0.3-0.5,0.1-0.7
			c-0.1-0.1-0.1-0.1,0.1-0.1c0.3,0,0.4-0.3,0.4-0.5c0.2-0.8,0.7-1.6,1-2.3c0.3-0.8,0.7-1.6,1.1-2.4c1-2.3,2.3-4.4,3.6-6.6
			c0.4-0.7,0.8-1.5,1.4-2.1c0,0.3-0.1,0.5-0.2,0.7c-0.1,0.4-0.4,0.8-0.4,1.2c0,1.4-0.1,2.8,0.4,4.1c1,3,3,5,5.9,6.1
			c1.8,0.7,3.6,0.8,5.5,0.3c0.5-0.1,0.6,0.2,0.6,0.6c0,0.4-0.1,0.8,0.1,1.1c0,0,0,0.1,0,0.1c0,0.2-0.1,0.4,0.1,0.6l0,0
			c0,0.2-0.1,0.5,0.1,0.7c0.3,1.5,0.9,2.8,1.8,4.1C27.2,53.4,29,54.8,31.1,56z"/>
		<path class="st68" d="M97.1,36.5c-0.8-0.6-1.7-1.3-2.5-1.9c-1.6-1.3-3.3-2.4-5.1-3.4c-1.5-0.9-3.1-1.6-4.6-2.4
			c-0.3-0.2-0.2-0.3-0.1-0.5c1.2-2.3,2.9-4,5.4-4.8c1.1-0.4,2.2-0.6,3.2-1.1c0.9-0.4,1.2-0.9,1.1-1.6c-0.1-0.7-0.6-1.1-1.3-1.4
			c-2.2-0.9-4.4-1.1-6.7-0.6c-1.1,0.2-2.2,0.5-3.3,0.3c-2.4-0.4-3.8-1.9-4.5-4.1c-0.5-1.4-0.1-2.8,0.5-4.1c0.3-0.5,0.6-1,0.8-1.5
			c0.5-1-0.1-2.2-1.2-2.4c-1.4-0.2-2.9-0.5-4.3-0.4c-1.7,0.1-3.3,0.5-4.8,1c-1.2,0.4-2.2,1-3.3,1.7c-1,0.6-1.8,1.5-2.7,2.3
			c-1,0.8-1.7,1.8-2.7,2.5c-0.7,0.5-1.5,0.9-2.5,0.9c-1.3,0-2.6-0.1-3.9-0.7c-1.4-0.6-3-0.5-4.6-0.2c-1.4,0.3-2.7,0.6-4,1.3
			c-0.8,0.5-1.5,0.9-1.3,2c0,0.3,0.1,0.7,0.4,0.8c0.5,0.2,0.9,0.6,1.4,0.8c2.1,0.6,4,1.6,5.7,2.9c1.7,1.4,3,3.1,3.7,5.3
			c0.3,0.8,0.2,1-0.6,1.3c-1.2,0.4-2.4,0.9-3.5,1.5c-2.7,1.5-5.4,3.2-7.7,5.3c-0.2,0.2-0.4,0.3-0.7,0.4c-0.4-0.5-1-0.8-1.6-1.1
			c-1.5-0.7-2.9-1.7-4.7-1.6c0-0.1-0.1-0.3-0.2-0.1c-0.1,0-0.2,0-0.2-0.1c-0.6-0.1-1.2-0.3-1.7,0.1c-1.1,0-2.2,0-3.2,0.7
			c-0.3,0.2-0.8,0.3-1.2,0.4c-0.3,0.1-0.5,0.1-0.5-0.3c-0.1-0.7-0.2-1.5-0.5-2.1c-0.6-1.4-1.4-2.8-2.7-3.8c-0.4-0.3-0.3-0.7,0-1
			c1.1-1.4,1.6-2.9,1.6-4.7c0-1.1-0.2-2-0.6-3c-0.1-0.3-0.3-0.8,0.2-0.9c0.8-0.3,1.4-0.8,2.1-1.3c0.7-0.6,1.1-1.4,1.4-2.3
			c0.1-0.1,0.1-0.3,0.1-0.5c0.2-0.5-0.1-1.2,0.4-1.6c0.2,0,0.3-0.1,0.5-0.1c1.7-0.3,2.9-1.1,3.5-2.8c0.1-0.3,0.2-0.5,0.3-0.8
			c0.5-0.1,1-0.4,1.4-0.6C44,5,50.6,2.6,57.6,1.3c2.3-0.4,4.5-0.7,6.8-1C66.5,0.2,68.6,0,70.6,0c6,0.1,11.9,0.7,17.6,2.2
			c5.9,1.5,11.6,3.8,16.9,6.7c0,0,0.1,0,0.1,0c0.5,1.4,1.3,2.5,2.7,3.2c0.5,0.2,1,0.3,1.5,0.4c0.2,0.1,0.4,0.1,0.4,0.4
			c-0.1,0.5,0.2,1,0.3,1.5c0.3,1.9,1.4,3.1,3.1,3.8c0.5,0.2,0.7,0.5,0.5,1c-0.7,1.7-0.7,3.5-0.2,5.3c0.3,0.9,0.7,1.7,1.3,2.4
			c0.3,0.5,0.3,0.9-0.2,1.2c-0.5,0.4-0.9,0.9-1.2,1.4c-1,1.3-1.6,2.9-1.9,4.5c-0.1,0.3-0.1,0.4-0.4,0.2c-0.5-0.4-1.2-0.6-1.8-0.8
			c-1.6-0.7-3.3-0.6-5-0.5c-1.5,0.1-3,0.7-4.3,1.5C98.9,35,98.1,35.8,97.1,36.5z"/>
		<path class="st44" d="M84.9,106.4c0.3,0.6,1,0.7,1.5,1.1c1.2,1,2.6,1.9,3.6,3.2c0.7,0.9,1.4,1.8,2.1,2.7c1.4,2,2.4,4.2,3.2,6.5
			c0.5,1.3,0.7,2.6,0.9,4c0.6,3.9,0.2,7.9,0.3,11.8c0,0.5-0.1,0.9-0.2,1.3c-1,0.5-2.1,0.8-3.2,1.2c-2,0.7-4.1,1.3-6.2,1.7
			c-1.3,0.3-2.7,0.5-4,0.8c-1.7,0.3-3.4,0.5-5.2,0.7c-0.9,0.1-1.8,0.2-2.7,0.2c-2.8,0-5.7,0-8.5,0c-1.2,0-2.3-0.2-3.5-0.4
			c-1.7-0.2-3.5-0.4-5.1-0.8c-1.8-0.4-3.6-0.7-5.4-1.2c-1-0.3-1.9-0.6-2.9-0.7c-0.4-0.1-0.8-0.3-1.3-0.5c-1.2-0.4-2.4-0.9-3.7-1.4
			c0.2-0.2,0.1-0.5,0.1-0.7c0-3.1-0.1-6.2,0-9.3c0.1-3.4,0.9-6.6,2.3-9.6c0.7-1.5,1.6-2.8,2.4-4.2c0.2,0.3,0.4,0.6,0.6,0.8
			c1,1.1,2,2,3.5,2.3c1.3,0.2,2.7,0.3,3.8-0.3c1.6-0.8,2.9-2.1,3.3-4.1c0.2-0.8,0.3-1.6,0.3-2.4c0-1.8,0-3.6,0-5.4
			c1-0.3,2.1-0.7,3.1-1c1.8-0.4,3.6-0.7,5.4-0.8c3-0.2,5.8,0.3,8.7,1.2c0.3,0.1,0.6,0.1,0.8,0.1c0.4,0.4,0.6,1,1,1.4
			C81.4,105.9,83.1,106.4,84.9,106.4z"/>
		<path class="st0" d="M97.1,36.5c1-0.6,1.8-1.4,2.8-2c1.4-0.8,2.8-1.4,4.3-1.5c1.7-0.2,3.4-0.2,5,0.5c0.6,0.3,1.3,0.4,1.8,0.8
			c0.3,0.2,0.3,0.1,0.4-0.2c0.4-1.6,0.9-3.1,1.9-4.5c0.4-0.5,0.8-1,1.2-1.4c0.4-0.4,0.5-0.7,0.2-1.2c-0.5-0.8-1-1.5-1.3-2.4
			c-0.5-1.8-0.5-3.5,0.2-5.3c0.2-0.6,0.1-0.8-0.5-1c-1.7-0.7-2.8-1.9-3.1-3.8c-0.1-0.5-0.3-1-0.3-1.5c0-0.3-0.2-0.3-0.4-0.4
			c-0.5-0.1-1-0.2-1.5-0.4c-1.4-0.6-2.2-1.7-2.7-3.2c0.1-0.6,0.1-1.1,0.2-1.7c0.4-1.8,1.5-3.1,3.3-3.5c2.4-0.5,4.8,1.1,5.3,3.5
			c0.1,0.6,0.2,0.8,0.9,0.7c2.1-0.3,4.1,1.1,5.2,3.2c0.4,0.8,0.4,1.7,0.4,2.5c0,0.1,0,0.3,0,0.4c0,0.1,0,0.2,0,0.3
			c0,0.2,0,0.3,0.2,0.1c1.4-0.1,2.7,0.1,3.9,0.9c1.2,0.8,2.3,1.8,3,3.2c0.5,1,0.6,2.1,0.7,3.3c0.1,1.2,0,2.3-0.5,3.4
			c-0.3,0.6-0.6,1.1-1,1.5c-0.3,0.3-0.2,0.5,0,0.8c0.9,1,1.9,2.1,2.5,3.3c0.2,0.3,0.2,0.7,0.5,0.9c-0.2,0.5,0,1,0.2,1.4
			c0.3,1,0.3,2,0.1,3c-0.4,2.5-1.6,4.5-3.7,6.1c-2.1,1.6-4.4,2.2-7,2c-0.5,0-0.9-0.2-1.3-0.4c-0.1-0.2-0.3-0.3-0.5-0.2
			c-0.1,0.1-0.1,0.2,0,0.3c0.3,0.5,0.2,0.9,0.1,1.4c-0.1,2.2-0.8,4.3-2.2,6.1c-1.8,2.4-4.2,4.1-7.2,4.9c-0.2-0.8-0.3-1.6-0.6-2.4
			c-0.8-2.4-1.7-4.7-2.9-7c-0.4-0.7-0.7-1.5-1.1-2.2c-1.1-1.7-2.1-3.4-3.5-4.9c-1-1.1-1.9-2.4-3.1-3.5
			C97.1,36.7,97.1,36.6,97.1,36.5z"/>
		<path class="st0" d="M37.2,33c1.8-0.1,3.2,0.8,4.7,1.6c0.6,0.3,1.1,0.6,1.6,1.1c-0.1,0.4-0.4,0.6-0.6,0.8c-2,1.7-3.6,3.7-5.1,5.8
			c-1.8,2.4-3.2,5-4.3,7.8c-0.6,1.5-1.2,3-1.5,4.6c-0.1,0.5-0.3,1.1-0.8,1.4c-2-1.1-3.8-2.5-5.2-4.4c-0.9-1.2-1.5-2.6-1.8-4.1
			c0-0.2,0.1-0.5-0.1-0.7c0,0,0,0,0,0c0-0.2,0.1-0.4-0.1-0.6c0,0,0-0.1,0-0.1c0-0.4,0-0.9,0-1.3c0-0.7,0-0.7-0.7-0.4c0,0,0,0,0,0
			c-1.9,0.5-3.7,0.4-5.5-0.3c-2.9-1.1-4.9-3.2-5.9-6.1c-0.5-1.4-0.4-2.7-0.4-4.1c0-0.4,0.3-0.8,0.4-1.2c0.1-0.2,0.2-0.5,0.2-0.7
			c0.7-1.4,1.7-2.7,2.7-3.8c0.2-0.3,0.3-0.4,0.1-0.8c-0.9-1.3-1.5-2.8-1.7-4.4c-0.2-2.2,0.7-4.1,2.2-5.7c1.4-1.5,3-2.4,5.1-2.3
			c0.4,0,0.5-0.1,0.5-0.5c-0.1-1.2,0.2-2.3,0.7-3.3c0.5-1,1.3-1.8,2.3-2.3c1-0.5,2-0.7,3.1-0.5c0.3,0.1,0.4-0.3,0.5-0.5
			c0.2-0.7,0.5-1.4,0.9-2.1c0.7-1.2,1.9-1.5,3.1-1.7c1.6-0.3,3.2,0.7,4,1.9c0.6,0.8,0.8,1.7,0.8,2.7c0,0.2,0,0.4,0.1,0.5
			c-0.1,0.3-0.2,0.5-0.3,0.8c-0.6,1.6-1.8,2.5-3.5,2.8c-0.2,0-0.3,0.1-0.5,0.1c-0.5-0.1-0.4,0.3-0.5,0.5c0,0.5,0,1,0,1.5
			c-0.2,0.9-0.6,1.7-1.4,2.3c-0.6,0.6-1.3,1.1-2.1,1.3c-0.5,0.2-0.4,0.6-0.2,0.9c0.4,1,0.6,1.9,0.6,3c0,1.8-0.5,3.3-1.6,4.7
			c-0.3,0.3-0.4,0.7,0,1c1.3,1,2.1,2.3,2.7,3.8c0.3,0.7,0.4,1.4,0.5,2.1c0,0.4,0.2,0.4,0.5,0.3c0.4-0.1,0.9-0.2,1.2-0.4
			c1-0.7,2.1-0.7,3.2-0.7c0.6-0.2,1.2-0.1,1.7-0.1c0.1,0,0.2,0,0.2,0.1C37,33,37.1,33,37.2,33z"/>
		<path class="st44" d="M120.9,14.7c-0.2,0.2-0.2,0-0.2-0.1C120.8,14.6,120.8,14.6,120.9,14.7z"/>
		<path class="st44" d="M120.7,14.2c0-0.1,0-0.3,0-0.4C120.8,13.9,120.8,14,120.7,14.2z"/>
		<path class="st3" d="M96.4,57.9c0.1,15-11.9,26.1-25.5,26.6C63,84.8,56.2,82,50.6,76.4c-4.6-4.6-7.1-10.3-7.4-16.7
			c-0.5-8.2,2.2-15.3,8.2-21.1c5-4.8,11-7.2,17.9-7.4C84.4,30.9,96.7,43.4,96.4,57.9z M69.8,43.7c-4.4,0-8.2,1.7-11.3,4.8
			c-2.9,2.9-4.4,6.6-4.4,10.6c-0.1,4.3,1.5,8.2,4.6,11.2c3.7,3.7,8.3,5.3,13.5,4.6c5.9-0.8,14-6.2,13.2-17.2
			C84.8,50,78.2,43.9,69.8,43.7z"/>
		<path class="st3" d="M60.9,103.8c0,1.8,0,3.6,0,5.4c0,0.8-0.1,1.6-0.3,2.4c-0.4,1.9-1.6,3.2-3.3,4.1c-1.2,0.6-2.5,0.5-3.8,0.3
			c-1.5-0.3-2.5-1.2-3.5-2.3c-0.2-0.3-0.4-0.6-0.6-0.8c-0.4-1.6-0.5-3.2-0.5-4.9c0-4.6,0-9.1,0-13.7c0-0.9,0-0.9,0.9-0.9
			c3.3,0,6.7,0,10,0c0.8,0,1,0.4,1,1.1c0,2.7,0,5.3,0,8C60.9,102.9,60.9,103.4,60.9,103.8z"/>
		<path class="st3" d="M84.9,106.4c-1.8,0-3.4-0.5-4.8-1.7c-0.4-0.4-0.6-0.9-1-1.4c-0.5-1.2-0.8-2.4-0.8-3.7c0-1.9,0-3.7,0-5.6
			c0-0.6,0.1-0.7,0.7-0.7c3.5,0,7,0,10.4,0c0.8,0,0.8,0,0.8,0.9c0,1.7,0,3.5,0,5.2c0.1,1.9-0.4,3.6-1.6,5.1
			c-0.7,0.9-1.8,1.4-2.9,1.6C85.4,106.2,85.1,106.3,84.9,106.4z"/>
		<path class="st49" d="M117.7,45.7c0.1-0.5,0.2-1-0.1-1.4c-0.1-0.1-0.1-0.2,0-0.3c0.2-0.1,0.4,0,0.5,0.2c-0.3,0.1-0.2,0.4-0.3,0.7
			C117.9,45.1,118.1,45.5,117.7,45.7z"/>
		<path class="st49" d="M23.2,44.3C23.2,44.2,23.2,44.2,23.2,44.3c0.7-0.3,0.7-0.3,0.7,0.4c0,0.4,0,0.9,0,1.3
			c-0.2-0.4-0.1-0.8-0.1-1.1C23.8,44.4,23.6,44.2,23.2,44.3z"/>
		<path class="st49" d="M24,46.8c0.2,0.2,0.1,0.5,0.1,0.7C24,47.2,24,47,24,46.8z"/>
		<path class="st49" d="M23.9,46.1c0.2,0.2,0.1,0.4,0.1,0.6C23.8,46.6,23.9,46.3,23.9,46.1z"/>
		<path class="st49" d="M31.5,14.6c0-0.5,0-1,0-1.5c0-0.2-0.1-0.7,0.5-0.5c-0.4,0.5-0.2,1.1-0.4,1.6C31.6,14.3,31.6,14.5,31.5,14.6z
			"/>
		<path class="st49" d="M36.7,32.8c-0.6,0.1-1.2-0.1-1.7,0.1C35.5,32.5,36.1,32.7,36.7,32.8z"/>
		<path class="st49" d="M37.2,33c-0.1,0-0.2,0-0.2-0.1C37.1,32.7,37.1,32.8,37.2,33z"/>
		<path class="st68" d="M69.8,43.7c8.5,0.2,15,6.4,15.6,14.1c0.8,11-7.4,16.4-13.2,17.2c-5.2,0.7-9.8-0.9-13.5-4.6
			c-3.1-3.1-4.6-6.9-4.6-11.2c0.1-4,1.6-7.7,4.4-10.6C61.6,45.3,65.3,43.7,69.8,43.7z M74.2,48.5c-0.4-0.3-0.9-0.3-1.3-0.5
			c-2.8-0.7-5.5-0.6-8.1,0.7c-2.9,1.4-5.1,3.5-6.1,6.6c-1.6,4.6-0.7,8.8,2.7,12.3c2.3,2.4,5.2,3.5,8.6,3.5c2.7,0,5-1,7.1-2.6
			c0.3-0.2,0.7-0.4,1-0.7c0.5-0.7,1-1.4,1.5-2.1c0.8-1.2,1.2-2.4,1.5-3.8c0.3-1.3,0.4-2.7,0.2-4c-0.2-1.6-0.7-3.1-1.4-4.6
			c0.2-0.4,0.3-0.7,0.4-1.1c0.3-1.5,0-2.8-1.3-3.8c-1.2-0.9-2.5-1-3.9-0.4C74.7,48.1,74.5,48.4,74.2,48.5z"/>
		<path class="st18" d="M79.8,53.3c0.7,1.4,1.3,3,1.4,4.6c0.2,1.3,0.1,2.7-0.2,4c-0.3,1.4-0.8,2.6-1.5,3.8c-0.5,0.7-1,1.4-1.5,2.1
			c-0.2,0.3-0.7,0.5-1,0.7C74.9,70,72.6,71,69.9,71c-3.4,0.1-6.3-1.1-8.6-3.5c-3.3-3.5-4.2-7.6-2.7-12.3c1.1-3.1,3.3-5.3,6.1-6.6
			c2.6-1.2,5.3-1.4,8.1-0.7c0.4,0.1,0.9,0.2,1.3,0.5c-0.1,0.1-0.2,0.3-0.3,0.4c-0.9,1.1-1.2,2.2-0.7,3.6c0.4,0.9,0.9,1.8,1.9,2.1
			C77,55.2,78.5,54.9,79.8,53.3z M73.9,59.4c0.2-2.6-2.4-4.5-4.6-4.4c-2,0.1-4.2,2.1-4.2,4.4c0.1,2.4,2.2,4.4,4.4,4.4
			C71.7,63.7,74,62.1,73.9,59.4z"/>
		<path class="st3" d="M79.8,53.3c-1.2,1.6-2.8,2-4.7,1.3c-1.1-0.4-1.5-1.2-1.9-2.1c-0.5-1.3-0.2-2.5,0.7-3.6
			c0.1-0.1,0.2-0.3,0.3-0.4c0.3,0,0.5-0.3,0.8-0.5c1.4-0.6,2.7-0.5,3.9,0.4c1.3,0.9,1.6,2.3,1.3,3.8C80.1,52.5,80,52.9,79.8,53.3z"
			/>
		<path class="st3" d="M73.9,59.4c0.1,2.7-2.2,4.4-4.4,4.4c-2.2,0-4.4-2-4.4-4.4c0-2.2,2.2-4.3,4.2-4.4
			C71.5,54.9,74.1,56.8,73.9,59.4z"/>
	</g>
</g>
</svg>
