<?xml version="1.0" encoding="utf-8"?>
<!-- Generator: Adobe Illustrator 27.3.1, SVG Export Plug-In . SVG Version: 6.00 Build 0)  -->
<svg version="1.1" id="Ebene_1" xmlns="http://www.w3.org/2000/svg" xmlns:xlink="http://www.w3.org/1999/xlink" x="0px" y="0px"
	 viewBox="0 0 141.7 141.7" style="enable-background:new 0 0 141.7 141.7;" xml:space="preserve">
<style type="text/css">
	.st0{fill:#F6BB37;}
	.st1{fill:#3684C6;}
	.st2{fill:#DCA12A;}
	.st3{fill:#FCFCFE;}
	.st4{fill:#E97E2F;}
	.st5{fill:#28273D;}
	.st6{fill:#7F65AA;}
	.st7{fill:#B49ECB;}
	.st8{fill:#66529D;}
	.st9{fill:#33314C;}
	.st10{fill:#35ACC6;}
	.st11{fill:#27263D;}
	.st12{fill:#DB191D;}
	.st13{fill:#42BEE1;}
	.st14{fill:#EE715E;}
	.st15{fill:#396CB3;}
	.st16{fill:#EA5B4C;}
	.st17{fill:#F2C551;}
	.st18{fill:#27273D;}
	.st19{fill:#B0CF6D;}
	.st20{fill:#28263D;}
	.st21{fill:#9E4A30;}
	.st22{fill:#DB1E1D;}
	.st23{fill:#FBFBFD;}
	.st24{fill:#A3C163;}
	.st25{fill:#3F426D;}
	.st26{fill:#33304C;}
	.st27{fill:#DB181D;}
	.st28{fill:#83C4ED;}
	.st29{fill:#B6622B;}
	.st30{fill:#AB795E;}
	.st31{fill:#88C7EE;}
	.st32{fill:#9BB7CC;}
	.st33{fill:#E97F31;}
	.st34{fill:#CD6F2C;}
	.st35{fill:#A8A4A6;}
	.st36{fill:#84C4EC;}
	.st37{fill:#FEFEFE;}
	.st38{fill:#D91F1D;}
	.st39{fill:#F29454;}
	.st40{fill:#3C86C6;}
	.st41{fill:#F8FAFD;}
	.st42{fill:#AD8ABF;}
	.st43{fill:#67529E;}
	.st44{fill:#F6D373;}
	.st45{fill:#29273D;}
	.st46{fill:#EE715D;}
	.st47{fill:#F9C6BD;}
	.st48{fill:#A65E3A;}
	.st49{fill:#F18B88;}
	.st50{fill:#82C2EC;}
	.st51{fill:#E28080;}
	.st52{fill:#D57474;}
	.st53{fill:#4F5173;}
	.st54{fill:#3785C6;}
	.st55{fill:#E84680;}
	.st56{fill:#28273E;}
	.st57{fill:#E13072;}
	.st58{fill:#F5BA37;}
	.st59{fill:#F3C651;}
	.st60{fill:#DB5144;}
	.st61{fill:#A17FB8;}
	.st62{fill:#AC8ABE;}
	.st63{fill:#342E4F;}
	.st64{fill:#2DAC64;}
	.st65{fill:#5CB993;}
	.st66{fill:#9DBA5C;}
	.st67{fill:#5AB992;}
	.st68{fill:#66529E;}
	.st69{fill:#EA5A4C;}
	.st70{fill:#12994E;}
	.st71{fill:#DE5044;}
	.st72{fill:#EE715F;}
	.st73{fill:#E97F2F;}
	.st74{fill:#A89AC9;}
	.st75{fill:#38B3CD;}
	.st76{fill:#DD3D78;}
	.st77{fill:#F5D373;}
	.st78{fill:#FDEAB4;}
	.st79{fill:#7F66AA;}
	.st80{fill:#3885C6;}
	.st81{fill:#40436D;}
	.st82{fill:#A99ACA;}
	.st83{fill:#34314B;}
	.st84{fill:#F4D273;}
	.st85{fill:#83C5ED;}
	.st86{fill:#D29C2C;}
	.st87{fill:#87C7EE;}
	.st88{fill:#F6BB38;}
	.st89{fill:#F6BB3A;}
	.st90{fill:#E83D69;}
	.st91{fill:#F4BC3F;}
	.st92{fill:#85C5EB;}
	.st93{fill:#DA1E1D;}
	.st94{fill:#DDA736;}
	.st95{fill:#F18D88;}
	.st96{fill:#FFFEFE;}
	.st97{fill:#F9C8BC;}
	.st98{fill:#3B85C6;}
</style>
<g id="t8gioN.tif">
	<g>
		<path class="st55" d="M92.2,138.3c-0.6,0.4-1.3,0.5-2,0.7c-2.5,0.7-5,1.3-7.6,1.7c-1.8,0.3-3.5,0.6-5.3,0.7
			c-3.5,0.4-7.1,0.3-10.6,0.2c-1.4,0-2.8-0.3-4.3-0.4c-3-0.3-5.9-0.8-8.7-1.6c-0.6-0.2-1.1-0.3-1.7-0.5c0.1-1.1,0.1-2.2,0.1-3.2
			c0.1-2,0.2-4,0.4-6.1c0.1-1.5,0-3,0.1-4.5c0.1-1.4,0.1-2.9,0.3-4.3c0.2-2.1,0.1-4.3,0.2-6.4c0.2-2.1,0.3-4.3,0.4-6.4
			c0.1-1.9,0.3-3.8,0.1-5.7c-0.1-0.9-0.1-1.8-0.5-2.6c-0.6-1.4-1.2-2.7-2.4-3.7c-1.5-1.2-3.2-2-5-2.6c-1.1-0.3-2.2-0.1-3.3,0
			c-2.8,0.3-5,1.7-6.6,3.9c-1,1.3-1.8,2.7-2.6,4c-0.2-0.4-0.3-0.8-0.3-1.2c0-0.6,0.2-1.3,0-1.9c-0.3-1.3-0.4-2.6-0.5-3.9
			c-0.1-1.6-0.4-3.1-0.4-4.7c-0.1-2.1-0.3-4.1-0.5-6.1c-0.1-1.4-0.1-2.8-0.2-4.2c-0.2-2.6-0.3-5.1-0.4-7.7
			c-0.1-4.1-0.2-8.2,0.4-12.2c0.1-0.4-0.2-1.1,0.6-1.2c0.3,0.8,0.6,1.6,1,2.3c0.6,1.4,1.4,2.7,2.4,3.8c0.8,0.9,1.5,1.9,2.6,2.5
			c0.8,0.5,1.7,1.1,2.5,1.7c0.9,0.6,1.9,1.1,3,1.4c1.9,0.7,3.8,1,5.8,1.1c2.4,0.1,4.7-0.2,7-1.1c0.6-0.3,1.2-0.5,1.8-0.8
			c0.7-0.4,1.5-0.5,2.1-1.1c0.9-0.9,2.2-1.4,3-2.5c0.7-0.9,1.6-1.7,2.2-2.7c0.9-1.4,1.6-2.9,2.2-4.5c0.4-1,0.5-2.1,0.7-3.1
			c0.4-2.2,0.1-4.5-0.3-6.7c-0.4-2.6-1.6-4.9-3.2-7c-2.2-2.9-5-5-8.4-6.3c-0.9-0.3-1.8-0.6-2.7-0.9c-0.7-0.2-1.5-0.3-2.2-0.3
			c-0.1-0.3-0.4-0.3-0.6-0.6c-0.4-1.6-0.9-3.2-0.9-4.9c0-0.9,0.1-1.8,0.3-2.7c0.1-0.7,0.1-1.4,0.7-2c0.4,0.1,0.7-0.1,1-0.3
			c1.5-1.1,2.9-2.3,4.4-3.2c1.7-1,3.4-2,5.2-2.9c2.9-1.3,5.9-2.6,9-3.3c2-0.5,3.9-1.1,6-1.2c0.3,0,0.4-0.2,0.5-0.5
			c1.3-0.1,2.6,0.2,3.9,0.4c1.3,0.3,2.7,0.6,4,0.9c1.7,0.4,3.4,1,5.1,1.5c1.3,0.4,2.6,0.9,3.8,1.5c0.7,0.4,1.6,0.6,2.4,1
			c1.2,0.6,2.3,1.4,3.5,2c1.6,0.8,3,2,4.5,2.9c0.1,0.1,0.2,0.2,0.3,0.2c0.4,0.4,1,0.7,1.5,1c0,1.7-0.5,3.3-1.2,4.8
			c-1.1,2.2-2.3,4.2-4.1,5.9c-0.3,0.3-0.6,0.5-0.6,1c-0.2,0-0.4,0-0.5-0.1c-1.6-0.7-3.2-1.1-4.8-1.4c0.2-0.1,0.2-0.4,0.3-0.6
			c0.4-1.5,0.6-3,0.6-4.5c0.1-0.1,0.1-0.1,0-0.2c0.2-1.7-0.1-3.3-0.6-4.9c-0.5-1.9-1.5-3.6-2.9-5c-0.3-0.3-0.7-0.6-1.1-0.8
			c-1-0.3-2,0.2-2.2,1.2c-0.2,0.7,0.2,1.3,0.6,1.8c1,1.3,2.1,2.5,2.2,4.3c0.1,1.5,0.6,2.9,0.2,4.4c-0.3,1.2-0.5,2.4-0.8,3.5
			c-0.3,0-0.4,0.3-0.4,0.5c-0.5,0.2-0.9,0-1.4,0.2c-1.1,0.3-2.1,0.6-3.2,0.8c-1.3,0.4-2.5,1-3.6,1.7c-0.9,0.5-1.7,1.3-2.5,1.9
			c-1.1,0.8-2,1.8-2.8,2.9c-0.7,1-1.3,2-1.8,3.1c-0.4,1.1-1,2.1-1.3,3.3c-0.2,0.9-0.4,1.8-0.5,2.8c-0.1,1.9-0.1,3.8,0.3,5.8
			c0.7,3.1,2.1,5.9,4.1,8.3c2.1,2.5,4.7,4.2,7.8,5.3c1.6,0.6,3.4,0.9,5.1,1c4.3,0.3,8.2-0.7,11.8-3.2c1.1-0.8,2.1-1.8,3.1-2.8
			c1.3-1.4,2.4-2.8,3.1-4.5c0.2-0.5,0.4-1.1,0.7-1.6c0.5-0.9,0.6-1.9,0.8-2.8c0.2-1,0.3-2,0.4-3.1c1.8,0,3.6-0.1,5.4-0.3
			c1.8-0.2,3.5-0.5,5.2-0.9c0.9-0.2,1.7-0.8,2.6-0.9c0.3,2.3,1.1,4.4,1.4,6.6c0.3,2.2,0.3,4.4,0.6,6.6c0.1,1,0,2,0.1,2.9
			c0.1,1.6-0.2,3.2-0.2,4.7c0,1.1-0.2,2.2-0.2,3.2c0,0.3,0.2,0.6,0.1,0.8c-0.1,0.8-0.2,1.7-0.2,2.5c0,1.6-0.2,3.2-0.3,4.8
			c-0.1,2.2-0.3,4.5-0.5,6.7c-0.1,0.9-0.2,1.9-0.3,2.8c-0.1,1.6-0.3,3.1-0.5,4.7c-0.1,0.7,0,1.4-0.2,2c-0.3,1.9-0.3,3.7-0.7,5.6
			c-0.2,0.8,0,1.5-0.2,2.3c-0.2,0.9-0.4,1.7-0.4,2.6c0.1,1.4-1.2,2.8-2.4,3.1c-0.7,0.2-1.4,0.1-2-0.3c-0.7-0.6-1.2-1.4-1.6-2.2
			c-0.9-1.6-2-3.2-2.9-4.8c-0.4-0.8-1.1-1.6-1.6-2.4c-1-1.5-2-3-3.1-4.5c-0.9-1.1-1.8-2.1-3.1-2.8c-1.1-0.5-2-1.3-3.3-1.5
			c-1.5-0.2-2.9-0.2-4.3,0.3c-1.6,0.5-3.1,1.1-4.3,2.3c-1.1,1-2,2.2-2.5,3.6c-0.7,2-0.9,4.1-0.7,6.2c0.2,2.1,0.2,4.2,0.4,6.3
			c0.1,1.8,0.2,3.6,0.3,5.5c0.2,2.9,0.4,5.8,0.4,8.7c0,0.7,0,1.5,0,2.2c0.1,1.2,0.3,2.5,0.3,3.7c0,0.7,0,1.5,0.1,2.2
			C92.3,136.6,92.2,137.5,92.2,138.3z M87.1,76.7c0-0.3,0-0.7,0-1c0-0.5-0.3-0.8-0.7-0.9c-0.5,0-1-0.2-1.4,0.3
			c-1.5,2.3-3.5,4.2-5.9,5.7c-2.7,1.7-5.8,2.5-9,2.3C68,83,66,82.7,64,81.8c-2.8-1.3-5-3.3-6.8-5.8c-0.2-0.3-0.5-0.7-0.8-0.9
			c-0.4-0.4-1.1-0.4-1.5,0c-0.4,0.4-0.7,0.8-0.6,1.4c0.1,1,0.2,2,0.4,3c0.5,1.9,1.1,3.7,2.1,5.4c0.9,1.6,2.2,2.9,3.6,4.1
			c1.4,1.2,2.8,2.1,4.5,2.8c1.2,0.5,2.5,0.7,3.9,0.9c3.1,0.5,5.9-0.2,8.7-1.3c0.9-0.4,1.9-0.8,2.7-1.5c2.3-1.8,4.2-3.9,5.5-6.5
			C86.7,81.3,87.1,79.1,87.1,76.7z"/>
		<path class="st1" d="M33.3,101.5c0.9-1.3,1.7-2.7,2.6-4c1.6-2.2,3.8-3.6,6.6-3.9c1.1-0.1,2.2-0.3,3.3,0c1.8,0.6,3.5,1.3,5,2.6
			c1.2,1,1.9,2.3,2.4,3.7c0.3,0.8,0.4,1.8,0.5,2.6c0.3,1.9,0,3.8-0.1,5.7c-0.1,2.1-0.2,4.3-0.4,6.4c-0.2,2.1,0,4.3-0.2,6.4
			c-0.2,1.4-0.1,2.9-0.3,4.3c-0.1,1.5,0,3-0.1,4.5c-0.2,2-0.3,4-0.4,6.1c-0.1,1.1,0,2.2-0.1,3.2c-1.5-0.3-3-0.8-4.5-1.2
			c-1.6-0.5-3.2-1.1-4.6-1.8c-2-0.9-4.1-1.8-6-3c-0.5-0.3-1.1-0.6-1.7-0.9c-2.4-1.4-4.7-3-6.9-4.7c-1.5-1.1-2.9-2.2-4.3-3.4
			c-3.2-2.9-6.2-6-8.9-9.5c-3.4-4.4-6.3-9.1-8.7-14.2c-1-2.2-1.9-4.4-2.7-6.7c-1.2-3.6-2.1-7.2-2.8-11c-0.3-1.7-0.5-3.5-0.7-5.2
			c-0.4-3-0.5-5.9-0.4-8.9c0.1-2.2,0.3-4.4,0.6-6.6c0.5-3.6,1.2-7.2,2.2-10.7c1-3.5,2.3-6.8,3.7-10.1c0.1-0.1,0.1-0.3,0.1-0.4
			c0.2,0.3,0.4,0.5,0.5,0.8c0.6,1.6,1.6,2.9,2.7,4.1c0.7,0.7,1.4,1.3,2.2,1.9c1.4,1.2,3,2,4.6,2.8c1.2,0.6,2.6,0.9,3.8,1.6
			c-0.2,0.8-0.5,1.6-0.6,2.3c-0.3,1.3-0.5,2.5-0.7,3.8c-0.1,0.5-0.2,1-0.2,1.5c-0.1,0.9,0,1.9-0.2,2.8c-0.2,0.9-0.2,1.8-0.1,2.8
			c-0.2,1.3-0.1,2.7,0,4c-0.2,0.3,0,0.5,0,0.8c0.1,1.9,0.3,3.9,0.3,5.8c0,1.3,0,2.6,0.1,3.9c0.1,1.2,0.4,2.3,0.4,3.5
			c0,0.9,0,1.7,0,2.6c0.1,1.6,0.5,3.3,0.5,4.9c0,0.3-0.1,0.8,0,1c0.3,0.9,0.1,1.8,0.4,2.6c0.3,1,0.1,2,0.2,2.9
			c0.1,1.4,0.5,2.7,0.5,4.1c0,0.8,0.1,1.5,0.3,2.3c0.3,1.3,0.3,2.7,0.6,4.1c0.2,0.8,0.2,1.6,0.3,2.4c0.2,1.2,0.7,2.1,1.8,2.7
			c1.4,0.7,3,0,3.8-1.3c1.2-2.1,2.3-4.3,3.6-6.3C31.8,104,32.5,102.8,33.3,101.5z"/>
		<path class="st1" d="M92.2,138.3c0-0.8,0-1.7-0.1-2.5c-0.1-0.7-0.1-1.5-0.1-2.2c0-1.2-0.2-2.5-0.3-3.7c-0.1-0.7,0-1.4,0-2.2
			c0-2.9-0.3-5.8-0.4-8.7c-0.1-1.8-0.1-3.6-0.3-5.5c-0.1-2.1-0.2-4.2-0.4-6.3c-0.2-2.1,0-4.2,0.7-6.2c0.5-1.4,1.4-2.6,2.5-3.6
			c1.2-1.1,2.7-1.8,4.3-2.3c1.4-0.5,2.9-0.5,4.3-0.3c1.2,0.2,2.2,0.9,3.3,1.5c1.3,0.7,2.3,1.7,3.1,2.8c1.1,1.4,2.1,3,3.1,4.5
			c0.5,0.8,1.2,1.5,1.6,2.4c0.9,1.7,2,3.2,2.9,4.8c0.4,0.8,1,1.6,1.6,2.2c0.5,0.5,1.3,0.5,2,0.3c1.2-0.3,2.4-1.7,2.4-3.1
			c0-0.9,0.1-1.8,0.4-2.6c0.2-0.8,0.1-1.5,0.2-2.3c0.4-1.8,0.4-3.7,0.7-5.6c0.1-0.6,0.1-1.3,0.2-2c0.2-1.5,0.4-3.1,0.5-4.7
			c0.1-0.9,0.2-1.9,0.3-2.8c0.2-2.2,0.4-4.5,0.5-6.7c0.1-1.6,0.3-3.2,0.3-4.8c0-0.9,0.1-1.7,0.2-2.5c0-0.3-0.1-0.5-0.1-0.8
			c0-1.1,0.2-2.2,0.2-3.2c-0.1-1.6,0.2-3.2,0.2-4.7c0-1,0.1-2-0.1-2.9c-0.3-2.2-0.3-4.4-0.6-6.6c-0.3-2.3-1.1-4.4-1.4-6.6
			c0.5-0.3,1.1-0.5,1.6-0.8c1.5-0.7,3-1.5,4.3-2.5c2.2-1.7,3.9-3.8,5-6.3c0.1-0.2,0.2-0.3,0.3-0.3c0.4,0.4,0.6,1,0.8,1.5
			c0.7,1.7,1.4,3.4,2,5.2c1.4,4,2.4,8.1,3,12.3c0.3,1.8,0.4,3.7,0.6,5.5c0.3,2.8,0.2,5.6,0.1,8.4c-0.1,1.6-0.1,3.3-0.4,4.9
			c-0.2,1.7-0.5,3.4-0.8,5c-0.3,1.7-0.7,3.3-1.1,5c-0.6,2.1-1.2,4.2-2,6.2c-1.9,5-4.2,9.8-7.2,14.2c-3.1,4.6-6.6,8.9-10.6,12.7
			c-1.5,1.4-3,2.8-4.6,4.1c-2,1.6-4.1,3.1-6.3,4.5c-2.3,1.4-4.7,2.7-7.1,3.9c-2,1-4,1.8-6,2.6C94.5,137.8,93.4,138.1,92.2,138.3z"/>
		<path class="st1" d="M105.8,24.2c-0.5-0.3-1.1-0.6-1.5-1c-0.1-0.1-0.2-0.2-0.3-0.2c-1.5-1-2.9-2.1-4.5-2.9c-1.2-0.6-2.3-1.4-3.5-2
			c-0.8-0.4-1.6-0.6-2.4-1c-1.2-0.6-2.5-1.1-3.8-1.5c-1.7-0.5-3.3-1.1-5.1-1.5c-1.3-0.3-2.7-0.6-4-0.9c-1.3-0.3-2.6-0.5-3.9-0.4
			c-0.7-0.2-1.3-0.3-2-0.3c-0.8-0.2-1.6-0.1-2.4-0.1c-0.1,0-0.2,0-0.3,0c-0.1,0-0.3-0.1-0.4,0.1c-13.6,0-25.3,4.8-35.5,13.5
			c-0.2-0.1-0.3-0.3-0.4-0.5c-0.3-1.4-0.1-2.8,0.1-4.1c0.1-0.8,0.5-1.5,0.7-2.3c0.3-1-0.2-2-1.1-2.3c-0.9-0.3-2,0.2-2.3,1.2
			c-0.3,1-0.8,2-0.9,3.2c-0.1,1.5-0.4,3,0,4.5c0.3,1.1,0.5,2.3,0.8,3.4c-0.2,0.3-0.4,0.7-0.7,0.9c-1.6,1.6-2.9,3.4-4.2,5.2
			c-0.5,0.7-1,1.4-1.3,2.2c-0.3-0.1-0.5-0.2-0.7-0.4c-1-0.8-1.9-1.7-2.7-2.7c-1.9-2.1-3.1-4.5-3.4-7.3c-0.1-0.8-0.8-1.6-1.5-1.7
			c-1-0.1-1.5,0.2-1.9,1.2c-0.1,0.3-0.1,0.6-0.1,1c0.1,2.3,0.8,4.3,1.9,6.3c1.3,2.4,3.2,4.3,5.4,6c0.3,0.2,0.7,0.5,0.9,0.8
			c-0.1,0.5-0.4,0.8-0.6,1.2c-0.6,1.4-1.3,2.7-1.8,4.1c-0.3,0.8-0.8,1.5-0.8,2.4c-0.2,0.2-0.4,0-0.6,0c-1.5-0.3-2.9-1.1-4.2-1.7
			c-2.9-1.4-5.1-3.7-6.6-6.5c-0.5-0.9-0.9-1.7-1.9-2.1c0-0.7,0.5-1.2,0.8-1.8c1.6-2.9,3.4-5.7,5.5-8.3c1.3-1.7,2.8-3.4,4.2-5
			c3.2-3.5,6.7-6.6,10.5-9.4c3.4-2.5,6.9-4.6,10.6-6.4c3.7-1.8,7.6-3.2,11.5-4.4c3.1-0.9,6.2-1.6,9.4-2c1.8-0.2,3.6-0.4,5.4-0.6
			C68.2,0,70.2,0,72.2,0c0.7,0,1.4,0.2,2.1,0.2c0.5,0,1,0,1.5,0c1.3,0,2.6,0.3,3.8,0.5c1.2,0.2,2.3,0.3,3.5,0.5
			c1.7,0.3,3.4,0.6,5.1,1.1c1.7,0.4,3.3,0.9,5,1.4c1.2,0.4,2.4,0.8,3.5,1.3c7.5,2.9,14.2,7,20.4,12.2c2.5,2.1,4.8,4.3,6.9,6.7
			c0.8,1,1.6,2,2.4,2.9c1.9,2.3,3.6,4.7,5.2,7.3c0.7,1.1,1.2,2.2,1.8,3.4c0.1,0.2,0.1,0.3,0.1,0.5c-0.7,0.3-1.3,0.8-1.6,1.5
			c-0.7,1.6-1.7,3-2.8,4.2c-1.7,1.9-3.9,2.9-6.2,3.9c-0.1-0.2-0.3-0.5-0.4-0.7c-0.8-1.5-1.3-3.2-2.2-4.7c-0.6-1-1-2-1.7-3
			c0.1-0.1,0.1-0.2,0.2-0.2c2.3-1.9,4.1-4.2,5.2-6.9c0.7-1.6,1.1-3.3,1.1-5.1c0-1-0.8-1.7-1.7-1.7c-1,0-1.8,0.8-1.9,1.9
			c-0.2,2.4-1.1,4.4-2.6,6.3c-0.7,0.8-1.3,1.7-2.1,2.4c-0.3,0-0.4-0.2-0.5-0.4c-0.7-0.8-1.3-1.7-1.9-2.5c-1.5-2.1-3.4-3.8-5.1-5.7
			c0-0.3,0-0.6,0.1-0.8c0.1-0.9,0.3-1.9,0.3-2.8c0-1.9-0.4-3.7-1-5.5c-0.4-1-1.2-1.5-2.3-1.2c-0.8,0.2-1.2,0.9-1.1,2
			c0,0.3,0.1,0.5,0.2,0.8c0.2,0.6,0.5,1.3,0.5,2C105.8,22.5,106.1,23.4,105.8,24.2z"/>
		<path class="st56" d="M8.3,38c1,0.4,1.4,1.2,1.9,2.1c1.5,2.8,3.7,5.1,6.6,6.5c1.4,0.7,2.7,1.4,4.2,1.7c0.2,0,0.4,0.2,0.6,0
			c0.1,0.1,0.2,0.1,0.4,0.2c3.1,0.7,6.2,1.1,9.3,1c-0.2,1.2-0.1,2.5-0.2,3.7c0,0-0.1,0-0.1,0c-0.8-0.1-1.5-0.2-2.3-0.2
			c-1.6,0-3.1-0.3-4.6-0.4c-1.3-0.1-2.5-0.6-3.8-0.6c-1.2-0.7-2.6-1-3.8-1.6c-1.6-0.8-3.2-1.6-4.6-2.8c-0.7-0.6-1.5-1.2-2.2-1.9
			c-1.1-1.2-2.1-2.6-2.7-4.1C7,41.5,6.8,41.2,6.6,41c-0.1-0.5-0.3-1-0.1-1.5C6.7,38.5,7.4,38.1,8.3,38z"/>
		<path class="st56" d="M122.8,47.7c2.2-1,4.5-2.1,6.2-3.9c1.1-1.3,2.2-2.6,2.8-4.2c0.3-0.8,0.9-1.2,1.6-1.5
			c1.8,0.1,2.3,1.6,1.8,2.9c0,0.1-0.1,0.2-0.1,0.3c-0.2,0-0.3,0.2-0.3,0.3c-1.1,2.5-2.9,4.6-5,6.3c-1.3,1-2.8,1.8-4.3,2.5
			c-0.5,0.2-1.1,0.5-1.6,0.8c-0.9,0.1-1.7,0.7-2.6,0.9c-1.7,0.3-3.5,0.6-5.2,0.9c-1.8,0.2-3.6,0.3-5.4,0.3c0-0.1-0.1-0.2-0.1-0.3
			c0-0.7,0-1.4-0.1-2c-0.1-0.4-0.2-0.8-0.1-1.3c0.3-0.2,0.6,0,0.8,0c3,0,6-0.4,8.9-1.1C121,48.3,122,48.2,122.8,47.7z"/>
		<path class="st3" d="M31.2,53.3c0.2-1.2,0-2.5,0.2-3.7c0.3-0.9,0.4-1.8,0.7-2.7c0.3-0.7,0.6-1.5,0.8-2.2c0.7-1.1,1.4-2.2,2.1-3.3
			c0.4-0.4,0.7-0.8,1.1-1.2c0.9-0.8,1.8-1.7,2.7-2.5c0.4-0.2,0.9-0.5,1.3-0.7c0.6-0.4,1.3-0.6,1.8-1.1c0.2,0.1,0.3,0,0.4-0.1
			c1.5-0.7,3.1-1.1,4.8-1.3c0.2,0,0.5-0.1,0.7-0.1c1,0,1.9,0,2.9,0c0.2,0,0.4,0,0.6,0c0.7,0,1.5,0.1,2.2,0.3
			c0.9,0.2,1.8,0.5,2.7,0.9c3.5,1.2,6.2,3.4,8.4,6.3c1.6,2.1,2.7,4.4,3.2,7c0.4,2.2,0.7,4.4,0.3,6.7c-0.2,1.1-0.3,2.1-0.7,3.1
			c-0.6,1.6-1.3,3.1-2.2,4.5c-0.6,1-1.5,1.8-2.2,2.7c-0.8,1.1-2,1.6-3,2.5c-0.6,0.6-1.4,0.7-2.1,1.1c-0.6,0.3-1.2,0.6-1.8,0.8
			c-2.2,1-4.6,1.2-7,1.1c-2-0.1-4-0.4-5.8-1.1c-1-0.4-2-0.8-3-1.4c-0.8-0.5-1.7-1.1-2.5-1.7c-1-0.7-1.8-1.6-2.6-2.5
			c-1-1.2-1.8-2.4-2.4-3.8c-0.3-0.8-0.7-1.6-1-2.3c-0.3-1-0.4-2-0.7-3c-0.1-0.3,0.2-0.6-0.1-0.8c0-0.1,0-0.2,0-0.2
			c0-0.1,0-0.3,0-0.4c0.4-0.2-0.1-0.4,0-0.6l0,0C31.2,53.3,31.2,53.3,31.2,53.3z M49.8,42.9c-6,0-11,4.8-10.9,10.9
			c0,6.1,4.7,10.8,10.6,10.9c6.2,0.1,11.1-4.7,11.1-10.8C60.7,47.9,55.8,42.9,49.8,42.9z"/>
		<path class="st3" d="M110.3,49.6c-0.1,0.4,0,0.9,0.1,1.3c0.1,0.7,0.1,1.4,0.1,2c0,0.1,0.1,0.2,0.1,0.3c-0.1,1-0.2,2.1-0.4,3.1
			c-0.2,0.9-0.3,1.9-0.8,2.8c-0.3,0.5-0.5,1.1-0.7,1.6c-0.7,1.8-1.9,3.1-3.1,4.5c-0.9,1-1.9,2-3.1,2.8c-3.5,2.5-7.4,3.6-11.8,3.2
			c-1.8-0.1-3.5-0.5-5.1-1c-3-1.1-5.7-2.8-7.8-5.3c-2-2.4-3.4-5.2-4.1-8.3c-0.4-1.9-0.4-3.8-0.3-5.8c0.1-0.9,0.2-1.9,0.5-2.8
			c0.3-1.1,0.8-2.2,1.3-3.3c0.5-1.1,1.1-2.1,1.8-3.1c0.8-1.1,1.7-2,2.8-2.9c0.8-0.7,1.6-1.5,2.5-1.9c1.2-0.6,2.3-1.3,3.6-1.7
			c1.1-0.3,2.1-0.6,3.2-0.8c0.5-0.1,0.9,0,1.4-0.2c0.1,0,0.3,0,0.4,0c1.2,0,2.4,0,3.5,0.2c1.6,0.3,3.3,0.7,4.8,1.4
			c0.2,0.1,0.3,0.2,0.5,0.1c0,0.1,0.1,0.2,0.1,0.2c1,0.4,1.9,0.9,2.7,1.5c1.6,1,2.8,2.5,4,3.9c0.5,0.8,1.3,1.4,1.6,2.4
			c0.1,0.2,0,0.6,0.3,0.7c0,0.1,0,0.2,0,0.2c0.5,1.1,1,2.1,1.2,3.3C110,48.7,110,49.2,110.3,49.6z M92,64.7c6,0,11-4.9,10.8-11.2
			c-0.1-5.9-5-10.7-10.9-10.6c-6,0-10.9,5-10.8,11C81.2,60,86.1,64.7,92,64.7z"/>
		<path class="st57" d="M31.2,54.6c0.3,0.2,0,0.6,0.1,0.8c0.2,1,0.4,2,0.7,3c-0.8,0.1-0.5,0.8-0.6,1.2c-0.6,4.1-0.4,8.2-0.4,12.2
			c0,2.6,0.2,5.1,0.4,7.7c0.1,1.4,0.1,2.8,0.2,4.2c0.2,2,0.4,4.1,0.5,6.1c0.1,1.6,0.4,3.1,0.4,4.7c0.1,1.3,0.1,2.6,0.5,3.9
			c0.2,0.6,0,1.3,0,1.9c0,0.4,0,0.8,0.3,1.2c-0.7,1.3-1.4,2.5-2.2,3.8c-1.3,2.1-2.4,4.2-3.6,6.3c-0.7,1.4-2.4,2-3.8,1.3
			c-1.1-0.5-1.6-1.5-1.8-2.7c-0.1-0.8-0.1-1.6-0.3-2.4c-0.3-1.4-0.3-2.7-0.6-4.1c-0.2-0.7-0.3-1.5-0.3-2.3c0-1.4-0.4-2.7-0.5-4.1
			c-0.1-1,0.1-2-0.2-2.9c-0.2-0.9,0-1.8-0.4-2.6c-0.1-0.2,0-0.7,0-1c0-1.7-0.4-3.3-0.5-4.9c0-0.9,0-1.7,0-2.6c0-1.2-0.3-2.3-0.4-3.5
			c-0.1-1.3-0.2-2.6-0.1-3.9c0.1-1.9-0.2-3.9-0.3-5.8c0-0.3-0.2-0.5,0-0.8c0-1.3,0-2.7,0-4c0-0.9,0-1.9,0.1-2.8
			c0.2-0.9,0.1-1.9,0.2-2.8c0.1-0.5,0.1-1,0.2-1.5c0.2-1.3,0.4-2.5,0.7-3.8c0.2-0.8,0.4-1.6,0.6-2.3c1.3,0,2.5,0.5,3.8,0.6
			c1.5,0.1,3.1,0.4,4.6,0.4c0.8,0,1.5,0.1,2.3,0.2c0,0,0.1,0,0.1,0.1c0,0,0,0,0,0c0,0.2,0,0.4,0,0.6c0,0.1,0,0.3,0,0.4
			C31.1,54.5,31.1,54.5,31.2,54.6z"/>
		<path class="st56" d="M87.1,76.7c-0.1,2.3-0.4,4.6-1.4,6.7c-1.3,2.6-3.2,4.8-5.5,6.5c-0.8,0.6-1.8,1.1-2.7,1.5
			c-2.8,1.2-5.7,1.8-8.7,1.3c-1.3-0.2-2.6-0.5-3.9-0.9c-1.7-0.7-3.1-1.6-4.5-2.8c-1.4-1.2-2.7-2.5-3.6-4.1c-1-1.7-1.6-3.5-2.1-5.4
			c-0.2-1-0.3-2-0.4-3c-0.1-0.6,0.2-1,0.6-1.4c0.4-0.4,1.1-0.4,1.5,0c0.3,0.3,0.6,0.6,0.8,0.9c1.8,2.5,4,4.5,6.8,5.8
			c2,0.9,4.1,1.2,6.2,1.4c3.3,0.2,6.3-0.5,9-2.3c2.3-1.5,4.3-3.4,5.9-5.7c0.4-0.6,0.9-0.4,1.4-0.3c0.4,0,0.7,0.4,0.7,0.9
			C87.1,76,87.1,76.4,87.1,76.7z"/>
		<path class="st57" d="M36.3,26c10.3-8.7,22-13.5,35.5-13.5c0.1,0,0.3,0,0.4-0.1c0.1,0,0.2,0,0.3,0c0.8,0.2,1.6,0,2.4,0.1
			c0.7,0,1.3,0.1,2,0.3c0,0.3-0.2,0.5-0.5,0.5c-2.1,0.1-4,0.7-6,1.2c-3.1,0.7-6.1,2-9,3.3c-1.8,0.8-3.5,1.8-5.2,2.9
			c-1.6,0.9-3,2.1-4.4,3.2c-0.3,0.2-0.6,0.4-1,0.3c0.4-1.1,1.2-1.8,1.8-2.7c0.2-0.3,0.5-0.6,0.5-1c0.1-0.7-0.1-1.4-0.7-1.8
			c-0.6-0.4-1.5-0.4-2.1,0.1c-0.9,0.7-1.6,1.6-2.1,2.5c-1.4,2.4-2.2,5.1-1.9,7.9c-0.2-0.1-0.4-0.1-0.6,0.1c-0.5,0.6-1.1,1.1-1.6,1.7
			c-1,1.2-2,2.5-3,3.7c-1.8-1.9-3-4.1-4.2-6.4C36.6,27.6,36.2,26.9,36.3,26z"/>
		<path class="st56" d="M102.8,37.6c-0.8-0.6-1.7-1.1-2.7-1.5c-0.1,0-0.1-0.1-0.1-0.2c0-0.5,0.3-0.7,0.6-1c1.7-1.7,3-3.8,4.1-5.9
			c0.7-1.5,1.2-3.1,1.2-4.8c0.3-0.9,0-1.7-0.1-2.5c0-0.7-0.3-1.3-0.5-2c-0.1-0.2-0.2-0.5-0.2-0.8c-0.1-1.1,0.3-1.8,1.1-2
			c1.1-0.3,1.9,0.2,2.3,1.2c0.6,1.8,1,3.6,1,5.5c0,0.9-0.2,1.9-0.3,2.8c0,0.3-0.1,0.6-0.1,0.8c-0.5,1.5-1.1,3-1.8,4.5
			C106.1,34,104.6,35.9,102.8,37.6z"/>
		<path class="st56" d="M94.5,34.4c-1.2-0.1-2.4-0.2-3.5-0.2c0-0.2,0-0.3-0.1-0.5c0.3-1.2,0.5-2.4,0.8-3.5c0.4-1.5-0.1-2.9-0.2-4.4
			c-0.2-1.8-1.2-3-2.2-4.3c-0.4-0.6-0.8-1.1-0.6-1.8c0.2-1,1.2-1.5,2.2-1.2c0.5,0.1,0.8,0.4,1.1,0.8c1.4,1.4,2.4,3,2.9,5
			c0.4,1.6,0.8,3.2,0.6,4.9c0,0.1,0,0.1,0,0.2c0,1.5-0.2,3-0.6,4.5C94.7,34,94.8,34.3,94.5,34.4z"/>
		<path class="st56" d="M46.4,29.1c-0.3-2.9,0.5-5.5,1.9-7.9c0.5-0.9,1.2-1.9,2.1-2.5c0.6-0.5,1.5-0.5,2.1-0.1
			c0.7,0.4,0.8,1.1,0.7,1.8c0,0.4-0.3,0.7-0.5,1c-0.6,0.9-1.5,1.7-1.8,2.7c-0.5,0.5-0.5,1.3-0.7,2c-0.2,0.9-0.3,1.8-0.3,2.7
			c0,1.7,0.4,3.3,0.9,4.9c0,0.2,0,0.4,0,0.6c-1,0-1.9,0-2.9,0c-0.2,0-0.5,0.1-0.7,0.1c0-0.1-0.1-0.2-0.1-0.3
			C46.8,32.5,46.4,30.8,46.4,29.1z"/>
		<path class="st57" d="M50.7,34.3c0-0.2,0-0.4,0-0.6c0.1,0.2,0.5,0.3,0.6,0.6C51.1,34.3,50.9,34.3,50.7,34.3z"/>
		<path class="st57" d="M90.9,33.7c0,0.2,0,0.3,0.1,0.5c-0.1,0-0.3,0-0.4,0C90.6,34,90.6,33.7,90.9,33.7z"/>
		<path class="st57" d="M95.4,29.3c0-0.1,0-0.1,0-0.2C95.5,29.1,95.5,29.2,95.4,29.3z"/>
		<path class="st55" d="M18.5,65.4c0,1.3,0,2.7,0,4C18.4,68,18.3,66.7,18.5,65.4z"/>
		<path class="st55" d="M102.8,37.6c1.8-1.7,3.3-3.7,4.5-5.9c0.8-1.4,1.4-2.9,1.8-4.5c1.8,1.8,3.7,3.6,5.1,5.7
			c0.6,0.9,1.3,1.7,1.9,2.5c0.1,0.2,0.3,0.4,0.5,0.4c-0.2,0.3-0.4,0.5-0.7,0.7c-1,0.9-2.1,1.4-3.1,2.1c-1.8,1.2-3.8,2.1-6,2.6
			c-0.1,0-0.2,0.1-0.2,0.2C105.6,40.1,104.4,38.7,102.8,37.6z"/>
		<path class="st56" d="M106.8,41.6c0-0.1,0.1-0.2,0.2-0.2c2.2-0.5,4.1-1.4,6-2.6c1.1-0.7,2.2-1.3,3.1-2.1c0.2-0.2,0.5-0.4,0.7-0.7
			c0.8-0.7,1.5-1.5,2.1-2.4c1.5-1.8,2.4-3.9,2.6-6.3c0.1-1.1,0.9-1.8,1.9-1.9c0.9,0,1.7,0.7,1.7,1.7c0,1.8-0.4,3.5-1.1,5.1
			c-1.2,2.7-2.9,5-5.2,6.9c-0.1,0.1-0.1,0.2-0.2,0.2c-0.6,0.3-0.9,0.8-1.4,1.1c-2.6,1.9-5.5,3.1-8.4,4.3c-0.3-0.1-0.3-0.5-0.3-0.7
			C108,43,107.2,42.4,106.8,41.6z"/>
		<path class="st56" d="M35,41.4c-0.7,1.1-1.4,2.2-2.1,3.3c-0.3-0.1-0.5-0.3-0.8-0.4c-2-0.8-4-1.6-5.8-2.8c-0.5-0.3-0.9-0.8-1.5-0.9
			c-0.2-0.4-0.6-0.6-0.9-0.8c-2.2-1.6-4.1-3.5-5.4-6c-1.1-2-1.8-4-1.9-6.3c0-0.3,0-0.7,0.1-1c0.4-1,0.9-1.3,1.9-1.2
			c0.7,0.1,1.4,0.9,1.5,1.7c0.3,2.8,1.5,5.2,3.4,7.3c0.8,0.9,1.7,1.9,2.7,2.7c0.2,0.2,0.4,0.3,0.7,0.4c0.7,0.5,1.4,1,2.2,1.5
			C31,40,32.9,40.9,35,41.4z"/>
		<path class="st55" d="M108.7,44.7c2.9-1.2,5.9-2.4,8.4-4.3c0.5-0.4,0.8-0.8,1.4-1.1c0.7,0.9,1.1,2,1.7,3c0.9,1.5,1.4,3.2,2.2,4.7
			c0.1,0.2,0.3,0.5,0.4,0.7c-0.8,0.6-1.8,0.6-2.7,0.9c-2.9,0.7-5.9,1.1-8.9,1.1c-0.3,0-0.6-0.2-0.8,0c-0.4-0.4-0.3-1-0.4-1.5
			c-0.2-1.2-0.7-2.2-1.2-3.3C108.7,44.8,108.7,44.7,108.7,44.7z"/>
		<path class="st56" d="M36.3,26c-0.1,0.8,0.3,1.6,0.6,2.3c1.1,2.3,2.4,4.5,4.2,6.4c0.2,0.4,0.7,0.6,0.8,1.1
			c-0.5,0.5-1.2,0.8-1.8,1.1c-0.4,0.3-0.9,0.5-1.3,0.7c-0.5-0.7-1-1.3-1.5-2c-0.9-1.1-1.7-2.2-2.3-3.5c-0.5-1-1.2-1.9-1.5-3
			c0-0.1-0.1-0.1-0.2-0.2c-0.3-1.1-0.5-2.3-0.8-3.4c-0.4-1.5-0.1-3,0-4.5C32.5,20,33,19,33.4,18c0.3-1,1.3-1.5,2.3-1.2
			c0.9,0.3,1.4,1.3,1.1,2.3c-0.2,0.8-0.6,1.5-0.7,2.3c-0.1,1.4-0.4,2.8-0.1,4.1C36,25.7,36.1,25.9,36.3,26z"/>
		<path class="st57" d="M33.2,29c0.1,0.1,0.2,0.1,0.2,0.2c0.3,1.1,1,2,1.5,3c0.6,1.3,1.5,2.4,2.3,3.5c0.5,0.7,1,1.3,1.5,2
			c-0.9,0.8-1.8,1.7-2.7,2.5c-0.4,0.4-0.7,0.8-1.1,1.2c-2.1-0.5-4.1-1.4-5.9-2.5c-0.7-0.5-1.5-1-2.2-1.5c0.3-0.8,0.8-1.5,1.3-2.2
			c1.3-1.8,2.7-3.6,4.2-5.2C32.8,29.7,33,29.4,33.2,29z"/>
		<path class="st57" d="M24.9,40.6c0.6,0.1,1,0.6,1.5,0.9c1.8,1.2,3.8,2,5.8,2.8c0.3,0.1,0.5,0.2,0.8,0.4c-0.3,0.7-0.5,1.5-0.8,2.2
			c-0.4,0.9-0.4,1.8-0.7,2.7c-3.2,0-6.3-0.4-9.3-1c-0.1,0-0.3,0-0.4-0.2c0-0.9,0.5-1.6,0.8-2.4c0.5-1.4,1.2-2.8,1.8-4.1
			C24.5,41.4,24.8,41,24.9,40.6z"/>
		<path class="st55" d="M74.9,12.6c-0.8-0.1-1.6,0.1-2.4-0.1C73.3,12.5,74.1,12.4,74.9,12.6z"/>
		<path class="st55" d="M72.2,12.5c-0.1,0.1-0.2,0.1-0.4,0.1C72,12.4,72.1,12.4,72.2,12.5z"/>
		<path class="st55" d="M31.2,53.4c0,0-0.1,0-0.1-0.1c0,0,0.1,0,0.1,0C31.2,53.3,31.2,53.3,31.2,53.4z"/>
		<path class="st58" d="M49.8,42.9c6,0,10.8,5,10.8,11c0,6-5,10.9-11.1,10.8c-5.9-0.1-10.6-4.8-10.6-10.9
			C38.9,47.7,43.8,42.9,49.8,42.9z M56.7,49.6c0.4-0.8,0.6-1.7,0.1-2.6c-0.7-1.2-2.2-2.1-4.1-0.7c-0.1-0.2-0.2-0.3-0.4-0.3
			c-1.5-0.4-3.1-0.5-4.6-0.1c-2.8,0.7-4.7,2.6-5.8,5.1c-0.5,1.2-0.5,2.6-0.3,3.9c0.6,4.3,4.8,7.5,9.1,6.9c4.4-0.6,7.5-4.4,7.1-8.8
			C57.7,51.9,57.5,50.7,56.7,49.6z"/>
		<path class="st55" d="M41.9,35.8c-0.1-0.5-0.6-0.7-0.8-1.1c1-1.2,2-2.5,3-3.7c0.5-0.6,1.1-1.1,1.6-1.7c0.2-0.3,0.4-0.2,0.6-0.1
			c0.1,1.7,0.4,3.3,0.7,5c0,0.1,0.1,0.2,0.1,0.3c-1.7,0.2-3.3,0.6-4.8,1.3C42.2,35.8,42.1,35.9,41.9,35.8z"/>
		<path class="st55" d="M31.2,54c0-0.2,0-0.4,0-0.6C31.1,53.6,31.6,53.8,31.2,54z"/>
		<path class="st55" d="M31.2,54.6c-0.1-0.1-0.1-0.1,0-0.2C31.2,54.5,31.2,54.5,31.2,54.6z"/>
		<path class="st58" d="M92,64.7c-5.9,0-10.8-4.7-10.9-10.8c-0.1-6,4.8-11,10.8-11c6,0,10.8,4.7,10.9,10.6C103,59.8,98,64.7,92,64.7
			z M85,49.6c-0.2,0.1-0.3,0.3-0.4,0.5c-0.7,1.7-0.9,3.5-0.5,5.3c0.8,4.2,5,7.1,9.2,6.4c1.3-0.2,2.6-0.7,3.7-1.5
			c2.6-2.1,3.9-4.8,3.1-8.2c-0.7-3.1-2.6-5.1-5.5-6.1c-1.8-0.6-3.7-0.4-5.6,0.1c-0.2-0.1-0.3-0.1-0.5-0.2c-1.2-0.6-2.3-0.4-3.2,0.6
			C84.5,47.5,84.5,48.6,85,49.6z"/>
		<path class="st56" d="M56.7,49.6c0.8,1,1,2.2,1.1,3.5c0.4,4.4-2.8,8.2-7.1,8.8c-4.3,0.6-8.4-2.6-9.1-6.9c-0.2-1.4-0.2-2.7,0.3-3.9
			c1.1-2.6,2.9-4.5,5.8-5.1c1.5-0.4,3.1-0.3,4.6,0.1c0.2,0,0.3,0.1,0.4,0.3c-0.6,0.8-1,1.7-0.6,2.7c0.8,1.8,2.7,2.2,4.2,0.9
			C56.5,49.8,56.6,49.7,56.7,49.6z M49.6,56.8c1.6,0.1,3.2-1.4,3.1-3.1c-0.1-1.6-1.4-2.9-2.9-3c-2-0.1-3.2,1.6-3.2,2.9
			C46.6,55.4,48,56.8,49.6,56.8z"/>
		<path class="st3" d="M56.7,49.6c-0.1,0.1-0.2,0.2-0.3,0.3c-1.5,1.3-3.4,0.9-4.2-0.9c-0.4-1,0-1.9,0.6-2.7c1.9-1.4,3.4-0.5,4.1,0.7
			C57.3,47.9,57.1,48.8,56.7,49.6z"/>
		<path class="st56" d="M89,46.1c1.9-0.5,3.7-0.7,5.6-0.1c2.9,1,4.8,3,5.5,6.1c0.7,3.4-0.5,6.1-3.1,8.2c-1.1,0.8-2.3,1.3-3.7,1.5
			c-4.2,0.7-8.3-2.2-9.2-6.4c-0.4-1.8-0.2-3.6,0.5-5.3c0.1-0.2,0.2-0.4,0.4-0.5c0.1,0.1,0.2,0.2,0.4,0.3c0.9,1,2.6,1,3.5,0.1
			c1.1-1.1,1.2-2.4,0.1-3.6C89,46.4,89,46.3,89,46.1z M92.1,50.8c-1.7-0.3-3.1,1.6-3.2,3c0,1.7,1.5,3.1,3.2,3.1c1.7,0,3.2-1.4,3-3.3
			C95,52.1,94,50.7,92.1,50.8z"/>
		<path class="st3" d="M89,46.1c0,0.1,0,0.3,0.1,0.3c1,1.2,1,2.5-0.1,3.6C88,51,86.3,50.9,85.4,50c-0.1-0.1-0.2-0.2-0.4-0.3
			c-0.6-1.1-0.6-2.1,0.2-3.1c0.9-1,2-1.2,3.2-0.6C88.6,46,88.8,46.1,89,46.1z"/>
		<path class="st3" d="M49.6,56.8c-1.6,0-3-1.5-3-3.1c0-1.4,1.2-3,3.2-2.9c1.5,0.1,2.8,1.4,2.9,3C52.8,55.4,51.2,56.9,49.6,56.8z"/>
		<path class="st3" d="M92.1,50.8c1.8-0.1,2.9,1.3,3,2.7c0.2,1.9-1.3,3.3-3,3.3c-1.7,0-3.2-1.4-3.2-3.1C89,52.4,90.4,50.6,92.1,50.8
			z"/>
	</g>
</g>
</svg>
