<?xml version="1.0" encoding="utf-8"?>
<!-- Generator: Adobe Illustrator 27.3.1, SVG Export Plug-In . SVG Version: 6.00 Build 0)  -->
<svg version="1.1" id="Ebene_1" xmlns="http://www.w3.org/2000/svg" xmlns:xlink="http://www.w3.org/1999/xlink" x="0px" y="0px"
	 viewBox="0 0 141.7 141.7" style="enable-background:new 0 0 141.7 141.7;" xml:space="preserve">
<style type="text/css">
	.st0{fill:#F6BB37;}
	.st1{fill:#3684C6;}
	.st2{fill:#DCA12A;}
	.st3{fill:#FCFCFE;}
	.st4{fill:#E97E2F;}
	.st5{fill:#28273D;}
	.st6{fill:#7F65AA;}
	.st7{fill:#B49ECB;}
	.st8{fill:#66529D;}
	.st9{fill:#33314C;}
	.st10{fill:#35ACC6;}
	.st11{fill:#27263D;}
	.st12{fill:#DB191D;}
	.st13{fill:#42BEE1;}
	.st14{fill:#EE715E;}
	.st15{fill:#396CB3;}
	.st16{fill:#EA5B4C;}
	.st17{fill:#F2C551;}
	.st18{fill:#27273D;}
	.st19{fill:#B0CF6D;}
	.st20{fill:#28263D;}
	.st21{fill:#9E4A30;}
	.st22{fill:#DB1E1D;}
	.st23{fill:#FBFBFD;}
	.st24{fill:#A3C163;}
	.st25{fill:#3F426D;}
	.st26{fill:#33304C;}
	.st27{fill:#DB181D;}
	.st28{fill:#83C4ED;}
	.st29{fill:#B6622B;}
	.st30{fill:#AB795E;}
	.st31{fill:#88C7EE;}
	.st32{fill:#9BB7CC;}
	.st33{fill:#E97F31;}
	.st34{fill:#CD6F2C;}
	.st35{fill:#A8A4A6;}
	.st36{fill:#84C4EC;}
	.st37{fill:#FEFEFE;}
	.st38{fill:#D91F1D;}
	.st39{fill:#F29454;}
	.st40{fill:#3C86C6;}
	.st41{fill:#F8FAFD;}
	.st42{fill:#AD8ABF;}
	.st43{fill:#67529E;}
	.st44{fill:#F6D373;}
	.st45{fill:#29273D;}
	.st46{fill:#EE715D;}
	.st47{fill:#F9C6BD;}
	.st48{fill:#A65E3A;}
	.st49{fill:#F18B88;}
	.st50{fill:#82C2EC;}
	.st51{fill:#E28080;}
	.st52{fill:#D57474;}
	.st53{fill:#4F5173;}
	.st54{fill:#3785C6;}
	.st55{fill:#E84680;}
	.st56{fill:#28273E;}
	.st57{fill:#E13072;}
	.st58{fill:#F5BA37;}
	.st59{fill:#F3C651;}
	.st60{fill:#DB5144;}
	.st61{fill:#A17FB8;}
	.st62{fill:#AC8ABE;}
	.st63{fill:#342E4F;}
	.st64{fill:#2DAC64;}
	.st65{fill:#5CB993;}
	.st66{fill:#9DBA5C;}
	.st67{fill:#5AB992;}
	.st68{fill:#66529E;}
	.st69{fill:#EA5A4C;}
	.st70{fill:#12994E;}
	.st71{fill:#DE5044;}
	.st72{fill:#EE715F;}
	.st73{fill:#E97F2F;}
	.st74{fill:#A89AC9;}
	.st75{fill:#38B3CD;}
	.st76{fill:#DD3D78;}
	.st77{fill:#F5D373;}
	.st78{fill:#FDEAB4;}
	.st79{fill:#7F66AA;}
	.st80{fill:#3885C6;}
	.st81{fill:#40436D;}
	.st82{fill:#A99ACA;}
	.st83{fill:#34314B;}
	.st84{fill:#F4D273;}
	.st85{fill:#83C5ED;}
	.st86{fill:#D29C2C;}
	.st87{fill:#87C7EE;}
	.st88{fill:#F6BB38;}
	.st89{fill:#F6BB3A;}
	.st90{fill:#E83D69;}
	.st91{fill:#F4BC3F;}
	.st92{fill:#85C5EB;}
	.st93{fill:#DA1E1D;}
	.st94{fill:#DDA736;}
	.st95{fill:#F18D88;}
	.st96{fill:#FFFEFE;}
	.st97{fill:#F9C8BC;}
	.st98{fill:#3B85C6;}
</style>
<g id="DwrTd1.tif">
	<g>
		<path class="st3" d="M130.1,31.9c0-0.2,0.1-0.5,0.1-0.7c0.6-2.8,0.7-5.6,0.1-8.4c-0.4-2.2-1.2-4.2-2.2-6.2
			c-0.8-1.6-1.7-3.1-2.8-4.6c-0.6-0.8-1.3-0.8-1.8,0.1c-0.3,0.4-0.4,0.8-0.6,1.3c-0.6,1.1-1,2.2-1.7,3.3c-0.6,0.9-1.1,1.9-1.8,2.7
			c-0.5-0.2-0.8-0.7-1.2-1.1c-3.3-3-6.9-5.7-10.8-8c-2-1.2-3.9-2.3-6-3.3c-2.2-1-4.4-2-6.7-2.8c-2.4-0.9-4.9-1.6-7.3-2.2
			c-2.4-0.6-4.9-1-7.4-1.3C77.2,0.3,74.4,0,71.7,0c-2.2,0-4.4,0.1-6.6,0.3c-2.5,0.2-4.9,0.5-7.3,1C54.1,2,50.5,3,47.1,4.2
			c-3.2,1.1-6.3,2.5-9.3,4.1c-5.3,2.9-10.2,6.2-14.6,10.3c-0.3,0.2-0.5,0.6-1,0.6c-0.3-0.1-0.4-0.4-0.5-0.6
			c-0.8-1.2-1.7-2.4-2.2-3.8c-0.4-1-0.8-2.1-1.5-2.9c-0.5-0.5-1-0.7-1.5,0c-0.2,0.3-0.4,0.6-0.6,0.8c-1.2,1.6-2.3,3.4-3,5.3
			c-0.9,2.1-1.5,4.3-1.8,6.6c-0.2,1.6-0.2,3.2,0.1,4.8c0.2,1,0.3,2,0.5,3c-0.5,0.3-0.6,0.8-0.9,1.2c-1.8,3-3.5,6.1-4.8,9.3
			C5,44.9,4.2,47,3.5,49.1c-1.2,3.8-2.1,7.6-2.7,11.5c-0.4,2.6-0.6,5.2-0.8,7.8c-0.1,1.7,0,3.4,0,5.2c0,0.5,0.3,1.1,0,1.6
			c0.5,0.6,0.3,1.3,0.4,2c0.2,2.6,0.6,5.2,1.1,7.8c1.4,6.7,3.6,13.1,6.9,19.2c3.9,7.3,8.9,13.7,15,19.2c3,2.7,6.3,5.2,9.7,7.4
			c0.8,0.5,1.7,1.1,2.6,1.4c0.7,0.5,1.3,1,2.1,1.4c2.5,1.3,5.1,2.5,7.8,3.5c2.1,0.8,4.2,1.7,6.4,2.2c1.1,0.3,2.3,0.5,3.5,0.8
			c1.1,0.3,2.2,0.5,3.3,0.7c1.2,0.2,2.5,0.2,3.7,0.3c1,0.1,2.1,0.3,3.1,0.4c0.6,0.1,1.3,0.1,2,0.1c3.1-0.1,6.3,0.2,9.4-0.2
			c2-0.3,4-0.4,6-0.8c2.5-0.4,4.9-0.9,7.3-1.7c2.1-0.6,4.3-1.4,6.3-2.2c1.1-0.5,2.2-0.9,3.4-1.4c1.8-0.7,3.4-1.6,5.1-2.5
			c0.6-0.3,1.1-0.7,1.5-1.2c0.6,0,1-0.3,1.5-0.6c0.9-0.6,1.7-1.1,2.6-1.7c4.1-2.8,7.8-5.9,11.2-9.5c3.2-3.4,6.1-7,8.6-11
			c3.3-5.2,5.9-10.7,7.8-16.6c2-6.3,3.2-12.7,3.4-19.3c0.1-2.7,0-5.4-0.2-8c-0.1-1.6-0.4-3.1-0.6-4.7c-0.7-4.7-1.8-9.3-3.5-13.7
			c-1.7-4.7-3.9-9.1-6.5-13.3C130.6,32.9,130.1,32.5,130.1,31.9z"/>
		<path class="st64" d="M106.6,131.8c-0.5,0.5-1,0.9-1.5,1.2c-1.7,0.8-3.4,1.8-5.1,2.5c-1.1,0.5-2.3,0.9-3.4,1.4
			c-2.1,0.9-4.2,1.6-6.3,2.2c-2.4,0.7-4.8,1.2-7.3,1.7c-2,0.3-4,0.5-6,0.8c-3.1,0.4-6.3,0.1-9.4,0.2c-0.7,0-1.4,0-2-0.1
			c-1-0.2-2.1-0.3-3.1-0.4c-1.2-0.1-2.5-0.1-3.7-0.3c-1.1-0.2-2.2-0.5-3.3-0.7c-1.1-0.3-2.3-0.5-3.5-0.8c-2.2-0.5-4.3-1.4-6.4-2.2
			c-2.7-1-5.2-2.2-7.8-3.5c-0.8-0.4-1.4-0.9-2.1-1.4c-0.2-0.3-0.4-0.6-0.6-0.8c-1.8-1.7-3.6-3.5-5.3-5.4c-2.5-2.8-4.6-5.9-6.5-9.1
			c-1.8-3.1-3.3-6.4-4.7-9.7c-1.1-2.6-1.8-5.4-2.6-8.1c-0.5-1.6-0.8-3.2-1-4.8c-0.2-1.5-0.5-2.9-0.7-4.4c-0.2-1.7-0.4-3.4-0.4-5
			c0-2.8,0-5.6,0-8.4c0-1.3,0.4-2.6,0.4-3.9c0-0.4,0-0.9,0.1-1.3c0.2-1,0.3-1.9,0.5-2.9c0.2-1.6,0.6-3.2,1-4.7
			c0.3-1,0.6-2.1,0.9-3.1c0.4-1.6,1-3,1.6-4.5c0.4-1,0.8-2,1.3-3c0.8-2,1.8-3.8,2.8-5.7c1,0.4,1.8,1.1,2.9,1.4
			c1.1,0.3,2.3,0.5,3.4,0.7c1.1,0.1,2.1-0.3,3.1-0.6c1.2-0.3,2.2-0.9,3.2-1.7c1.8-1.4,3.1-3.2,3.8-5.4c0.4-1.6,0.6-3.2,0.3-4.9
			c-0.5-2.2-1.6-4.1-3.2-5.7c-0.2-0.2-0.4-0.3-0.4-0.6c3.5-3.3,7.4-5.8,11.5-8.1c1.4,3.3,2.7,6.7,4.1,10c0.4,0.9,0.7,1.9,1.1,2.8
			c0.2,0.4,0.4,1,0.4,1.5c0,0.3-0.3,0.4-0.4,0.6c-1.3,1.1-2.5,2.4-3.7,3.7c-1.2,1.3-2,2.8-2.9,4.2c-1.6,2.4-2.5,5-3.2,7.8
			c-0.4,1.6-0.5,3.2-0.7,4.7c-0.1,0.8-0.1,1.6-0.1,2.4c0,1.7,0.1,3.4,0.4,5.1c0.3,1.7,0.7,3.4,1.4,5c0.4,1,0.8,2.1,1.3,3
			c1.1,2.3,2.6,4.3,4.2,6.3c1.9,2.2,4.1,4,6.5,5.6c1.9,1.2,4,2.3,6.2,3c0.9,0.3,1.8,0.6,2.7,0.8c2.8,0.7,5.6,1,8.5,0.8l0,0l0,0
			c0.8-0.1,1.5-0.1,2.3-0.2c2.8-0.4,5.6-1.1,8.2-2.3c2-0.9,3.8-1.9,5.5-3.2c2.8-2.1,5.2-4.6,7.1-7.4c0.6-0.9,1.2-1.9,1.7-2.9
			c1.5-2.8,2.5-5.8,2.9-9c0.3-2.5,0.4-5,0.2-7.6c-0.2-2.1-0.6-4.2-1.2-6.2c-0.7-2.1-1.5-4.1-2.7-5.9c-1-1.5-2-3-3.2-4.3
			c-1.1-1.1-2.1-2.5-3.5-3.4c-0.3-0.2-0.7-0.5-0.9-0.9c0.5-1.2,0.9-2.4,1.4-3.5c1.3-3.1,2.5-6.2,3.7-9.4c0.2-0.5,0.3-0.9,0.7-1.2
			c0.5,0.5,1.2,0.8,1.8,1.2c1.4,0.8,2.8,1.6,4.1,2.5c2,1.4,3.8,3.1,5.8,4.5c0,0.1-0.1,0.2-0.2,0.3c-1.1,1-1.9,2.2-2.6,3.6
			c-0.5,1.1-0.9,2.2-1,3.3c-0.1,2.3,0.3,4.6,1.6,6.6c2,3.1,4.8,4.8,8.4,5c2.1,0.2,4.1-0.6,5.8-1.7c0.4-0.2,0.7-0.5,1.2-0.5
			c0,0.3,0.1,0.5,0.2,0.7c1.4,2.5,2.5,5.1,3.5,7.8c1.1,3,2.1,6.1,2.8,9.3c0.5,2.2,0.9,4.5,1.3,6.7c0.2,1.5,0.4,2.9,0.6,4.4
			c0.2,1.7,0,3.5,0.1,5.2c0,1.1-0.1,2.3-0.1,3.4c0,0.8-0.2,1.6-0.2,2.5c0,0.8-0.1,1.5-0.2,2.3c-0.2,1.1-0.3,2.1-0.5,3.2
			c-0.2,0.8-0.2,1.7-0.3,2.5c-0.4,2.7-1.3,5.3-2,7.9c-0.5,2-1.4,3.8-2,5.7c-0.6,1.8-1.5,3.5-2.3,5.3c-1.1,2.3-2.6,4.5-4,6.7
			c-1.2,1.8-2.5,3.5-3.9,5.2c-1,1.2-2,2.5-3.2,3.6C108.3,129.9,107.3,130.8,106.6,131.8z M54.6,95.4c-0.1-0.1-0.1-0.1-0.2,0
			c-0.7,0-1.4,0.2-2.1,0.2c-1,0-1.9,0.2-2.8,0.5c-0.8,0.3-1.9-0.1-2.5,0.8c0,0-0.1,0-0.2,0.1c-0.8,0.2-1.4,0.7-2,1.1
			c-1.1,0.7-2,1.7-3,2.6c-0.5,0.5-1.1,0.9-1.4,1.5c-0.2,0.2-0.4,0.4-0.5,0.7c-0.3,0.5-0.5,1-0.8,1.4c-0.4,0.6-0.8,1.2-1.1,1.8
			c-0.8,2.1-1.2,4.2-1.3,6.4c-0.1,2.4,0.4,4.6,1.1,6.8c0.5,1.5,1.4,2.9,2.2,4.2c0.9,1.3,1.8,2.7,3.2,3.5c0.7,0.4,1.3,1,1.9,1.5
			c1.4,0.7,2.8,1.5,4.4,1.9c1.5,0.4,3,0.7,4.5,0.7c6.1,0,12.1,0,18.2,0c5.6,0,11.2,0.1,16.8-0.1c1.8-0.1,3.4-0.6,5.1-1.1
			c1-0.3,1.9-1,2.8-1.5c0.7-0.1,1.1-0.7,1.6-1.1c1-0.8,1.9-1.6,2.7-2.6c1.1-1.3,2.1-2.8,2.8-4.4c0.9-2.1,1.4-4.3,1.5-6.6
			c0.1-1.1-0.1-2.2-0.2-3.3c-0.3-1.8-0.7-3.6-1.6-5.3c-0.3-0.4-0.6-0.9-0.7-1.4c-0.2-0.7-0.8-1.1-1.3-1.6c0.1-0.2,0.1-0.4-0.2-0.6
			c-0.4-0.3-0.7-0.7-1-1c-0.5-0.5-0.9-1.2-1.5-1.5c-1.5-0.8-2.7-2-4.3-2.4c-1-0.3-1.9-0.7-2.9-0.9c-1.9-0.3-3.7-0.6-5.6-0.6
			C75.8,95.5,65.2,95.4,54.6,95.4z"/>
		<path class="st50" d="M46.8,22.2c-4.1,2.3-8.1,4.9-11.5,8.1c-0.3,0-0.5-0.1-0.7-0.2c-2.4-1.6-4.9-2.9-7.1-4.8
			c-1.6-1.4-3-3-4.4-4.6c-0.4-0.4-0.8-0.8-0.9-1.4c0.4,0,0.7-0.3,1-0.6c4.4-4.1,9.3-7.5,14.6-10.3c3-1.6,6.1-3,9.3-4.1
			c3.5-1.2,7-2.2,10.6-2.9c2.4-0.5,4.9-0.8,7.3-1C67.2,0.1,69.4,0,71.7,0c2.8,0,5.5,0.3,8.2,0.6c2.5,0.3,5,0.8,7.4,1.3
			c2.5,0.6,4.9,1.3,7.3,2.2c2.3,0.8,4.5,1.7,6.7,2.8c2.1,1,4.1,2.1,6,3.3c3.9,2.3,7.5,5,10.8,8c0.4,0.4,0.7,0.9,1.2,1.1
			c0,0.1-0.1,0.2-0.1,0.3c-0.5,0.8-1.2,1.3-1.7,2.1c-0.8,1.2-1.8,2.2-2.9,3.1c-1.4,1.2-3,2.3-4.6,3.3c-1.2,0.7-2.3,1.6-3.6,2.1
			c-2-1.4-3.8-3.1-5.8-4.5c-1.3-0.9-2.7-1.7-4.1-2.5c-0.6-0.3-1.3-0.7-1.8-1.2c-0.1-0.4,0-0.7,0.2-1c0.6-1.2,1.1-2.5,1.5-3.9
			c0.3-0.9-0.3-1.6-1.2-1.6c-0.6,0-1.2,0.4-1.5,1.1c-0.5,1.4-1,2.8-1.6,4.1c-2-0.7-3.8-1.6-5.9-2.1c-0.9-0.2-1.8-0.6-2.6-0.8
			c0-1.8,0.7-3.4,0.8-5.2c0-0.9,0.4-1.7,0.3-2.6c0-0.6-0.5-1.1-1.1-1.1c-0.6,0-1.2,0.4-1.3,0.9c-0.1,0.9-0.3,1.8-0.4,2.7
			c-0.1,0.6-0.3,1.1-0.3,1.7c-0.1,1-0.3,2-0.5,3c-0.8-0.2-1.6-0.3-2.5-0.4c-1.6-0.2-3.1-0.6-4.7-0.6c-0.5,0-1.1,0-1.6-0.2
			c0-0.2,0-0.4,0-0.6c-0.1-2.3,0.1-4.7-0.1-7c0-0.5-0.7-1.1-1.2-1c-0.8,0-1.2,0.4-1.3,1.3c0,2.2,0,4.3,0,6.5c0,0.3-0.1,0.6-0.3,0.8
			c-0.5,0.1-0.9,0.2-1.4,0.2c-2,0-4,0.4-6,0.7c-0.6,0.1-1.2,0.4-1.8,0.3c-0.2-0.7-0.3-1.5-0.4-2.3c-0.2-1.1-0.4-2.3-0.6-3.4
			c-0.1-0.6-0.2-1.1-0.4-1.7c-0.2-0.6-0.7-1-1.2-1c-0.6,0-0.9,0.5-1.2,0.9c-0.3,0.5,0,1.1,0,1.5c0.1,0.8,0.3,1.5,0.5,2.3
			c0.2,0.9,0.2,1.8,0.5,2.7c0.1,0.5,0.3,1,0,1.5c-1.4,0.4-2.8,0.8-4.1,1.3c-1.4,0.5-2.8,1.1-4.1,1.7c-0.4-0.9-0.7-1.7-1.1-2.6
			c-0.4-0.8-0.6-1.7-1.2-2.4c-0.4-0.5-1-0.5-1.5-0.4c-0.5,0.1-0.6,0.6-0.6,1.1c0,0.6,0.3,1,0.4,1.5c0.3,0.8,0.8,1.5,0.9,2.4
			C46.2,21.1,46.5,21.7,46.8,22.2z"/>
		<path class="st50" d="M22.2,47c-1,1.9-2,3.7-2.8,5.7c-0.4,1-0.9,2-1.3,3c-0.6,1.5-1.2,3-1.6,4.5c-0.3,1-0.6,2.1-0.9,3.1
			c-0.4,1.6-0.8,3.1-1,4.7c-0.1,1-0.2,2-0.5,2.9c-0.1,0.4-0.1,0.9-0.1,1.3c0,1.3-0.4,2.6-0.4,3.9c0,2.8,0,5.6,0,8.4
			c0,1.7,0.2,3.4,0.4,5c0.1,1.5,0.5,2.9,0.7,4.4c0.2,1.6,0.5,3.3,1,4.8c0.8,2.7,1.6,5.5,2.6,8.1c1.4,3.3,2.9,6.6,4.7,9.7
			c1.9,3.2,4,6.3,6.5,9.1c1.7,1.9,3.5,3.7,5.3,5.4c0.3,0.2,0.5,0.5,0.6,0.8c-1-0.3-1.8-0.9-2.6-1.4c-3.4-2.2-6.7-4.7-9.7-7.4
			c-6.1-5.5-11.1-12-15-19.2c-3.2-6-5.5-12.4-6.9-19.2c-0.5-2.6-0.9-5.1-1.1-7.8c-0.1-0.7,0.2-1.4-0.4-2c0.4-0.5,0-1.1,0-1.6
			c0-1.7-0.1-3.5,0-5.2c0.2-2.6,0.4-5.2,0.8-7.8c0.6-3.9,1.5-7.7,2.7-11.5C4.2,47,5,44.9,5.9,42.9c1.4-3.2,3-6.3,4.8-9.3
			c0.3-0.4,0.4-0.9,0.9-1.2c0.1,0.2,0.2,0.4,0.2,0.5c0.3,1.2,0.8,2.3,1.4,3.3c1.1,1.8,2.1,3.7,3.6,5.3c1.3,1.5,2.7,2.9,4.2,4.2
			C21.5,46,21.9,46.5,22.2,47z"/>
		<path class="st50" d="M106.6,131.8c0.8-1,1.7-1.9,2.7-2.7c1.2-1.1,2.2-2.3,3.2-3.6c1.4-1.7,2.7-3.4,3.9-5.2c1.4-2.2,2.9-4.3,4-6.7
			c0.8-1.7,1.7-3.4,2.3-5.3c0.6-1.9,1.5-3.8,2-5.7c0.7-2.6,1.7-5.2,2-7.9c0.1-0.8,0.1-1.7,0.3-2.5c0.2-1.1,0.3-2.1,0.5-3.2
			c0.1-0.8,0.2-1.5,0.2-2.3c0-0.8,0.2-1.7,0.2-2.5c0-1.1,0.1-2.3,0.1-3.4c-0.1-1.7,0.1-3.5-0.1-5.2c-0.1-1.5-0.3-2.9-0.6-4.4
			c-0.4-2.2-0.7-4.5-1.3-6.7c-0.8-3.1-1.7-6.2-2.8-9.3c-1-2.7-2.1-5.3-3.5-7.8c-0.1-0.2-0.2-0.4-0.2-0.7c0-0.3,0.2-0.4,0.4-0.6
			c1.4-1.3,2.8-2.5,4.1-4c1.7-2,3.1-4.1,4.4-6.4c0.7-1.2,1.1-2.6,1.6-4c0,0.6,0.5,1,0.8,1.4c2.6,4.2,4.8,8.7,6.5,13.3
			c1.6,4.5,2.8,9,3.5,13.7c0.2,1.6,0.5,3.1,0.6,4.7c0.2,2.7,0.3,5.3,0.2,8c-0.2,6.6-1.4,13-3.4,19.3c-1.9,5.9-4.5,11.4-7.8,16.6
			c-2.5,3.9-5.4,7.6-8.6,11c-3.4,3.6-7.2,6.7-11.2,9.5c-0.9,0.6-1.7,1.2-2.6,1.7C107.6,131.5,107.1,131.8,106.6,131.8z"/>
		<path class="st73" d="M22.2,47c-0.3-0.5-0.8-1-1.2-1.4c-1.5-1.3-2.9-2.7-4.2-4.2c-1.5-1.6-2.5-3.4-3.6-5.3c-0.6-1-1.1-2.1-1.4-3.3
			c0-0.2-0.2-0.4-0.2-0.5c-0.2-1-0.3-2-0.5-3c-0.3-1.6-0.3-3.2-0.1-4.8c0.2-2.3,0.9-4.5,1.8-6.6c0.8-1.9,1.8-3.7,3-5.3
			c0.2-0.3,0.4-0.6,0.6-0.8c0.5-0.7,1.1-0.5,1.5,0c0.7,0.8,1.1,1.9,1.5,2.9c0.5,1.4,1.4,2.6,2.2,3.8c0.1,0.2,0.2,0.5,0.5,0.6
			c0.1,0.6,0.6,1,0.9,1.4c1.4,1.6,2.8,3.2,4.4,4.6c2.2,1.9,4.7,3.2,7.1,4.8c0.2,0.1,0.4,0.2,0.7,0.2c0,0.3,0.2,0.4,0.4,0.6
			c1.5,1.6,2.7,3.5,3.2,5.7c0.4,1.6,0.1,3.3-0.3,4.9c-0.6,2.2-2,4-3.8,5.4c-1,0.7-2,1.3-3.2,1.7c-1,0.3-2.1,0.7-3.1,0.6
			c-1.1-0.1-2.3-0.4-3.4-0.7C24,48.1,23.2,47.4,22.2,47z"/>
		<path class="st73" d="M130.1,31.9c-0.5,1.3-0.9,2.7-1.6,4c-1.3,2.3-2.7,4.4-4.4,6.4c-1.3,1.4-2.8,2.6-4.1,4
			c-0.2,0.2-0.4,0.3-0.4,0.6c-0.5,0-0.8,0.3-1.2,0.5c-1.8,1.1-3.7,1.9-5.8,1.7c-3.6-0.3-6.5-1.9-8.4-5c-1.3-2-1.7-4.3-1.6-6.6
			c0.1-1.1,0.5-2.3,1-3.3c0.7-1.4,1.5-2.6,2.6-3.6c0.1-0.1,0.2-0.2,0.2-0.3c1.3-0.5,2.4-1.4,3.6-2.1c1.6-1,3.2-2,4.6-3.3
			c1.1-0.9,2.1-1.9,2.9-3.1c0.5-0.7,1.2-1.3,1.7-2.1c0.1-0.1,0.1-0.2,0.1-0.3c0.7-0.9,1.2-1.8,1.8-2.7c0.7-1,1.1-2.2,1.7-3.3
			c0.2-0.4,0.3-0.9,0.6-1.3c0.5-0.8,1.2-0.9,1.8-0.1c1.1,1.4,2,3,2.8,4.6c1,2,1.8,4.1,2.2,6.2c0.5,2.8,0.5,5.6-0.1,8.4
			C130.2,31.4,130.2,31.7,130.1,31.9z"/>
		<path class="st3" d="M88.9,36.2c0.2,0.4,0.5,0.7,0.9,0.9c1.4,0.9,2.3,2.2,3.5,3.4c1.3,1.3,2.2,2.8,3.2,4.3c1.2,1.8,2,3.8,2.7,5.9
			c0.6,2,1,4.1,1.2,6.2c0.2,2.5,0.1,5-0.2,7.6c-0.4,3.2-1.5,6.2-2.9,9c-0.5,1-1.1,1.9-1.7,2.9c-2,2.9-4.3,5.4-7.1,7.4
			c-1.7,1.3-3.6,2.3-5.5,3.2c-2.6,1.2-5.3,1.9-8.2,2.3c-0.8,0.1-1.5,0.1-2.3,0.2c0,0,0,0-0.1,0c-2.9,0.2-5.7-0.2-8.5-0.8
			c-0.9-0.2-1.8-0.6-2.7-0.8c-2.2-0.7-4.3-1.7-6.2-3c-2.4-1.5-4.6-3.4-6.5-5.6c-1.6-2-3.1-4-4.2-6.3c-0.5-1-0.9-2-1.3-3
			c-0.7-1.6-1.1-3.3-1.4-5c-0.3-1.7-0.4-3.4-0.4-5.1c0-0.8,0-1.6,0.1-2.4c0.2-1.6,0.3-3.2,0.7-4.7c0.7-2.7,1.7-5.4,3.2-7.8
			c0.9-1.4,1.8-2.9,2.9-4.2c1.2-1.3,2.4-2.5,3.7-3.7c0.2-0.2,0.4-0.3,0.4-0.6c0.1,0,0.2,0,0.4-0.1c0.6-0.5,1.2-1,1.8-1.4
			c0.2,0,0.4-0.2,0.5-0.3c1.6-1.1,3.3-1.9,5.1-2.6c0.7-0.4,1.5-0.4,2.2-0.8c0.2,0,0.4,0.1,0.6,0c1.9-0.6,3.9-0.9,5.9-1
			c0.3,0,0.7,0,1-0.1c0.7,0,1.4,0,2.1,0c0.2,0.2,0.4,0.1,0.6,0.1c1,0,1.9,0.1,2.9,0.3c1.1,0.1,2.1,0.6,3.2,0.7
			c0.8,0.1,1.5,0.5,2.3,0.6c0.1,0.2,0.3,0.3,0.4,0.3c0.7,0.1,1.3,0.4,1.9,0.7c1,0.5,2.1,1,3.1,1.6C87.4,35.2,88.1,35.7,88.9,36.2z
			 M53.5,60.6c-0.1,1.4,0,2.8,0.2,4.1c0.1,1,0.5,2.1,0.9,3c1.2,3.1,3.1,5.7,5.8,7.8c2.6,2,5.6,3.2,8.8,3.5c4.3,0.4,8.2-0.7,11.8-3.1
			c2.7-1.8,4.6-4.4,5.9-7.3c1.1-2.5,1.5-5.1,1.4-7.8c-0.1-3.5-1.1-6.7-3.2-9.4c-4.4-5.7-10.2-8.1-17.4-6.9c-2.8,0.4-5.2,1.6-7.4,3.3
			c-1.9,1.5-3.6,3.3-4.7,5.5c-1.2,2.3-1.9,4.7-2.1,7.2c0,0,0,0,0,0C53.5,60.5,53.5,60.5,53.5,60.6z"/>
		<path class="st11" d="M45.3,128.7c-0.6-0.5-1.2-1.1-1.9-1.5c-1.5-0.8-2.4-2.2-3.2-3.5c-0.8-1.3-1.7-2.6-2.2-4.2
			c-0.7-2.2-1.2-4.5-1.1-6.8c0.1-2.2,0.5-4.4,1.3-6.4c0.3-0.6,0.6-1.3,1.1-1.8c0.3-0.4,0.5-1,0.8-1.4c0.1-0.2,0.3-0.5,0.5-0.7
			c0.3,0.2,0.7,0.4,1,0.7c0.9,0.8,1.9,1.7,2.9,2.5c1.5,1.1,2.8,2.4,4.3,3.5c1,0.8,1.9,1.8,3,2.4c1.2,0.7,3.1,0.2,3.7-1.1
			c0.4-0.8,0.7-1.6,1.1-2.4c0.5-0.8,0.9-1.7,1.3-2.6c0.2-0.4,0.4-0.9,0.8-1.1c1-0.6,2.2-0.4,3.1,0.4c0.7,0.6,1.3,1.3,2,1.9
			c0.9,0.9,1.9,1.7,2.9,2.5c0.9,0.8,1.6,1.7,2.5,2.4c1.4,1.2,2.4,1.3,3.6,0.3c0.7-0.6,1.3-1.2,2-1.8c1.1-1.1,2.3-2.1,3.5-3.2
			c0.8-0.8,1.6-1.7,2.6-2.4c1.3-0.9,2.9-0.6,3.7,0.7c0.2,0.2,0.3,0.5,0.4,0.8c0.8,1.7,1.6,3.4,2.6,5c0.5,0.9,1.7,1.2,2.7,0.8
			c0.6-0.3,1.2-0.7,1.7-1.1c1.4-1.2,2.8-2.3,4.2-3.4c1.9-1.6,3.8-3.2,5.8-4.7c0.5,0.5,1,0.9,1.3,1.6c0.2,0.5,0.5,0.9,0.7,1.4
			c0.9,1.6,1.3,3.4,1.6,5.3c0.2,1.1,0.3,2.2,0.2,3.3c-0.1,2.3-0.6,4.5-1.5,6.6c-0.7,1.6-1.7,3-2.8,4.4c-0.8,1-1.7,1.8-2.7,2.6
			c-0.5,0.4-0.9,1-1.6,1.1c-0.5-0.4-1-0.6-1.6-0.9c-2.6-1-5.3-2-8.1-2.6c-4.3-1-8.7-1.7-13.1-1.8c-2.6-0.1-5.3,0-7.9,0.1
			c-2,0.1-4,0.3-6,0.6c-4.8,0.6-9.3,2-13.7,3.8C46.3,128.1,45.7,128.2,45.3,128.7z"/>
		<path class="st3" d="M101.9,102.4c-2,1.5-3.9,3.1-5.8,4.7c-1.4,1.1-2.8,2.2-4.2,3.4c-0.5,0.5-1.1,0.9-1.7,1.1
			c-0.9,0.4-2.1,0.1-2.7-0.8c-1-1.6-1.7-3.3-2.6-5c-0.1-0.3-0.3-0.5-0.4-0.8c-0.8-1.3-2.4-1.6-3.7-0.7c-1,0.7-1.7,1.6-2.6,2.4
			c-1.1,1.1-2.3,2.1-3.5,3.2c-0.6,0.6-1.3,1.2-2,1.8c-1.1,1-2.1,0.9-3.6-0.3c-0.9-0.8-1.7-1.6-2.5-2.4c-0.9-0.9-1.9-1.7-2.9-2.5
			c-0.7-0.6-1.3-1.3-2-1.9c-0.9-0.8-2.1-0.9-3.1-0.4c-0.4,0.2-0.6,0.7-0.8,1.1c-0.5,0.8-0.8,1.7-1.3,2.6c-0.5,0.8-0.8,1.6-1.1,2.4
			c-0.6,1.3-2.5,1.9-3.7,1.1c-1.1-0.7-2-1.7-3-2.4c-1.5-1.1-2.8-2.4-4.3-3.5c-1-0.7-1.9-1.6-2.9-2.5c-0.3-0.3-0.7-0.5-1-0.7
			c0.3-0.6,0.9-1,1.4-1.5c0.9-0.9,1.9-1.9,3-2.6c0.6-0.4,1.2-0.9,2-1.1c0.1,0,0.1,0,0.2-0.1c0.6-0.9,1.7-0.5,2.5-0.8
			c0.9-0.3,1.8-0.5,2.8-0.5c0.7,0,1.4-0.2,2.1-0.2c0.1,0,0.1,0,0.2,0c10.6,0,21.2,0,31.8,0c1.9,0,3.8,0.3,5.6,0.6
			c1,0.2,1.9,0.7,2.9,0.9c1.6,0.4,2.8,1.6,4.3,2.4c0.6,0.3,1,1,1.5,1.5c0.3,0.4,0.7,0.7,1,1C102,102.1,102,102.2,101.9,102.4z"/>
		<path class="st73" d="M45.3,128.7c0.4-0.5,1-0.6,1.5-0.8c4.4-1.8,9-3.2,13.7-3.8c2-0.2,4-0.5,6-0.6c2.6-0.1,5.3-0.1,7.9-0.1
			c4.4,0.1,8.8,0.8,13.1,1.8c2.8,0.6,5.4,1.6,8.1,2.6c0.6,0.2,1.1,0.5,1.6,0.9c-0.9,0.5-1.8,1.3-2.8,1.5c-1.7,0.4-3.4,1-5.1,1.1
			c-5.6,0.3-11.2,0.1-16.8,0.1c-6.1,0-12.1,0-18.2,0c-1.5,0-3-0.4-4.5-0.7C48.1,130.2,46.7,129.4,45.3,128.7z"/>
		<path class="st11" d="M88.9,36.2c-0.8-0.5-1.5-1.1-2.3-1.6c1.1-2.6,2.2-5.3,3.2-7.9c0.8-2,1.6-4,2.4-6c0.6-1.3,1.1-2.7,1.6-4.1
			c0.3-0.7,0.8-1.1,1.5-1.1c0.9,0,1.4,0.7,1.2,1.6c-0.4,1.3-0.9,2.6-1.5,3.9c-0.2,0.3-0.2,0.7-0.2,1c-0.4,0.3-0.6,0.8-0.7,1.2
			c-1.2,3.2-2.4,6.3-3.7,9.4C89.8,33.8,89.4,35,88.9,36.2z"/>
		<path class="st11" d="M54.7,35.1c-0.7,0.4-1.3,0.9-1.8,1.4c-0.1,0.1-0.2,0.1-0.4,0.1c0-0.5-0.2-1.1-0.4-1.5
			c-0.5-0.9-0.7-1.9-1.1-2.8c-1.4-3.4-2.7-6.7-4.1-10c-0.3-0.5-0.6-1.1-0.7-1.6c-0.1-0.9-0.6-1.6-0.9-2.4c-0.2-0.5-0.4-1-0.4-1.5
			c0-0.5,0.1-1,0.6-1.1c0.5-0.1,1.1-0.2,1.5,0.4c0.6,0.7,0.8,1.6,1.2,2.4c0.4,0.8,0.7,1.7,1.1,2.6c0.4,1.2,0.9,2.4,1.4,3.5
			c1.1,2.7,2.2,5.4,3.2,8.1C54.1,33.4,54.6,34.2,54.7,35.1z"/>
		<path class="st50" d="M54.6,95.4c-0.1,0-0.1,0-0.2,0C54.5,95.4,54.6,95.4,54.6,95.4z"/>
		<path class="st50" d="M72.4,89.5C72.4,89.5,72.4,89.5,72.4,89.5C72.4,89.5,72.4,89.5,72.4,89.5L72.4,89.5z"/>
		<path class="st64" d="M70,30.3c-0.3,0.2-0.7,0.1-1,0.1c-2,0.1-4,0.4-5.9,1c-0.2,0.1-0.4,0-0.6,0c-0.1-0.7-0.1-1.4-0.3-2.1
			c-0.4-2.2-0.8-4.4-1.1-6.7c-0.2-1-0.3-2-0.4-3.1c-0.1-0.8-0.3-1.6-0.4-2.3c0.6,0.1,1.2-0.2,1.8-0.3c2-0.3,4-0.7,6-0.7
			c0.5,0,0.9-0.1,1.4-0.2c0.4,0.1,0.2,0.4,0.2,0.6c0,4.3,0,8.6,0,12.9C69.6,29.9,69.6,30.1,70,30.3z"/>
		<path class="st64" d="M78.9,31.4c-1.1-0.2-2.1-0.6-3.2-0.7c-1-0.1-1.9-0.2-2.9-0.3c-0.2,0-0.4,0.1-0.6-0.1
			c0.1-0.2,0.1-0.5,0.1-0.7c0-4.5,0-9,0-13.5c0.5,0.2,1.1,0.2,1.6,0.2c1.6,0,3.2,0.4,4.7,0.6c0.8,0.1,1.6,0.2,2.5,0.4
			c-0.1,0.8-0.2,1.5-0.3,2.3c-0.6,3.3-1.1,6.6-1.7,9.9C79,30.1,78.6,30.7,78.9,31.4z"/>
		<path class="st64" d="M92.2,20.8c-0.8,2-1.6,4-2.4,6c-1.1,2.6-2.1,5.3-3.2,7.9c-1-0.5-2-1.1-3.1-1.6c-0.6-0.3-1.2-0.6-1.9-0.7
			c-0.2,0-0.3-0.1-0.4-0.3c0.4-1.4,0.4-2.9,0.7-4.3c0.5-2.3,0.7-4.5,1.2-6.8c0.2-1,0.2-2.1,0.6-3c0.9,0.3,1.7,0.6,2.6,0.8
			C88.4,19.2,90.2,20.1,92.2,20.8z"/>
		<path class="st64" d="M54.7,35.1c-0.1-0.9-0.5-1.7-0.8-2.5c-1.1-2.7-2.1-5.4-3.2-8.1c-0.5-1.2-1-2.3-1.4-3.5
			c1.4-0.6,2.7-1.2,4.1-1.7c1.3-0.5,2.7-0.9,4.1-1.3c0.4,0.6,0.4,1.2,0.5,1.9c0.6,3.6,1.2,7.3,1.8,10.9c0.1,0.5,0,1,0.4,1.4
			c-1.8,0.8-3.5,1.6-5.1,2.6C55,34.9,54.9,35.1,54.7,35.1z"/>
		<path class="st11" d="M72.3,16c0,4.5,0,9,0,13.5c0,0.2,0,0.5-0.1,0.7c-0.7,0-1.4,0-2.1,0c-0.3-0.1-0.3-0.4-0.3-0.7
			c0-4.3,0-8.6,0-12.9c0-0.2,0.2-0.6-0.2-0.6c0.2-0.2,0.3-0.5,0.3-0.8c0-2.2,0-4.3,0-6.5c0-0.9,0.4-1.3,1.3-1.3c0.5,0,1.2,0.6,1.2,1
			c0.1,2.3,0,4.7,0.1,7C72.2,15.6,72.2,15.8,72.3,16z"/>
		<path class="st11" d="M60.3,32.2c-0.4-0.4-0.4-0.9-0.4-1.4c-0.6-3.6-1.2-7.3-1.8-10.9c-0.1-0.6-0.2-1.3-0.5-1.9
			c0.3-0.5,0.1-1,0-1.5c-0.2-0.9-0.3-1.8-0.5-2.7c-0.2-0.8-0.4-1.6-0.5-2.3c-0.1-0.5-0.3-1,0-1.5C56.8,9.4,57,9,57.6,9
			c0.5,0,1,0.3,1.2,1c0.2,0.5,0.3,1.1,0.4,1.7c0.2,1.1,0.4,2.3,0.6,3.4c0.1,0.8,0.2,1.5,0.4,2.3c0.1,0.8,0.3,1.6,0.4,2.3
			c0.1,1,0.3,2,0.4,3.1c0.4,2.2,0.7,4.4,1.1,6.7c0.1,0.7,0.2,1.4,0.3,2.1C61.8,31.8,61,31.8,60.3,32.2z"/>
		<path class="st11" d="M83.7,17.8c-0.4,1-0.4,2-0.6,3c-0.4,2.3-0.7,4.6-1.2,6.8c-0.3,1.4-0.4,2.9-0.7,4.3c-0.8-0.1-1.5-0.6-2.3-0.6
			c-0.2-0.7,0.1-1.3,0.2-1.9c0.5-3.3,1.1-6.6,1.7-9.9c0.1-0.8,0.2-1.5,0.3-2.3c0.2-1,0.5-2,0.5-3c0-0.6,0.2-1.1,0.3-1.7
			c0.1-0.9,0.3-1.8,0.4-2.7C82.4,9.4,83,9,83.6,9c0.6,0,1.1,0.5,1.1,1.1c0.1,0.9-0.3,1.7-0.3,2.6C84.4,14.4,83.7,16.1,83.7,17.8z"/>
		<path class="st54" d="M53.5,60.4c0.2-2.6,0.9-4.9,2.1-7.2c1.1-2.2,2.8-4.1,4.7-5.5c2.2-1.7,4.6-2.9,7.4-3.3
			c7.2-1.1,13,1.3,17.4,6.9c2.1,2.7,3.1,5.9,3.2,9.4c0.1,2.7-0.3,5.3-1.4,7.8c-1.3,2.9-3.2,5.5-5.9,7.3c-3.6,2.4-7.5,3.6-11.8,3.1
			c-3.3-0.3-6.2-1.5-8.8-3.5c-2.7-2-4.6-4.7-5.8-7.8c-0.4-1-0.7-2-0.9-3c-0.2-1.4-0.3-2.7-0.2-4.1C53.5,60.5,53.5,60.5,53.5,60.4z
			 M82.1,54.8c0-0.2,0.1-0.4,0.2-0.6c1.2-2.7-0.8-5.8-3.8-5.7c-1,0-1.8,0.5-2.6,1c-0.1-0.1-0.2-0.2-0.3-0.2
			c-0.7-0.2-1.4-0.3-2.1-0.5c-1.5-0.3-3.1-0.5-4.6-0.2c-3.6,0.7-6.5,2.4-8.7,5.4c-2.1,3-2.9,6.4-2.2,10c0.3,1.9,1.1,3.7,2.3,5.2
			c2.4,3.3,5.7,5.1,9.7,5.3c3.8,0.2,7.2-1,10-3.8c3.3-3.3,4.4-7.2,3.6-11.8C83.3,57.5,82.8,56.1,82.1,54.8z"/>
		<path class="st50" d="M53.5,60.4c0,0.1,0,0.1,0,0.2C53.5,60.5,53.5,60.5,53.5,60.4C53.5,60.4,53.5,60.4,53.5,60.4z"/>
		<path class="st11" d="M82.1,54.8c0.7,1.3,1.2,2.7,1.5,4.2c0.8,4.5-0.4,8.5-3.6,11.8c-2.7,2.8-6.1,4-10,3.8c-4-0.3-7.3-2.1-9.7-5.3
			c-1.2-1.6-2-3.3-2.3-5.2c-0.7-3.6,0.1-7,2.2-10c2.1-3,5.1-4.7,8.7-5.4c1.5-0.3,3.1-0.2,4.6,0.2c0.7,0.2,1.4,0.3,2.1,0.5
			c0.2,0,0.3,0.1,0.3,0.2c-1.1,1.3-1.9,2.7-1.1,4.5c1.1,2.7,4.6,3.3,6.5,1.5C81.6,55.2,81.7,54.9,82.1,54.8z M65.8,61.6
			c0,2.7,2.1,4.9,4.8,4.8c3,0,5-2,5-4.9c0-2.8-2.1-4.9-4.9-4.9C68.2,56.6,65.8,58.6,65.8,61.6z"/>
		<path class="st3" d="M82.1,54.8c-0.4,0.1-0.5,0.4-0.7,0.6c-2,1.8-5.4,1.3-6.5-1.5c-0.8-1.8,0-3.2,1.1-4.5c0.8-0.5,1.6-1,2.6-1
			c3,0,5,3,3.8,5.7C82.1,54.4,82,54.6,82.1,54.8z"/>
		<path class="st3" d="M65.8,61.6c0-2.9,2.3-4.9,4.9-5c2.8,0,4.9,2.1,4.9,4.9c0,2.9-2.1,4.9-5,4.9C68,66.4,65.9,64.2,65.8,61.6z"/>
	</g>
</g>
</svg>
