<?xml version="1.0" encoding="utf-8"?>
<!-- Generator: Adobe Illustrator 27.3.1, SVG Export Plug-In . SVG Version: 6.00 Build 0)  -->
<svg version="1.1" id="Ebene_1" xmlns="http://www.w3.org/2000/svg" xmlns:xlink="http://www.w3.org/1999/xlink" x="0px" y="0px"
	 viewBox="0 0 141.7 141.7" style="enable-background:new 0 0 141.7 141.7;" xml:space="preserve">
<style type="text/css">
	.st0{fill:#F6BB37;}
	.st1{fill:#3684C6;}
	.st2{fill:#DCA12A;}
	.st3{fill:#FCFCFE;}
	.st4{fill:#E97E2F;}
	.st5{fill:#28273D;}
	.st6{fill:#7F65AA;}
	.st7{fill:#B49ECB;}
	.st8{fill:#66529D;}
	.st9{fill:#33314C;}
	.st10{fill:#35ACC6;}
	.st11{fill:#27263D;}
	.st12{fill:#DB191D;}
	.st13{fill:#42BEE1;}
	.st14{fill:#EE715E;}
	.st15{fill:#396CB3;}
	.st16{fill:#EA5B4C;}
	.st17{fill:#F2C551;}
	.st18{fill:#27273D;}
	.st19{fill:#B0CF6D;}
	.st20{fill:#28263D;}
	.st21{fill:#9E4A30;}
	.st22{fill:#DB1E1D;}
	.st23{fill:#FBFBFD;}
	.st24{fill:#A3C163;}
	.st25{fill:#3F426D;}
	.st26{fill:#33304C;}
	.st27{fill:#DB181D;}
	.st28{fill:#83C4ED;}
	.st29{fill:#B6622B;}
	.st30{fill:#AB795E;}
	.st31{fill:#88C7EE;}
	.st32{fill:#9BB7CC;}
	.st33{fill:#E97F31;}
	.st34{fill:#CD6F2C;}
	.st35{fill:#A8A4A6;}
	.st36{fill:#84C4EC;}
	.st37{fill:#FEFEFE;}
	.st38{fill:#D91F1D;}
	.st39{fill:#F29454;}
	.st40{fill:#3C86C6;}
	.st41{fill:#F8FAFD;}
	.st42{fill:#AD8ABF;}
	.st43{fill:#67529E;}
	.st44{fill:#F6D373;}
	.st45{fill:#29273D;}
	.st46{fill:#EE715D;}
	.st47{fill:#F9C6BD;}
	.st48{fill:#A65E3A;}
	.st49{fill:#F18B88;}
	.st50{fill:#82C2EC;}
	.st51{fill:#E28080;}
	.st52{fill:#D57474;}
	.st53{fill:#4F5173;}
	.st54{fill:#3785C6;}
	.st55{fill:#E84680;}
	.st56{fill:#28273E;}
	.st57{fill:#E13072;}
	.st58{fill:#F5BA37;}
	.st59{fill:#F3C651;}
	.st60{fill:#DB5144;}
	.st61{fill:#A17FB8;}
	.st62{fill:#AC8ABE;}
	.st63{fill:#342E4F;}
	.st64{fill:#2DAC64;}
	.st65{fill:#5CB993;}
	.st66{fill:#9DBA5C;}
	.st67{fill:#5AB992;}
	.st68{fill:#66529E;}
	.st69{fill:#EA5A4C;}
	.st70{fill:#12994E;}
	.st71{fill:#DE5044;}
	.st72{fill:#EE715F;}
	.st73{fill:#E97F2F;}
	.st74{fill:#A89AC9;}
	.st75{fill:#38B3CD;}
	.st76{fill:#DD3D78;}
	.st77{fill:#F5D373;}
	.st78{fill:#FDEAB4;}
	.st79{fill:#7F66AA;}
	.st80{fill:#3885C6;}
	.st81{fill:#40436D;}
	.st82{fill:#A99ACA;}
	.st83{fill:#34314B;}
	.st84{fill:#F4D273;}
	.st85{fill:#83C5ED;}
	.st86{fill:#D29C2C;}
	.st87{fill:#87C7EE;}
	.st88{fill:#F6BB38;}
	.st89{fill:#F6BB3A;}
	.st90{fill:#E83D69;}
	.st91{fill:#F4BC3F;}
	.st92{fill:#85C5EB;}
	.st93{fill:#DA1E1D;}
	.st94{fill:#DDA736;}
	.st95{fill:#F18D88;}
	.st96{fill:#FFFEFE;}
	.st97{fill:#F9C8BC;}
	.st98{fill:#3B85C6;}
</style>
<g id="WIvo9M.tif">
	<g>
		<path class="st11" d="M47.2,137.6c-7-2.5-13.5-6.1-19.4-10.5c-3.5-2.6-6.6-5.6-9.5-8.8c-5.2-5.7-9.3-12.2-12.4-19.2
			c-1-2.3-1.9-4.7-2.7-7.1c-0.6-2-1.2-4-1.6-6.1c-0.5-2.3-0.8-4.7-1.2-7.1C0,75.3,0,71.8,0,68.3c0-2,0.3-4,0.5-5.9
			c0.3-2.6,0.8-5.1,1.4-7.6c0.5-2.3,1.2-4.6,2-6.8c1.3-3.8,2.8-7.5,4.7-11c2.4-4.4,5.2-8.5,8.5-12.3c1.4-1.6,2.9-3.2,4.4-4.8
			c1.3-1.4,2.8-2.5,4.2-3.8c1.1-1,2.4-1.8,3.5-2.7c1.2-0.9,2.5-1.8,3.8-2.6c1.3-0.7,2.5-1.5,3.8-2.3c2-1.1,4-2,6.1-2.8
			c3.8-1.5,7.7-2.9,11.7-3.8c2.2-0.5,4.3-0.9,6.5-1.2c2.2-0.3,4.4-0.5,6.7-0.6c1.9-0.1,3.7-0.1,5.6,0c1,0.1,2,0,2.9,0.1
			c1,0.2,2.1,0.2,3.1,0.3c1,0.2,2,0.3,2.9,0.4c1.5,0.2,2.9,0.5,4.4,0.9c1.5,0.4,3,0.8,4.5,1.2c1.7,0.5,3.4,1.1,5.1,1.7
			c1.7,0.6,3.3,1.4,4.9,2.1c1.3,0.6,2.6,1.1,3.8,1.9c1.1,0.7,2.2,1.3,3.2,2c1.2,0.9,2.4,1.6,3.6,2.4c1.3,0.9,2.5,1.9,3.7,2.9
			c1.1,0.9,2.1,1.8,3.1,2.7c0.8,0.8,1.9,1.5,2.6,2.4c0.7,0.9,1.5,1.9,2.4,2.7c1.2,1.2,2.2,2.5,3.2,3.8c2.3,3.1,4.4,6.3,6.2,9.7
			c1.6,3,3,6.1,4.1,9.4c0.6,1.8,1.2,3.5,1.7,5.3c0.6,2.2,1,4.5,1.5,6.8c0.3,1.5,0.5,3,0.7,4.5c0.1,0.7,0.1,1.4,0.1,2.1
			c0.2,1.8,0.2,3.6,0.2,5.4c0,2.2-0.2,4.3-0.3,6.5c-0.1,1.7-0.3,3.4-0.6,5c-0.6,3.1-1.2,6.1-2.2,9.1c-0.4,1.2-0.6,2.4-1.1,3.5
			c-1.1,2.9-2.3,5.7-3.8,8.5c-1.6,3.2-3.6,6.1-5.6,9.1c-0.8,1.1-1.7,2.1-2.6,3.2c-1,1.3-2.1,2.4-3.2,3.6c-0.8,0.8-1.5,1.7-2.4,2.5
			c-1.2,1-2.3,2.2-3.5,3.2c-2,1.6-4.1,3.2-6.2,4.7c-5,3.3-10.3,6-15.9,8c-0.1-2.1-0.1-4.3-0.1-6.4c0-0.3,0.2-0.3,0.5-0.4
			c0.9-0.2,1.7-0.4,2.5-0.7c1-0.5,2.1-0.9,3.1-1.4c0.9-0.4,1.9-0.7,2.8-1.3c0.8-0.5,1.8-0.7,2.7-1.3c1.6-1.2,3.3-2.2,4.8-3.5
			c3.1-2.6,5.1-5.8,6.5-9.5c0.8-2.2,1.2-4.6,1.2-7c0-1.1-0.1-2.2-0.2-3.3c-0.2-1.5-0.4-2.9-1-4.3c-0.4-0.9-0.7-1.8-1.1-2.7
			c-0.4-0.9-0.7-1.9-1-2.8c-0.4-1.1-0.7-2.1-1-3.2c-0.5-1.5-0.6-3.1-1-4.6c-0.2-0.8-0.1-1.7-0.2-2.5c0-0.1,0-0.1,0-0.2
			c0-0.1,0-0.3,0-0.4l0,0l0,0c-0.1-0.6,0-1.2,0.1-1.8l0,0c0-0.6,0.1-1.3,0.1-1.9c0-0.4,0-0.9,0.1-1.1c0.5-1,0.5-2.2,0.9-3.2
			c1.3,0.3,2.6,0.7,4,0.8c1.5,0,2.9,0,4.4-0.4c1.1-0.3,2.2-0.5,3.2-1.1c0.4-0.2,0.9-0.4,1.3-0.7c0.7-0.5,1.4-1.1,1.9-1.7
			c1-1.1,2-2.2,2.6-3.5c0.8-1.6,1.3-3.3,1.6-5c0.4-2.5-0.1-4.9-1-7.2c-1.3-3.1-3.4-5.4-6.4-7c-2.8-1.4-5.7-2-8.8-1.5
			c-2.4,0.4-4.6,1.4-6.5,2.9c-2.7,2.2-4.4,5-5.1,8.3c-0.4,1.7-0.2,3.4,0,5.1c0.1,0.8,0.2,1.6,0.5,2.3c0.4,1.2,1.2,2.2,1.7,3.3
			c-0.2,0.1-0.4,0.3-0.4,0.6c-0.4,0.9-0.8,1.8-1.1,2.8c-0.4,1.4-0.7,2.9-0.9,4.4c-0.2,1.6-0.4,3.2-0.4,4.8c0,0.9,0.1,1.8,0.1,2.7
			c0,0.7,0.1,1.5,0.2,2.2c0.2,1.8,0.7,3.7,1.1,5.5c0.6,2.5,1.5,4.9,2.4,7.3c0.6,1.7,1.4,3.4,1.6,5.3c0.2,1.7,0.1,3.3-0.3,4.9
			c-0.6,2.6-2.1,4.7-3.9,6.6c-0.8,0.8-1.8,1.6-2.7,2.3c-1.2,1-2.6,1.6-3.9,2.3c-1.4,0.7-3,1-4.4,1.8c-0.4,0.2-0.5,0-0.6-0.4
			c-0.2-1.8-0.4-3.7-1.1-5.4c-0.4-1-0.9-1.9-1.1-2.9c-0.1-0.5-0.4-1.1-0.7-1.4c-0.7-0.8-1.1-1.8-1.9-2.5c-1-1-2-1.9-2.8-3
			c-0.4-0.5-1.1-0.7-1.6-1.2c-0.3-0.3-0.9-0.4-0.8-1.1c0.3-1.6,1-3,1.3-4.5c0.1-0.7,0.6-1.3,0.7-2c0.2-0.9,0.9-1.7,1.2-2.6
			c0.4-1,1-2,1.5-2.9c0.7-1.1,1.5-2.2,2.2-3.3c1.1-1.7,2.5-3.2,3.6-4.9c0.8-1.1,1.5-2.3,2.2-3.4c0.8-1.2,1.3-2.5,2-3.8
			c1.4-2.7,2.7-5.4,3.5-8.3c0.5-1.8,1-3.7,1.2-5.6c0.2-1.6,0.4-3.2,0.5-4.8l0,0c0-0.4,0-0.8-0.1-1.2c0,0,0,0,0,0c0,0,0-0.1,0-0.1
			c-0.1-0.8-0.2-1.7-0.2-2.5c-0.1-1.3-0.3-2.6-0.6-3.9c1.9-0.7,3.6-1.8,5.1-3.1c1.2-1,2-2.4,2.7-3.7c0.5-0.9,0.8-1.9,1.1-2.9
			c0.9-3.2,0.6-6.4-0.7-9.3c-1-2.2-2.3-4.3-4.5-5.6c-1-0.6-1.9-1.3-2.9-1.7c-0.9-0.4-2-0.6-3-0.8c-1.5-0.3-3-0.4-4.4-0.1
			c-1.9,0.3-3.7,0.9-5.4,1.9c-1.5,1-3,2.1-4.1,3.7c-1.2,1.7-2.1,3.6-2.5,5.7c-0.6,2.8-0.2,5.5,0.8,8.1c0.9,2.4,2.5,4.2,4.4,5.8
			c0.8,0.6,1.7,1.2,2.6,1.6c0.7,0.3,1.5,0.4,2.1,0.9c0,0.5,0.1,1,0.3,1.3c0.6,1.4,0.8,2.9,0.9,4.3c0.1,1.9-0.1,3.9-0.4,5.8
			c-0.5,3.3-1.7,6.3-3,9.4c-0.8,1.8-1.9,3.4-2.9,5.2c-1.1,2-2.6,3.8-4,5.7c-1,1.4-2.1,2.7-3,4.2c-1.9,3.2-3.8,6.5-5.2,10.1
			c-0.5,1.3-0.9,2.7-1.1,4.1c-0.1,0.4-0.3,0.3-0.5,0.3c-0.3,0-0.7,0.1-0.7-0.5c0-3,0-6.1-0.2-9.1c-0.1-2.4-0.2-4.7-0.2-7.1
			c0-0.1,0-0.1,0-0.2c-0.2-1.8-0.3-3.5-0.5-5.3c-0.1-0.8,0-1.6-0.1-2.4c-0.5-3-1.1-6.1-1.8-9.1c-0.4-1.9-1.1-3.8-1.3-5.7
			c0-0.6-0.4-1.3-0.3-1.9c0.3-1.5,0.5-3,1-4.4c0.6-1.4,1.3-2.8,2.2-4c1.4-2,2.7-4.1,3.7-6.3c0.5-1,0.7-2,1.1-3
			c0.5-1.3,0.7-2.7,0.9-4c0.2-1.4,0-2.8-0.2-4.2c-0.1-1-0.2-2-0.7-2.8c0-0.2,0-0.4,0.3-0.5c0.9-0.3,1.4-1,2-1.6
			c1.3-1.3,2.3-2.8,3-4.4c1.1-2.3,1.3-4.8,1-7.3c-0.3-3.1-1.6-5.7-3.7-7.9c-2.1-2.3-4.8-3.6-7.8-4.2c-2.9-0.6-5.6-0.1-8.3,1
			c-0.9,0.4-1.7,0.9-2.5,1.5c-1,0.7-2,1.4-2.7,2.5c-0.2,0.3-0.4,0.6-0.7,0.9c-1.3,1.7-2.1,3.7-2.3,5.8c-0.2,2.1-0.3,4.2,0.5,6.4
			c1,3,2.7,5.5,5.3,7.3c1.6,1.2,3.5,2,5.5,2.4c0.7,0.2,1.5,0,2.1,0.4c0.4,0.4,0.5,1,0.6,1.5c0.1,0.6,0.3,1.3,0.3,1.8
			c-0.1,0.9-0.2,1.8-0.5,2.7c-0.5,2.1-1.3,4.1-2.6,5.8c-1.7,2.3-3.3,4.7-4.3,7.3c-0.8,1.9-1.4,3.9-1.5,6c-0.2,2.8,0.4,5.6,0.9,8.3
			c0.2,0.9,0.4,1.7,0.6,2.6c0.7,2.8,1.2,5.7,1.7,8.5c0.4,2.4,0.5,4.7,0.7,7.1c0.1,2.6,0.4,5.2,0.3,7.8c-0.1,2.2-0.1,4.5-0.1,6.7
			c0,0.5,0.2,1.2-0.1,1.6c-0.3,0.4-1,0.3-1.5,0.4c-0.7,0.1-0.9,0.1-1-0.6c-0.2-1.2-0.6-2.4-1-3.6c-0.8-2.5-2.1-4.9-3.3-7.3
			c-1.1-2.1-2.5-4.1-3.9-6c-1.6-2.1-3.2-4.2-4.6-6.5c-0.5-0.9-1.1-1.7-1.6-2.6c-0.3-0.5-0.5-1.1-0.8-1.7c-1.1-2-2-4-2.7-6.2
			c-0.9-2.7-1.5-5.4-1.6-8.2c0-1.6-0.1-3.2,0.3-4.8c0.2-1.1,0.6-2.1,0.9-3.1c0.2-0.1,0.5-0.2,0.7-0.3c0.6-0.1,1.3-0.2,1.9-0.5
			c1.1-0.6,2.1-1.1,3.1-1.9c2.5-2,4.2-4.5,5.1-7.6c0.7-2.7,0.7-5.3-0.2-7.9c-1.5-4.8-4.8-7.7-9.5-9.2c-2.2-0.7-4.4-0.9-6.7-0.3
			c-2.7,0.7-5.1,1.8-7.1,3.8c-3.6,3.7-5,8.2-3.8,13.2c0.8,3.5,2.8,6.3,5.8,8.4c0.7,0.5,1.5,0.8,2.1,1.4c-0.1,0.4-0.2,0.7-0.3,1.1
			c-0.6,2.5-0.7,5.1-0.6,7.7c0.1,1.4-0.2,3,0.5,4.3c-0.2,0.7,0,1.3,0.2,2c0.3,1.3,0.7,2.6,1.1,3.8c0.2,0.8,0.5,1.6,0.9,2.4
			c1.1,2.8,2.5,5.5,4,8.1c1.3,2.4,3,4.6,4.6,6.8c0.5,0.7,1.1,1.4,1.6,2.1c1.2,1.7,2.3,3.5,3.4,5.2c0.7,1.1,1.3,2.2,1.7,3.4
			c0.9,2.6,1.7,5.2,2.2,7.9c0.1,0.5,0,0.7-0.4,1c-1.5,1-2.6,2.5-3.7,3.9c-1,1.4-2,2.8-2.7,4.4c-0.4,1-0.9,2-1.2,3.1
			c-0.4,1.7-0.7,3.4-0.9,5.1c0,0.4-0.2,0.4-0.5,0.3c-0.6-0.2-1.1-0.4-1.7-0.6c-2.6-0.7-5-1.8-7.3-3.3c-1.5-1-3.1-2-4.3-3.3
			c-1.2-1.3-2.4-2.6-3-4.3c-0.5-1.4-0.9-2.9-1.1-4.4c-0.2-2.5,0.4-4.9,1.4-7.1c1.1-2.6,2.2-5.2,2.7-7.9c0.3-1.4,0.7-2.7,0.9-4.1
			c0.2-1,0.4-2,0.4-3c0.1-0.8,0.2-1.6,0.1-2.5c0.1,0,0.2,0,0.2-0.2c0-0.1-0.1-0.1-0.2-0.1c0-0.5,0-0.9,0-1.4c-0.1-1.3-0.3-2.7-0.4-4
			c-0.1-1.9-0.5-3.7-1.2-5.5c-0.3-0.9-0.7-1.8-1.1-2.8c0-0.2-0.3-0.2-0.1-0.4c0-0.1,0-0.2,0.1-0.2c0.8-1.4,1.6-2.8,1.9-4.4
			c0.3-1.7,0.6-3.4,0.3-5.1c-0.3-2.2-1.1-4.3-2.4-6.1c-2.1-2.9-4.9-5-8.5-5.8c-3.5-0.8-6.7-0.3-9.8,1.3c-1.9,1-3.4,2.3-4.7,4
			c-1,1.4-1.8,2.8-2.3,4.5c-0.6,2-0.7,4.1-0.4,6.1c0.2,1.6,0.6,3.3,1.5,4.7c1.1,1.7,2.3,3.3,4,4.5c3.5,2.5,7.3,3.5,11.5,2.5
			c0.6-0.2,1.3-0.4,2-0.4c0.6,2,1,4,1.2,6.1c0.1,1.5,0,2.9-0.1,4.3c-0.3,4.1-1.4,8-2.9,11.7c-0.7,1.8-1.5,3.5-1.9,5.4
			c-0.4,2.2-0.9,4.4-0.5,6.7c0.1,0.6,0,1.2,0.2,1.8c0.4,1.7,0.8,3.4,1.5,5c1.3,3,3.2,5.7,5.6,7.9c1.8,1.6,3.7,3.1,5.8,4.2
			c0.8,0.5,1.7,0.8,2.5,1.3c1.2,0.6,2.5,1.1,3.8,1.6c1.1,0.5,2.1,0.9,3.3,1.2c0.9,0.2,1.8,0.7,2.7,0.7c0.4,0,0.5,0.2,0.5,0.6
			C47.2,133.8,47.2,135.7,47.2,137.6z"/>
		<path class="st77" d="M112.8,82.8c0.1,0.8,0,1.7,0.2,2.5c0.4,1.5,0.6,3.1,1,4.6c0.3,1.1,0.7,2.1,1,3.2c0.3,0.9,0.7,1.9,1,2.8
			c0.3,0.9,0.7,1.8,1.1,2.7c0.6,1.3,0.8,2.8,1,4.3c0.1,1.1,0.2,2.2,0.2,3.3c0.1,2.4-0.3,4.8-1.2,7c-1.4,3.7-3.4,6.9-6.5,9.5
			c-1.5,1.3-3.2,2.3-4.8,3.5c-0.8,0.6-1.8,0.8-2.7,1.3c-0.9,0.5-1.9,0.8-2.8,1.3c-1,0.5-2.1,0.9-3.1,1.4c-0.8,0.4-1.7,0.5-2.5,0.7
			c-0.2,0.1-0.4,0.1-0.5,0.4c0,2.1-0.1,4.3,0.1,6.4c-0.7,0.5-1.5,0.6-2.2,0.9c-0.5,0.2-1.1,0.3-1.6,0.4c-1.7,0.5-3.4,1-5.2,1.3
			c-0.5,0.1-0.9,0.4-1.4,0.4c-0.1-0.1-0.2-0.1-0.2-0.1c0.5-0.1,0.3-0.4,0.3-0.7c0-3.5,0.1-6.9,0-10.4c0-1.7-0.2-3.4-1-5
			c-0.1-0.1,0-0.3,0-0.4c0.4,0.2,0.7,0,1.1,0c2.2-0.1,3.7-1.4,4.2-3.9c0.2-0.8,0.2-1.7,0.1-2.5c-0.1-1.2,0-2.3,0-3.5
			c0-0.9-0.5-1.4-1.3-1.5c-2.2-0.2-4.3-0.1-6.5-0.1c-1.2,0-1.7,0.6-1.8,1.8c0,0.2,0,0.5,0,0.7c0,1.1,0,2.2,0,3.3
			c-0.3,0-0.4-0.2-0.6-0.3c-0.8-0.6-1.7-1.2-2.7-1.4c-0.2-0.8-0.1-1.7-0.1-2.5c0-1-0.4-1.5-1.4-1.6c-2.2-0.2-4.5-0.1-6.7-0.1
			c-1.1,0-1.5,0.6-1.5,1.7c0,0.8,0,1.5,0,2.3c-0.9,0.5-1.9,0.9-2.8,1.5c-0.2,0.1-0.3,0.3-0.5,0.2c0-1.2,0-2.5,0-3.7
			c0-1.2-0.5-1.9-1.7-1.9c-2.1-0.1-4.3-0.2-6.4,0c-1.3,0.1-1.6,0.5-1.6,1.9c0,0.7,0,1.5,0,2.2c-0.3,0.1-0.3,0.3,0,0.4
			c0,0.5,0,1.1-0.1,1.6c-0.4,0.2-0.2,0.4,0.1,0.5c0.1,0.4,0.1,0.8,0.2,1.1c0.3,1.4,1.1,2.5,2.5,3.2c0.9,0.5,1.9,0.5,2.9,0.5
			c0,0.1,0,0.2,0,0.3c-0.6,1.5-1.1,3-1.1,4.6c0,3.4,0,6.8,0,10.2c0,0.2,0,0.4,0,0.6c-0.1,0.4,0,0.5,0.4,0.6c0.9,0.3,1.9,0.3,2.9,0.5
			c2.3,0.4,4.7,0.8,7,0.7c0.4,0,0.9,0,1.3,0.2c-2,0-4.1,0-6.1-0.4c-1.4-0.2-2.8-0.4-4.2-0.6c-0.6-0.1-1.3-0.2-1.9-0.5c0,0,0,0,0,0
			c0,0,0,0-0.1,0c-0.8-0.2-1.5-0.5-2.3-0.4c-0.7-0.1-1.3-0.2-2-0.5c-1-0.4-2-0.8-3.1-1c-0.7-0.2-1.4-0.1-2-0.7c0-1.9,0-3.8,0-5.7
			c0-0.4-0.1-0.6-0.5-0.6c-0.9-0.1-1.8-0.5-2.7-0.7c-1.1-0.3-2.2-0.7-3.3-1.2c-1.3-0.6-2.6-1-3.8-1.6c-0.8-0.4-1.7-0.8-2.5-1.3
			c-2.1-1.2-4-2.6-5.8-4.2c-2.5-2.2-4.3-4.8-5.6-7.9c-0.7-1.6-1.1-3.3-1.5-5c-0.1-0.6-0.1-1.2-0.2-1.8c-0.3-2.3,0.1-4.5,0.5-6.7
			c0.3-1.9,1.2-3.6,1.9-5.4c1.5-3.8,2.7-7.7,2.9-11.7c0.1-1.4,0.2-2.9,0.1-4.3c-0.2-2.1-0.6-4.1-1.2-6.1c0.1-0.2,0.3-0.3,0.5-0.4
			c2.3-0.8,4.1-2.3,5.6-4.2c0,0,0,0,0.1-0.1l0,0c0.3-0.1,0.5-0.3,0.8-0.3c0.4,0.9,0.7,1.8,1.1,2.8c0.7,1.8,1.1,3.6,1.2,5.5
			c0.1,1.3,0.3,2.7,0.4,4c0,0.4,0,0.9,0,1.4c0,0.1,0,0.2,0,0.3c0.1,0.8-0.1,1.7-0.1,2.5c-0.1,1-0.3,2-0.4,3
			c-0.2,1.4-0.6,2.7-0.9,4.1c-0.6,2.8-1.6,5.3-2.7,7.9c-1,2.2-1.6,4.6-1.4,7.1c0.1,1.5,0.5,3,1.1,4.4c0.6,1.7,1.9,3,3,4.3
			c1.2,1.3,2.8,2.3,4.3,3.3c2.3,1.4,4.7,2.5,7.3,3.3c0.6,0.2,1.1,0.4,1.7,0.6c0.3,0.1,0.5,0.1,0.5-0.3c0.2-1.7,0.5-3.4,0.9-5.1
			c0.2-1.1,0.8-2.1,1.2-3.1c0.7-1.6,1.7-3,2.7-4.4c1.1-1.5,2.2-2.9,3.7-3.9c0.3-0.2,0.5-0.5,0.4-1c-0.5-2.7-1.2-5.3-2.2-7.9
			c-0.4-1.2-1.1-2.3-1.7-3.4c-1.1-1.8-2.1-3.6-3.4-5.2c-0.5-0.7-1.1-1.4-1.6-2.1c-1.6-2.2-3.3-4.4-4.6-6.8c-1.4-2.6-2.8-5.3-4-8.1
			c-0.3-0.8-0.6-1.6-0.9-2.4c-0.4-1.3-0.8-2.5-1.1-3.8c-0.1-0.7-0.4-1.3-0.2-2c-0.7-1.4-0.5-2.9-0.5-4.3c-0.1-2.6,0-5.2,0.6-7.7
			c0.1-0.4,0.2-0.7,0.3-1.1c0.3-0.1,0.7,0,1,0.1c1.3,0.5,2.6,0.7,3.9,0.9c0.7,0.2,1.4,0.2,2.1,0c0.5-0.1,1-0.3,1.5-0.1
			c-0.3,1-0.7,2.1-0.9,3.1c-0.3,1.6-0.3,3.2-0.3,4.8c0,2.8,0.7,5.5,1.6,8.2c0.7,2.1,1.6,4.2,2.7,6.2c0.3,0.5,0.5,1.2,0.8,1.7
			c0.5,0.9,1.1,1.7,1.6,2.6c1.4,2.3,3.1,4.3,4.6,6.5c1.4,1.9,2.8,3.9,3.9,6c1.2,2.4,2.5,4.7,3.3,7.3c0.4,1.2,0.8,2.4,1,3.6
			c0.1,0.7,0.3,0.8,1,0.6c0.5-0.1,1.2,0,1.5-0.4c0.3-0.4,0.1-1.1,0.1-1.6c0.1-2.2,0-4.5,0.1-6.7c0.2-2.6-0.1-5.2-0.3-7.8
			c-0.1-2.4-0.3-4.8-0.7-7.1c-0.5-2.9-1-5.7-1.7-8.5c-0.2-0.9-0.5-1.7-0.6-2.6c-0.6-2.7-1.1-5.5-0.9-8.3c0.1-2.1,0.7-4.1,1.5-6
			c1.1-2.7,2.6-5,4.3-7.3c1.3-1.8,2.1-3.7,2.6-5.8c0.2-0.9,0.4-1.8,0.5-2.7c0.1-0.6-0.1-1.2-0.3-1.8c-0.1-0.5-0.2-1.1-0.6-1.5
			c0-0.3,0.3-0.2,0.5-0.2c2.5,0.1,4.9-0.7,7.1-1.8c0.2-0.1,0.4-0.2,0.6-0.1c0.5,0.9,0.6,1.9,0.7,2.8c0.2,1.4,0.4,2.9,0.2,4.2
			c-0.2,1.3-0.4,2.7-0.9,4c-0.3,1-0.6,2.1-1.1,3c-1,2.2-2.3,4.3-3.7,6.3c-0.8,1.2-1.6,2.6-2.2,4c-0.6,1.4-0.8,2.9-1,4.4
			C70.6,60.4,71,61,71,61.7c0.1,2,0.8,3.8,1.3,5.7c0.7,3,1.3,6,1.8,9.1c0.1,0.8,0.1,1.6,0.1,2.4c0.2,1.8,0.3,3.5,0.5,5.3
			c0,0.1,0,0.1,0,0.2c0,2.4,0,4.7,0.2,7.1c0.2,3,0.2,6.1,0.2,9.1c0,0.6,0.4,0.5,0.7,0.5c0.2,0,0.5,0.1,0.5-0.3
			c0.2-1.4,0.6-2.8,1.1-4.1c1.3-3.6,3.2-6.8,5.2-10.1c0.9-1.5,2-2.8,3-4.2c1.3-1.9,2.9-3.6,4-5.7c0.9-1.7,2.1-3.4,2.9-5.2
			c1.3-3,2.5-6.1,3-9.4c0.3-1.9,0.6-3.8,0.4-5.8c-0.1-1.5-0.3-2.9-0.9-4.3c-0.2-0.4-0.4-0.9-0.3-1.3c0.3-0.2,0.7,0,1,0
			c1.6,0.3,3.1,0.4,4.7,0.2c1-0.1,1.9-0.5,2.9-0.6c0.3,1.3,0.6,2.6,0.6,3.9c0,0.8,0.2,1.7,0.2,2.5c0,0,0,0,0,0c0,0,0,0.1,0,0.1
			c0,0.4,0,0.8,0.1,1.2c0,0,0,0,0,0l0,0c-0.1,1.6-0.4,3.2-0.5,4.8c-0.2,1.9-0.7,3.7-1.2,5.6c-0.8,2.9-2.1,5.6-3.5,8.3
			c-0.6,1.3-1.2,2.6-2,3.8c-0.7,1.1-1.4,2.3-2.2,3.4c-1.1,1.7-2.5,3.2-3.6,4.9c-0.7,1.1-1.5,2.2-2.2,3.3C88.3,93,87.8,94,87.4,95
			c-0.4,0.9-1,1.7-1.2,2.6c-0.2,0.7-0.6,1.3-0.7,2c-0.3,1.6-1,3-1.3,4.5c-0.1,0.8,0.5,0.8,0.8,1.1c0.5,0.4,1.3,0.7,1.6,1.2
			c0.8,1.2,1.8,2.1,2.8,3c0.8,0.7,1.2,1.7,1.9,2.5c0.3,0.3,0.5,0.8,0.7,1.4c0.3,1,0.8,1.9,1.1,2.9c0.7,1.7,0.9,3.6,1.1,5.4
			c0,0.4,0.2,0.6,0.6,0.4c1.4-0.7,3-1.1,4.4-1.8c1.4-0.7,2.7-1.3,3.9-2.3c0.9-0.8,1.9-1.5,2.7-2.3c1.9-1.9,3.4-4,3.9-6.6
			c0.3-1.6,0.4-3.2,0.3-4.9c-0.2-1.9-1-3.6-1.6-5.3c-0.9-2.4-1.8-4.8-2.4-7.3c-0.4-1.8-0.9-3.6-1.1-5.5c-0.1-0.7-0.2-1.5-0.2-2.2
			c0-0.9-0.2-1.8-0.1-2.7c0-1.6,0.2-3.2,0.4-4.8c0.2-1.5,0.5-2.9,0.9-4.4c0.3-1,0.7-1.9,1.1-2.8c0.1-0.2,0.2-0.4,0.4-0.6
			c0.7,0.8,1.4,1.6,2.2,2.3c1.2,1.1,2.4,2.1,4,2.6c0.2,0.1,0.4,0.2,0.5,0.4c-0.5,1-0.5,2.2-0.9,3.2c-0.1,0.2,0,0.7-0.1,1.1
			c-0.1,0.6-0.1,1.3-0.1,1.9c0,0,0,0,0,0l0,0c-0.1,0.6-0.1,1.2-0.1,1.8c0,0,0,0.1,0,0.1c0,0.1,0,0.3,0,0.4c0,0-0.1,0-0.1,0.1
			C112.6,82.7,112.7,82.7,112.8,82.8z"/>
		<path class="st78" d="M68.7,141.7c-0.4-0.2-0.8-0.2-1.3-0.2c-2.4,0-4.7-0.3-7-0.7c-1-0.2-1.9-0.2-2.9-0.5
			c-0.3-0.1-0.5-0.2-0.4-0.6c0.1-0.2,0-0.4,0-0.6c0-3.4,0-6.8,0-10.2c0-1.6,0.4-3.1,1.1-4.6c0-0.1,0-0.2,0-0.3
			c0.5-0.1,1-0.2,1.4-0.4c1.5-0.7,2.4-1.9,2.7-3.6c0.1-0.6,0-1.1,0.1-1.7c0.2,0.1,0.4-0.1,0.5-0.2c0.8-0.6,1.8-1,2.8-1.5
			c0.1,1.2,0,2.5,0.1,3.7c0.2,1.6,1.9,3,3.4,3.5c1.1,0.4,2.2,0.1,3.3-0.2c0.6-0.2,1.3-0.5,1.7-1.1c0.8-1.2,1.2-2.5,1.1-4
			c0-0.6-0.1-1.2,0.1-1.8c1,0.2,1.8,0.8,2.7,1.4c0.2,0.1,0.4,0.3,0.6,0.3c0,0.3,0,0.7,0,1c0.2,2.5,1.7,4.2,4.2,4.6
			c0,0.1,0,0.3,0,0.4c0.8,1.6,1,3.3,1,5c0.1,3.5,0,6.9,0,10.4c0,0.3,0.2,0.7-0.3,0.7c0,0,0.1,0.1,0.2,0.1c-1.5,0.1-2.8,0.8-4.3,0.6
			c-0.2,0-0.4,0-0.5,0.1c-1.1,0.5-2.3,0.5-3.5,0.4C73.3,141.7,71,141.7,68.7,141.7z"/>
		<path class="st79" d="M49.2,138.3c1.1,0.1,2.1,0.5,3.1,1C51.2,139.1,50.2,138.8,49.2,138.3z"/>
		<path class="st79" d="M54.2,139.8c0.8,0,1.5,0.2,2.3,0.4c0,0,0,0,0.1,0c0,0,0,0,0,0C55.7,140.4,55,139.9,54.2,139.8z"/>
		<path class="st79" d="M31.6,68.7c-1.4,2-3.3,3.4-5.6,4.2c-0.2,0.1-0.4,0.2-0.5,0.4c-0.7,0-1.3,0.3-2,0.4c-4.3,1-8,0-11.5-2.5
			c-1.7-1.2-2.9-2.8-4-4.5c-0.9-1.4-1.3-3-1.5-4.7C6.2,60.1,6.4,58,7,56c0.5-1.6,1.3-3.1,2.3-4.5c1.2-1.7,2.8-3,4.7-4
			c3.1-1.6,6.3-2.2,9.8-1.3c3.6,0.9,6.4,2.9,8.5,5.8c1.3,1.8,2,3.9,2.4,6.1c0.3,1.7,0,3.4-0.3,5.1c-0.3,1.6-1,3-1.9,4.4
			c0,0.1,0,0.2-0.1,0.2c-0.5,0-0.5,0.4-0.7,0.7C31.7,68.7,31.6,68.7,31.6,68.7C31.6,68.7,31.6,68.7,31.6,68.7z M20.6,48.2
			c-6.5-0.1-12.1,5.6-11.9,12c0.1,3.3,1.3,6.1,3.8,8.4c2.7,2.6,6,3.7,9.7,3.2c2.9-0.4,5.3-1.8,7.3-3.8c2.1-2.2,3-4.9,3-7.8
			C32.4,53.2,26.9,48.2,20.6,48.2z"/>
		<path class="st79" d="M103.2,50.2c-1,0.1-1.9,0.5-2.9,0.6c-1.6,0.2-3.2,0.1-4.7-0.2c-0.3-0.1-0.7-0.3-1,0
			c-0.6-0.5-1.4-0.5-2.1-0.9c-0.9-0.5-1.8-1-2.6-1.6c-1.9-1.6-3.5-3.4-4.4-5.8c-1-2.6-1.4-5.3-0.8-8.1c0.4-2.1,1.3-4,2.5-5.7
			c1.1-1.5,2.5-2.7,4.1-3.7c1.6-1.1,3.5-1.6,5.4-1.9c1.5-0.3,3-0.2,4.4,0.1c1,0.2,2,0.4,3,0.8c1,0.5,2,1.1,2.9,1.7
			c2.1,1.4,3.5,3.4,4.5,5.6c1.3,3,1.6,6.1,0.7,9.3c-0.3,1-0.5,2.1-1.1,2.9c-0.8,1.3-1.5,2.6-2.7,3.7
			C106.8,48.4,105.2,49.5,103.2,50.2z M98.8,48.7c4.9,0.2,11.8-4.4,11.7-12c-0.1-4.6-2.4-7.8-6-10.4c-1.9-0.5-3.6-1.3-5.6-1.4
			c-6.3-0.1-12,4.6-12.1,11.6C86.5,43.4,91.9,48.8,98.8,48.7z"/>
		<path class="st79" d="M114,74c-0.1-0.2-0.3-0.3-0.5-0.4c-1.6-0.5-2.8-1.5-4-2.6c-0.8-0.7-1.5-1.5-2.2-2.3
			c-0.5-1.1-1.3-2.1-1.7-3.3c-0.3-0.7-0.4-1.5-0.5-2.3c-0.2-1.7-0.3-3.4,0-5.1c0.7-3.4,2.4-6.2,5.1-8.3c1.9-1.5,4.1-2.5,6.5-2.9
			c3.1-0.5,6,0,8.8,1.5c3,1.5,5.2,3.9,6.4,7c0.9,2.3,1.4,4.7,1,7.2c-0.3,1.7-0.8,3.4-1.6,5c-0.6,1.4-1.6,2.4-2.6,3.5
			c-0.6,0.6-1.3,1.2-1.9,1.7c-0.4,0.3-0.9,0.4-1.3,0.7c-1,0.6-2.1,0.8-3.2,1.1c-1.4,0.4-2.9,0.4-4.4,0.4
			C116.6,74.7,115.3,74.3,114,74z M107.1,60.6c0.1,6.7,5,11.6,11.3,11.9c6.3,0.4,12.4-4.9,12.4-11.7c0-7-5.3-11.9-11.7-12
			C112.3,48.7,107.3,54.2,107.1,60.6z"/>
		<path class="st79" d="M78.7,30.9c-0.2,0-0.4,0-0.6,0.1c-2.2,1.1-4.5,1.9-7.1,1.8c-0.2,0-0.4-0.1-0.5,0.2c-0.7-0.4-1.4-0.2-2.1-0.4
			c-2-0.5-3.8-1.3-5.5-2.4c-2.6-1.8-4.3-4.3-5.3-7.3c-0.7-2.1-0.7-4.3-0.5-6.4c0.2-2.1,1-4,2.3-5.8c0.2-0.3,0.5-0.6,0.7-0.9
			c0.7-1.1,1.7-1.8,2.7-2.5c0.8-0.6,1.6-1.1,2.5-1.5c2.7-1.1,5.4-1.6,8.3-1c3.1,0.6,5.7,2,7.8,4.2c2.1,2.2,3.4,4.8,3.7,7.9
			c0.3,2.5,0,5-1,7.3c-0.7,1.7-1.7,3.2-3,4.4c-0.6,0.6-1.1,1.3-2,1.6C78.8,30.4,78.7,30.6,78.7,30.9z M71.2,7
			c-6-0.5-12.7,5.3-11.9,12.9c0.6,5.7,5.1,11,12.7,10.8c5.9-0.2,11.9-6,11-13.3C82.3,11.9,77.3,6.7,71.2,7z"/>
		<path class="st79" d="M42.1,50.9c-1.3-0.2-2.7-0.4-3.9-0.9c-0.3-0.1-0.6-0.2-1-0.1c-0.6-0.6-1.4-0.9-2.1-1.4c-3-2-5-4.9-5.8-8.4
			c-1.2-5.1,0.1-9.5,3.8-13.2c2-2,4.3-3.2,7.1-3.8c2.3-0.6,4.5-0.4,6.7,0.3c4.7,1.5,8,4.4,9.5,9.2c0.8,2.6,0.9,5.2,0.2,7.9
			c-0.9,3.1-2.6,5.6-5.1,7.6c-1,0.8-2,1.3-3.1,1.9c-0.6,0.3-1.2,0.4-1.9,0.5c-0.3,0.1-0.5,0.1-0.7,0.3c-0.5-0.2-1,0.1-1.5,0.1
			C43.5,50.9,42.8,50.9,42.1,50.9z M54.9,37.2c-0.1-6.8-4.8-11.8-11.6-12.1c-6.2-0.3-12.7,5.1-12.1,12.8c0.4,5.2,4.6,10.9,12,10.9
			C49.4,48.8,54.7,43.8,54.9,37.2z"/>
		<path class="st78" d="M31.7,68.7c0.2-0.3,0.2-0.7,0.7-0.7c-0.2,0.2,0.1,0.3,0.1,0.4C32.1,68.3,31.9,68.5,31.7,68.7z"/>
		<path class="st79" d="M35.1,82.2c0-0.1,0-0.2,0-0.3c0.1,0,0.2,0,0.2,0.1C35.3,82.2,35.2,82.3,35.1,82.2z"/>
		<path class="st79" d="M112.8,82.8c-0.1,0-0.2,0-0.1-0.1c0,0,0.1,0,0.1-0.1C112.8,82.6,112.8,82.7,112.8,82.8z"/>
		<path class="st79" d="M104.1,56.8C104.1,56.7,104.1,56.7,104.1,56.8c0-0.1,0-0.1,0-0.1C104.1,56.7,104.1,56.7,104.1,56.8
			C104.2,56.7,104.1,56.8,104.1,56.8z"/>
		<polygon class="st79" points="112.8,80.3 112.8,80.3 112.8,80.2 		"/>
		<polygon class="st79" points="104.2,58 104.1,58 104.2,58 		"/>
		<path class="st79" d="M112.7,82.1C112.7,82.1,112.7,82.1,112.7,82.1C112.7,82.1,112.8,82.1,112.7,82.1L112.7,82.1z"/>
		<path class="st3" d="M62.5,118.3c-0.1,0.6,0,1.1-0.1,1.7c-0.2,1.7-1.1,2.9-2.7,3.6c-0.4,0.2-0.9,0.3-1.4,0.4c-1,0-2,0-2.9-0.5
			c-1.3-0.7-2.1-1.8-2.5-3.2c-0.1-0.4-0.1-0.8-0.2-1.1c0-0.2,0.1-0.4-0.1-0.5c0-0.5,0-1.1,0.1-1.6c0-0.1,0-0.3,0-0.4
			c0-0.7,0-1.5,0-2.2c0-1.3,0.3-1.8,1.6-1.9c2.1-0.2,4.3-0.2,6.4,0c1.2,0.1,1.7,0.7,1.7,1.9C62.5,115.8,62.5,117.1,62.5,118.3z"/>
		<path class="st3" d="M83.1,124c-2.5-0.4-4-2.1-4.2-4.6c0-0.3,0-0.7,0-1c0-1.1,0-2.2,0-3.3c0-0.2,0-0.5,0-0.7
			c0.1-1.2,0.6-1.8,1.8-1.8c2.2,0,4.3-0.2,6.5,0.1c0.9,0.1,1.3,0.6,1.3,1.5c0,1.2,0,2.3,0,3.5c0,0.8,0,1.7-0.1,2.5
			c-0.5,2.4-1.9,3.7-4.2,3.9C83.8,124,83.4,124.2,83.1,124z"/>
		<path class="st3" d="M75.5,116.7c-0.2,0.6-0.1,1.2-0.1,1.8c0.1,1.5-0.3,2.8-1.1,4c-0.4,0.6-1.1,0.9-1.7,1.1
			c-1.1,0.4-2.1,0.6-3.3,0.2c-1.5-0.5-3.2-1.9-3.4-3.5c-0.2-1.2-0.1-2.5-0.1-3.7c0-0.8,0-1.5,0-2.3c0-1.2,0.4-1.7,1.5-1.7
			c2.2,0,4.5-0.2,6.7,0.1c1,0.1,1.3,0.6,1.4,1.6C75.5,115.1,75.3,115.9,75.5,116.7z"/>
		<path class="st78" d="M42.1,50.9c0.7,0,1.4,0,2.1,0C43.5,51.1,42.8,51.1,42.1,50.9z"/>
		<path class="st78" d="M52.7,118.7c0.1,0.2,0.1,0.3,0.1,0.5C52.5,119.1,52.3,118.9,52.7,118.7z"/>
		<path class="st78" d="M52.7,116.7c0,0.1,0,0.3,0,0.4C52.5,117,52.5,116.9,52.7,116.7z"/>
		<path class="st78" d="M31.6,68.7C31.6,68.7,31.6,68.7,31.6,68.7C31.6,68.7,31.6,68.7,31.6,68.7z"/>
		<path class="st3" d="M20.6,48.2c6.3,0,11.9,5,11.9,11.9c0,2.9-0.9,5.7-3,7.8c-2,2.1-4.4,3.5-7.3,3.8c-3.7,0.5-7-0.6-9.7-3.2
			c-2.4-2.3-3.6-5.1-3.8-8.4C8.5,53.8,14.1,48,20.6,48.2z M20.6,67.7c3.4,0.2,7.3-3.1,7-7.8c-0.2-2.9-3.1-6.5-7.5-6.1
			c-3.4,0.2-6.5,3.1-6.4,7C13.6,64.8,17,67.7,20.6,67.7z"/>
		<path class="st3" d="M98.8,48.7c-6.9,0.1-12.3-5.4-12.1-12.1c0.2-7,5.8-11.7,12.1-11.6c2,0,3.8,0.8,5.6,1.4
			c3.6,2.5,5.9,5.8,6,10.4C110.6,44.4,103.7,49,98.8,48.7z M91.6,37.5c0,4.1,3.1,7,6.7,7.2c4,0.2,7.4-3.4,7.2-7.6
			c-0.2-3.3-2.9-6.4-6.9-6.5C94.7,30.5,91.5,34,91.6,37.5z"/>
		<path class="st3" d="M107.1,60.6c0.1-6.4,5.2-11.9,12-11.8c6.4,0.1,11.7,5,11.7,12c0,6.8-6.1,12.1-12.4,11.7
			C112.2,72.2,107.2,67.3,107.1,60.6z M126,61.3c0.2-3.8-3.3-6.9-6.9-6.9c-3.8,0-7.1,3.1-7.1,7c0,3.9,3.2,7.1,7,7.1
			C123,68.4,126,65.4,126,61.3z"/>
		<path class="st3" d="M71.2,7c6.1-0.3,11.1,4.9,11.8,10.3c0.9,7.3-5.1,13.1-11,13.3c-7.6,0.3-12.1-5.1-12.7-10.8
			C58.6,12.3,65.2,6.5,71.2,7z M78.1,19.4c0.2-3.7-3.1-7-6.8-7c-4,0-7.1,3.1-7.1,6.9c0,4.2,3.3,7.1,6.9,7.2
			C75.5,26.6,78.5,22.4,78.1,19.4z"/>
		<path class="st3" d="M54.9,37.2c-0.2,6.6-5.4,11.6-11.7,11.6c-7.4,0-11.6-5.7-12-10.9c-0.6-7.7,5.9-13.1,12.1-12.8
			C50.1,25.4,54.8,30.4,54.9,37.2z M50,37.6c0.1-2.3-0.8-4-2.5-5.4c-1.7-1.4-3.6-1.7-5.7-1.5c-2.2,0.2-5.7,2.9-5.7,6.7
			c0,4,3.2,7.1,7.1,7.2C47.1,44.7,50.2,40.8,50,37.6z"/>
		<path class="st80" d="M20.6,67.7c-3.6,0-7-2.9-7-7c0-3.9,3-6.8,6.4-7c4.4-0.3,7.3,3.2,7.5,6.1C27.9,64.6,24,67.9,20.6,67.7z
			 M25.1,58.1c0-0.2,0.1-0.3,0.1-0.5c0.1-0.7,0.1-1.4-0.5-1.9c-0.5-0.4-1.2-0.5-1.8-0.1c-0.2,0.1-0.3,0.1-0.5,0.1
			c-0.9-0.4-1.8-0.4-2.6-0.2c-2.2,0.3-4.1,2.2-4.4,4.3c-0.3,2.4,0.9,4.6,3,5.6c2.5,1.2,5.8,0,6.9-2.6C25.9,61.2,25.9,59.7,25.1,58.1
			z"/>
		<path class="st80" d="M91.6,37.5c-0.1-3.4,3.1-6.9,7.1-6.9c3.9,0.1,6.7,3.2,6.9,6.5c0.2,4.2-3.2,7.8-7.2,7.6
			C94.7,44.4,91.6,41.5,91.6,37.5z M103,35c0.4-1.3,0.3-1.9-0.6-2.4c-0.7-0.5-1.4-0.2-2,0.2c-0.1-0.2-0.3-0.3-0.5-0.3
			c-0.5-0.2-1-0.1-1.5-0.1c-2.5,0-4.8,1.9-5.1,4.7c-0.2,2.1,0.7,3.8,2.6,4.9c1.8,1.1,3.6,1.1,5.4-0.1c1.8-1.2,2.6-3,2.4-5.2
			C103.6,36.1,103.5,35.5,103,35z"/>
		<path class="st80" d="M126,61.3c0,4.1-3,7.1-6.9,7.1c-3.8,0-7-3.1-7-7.1c0-3.8,3.3-7,7.1-7C122.6,54.3,126.2,57.5,126,61.3z
			 M123.4,58.7c0.5-0.8,0.3-1.7-0.3-2.2c-0.5-0.5-1.2-0.5-1.8-0.2c-0.2,0.1-0.3,0.1-0.5,0.2c-0.3-0.1-0.5-0.2-0.8-0.2
			c-2.5-0.6-5.1,1-6.1,3.5c-0.8,2.3,0.3,5.1,2.6,6.2c3.1,1.6,6.8-0.2,7.5-3.6C124.3,61,124.1,59.8,123.4,58.7z"/>
		<path class="st80" d="M78.1,19.4c0.3,3-2.6,7.2-7,7.1c-3.6-0.1-6.9-3-6.9-7.2c0-3.8,3.2-6.9,7.1-6.9
			C75.1,12.4,78.4,15.7,78.1,19.4z M75.6,16.7c0.4-0.9,0.2-1.7-0.6-2.2c-0.6-0.4-1.4-0.4-2.1,0.2c-0.1-0.3-0.2-0.5-0.5-0.5
			c-0.8,0-1.7-0.1-2.4,0.1c-2.2,0.6-3.7,2-4,4.2c-0.4,2.1,0.3,3.9,2.1,5.2c2.4,1.7,6,1,7.5-1.7C76.6,20.2,76.5,18.5,75.6,16.7z"/>
		<path class="st80" d="M50,37.6c0.3,3.2-2.9,7.1-6.8,7c-3.9-0.1-7.1-3.2-7.1-7.2c0-3.8,3.5-6.5,5.7-6.7c2.1-0.2,4,0,5.7,1.5
			C49.2,33.6,50,35.3,50,37.6z M47.5,34.8c0.3-1,0.2-1.6-0.5-2.1c-0.6-0.5-1.2-0.5-2.1,0.1c-0.1-0.2-0.3-0.3-0.5-0.3
			c-0.8-0.1-1.7-0.2-2.5,0c-2.4,0.5-4.3,2.8-4.1,5.5c0.2,3,3.3,5.4,6.2,4.7c2.8-0.6,4.6-3,4.1-6.2C48,35.8,47.8,35.3,47.5,34.8z"/>
		<path class="st11" d="M25.1,58.1c0.8,1.5,0.9,3.1,0.2,4.7c-1.1,2.6-4.3,3.8-6.9,2.6c-2.2-1-3.3-3.2-3-5.6c0.3-2.1,2.2-4,4.4-4.3
			c0.9-0.1,1.8-0.2,2.6,0.2c0.1,0.3-0.1,0.5-0.2,0.7c-0.3,0.7-0.2,1.3,0.3,1.8c0.5,0.5,1.2,0.6,1.9,0.3
			C24.6,58.4,24.8,58.3,25.1,58.1z M20.5,58.8c-1.2,0-1.9,0.7-1.9,1.8c0,1,0.9,2,1.9,2c1,0,1.9-0.8,1.9-1.7
			C22.4,59.4,21.8,58.8,20.5,58.8z"/>
		<path class="st3" d="M25.1,58.1c-0.2,0.1-0.5,0.3-0.7,0.4c-0.7,0.3-1.3,0.2-1.9-0.3c-0.5-0.5-0.6-1.1-0.3-1.8
			c0.1-0.2,0.3-0.4,0.2-0.7c0.2,0,0.3,0,0.5-0.1c0.6-0.3,1.2-0.3,1.8,0.1c0.6,0.5,0.6,1.2,0.5,1.9C25.2,57.8,25.1,58,25.1,58.1z"/>
		<path class="st11" d="M103,35c0.5,0.5,0.6,1.1,0.7,1.8c0.2,2.2-0.6,4-2.4,5.2c-1.8,1.1-3.6,1.1-5.4,0.1c-1.8-1.1-2.8-2.8-2.6-4.9
			c0.3-2.8,2.6-4.7,5.1-4.7c0.5,0,1-0.1,1.5,0.1c0.2,0.1,0.3,0.2,0.5,0.3c-0.2,0.2-0.3,0.4-0.4,0.7c-0.2,0.8,0.1,1.5,0.8,1.9
			C101.7,35.8,102.3,35.5,103,35z M98.5,35.7c-1.1,0-2,0.8-2,1.8c0,1.1,0.9,2,2,2c1.3,0,1.9-0.7,1.9-2.2
			C100.4,36.3,99.7,35.7,98.5,35.7z"/>
		<path class="st3" d="M103,35c-0.6,0.5-1.3,0.8-2.1,0.3c-0.7-0.4-1-1.1-0.8-1.9c0.1-0.2,0.2-0.5,0.4-0.7c0.6-0.5,1.3-0.7,2-0.2
			C103.3,33.1,103.4,33.7,103,35z"/>
		<path class="st11" d="M123.4,58.7c0.7,1.1,0.9,2.4,0.6,3.6c-0.7,3.4-4.3,5.2-7.5,3.6c-2.3-1.1-3.4-3.9-2.6-6.2
			c0.9-2.6,3.5-4.1,6.1-3.5c0.3,0.1,0.5,0.2,0.8,0.2c-0.1,0.2-0.2,0.4-0.2,0.6c-0.1,0.2-0.4,0.4-0.3,0.6c0.2,0.6,0.4,1.4,1.1,1.5
			C122.1,59.4,122.9,59.4,123.4,58.7z M119,63.2c1.1,0.2,1.9-0.9,1.9-1.9c0-1.1-0.8-1.9-1.8-1.9c-1.2,0-2.1,0.8-2.1,2
			C117,62.4,117.8,63.2,119,63.2z"/>
		<path class="st3" d="M123.4,58.7c-0.5,0.8-1.3,0.7-2,0.6c-0.7-0.2-0.8-0.9-1.1-1.5c-0.1-0.3,0.2-0.4,0.3-0.6
			c0.1-0.2,0.1-0.4,0.2-0.6c0.2-0.1,0.3-0.1,0.5-0.2c0.7-0.2,1.3-0.3,1.8,0.2C123.7,57,123.9,57.9,123.4,58.7z"/>
		<path class="st11" d="M75.6,16.7c0.8,1.8,0.9,3.5,0,5.3c-1.5,2.7-5,3.5-7.5,1.7c-1.8-1.3-2.5-3-2.1-5.2c0.4-2.2,1.8-3.6,4-4.2
			c0.8-0.2,1.6-0.1,2.4-0.1c0.3,0,0.4,0.2,0.5,0.5c-0.4,0.5-0.6,1.2-0.3,1.7c0.3,0.7,0.9,1,1.7,1C75,17.5,75.3,17,75.6,16.7z
			 M71.1,21.4c1.1,0,1.9-0.8,1.9-1.9c0-1.3-0.8-1.9-2-2c-1.1-0.1-1.9,0.9-1.9,2.1C69.1,20.6,70,21.4,71.1,21.4z"/>
		<path class="st3" d="M75.6,16.7c-0.4,0.3-0.7,0.8-1.3,0.8c-0.8,0-1.4-0.3-1.7-1c-0.3-0.6-0.2-1.2,0.3-1.7c0.7-0.6,1.5-0.7,2.1-0.3
			C75.8,15,76,15.8,75.6,16.7z"/>
		<path class="st11" d="M47.5,34.8c0.4,0.5,0.5,1.1,0.6,1.6c0.4,3.3-1.4,5.6-4.1,6.2c-3,0.7-6-1.7-6.2-4.7c-0.1-2.6,1.7-4.9,4.1-5.5
			c0.8-0.2,1.7-0.1,2.5,0c0.2,0,0.4,0.1,0.5,0.3c-0.1,0.2-0.2,0.3-0.3,0.5c-0.5,1-0.1,1.9,1,2.2C46.4,35.7,47,35.3,47.5,34.8z
			 M44.8,37.6c0-1.3-0.7-1.9-2.1-1.9c-0.9,0-1.7,0.9-1.7,1.9c0,0.9,1,2,1.9,2C43.9,39.5,44.8,38.6,44.8,37.6z"/>
		<path class="st3" d="M47.5,34.8c-0.5,0.5-1,0.9-1.9,0.7c-1-0.3-1.5-1.2-1-2.2c0.1-0.2,0.2-0.3,0.3-0.5c0.9-0.5,1.4-0.5,2.1-0.1
			C47.7,33.2,47.8,33.8,47.5,34.8z"/>
		<path class="st3" d="M20.5,58.8c1.3,0,1.9,0.6,1.9,2.1c0,0.9-0.9,1.7-1.9,1.7c-1,0-1.9-1-1.9-2C18.6,59.5,19.3,58.8,20.5,58.8z"/>
		<path class="st3" d="M98.5,35.7c1.2,0,1.9,0.6,1.9,1.6c0,1.5-0.6,2.2-1.9,2.2c-1.1,0-1.9-0.9-2-2C96.5,36.4,97.4,35.7,98.5,35.7z"
			/>
		<path class="st3" d="M119,63.2c-1.1,0-2-0.8-2-1.9c0-1.1,0.9-2,2.1-2c1,0,1.8,0.8,1.8,1.9C120.9,62.3,120.1,63.4,119,63.2z"/>
		<path class="st3" d="M71.1,21.4c-1.1,0-2-0.8-2-1.8c0-1.2,0.8-2.2,1.9-2.1c1.3,0.1,2,0.7,2,2C73.1,20.5,72.2,21.4,71.1,21.4z"/>
		<path class="st3" d="M44.8,37.6c0,1-0.9,1.9-1.9,2c-0.9,0-1.9-1-1.9-2c0-1,0.8-1.9,1.7-1.9C44.1,35.7,44.8,36.3,44.8,37.6z"/>
	</g>
</g>
</svg>
