<?xml version="1.0" encoding="utf-8"?>
<!-- Generator: Adobe Illustrator 27.3.1, SVG Export Plug-In . SVG Version: 6.00 Build 0)  -->
<svg version="1.1" id="Ebene_1" xmlns="http://www.w3.org/2000/svg" xmlns:xlink="http://www.w3.org/1999/xlink" x="0px" y="0px"
	 viewBox="0 0 141.7 141.7" style="enable-background:new 0 0 141.7 141.7;" xml:space="preserve">
<style type="text/css">
	.st0{fill:#F6BB37;}
	.st1{fill:#3684C6;}
	.st2{fill:#DCA12A;}
	.st3{fill:#FCFCFE;}
	.st4{fill:#E97E2F;}
	.st5{fill:#28273D;}
	.st6{fill:#7F65AA;}
	.st7{fill:#B49ECB;}
	.st8{fill:#66529D;}
	.st9{fill:#33314C;}
	.st10{fill:#35ACC6;}
	.st11{fill:#27263D;}
	.st12{fill:#DB191D;}
	.st13{fill:#42BEE1;}
	.st14{fill:#EE715E;}
	.st15{fill:#396CB3;}
	.st16{fill:#EA5B4C;}
	.st17{fill:#F2C551;}
	.st18{fill:#27273D;}
	.st19{fill:#B0CF6D;}
	.st20{fill:#28263D;}
	.st21{fill:#9E4A30;}
	.st22{fill:#DB1E1D;}
	.st23{fill:#FBFBFD;}
	.st24{fill:#A3C163;}
	.st25{fill:#3F426D;}
	.st26{fill:#33304C;}
	.st27{fill:#DB181D;}
	.st28{fill:#83C4ED;}
	.st29{fill:#B6622B;}
	.st30{fill:#AB795E;}
	.st31{fill:#88C7EE;}
	.st32{fill:#9BB7CC;}
	.st33{fill:#E97F31;}
	.st34{fill:#CD6F2C;}
	.st35{fill:#A8A4A6;}
	.st36{fill:#84C4EC;}
	.st37{fill:#FEFEFE;}
	.st38{fill:#D91F1D;}
	.st39{fill:#F29454;}
	.st40{fill:#3C86C6;}
	.st41{fill:#F8FAFD;}
	.st42{fill:#AD8ABF;}
	.st43{fill:#67529E;}
	.st44{fill:#F6D373;}
	.st45{fill:#29273D;}
	.st46{fill:#EE715D;}
	.st47{fill:#F9C6BD;}
	.st48{fill:#A65E3A;}
	.st49{fill:#F18B88;}
	.st50{fill:#82C2EC;}
	.st51{fill:#E28080;}
	.st52{fill:#D57474;}
	.st53{fill:#4F5173;}
	.st54{fill:#3785C6;}
	.st55{fill:#E84680;}
	.st56{fill:#28273E;}
	.st57{fill:#E13072;}
	.st58{fill:#F5BA37;}
	.st59{fill:#F3C651;}
	.st60{fill:#DB5144;}
	.st61{fill:#A17FB8;}
	.st62{fill:#AC8ABE;}
	.st63{fill:#342E4F;}
	.st64{fill:#2DAC64;}
	.st65{fill:#5CB993;}
	.st66{fill:#9DBA5C;}
	.st67{fill:#5AB992;}
	.st68{fill:#66529E;}
	.st69{fill:#EA5A4C;}
	.st70{fill:#12994E;}
	.st71{fill:#DE5044;}
	.st72{fill:#EE715F;}
	.st73{fill:#E97F2F;}
	.st74{fill:#A89AC9;}
	.st75{fill:#38B3CD;}
	.st76{fill:#DD3D78;}
	.st77{fill:#F5D373;}
	.st78{fill:#FDEAB4;}
	.st79{fill:#7F66AA;}
	.st80{fill:#3885C6;}
	.st81{fill:#40436D;}
	.st82{fill:#A99ACA;}
	.st83{fill:#34314B;}
	.st84{fill:#F4D273;}
	.st85{fill:#83C5ED;}
	.st86{fill:#D29C2C;}
	.st87{fill:#87C7EE;}
	.st88{fill:#F6BB38;}
	.st89{fill:#F6BB3A;}
	.st90{fill:#E83D69;}
	.st91{fill:#F4BC3F;}
	.st92{fill:#85C5EB;}
	.st93{fill:#DA1E1D;}
	.st94{fill:#DDA736;}
	.st95{fill:#F18D88;}
	.st96{fill:#FFFEFE;}
	.st97{fill:#F9C8BC;}
	.st98{fill:#3B85C6;}
</style>
<g id="NWDg2k.tif">
	<g>
		<path class="st47" d="M116.7,17.2c0.5,0,0.8,0.3,1.1,0.6c2.4,2.1,4.6,4.5,6.8,6.9c1,1.1,1.9,2.3,2.8,3.5c2.8,3.8,5.3,7.8,7.4,12.1
			c1.8,3.7,3.2,7.6,4.3,11.5c0.7,2.5,1.2,4.9,1.7,7.4c0.3,1.7,0.5,3.4,0.6,5.1c0.2,1.9,0.4,3.7,0.3,5.6c0,0.9,0.1,1.9,0,2.8
			c-0.3,2.5-0.3,5.1-0.7,7.6c-0.5,3.4-1.2,6.8-2.1,10.2c-0.9,3.2-2.1,6.4-3.5,9.4c-0.7,1.5-1.4,3.1-2.2,4.6
			c-0.9,1.6-1.8,3.3-2.9,4.8c-0.9,1.3-1.9,2.7-2.7,4c-0.4,0.7-1,1.2-1.5,1.8c-1.9,2.6-4.2,4.8-6.5,7.1c-0.5,0.5-1.1,0.9-1.6,1.4
			c-0.9,0.9-1.9,1.7-2.9,2.5c-0.9,0.7-1.7,1.4-2.6,2.1c-1.4,1-2.9,1.9-4.4,2.9c-1.8,1.2-3.8,2.2-5.7,3.2c-2.4,1.2-4.8,2.2-7.3,3.2
			c-1.7,0.6-3.4,1.2-5.1,1.6c-2.2,0.6-4.3,1.2-6.5,1.4c0-0.3-0.1-0.7-0.1-1c0-6.1,0.1-12.2,0.1-18.3c0-0.8,0.4-1.3,1-1.5
			c1-0.3,1.9-0.9,2.9-1.3c3-1.3,5.6-3.1,7.9-5.4c1.2-1.1,2.3-2.2,3.4-3.4c2.2-2.3,3.9-5,5.3-7.9c0.9-2,1.7-4.1,2.4-6.2
			c1-3.4,1.4-6.9,1.6-10.5c0-0.8-0.1-1.5-0.1-2.3c0-1.1-0.1-2.2-0.3-3.3c-0.7-3.6-1.7-7.1-3.2-10.5c-0.9-2.1-2.2-4-3.5-5.9
			c-1.2-1.6-2.6-3.1-4-4.5c-1.5-1.6-3.4-2.8-5.2-4.1c-0.9-0.7-2-1.1-3-1.8c-1.5-0.9-3.2-1.5-4.8-2.1c-0.7-0.2-1.3-0.5-2-0.9
			c0.2-0.1,0.3-0.2,0.4-0.3c0.9-0.4,1.9-0.9,2.7-1.6c1.8-1.4,3.4-2.9,4.9-4.6c0.8-0.9,1.4-1.9,2-3c0.6-1,1-2.2,1.5-3.3
			c0.6-1.4,0.9-2.8,1.3-4.3c0.1-0.2,0.2-0.3,0.4-0.3c0.4,0,0.8-0.1,1.2-0.1c3.9,0.1,7.7-0.1,11.6,0.1c0.5,0,0.6-0.2,0.6-0.6
			c0-2.5,0-4.9,0-7.4c0-1,0-1-0.9-1c-4.1,0-8.1,0-12.2,0.1c-0.5,0-0.7-0.2-0.8-0.6c-0.2-0.7-0.3-1.5-0.5-2.2c-0.6-2.1-1.5-4-2.7-5.9
			c-1.6-2.6-3.7-4.9-6.3-6.6c-3.6-2.4-7.4-4.1-11.7-4.7c-2.1-0.3-4.2-0.1-6.2,0.2c-3.4,0.6-6.6,1.8-9.6,3.6
			c-2.5,1.5-4.5,3.6-6.4,5.8c-1,1.1-1.6,2.4-2.3,3.7c-1,1.8-1.5,3.8-2.1,5.7c-0.3,0.9-0.2,0.9-1.2,0.9c-3.1,0-6.2,0-9.3,0
			c-0.9,0-1.8,0-2.8,0c-0.1-0.1-0.3-0.3-0.3-0.4c-0.5-1-0.9-2-1.3-2.9c-1-2.2-2.1-4.3-3.2-6.4c0.8,0.2,1.1-0.5,1.6-0.9
			c1.7-1.2,3.5-2.3,5.3-3.4c2.2-1.3,4.5-2.4,6.9-3.5c2.5-1.1,5-2,7.6-2.9c2.5-0.8,5.1-1.5,7.7-1.9c2.8-0.5,5.6-0.9,8.5-1.1
			c2.5-0.2,5-0.3,7.5-0.2c2.1,0.1,4.1,0.3,6.1,0.5c2.4,0.3,4.8,0.7,7.1,1.3c2.9,0.7,5.7,1.5,8.4,2.5c1.9,0.7,3.7,1.4,5.5,2.3
			c2.7,1.3,5.4,2.7,7.9,4.4c1.2,0.8,2.5,1.6,3.6,2.5c0.3,0.2,0.4,0.5,0.6,0.7c0.2,0.4-0.1,0.7-0.2,1c-1.4,2.7-2.7,5.4-4.1,8
			c-0.1,0.2-0.1,0.4-0.1,0.6c0,2.7,0,5.3,0,8c0,0.2,0,0.4,0.1,0.6c0.5,1,1.1,2.1,1.6,3.1c1,2,2,3.9,2.9,5.9c0.2,0.3,0.4,0.7,0.6,1
			c0.7,0.7,1.3,0.6,1.8-0.3c0.7-1.3,0.9-2.8,1-4.3c0-6.6,0-13.3,0-19.9C116.6,17.8,116.5,17.5,116.7,17.2z"/>
		<path class="st68" d="M33.5,23.6c0.9,0,1.8,0,2.8,0c3.1,0,6.2,0,9.3,0c0.9,0,0.9,0,1.2-0.9c0.7-1.9,1.1-3.9,2.1-5.7
			c0.7-1.3,1.3-2.6,2.3-3.7c1.9-2.2,3.8-4.3,6.4-5.8c3-1.8,6.2-3,9.6-3.6c2.1-0.4,4.2-0.5,6.2-0.2c4.3,0.7,8.1,2.3,11.7,4.7
			c2.6,1.8,4.6,4,6.3,6.6c1.1,1.8,2.1,3.8,2.7,5.9c0.2,0.7,0.4,1.5,0.5,2.2c0.1,0.4,0.3,0.7,0.8,0.6c4.1-0.2,8.1-0.1,12.2-0.1
			c0.9,0,0.9,0,0.9,1c0,2.5,0,4.9,0,7.4c0,0.5-0.1,0.7-0.6,0.6c-3.9-0.2-7.7,0-11.6-0.1c-0.4,0-0.8,0-1.2,0.1
			c-0.2,0-0.3,0.1-0.4,0.3c-0.4,1.4-0.7,2.9-1.3,4.3c-0.5,1.1-0.9,2.3-1.5,3.3c-0.6,1-1.2,2.1-2,3c-1.5,1.7-3.1,3.2-4.9,4.6
			c-0.8,0.6-1.7,1.1-2.7,1.6c-0.1,0.1-0.2,0.2-0.4,0.3c0.7,0.4,1.3,0.6,2,0.9c1.7,0.6,3.3,1.2,4.8,2.1c1,0.6,2,1.1,3,1.8
			c1.8,1.3,3.6,2.5,5.2,4.1c1.4,1.4,2.8,2.9,4,4.5c1.3,1.9,2.5,3.8,3.5,5.9c1.5,3.4,2.5,6.9,3.2,10.5c0.2,1.1,0.3,2.2,0.3,3.3
			c0,0.8,0.2,1.5,0.1,2.3c-0.1,3.6-0.5,7.1-1.6,10.5c-0.7,2.1-1.4,4.2-2.4,6.2c-1.4,2.9-3.1,5.5-5.3,7.9c-1.1,1.2-2.2,2.3-3.4,3.4
			c-2.4,2.2-5,4.1-7.9,5.4c-1,0.4-1.9,1-2.9,1.3c-0.6,0.2-1,0.6-1,1.5c0,6.1-0.1,12.2-0.1,18.3c0,0.3,0,0.7,0.1,1
			c-0.6,0.4-1.3,0.3-1.9,0.5c-1.5,0.2-2.9,0.5-4.4,0.6c-1.3,0.1-2.5,0.1-3.8,0.1c-3.2,0-6.3,0.1-9.5-0.2c-1.9-0.2-3.9-0.5-5.8-0.8
			c-0.1,0-0.1-0.1-0.2-0.1c0-0.2,0.1-0.4,0.1-0.7c0-3.3,0-6.7,0-10c0.1,0,0.3,0,0.4,0c0.5,0.2,0.9,0.1,1.4,0c0.8,0,1.6-0.1,2.3-0.5
			c2.6-1.4,4-3.6,4-6.6c0-2.6,0-5.1,0-7.7c0-0.3,0-0.6,0.1-0.9c0.5,0.3,1,0.4,1.5,0.4c1.5,0,3,0,4.5,0c2.1,0,4.1-0.2,6.1-0.8
			c0.5-0.2,1.1-0.3,1.6-0.5c2.2-0.7,4.3-1.5,6.3-2.7c1.4-0.8,2.7-1.6,4-2.6c2-1.5,3.8-3.1,5.3-5c1.2-1.4,2.5-2.7,3.1-4.5
			c0-0.1,0.1-0.1,0.1-0.1c0.9-1.7,1.9-3.4,2.6-5.3c0.6-1.6,1.1-3.2,1.4-4.9c0.3-1.9,0.6-3.8,0.6-5.7c0-0.7-0.1-1.3-0.4-1.8
			c-0.5-1-2.1-1.7-3-1.2c-1.3,0.7-2.2,1.8-3,3c-0.6,0.9-1.1,1.8-1.8,2.6c-0.5,0.5-1,1-1.5,1.5c-1.6,1.7-3.3,3-5.2,4.3
			c-1.1,0.7-2.2,1.3-3.3,1.9c-0.2,0.1-0.4,0.1-0.6,0.2c-1.2,0.5-2.3,0.9-3.5,1.4c-1.1,0.5-2.3,0.6-3.5,0.9c-1,0.2-2.1,0.4-3.2,0.6
			c-0.9,0-1.9-0.1-2.8,0.1c-1.7,0.2-3.3,0-4.9-0.1c-0.9-0.1-1.8-0.4-2.8-0.4c-0.9-0.1-1.7-0.5-2.6-0.8c-1.5-0.3-2.9-0.9-4.2-1.6
			c-1.2-0.6-2.4-1.4-3.7-1.8c-0.7-0.4-1.1-1-1.8-1.4c-0.8-0.6-1.6-1.1-2.3-1.8c-2.1-1.8-4-3.7-5.5-6.1c-0.6-1-1.3-1.8-2.3-2.5
			c-0.4-0.3-1.7-0.3-2.1,0c-0.9,0.7-1.4,1.6-1.4,2.8c0,2.2,0.2,4.3,0.7,6.4c0.4,1.8,0.9,3.7,1.7,5.4c1.3,3,2.9,5.8,5,8.4
			c0.9,1.1,1.8,2.2,2.8,3.1c1.1,1,2.4,1.9,3.3,3c0.1,0.2,0.3,0.1,0.4,0.1c0,2.9,0,5.9,0,8.8c-0.1,0-0.2,0-0.3,0
			c-0.4-0.6-1.1-0.6-1.6-1.1c-0.7-0.6-1.3-1.2-2.1-1.7c-1.1-0.7-2.2-1.5-3.2-2.5c-0.7-0.7-1.3-1.5-2-2.3c-0.4-0.5-0.9-0.9-1.3-1.5
			c-0.6-0.9-1.2-1.9-1.8-2.7c-0.6-0.8-1.2-1.6-1.6-2.5c-0.2-0.4-0.4-0.8-0.6-1.2c-0.5-1-1.1-1.9-1.4-3c-0.6-1.8-1.3-3.5-1.7-5.3
			C34,92.5,34,91,33.6,89.6c-0.4-1.5-0.1-3.1-0.2-4.7c0-1.1-0.1-2.3,0.2-3.4c0.1-0.4,0.5-0.8,0-1.1c0,0,0-0.1,0-0.1
			c0.5-1,0.4-2.2,0.7-3.3c0.7-2.1,1-4.3,2.1-6.3c0.6-1.2,1.1-2.6,1.8-3.8c1-1.6,2.1-3.2,3.3-4.7c1.3-1.6,2.6-3.2,4.2-4.5
			c1.1-0.9,2.2-2,3.4-2.8c1.1-0.8,2.3-1.6,3.5-2.1c0.9-0.4,1.5-1.2,2.5-1.3c0.2,0,0.5-0.1,0.7-0.2c1-0.4,2-0.9,3-1.1
			c0.1,0,0.3-0.1,0.3-0.2c0.1-0.2-0.1-0.3-0.2-0.4c-0.4-0.2-0.7-0.5-1.1-0.7c-0.8-0.5-1.7-0.8-2.4-1.6c-0.2-0.3-0.5-0.5-0.8-0.7
			c-1-0.8-1.9-1.7-2.8-2.6c-0.8-0.9-1.4-2-2.1-2.9c-0.5-0.6-0.9-1.3-1.3-2.1c-0.9-1.8-1.6-3.8-2-5.8c-0.1-0.5-0.3-0.9-1.1-0.9
			c-4.1,0.1-8.1,0.1-12.2,0.1C33.5,29.5,33.5,26.5,33.5,23.6z M90.7,27.9C90.9,16.9,82,7.8,71,7.6C60,7.4,50,16.5,50.7,29
			c0.3,4.8,2.2,9,5.6,12.4c4.2,4.4,9.4,6.4,15.4,6.2C82.2,47.1,90.7,38.3,90.7,27.9z"/>
		<path class="st47" d="M57.9,130c0,3.3,0,6.7,0,10c0,0.2,0,0.4-0.1,0.7c-1.2-0.4-2.5-0.6-3.8-0.9c-2.7-0.7-5.3-1.4-7.9-2.4
			c-2.8-1.1-5.5-2.2-8.1-3.6c-3.2-1.7-6.2-3.6-9.1-5.7c-2.5-1.8-4.8-3.8-7-5.9c-2.4-2.3-4.6-4.8-6.7-7.4c-2.3-2.9-4.4-6-6.2-9.3
			c-2-3.5-3.6-7.2-4.9-11c-1.1-3.2-2-6.4-2.7-9.7c-0.5-2.5-0.8-5-1.1-7.6c-0.2-2.5-0.4-5.1-0.3-7.6c0.1-2.4,0.3-4.8,0.6-7.3
			c0.4-3,1-6,1.7-9c0.9-3.7,2.2-7.3,3.8-10.9c1.6-3.6,3.5-7.1,5.7-10.4c1.8-2.7,3.8-5.3,5.9-7.8c1.4-1.6,2.9-3.1,4.3-4.6
			c0.9-1,2.1-1.8,3.1-2.8c0.1-0.1,0.2-0.1,0.4-0.1c0,0.3,0.1,0.7,0.1,1c0.1,7.6-0.2,15.1,0.1,22.7c0,0.8,0.3,1.5,0.8,2.2
			c0.4,0.6,1,0.7,1.4,0.3c0.3-0.3,0.6-0.6,0.8-1c1.4-2.8,2.8-5.6,4.2-8.4c0.2-0.4,0.3-0.8,0.7-1c4.1,0,8.1,0,12.2-0.1
			c0.7,0,1,0.3,1.1,0.9c0.4,2,1.1,3.9,2,5.8c0.3,0.7,0.8,1.4,1.3,2.1c0.7,1,1.3,2,2.1,2.9c0.9,0.9,1.8,1.8,2.8,2.6
			c0.3,0.2,0.6,0.4,0.8,0.7c0.6,0.8,1.5,1.2,2.4,1.6c0.4,0.2,0.7,0.5,1.1,0.7c0.1,0.1,0.2,0.2,0.2,0.4c-0.1,0.2-0.2,0.2-0.3,0.2
			c-1,0.2-2,0.7-3,1.1c-0.2,0.1-0.4,0.2-0.7,0.2c-1,0.1-1.7,0.9-2.5,1.3c-1.2,0.6-2.4,1.4-3.5,2.1c-1.2,0.8-2.3,1.9-3.4,2.8
			c-1.6,1.3-2.9,3-4.2,4.5c-1.2,1.5-2.3,3-3.3,4.7c-0.7,1.2-1.2,2.5-1.8,3.8c-1,2-1.4,4.2-2.1,6.3c-0.3,1.1-0.2,2.2-0.7,3.3
			c0,0,0,0.1,0,0.1c0.5,0.4,0.1,0.8,0,1.1c-0.3,1.1-0.2,2.3-0.2,3.4c0,1.6-0.2,3.2,0.2,4.7c0.4,1.4,0.3,2.9,0.7,4.3
			c0.5,1.8,1.2,3.5,1.7,5.3c0.3,1,1,2,1.4,3c0.2,0.4,0.5,0.8,0.6,1.2c0.4,0.9,0.9,1.7,1.6,2.5c0.7,0.8,1.3,1.8,1.8,2.7
			c0.4,0.6,0.9,1,1.3,1.5c0.7,0.8,1.3,1.6,2,2.3c0.9,1,2,1.7,3.2,2.5c0.7,0.5,1.4,1.1,2.1,1.7c0.5,0.4,1.2,0.5,1.6,1.1
			c0.1,0.5-0.1,1.1,0.2,1.6c0,1.2,0,2.5,0.1,3.7c0,1.6,0.4,3.2,1.6,4.4C54.7,128.7,56,129.9,57.9,130z"/>
		<path class="st69" d="M116.7,17.2c-0.1,0.3,0,0.6,0,0.9c0,6.6,0,13.3,0,19.9c0,1.5-0.2,2.9-1,4.3c-0.5,0.9-1.1,1-1.8,0.3
			c-0.3-0.3-0.5-0.6-0.6-1c-1-2-2-3.9-2.9-5.9c-0.5-1-1-2.1-1.6-3.1c-0.1-0.2-0.1-0.4-0.1-0.6c0-2.7,0-5.3,0-8c0-0.2,0-0.4,0.1-0.6
			c1.4-2.7,2.7-5.4,4.1-8c0.2-0.3,0.4-0.6,0.2-1c0.3,0,0.4-0.3,0.5-0.5c0.3-0.5,0.7-0.9,1.4-0.8c0.6,0.1,0.8,0.6,1,1
			C116.4,15,116.5,16.1,116.7,17.2z"/>
		<path class="st69" d="M33.5,32.4c-0.4,0.2-0.5,0.7-0.7,1c-1.4,2.8-2.8,5.6-4.2,8.4c-0.2,0.4-0.5,0.7-0.8,1c-0.5,0.4-1,0.3-1.4-0.3
			c-0.5-0.7-0.8-1.4-0.8-2.2c-0.3-7.6-0.1-15.1-0.1-22.7c0-0.3,0-0.7-0.1-1c0.3-1,0.2-2.1,0.8-3.1c0.6-0.9,1.2-1,2-0.3
			c0.1,0.1,0.2,0.3,0.3,0.4c1.1,2.1,2.2,4.3,3.2,6.4c0.5,1,0.9,2,1.3,2.9c0.1,0.2,0.2,0.3,0.3,0.4C33.5,26.5,33.5,29.5,33.5,32.4z"
			/>
		<path class="st11" d="M85.1,92.8c1.1-0.6,2.3-1.2,3.3-1.9c1.9-1.3,3.7-2.7,5.2-4.3c0.5-0.5,1-1,1.5-1.5c0.8-0.7,1.2-1.7,1.8-2.6
			c0.8-1.1,1.7-2.3,3-3c0.9-0.5,2.5,0.2,3,1.2c0.3,0.6,0.4,1.2,0.4,1.8c-0.1,1.9-0.3,3.8-0.6,5.7c-0.3,1.7-0.8,3.3-1.4,4.9
			c-0.7,1.8-1.6,3.6-2.6,5.3c0,0.1-0.1,0.1-0.1,0.1c-0.7,1.8-2,3.1-3.1,4.5c-1.6,1.9-3.4,3.6-5.3,5c-1.3,1-2.6,1.8-4,2.6
			c-2,1.1-4.1,2-6.3,2.7c-0.5,0.2-1.1,0.3-1.6,0.5c-2,0.6-4.1,0.8-6.1,0.8c-1.5,0-3,0-4.5,0c-0.5,0-1-0.1-1.5-0.4c0-0.1,0-0.3,0-0.4
			c0-0.1,0-0.1,0-0.2c-0.2-0.5-0.3-0.9-0.5-1.4c-0.6-1.7-1.7-3.1-3.2-4.1c-2.5-1.7-5.3-1.7-8.2-1.4c-1.1,0.1-1.7,0.8-2.1,1.7
			c-0.1,0.1-0.1,0.2-0.1,0.3c-0.1,0-0.2,0.1-0.4-0.1c-1-1.1-2.2-2-3.3-3c-1-1-2-2-2.8-3.1c-2-2.6-3.6-5.4-5-8.4
			c-0.8-1.7-1.3-3.5-1.7-5.4c-0.5-2.1-0.7-4.3-0.7-6.4c0-1.2,0.5-2,1.4-2.8c0.4-0.3,1.6-0.3,2.1,0c1,0.6,1.7,1.5,2.3,2.5
			c1.4,2.4,3.4,4.3,5.5,6.1c0.7,0.6,1.5,1.2,2.3,1.8c0.6,0.4,1.1,1,1.8,1.4c-0.1,0.5,0.1,1,0.1,1.5c0,2.3,0,4.6,0,6.9
			c0,1.5,0.4,2.9,1.7,3.8c0.2,0.2,0.5,0.3,0.7,0.5c1.7,1.5,4.2,1.3,5.8,0.1c1.4-1,2-2.4,2.2-4c0.2-1.6,0.1-3.1,0.1-4.7
			c0.9,0,1.8,0.3,2.8,0.4c1.6,0.2,3.3,0.4,4.9,0.1c0.9-0.1,1.9-0.1,2.8-0.1c0.3,0.1,0.2,0.3,0.2,0.5c0,2.1,0,4.2,0,6.3
			c0,1,0.1,1.9,0.4,2.8c0.6,1.7,1.9,2.8,3.6,3.4c0.9,0.3,1.7,0.1,2.6,0c1.2-0.2,2-0.9,2.7-1.9c0.8-1.2,1.1-2.6,1.2-4
			C85.2,99.6,85.1,96.2,85.1,92.8z"/>
		<path class="st3" d="M90.7,27.9c0,10.4-8.5,19.2-18.9,19.7c-6,0.3-11.2-1.8-15.4-6.2C53,38,51,33.8,50.7,29C50,16.5,60,7.4,71,7.6
			C82,7.8,90.9,16.9,90.7,27.9z M71.9,17c-0.7-0.1-1.3,0-2,0c-2.9,0.1-5.3,1.4-7.5,3.3c-0.9,0.8-1.5,1.9-2.1,3
			c-2,3.9-1.8,7.7,0.3,11.4c0.6,1.1,1.4,2,2.3,2.8c0.9,0.8,2,1.4,3.2,2c1.1,0.5,2.2,0.8,3.4,0.9c1.2,0.1,2.5,0.1,3.7-0.2
			c0.3-0.1,0.4-0.4,0.6-0.4c0.9,0.2,1.6-0.3,2.3-0.6c2.1-1,3.6-2.5,4.8-4.5c1.5-2.5,2.1-5.2,1.6-8.2c-0.6-3.3-2.4-5.8-5.1-7.7
			C75.7,17.8,73.9,17.1,71.9,17L71.9,17L71.9,17z"/>
		<path class="st12" d="M52,108.8c0-0.1,0.1-0.2,0.1-0.3c0.4-0.9,1-1.6,2.1-1.7c2.9-0.3,5.7-0.3,8.2,1.4c1.5,1,2.6,2.4,3.2,4.1
			c0.2,0.5,0.3,0.9,0.5,1.4c0,0.1,0,0.1,0,0.2c0,0.1,0,0.3,0,0.4c-0.1,0.3-0.1,0.6-0.1,0.9c0,2.6,0,5.1,0,7.7c0,3-1.4,5.2-4,6.6
			c-0.7,0.4-1.5,0.5-2.3,0.5c-0.5,0-0.9,0-1.4,0c-0.1,0-0.3,0-0.4,0c-1.9-0.1-3.2-1.3-4.4-2.6c-1.1-1.2-1.5-2.8-1.6-4.4
			c0-1.2-0.1-2.5-0.1-3.7c0.3-0.5,0.1-1.1,0.1-1.6C52,114.6,52,111.7,52,108.8z"/>
		<path class="st3" d="M85.1,92.8c0,3.4,0,6.8,0,10.2c0,1.4-0.3,2.8-1.2,4c-0.7,1-1.5,1.6-2.7,1.9c-0.9,0.2-1.7,0.3-2.6,0
			c-1.7-0.5-3-1.6-3.6-3.4c-0.3-0.9-0.4-1.8-0.4-2.8c0-2.1,0-4.2,0-6.3c0-0.2,0.1-0.4-0.2-0.5c1.1-0.2,2.1-0.4,3.2-0.6
			c1.2-0.3,2.4-0.4,3.5-0.9c1.1-0.5,2.3-0.9,3.5-1.4C84.7,92.9,84.9,92.8,85.1,92.8z"/>
		<path class="st3" d="M64,95.5c0,1.6,0.1,3.1-0.1,4.7c-0.2,1.6-0.8,3.1-2.2,4c-1.7,1.2-4.1,1.5-5.8-0.1c-0.2-0.2-0.4-0.4-0.7-0.5
			c-1.3-0.9-1.6-2.3-1.7-3.8c0-2.3,0-4.6,0-6.9c0-0.5-0.2-1-0.1-1.5c1.3,0.5,2.5,1.2,3.7,1.8c1.4,0.7,2.7,1.2,4.2,1.6
			C62.2,94.9,63.1,95.3,64,95.5z"/>
		<path class="st69" d="M52,117.6c0,0.5,0.1,1.1-0.1,1.6c-0.2-0.5-0.1-1.1-0.2-1.6C51.8,117.6,51.9,117.6,52,117.6z"/>
		<path class="st69" d="M58.4,129.9c0.5,0,0.9,0,1.4,0C59.3,130.1,58.8,130.1,58.4,129.9z"/>
		<path class="st68" d="M66.2,113.9c-0.1-0.1-0.1-0.1,0-0.2C66.1,113.7,66.2,113.8,66.2,113.9z"/>
		<path class="st68" d="M71.9,17c2,0.1,3.7,0.9,5.3,2c2.7,1.9,4.5,4.4,5.1,7.7c0.5,2.9-0.1,5.6-1.6,8.2c-1.1,2-2.7,3.5-4.8,4.5
			c-0.7,0.3-1.4,0.8-2.3,0.6c-0.2,0-0.3,0.3-0.6,0.4c-1.2,0.3-2.5,0.3-3.7,0.2c-1.1-0.1-2.3-0.4-3.4-0.9c-1.1-0.5-2.2-1.1-3.2-2
			c-0.9-0.8-1.7-1.8-2.3-2.8c-2.1-3.8-2.3-7.6-0.3-11.4c0.6-1.1,1.2-2.2,2.1-3c2.1-1.9,4.6-3.2,7.5-3.3C70.5,16.9,71.2,16.9,71.9,17
			C71.9,17,71.9,17,71.9,17z M73.8,20.8c0-0.3-0.2-0.4-0.4-0.5c-1.4-0.5-2.8-0.4-4.2-0.3c-1.2,0.1-2.2,0.6-3.2,1.2
			c-1.6,1-2.7,2.4-3.5,4c-0.2,0.4-0.4,0.8-0.5,1.2c-0.2,1.1-0.1,2.2-0.1,3.4c0,0.9,0.3,1.7,0.6,2.4c1.4,2.7,3.5,4.5,6.6,5.1
			c2,0.4,3.9,0,5.6-0.9c1.5-0.8,2.7-2,3.6-3.6c1.6-3,1.3-5.9,0-8.8c0.3-1.1,0.5-2.1-0.2-3.1C77.3,19.9,75.4,19.3,73.8,20.8z"/>
		<polygon class="st47" points="71.9,17 71.9,17 71.9,16.9 		"/>
		<path class="st11" d="M78.2,24.1c1.4,2.9,1.6,5.8,0,8.8c-0.8,1.6-2.1,2.8-3.6,3.6c-1.7,0.9-3.6,1.3-5.6,0.9
			c-3-0.6-5.2-2.4-6.6-5.1c-0.4-0.7-0.7-1.5-0.6-2.4c0-1.1-0.1-2.2,0.1-3.4c0.1-0.5,0.3-0.8,0.5-1.2c0.8-1.6,1.9-3.1,3.5-4
			c1-0.6,2.1-1.1,3.2-1.2c1.4-0.1,2.8-0.3,4.2,0.3c0.3,0.1,0.4,0.2,0.4,0.5c-0.1,0.1-0.1,0.2-0.2,0.2c-0.7,1-0.7,2.1-0.1,3.1
			c0.6,0.9,1.4,1.2,2.4,1.2C76.9,25.3,77.6,24.8,78.2,24.1z M70.6,25.5c-1.9,0-3.5,1.5-3.5,3.3c0.1,1.5,1.3,3.2,3.4,3.2
			c2,0,3.3-1.1,3.2-3.7C73.8,27,72.5,25.3,70.6,25.5z"/>
		<path class="st3" d="M78.2,24.1c-0.6,0.6-1.3,1.2-2.2,1.2c-1,0-1.9-0.3-2.4-1.2c-0.7-1.1-0.6-2.1,0.1-3.1c0.1-0.1,0.1-0.2,0.2-0.2
			c1.6-1.5,3.4-0.9,4.2,0.2C78.8,22,78.6,23.1,78.2,24.1z"/>
		<path class="st3" d="M70.6,25.5c1.9-0.2,3.2,1.5,3.2,2.8c0.1,2.6-1.3,3.6-3.2,3.7c-2.1,0-3.3-1.7-3.4-3.2
			C67.1,27,68.7,25.5,70.6,25.5z"/>
	</g>
</g>
</svg>
