<?xml version="1.0" encoding="utf-8"?>
<!-- Generator: Adobe Illustrator 27.3.1, SVG Export Plug-In . SVG Version: 6.00 Build 0)  -->
<svg version="1.1" id="Ebene_1" xmlns="http://www.w3.org/2000/svg" xmlns:xlink="http://www.w3.org/1999/xlink" x="0px" y="0px"
	 viewBox="0 0 141.7 141.7" style="enable-background:new 0 0 141.7 141.7;" xml:space="preserve">
<style type="text/css">
	.st0{fill:#F6BB37;}
	.st1{fill:#3684C6;}
	.st2{fill:#DCA12A;}
	.st3{fill:#FCFCFE;}
	.st4{fill:#E97E2F;}
	.st5{fill:#28273D;}
	.st6{fill:#7F65AA;}
	.st7{fill:#B49ECB;}
	.st8{fill:#66529D;}
	.st9{fill:#33314C;}
	.st10{fill:#35ACC6;}
	.st11{fill:#27263D;}
	.st12{fill:#DB191D;}
	.st13{fill:#42BEE1;}
	.st14{fill:#EE715E;}
	.st15{fill:#396CB3;}
	.st16{fill:#EA5B4C;}
	.st17{fill:#F2C551;}
	.st18{fill:#27273D;}
	.st19{fill:#B0CF6D;}
	.st20{fill:#28263D;}
	.st21{fill:#9E4A30;}
	.st22{fill:#DB1E1D;}
	.st23{fill:#FBFBFD;}
	.st24{fill:#A3C163;}
	.st25{fill:#3F426D;}
	.st26{fill:#33304C;}
	.st27{fill:#DB181D;}
	.st28{fill:#83C4ED;}
	.st29{fill:#B6622B;}
	.st30{fill:#AB795E;}
	.st31{fill:#88C7EE;}
	.st32{fill:#9BB7CC;}
	.st33{fill:#E97F31;}
	.st34{fill:#CD6F2C;}
	.st35{fill:#A8A4A6;}
	.st36{fill:#84C4EC;}
	.st37{fill:#FEFEFE;}
	.st38{fill:#D91F1D;}
	.st39{fill:#F29454;}
	.st40{fill:#3C86C6;}
	.st41{fill:#F8FAFD;}
	.st42{fill:#AD8ABF;}
	.st43{fill:#67529E;}
	.st44{fill:#F6D373;}
	.st45{fill:#29273D;}
	.st46{fill:#EE715D;}
	.st47{fill:#F9C6BD;}
	.st48{fill:#A65E3A;}
	.st49{fill:#F18B88;}
	.st50{fill:#82C2EC;}
	.st51{fill:#E28080;}
	.st52{fill:#D57474;}
	.st53{fill:#4F5173;}
	.st54{fill:#3785C6;}
	.st55{fill:#E84680;}
	.st56{fill:#28273E;}
	.st57{fill:#E13072;}
	.st58{fill:#F5BA37;}
	.st59{fill:#F3C651;}
	.st60{fill:#DB5144;}
	.st61{fill:#A17FB8;}
	.st62{fill:#AC8ABE;}
	.st63{fill:#342E4F;}
	.st64{fill:#2DAC64;}
	.st65{fill:#5CB993;}
	.st66{fill:#9DBA5C;}
	.st67{fill:#5AB992;}
	.st68{fill:#66529E;}
	.st69{fill:#EA5A4C;}
	.st70{fill:#12994E;}
	.st71{fill:#DE5044;}
	.st72{fill:#EE715F;}
	.st73{fill:#E97F2F;}
	.st74{fill:#A89AC9;}
	.st75{fill:#38B3CD;}
	.st76{fill:#DD3D78;}
	.st77{fill:#F5D373;}
	.st78{fill:#FDEAB4;}
	.st79{fill:#7F66AA;}
	.st80{fill:#3885C6;}
	.st81{fill:#40436D;}
	.st82{fill:#A99ACA;}
	.st83{fill:#34314B;}
	.st84{fill:#F4D273;}
	.st85{fill:#83C5ED;}
	.st86{fill:#D29C2C;}
	.st87{fill:#87C7EE;}
	.st88{fill:#F6BB38;}
	.st89{fill:#F6BB3A;}
	.st90{fill:#E83D69;}
	.st91{fill:#F4BC3F;}
	.st92{fill:#85C5EB;}
	.st93{fill:#DA1E1D;}
	.st94{fill:#DDA736;}
	.st95{fill:#F18D88;}
	.st96{fill:#FFFEFE;}
	.st97{fill:#F9C8BC;}
	.st98{fill:#3B85C6;}
</style>
<g id="oRmTg5.tif">
	<g>
		<path class="st0" d="M47.7,137.8c-1.3-0.5-2.6-0.9-3.8-1.5c-0.2-0.3-0.5-0.3-0.8-0.5c-0.3-0.1-0.7-0.1-0.7-0.5
			c-0.1-0.4-0.1-0.8-0.1-1.2c0-15.6,0-31.2,0-46.8c18.3,0,36.6,0,54.9,0c0.9,0,1.7-0.3,2.4-0.8c2.3-1.6,2.2-4.7,0-6.3
			c-0.7-0.5-1.4-0.5-2.2-0.7c0.1-0.4-0.1-0.8-0.2-1.2c-0.6-2.8-1.3-5.5-1.9-8.2c-0.6-2.5-1.3-5-1.7-7.6c0-0.1,0-0.3-0.2-0.3
			c-0.1,0-0.2,0.1-0.3,0.2c-0.1,0.2-0.1,0.5-0.2,0.7c-2.1,5.2-4.3,10.3-6.4,15.5c-0.1,0.3-0.2,0.7-0.5,0.9c-0.2,0.1-0.4,0.1-0.6,0.1
			c-2.9,0-5.8,0-8.6,0c0-0.2,0-0.4,0-0.6c-1-4.6-2-9.3-3-13.9c-0.4-1.8-0.9-3.6-1.2-5.4c-0.1-0.7-0.3-1.5-0.4-2.3
			c-0.2,0.1-0.2,0.2-0.2,0.4c-0.5,2.3-1,4.5-1.5,6.8c-0.4,2.1-0.9,4.2-1.3,6.3c-0.4,2-0.8,4-1.2,6c-0.2,0.9-0.6,1.8-0.4,2.7
			c-1.2,0-2.4,0-3.6,0c-0.3,0-0.6,0-0.8-0.1c-1.9-3.6-3.8-7.2-5.6-10.8c-0.2,0.1-0.2,0.2-0.2,0.3c0,1.1-0.5,2.2-0.8,3.2
			c-0.4,1.5-0.8,3-1.3,4.4c-0.3,0.9-0.5,2-0.7,2.9c-1,0-2.1,0-3.1,0c-0.8,0-1.6,0.1-2.4-0.1c0.3-0.1,0.3-0.3,0.1-0.5
			c-1.3-1.4-2.6-2.8-3.9-4.3c-1-1.1-1.9-2.1-2.9-3.2c0-0.3,0.1-0.5,0.1-0.8c0-3.1-0.1-6.3,0.1-9.4c0.1-1.1,0.2-2.2,0.3-3.3
			c0.2-1.7,0.2-3.4-0.1-5.1c-0.2-1.2-0.8-2.3-1.5-3.4c-0.7-1.2-1.4-2.3-2.2-3.4c-0.3-0.4-0.6-0.9-0.8-1.4c0.2,0,0.4,0,0.7,0.1
			c2.8,0.4,5.5,0.3,8.2-0.5c5-1.5,8.9-4.5,11.4-9.1c2.6-4.7,2.9-9.7,1.4-14.8c-1-3.3-2.9-6.1-5.5-8.5c-1.2-1.1-2.5-1.8-3.9-2.5
			c0.5,0.1,0.6-0.4,1-0.5c1.5-0.4,3-0.5,4.5-0.7c0.4-0.1,0.8,0,1.1-0.4c1.5,1.4,3.1,2.8,4.3,4.4c0.7,1,1.6,1.8,2.1,2.9
			c0.2,0.4,0.2,0.9,0.5,1.3c0.2,0.5,0.6,0.9,0.7,1.5c0,0.1,0.1,0.1,0.1,0.2c0,0,0.1,0,0.1,0.1c0.9,0.2,1.9,0.1,2.8,0
			c0.1,0,0.3,0,0.4,0c0.1,0.1,0.2,0.1,0.4,0.1c0.9,0.1,1.9,0,2.8,0.1c1.1,0.1,2.2,0.1,3.3,0.3c3.8,0.7,7.6,1.6,11.1,3.4
			c2.5,1.3,5,2.6,7.3,4.3c1.2,0.9,2.4,1.8,3.4,2.8c0.3,0.3,0.6,0.3,0.9,0.1c0.5-0.3,1.1-0.6,1.6-0.9c1.6-0.7,3.3-1.2,5-1.4
			c1.3-0.2,2.6-0.1,3.9,0c1.7,0.2,3.4,0.7,5,1.5c1.8,0.9,3.4,2.1,4.9,3.4c1.9,1.8,3.1,4.1,4,6.5c0.9,2.5,1.1,5.2,0.6,7.8
			c-0.6,3.4-2.1,6.4-4.4,9c-1,1.1-2.2,1.8-3.4,2.6c-1.2,0.8-2.4,1.4-3.8,1.8c-1.1,0.4-1.1,0.4-1.1,1.5c0,23.1,0,46.2,0,69.3
			c-1.1,0.6-2.1,1.3-3.2,1.9c-1.9,1.1-3.9,2-5.8,3c-1.2,0.6-2.5,1-3.7,1.5c-2.4,1.1-5,1.9-7.5,2.6c-2.2,0.6-4.5,1-6.8,1.3
			c-2.5,0.4-5,0.7-7.5,0.8c-2.7,0.2-5.4,0-8.1-0.1c-2.3-0.1-4.5-0.5-6.8-0.8c-2.2-0.2-4.3-0.9-6.5-1.3c-0.8-0.2-1.6-0.3-2.4-0.7
			C49.7,138.4,48.8,137.9,47.7,137.8z M93.2,44.2c0,6.5,5.4,12.1,12.6,11.9c6.1-0.2,11.4-5.5,11.3-12.2c-0.1-6.3-5.6-12.1-13-11.6
			C99.6,32.5,93.1,36.8,93.2,44.2z M67.2,30.3c-0.1,2.5,2,4.3,4.2,4.4c2.4,0,4.4-1.8,4.4-4.3c0-2.5-1.9-4.4-4.4-4.4
			C69.4,26,67,27.7,67.2,30.3z M92.2,32.2c0.2-2.3-2-4.2-4.2-4.3c-2,0-4.4,1.9-4.3,4.3c0.1,2.5,1.9,4.3,4.2,4.3
			C90.2,36.6,92.3,34.6,92.2,32.2z M62.9,42.7c-0.3,2.6,2.3,4.4,4.2,4.4c2.4,0,4.3-2,4.3-4.3c0-2.3-2-4.3-4.2-4.3
			C65.1,38.5,62.6,40.5,62.9,42.7z M77.2,39.4c-0.2,1.4,1.1,2.8,2.6,2.8c1.5,0,2.6-1.2,2.7-2.6c0-1.6-1.1-2.8-2.7-2.7
			C78.4,36.9,77,37.6,77.2,39.4z M79.9,49.4c-1.4,0-2.5,1-2.5,1.8c0,2.2,0.8,2.9,2.5,3.1c1.2,0.1,2.3-1.2,2.3-2.5
			C82.2,50.5,81.1,49.4,79.9,49.4z M67.2,54.2c0,1.5,0.9,2.4,2.3,2.5c1.2,0,2.5-0.9,2.5-2.4c0-1.2-1.2-2.4-2.4-2.4
			C68.5,51.8,66.9,52.9,67.2,54.2z"/>
		<path class="st1" d="M109.1,130.4c0-23.1,0-46.2,0-69.3c0-1.1,0-1.1,1.1-1.5c1.3-0.4,2.6-1,3.8-1.8c1.2-0.8,2.5-1.5,3.4-2.6
			c2.4-2.6,3.8-5.6,4.4-9c0.5-2.6,0.3-5.3-0.6-7.8c-0.9-2.5-2-4.8-4-6.5c-1.5-1.3-3.1-2.5-4.9-3.4c-1.6-0.8-3.3-1.3-5-1.5
			c-1.2-0.1-2.6-0.2-3.9,0c-1.7,0.2-3.4,0.6-5,1.4c-0.6,0.3-1.1,0.6-1.6,0.9c-0.3,0.2-0.6,0.1-0.9-0.1c-1-1.1-2.2-2-3.4-2.8
			c-2.3-1.7-4.8-3-7.3-4.3c-3.5-1.8-7.3-2.8-11.1-3.4c-1.1-0.2-2.2-0.2-3.3-0.3c-0.9-0.1-1.9,0-2.8-0.1C68.1,17.9,68,18,67.8,18
			c-0.1,0-0.3,0-0.4,0c-0.9,0-1.9,0-2.8,0c0,0,0-0.1-0.1-0.1c0-0.1,0-0.1-0.1-0.2c-0.2-0.5-0.5-1-0.7-1.5c-0.2-0.4-0.3-0.9-0.5-1.3
			c-0.5-1.1-1.4-1.9-2.1-2.9c-1.2-1.7-2.8-3-4.3-4.4c-0.4-0.5-1-0.8-1.5-1.1c-1.5-0.9-3-1.8-4.6-2.3c-0.6-0.2-1.3-0.3-1.9-0.7
			c1.4-0.8,3.1-1,4.6-1.5c0.7-0.2,1.4-0.5,2-0.6c2.1-0.2,4.2-0.8,6.4-1c3.5-0.4,6.9-0.7,10.4-0.6C78.7,0.2,85,1.2,91.1,3
			c2,0.6,4.1,1.3,6,2.1c1.5,0.6,3,1.3,4.5,2.1c1.2,0.6,2.5,1.2,3.7,1.9c1.2,0.6,2.2,1.4,3.4,2c1.6,0.8,3,2,4.4,3
			c1.2,0.8,2.2,1.8,3.3,2.7c0.7,0.6,1.4,1.2,2.1,1.8c0.9,0.7,1.6,1.5,2.4,2.3c1.6,1.4,2.9,3.1,4.3,4.7c1,1.2,2,2.4,2.9,3.7
			c1.5,2,2.8,4.1,4,6.2c1.1,1.9,2.1,3.9,3,5.9c0.3,0.6,0.6,1.2,0.8,1.8c0.4,1.2,0.9,2.3,1.3,3.5c0.5,1.7,1.2,3.4,1.6,5.1
			c0.4,1.4,0.7,2.7,1,4.1c0.2,1.1,0.5,2.2,0.7,3.3c0.4,2.2,0.6,4.4,0.8,6.5c0.3,3.2,0.2,6.5,0.1,9.7c-0.1,3.4-0.6,6.7-1.4,10
			c-0.1,0.4-0.1,0.8-0.2,1.2c-0.3,1-0.5,2-1,3c-0.2,0.3-0.1,0.9-0.3,1.3c-0.4,1.4-0.9,2.8-1.4,4.2c-0.9,2.5-2,4.9-3.2,7.2
			c-1.2,2.4-2.5,4.8-4,7c-2.4,3.4-4.9,6.7-7.7,9.7c-3.5,3.7-7.3,7.1-11.5,10C110.4,129.8,109.8,130.2,109.1,130.4z"/>
		<path class="st1" d="M26.9,126.3c-1.8-1.2-3.5-2.7-5-4.2c-1.8-1.8-3.6-3.6-5.2-5.6c-0.7-0.9-1.3-1.8-2-2.6
			c-0.8-0.9-1.4-1.9-2.1-2.8c-3.4-4.9-6.1-10.1-8.1-15.6C2.6,90.3,1.3,85,0.6,79.5c-0.2-1.4-0.3-2.9-0.4-4.3
			C-0.1,73,0,70.7,0.1,68.5c0.2-5.3,1-10.5,2.4-15.6c2-7.3,5-14.2,9.1-20.6c2-3.1,4.2-6.1,6.7-8.8c0.2-0.2,0.3-0.4,0.5-0.4
			c0,0.7,0,1.3-0.1,2c-0.2,2.1-0.1,4.1,0.3,6.1c0.3,1.7,0.8,3.4,1.5,4.9c0.4,0.8,0.7,1.7,1.1,2.5c0.9,1.6,2.1,3.1,3.4,4.5
			c1.1,1.1,2.1,2.2,3.4,3.1c0.3,0.2,0.3,0.4,0.2,0.7c-0.4,1.2-0.8,2.4-1,3.7c-0.6,3.2-0.9,6.5-0.9,9.7c0,7.7,0,15.3,0,23
			C26.9,97.6,26.9,112,26.9,126.3z"/>
		<path class="st2" d="M26.9,126.3c0-14.4,0-28.7,0-43.1c0-7.7,0-15.3,0-23c0-3.3,0.3-6.5,0.9-9.7c0.2-1.2,0.6-2.5,1-3.7
			c0.1-0.3,0.1-0.5-0.2-0.7c-1.2-0.9-2.3-2-3.4-3.1c-1.3-1.4-2.5-2.8-3.4-4.5c-0.5-0.8-0.7-1.6-1.1-2.5c-0.7-1.6-1.2-3.2-1.5-4.9
			c-0.4-2-0.5-4.1-0.3-6.1c0-0.7,0.1-1.3,0.1-2c0.5-0.8,0.7-1.8,0.9-2.7c0.4-1.9,1.3-3.6,2.2-5.2c1-1.8,2.3-3.4,3.7-4.9
			c1-1,2-1.9,3.2-2.7c1.6-1.1,3.2-2.1,5-2.8c2.1-0.8,4.3-1.3,6.5-1.6c2.3-0.3,4.5-0.3,6.8,0.3c0.6,0.1,1.2,0.3,1.8,0.3
			c0.6,0.4,1.2,0.5,1.9,0.7c1.7,0.5,3.2,1.4,4.6,2.3c0.5,0.3,1.1,0.6,1.5,1.1c-0.3,0.4-0.7,0.3-1.1,0.4c-1.5,0.2-3,0.3-4.5,0.7
			c-0.4,0.1-0.5,0.6-1,0.5c-0.5-0.2-1-0.5-1.5-0.7c-2.7-1-5.5-1.4-8.4-1.3c-2.8,0.1-5.3,0.9-7.7,2.2c-1.4,0.8-2.6,1.9-3.8,2.9
			c-1.2,1.1-2.3,2.2-3.1,3.6c-2.7,4.3-3.4,9-2.5,13.9c0.3,1.8,1,3.5,1.8,5c1.8,3.3,4.3,5.8,7.6,7.6c0.5,0.3,1.1,0.7,1.6,0.9
			c1.2,0.4,2.5,0.9,3.7,1.2c0.2,0.5,0.5,1,0.8,1.4c0.8,1.1,1.5,2.3,2.2,3.4c0.7,1.1,1.3,2.2,1.5,3.4c0.3,1.7,0.3,3.4,0.1,5.1
			c-0.1,1.1-0.2,2.2-0.3,3.3c-0.3,3.1-0.1,6.3-0.1,9.4c0,0.3-0.1,0.5-0.1,0.8c-2-2-3.7-4.2-5.7-6.2c-0.4-0.4-0.7-0.8-1.1-1.2
			c-0.1-0.1-0.2-0.3-0.4-0.2c-0.2,0.1,0,0.3,0,0.4c0.1,0.4,0.2,0.9,0.3,1.3c0.7,3,1.2,6,1.9,9c0.4,1.6,0.7,3.2,1,4.9
			c-0.1,0.1-0.2,0.2-0.3,0.2c-0.9,0.1-1.5,0.7-2.1,1.3c-1.4,1.4-1,3.5,0,4.7c0.9,1.1,2.2,1.5,3.6,1.5c1,0,1.9,0,2.9,0
			c0,15.6,0,31.2,0,46.8c0,0.4,0.1,0.8,0.1,1.2c0.1,0.4,0.4,0.4,0.7,0.5c0.3,0.1,0.6,0.1,0.8,0.5c-2.9-1-5.5-2.4-8.1-3.9
			c-3-1.7-5.8-3.7-8.5-5.8C27.1,126.6,27,126.4,26.9,126.3z"/>
		<path class="st2" d="M47.7,137.8c1.1,0.1,2.1,0.5,3,1C49.7,138.6,48.7,138.2,47.7,137.8z"/>
		<path class="st3" d="M38.1,44.7c-1.3-0.3-2.5-0.7-3.7-1.2c-0.5-0.2-1.1-0.6-1.6-0.9c-3.2-1.8-5.8-4.3-7.6-7.6
			c-0.9-1.6-1.5-3.3-1.8-5c-0.9-4.9-0.2-9.6,2.5-13.9c0.8-1.4,1.9-2.5,3.1-3.6c1.2-1,2.4-2.1,3.8-2.9c2.4-1.4,5-2.1,7.7-2.2
			c2.9-0.1,5.7,0.2,8.4,1.3c0.5,0.2,1,0.5,1.5,0.7c1.4,0.8,2.7,1.5,3.9,2.5c2.6,2.3,4.5,5.1,5.5,8.5c1.5,5.1,1.2,10.1-1.4,14.8
			c-2.5,4.6-6.4,7.6-11.4,9.1c-2.7,0.8-5.5,0.8-8.2,0.5C38.5,44.7,38.3,44.7,38.1,44.7z M30.7,27c-0.1,5.9,4.9,11.4,11.5,11.2
			c5-0.1,10.7-4.3,10.7-11.1c0-6.1-5.1-11.5-11.8-11C35.6,16.5,30.8,20.7,30.7,27z"/>
		<path class="st4" d="M42.2,87.3c-1,0-1.9,0-2.9,0c-1.4,0-2.7-0.4-3.6-1.5c-1-1.3-1.4-3.3,0-4.7c0.6-0.6,1.2-1.2,2.1-1.3
			c0.1,0,0.2-0.1,0.3-0.2c0.1,0,0.2,0,0.4,0c3.4-0.2,6.9-0.1,10.3-0.1c0.8,0.2,1.6,0.1,2.4,0.1c1,0,2.1,0,3.1,0c2.8,0,5.6,0,8.3,0
			c0.1,0,0.2-0.1,0.3-0.1c0.3,0.2,0.6,0.1,0.8,0.1c1.2,0,2.4,0,3.6,0c0.3,0,0.6,0,0.9,0c2.7-0.1,5.3-0.1,8,0l0.1,0
			c0.1,0,0.2,0,0.3,0c2.9,0,5.8,0,8.6,0c0.2,0,0.4,0,0.6-0.1c0.3,0.2,0.6,0.1,0.9,0.1c3.4-0.1,6.8-0.1,10.2-0.1l0,0l0,0
			c0.1,0,0.2,0,0.3,0c0.7,0.2,1.5,0.3,2.2,0.7c2.3,1.6,2.4,4.8,0,6.3c-0.7,0.5-1.5,0.8-2.4,0.8C78.8,87.2,60.5,87.3,42.2,87.3z"/>
		<path class="st3" d="M93.2,44.2c-0.1-7.4,6.3-11.6,11-11.9c7.4-0.5,12.9,5.4,13,11.6c0.1,6.6-5.2,11.9-11.3,12.2
			C98.6,56.3,93.2,50.7,93.2,44.2z M105.1,37.8c-2.2,0-3.8,1-5.2,2.4c-1.5,1.6-1.9,3.5-1.6,5.6c0.4,2.9,3,6,6.9,6
			c3.9-0.1,6.9-3,6.9-7.1C112.1,40.6,108.9,37.8,105.1,37.8z"/>
		<path class="st3" d="M76.3,79.5c-2.7-0.1-5.3-0.1-8,0c-0.3,0-0.6,0-0.9,0c-0.1-0.9,0.3-1.8,0.4-2.7c0.4-2,0.8-4,1.2-6
			c0.4-2.1,0.9-4.2,1.3-6.3c0.4-2.3,0.9-4.5,1.5-6.8c0-0.1,0-0.3,0.2-0.4c0.1,0.8,0.3,1.5,0.4,2.3c0.3,1.8,0.8,3.6,1.2,5.4
			c1,4.7,2,9.3,3,13.9c0,0.2,0,0.4,0,0.6C76.6,79.5,76.5,79.5,76.3,79.5C76.4,79.5,76.4,79.5,76.3,79.5L76.3,79.5z"/>
		<path class="st3" d="M97,79.4c-3.4,0-6.8,0-10.2,0.1c-0.3,0-0.6,0.1-0.9-0.1c0.3-0.2,0.4-0.6,0.5-0.9c2.2-5.2,4.3-10.3,6.4-15.5
			c0.1-0.2,0.2-0.5,0.2-0.7c0-0.1,0.1-0.2,0.3-0.2c0.2,0,0.2,0.2,0.2,0.3c0.4,2.6,1.1,5.1,1.7,7.6c0.6,2.7,1.3,5.5,1.9,8.2
			c0.1,0.4,0.3,0.8,0.2,1.2C97.2,79.4,97.2,79.4,97,79.4C97,79.4,97,79.4,97,79.4z"/>
		<path class="st3" d="M48.8,79.4c-3.4,0-6.9-0.1-10.3,0.1c-0.1,0-0.2,0-0.4,0c-0.3-1.6-0.6-3.3-1-4.9c-0.7-3-1.2-6-1.9-9
			c-0.1-0.4-0.1-0.9-0.3-1.3c0-0.1-0.2-0.3,0-0.4c0.2-0.1,0.3,0.1,0.4,0.2c0.4,0.4,0.7,0.8,1.1,1.2c2,2,3.7,4.2,5.7,6.2
			c1,1.1,1.9,2.1,2.9,3.2c1.3,1.4,2.6,2.8,3.9,4.3C49.1,79.2,49.1,79.3,48.8,79.4z"/>
		<path class="st4" d="M67.2,30.3C67,27.7,69.4,26,71.4,26c2.5,0,4.4,1.9,4.4,4.4c0,2.5-2,4.3-4.4,4.3
			C69.2,34.7,67.1,32.8,67.2,30.3z"/>
		<path class="st4" d="M92.2,32.2c0.2,2.4-2,4.4-4.3,4.3c-2.3-0.1-4.1-1.8-4.2-4.3c-0.1-2.3,2.3-4.3,4.3-4.3
			C90.2,28,92.3,29.9,92.2,32.2z"/>
		<path class="st4" d="M62.9,42.7c-0.3-2.2,2.2-4.3,4.3-4.2c2.2,0,4.2,2,4.2,4.3c0,2.3-2,4.3-4.3,4.3C65.2,47.1,62.6,45.4,62.9,42.7
			z"/>
		<path class="st3" d="M63,79.4c-0.1,0-0.2,0.1-0.3,0.1c-2.8,0-5.6,0-8.3,0c0.2-1,0.4-2,0.7-2.9c0.5-1.5,0.9-2.9,1.3-4.4
			c0.3-1.1,0.8-2.1,0.8-3.2c0-0.1,0-0.2,0.2-0.3C59.2,72.2,61.1,75.8,63,79.4z"/>
		<path class="st4" d="M77.2,39.4c-0.1-1.8,1.3-2.5,2.6-2.5c1.6-0.1,2.7,1.1,2.7,2.7c0,1.5-1.2,2.6-2.7,2.6
			C78.3,42.2,77,40.8,77.2,39.4z"/>
		<path class="st4" d="M79.9,49.4c1.2,0,2.3,1.1,2.3,2.4c0,1.3-1.1,2.6-2.3,2.5c-1.7-0.2-2.5-0.9-2.5-3.1
			C77.4,50.4,78.5,49.3,79.9,49.4z"/>
		<path class="st4" d="M67.2,54.2c-0.3-1.3,1.3-2.3,2.4-2.3c1.2,0,2.4,1.2,2.4,2.4c0,1.5-1.3,2.5-2.5,2.4
			C68.1,56.6,67.2,55.7,67.2,54.2z"/>
		<path class="st2" d="M64.6,18c0.9,0,1.9,0,2.8,0C66.5,18.1,65.6,18.2,64.6,18z"/>
		<path class="st2" d="M67.8,18c0.1,0,0.3-0.1,0.4,0.1C68.1,18.1,67.9,18.1,67.8,18z"/>
		<path class="st2" d="M64.5,17.8c0.1,0,0.1,0.1,0.1,0.2C64.6,17.9,64.5,17.8,64.5,17.8z"/>
		<path class="st4" d="M30.7,27c0.1-6.3,4.9-10.5,10.3-10.9c6.8-0.5,11.8,4.9,11.8,11c0,6.8-5.7,11-10.7,11.1
			C35.5,38.4,30.6,33,30.7,27z M48.7,23c0.1-0.1,0.2-0.3,0.2-0.4c0.7-1.8-0.5-3.6-2.4-3.6c-0.6,0-1.1,0.3-1.7,0.5
			c-2.7-1.2-5.3-0.7-7.7,0.7c-3.5,2.1-4.8,6.8-2.9,10.7c2.2,4.4,7.6,5.9,11.7,3.5c3.1-1.8,4.4-4.6,4-8.2
			C49.8,25.1,49.6,23.9,48.7,23z"/>
		<polygon class="st0" points="76.3,79.5 76.4,79.5 76.4,79.5 		"/>
		<path class="st0" d="M97,79.4C97,79.4,97,79.4,97,79.4C97.1,79.4,97,79.5,97,79.4L97,79.4z"/>
		<path class="st4" d="M105.1,37.8c3.8,0,7.1,2.8,7.1,6.9c0,4.1-3,7-6.9,7.1c-4,0.1-6.6-3.1-6.9-6c-0.3-2.1,0.1-4.1,1.6-5.6
			C101.2,38.8,102.9,37.8,105.1,37.8z M109.5,42.3c-0.1-0.3,0.1-0.4,0.2-0.6c0.4-0.7-0.2-2-1-2.1c-0.5,0-1.1-0.1-1.6,0.1
			c-0.2,0-0.3-0.1-0.5-0.1c-1.9-0.4-3.5-0.1-5,1.2c-2,1.7-2.5,4.8-0.8,7c1.1,1.4,3.5,2.9,5.8,1.9c3-1.2,3.9-3.5,3.5-6.2
			C110.2,43.1,110,42.6,109.5,42.3z"/>
		<path class="st5" d="M48.7,23c0.9,0.9,1.1,2.1,1.2,3.2c0.3,3.5-1,6.4-4,8.2c-4.1,2.4-9.5,1-11.7-3.5c-1.9-3.9-0.6-8.6,2.9-10.7
			c2.4-1.5,5-1.9,7.7-0.7c-0.2,0.2-0.3,0.5-0.5,0.7c-0.7,1.2-0.4,3.3,1.4,3.7C46.9,24.2,48,24.1,48.7,23z M44.7,27.2
			c0-1.7-1.3-3.1-3-3.1c-1.7,0-3.2,1.6-3.1,3c0,1.7,1.4,3.1,3.1,3.1C43.3,30.3,44.7,28.9,44.7,27.2z"/>
		<path class="st3" d="M48.7,23c-0.7,1.1-1.8,1.2-2.9,0.9c-1.9-0.4-2.1-2.5-1.4-3.7c0.1-0.2,0.3-0.5,0.5-0.7c0.5-0.2,1-0.5,1.7-0.5
			c1.9,0,3.1,1.8,2.4,3.6C48.9,22.7,48.8,22.8,48.7,23z"/>
		<path class="st5" d="M109.5,42.3c0.5,0.3,0.7,0.8,0.7,1.3c0.4,2.8-0.5,5-3.5,6.2c-2.3,0.9-4.7-0.5-5.8-1.9c-1.7-2.2-1.2-5.3,0.8-7
			c1.5-1.3,3.1-1.6,5-1.2c0.2,0,0.3,0.1,0.5,0.1c-0.2,0.3-0.4,0.7-0.5,1c-0.2,0.5,0.2,1.6,0.6,1.7C108,42.8,108.8,42.9,109.5,42.3z
			 M103.1,44.8c0,1.1,0.8,1.8,1.9,1.9c1.4,0.1,2-0.9,2-1.9c0-1.2-0.6-1.9-1.9-1.9C104,42.8,103.1,43.7,103.1,44.8z"/>
		<path class="st3" d="M109.5,42.3c-0.7,0.6-1.5,0.5-2.3,0.3c-0.4-0.1-0.8-1.3-0.6-1.7c0.2-0.4,0.3-0.7,0.5-1
			c0.5-0.2,1.1-0.2,1.6-0.1c0.8,0,1.4,1.4,1,2.1C109.6,41.9,109.4,42.1,109.5,42.3z"/>
		<path class="st3" d="M44.7,27.2c0,1.7-1.4,3.1-3.1,3.1c-1.7,0-3.1-1.5-3.1-3.1c0-1.4,1.5-3.1,3.1-3C43.4,24.1,44.7,25.5,44.7,27.2
			z"/>
		<path class="st3" d="M103.1,44.8c-0.1-1.1,0.9-2,2-2c1.2,0,1.9,0.7,1.9,1.9c0,1.1-0.6,2-2,1.9C103.9,46.6,103.1,45.9,103.1,44.8z"
			/>
	</g>
</g>
</svg>
