<?xml version="1.0" encoding="utf-8"?>
<!-- Generator: Adobe Illustrator 27.3.1, SVG Export Plug-In . SVG Version: 6.00 Build 0)  -->
<svg version="1.1" id="Ebene_1" xmlns="http://www.w3.org/2000/svg" xmlns:xlink="http://www.w3.org/1999/xlink" x="0px" y="0px"
	 viewBox="0 0 141.7 141.7" style="enable-background:new 0 0 141.7 141.7;" xml:space="preserve">
<style type="text/css">
	.st0{fill:#F6BB37;}
	.st1{fill:#3684C6;}
	.st2{fill:#DCA12A;}
	.st3{fill:#FCFCFE;}
	.st4{fill:#E97E2F;}
	.st5{fill:#28273D;}
	.st6{fill:#7F65AA;}
	.st7{fill:#B49ECB;}
	.st8{fill:#66529D;}
	.st9{fill:#33314C;}
	.st10{fill:#35ACC6;}
	.st11{fill:#27263D;}
	.st12{fill:#DB191D;}
	.st13{fill:#42BEE1;}
	.st14{fill:#EE715E;}
	.st15{fill:#396CB3;}
	.st16{fill:#EA5B4C;}
	.st17{fill:#F2C551;}
	.st18{fill:#27273D;}
	.st19{fill:#B0CF6D;}
	.st20{fill:#28263D;}
	.st21{fill:#9E4A30;}
	.st22{fill:#DB1E1D;}
	.st23{fill:#FBFBFD;}
	.st24{fill:#A3C163;}
	.st25{fill:#3F426D;}
	.st26{fill:#33304C;}
	.st27{fill:#DB181D;}
	.st28{fill:#83C4ED;}
	.st29{fill:#B6622B;}
	.st30{fill:#AB795E;}
	.st31{fill:#88C7EE;}
	.st32{fill:#9BB7CC;}
	.st33{fill:#E97F31;}
	.st34{fill:#CD6F2C;}
	.st35{fill:#A8A4A6;}
	.st36{fill:#84C4EC;}
	.st37{fill:#FEFEFE;}
	.st38{fill:#D91F1D;}
	.st39{fill:#F29454;}
	.st40{fill:#3C86C6;}
	.st41{fill:#F8FAFD;}
	.st42{fill:#AD8ABF;}
	.st43{fill:#67529E;}
	.st44{fill:#F6D373;}
	.st45{fill:#29273D;}
	.st46{fill:#EE715D;}
	.st47{fill:#F9C6BD;}
	.st48{fill:#A65E3A;}
	.st49{fill:#F18B88;}
	.st50{fill:#82C2EC;}
	.st51{fill:#E28080;}
	.st52{fill:#D57474;}
	.st53{fill:#4F5173;}
	.st54{fill:#3785C6;}
	.st55{fill:#E84680;}
	.st56{fill:#28273E;}
	.st57{fill:#E13072;}
	.st58{fill:#F5BA37;}
	.st59{fill:#F3C651;}
	.st60{fill:#DB5144;}
	.st61{fill:#A17FB8;}
	.st62{fill:#AC8ABE;}
	.st63{fill:#342E4F;}
	.st64{fill:#2DAC64;}
	.st65{fill:#5CB993;}
	.st66{fill:#9DBA5C;}
	.st67{fill:#5AB992;}
	.st68{fill:#66529E;}
	.st69{fill:#EA5A4C;}
	.st70{fill:#12994E;}
	.st71{fill:#DE5044;}
	.st72{fill:#EE715F;}
	.st73{fill:#E97F2F;}
	.st74{fill:#A89AC9;}
	.st75{fill:#38B3CD;}
	.st76{fill:#DD3D78;}
	.st77{fill:#F5D373;}
	.st78{fill:#FDEAB4;}
	.st79{fill:#7F66AA;}
	.st80{fill:#3885C6;}
	.st81{fill:#40436D;}
	.st82{fill:#A99ACA;}
	.st83{fill:#34314B;}
	.st84{fill:#F4D273;}
	.st85{fill:#83C5ED;}
	.st86{fill:#D29C2C;}
	.st87{fill:#87C7EE;}
	.st88{fill:#F6BB38;}
	.st89{fill:#F6BB3A;}
	.st90{fill:#E83D69;}
	.st91{fill:#F4BC3F;}
	.st92{fill:#85C5EB;}
	.st93{fill:#DA1E1D;}
	.st94{fill:#DDA736;}
	.st95{fill:#F18D88;}
	.st96{fill:#FFFEFE;}
	.st97{fill:#F9C8BC;}
	.st98{fill:#3B85C6;}
</style>
<g id="VusBRJ.tif">
	<g>
		<path class="st12" d="M112.9,127.7c-0.7,0.9-1.7,1.4-2.6,2c-1.9,1.3-3.9,2.5-6,3.6c-3.6,2-7.4,3.6-11.3,4.9
			c-1.8,0.6-3.6,1-5.3,1.6c-1.1,0.3-2.2,0.4-3.2,0.7c-1.1,0.3-2.3,0.5-3.4,0.6c-1.9,0.1-3.7,0.5-5.6,0.6c-2.8,0.1-5.6,0-8.4,0.1
			c-1.5,0-3-0.3-4.5-0.4c-1.3-0.1-2.6-0.4-3.8-0.5c-1.9-0.2-3.7-0.7-5.4-1.2c-0.9-0.3-1.8-0.4-2.7-0.7c-4.7-1.5-9.2-3.4-13.6-5.7
			c-2.5-1.3-4.8-2.9-7.2-4.5c-0.3-0.2-0.5-0.5-0.8-0.7c-0.6-1.6-1.5-3-2.2-4.5c-1.7-3.5-3-7.1-4-10.8c-0.4-1.4-0.7-2.9-1-4.4
			c-0.2-1-0.2-2-0.4-3c-0.1-0.3-0.2-0.7-0.2-1c-0.1-0.8-0.1-1.7-0.2-2.5c-0.1-0.4-0.2-0.9,0-1.3c0-0.1,0-0.2-0.1-0.2
			c-0.1-0.3-0.1-0.7-0.1-1c-0.1-4,0.1-7.9,0.6-11.8c0.1-1,0.2-2,0.4-3c0.3-1.4,0.7-2.8,1.1-4.2c0.3-1.3,0.8-2.6,1-3.9
			c0.1-0.4,0.4-0.9,0.4-1.3c-0.1-0.4-0.8-0.4-1.2-0.6c-1.9-1-3.6-2.4-5.2-3.8c-1.7-1.6-3.1-3.4-4.3-5.4c-1.1-1.7-1.8-3.5-2.5-5.4
			c-0.8-2.3-1.2-4.7-1.2-7.1c-0.1-1.9,0.3-3.7,0.6-5.6c0.2-1.4,0.7-2.7,1.1-3.9c0.4-1.1,1-2.1,1.5-3.1c1.5-2.9,3.6-5.4,6.2-7.3
			c1.2-0.9,2.4-1.7,3.6-2.4c1.3-0.7,2.6-1.4,4.1-1.8c1.9-0.6,3.8-1,5.8-1.1c1.9-0.1,3.9,0,5.8,0.2c0.6,0.1,1.2,0.4,1.8,0.4
			c0.5,0,0.8,0,0.8-0.7c-0.2-2.2,0.4-4.3,1.1-6.3c0.4-1.1,1-2.1,1.6-3.2c0.2-0.3,0.2-0.6,0.5-0.9c1.1-1.3,2.1-2.7,3.5-3.7
			c1.6-1.2,3.3-2.3,5.2-3c2.5-1,5-1.5,7.7-1.3c0.8,0,1.6,0.2,2.4,0.4c1.7,0.3,3.3,0.7,4.8,1.5c1.7,1,3.5,2.1,4.8,3.6
			c1.2,1.3,2.5,2.7,3.3,4.3c0.2,0.4,0.4,0.7,0.6,1.1c0.2,0.3,0.5,0.5,0.9,0.2c1.4-1.3,3-2.5,4.8-3.3c1.5-0.7,2.9-1.5,4.6-1.9
			c1.4-0.4,2.8-0.5,4.2-0.6l0,0l0,0c1.4-0.2,2.7,0,4.1,0.2c2.3,0.3,4.5,1,6.6,2c2.9,1.4,5.3,3.4,7.3,5.7c0.4,0.5,1,0.9,1.3,1.5
			c0.6,1.4,1.5,2.6,2.1,4c0.2,0.4,0.5,0.6,0.9,0.8c0.8,0.2,1.6,0.4,2.3,0.7c2,0.9,4,1.8,5.8,3.2c2.6,2,4.9,4.2,6.6,6.9
			c1,1.5,1.7,3.2,2.3,4.9c0.6,1.7,1.1,3.4,1.3,5.2c0.1,0.8,0,1.6,0.1,2.4c0.1,0.9,0.1,1.7,0,2.6c-0.2,1.9-0.6,3.7-1.1,5.4
			c-0.5,1.6-1.1,3.2-1.9,4.7c-1.4,2.6-3.2,4.8-5.5,6.7c-1.6,1.3-3.2,2.6-5.1,3.5c-0.6,0.3-0.7,0.6-0.5,1.2c0.7,2.4,1.5,4.9,2,7.4
			c0.4,1.9,0.8,3.9,1,5.8c0.2,2.4,0.3,4.8,0.4,7.3c0,0.8-0.1,1.6-0.1,2.4c0,1.8-0.1,3.6-0.3,5.4c0,0.4,0.1,0.8,0,1.1
			c-0.3,0.5-0.3,1.1-0.4,1.7c-0.2,1.7-0.7,3.4-1,5.1c-0.3,1.5-0.9,2.9-1.3,4.3c-1,3.3-2.3,6.5-3.9,9.5
			C113.6,126.4,113.1,127,112.9,127.7z M70.8,99.4c0,0,0.1,0,0.1,0c0.2,0,0.3,0,0.5,0c2,0.1,3.9,0,5.9,0c1.5,0,3-0.1,4.4-0.6
			c4.2-1.6,5.8-6.6,3.7-10.4c-1.1-2.1-2.9-3.2-5.1-3.9c-0.8-0.4-1.7-0.2-2.6-0.1c-1.6,0-3.2,0-4.8,0c-2.3,0-4.7,0-7,0
			c0,0-0.1,0-0.1,0c-0.7-0.2-1.3-0.2-2,0c-1.4,0.1-2.8,0-4.2,0c-0.2,0-0.5-0.1-0.7,0.1c-3.3,0.8-5.2,2.9-6,6.2
			c-0.1,0.1-0.1,0.1,0,0.2c0,0.1,0,0.2,0,0.3c0,0,0,0.1,0,0.1c0,0.4,0,0.8,0,1.2c0,0.2-0.1,0.4,0.1,0.6c0.2,1.3,0.7,2.4,1.6,3.4
			c1.9,2.3,4.4,3.2,7.3,2.8c0.2,0,0.5,0,0.7,0c2,0.2,4,0.1,5.9,0c0.1,0,0.1,0,0.2,0c0.1,0,0.1,0,0.2,0c0.5,0,1,0,1.5,0
			C70.5,99.4,70.6,99.4,70.8,99.4z M99.2,34.5c0.2,0,0.3,0,0.3-0.3c0,0,0.1-0.1,0.1-0.1c0.4-0.1,0.6-0.3,0.6-0.7
			c0,0,0.1-0.1,0.1-0.1c0.1,0,0.1,0,0.1-0.1c1-1.2,1.3-2.8,1.7-4.3c0.3-0.2,0.3-0.4,0.1-0.6c0-1.7-0.2-3.4-1.1-4.9
			c-1.7-2.8-4.2-4.4-7.4-4.6c-2.4-0.2-4.6,0.6-6.4,2.2c-1.5,1.3-2.6,2.8-2.9,4.8c-0.2,1.1-0.4,2.1-0.2,3.2c0.2,2,1,3.7,2.4,5.1
			c0.2,0.2,0.5,0.4,0.8,0.7c1.1,1.1,2.4,1.7,3.9,2c1.3,0.2,2.6,0.4,3.9,0C96.6,36.1,98,35.5,99.2,34.5z M78.8,51.5
			c-5.2,0-10.4,0-15.6,0c-3.1,0-3.9,1.9-4.2,4.3c-0.3,2.5,0.5,5,0.9,7.5c0.2,1.3,0.4,2.5,0.8,3.7c0.6,2.2,1.8,4,3.3,5.6
			c0.8,0.8,1.7,1.5,2.9,1.9c2.2,0.8,4.4,0.6,6.6,0.3c2.4-0.3,4-1.9,5.4-3.6c0.6-0.7,1.1-1.5,1.5-2.4c1-2.1,1.4-4.3,1.7-6.6
			c0.2-1.4,0.3-2.7,0.6-4c0.3-1.6,0-3-0.5-4.5c-0.3-1.1-2-2.2-2.9-2C79.3,51.3,79.1,51.5,78.8,51.5z M93.1,51.6
			C93.1,51.6,93.1,51.6,93.1,51.6c0,0.1,0,0.1,0,0.1c0,0.1,0,0.2,0,0.4c-0.1,0-0.1,0.1,0,0.1c0,0.1,0,0.2,0,0.3
			c-0.1,0-0.1,0.1,0,0.1c0,0.1,0,0.2,0,0.4c0,0,0,0,0,0c0,0,0,0.1,0,0.1c0,1.1,0.1,2.1,0.4,3.2c0.4,1.6,1,3.2,1.8,4.7
			c0.4,0.8,1,1.5,1.5,2.2c1,1.3,2.2,2.3,3.5,3.2c2.5,1.8,5.4,2.8,8.5,3.1c1.6,0.2,3.3,0.1,5-0.3c6.8-1.6,11.2-5.8,13.2-12.5
			c0.6-2.1,0.6-4.3,0.3-6.5c-0.3-1.8-0.6-3.6-1.4-5.3c-1.5-3.1-3.7-5.5-6.7-7.2c-2.4-1.4-5-2.2-7.8-2.4c-1.7-0.1-3.4-0.1-5,0.3
			c-1.9,0.5-3.7,1.1-5.3,2.3c-0.8,0.6-1.7,1.3-2.5,1.9c-1,0.8-1.6,1.8-2.3,2.8c-1.2,1.7-1.9,3.6-2.6,5.6c-0.3,0.8-0.3,1.6-0.5,2.4
			C93.1,51,92.9,51.3,93.1,51.6z M50.4,52.2c0.1-1.5-0.2-2.9-0.5-4.3c-0.6-2.8-1.9-5.3-3.9-7.3c-2.7-2.8-6-4.9-10-5.3
			c-1.6-0.2-3.2-0.3-4.9-0.1c-1.6,0.2-3.2,0.5-4.7,1.2c-1.8,0.8-3.3,1.9-4.8,3.2c-0.6,0.5-1,1.1-1.5,1.7c-0.6,0.8-1.3,1.5-1.8,2.4
			c-0.6,1.1-1.1,2.2-1.5,3.4c-0.4,1-0.6,2.1-0.7,3.2c-0.1,1,0,1.9,0,2.9c0,1.4,0.3,2.7,0.6,3.9c0.5,1.8,1.3,3.5,2.5,4.9
			c0.8,1,1.4,2.1,2.5,2.9c0.9,0.6,1.7,1.4,2.6,1.9c0.9,0.5,1.8,1,2.7,1.3c0.5,0.2,1.1,0.2,1.6,0.4c1.4,0.5,2.8,0.6,4.2,0.7
			c1.2,0.1,2.3-0.1,3.5-0.2c0.6,0,1.1-0.3,1.7-0.4c5.4-1.5,9.1-5,11.3-10.1C50,56.6,50.3,54.4,50.4,52.2z M75.3,27.1
			c0-2.8-1.8-6.7-5.6-9.6c-3.7-2.9-7.9-3.6-12.5-2.8c-5.4,0.9-12.7,7.5-11.3,16.9c1.1,6.9,7.4,12.8,15.6,12.3
			C70.2,43.4,75.6,36,75.3,27.1z M102.2,92.8c5.5,0.1,9.7-4.4,9.8-9.4c0.1-5.9-4.4-10.2-9.9-10.1c-5.8,0.1-9.5,4-9.6,9.8
			C92.4,88.8,96.7,92.6,102.2,92.8z M30.3,83c-0.1,5.6,4.4,9.6,9.1,9.8c6.1,0.3,10.3-4.4,10.3-9.4c0.1-6-4.4-10.1-9.9-10.1
			C34.4,73.2,30.3,77.5,30.3,83z M52.9,104.7c0-3.5-2.8-6.2-6.2-6.2c-3.3,0-6,2.8-6,6.1c0,3.5,2.7,6.1,6,6.2
			C50.2,110.8,53.1,107.6,52.9,104.7z M100.4,104.7c-0.1-3.8-2.7-6.1-6.1-6.2c-3.6-0.1-6,2.9-6.1,6c-0.2,3.2,3,6.3,6,6.3
			C97.9,110.7,100.3,108.1,100.4,104.7z M64.9,107.2c0.1-2.4-1.7-4.3-4.1-4.3c-2.7,0-4.5,1.9-4.5,4.2c-0.1,2.6,2.1,4.5,4.2,4.6
			C62.9,111.7,65,109.6,64.9,107.2z M84.9,107.2c0.1-2-1.8-4.4-4.4-4.3c-2.4,0-4.3,2.3-4.3,4.4c0,2.4,2,4.4,4.4,4.4
			C82.9,111.6,84.9,109.5,84.9,107.2z M50.1,114.2c0.1,1.8,1.1,2.8,2.9,2.8c1.4,0,2.6-0.9,2.6-2.8c0-1.6-1.1-2.8-2.7-2.8
			C51.4,111.5,50.1,112.8,50.1,114.2z M52.9,123.2c0,1.5,1.2,2.9,2.6,2.8c1.7-0.1,2.8-1.1,2.9-2.7c0-1.6-1.1-2.7-2.8-2.8
			C54.3,120.4,52.7,121.5,52.9,123.2z M101.7,116.1c0.2-1.8-1.3-2.8-2.7-2.8c-1.7,0-2.8,1.5-2.8,2.7c0,1.7,1.2,2.9,2.9,2.9
			C100.5,118.9,101.9,117.9,101.7,116.1z M44.7,116.2c0.2-1.8-1.3-2.8-2.6-2.8c-1.5-0.1-2.8,1.3-2.8,2.7c0,1.8,1.2,2.8,2.8,2.9
			C43.3,118.9,44.9,118,44.7,116.2z M85.4,120.5c-1.5,0.1-2.7,1-2.7,2.7c0,1.4,1.3,2.9,2.6,2.8c1.6-0.1,2.8-1,2.9-2.7
			C88.3,121.7,87,120.4,85.4,120.5z M90.9,114.3c0.1-1.6-1.2-2.8-2.8-2.8c-1.4,0-2.7,1.3-2.7,2.8c0,1.5,1.2,2.7,2.7,2.8
			C89.6,117.1,91.1,115.6,90.9,114.3z"/>
		<path class="st11" d="M112.9,127.7c0.1-0.7,0.7-1.3,1-1.9c1.6-3.1,2.9-6.2,3.9-9.5c0.4-1.4,1-2.9,1.3-4.3c0.4-1.7,0.8-3.4,1-5.1
			c0.1-0.6,0.1-1.2,0.4-1.7c0.2-0.3,0-0.7,0-1.1c0.2-1.8,0.3-3.6,0.3-5.4c0-0.8,0.1-1.6,0.1-2.4c-0.1-2.4-0.2-4.9-0.4-7.3
			c-0.2-2-0.6-3.9-1-5.8c-0.5-2.5-1.3-4.9-2-7.4c-0.2-0.6-0.1-0.9,0.5-1.2c1.9-0.9,3.5-2.2,5.1-3.5c2.3-1.9,4.1-4.2,5.5-6.7
			c0.8-1.5,1.4-3.1,1.9-4.7c0.5-1.8,0.9-3.6,1.1-5.4c0.1-0.9,0.1-1.7,0-2.6c-0.1-0.8,0-1.6-0.1-2.4c-0.2-1.8-0.7-3.5-1.3-5.2
			c-0.6-1.7-1.3-3.4-2.3-4.9c-1.8-2.7-4-5-6.6-6.9c-1.8-1.4-3.8-2.2-5.8-3.2c-0.7-0.3-1.5-0.5-2.3-0.7c-0.4-0.1-0.7-0.4-0.9-0.8
			c-0.6-1.4-1.4-2.6-2.1-4c-0.3-0.6-0.8-1-1.3-1.5c-2.1-2.4-4.4-4.4-7.3-5.7c-2.1-1-4.3-1.8-6.6-2c-1.3-0.1-2.7-0.4-4.1-0.2
			c0,0,0,0,0,0l0,0c-1.4,0.1-2.8,0.2-4.2,0.6c-1.6,0.4-3.1,1.2-4.6,1.9c-1.8,0.9-3.3,2-4.8,3.3c-0.3,0.3-0.6,0.1-0.9-0.2
			c-0.2-0.3-0.4-0.7-0.6-1.1c-0.8-1.7-2.1-3-3.3-4.3c-1.4-1.5-3.1-2.6-4.8-3.6c-1.5-0.8-3.1-1.3-4.8-1.5c-0.8-0.1-1.6-0.3-2.4-0.4
			c-2.7-0.2-5.2,0.3-7.7,1.3c-1.9,0.8-3.5,1.8-5.2,3c-1.4,1.1-2.4,2.4-3.5,3.7c-0.2,0.3-0.3,0.6-0.5,0.9c-0.6,1-1.3,2-1.6,3.2
			c-0.7,2.1-1.3,4.1-1.1,6.3c0.1,0.8-0.2,0.7-0.8,0.7c-0.7,0-1.2-0.3-1.8-0.4c-1.9-0.2-3.8-0.3-5.8-0.2c-2,0.1-3.9,0.5-5.8,1.1
			c-1.4,0.4-2.8,1.1-4.1,1.8c-1.3,0.7-2.5,1.6-3.6,2.4c-2.6,1.9-4.7,4.4-6.2,7.3c-0.5,1-1.1,2-1.5,3.1c-0.5,1.3-0.9,2.6-1.1,3.9
			C10.4,49,10,50.9,10,52.8c0.1,2.4,0.5,4.8,1.2,7.1c0.6,1.9,1.4,3.7,2.5,5.4c1.2,2,2.6,3.8,4.3,5.4c1.6,1.4,3.2,2.8,5.2,3.8
			c0.4,0.2,1.1,0.2,1.2,0.6c0.1,0.3-0.3,0.8-0.4,1.3c-0.2,1.3-0.7,2.6-1,3.9c-0.4,1.4-0.7,2.8-1.1,4.2c-0.2,1-0.3,2-0.4,3
			c-0.5,3.9-0.7,7.9-0.6,11.8c0,0.3,0,0.7,0.1,1c0,0-0.1,0.1-0.1,0.1c0.1,0,0.1,0.1,0.2,0.1c-0.2,0.4,0,0.9,0,1.3
			c0.1,0.8,0.1,1.7,0.2,2.5c0,0.3,0.1,0.7,0.2,1c0.3,1,0.2,2,0.4,3c0.3,1.5,0.6,2.9,1,4.4c1,3.7,2.3,7.3,4,10.8
			c0.7,1.5,1.6,2.9,2.2,4.5c-1.6-1.1-3-2.3-4.5-3.5c-2.2-1.8-4.1-3.9-6.1-6c-1.6-1.7-3-3.5-4.3-5.3c-4.1-5.6-7.4-11.6-9.8-18.1
			c-0.9-2.5-1.7-5-2.3-7.6c-0.5-2.3-1-4.5-1.3-6.8c-0.2-1.8-0.5-3.7-0.6-5.5c-0.2-2.7-0.1-5.4-0.1-8c0-1.7,0.3-3.5,0.5-5.2
			c0.3-2,0.6-3.9,1-5.9c0.3-1.7,0.8-3.4,1.3-5c0.5-1.9,1.1-3.7,1.8-5.5c1.4-3.7,3-7.2,5-10.6c1.1-1.9,2.3-3.8,3.6-5.6
			c1.1-1.6,2.3-3.1,3.6-4.5c1.5-1.8,3.1-3.5,4.8-5.1c1-1,2-2,3.2-2.9c1.4-1.1,2.8-2.3,4.3-3.3c1.3-0.9,2.5-1.9,3.9-2.6
			c1.1-0.6,2.1-1.3,3.2-1.9c2.2-1.2,4.5-2.4,6.9-3.3c3.8-1.5,7.6-2.8,11.6-3.8c2.2-0.5,4.3-0.9,6.5-1.2c1-0.1,2.1-0.3,3.1-0.5
			c0.7-0.1,1.3,0,2-0.1C68.5,0,70.6,0,72.7,0.1c1.4,0.1,2.8,0,4.1,0.2c1.5,0.2,3,0.3,4.5,0.6c1.1,0.2,2.3,0.3,3.4,0.6
			c0.9,0.2,1.7,0.4,2.6,0.6c1,0.2,2,0.5,3,0.8c0.9,0.3,1.9,0.6,2.8,0.9C94,4,95,4.3,95.9,4.7c1.7,0.6,3.3,1.4,4.9,2.1
			c1.8,0.8,3.5,1.7,5.2,2.7c1.5,1,3.1,1.8,4.6,2.9c1.4,1,2.9,1.9,4.2,3.1c1.1,1,2.4,1.8,3.4,2.9c0.8,0.8,1.7,1.4,2.5,2.1
			c0.7,0.6,1.3,1.4,2,2.2c0.5,0.6,1,1.1,1.5,1.7c1.4,1.4,2.6,3.1,3.8,4.7c2.1,2.8,4,5.8,5.7,8.9c0.9,1.6,3.2,7,3.9,9
			c0.6,1.6,1.1,3.3,1.6,4.9c0.5,1.7,0.9,3.4,1.2,5.1c0.3,1.5,0.6,3,0.8,4.6c0.2,1.1,0.3,2.3,0.4,3.4c0.1,2.1,0.3,4.2,0.3,6.3
			c0,2.1-0.2,4.1-0.3,6.1c-0.2,2.6-0.6,5.2-1.1,7.8c-0.5,2-0.9,4.1-1.5,6.1c-2,6.4-4.7,12.4-8.3,18c-1.3,2.1-2.8,4.1-4.3,6
			c-0.4,0.5-0.8,1.1-1.3,1.6c-0.6,0.6-1.1,1.3-1.7,1.9c-0.9,1-1.8,2-2.8,2.9c-2.2,2-4.4,4.1-6.8,5.9
			C113.4,127.6,113.2,127.8,112.9,127.7z"/>
		<path class="st3" d="M50.4,52.2c-0.1,2.2-0.4,4.4-1.2,6.4c-2.2,5.1-5.9,8.6-11.3,10.1c-0.6,0.2-1.1,0.4-1.7,0.4
			c-1.2,0.1-2.3,0.2-3.5,0.2c-1.4-0.1-2.8-0.1-4.2-0.7c-0.5-0.2-1.1-0.2-1.6-0.4c-0.9-0.4-1.8-0.8-2.7-1.3c-0.9-0.6-1.7-1.3-2.6-1.9
			c-1.1-0.8-1.7-1.9-2.5-2.9c-1.2-1.5-2-3.2-2.5-4.9c-0.4-1.3-0.6-2.6-0.6-3.9c0-1,0-1.9,0-2.9c0.1-1.1,0.3-2.2,0.7-3.2
			c0.4-1.2,0.9-2.3,1.5-3.4c0.5-0.9,1.2-1.6,1.8-2.4c0.5-0.6,1-1.2,1.5-1.7c1.5-1.3,3-2.4,4.8-3.2c1.5-0.7,3.1-1,4.7-1.2
			c1.6-0.2,3.3-0.1,4.9,0.1c4.1,0.4,7.3,2.5,10,5.3c2,2,3.3,4.5,3.9,7.3C50.2,49.3,50.4,50.7,50.4,52.2z M43.2,52.8
			c0.1-5.6-4.9-9.9-10.2-9.8c-5.6,0.1-10.2,4.5-10,10.4c0.2,5.4,4.5,10,10.6,9.8C39.1,63,43.3,58.7,43.2,52.8z"/>
		<path class="st3" d="M93.1,53c0-0.1,0-0.2,0-0.4c0,0,0-0.1,0-0.1c0-0.1,0-0.2,0-0.3c0,0,0-0.1,0-0.1c0-0.1,0-0.2,0-0.4
			c0,0,0-0.1,0-0.1c-0.2-0.3-0.1-0.6,0-0.9c0.2-0.8,0.2-1.6,0.5-2.4c0.6-2,1.4-3.9,2.6-5.6c0.7-1,1.4-2.1,2.3-2.8
			c0.8-0.6,1.6-1.3,2.5-1.9c1.6-1.1,3.4-1.8,5.3-2.3c1.6-0.4,3.3-0.5,5-0.3c2.8,0.2,5.4,1,7.8,2.4c3,1.7,5.2,4.1,6.7,7.2
			c0.8,1.7,1.2,3.5,1.4,5.3c0.3,2.2,0.4,4.4-0.3,6.5c-2,6.7-6.3,10.9-13.2,12.5c-1.7,0.4-3.3,0.5-5,0.3c-3-0.3-5.9-1.3-8.5-3.1
			c-1.3-0.9-2.5-2-3.5-3.2c-0.6-0.7-1.1-1.4-1.5-2.2c-0.8-1.5-1.4-3.1-1.8-4.7c-0.3-1-0.4-2.1-0.4-3.2C93.1,53.1,93.1,53.1,93.1,53z
			 M110.4,43.3c-5.8,0-10.1,4.6-10.2,9.9c-0.1,5.9,4.6,10.3,10.3,10.3c5.7,0,10-5,9.9-10.1C120.3,47.2,115.6,43.5,110.4,43.3z"/>
		<path class="st67" d="M79.4,51.7c0.9-0.2,2.6,0.9,2.9,2c0.5,1.5,0.8,2.9,0.5,4.5c-0.3,1.3-0.4,2.7-0.6,4c-0.3,2.3-0.7,4.5-1.7,6.6
			c-0.4,0.8-0.9,1.6-1.5,2.4c-1.5,1.7-3.1,3.3-5.4,3.6c-2.2,0.3-4.4,0.4-6.6-0.3c-1.1-0.4-2.1-1.1-2.9-1.9c-1.6-1.6-2.7-3.5-3.3-5.6
			c-0.3-1.2-0.6-2.4-0.8-3.7c-0.3-2.5-1.1-4.9-0.9-7.5c0.2-2.4,1.1-4.3,4.2-4.3c5.2,0.1,10.4,0,15.6,0C79,51.6,79.2,51.7,79.4,51.7z
			"/>
		<path class="st3" d="M75.3,27.1c0.3,9-5.1,16.3-13.8,16.8c-8.2,0.5-14.5-5.5-15.6-12.3c-1.4-9.4,5.8-16,11.3-16.9
			c4.6-0.8,8.8-0.1,12.5,2.8C73.5,20.4,75.3,24.3,75.3,27.1z M60.5,38.7c5.3,0,8.8-4.3,8.8-8.8c0-4.9-3.7-8.6-8.8-8.6
			c-4.9-0.1-8.5,4.1-8.7,8.1C51.6,34.7,55.8,38.6,60.5,38.7z"/>
		<path class="st11" d="M53,91.2c0-0.1,0-0.2,0-0.3c0-0.1,0-0.1,0-0.2c0.8-3.3,2.7-5.4,6-6.2c0,1,0,1.9,0.1,2.9
			c0,0.9,0.3,1.7,1.1,2.3c1.1,0.8,2.2,0.8,3.4,0.6c1.2-0.2,2.2-1.2,2.3-2.4c0.1-1.2,0.1-2.4,0.1-3.5c2.3,0,4.7,0,7,0
			c-0.1,1.3-0.2,2.6,0.1,3.9c0.1,0.4,0.2,0.7,0.5,1c1.2,1.4,2.7,1.4,4.3,0.9c0.8-0.2,1.3-0.7,1.7-1.6c0.4-1,0.3-2.1,0.3-3.1
			c0-0.3,0-0.6,0.2-0.8c0.1,0,0.2-0.1,0.3-0.1c2.1,0.7,4,1.8,5.1,3.9c2,3.8,0.4,8.8-3.7,10.4c-1.4,0.6-2.9,0.6-4.4,0.6
			c0,0,0-0.1,0-0.1c0-1.4,0.2-2.8-0.2-4.2c-0.3-0.9-0.9-1.4-1.8-1.6c-0.6-0.2-1.2-0.1-1.8-0.1c-1.4-0.1-3,1.1-2.9,2.7l0,0l0,0
			c0,1.1-0.1,2.1-0.1,3.2c-0.5,0-1,0-1.5,0c0-0.1,0-0.1-0.1-0.2c-0.1-1.2,0.1-2.4-0.2-3.5c-0.2-1-0.7-1.7-1.7-2.1
			c-0.7-0.3-1.5-0.2-2.2-0.2c-1.4,0-2.6,1.1-2.8,2.5c-0.1,1,0,2-0.1,2.9c0,0.1,0,0.1,0,0.2c0,0.1,0,0.2,0,0.3
			c-3,0.4-5.4-0.5-7.3-2.8c-0.8-1-1.3-2.1-1.6-3.4c0-0.2,0.1-0.4-0.1-0.6c0-0.4,0-0.8,0-1.2C53,91.3,53,91.2,53,91.2z"/>
		<path class="st14" d="M102.2,92.8c-5.5-0.1-9.7-4-9.7-9.8c0-5.8,3.8-9.7,9.6-9.8c5.6-0.1,10,4.2,9.9,10.1
			C111.9,88.4,107.7,92.8,102.2,92.8z"/>
		<path class="st14" d="M30.3,83c0-5.5,4.2-9.7,9.5-9.7c5.5,0,10,4.1,9.9,10.1c-0.1,5-4.2,9.8-10.3,9.4C34.6,92.5,30.2,88.6,30.3,83
			z"/>
		<path class="st3" d="M102.1,28.8c-0.4,1.5-0.6,3-1.7,4.3c0,0-0.1,0.1-0.1,0.1c0,0-0.1,0.1-0.1,0.1c-0.3,0.2-0.5,0.4-0.6,0.7
			c0,0-0.1,0.1-0.1,0.1c-0.2,0-0.3,0.1-0.3,0.3c-1.2,1-2.6,1.6-4.1,2c-1.4,0.4-2.7,0.2-3.9,0c-1.5-0.2-2.8-0.9-3.9-2
			c-0.2-0.2-0.5-0.4-0.8-0.7c-1.3-1.4-2.1-3.1-2.4-5.1c-0.1-1.1,0.1-2.1,0.2-3.2c0.3-2,1.5-3.5,2.9-4.8c1.8-1.6,4-2.4,6.4-2.2
			c3.2,0.3,5.7,1.9,7.4,4.6c0.9,1.5,1.1,3.2,1.1,4.9C102.1,28.4,102.1,28.6,102.1,28.8z M93.2,22.9c-3-0.2-5.3,2.5-5.3,5.2
			c0,3,2.4,5.5,5.4,5.4c2.7,0,5.5-2.4,5.3-5.9C98.3,25.4,95.9,22.6,93.2,22.9z"/>
		<path class="st48" d="M52.9,104.7c0.1,2.9-2.7,6.2-6.1,6.1c-3.3-0.1-6-2.6-6-6.2c0-3.4,2.7-6.1,6-6.1
			C50.2,98.4,52.9,101.2,52.9,104.7z"/>
		<path class="st48" d="M100.4,104.7c-0.1,3.5-2.5,6-6.2,6c-3,0.1-6.2-3-6-6.3c0.1-3.1,2.5-6.1,6.1-6
			C97.7,98.6,100.3,100.8,100.4,104.7z"/>
		<path class="st48" d="M64.9,107.2c0.1,2.4-1.9,4.5-4.5,4.4c-2.1-0.1-4.2-2-4.2-4.6c0.1-2.3,1.8-4.2,4.5-4.2
			C63.1,102.9,64.9,104.8,64.9,107.2z"/>
		<path class="st48" d="M84.9,107.2c0,2.3-2,4.4-4.3,4.4c-2.4,0-4.3-2-4.4-4.4c0-2,1.8-4.3,4.3-4.4C83.1,102.8,85,105.2,84.9,107.2z
			"/>
		<path class="st3" d="M80,84.6c-0.2,0.2-0.1,0.5-0.2,0.8c0,1.1,0.1,2.1-0.3,3.1c-0.3,0.9-0.8,1.4-1.7,1.6c-1.6,0.5-3.1,0.5-4.3-0.9
			c-0.3-0.3-0.4-0.6-0.5-1c-0.3-1.3-0.2-2.6-0.1-3.9c1.6,0,3.2,0,4.8,0c0.6,0,1.1,0,1.7,0C79.7,84.4,79.9,84.3,80,84.6z"/>
		<path class="st3" d="M65.9,84.4c0,1.2,0,2.4-0.1,3.5c-0.1,1.2-1.1,2.2-2.3,2.4c-1.2,0.2-2.3,0.2-3.4-0.6c-0.8-0.6-1.1-1.4-1.1-2.3
			c0-1,0-1.9-0.1-2.9c0.2-0.2,0.5-0.1,0.7-0.1c1.4,0,2.8,0.1,4.2,0C64.5,84.4,65.2,84.4,65.9,84.4C65.9,84.4,65.9,84.4,65.9,84.4z"
			/>
		<path class="st3" d="M61.9,99.3c0-0.1,0-0.2,0-0.3c0.1-0.1,0.1-0.1,0-0.2c0-1,0-2,0.1-2.9c0.2-1.4,1.3-2.5,2.8-2.5
			c0.7,0,1.5,0,2.2,0.2c1,0.4,1.5,1.1,1.7,2.1c0.2,1.2,0,2.4,0.2,3.5c0,0.1-0.1,0.1-0.1,0.2c-0.1,0-0.1,0-0.2,0c-2-0.2-4-0.1-5.9,0
			C62.4,99.3,62.2,99.3,61.9,99.3z"/>
		<path class="st3" d="M70.4,99.4c0-1.1,0.1-2.1,0.1-3.2c0,0,0,0,0,0l0,0c-0.1-1.6,1.5-2.8,2.9-2.7c0.6,0,1.2,0,1.8,0.1
			c0.9,0.2,1.5,0.8,1.8,1.6c0.4,1.4,0.2,2.8,0.2,4.2c-2,0-3.9-0.1-5.9,0c-0.2,0-0.3,0-0.5,0c0,0-0.1,0-0.1,0
			C70.6,99.4,70.5,99.4,70.4,99.4z"/>
		<path class="st48" d="M50.1,114.2c0-1.5,1.3-2.8,2.8-2.8c1.6,0,2.8,1.2,2.7,2.8c0,1.9-1.2,2.8-2.6,2.8
			C51.2,117.1,50.2,116,50.1,114.2z"/>
		<path class="st48" d="M52.9,123.2c-0.2-1.6,1.4-2.8,2.7-2.7c1.7,0.1,2.8,1.2,2.8,2.8c0,1.7-1.1,2.7-2.9,2.7
			C54.2,126,52.9,124.6,52.9,123.2z"/>
		<path class="st48" d="M101.7,116.1c0.1,1.8-1.3,2.8-2.6,2.8c-1.7,0-2.9-1.2-2.9-2.9c0-1.1,1.1-2.6,2.8-2.7
			C100.4,113.3,101.9,114.3,101.7,116.1z"/>
		<path class="st48" d="M44.7,116.2c0.2,1.9-1.3,2.8-2.6,2.7c-1.6,0-2.8-1.1-2.8-2.9c0-1.4,1.4-2.8,2.8-2.7
			C43.4,113.4,44.9,114.3,44.7,116.2z"/>
		<path class="st48" d="M85.4,120.5c1.6,0,2.9,1.2,2.8,2.8c-0.1,1.8-1.2,2.6-2.9,2.7c-1.3,0.1-2.6-1.4-2.6-2.8
			C82.7,121.5,83.9,120.5,85.4,120.5z"/>
		<path class="st48" d="M90.9,114.3c0.1,1.3-1.3,2.8-2.7,2.7c-1.5-0.1-2.7-1.2-2.7-2.8c0-1.5,1.2-2.8,2.7-2.8
			C89.7,111.5,91,112.7,90.9,114.3z"/>
		<path class="st14" d="M62.6,99.3c2,0,4-0.1,5.9,0C66.6,99.4,64.6,99.5,62.6,99.3z"/>
		<path class="st14" d="M71.4,99.4c2-0.1,3.9-0.1,5.9,0c0,0,0,0.1,0,0.1C75.3,99.4,73.3,99.5,71.4,99.4z"/>
		<path class="st48" d="M80,84.6c-0.1-0.3-0.3-0.2-0.5-0.2c-0.6,0-1.1,0-1.7,0c0.9-0.1,1.7-0.3,2.6,0.1C80.2,84.6,80.1,84.6,80,84.6
			z"/>
		<path class="st48" d="M65.9,84.4c-0.7,0-1.3,0-2,0C64.5,84.2,65.2,84.2,65.9,84.4z"/>
		<path class="st14" d="M99.6,34.1c0.2-0.3,0.3-0.6,0.6-0.7C100.3,33.8,100,34,99.6,34.1z"/>
		<path class="st14" d="M102.1,28.8c0-0.2-0.1-0.4,0.1-0.6C102.5,28.4,102.4,28.6,102.1,28.8z"/>
		<path class="st48" d="M79.4,51.7c-0.2,0.1-0.4,0-0.5-0.2C79.1,51.5,79.3,51.3,79.4,51.7z"/>
		<path class="st48" d="M52.9,92.5c0.1,0.2,0.1,0.4,0.1,0.6C52.9,93,52.9,92.7,52.9,92.5z"/>
		<path class="st14" d="M99.2,34.5c0-0.2,0.2-0.3,0.3-0.3C99.5,34.5,99.4,34.5,99.2,34.5z"/>
		<path class="st48" d="M21.1,100.6c-0.1,0-0.1-0.1-0.2-0.1c0,0,0.1-0.1,0.1-0.1C21.1,100.5,21.1,100.5,21.1,100.6z"/>
		<path class="st48" d="M53,90.7c0,0.1,0,0.1,0,0.2C52.9,90.8,52.9,90.8,53,90.7z"/>
		<path class="st48" d="M68.8,99.4c0-0.1,0.1-0.1,0.1-0.2c0,0.1,0,0.1,0.1,0.2C68.9,99.4,68.8,99.4,68.8,99.4z"/>
		<path class="st14" d="M93.1,52.6c0,0,0,0.1,0,0.1C93,52.6,93,52.6,93.1,52.6z"/>
		<path class="st14" d="M100.4,33.2c0,0,0.1-0.1,0.1-0.1C100.5,33.2,100.5,33.2,100.4,33.2z"/>
		<path class="st14" d="M70.8,99.4c0,0,0.1,0,0.1,0C70.8,99.4,70.8,99.4,70.8,99.4z"/>
		<path class="st48" d="M53,91.2c0,0,0,0.1,0,0.1C52.9,91.3,52.9,91.2,53,91.2z"/>
		<path class="st14" d="M93.1,51.6c0,0,0,0.1,0,0.1C93.1,51.7,93.1,51.6,93.1,51.6C93.1,51.6,93.1,51.6,93.1,51.6z"/>
		<path class="st14" d="M93.1,52.1c0,0,0,0.1,0,0.1C93,52.2,93,52.1,93.1,52.1z"/>
		<polygon class="st48" points="91.1,14.2 91.1,14.1 91.1,14.2 91.1,14.2 		"/>
		<path class="st14" d="M93.1,53c0,0,0,0.1,0,0.1C93.1,53.2,93.1,53.1,93.1,53C93.1,53.1,93.1,53.1,93.1,53z"/>
		<path class="st67" d="M43.2,52.8c0,5.9-4.2,10.2-9.6,10.4c-6.1,0.2-10.4-4.4-10.6-9.8c-0.2-5.9,4.4-10.3,10-10.4
			C38.3,42.9,43.3,47.2,43.2,52.8z M39.7,48.9c0-0.1,0.1-0.2,0.1-0.4c0.4-1.5-0.7-3-2.3-3c-0.6,0-1.1,0.4-1.6,0.6
			c0-0.3-0.3-0.3-0.5-0.4c-1.7-0.4-3.3-0.4-5,0.2c-2.9,1.1-4.7,3.6-5,6.6c-0.2,2.7,1,4.8,3,6.5c1.3,1,2.8,1.6,4.4,1.6
			c1.5,0,3-0.4,4.3-1.3c2.1-1.5,3.3-3.6,3.3-6.2C40.6,51.7,40.1,50.3,39.7,48.9z"/>
		<path class="st67" d="M110.4,43.3c5.3,0.1,10,3.9,10.1,10.1c0.1,5.1-4.2,10.1-9.9,10.1c-5.7,0-10.4-4.4-10.3-10.3
			C100.2,48,104.6,43.3,110.4,43.3z M116.7,49.7c0.1-0.2,0.2-0.5,0.3-0.7c0.5-1.8-0.8-3.3-2.6-3.1c-0.4,0.1-0.7,0.3-1.1,0.4
			c-0.3-0.1-0.6-0.1-1-0.2c-1.6-0.4-3.2-0.3-4.8,0.3c-3.5,1.4-5.6,5.3-4.5,8.9c1.1,3.9,4.8,6.3,8.6,5.5c4.9-0.9,7.5-5.9,5.6-10.6
			C117,50,117,49.7,116.7,49.7z"/>
		<path class="st67" d="M60.5,38.7c-4.7-0.1-8.9-4-8.7-9.4c0.2-4,3.8-8.2,8.7-8.1c5.1,0.1,8.8,3.7,8.8,8.6
			C69.4,34.4,65.9,38.7,60.5,38.7z M66.1,26.7c0.1-0.2,0.1-0.5,0.2-0.7c0.3-1.6-0.6-2.7-2.3-2.6c-0.4,0-0.7,0.2-1.1,0.3
			c-0.8-0.2-1.6-0.3-2.4-0.3c-3.4-0.1-6.5,3-6.5,6.5c0,3.7,3.2,6.8,6.9,6.5c2.8-0.2,4.7-1.7,5.7-4.2C67.3,30.3,67.2,28.4,66.1,26.7z
			"/>
		<path class="st67" d="M61.9,98.8c0.1,0.1,0.1,0.1,0,0.2C61.9,99,61.9,98.9,61.9,98.8z"/>
		<polygon class="st67" points="70.5,96.1 70.5,96.2 70.5,96.2 70.5,96.2 		"/>
		<path class="st67" d="M93.2,22.9c2.7-0.3,5.2,2.5,5.3,4.7c0.2,3.5-2.6,5.9-5.3,5.9c-3,0-5.4-2.4-5.4-5.4
			C87.8,25.4,90.1,22.7,93.2,22.9z M96.3,26.4c0.1-0.1,0.1-0.2,0.2-0.3c0.1-0.5,0.2-1.1-0.1-1.5c-0.3-0.4-0.8-0.4-1.3-0.3
			c-0.2,0-0.5,0.1-0.7,0.2c-0.3-0.3-0.6-0.4-1-0.4c-1.8-0.1-3.1,0.8-3.9,2.3c-0.6,1.1-0.6,2.3-0.1,3.4c0.8,1.8,2.9,2.9,5.1,2
			c1.8-0.7,2.9-2.8,2.4-4.6C96.9,26.9,96.8,26.5,96.3,26.4z"/>
		<path class="st11" d="M39.7,48.9c0.4,1.4,0.9,2.8,0.9,4.2c0,2.6-1.2,4.7-3.3,6.2c-1.3,0.9-2.8,1.3-4.3,1.3c-1.6,0-3.2-0.5-4.4-1.6
			c-2-1.7-3.2-3.8-3-6.5c0.2-3,2-5.5,5-6.6c1.7-0.6,3.3-0.6,5-0.2c0.2,0.1,0.5,0,0.5,0.4c-0.1,0.2-0.3,0.4-0.4,0.5
			c-0.6,1.1-0.7,1.8,0.6,3c0.8,0.7,1.7,0.6,2.7,0C39.3,49.5,39.5,49.2,39.7,48.9z M35.8,53.1c0-1.5-1.1-2.7-2.6-2.7
			c-1.7,0-3,1.1-3,2.7c0,1.5,1.2,2.9,2.8,2.9C34.6,55.9,35.8,54.7,35.8,53.1z"/>
		<path class="st3" d="M39.7,48.9c-0.2,0.3-0.5,0.7-0.8,0.9c-1,0.6-1.8,0.7-2.7,0c-1.3-1.2-1.2-2-0.6-3c0.1-0.2,0.3-0.4,0.4-0.5
			c0.5-0.2,1-0.6,1.6-0.6c1.6,0,2.6,1.5,2.3,3C39.8,48.7,39.8,48.8,39.7,48.9z"/>
		<path class="st11" d="M116.7,49.7c0.3,0,0.4,0.3,0.5,0.5c1.9,4.7-0.7,9.7-5.6,10.6c-3.9,0.7-7.5-1.6-8.6-5.5c-1-3.6,1-7.5,4.5-8.9
			c1.6-0.6,3.2-0.7,4.8-0.3c0.3,0.1,0.6,0.1,1,0.2c-0.2,0.2-0.4,0.4-0.5,0.7c-0.3,0.6-0.5,1.2-0.3,1.9
			C113.1,50.6,115.4,51.1,116.7,49.7z M112.9,53.5c0-1.7-1.2-2.9-2.7-2.9c-1.7,0-2.9,1.6-2.9,2.8c0,1.3,1.5,2.9,2.7,2.9
			C111.5,56.2,112.9,55.4,112.9,53.5z"/>
		<path class="st3" d="M116.7,49.7c-1.3,1.4-3.6,0.9-4.2-0.8c-0.3-0.7-0.1-1.3,0.3-1.9c0.1-0.2,0.3-0.5,0.5-0.7
			c0.4-0.1,0.7-0.3,1.1-0.4c1.8-0.2,3.1,1.3,2.6,3.1C116.9,49.2,116.7,49.5,116.7,49.7z"/>
		<path class="st11" d="M66.1,26.7c1,1.7,1.2,3.6,0.5,5.4c-1,2.6-2.9,4-5.7,4.2c-3.7,0.3-6.9-2.7-6.9-6.5c0-3.6,3.1-6.6,6.5-6.5
			c0.8,0,1.6,0.1,2.4,0.3c-0.1,0.4-0.3,0.7-0.4,1.1c-0.4,1.4,0.3,2.6,1.9,2.7C65.1,27.5,65.6,27,66.1,26.7z M60.4,32.4
			c1.5-0.2,2.4-1,2.5-2.4c0-1.4-1-2.5-2.4-2.5c-1.3,0-2.5,1.4-2.5,2.4C58,31.1,59.2,32.4,60.4,32.4z"/>
		<path class="st3" d="M66.1,26.7c-0.6,0.3-1,0.8-1.7,0.8c-1.6-0.1-2.3-1.3-1.9-2.7c0.1-0.4,0.3-0.7,0.4-1.1
			c0.4-0.1,0.7-0.3,1.1-0.3c1.6-0.1,2.6,1,2.3,2.6C66.2,26.3,66.2,26.5,66.1,26.7z"/>
		<path class="st11" d="M96.3,26.4c0.5,0,0.5,0.5,0.6,0.8c0.5,1.8-0.6,3.9-2.4,4.6c-2.2,0.9-4.3-0.2-5.1-2c-0.5-1.1-0.5-2.3,0.1-3.4
			c0.8-1.5,2.1-2.4,3.9-2.3c0.4,0,0.7,0.1,1,0.4c-0.4,1.1-0.2,1.5,0.5,2C95.5,26.9,95.9,26.6,96.3,26.4z M93.1,26.7
			c-0.7,0-1.6,0.7-1.6,1.3c0,0.7,0.9,1.6,1.6,1.6c0.8,0,1.5-0.6,1.5-1.4C94.6,27.4,94,26.7,93.1,26.7z"/>
		<path class="st3" d="M96.3,26.4c-0.5,0.2-0.9,0.5-1.4,0.1c-0.7-0.5-0.9-1-0.5-2c0.2-0.1,0.5-0.2,0.7-0.2c0.5-0.1,1-0.1,1.3,0.3
			c0.3,0.4,0.2,1,0.1,1.5C96.5,26.2,96.4,26.3,96.3,26.4z"/>
		<path class="st3" d="M35.8,53.1c0,1.6-1.2,2.8-2.8,2.8c-1.5,0-2.8-1.3-2.8-2.9c0-1.6,1.3-2.7,3-2.7C34.7,50.4,35.8,51.6,35.8,53.1
			z"/>
		<path class="st3" d="M112.9,53.5c0,1.9-1.4,2.7-3,2.8c-1.2,0.1-2.7-1.6-2.7-2.9c0-1.2,1.2-2.8,2.9-2.8
			C111.8,50.6,112.9,51.8,112.9,53.5z"/>
		<path class="st3" d="M60.4,32.4c-1.3,0-2.4-1.2-2.4-2.6c0-1,1.2-2.4,2.5-2.4c1.4,0,2.5,1.1,2.4,2.5C62.8,31.4,62,32.2,60.4,32.4z"
			/>
		<path class="st3" d="M93.1,26.7c0.8,0,1.5,0.7,1.5,1.6c0,0.8-0.7,1.4-1.5,1.4c-0.7,0-1.6-0.9-1.6-1.6
			C91.6,27.4,92.4,26.7,93.1,26.7z"/>
	</g>
</g>
</svg>
