<?xml version="1.0" encoding="utf-8"?>
<!-- Generator: Adobe Illustrator 27.3.1, SVG Export Plug-In . SVG Version: 6.00 Build 0)  -->
<svg version="1.1" id="Ebene_1" xmlns="http://www.w3.org/2000/svg" xmlns:xlink="http://www.w3.org/1999/xlink" x="0px" y="0px"
	 viewBox="0 0 141.7 141.7" style="enable-background:new 0 0 141.7 141.7;" xml:space="preserve">
<style type="text/css">
	.st0{fill:#F6BB37;}
	.st1{fill:#3684C6;}
	.st2{fill:#DCA12A;}
	.st3{fill:#FCFCFE;}
	.st4{fill:#E97E2F;}
	.st5{fill:#28273D;}
	.st6{fill:#7F65AA;}
	.st7{fill:#B49ECB;}
	.st8{fill:#66529D;}
	.st9{fill:#33314C;}
	.st10{fill:#35ACC6;}
	.st11{fill:#27263D;}
	.st12{fill:#DB191D;}
	.st13{fill:#42BEE1;}
	.st14{fill:#EE715E;}
	.st15{fill:#396CB3;}
	.st16{fill:#EA5B4C;}
	.st17{fill:#F2C551;}
	.st18{fill:#27273D;}
	.st19{fill:#B0CF6D;}
	.st20{fill:#28263D;}
	.st21{fill:#9E4A30;}
	.st22{fill:#DB1E1D;}
	.st23{fill:#FBFBFD;}
	.st24{fill:#A3C163;}
	.st25{fill:#3F426D;}
	.st26{fill:#33304C;}
	.st27{fill:#DB181D;}
	.st28{fill:#83C4ED;}
	.st29{fill:#B6622B;}
	.st30{fill:#AB795E;}
	.st31{fill:#88C7EE;}
	.st32{fill:#9BB7CC;}
	.st33{fill:#E97F31;}
	.st34{fill:#CD6F2C;}
	.st35{fill:#A8A4A6;}
	.st36{fill:#84C4EC;}
	.st37{fill:#FEFEFE;}
	.st38{fill:#D91F1D;}
	.st39{fill:#F29454;}
	.st40{fill:#3C86C6;}
	.st41{fill:#F8FAFD;}
	.st42{fill:#AD8ABF;}
	.st43{fill:#67529E;}
	.st44{fill:#F6D373;}
	.st45{fill:#29273D;}
	.st46{fill:#EE715D;}
	.st47{fill:#F9C6BD;}
	.st48{fill:#A65E3A;}
	.st49{fill:#F18B88;}
	.st50{fill:#82C2EC;}
	.st51{fill:#E28080;}
	.st52{fill:#D57474;}
	.st53{fill:#4F5173;}
	.st54{fill:#3785C6;}
	.st55{fill:#E84680;}
	.st56{fill:#28273E;}
	.st57{fill:#E13072;}
	.st58{fill:#F5BA37;}
	.st59{fill:#F3C651;}
	.st60{fill:#DB5144;}
	.st61{fill:#A17FB8;}
	.st62{fill:#AC8ABE;}
	.st63{fill:#342E4F;}
	.st64{fill:#2DAC64;}
	.st65{fill:#5CB993;}
	.st66{fill:#9DBA5C;}
	.st67{fill:#5AB992;}
	.st68{fill:#66529E;}
	.st69{fill:#EA5A4C;}
	.st70{fill:#12994E;}
	.st71{fill:#DE5044;}
	.st72{fill:#EE715F;}
	.st73{fill:#E97F2F;}
	.st74{fill:#A89AC9;}
	.st75{fill:#38B3CD;}
	.st76{fill:#DD3D78;}
	.st77{fill:#F5D373;}
	.st78{fill:#FDEAB4;}
	.st79{fill:#7F66AA;}
	.st80{fill:#3885C6;}
	.st81{fill:#40436D;}
	.st82{fill:#A99ACA;}
	.st83{fill:#34314B;}
	.st84{fill:#F4D273;}
	.st85{fill:#83C5ED;}
	.st86{fill:#D29C2C;}
	.st87{fill:#87C7EE;}
	.st88{fill:#F6BB38;}
	.st89{fill:#F6BB3A;}
	.st90{fill:#E83D69;}
	.st91{fill:#F4BC3F;}
	.st92{fill:#85C5EB;}
	.st93{fill:#DA1E1D;}
	.st94{fill:#DDA736;}
	.st95{fill:#F18D88;}
	.st96{fill:#FFFEFE;}
	.st97{fill:#F9C8BC;}
	.st98{fill:#3B85C6;}
</style>
<g id="Ir8EvF.tif">
	<g>
		<path class="st10" d="M119.2,122.6c-1,1.1-2.2,2.1-3.3,3c-1.7,1.5-3.6,2.8-5.4,4.1c-1.9,1.3-3.9,2.6-6,3.6
			c-0.8,0.4-1.6,0.8-2.4,1.2c-1.2,0.6-2.4,1.1-3.6,1.7c-1.2,0.6-2.4,1.1-3.7,1.5c-0.9,0.2-1.6,0.9-2.5,0.8c-0.3,0-0.5,0.3-0.9,0.4
			c-1.6,0.6-3.2,0.9-4.8,1.3c-1.2,0.3-2.5,0.5-3.7,0.7c-1.8,0.3-3.6,0.4-5.3,0.8c-0.1,0-0.2,0-0.4,0c-3.9,0.1-7.7,0.1-11.6,0
			c-1.7,0-3.5-0.3-5.2-0.6c-1.4-0.2-2.8-0.4-4.2-0.7c-1-0.2-1.9-0.4-2.9-0.7c-0.7-0.2-1.6-0.3-2.3-0.7c-0.3-0.2-0.7-0.1-1.1-0.2
			c-1.1-0.3-2.3-0.7-3.4-1.2c-0.5-0.2-1.2-0.4-1.7-0.6c-1.1-0.4-2.2-1-3.4-1.4c-1-0.4-1.9-0.8-2.9-1.3c-1.7-0.9-3.4-1.8-4.9-2.8
			c-3.6-2.3-7.2-4.7-10.3-7.8c-0.7-0.7-1.5-1.4-2.3-2c-0.2-0.2-0.4-0.4-0.5-0.7c0.1-1.9-0.3-3.7-0.3-5.6c0-16,0-32,0-48
			c0-1.3-0.2-2.6-0.1-3.9c0.3-0.1,0.5,0.1,0.7,0.3c0.7,0.5,1.4,0.9,2.2,1.1c0.1,0.6,0.2,1.1,0.2,1.7c0.5,4.5,2.5,8.3,5.8,11.3
			c3.2,3,7,4.8,11.5,5.1c0,0.2,0.1,0.3,0,0.5c-0.3,0.5-0.3,1-0.3,1.5c0,0.8,0,1.7,0.2,2.5c-2.1-0.1-4.2-0.1-6.2,0.4
			c-2.2,0.5-4.4,1.2-6,2.9c-1.2,1.3-1.7,3-0.8,4.7c0.4,0.7,1,1.1,1.5,1.6c1.9,1.6,4.1,2.3,6.4,2.6c1.7,0.2,3.4,0.3,5.1,0.1
			c0.1,0.5-0.2,0.9-0.2,1.4c0,1.8,0,3.7,0,5.5c0,0.2-0.1,0.5,0.2,0.6c0.3,0.1,0.4-0.2,0.5-0.3c0.7-0.7,1.3-1.5,2.1-2.2
			c2.7-2.2,5.4-4.3,8.7-5.7c2.2-1,4.5-1.9,6.9-2.6c3.6-1,7.2-1.4,10.9-1.5c1.4,0,2.8,0.1,4.2,0.2c1.9,0.2,3.9,0.3,5.8,0.9
			c1.9,0.6,4,1,5.8,1.8c1.8,0.8,3.6,1.6,5.3,2.7c2.1,1.3,4.2,2.6,6,4.2c2,1.8,3.7,4,5.3,6.2c1.3,1.9,2.3,4,3.2,6.2
			c0.9,2.1,1.1,4.4,1.4,6.7c0.1,0.7-0.1,1.4,0.1,2.2c0.2,0.6,0.2,1.5-0.1,2.2c-0.1,0.4,0.1,0.9-0.3,1.2c0.4,0.4,0,0.9,0,1.3
			c0,0.2-0.1,0.3,0.1,0.4c0.2,0.1,0.3,0,0.5-0.1c0.6-0.3,1.2-0.6,1.7-1c1.9-1.4,4-2.6,5.8-4.2c0,0,0.1-0.1,0.2-0.1
			c0.6-0.6,1.3-0.9,1.9-1.5c0.8-0.7,1.6-1.3,2.3-2.1C119.1,122.5,119.2,122.5,119.2,122.6z"/>
		<path class="st11" d="M119.2,122.6c-0.1-0.1-0.1-0.1-0.2-0.2c0.4-1.9,0.6-3.9,0.6-5.8c0-17.7,0-35.4,0-53.1
			c0.7-0.9,1.5-1.5,2.2-2.4c1.9-2.2,2.6-4.7,2.6-7.5c0.1-6.2,0-12.4,0-18.6c0-1.1-0.2-2.2-0.3-3.3c-0.2-1.5-0.8-2.8-1.2-4.2
			c0.1-0.4,0.2-0.9,0.3-1.3c0.2-0.7,0.3-1.4,0.8-2c0.8,0.7,1.4,1.6,2.1,2.5c1,1.3,2,2.7,3,4.1c1.7,2.4,3.2,5,4.5,7.6
			c1,1.9,1.8,3.8,2.7,5.8c0.3,0.8,0.6,1.6,0.9,2.4c0.7,1.8,1.4,3.7,1.9,5.6c0.2,1,0.4,2,0.7,2.9c0.4,1.4,0.5,2.8,0.9,4.3
			c0.3,1.1,0.4,2.3,0.5,3.5c0.1,1,0,2.1,0.4,3.1c0.1,0.2-0.1,0.5,0,0.7c0.1,1.8,0.1,3.5,0.1,5.3c0,1.8-0.2,3.6-0.3,5.3
			c-0.1,1.7-0.3,3.5-0.6,5.2c-0.6,3-1.2,6-2.2,8.9c-0.4,1.2-0.8,2.5-1.2,3.8c-0.6,1.7-1.4,3.4-2.2,5.1c-1,2.3-2.1,4.5-3.4,6.6
			c-1.7,2.8-3.5,5.5-5.6,8C124.1,117.7,121.7,120.2,119.2,122.6z"/>
		<path class="st11" d="M20.5,63.5c-0.1,1.3,0.1,2.6,0.1,3.9c0,16,0,32,0,48c0,1.9,0.4,3.7,0.3,5.6c-1.9-2-3.8-4-5.5-6.3
			c-1.6-2.1-3.2-4.3-4.6-6.5C8.1,104,6,99.7,4.3,95.1c-1.2-3.2-2.1-6.5-2.8-9.9c-0.3-1.4-0.5-2.8-0.7-4.2c-0.3-2.1-0.6-4.2-0.7-6.3
			c-0.1-2.1-0.1-4.1,0-6.2c0-1.9,0.2-3.8,0.5-5.7c0.3-2.8,0.9-5.6,1.5-8.4c0.5-2.1,1.1-4.2,1.8-6.2c1-2.9,2.1-5.8,3.4-8.5
			c0.9-1.9,2.1-3.7,3.2-5.6c1.3-2.2,2.7-4.2,4.2-6.2c0.9-1.2,1.8-2.4,2.8-3.4c0.2,0.6,0.4,1.2,0.5,1.9c-0.1,0.2-0.2,0.4-0.3,0.6
			c-1.2,2.5-1.9,5.2-1.9,8c-0.1,6.5-0.1,13,0,19.5c0,1.9,0.4,3.8,1.6,5.4c0.6,0.9,1.2,1.7,2,2.5C19.7,62.7,20.3,62.9,20.5,63.5z"/>
		<path class="st11" d="M27.5,15.1c0.8-0.9,1.8-1.4,2.7-2.2c1.5-1.3,3.3-2.2,5-3.3C41.3,6,48,3.6,54.9,1.9c2.4-0.6,4.8-1,7.2-1.3
			c1.8-0.2,3.5-0.3,5.3-0.5C69.2,0,71.1,0,72.9,0.1c2.2,0.1,4.3,0.2,6.5,0.5c1.6,0.2,3.3,0.5,4.9,0.8c2.8,0.6,5.6,1.3,8.3,2.1
			c2.3,0.7,4.5,1.6,6.7,2.5c1.8,0.8,3.7,1.6,5.4,2.6c2.5,1.4,5,2.9,7.2,4.7c0.8,0.6,1.6,1,2.3,1.8c-0.6,0.5-1.4,0.8-2.1,1.3
			c-0.6,0.3-1.1,0.8-1.9,0.8c-1.9-0.4-3.8-0.5-5.6-0.5c-20.2-0.1-40.4,0.1-60.6-0.1c-2.6,0-5.2,0-7.8,0c-1.8,0-3.6,0.3-5.4,0.5
			c-0.2-0.1-0.3-0.2-0.5-0.3C29.2,16.3,28.3,15.7,27.5,15.1z"/>
		<path class="st12" d="M110.3,17c0.7,0,1.3-0.5,1.9-0.8c0.7-0.4,1.5-0.7,2.1-1.3c1.1-0.4,1.9-1.1,2.9-1.6c1.7-0.9,3.3-1.9,5-2.9
			c1.2-0.7,2.5-1.4,3.7-2.2c0.5-0.3,1.1-0.5,1.6-0.9c0.3-0.2,0.7-0.2,1,0.1c0.3,0.3,0.6,0.7,0.5,1.2c-0.7,2.3-1.4,4.6-2.2,7
			c-0.6,1.7-1.2,3.5-1.7,5.2c-0.1,0.5-0.6,0.9-0.3,1.4c-0.4,0.3-0.4,0.7-0.6,1.1c-0.1,0.3-0.1,0.6-0.1,0.9c-0.5,0.6-0.6,1.3-0.8,2
			c-0.1,0.4-0.2,0.9-0.3,1.3c-0.7,1.5-1.1,3-1.6,4.6c-0.6,2.2-2.1,3.4-4.2,3.3c-1.2,0-2.1-0.7-3-1.5c-2.1-1.9-3.9-4.2-5.8-6.2
			c-0.7-0.8-1.5-1.5-2.2-2.4c-1.4-1.9-1.2-4.4,0.6-5.8c0.8-0.7,1.8-1.2,2.7-1.7C109.9,17.6,110.2,17.5,110.3,17z"/>
		<path class="st12" d="M27.5,15.1c0.8,0.7,1.7,1.3,2.8,1.6c0.2,0.1,0.3,0.2,0.5,0.3c0.1,0.4,0.4,0.5,0.7,0.6
			c1.2,0.8,2.5,1.4,3.5,2.3c1.2,1.1,1.5,3.6,0.7,4.8c-0.6,1-1.4,1.8-2.1,2.6c-1.9,2-3.9,4-5.7,6.1c-1,1.2-2.3,2-3.9,2.1
			c-1.1,0.1-1.9-0.5-2.6-1.2c-1.4-1.2-1.6-3.1-2.2-4.7c-0.4-1.1-0.4-2.3-1.1-3.3c-0.1-0.6-0.3-1.3-0.5-1.9c0-0.7-0.3-1.3-0.5-2
			c-0.9-3-1.9-6.1-2.8-9.1c-0.5-1.5-0.9-3.1-1.5-4.6c-0.2-0.6,0.2-0.9,0.5-1.2c0.3-0.3,0.6-0.2,1,0c4,2.3,8,4.7,12,7
			C26.6,14.7,27,14.8,27.5,15.1z"/>
		<path class="st13" d="M77.3,141.7c0.1-0.1,0.2-0.1,0.4,0C77.6,141.7,77.4,141.7,77.3,141.7z"/>
		<path class="st14" d="M18,26.3c0.7,1,0.7,2.2,1.1,3.3c0.6,1.6,0.8,3.5,2.2,4.7c0.7,0.7,1.5,1.2,2.6,1.2c1.6-0.1,2.9-0.8,3.9-2.1
			c1.8-2.2,3.8-4.1,5.7-6.1c0.8-0.8,1.5-1.6,2.1-2.6c0.8-1.2,0.5-3.7-0.7-4.8c-1.1-1-2.4-1.5-3.5-2.3c-0.3-0.2-0.6-0.2-0.7-0.6
			c1.8-0.2,3.6-0.6,5.4-0.5c2.6,0.1,5.2,0,7.8,0c20.2,0.2,40.4,0,60.6,0.1c1.9,0,3.8,0.2,5.6,0.5c0,0.4-0.4,0.6-0.7,0.8
			c-0.9,0.6-1.9,1-2.7,1.7c-1.8,1.4-2,3.9-0.6,5.8c0.7,0.9,1.5,1.6,2.2,2.4c2,2.1,3.7,4.3,5.8,6.2c0.9,0.8,1.8,1.4,3,1.5
			c2.1,0.1,3.6-1.2,4.2-3.3c0.4-1.5,0.9-3.1,1.6-4.6c0.4,1.4,1,2.7,1.2,4.2c0.1,1.1,0.3,2.2,0.3,3.3c0,6.2,0.1,12.4,0,18.6
			c0,2.7-0.7,5.3-2.6,7.5c-0.7,0.8-1.5,1.5-2.2,2.4c-0.2,0-0.3,0-0.5,0.1c-0.7,0.4-1.5,0.8-2.2,1.2c-0.2-0.2-0.4-0.1-0.7-0.1
			c-0.6,0.1-1.2,0.4-1.8,0.4c-1.6,0.1-3.1,0.1-4.7,0.1c-0.4,0-0.4,0.1-0.4,0.5c0,0.7-0.1,1.4-0.3,2.1c-1,4.2-4.3,7.5-9,8.4
			c-2.5,0.5-4.9-0.1-7.2-1.3c-1.9-1.1-3.3-2.6-4.3-4.5c-0.7-1.5-1.2-3-1.2-4.7c0-0.5-0.2-0.6-0.7-0.5c-0.2,0.1-0.5,0.1-0.7,0.1
			c-1.7,0-3.3,0-5,0c-0.4,0-0.8-0.3-1.3-0.1c-0.4-0.3-0.9-0.3-1.4-0.4c-1.7-0.4-3.2-1.2-4.5-2.4c-2.2-2-3.7-4.4-3.6-7.5
			c0-0.2,0-0.5,0-0.7c0-0.2-0.2-0.2-0.4-0.2c-0.2,0-0.1,0.2-0.1,0.3c0.1,2.1-0.5,4.1-1.6,5.8c-1,1.6-2.3,2.9-4,3.7
			c-1.1,0.5-2.3,1-3.4,1.3c-0.7-0.1-1.3,0.1-2,0.1c-1.7,0-3.4,0-5.2,0c-0.4,0-0.7,0-0.6,0.6c0,0.4-0.1,0.9-0.1,1.3
			c-1,5.8-6.4,9.7-11.8,9.1c-1.9-0.2-3.6-0.9-5.2-2c-1.2-0.8-2.3-1.9-3.1-3.2c-0.9-1.6-1.5-3.3-1.6-5.2c0-0.6-0.3-0.6-0.8-0.6
			c-2.1,0-4.3,0.2-6.4-0.5c-0.2-0.1-0.4-0.3-0.6-0.1c-0.8-0.2-1.5-0.7-2.2-1.1c-0.2-0.2-0.4-0.3-0.7-0.3c-0.2-0.6-0.8-0.8-1.1-1.1
			c-0.8-0.8-1.4-1.6-2-2.5c-1.1-1.6-1.6-3.5-1.6-5.4c-0.1-6.5-0.1-13,0-19.5c0-2.8,0.7-5.5,1.9-8C17.8,26.7,17.9,26.5,18,26.3z
			 M97.7,57.1c0,0-0.1-0.1-0.1-0.1c-0.2-0.6-0.1-1.2-0.3-1.8c0,0.6-0.1,1.3-0.1,1.9c-0.7,0.6-0.9,1.5-1.3,2.3
			c-1.1,1.9-2.5,3.6-4.5,4.5c-0.9,0.4-1.5,0.8-1.1,1.9c0,0.1,0,0.1,0,0.2c0.2,3.2,2.5,6.1,5.5,7.2c1.9,0.6,3.7,0.5,5.6-0.1
			c2.6-0.8,5.1-3.9,5.2-6.7c0-1.4,0.3-1.1-1.1-1.5c-1.5-0.5-3-1.1-4.1-2.4c-1.2-1.3-2.5-2.5-3.1-4.2C98,57.9,98,57.5,97.7,57.1
			L97.7,57.1z M46.2,62.1c-0.4-1-1.2-1.7-1.8-2.6c-0.4-0.9-0.7-1.8-1.3-2.6c0-0.5,0-1.1,0-1.6c0,0-0.1,0-0.1,0
			c-0.1,0.6-0.2,1.1-0.3,1.7c-0.2,0.4-0.3,0.8-0.5,1.2c-0.9,2.1-2,4-4,5.3c-1.1,0.7-2.3,1.4-3.6,1.7c-0.5,0.1-0.8,0.4-0.7,1
			c0.1,0.9,0.3,1.8,0.7,2.6c1.7,3.4,4.4,5.2,8.3,4.9c1.9-0.1,3.5-0.8,4.8-2.1c1.6-1.5,2.4-3.4,2.6-5.5c0.2-1.4,0.1-1.5-1.3-2
			C47.9,63.6,47,62.8,46.2,62.1z"/>
		<path class="st13" d="M117,64.8c0.7-0.4,1.5-0.8,2.2-1.2c0.2-0.1,0.3-0.1,0.5-0.1c0,17.7,0,35.4,0,53.1c0,1.9-0.3,3.9-0.6,5.8
			c-0.7,0.8-1.5,1.4-2.3,2.1c-0.6,0.5-1.3,0.9-1.9,1.5c0,0-0.1,0.1-0.2,0.1c-1.8,1.6-3.8,2.8-5.8,4.2c-0.5,0.4-1.1,0.7-1.7,1
			c-0.1,0.1-0.3,0.2-0.5,0.1c-0.2-0.1-0.1-0.3-0.1-0.4c0-0.4,0.4-0.9,0-1.3c0.4-0.3,0.1-0.8,0.3-1.2c0.3-0.7,0.3-1.6,0.1-2.2
			c-0.3-0.8,0-1.5-0.1-2.2c-0.3-2.3-0.5-4.6-1.4-6.7c-0.9-2.1-1.9-4.2-3.2-6.2c-1.6-2.2-3.2-4.4-5.3-6.2c-1.8-1.6-3.9-2.9-6-4.2
			c-1.7-1.1-3.5-1.9-5.3-2.7c-1.9-0.8-3.9-1.2-5.8-1.8c-1.9-0.6-3.8-0.6-5.8-0.9c-1.4-0.2-2.8-0.2-4.2-0.2
			c-3.7,0.1-7.4,0.4-10.9,1.5c-2.4,0.7-4.6,1.6-6.9,2.6c-3.2,1.4-5.9,3.5-8.7,5.7c-0.8,0.6-1.4,1.4-2.1,2.2
			c-0.1,0.1-0.3,0.4-0.5,0.3c-0.2-0.1-0.2-0.4-0.2-0.6c0-1.8,0-3.7,0-5.5c0-0.5,0.4-0.9,0.2-1.4c2-0.2,4-0.7,5.9-1.7
			c1.3-0.7,2.4-1.6,3.1-2.9c0.9-1.9,0.2-4-1.9-5.4c-1.6-1.1-3.3-1.7-5.2-2c-0.6-0.1-1.3-0.1-1.9-0.3c-0.2-0.8-0.2-1.6-0.2-2.5
			c0-0.5,0-1.1,0.3-1.5c0.1-0.2,0-0.3,0-0.5c0.3,0,0.6,0,0.9,0c5.3,0.2,9.8-1.8,13.6-5.4c3.5-3.3,5.1-7.5,5.5-12.3
			c1.2-0.3,2.3-0.8,3.4-1.3c1.7-0.8,3-2.1,4-3.7c1.2-1.8,1.8-3.7,1.6-5.8c0-0.1-0.2-0.2,0.1-0.3c0.2,0,0.4-0.1,0.4,0.2
			c0,0.2,0,0.4,0,0.7c-0.1,3.1,1.4,5.5,3.6,7.5c1.3,1.2,2.8,2,4.5,2.4c0.5,0.1,1,0.1,1.4,0.4c-0.1,1,0.1,1.9,0.3,2.8
			c0.9,4.2,3,7.6,6.2,10.4c3,2.6,6.5,4.1,10.6,4.5c2.8,0.2,5.6-0.2,8.2-1.1c1.2-0.4,2.3-1,3.4-1.8c1.2-0.9,2.4-1.8,3.4-2.9
			C115.3,73.7,117,69.6,117,64.8z M77.3,77.2c-3.9,0-7.8,0-11.7,0c-1.7,0-3.3,0-5,0c-0.4,0-0.6,0.1-0.5,0.6c0.1,0.7,0.2,1.4,0.4,2.1
			c0.8,2.6,2.3,4.7,4.7,6c1.8,1,3.8,1.3,5.9,1.3c2.2,0,4.3-0.5,6.1-1.8c2.6-1.8,4-4.3,4.1-7.5c0-0.4-0.1-0.6-0.5-0.6
			C79.7,77.2,78.5,77.2,77.3,77.2z M100.4,99.8c0.7,0.1,1.3,0.1,2,0c0.1,0,0.2,0,0.3,0c0.1,0,0.1,0,0.2,0c1.6,0,3.1-0.3,4.6-0.9
			c1.8-0.6,3.5-1.4,4.7-3.1c1-1.5,0.9-3.6-0.4-4.9c-0.6-0.6-1.3-1.1-2.1-1.6c-1.1-0.7-2.4-1.1-3.6-1.4c-2.7-0.5-5.4-0.7-8.1-0.2
			c-2.5,0.5-4.9,1.2-6.7,3.1c-1.5,1.5-1.6,3.6-0.3,5.2c1.7,1.9,3.9,2.9,6.3,3.4C98.3,99.7,99.3,99.7,100.4,99.8z"/>
		<path class="st3" d="M60.8,65.3c-0.4,4.8-2,9-5.5,12.3c-3.8,3.6-8.3,5.6-13.6,5.4c-0.3,0-0.6,0-0.9,0c-4.4-0.3-8.3-2.1-11.5-5.1
			c-3.2-3.1-5.3-6.8-5.8-11.3c-0.1-0.6-0.2-1.1-0.2-1.7c0.2-0.1,0.4,0.1,0.6,0.1c2.1,0.7,4.3,0.4,6.4,0.5c0.5,0,0.7,0,0.8,0.6
			c0.1,1.8,0.7,3.6,1.6,5.2c0.7,1.3,1.8,2.3,3.1,3.2c1.6,1.1,3.3,1.7,5.2,2c5.5,0.6,10.9-3.3,11.8-9.1c0.1-0.4,0.2-0.9,0.1-1.3
			c0-0.5,0.2-0.6,0.6-0.6c1.7,0,3.4,0,5.2,0C59.5,65.3,60.1,65.1,60.8,65.3z"/>
		<path class="st14" d="M40.8,87.5c0.6,0.2,1.2,0.2,1.9,0.3c1.9,0.3,3.6,0.9,5.2,2c2.1,1.4,2.8,3.6,1.9,5.4
			c-0.7,1.3-1.8,2.2-3.1,2.9c-1.8,1-3.8,1.4-5.9,1.7c-1.7,0.2-3.4,0.1-5.1-0.1c-2.3-0.3-4.6-1-6.4-2.6c-0.6-0.5-1.2-0.9-1.5-1.6
			c-0.9-1.7-0.5-3.4,0.8-4.7c1.6-1.7,3.8-2.4,6-2.9C36.7,87.4,38.8,87.4,40.8,87.5z"/>
		<path class="st3" d="M117,64.8c0,4.8-1.8,8.8-5,12.3c-1,1.1-2.2,2-3.4,2.9c-1.1,0.8-2.2,1.4-3.4,1.8c-2.6,0.9-5.4,1.4-8.2,1.1
			c-4-0.3-7.5-1.9-10.6-4.5c-3.2-2.8-5.3-6.2-6.2-10.4c-0.2-0.9-0.4-1.9-0.3-2.8c0.4-0.2,0.8,0.1,1.3,0.1c1.7,0,3.3,0,5,0
			c0.2,0,0.5,0,0.7-0.1c0.4-0.1,0.7,0,0.7,0.5c0,1.7,0.5,3.2,1.2,4.7c1,1.9,2.4,3.4,4.3,4.5c2.2,1.3,4.6,1.8,7.2,1.3
			c4.7-0.9,8-4.2,9-8.4c0.2-0.7,0.3-1.4,0.3-2.1c0-0.3,0-0.5,0.4-0.5c1.6,0,3.2,0,4.7-0.1c0.6-0.1,1.2-0.3,1.8-0.4
			C116.6,64.7,116.8,64.6,117,64.8z"/>
		<path class="st11" d="M97.7,57.1c0.4,0.3,0.4,0.8,0.5,1.2c0.6,1.7,1.9,2.9,3.1,4.2c1.1,1.2,2.6,1.9,4.1,2.4
			c1.4,0.4,1.1,0.2,1.1,1.5c-0.1,2.8-2.6,5.9-5.2,6.7c-1.9,0.6-3.7,0.7-5.6,0.1c-3-1-5.3-4-5.5-7.2c0-0.1,0-0.1,0-0.2
			c-0.4-1.1,0.3-1.5,1.1-1.9c2.1-0.9,3.4-2.6,4.5-4.5c0.4-0.8,0.6-1.7,1.3-2.3c0.1,0,0.3-0.1,0.4-0.1C97.6,57,97.6,57.1,97.7,57.1
			C97.7,57.1,97.6,57.1,97.7,57.1L97.7,57.1z M98.4,62.4c-1.7,0-3.1,1.4-3.2,3.1c-0.1,1.8,1.6,2.9,2.8,3c2.2,0.2,3.3-1.5,3.4-3
			C101.4,63.7,100,62.2,98.4,62.4z"/>
		<path class="st11" d="M43.1,56.9c0.6,0.8,0.8,1.8,1.3,2.6c0,0.1,0,0.3,0,0.4c0.1,1,0.9,2,1.8,2.2c0.9,0.7,1.7,1.5,2.8,1.9
			c1.3,0.5,1.4,0.6,1.3,2c-0.2,2.1-1,4-2.6,5.5c-1.4,1.3-3,2-4.8,2.1c-3.9,0.3-6.6-1.5-8.3-4.9c-0.4-0.8-0.5-1.7-0.7-2.6
			c-0.1-0.6,0.2-0.9,0.7-1c1.3-0.3,2.5-1,3.6-1.7c2-1.3,3.2-3.2,4-5.3c0.2-0.4,0.3-0.8,0.5-1.2C42.8,56.9,42.9,56.9,43.1,56.9z
			 M41.8,62.4c-1.5-0.2-3.1,1.5-3,3.1c0.1,1.5,1.6,3.1,3.1,3.1c1.6,0,3.1-1.6,3.1-3.2C45,63.8,43.8,62.4,41.8,62.4z"/>
		<path class="st3" d="M46.2,62.1C45.3,62,44.4,61,44.3,60c0-0.1,0-0.3,0-0.4C45,60.4,45.8,61.1,46.2,62.1z"/>
		<path class="st12" d="M97.6,57c-0.1,0-0.3,0.1-0.4,0.1c0-0.6,0.1-1.3,0.1-1.9C97.5,55.8,97.4,56.4,97.6,57z"/>
		<path class="st12" d="M43.1,56.9c-0.1,0-0.3,0-0.4,0c0.1-0.6,0.2-1.1,0.3-1.7c0,0,0.1,0,0.1,0C43.1,55.8,43.1,56.3,43.1,56.9z"/>
		<polygon class="st12" points="97.7,57.1 97.6,57.1 97.7,57.1 		"/>
		<path class="st14" d="M102.7,99.8c-0.1,0-0.2,0-0.3,0c-0.7-0.1-1.3-0.1-2,0c-1-0.1-2.1-0.1-3.1-0.3c-2.5-0.5-4.7-1.5-6.3-3.4
			c-1.4-1.6-1.2-3.7,0.3-5.2c1.9-1.9,4.2-2.6,6.7-3.1c2.7-0.5,5.4-0.4,8.1,0.2c1.3,0.3,2.5,0.7,3.6,1.4c0.8,0.5,1.5,0.9,2.1,1.6
			c1.3,1.3,1.4,3.4,0.4,4.9c-1.1,1.7-2.9,2.5-4.7,3.1c-1.5,0.5-3,0.9-4.6,0.9C102.8,99.8,102.8,99.8,102.7,99.8z"/>
		<path class="st11" d="M77.3,77.2c1.2,0,2.5,0.1,3.7,0c0.5,0,0.5,0.2,0.5,0.6c-0.1,3.2-1.6,5.7-4.1,7.5c-1.8,1.3-3.9,1.8-6.1,1.8
			c-2.1,0-4.1-0.2-5.9-1.3c-2.4-1.3-4-3.4-4.7-6c-0.2-0.7-0.3-1.4-0.4-2.1c-0.1-0.5,0.1-0.6,0.5-0.6c1.7,0,3.3,0,5,0
			c0,0.8-0.1,1.6,0.1,2.4c0.3,1.6,2.1,3.3,3.7,3.4c1.2,0,2.4,0,3.6,0c0.8,0,1.5-0.3,2.1-0.8C77,80.9,77.4,79.2,77.3,77.2z"/>
		<path class="st3" d="M77.3,77.2c0.1,2-0.3,3.7-2,5c-0.7,0.5-1.4,0.7-2.1,0.8c-1.2,0-2.4,0-3.6,0c-1.6-0.1-3.4-1.7-3.7-3.4
			c-0.2-0.8-0.1-1.6-0.1-2.4C69.5,77.2,73.4,77.2,77.3,77.2z"/>
		<path class="st3" d="M100.4,99.8c0.7,0,1.3-0.1,2,0C101.7,99.9,101,100,100.4,99.8z"/>
		<path class="st3" d="M102.7,99.8c0.1,0,0.1,0,0.2,0C102.8,99.8,102.8,99.8,102.7,99.8z"/>
		<path class="st3" d="M98.4,62.4c1.6-0.2,3,1.3,3,3.2c0,1.5-1.2,3.1-3.4,3c-1.2-0.1-2.9-1.2-2.8-3C95.3,63.8,96.7,62.4,98.4,62.4z"
			/>
		<path class="st3" d="M41.8,62.4c1.9,0,3.2,1.4,3.2,3c0,1.6-1.5,3.2-3.1,3.2c-1.5,0-3-1.6-3.1-3.1C38.8,63.8,40.4,62.2,41.8,62.4z"
			/>
	</g>
</g>
</svg>
