<?xml version="1.0" encoding="utf-8"?>
<!-- Generator: Adobe Illustrator 27.3.1, SVG Export Plug-In . SVG Version: 6.00 Build 0)  -->
<svg version="1.1" id="Ebene_1" xmlns="http://www.w3.org/2000/svg" xmlns:xlink="http://www.w3.org/1999/xlink" x="0px" y="0px"
	 viewBox="0 0 141.7 141.7" style="enable-background:new 0 0 141.7 141.7;" xml:space="preserve">
<style type="text/css">
	.st0{fill:#F6BB37;}
	.st1{fill:#3684C6;}
	.st2{fill:#DCA12A;}
	.st3{fill:#FCFCFE;}
	.st4{fill:#E97E2F;}
	.st5{fill:#28273D;}
	.st6{fill:#7F65AA;}
	.st7{fill:#B49ECB;}
	.st8{fill:#66529D;}
	.st9{fill:#33314C;}
	.st10{fill:#35ACC6;}
	.st11{fill:#27263D;}
	.st12{fill:#DB191D;}
	.st13{fill:#42BEE1;}
	.st14{fill:#EE715E;}
	.st15{fill:#396CB3;}
	.st16{fill:#EA5B4C;}
	.st17{fill:#F2C551;}
	.st18{fill:#27273D;}
	.st19{fill:#B0CF6D;}
	.st20{fill:#28263D;}
	.st21{fill:#9E4A30;}
	.st22{fill:#DB1E1D;}
	.st23{fill:#FBFBFD;}
	.st24{fill:#A3C163;}
	.st25{fill:#3F426D;}
	.st26{fill:#33304C;}
	.st27{fill:#DB181D;}
	.st28{fill:#83C4ED;}
	.st29{fill:#B6622B;}
	.st30{fill:#AB795E;}
	.st31{fill:#88C7EE;}
	.st32{fill:#9BB7CC;}
	.st33{fill:#E97F31;}
	.st34{fill:#CD6F2C;}
	.st35{fill:#A8A4A6;}
	.st36{fill:#84C4EC;}
	.st37{fill:#FEFEFE;}
	.st38{fill:#D91F1D;}
	.st39{fill:#F29454;}
	.st40{fill:#3C86C6;}
	.st41{fill:#F8FAFD;}
	.st42{fill:#AD8ABF;}
	.st43{fill:#67529E;}
	.st44{fill:#F6D373;}
	.st45{fill:#29273D;}
	.st46{fill:#EE715D;}
	.st47{fill:#F9C6BD;}
	.st48{fill:#A65E3A;}
	.st49{fill:#F18B88;}
	.st50{fill:#82C2EC;}
	.st51{fill:#E28080;}
	.st52{fill:#D57474;}
	.st53{fill:#4F5173;}
	.st54{fill:#3785C6;}
	.st55{fill:#E84680;}
	.st56{fill:#28273E;}
	.st57{fill:#E13072;}
	.st58{fill:#F5BA37;}
	.st59{fill:#F3C651;}
	.st60{fill:#DB5144;}
	.st61{fill:#A17FB8;}
	.st62{fill:#AC8ABE;}
	.st63{fill:#342E4F;}
	.st64{fill:#2DAC64;}
	.st65{fill:#5CB993;}
	.st66{fill:#9DBA5C;}
	.st67{fill:#5AB992;}
	.st68{fill:#66529E;}
	.st69{fill:#EA5A4C;}
	.st70{fill:#12994E;}
	.st71{fill:#DE5044;}
	.st72{fill:#EE715F;}
	.st73{fill:#E97F2F;}
	.st74{fill:#A89AC9;}
	.st75{fill:#38B3CD;}
	.st76{fill:#DD3D78;}
	.st77{fill:#F5D373;}
	.st78{fill:#FDEAB4;}
	.st79{fill:#7F66AA;}
	.st80{fill:#3885C6;}
	.st81{fill:#40436D;}
	.st82{fill:#A99ACA;}
	.st83{fill:#34314B;}
	.st84{fill:#F4D273;}
	.st85{fill:#83C5ED;}
	.st86{fill:#D29C2C;}
	.st87{fill:#87C7EE;}
	.st88{fill:#F6BB38;}
	.st89{fill:#F6BB3A;}
	.st90{fill:#E83D69;}
	.st91{fill:#F4BC3F;}
	.st92{fill:#85C5EB;}
	.st93{fill:#DA1E1D;}
	.st94{fill:#DDA736;}
	.st95{fill:#F18D88;}
	.st96{fill:#FFFEFE;}
	.st97{fill:#F9C8BC;}
	.st98{fill:#3B85C6;}
</style>
<g id="myeKLJ.tif">
	<g>
		<path class="st8" d="M59.6,140.8c-1.3-0.1-2.7-0.3-3.9-0.7c-0.6-0.2-1.2-0.2-1.8-0.3c-1.4-0.4-2.8-0.7-4.2-1.1
			c-1-0.4-2.1-0.8-3.1-1.1c-1.5-0.5-3-1.2-4.5-1.8c-0.6-0.2-1.2-0.5-1.7-0.8c-2.2-1.2-4.4-2.4-6.6-3.7c-3.4-2-6.5-4.5-9.6-6.9
			c-0.2-0.2-0.4-0.3-0.5-0.6c-0.1-0.3-0.3-0.5-0.6-0.5c-0.4-0.1-0.6-0.3-0.8-0.6c-0.4-0.5-0.9-0.9-1.4-1.4c-0.7-0.5-1.3-1.2-1.9-1.9
			c-0.8-1.1-1.9-1.9-2.6-3c-1-1.4-2.1-2.7-3-4.1c-0.8-1.2-1.6-2.3-2.4-3.5c-1-1.6-2.1-3.3-2.9-5.1c-1.5-3.2-3.2-6.4-4.3-9.8
			c-1.1-3.5-2-7-2.7-10.6c-0.3-1.7-0.5-3.4-0.7-5.1C-0.1,74.5,0,71,0.1,67.4c0.1-3.1,0.5-6.1,1.1-9.1C1.6,56.5,2,54.8,2.4,53
			c0.1-0.3,0.2-0.6,0.1-0.9c-0.1-0.2,0.3-0.4,0.4-0.7c0.3-1.6,1-3,1.4-4.6c0.1-0.4,0.6-0.6,0.2-1.1c-0.1-0.1,0.1-0.1,0.2-0.1
			c0.2,0,0.3-0.1,0.3-0.3c0.1-0.7,0.6-1.2,0.6-2c0-0.3,0.4-0.4,0.5-0.7c0.3-0.8,0.6-1.5,1-2.2c1.1-2.5,2.6-4.9,4-7.3
			c0.2-0.4,0.4-0.7,0.6-1.1c0.2-0.3,0.6-0.6,0.8-1c1.5-2.3,3.2-4.5,5-6.5c1.4-1.6,2.8-3.1,4.3-4.6c6-5.8,12.9-10.4,20.5-13.8
			c4.1-1.8,8.4-3.3,12.7-4.3c3.2-0.7,6.4-1.2,9.6-1.5C68,0,71.4-0.1,74.8,0.1c1.6,0.1,3.1,0.2,4.7,0.4c5,0.6,9.9,1.8,14.7,3.4
			c4.7,1.6,9.1,3.7,13.4,6.3c2.5,1.5,4.9,3.1,7.2,5c2.2,1.8,4.4,3.5,6.4,5.5c0.9,0.9,1.7,2,2.6,2.9c1.4,1.5,2.7,3.1,3.9,4.7
			c1.3,1.8,2.6,3.6,3.7,5.6c1.2,2,2.4,4.1,3.4,6.3c2.6,5.8,4.7,11.9,5.8,18.2c0.3,1.7,0.6,3.3,0.7,5c0.1,0.8,0.1,1.7,0.4,2.5
			c0.2,0.4-0.1,0.8-0.1,1.3c0,0.7,0.1,1.4,0.1,2.2c0,1.7-0.1,3.4-0.2,5.1c-0.1,0.9-0.1,1.8-0.2,2.7c-0.1,1.2-0.2,2.4-0.4,3.6
			c-0.2,1.3-0.3,2.5-0.6,3.8c-0.3,1.3-0.5,2.6-0.9,3.9c-0.4,1.3-0.9,2.5-1.1,3.8c-0.1,0.8-0.6,1.3-0.8,2c-0.2,0.8-0.5,1.5-0.8,2.3
			c-0.1,0.3-0.2,0.5-0.3,0.7c-0.7,1.6-1.3,3.2-2,4.7c-0.4,0.8-0.9,1.6-1.3,2.4c-0.4,0.7-0.9,1.5-1.1,2.3c-0.1,0.3-0.4,0.5-0.5,0.7
			c-3.5,6-7.9,11.2-13,15.9c-4,3.7-8.4,6.8-13.2,9.5c-0.7,0.4-1.3,0.9-1.9,1.2c-4.6,2.1-9.3,4.1-14.3,5.4c-0.8,0.2-1.6,0.6-2.5,0.7
			c-0.9,0.1-1.8,0.3-2.7,0.5c-0.9,0.1-1.8,0.3-2.8,0.5c0.3-0.3,0.2-0.6,0.2-0.9c0-7.2,0-14.5,0-21.7c0-0.3,0-0.7-0.1-1
			c0.3-0.4,0.7-0.4,1.1-0.5c1.3-0.3,2.4-1.2,3.5-1.8c1.8-1,3.5-2.1,5.1-3.5c0.5-0.5,1.2-0.8,1.6-1.4c0.2-0.1,0.4-0.2,0.6-0.4
			c0.7-0.9,1.5-1.7,2.2-2.7c2.1-2.8,3.9-5.8,5.1-9.1c1.2-3.2,3.1-6,5.2-8.6c0.3-0.4,0.7-0.7,0.8-1.2c0.6-0.4,1-1.1,1.5-1.6
			c0.8-0.7,1.6-1.4,2.4-1.9c1.5-1.1,2.9-2.2,4.5-3.2c1.9-1.2,3.7-2.4,5.5-3.7c1.4-1.1,2.9-2,4.3-3.2c0.8-0.7,1.7-1.2,2.5-1.9
			c0.8-0.6,1.4-1.3,2.1-2c1.1-1,2.3-2.1,3.1-3.4c0.2-0.1,0.3-0.2,0.4-0.4c0.7-1,1.4-2.1,1.8-3.2c1.3-3.3,1.8-6.8,1.4-10.3
			c-0.1-0.6,0-1.3-0.5-1.8c0-0.4,0-0.7-0.2-1c-0.8-2-1.6-3.9-2.8-5.7c-0.8-1.3-1.9-2.2-2.8-3.3c-0.8-0.9-1.8-1.5-2.7-2.2
			c-2.3-1.5-4.8-2.4-7.5-2.9c-2.5-0.4-4.9-0.3-7.4,0.3c-1.3,0.3-2.6,0.6-3.8,1.3c-1.5,0.8-2.9,1.7-4.3,2.8c-1.1,0.9-2.1,1.8-3,2.8
			c-1,1.1-1.9,2.4-3,3.4c-2,1.9-5.2,1.3-6.2-1.3c-0.4-1.1-0.3-2.3,0-3.5c0.1-0.6,0.3-1.2,0.3-1.9c0.1-0.1,0.1-0.2,0.1-0.3
			c0-0.9,0.3-1.8,0.4-2.8c0.1-1.8,0.6-3.5,0.5-5.2c0-1.6,0.3-3.3,0.2-4.9c0-0.9-0.1-1.7-0.3-2.6c0.1-0.8-0.1-1.6-0.3-2.3
			c-0.5-1.3-0.8-2.7-1.5-3.9c-0.9-1.7-1.8-3.5-3.1-4.9c-0.6-0.7-1-1.6-1.7-2.2c-1.1-0.9-2.2-1.9-3.4-2.6c-1.5-0.9-2.9-1.9-4.6-2.4
			c-2-0.7-4-1.2-6.1-1.4c-2.3-0.2-4.5,0-6.8,0.3c-3,0.4-5.6,1.9-8.1,3.5c-0.9,0.6-1.6,1.3-2.5,2c-1.7,1.2-2.9,2.7-4,4.4
			c-1.1,1.8-2.2,3.6-2.7,5.7c-0.2,0.9-0.5,1.8-0.8,2.7c-0.4,1.5-0.6,3.1-0.5,4.7c0.1,1.7,0.2,3.3,0.4,5c0.2,2.1,0.5,4.2,0.8,6.3
			c0.2,1.6,0.5,3.2,0.4,4.9c0,0.5-0.1,1.1-0.4,1.5C47,47.6,44,48,42,46c-1.5-1.5-2.8-3.3-4.4-4.7c-2-1.9-4.3-3.2-6.9-4.1
			c-0.8-0.2-1.5-0.6-2.3-0.7c-2-0.1-3.9-0.7-5.9-0.2c-1,0.2-2.1,0.3-3.2,0.6c-1.5,0.4-2.9,1-4.2,1.8c-2.2,1.2-4.3,2.7-5.8,4.8
			c-1.2,1.5-2.2,3.1-3,4.9c-0.9,2.3-1.5,4.7-1.4,7.2c0.1,1.9,0,3.7,0.6,5.5c0.3,0.8,0.5,1.6,0.9,2.4c0.7,1.5,1.3,3,2.4,4.3
			c0.4,0.4,0.5,1,1.1,1.3c0.2,0.4,0.6,0.7,1,1c0.9,0.9,2,1.5,2.9,2.6c0.2,0.3,0.5,0.6,0.9,0.8c0.5,0.2,0.9,0.5,1.3,0.8
			c0.5,0.5,1,1,1.5,1.4c0.4,0.3,0.8,0.6,1.2,0.9c1.4,1,2.7,2.2,4.2,3.1c1.7,1,3.2,2.2,4.9,3.2c0.9,0.6,1.9,1,2.6,1.9
			c0.1,0.1,0.2,0,0.3,0.1c0.5,0.7,1.3,1.1,1.9,1.6c2.3,1.9,4,4.3,5.6,6.8c0.1,0.2,0.1,0.3,0.3,0.4c0.1,0.1,0.2,0.2,0.2,0.4
			c0,0.1,0.1,0.1,0.1,0.2c0.8,1.5,1.4,3.1,2.2,4.6c0.1,0.2,0.2,0.4,0.3,0.6c0.4,1.2,1,2.4,1.6,3.5c1.2,2.2,2.5,4.3,4.2,6.1
			c1.4,1.6,3,3,4.8,4.3c1.9,1.4,3.8,2.6,5.9,3.6c0.5,0.2,1,0.6,1.6,0.7c0.2,0.3,0.1,0.6,0.1,0.8c0,7.1,0,14.3,0,21.4
			C59.6,139.9,59.6,140.4,59.6,140.8z"/>
		<path class="st71" d="M59.6,140.8c0-0.4,0-0.9,0-1.3c0-7.1,0-14.3,0-21.4c0-0.3,0.1-0.6-0.1-0.8c0.2-0.4,0.4-0.9,0.8-1.2
			c0.6-0.6,1-1.3,1.4-2c0.5-0.9,0.7-1.9,1.1-2.8c0.5,0.1,0.6,0.7,1.1,1c0.6,0.4,1.3,0.8,1.8,1.2c1.3,1.1,2.8,1.9,4.3,2.6
			c2,1,4.2,1.7,6.4,2.3c0.4,0.1,0.7,0.1,1.1,0c0.6-0.1,1.2-0.4,1.8-0.5c0.7-0.1,1.3-0.6,2.1-0.6c0.1,0.3,0.1,0.6,0.1,1
			c0,7.2,0,14.5,0,21.7c0,0.3,0,0.7-0.2,0.9c-1.1,0.2-2.2,0.4-3.4,0.5c-3.6,0.4-7.1,0.3-10.7,0.2C64.6,141.6,62.1,141.3,59.6,140.8z
			"/>
		<path class="st72" d="M81.4,117.4c-0.8-0.1-1.4,0.4-2.1,0.6c-0.6,0.1-1.2,0.3-1.8,0.5c-0.4,0.1-0.7,0.1-1.1,0
			c-2.2-0.7-4.4-1.3-6.4-2.3c-1.5-0.8-3-1.5-4.3-2.6c-0.5-0.5-1.2-0.9-1.8-1.2c-0.4-0.3-0.5-0.9-1.1-1c0.2-1.2,0.3-2.5,0.3-3.8
			c-0.1-1.7-0.4-3.3-1.1-4.9c-1.1-2.5-2.8-4.3-5.1-5.6c-1.6-0.9-3.3-1.5-5.1-1.7c0-0.1,0-0.2,0.1-0.3c0.5-0.3,0.3-0.6,0.1-0.9
			c-0.4-0.5-0.9-1.1-1.3-1.6c-0.7-1.1-1.4-2.4-2.4-3.3c-1.3-1.2-2.3-2.7-3.8-3.8c-1.5-1.1-2.8-2.4-4.4-3.3c-0.7-0.4-1.3-0.9-2-1.3
			c-1.2-0.7-2.4-1.5-3.5-2.4c-0.5-0.4-1-0.8-1.7-1c-0.2-2.4-0.6-4.8-2.1-6.8c-0.2-0.2-0.4-0.5-0.1-0.8c0.1,0,0.1-0.1,0.2-0.1
			c2.6-0.9,4.8-2.5,6.5-4.7c2.9-3.8,3.8-8.2,2.8-12.9c-0.7-3.5-2.7-6.2-5.4-8.4c-0.7-0.6-1.5-1.1-2.3-1.5c-1.1-0.6-2.3-1.1-3.6-1.3
			c-0.9-0.1-1.9-0.2-2.8-0.5c0-0.3,0-0.5,0.3-0.7c1-0.5,1.9-1.2,2.9-1.6c0.5-0.2,1-0.4,1.3-0.9c2.5,0.9,4.9,2.2,6.9,4.1
			c1.6,1.5,2.9,3.2,4.4,4.7c2,2,5,1.6,6.5-0.6c0.3-0.4,0.3-1,0.4-1.5c0.1-1.6-0.2-3.3-0.4-4.9c-0.3-2.1-0.6-4.2-0.8-6.3
			c-0.1-1.7-0.3-3.3-0.4-5c-0.1-1.6,0.2-3.2,0.5-4.7c0.2-0.9,0.5-1.8,0.8-2.7c0.6-2.1,1.6-3.9,2.7-5.7c1-1.7,2.3-3.2,4-4.4
			c0.9-0.6,1.6-1.4,2.5-2c2.5-1.5,5.1-3,8.1-3.5c2.2-0.3,4.5-0.5,6.8-0.3c2.1,0.2,4.1,0.8,6.1,1.4c1.7,0.5,3.1,1.5,4.6,2.4
			c1.2,0.7,2.3,1.7,3.4,2.6c0.7,0.6,1.1,1.5,1.7,2.2c1.3,1.5,2.2,3.2,3.1,4.9c0.6,1.2,1,2.6,1.5,3.9c0.3,0.8,0.4,1.5,0.3,2.3
			c-1.1-0.5-2.3-0.8-3.6-0.7c-0.3-0.5-0.4-1.1-0.5-1.6c-1.7-5.3-5-9.2-10-11.7c-2.2-1.1-4.5-1.7-7-1.9c-3.5-0.3-6.9,0.1-10,1.8
			c-4,2.1-7.1,5-9.1,9.1c-0.6,1.2-1.1,2.5-1.5,3.8c-0.6,2-0.6,4.1-0.5,6.1c0.1,2.3,0.7,4.5,1.7,6.6c1,2,2.2,4,3.8,5.6
			c1,1.1,2.3,1.9,3.5,2.8c1.6,1.1,3.3,1.7,5.1,2.3c1.5,0.5,3.1,0.6,4.6,0.6c2.1,0.1,4.1,0,6.1-0.7c1.6-0.5,3.1-1.1,4.6-2
			c1.1-0.6,2.2-1.4,3.1-2.3c0.8-0.8,1.6-1.6,2.4-2.4c0.4,0,0.8,0.1,1.2,0.2c1.3,0.4,2.7,0.7,4.1,0.4c0.3-0.1,0.7-0.1,1-0.1
			c0,0.6-0.2,1.2-0.3,1.9c-0.2,1.2-0.4,2.4,0,3.5c1,2.6,4.2,3.2,6.2,1.3c1.1-1.1,2-2.3,3-3.4c0.9-1,1.9-2,3-2.8
			c1.3-1.1,2.8-1.9,4.3-2.8c1.2-0.7,2.5-1,3.8-1.3c2.4-0.6,4.9-0.7,7.4-0.3c2.7,0.4,5.2,1.3,7.5,2.9c1,0.6,1.9,1.3,2.7,2.2
			c0.9,1.1,2,2,2.8,3.3c1.1,1.8,2,3.7,2.8,5.7c0.1,0.3,0.2,0.7,0.2,1c-0.4,0-0.7-0.3-1-0.4c-1.2-0.3-2.3-0.8-3.6-0.5
			c-0.1-0.2-0.3-0.5-0.4-0.7c-1.4-3.4-3.6-6-6.9-7.6c-3.7-1.9-7.5-2.3-11.5-1.3c-3.3,0.9-5.8,2.9-7.9,5.5c-1,1.2-1.6,2.6-2.1,4.1
			c-0.4,1.1-0.7,2.3-0.8,3.5c-0.5,5.3,1.4,9.6,5.3,13.1c1.7,1.6,3.8,2.5,6,3.1c2,0.5,4,0.6,6,0.3c2.1-0.3,4.1-1.1,5.9-2.2
			c1.1-0.7,2-1.6,3-2.4c0.3,0.5,0.8,0.6,1.3,0.8c1.1,0.5,2.4,0.3,3.5,0.4c-0.8,1.3-2,2.3-3.1,3.4c-0.7,0.7-1.4,1.4-2.1,2
			c-0.8,0.6-1.8,1.2-2.5,1.9c-1.3,1.2-2.9,2.1-4.3,3.2c-1.8,1.3-3.6,2.5-5.5,3.7c-1.6,1-3,2.1-4.5,3.2c-0.9,0.6-1.6,1.3-2.4,1.9
			c-0.6,0.5-0.9,1.2-1.5,1.6c-0.2,0-0.4-0.1-0.6-0.2c-2.9-1.2-5.9-1.9-9.1-1.1c-1.7,0.4-3.3,1.1-4.6,2.2c-0.9,0.8-1.7,1.6-2.5,2.4
			c-0.9,1-1.5,2.1-1.9,3.3c-0.6,2-1,4-0.6,6.1c0.7,3.1,1.7,5.9,4.3,8c0.4,0.3,0.8,0.6,1,1.1c-0.4,0.6-1.1,1-1.6,1.4
			c-1.6,1.4-3.3,2.5-5.1,3.5c-1.2,0.6-2.2,1.5-3.5,1.8C82.1,116.9,81.7,117,81.4,117.4z M61.2,83.6c0,0.1-0.1,0.2-0.1,0.3
			c-0.3,0.9,0,1.8,0.1,2.8c0.2,1.1,0.5,2.3,1,3.2c0.6,1.3,1.7,2.2,2.9,3.1c1.4,1,2.9,1.6,4.6,1.9c1.3,0.2,2.6,0,3.9-0.5
			c1.5-0.5,2.9-1.3,3.9-2.5c2.1-2.3,3.1-5.1,2.6-8.3c0-0.2,0-0.3,0-0.5c-0.4-2.3-1.6-4.1-3.5-5.5c-0.2-0.1-0.4-0.3-0.6-0.3
			c-0.3-0.2-0.5-0.5-0.9-0.5c-0.2-0.2-0.5-0.3-0.7-0.4c-1.5-0.8-3.2-0.8-4.8-0.7c-1.2,0.1-2.3,0.5-3.3,1.1c-0.3,0.2-0.7,0.1-0.9,0.5
			c-0.2,0-0.4,0.1-0.5,0.3c-2,1.5-3,3.5-3.7,5.8C61.1,83.4,61.1,83.5,61.2,83.6z M51.3,76.5c4.9,0.1,8.3-3.8,8.3-8.3
			c0-4.9-3.7-8.5-8.6-8.5c-4.6,0-8,3.6-8.1,8.1C42.8,72.4,46.6,76.6,51.3,76.5z M90.1,79c4.5,0.2,8.2-3.6,8.3-8.1
			c0.2-5.4-4.2-8.7-8.6-8.7c-4.3,0-7.9,3.7-8.1,8C81.5,74.9,85.8,79.3,90.1,79z M70.4,54.9c-1.3,0.1-2.9-0.1-4.5,0.1
			c-1,0.1-1.8,0.4-2.6,1c-0.4,0.3-0.8,0.7-0.9,1.1c-0.2,1.2,0,2.3,0.9,3.1c1.4,1.2,2.8,2.5,4,3.8c1.7,1.8,4.7,1.7,6.4,0
			c1-1,1.9-2,2.9-2.9c0.4-0.4,0.9-0.8,1.3-1.2c1.3-1.3,1.1-3-0.5-4.1c-0.9-0.6-2-0.8-3.1-0.9C73.2,54.8,72,54.9,70.4,54.9z"/>
		<path class="st44" d="M51.7,95.2c1.8,0.2,3.5,0.8,5.1,1.7c2.3,1.3,4.1,3.1,5.1,5.6c0.7,1.6,1,3.2,1.1,4.9c0,1.3-0.1,2.5-0.3,3.8
			c-0.4,0.9-0.6,1.9-1.1,2.8c-0.4,0.7-0.8,1.4-1.4,2c-0.3,0.3-0.6,0.8-0.8,1.2c-0.6-0.1-1.1-0.4-1.6-0.7c-2.1-1-4-2.2-5.9-3.6
			c-1.7-1.3-3.3-2.7-4.8-4.3c-1.7-1.8-3.1-3.9-4.2-6.1c-0.6-1.1-1.2-2.3-1.6-3.5c0-0.2,0.2-0.4,0.3-0.6c1.6-1.6,3.5-2.6,5.7-3.1
			C48.7,95,50.2,95,51.7,95.2z"/>
		<path class="st44" d="M92.8,110.1c-0.2-0.5-0.6-0.8-1-1.1c-2.6-2.1-3.7-4.9-4.3-8c-0.4-2.1,0-4.2,0.6-6.1c0.4-1.2,1-2.4,1.9-3.3
			c0.8-0.8,1.6-1.7,2.5-2.4c1.3-1.1,2.9-1.8,4.6-2.2c3.2-0.8,6.2-0.1,9.1,1.1c0.2,0.1,0.4,0.2,0.6,0.2c-0.1,0.5-0.5,0.9-0.8,1.2
			c-2.1,2.6-3.9,5.4-5.2,8.6c-1.3,3.3-3,6.3-5.1,9.1c-0.7,0.9-1.5,1.8-2.2,2.7C93.2,109.8,93,110,92.8,110.1z"/>
		<path class="st71" d="M30.7,37.1c-0.3,0.5-0.8,0.7-1.3,0.9c-1.1,0.4-2,1.1-2.9,1.6c-0.3,0.2-0.3,0.4-0.3,0.7
			c-1.2,0-2.3,0.2-3.5,0.3c-1.4,0.2-2.7,0.5-4,1.2c-2,1.1-3.7,2.5-5.1,4.2c-3.4,4.3-4.1,9.1-2.6,14.2c0.6,2.1,1.8,3.9,3.2,5.5
			c-1.3,0.8-2.7,1.7-3.7,2.9c-0.1,0.1-0.3,0.2-0.5,0.2c-0.6-0.3-0.7-0.9-1.1-1.3c-1.1-1.3-1.7-2.8-2.4-4.3c-0.4-0.7-0.6-1.6-0.9-2.4
			C4.9,59.2,5,57.3,5,55.4c-0.1-2.5,0.5-4.9,1.4-7.2c0.7-1.8,1.8-3.4,3-4.9c1.6-2.1,3.6-3.5,5.8-4.8c1.3-0.7,2.7-1.4,4.2-1.8
			c1.1-0.3,2.1-0.4,3.2-0.6c2-0.5,3.9,0.1,5.9,0.2C29.2,36.5,29.9,36.9,30.7,37.1z"/>
		<path class="st71" d="M51.7,95.2c-1.5-0.2-3-0.2-4.4,0.2c-2.1,0.6-4.1,1.5-5.7,3.1c-0.2-0.1-0.4-0.1-0.6,0
			c-0.8-1.5-1.5-3.1-2.2-4.6c0-0.1-0.1-0.1-0.1-0.2c-0.1-0.1-0.2-0.2-0.2-0.4c0-0.2,0-0.4-0.3-0.4c-1.5-2.5-3.3-4.8-5.6-6.8
			c-0.6-0.5-1.4-0.9-1.9-1.6c0.4-0.8,1-1.5,1.3-2.4c0.5-1.6,0.9-3.3,1-5c0.6,0.2,1.2,0.6,1.7,1c1.1,0.9,2.3,1.6,3.5,2.4
			c0.7,0.4,1.3,1,2,1.3c1.6,0.9,2.9,2.3,4.4,3.3c1.5,1,2.4,2.6,3.8,3.8c1,0.9,1.6,2.2,2.4,3.3c0.4,0.6,0.8,1.1,1.3,1.6
			c0.3,0.3,0.4,0.7-0.1,0.9C51.7,95,51.7,95.1,51.7,95.2z"/>
		<path class="st44" d="M32.9,77.2c-0.1,1.7-0.4,3.4-1,5c-0.3,0.9-0.9,1.6-1.3,2.4c-0.1,0-0.3,0-0.3-0.1c-0.7-0.9-1.7-1.3-2.6-1.9
			c-1.7-1-3.3-2.2-4.9-3.2c-1.5-0.9-2.7-2.1-4.2-3.1c-0.4-0.3-0.8-0.6-1.2-0.9c-0.6-0.4-1-0.9-1.5-1.4c-0.4-0.3-0.8-0.6-1.3-0.8
			c-0.3-0.1-0.7-0.5-0.9-0.8c-0.8-1-2-1.6-2.9-2.6c-0.3-0.3-0.7-0.6-1-1c0.2,0,0.4-0.1,0.5-0.2c1.1-1.2,2.4-2.1,3.7-2.9
			c0.3,0.2,0.5,0.5,0.8,0.8c2.8,2.5,6.1,3.8,9.8,4c2,0.1,4-0.2,5.9-0.9c-0.2,0.3,0,0.6,0.1,0.8C32.3,72.5,32.7,74.8,32.9,77.2z"/>
		<path class="st44" d="M131.1,50.5c1.3-0.3,2.4,0.1,3.6,0.5c0.4,0.1,0.7,0.4,1,0.4c0.4,0.5,0.4,1.2,0.5,1.8c0.4,3.6,0,7-1.4,10.3
			c-0.5,1.2-1.1,2.2-1.8,3.2c-0.1,0.2-0.2,0.3-0.4,0.4c-1.2-0.1-2.4,0.1-3.5-0.4c-0.5-0.2-1-0.3-1.3-0.8c0-0.2,0.2-0.3,0.3-0.5
			c0.7-1.1,1.7-2,2.2-3.2c0.4-0.9,0.7-1.9,1-2.9c0.6-2.1,0.6-4.2,0.4-6.3C131.6,52.2,131.2,51.4,131.1,50.5z"/>
		<path class="st44" d="M89.8,23.7c1.3-0.1,2.4,0.2,3.6,0.7c0.2,0.9,0.2,1.7,0.3,2.6c0.1,1.7-0.2,3.3-0.2,4.9c0,1.8-0.5,3.5-0.5,5.2
			c0,0.9-0.3,1.8-0.4,2.8c0,0.1,0,0.2-0.1,0.3c-0.3,0-0.7,0-1,0.1c-1.4,0.4-2.7,0-4.1-0.4c-0.4-0.1-0.8-0.2-1.2-0.2
			c0-0.2,0.2-0.4,0.3-0.6c1.1-1.3,1.8-2.9,2.5-4.5c0.9-2.2,1.2-4.4,1.2-6.7C90,26.6,89.9,25.2,89.8,23.7z"/>
		<path class="st72" d="M41,98.5c0.2-0.1,0.4-0.1,0.6,0c-0.1,0.2-0.3,0.4-0.3,0.6C41.2,98.9,41.1,98.7,41,98.5z"/>
		<path class="st72" d="M38.2,93c0.3,0,0.3,0.2,0.3,0.4C38.3,93.3,38.2,93.1,38.2,93z"/>
		<path class="st72" d="M38.7,93.7c0,0.1,0.1,0.1,0.1,0.2C38.7,93.8,38.7,93.8,38.7,93.7z"/>
		<path class="st3" d="M89.8,23.7c0.1,1.4,0.3,2.8,0.3,4.3c0,2.3-0.3,4.6-1.2,6.7c-0.6,1.6-1.3,3.2-2.5,4.5
			c-0.1,0.2-0.3,0.3-0.3,0.6c-0.8,0.8-1.6,1.6-2.4,2.4c-0.9,0.9-1.9,1.7-3.1,2.3c-1.4,0.8-3,1.4-4.6,2c-2,0.7-4,0.8-6.1,0.7
			c-1.6-0.1-3.1-0.2-4.6-0.6c-1.8-0.6-3.5-1.1-5.1-2.3c-1.2-0.9-2.4-1.7-3.5-2.8C55.2,39.9,54,38,53,35.9c-1-2.1-1.6-4.3-1.7-6.6
			c-0.1-2-0.1-4.1,0.5-6.1c0.4-1.3,0.9-2.5,1.5-3.8c2-4.1,5.1-7.1,9.1-9.1c3.1-1.6,6.5-2,10-1.8c2.5,0.2,4.8,0.8,7,1.9
			c5,2.5,8.3,6.4,10,11.7C89.4,22.7,89.5,23.2,89.8,23.7z M70.6,17.5c-3.2,0-5.9,1.3-8.1,3.6c-2.5,2.6-3.6,5.8-3.1,9.4
			c0.7,4.8,4.7,10.2,12.2,9.9c2.7-0.1,5.2-1.2,7.1-3.2c2.1-2.3,3.4-5,3.4-8.2C82.1,22.1,76.5,17.6,70.6,17.5z"/>
		<path class="st3" d="M131.1,50.5c0.1,0.9,0.4,1.7,0.5,2.5c0.3,2.1,0.3,4.2-0.4,6.3c-0.3,1-0.6,2-1,2.9c-0.6,1.2-1.5,2.2-2.2,3.2
			c-0.1,0.2-0.2,0.3-0.3,0.5c-1.1,0.7-1.9,1.7-3,2.4c-1.8,1.1-3.8,1.9-5.9,2.2c-2,0.3-4,0.2-6-0.3c-2.3-0.5-4.3-1.5-6-3.1
			c-3.9-3.5-5.7-7.9-5.3-13.1c0.1-1.2,0.4-2.4,0.8-3.5c0.5-1.5,1.1-2.9,2.1-4.1c2.1-2.6,4.6-4.6,7.9-5.5c4-1.1,7.8-0.6,11.5,1.3
			c3.3,1.7,5.5,4.3,6.9,7.6C130.9,50.1,131,50.3,131.1,50.5z M116.8,47.4c-5-0.1-9.1,3.9-9,9c0.1,5.2,4.4,8.8,8.9,8.8
			c5.3,0,8.9-4.3,8.9-9.1C125.6,51.5,121.6,47.3,116.8,47.4z"/>
		<path class="st3" d="M30.7,69.6c-1.9,0.8-3.8,1.1-5.9,0.9c-3.7-0.2-7.1-1.5-9.8-4c-0.3-0.2-0.4-0.6-0.8-0.8
			c-1.4-1.6-2.6-3.4-3.2-5.5c-1.5-5.2-0.9-9.9,2.6-14.2c1.4-1.8,3.1-3.2,5.1-4.2c1.2-0.7,2.6-1,4-1.2c1.2-0.2,2.3-0.3,3.5-0.3
			c0.9,0.3,1.9,0.3,2.8,0.5c1.3,0.2,2.4,0.7,3.6,1.3c0.8,0.4,1.6,0.9,2.3,1.5c2.7,2.2,4.6,4.9,5.4,8.4c1,4.7,0.1,9-2.8,12.9
			c-1.7,2.2-3.8,3.8-6.5,4.7C30.8,69.5,30.7,69.6,30.7,69.6z M25.4,65.2c4.8,0.2,9.1-4.6,8.9-8.8c-0.2-5.1-3.6-9.3-9.8-8.9
			c-4.2,0.3-8.1,3.7-8.1,8.9C16.5,61.6,20.8,65.2,25.4,65.2z"/>
		<path class="st44" d="M51.3,76.5c-4.7,0.1-8.6-4.1-8.4-8.7c0.1-4.5,3.5-8.1,8.1-8.1c5,0,8.7,3.6,8.6,8.5
			C59.6,72.7,56.2,76.6,51.3,76.5z"/>
		<path class="st44" d="M90.1,79c-4.3,0.4-8.6-4.1-8.4-8.8c0.2-4.3,3.8-8,8.1-8c4.4,0,8.8,3.3,8.6,8.7C98.3,75.4,94.6,79.2,90.1,79z
			"/>
		<path class="st18" d="M74.9,76.8c0.4,0,0.6,0.3,0.9,0.5c0,0.6,0,1.3,0,1.9c0.1,0.6,0.1,1.3,0.4,1.9c0.8,1.5,2,2.4,3.7,2.6
			c0.6,3.2-0.5,5.9-2.6,8.3c-1,1.2-2.4,1.9-3.9,2.5c-1.3,0.5-2.6,0.7-3.9,0.5c-1.6-0.2-3.2-0.9-4.6-1.9c-1.2-0.8-2.3-1.8-2.9-3.1
			c-0.5-1-0.8-2.1-1-3.2c-0.1-0.9-0.4-1.8-0.1-2.8c0-0.1,0.1-0.2,0.1-0.3c1.4-0.1,2.4-0.7,3.2-1.9c0.9-1.4,1-2.9,0.9-4.5
			c0.2-0.4,0.6-0.3,0.9-0.5c0.2,1.2-0.1,2.4,0.3,3.6c0.6,2.1,2.6,3.5,4.7,3.2c1.8-0.3,3.5-2,3.6-3.8C74.9,78.7,75,77.7,74.9,76.8z"
			/>
		<path class="st71" d="M70.4,54.9c1.5,0,2.8,0,4,0c1.1,0,2.1,0.3,3.1,0.9c1.5,1.1,1.8,2.7,0.5,4.1c-0.4,0.4-0.9,0.8-1.3,1.2
			c-1,1-2,1.9-2.9,2.9c-1.7,1.7-4.7,1.9-6.4,0c-1.3-1.4-2.6-2.6-4-3.8c-0.9-0.8-1.2-1.9-0.9-3.1c0.1-0.5,0.5-0.8,0.9-1.1
			c0.7-0.6,1.6-0.9,2.6-1C67.5,54.8,69.1,54.9,70.4,54.9z"/>
		<path class="st3" d="M74.9,76.8c0.1,1-0.1,2-0.1,2.9c-0.1,1.9-1.8,3.6-3.6,3.8c-2.1,0.3-4.2-1.2-4.7-3.2c-0.3-1.2-0.1-2.4-0.3-3.6
			c1-0.6,2.1-1,3.3-1.1c1.6-0.1,3.3-0.1,4.8,0.7C74.5,76.5,74.7,76.6,74.9,76.8z"/>
		<path class="st3" d="M80,83.6c-1.7-0.2-2.9-1.1-3.7-2.6c-0.3-0.6-0.4-1.2-0.4-1.9c-0.1-0.6,0-1.3,0-1.9c0.3,0,0.5,0.2,0.6,0.3
			c1.9,1.4,3.1,3.2,3.5,5.5C80,83.2,80,83.4,80,83.6z"/>
		<path class="st3" d="M65.3,77.2c0.1,1.6,0,3.1-0.9,4.5c-0.8,1.1-1.8,1.8-3.2,1.9c-0.1-0.1-0.1-0.1-0.1-0.3
			c0.7-2.3,1.7-4.3,3.7-5.8C64.9,77.4,65.1,77.2,65.3,77.2z"/>
		<path class="st8" d="M70.6,17.5c5.9,0.1,11.5,4.5,11.5,11.3c0,3.2-1.3,5.9-3.4,8.2c-1.9,2-4.3,3.1-7.1,3.2
			c-7.6,0.3-11.6-5.1-12.2-9.9c-0.5-3.5,0.6-6.8,3.1-9.4C64.7,18.8,67.4,17.5,70.6,17.5z M73.7,21c-0.4-0.2-0.8-0.4-1.2-0.5
			c-1.6-0.3-3.3-0.2-4.9,0.4c-3.7,1.4-6,5.2-5.5,9.1c0.6,4.6,5,8,9.5,7.3c3.3-0.5,5.6-2.3,6.8-5.3c0.9-2.3,0.8-4.6-0.2-6.8
			c-0.1-0.2-0.2-0.5-0.5-0.5c0.1-0.2,0.1-0.3,0.2-0.5c0.6-1.5,0-3-1.4-3.6C75.6,20.2,74.6,20.5,73.7,21z"/>
		<path class="st8" d="M116.8,47.4c4.7-0.1,8.8,4.1,8.8,8.7c0,4.9-3.6,9.1-8.9,9.1c-4.4,0-8.8-3.6-8.9-8.8
			C107.7,51.3,111.8,47.4,116.8,47.4z M122.3,53c0.1-0.1,0.1-0.2,0.2-0.3c0.7-1-0.2-3.2-1.8-3c-0.6,0.1-1.1,0.3-1.6,0.5
			c0-0.2-0.2-0.2-0.3-0.3c-2-0.7-3.9-0.4-5.7,0.7c-2.8,1.7-3.9,5.2-2.7,8.1c1,2.3,2.7,3.7,5.1,4.1c2.6,0.4,4.8-0.5,6.4-2.6
			c1.2-1.7,1.5-3.5,1.1-5.5C123,54.1,122.9,53.4,122.3,53z"/>
		<path class="st8" d="M25.4,65.2c-4.6-0.1-8.9-3.6-8.9-8.9c0-5.2,3.9-8.6,8.1-8.9c6.2-0.4,9.6,3.8,9.8,8.9
			C34.5,60.6,30.2,65.4,25.4,65.2z M31,52.9c0.5-1,0.5-1.8-0.1-2.5c-0.7-0.8-1.9-1.2-3.1-0.1c-0.1-0.3-0.3-0.4-0.5-0.5
			c-1-0.2-2-0.3-2.9-0.1c-3.9,0.7-6.6,4.6-5.3,8.6c0.9,2.8,4.1,5,7.1,4.5c2.9-0.5,4.9-2.1,5.6-4.9C32.2,56.2,32.1,54.4,31,52.9z"/>
		<path class="st18" d="M77.9,24.7c0.3,0.1,0.4,0.3,0.5,0.5c0.9,2.2,1.1,4.5,0.2,6.8c-1.2,3.1-3.6,4.8-6.8,5.3
			c-4.5,0.7-8.9-2.7-9.5-7.3c-0.5-3.8,1.8-7.7,5.5-9.1c1.6-0.6,3.2-0.7,4.9-0.4c0.4,0.1,0.8,0.3,1.2,0.5c0,0.3-0.2,0.5-0.4,0.7
			c-0.7,1-0.3,2.8,0.7,3.5C75.4,26,76.6,25.8,77.9,24.7z M70.6,32.1c2,0,3.1-1.3,3.1-3.5c0-1.8-1.3-2.8-3.5-2.8
			c-1.5,0-2.8,1.5-2.9,3.2C67.3,30.5,68.7,32.3,70.6,32.1z"/>
		<path class="st3" d="M77.9,24.7c-1.2,1.2-2.5,1.3-3.8,0.5c-1-0.6-1.4-2.5-0.7-3.5c0.2-0.2,0.4-0.4,0.4-0.7
			c0.9-0.6,1.9-0.8,2.9-0.4c1.4,0.5,2,2.1,1.4,3.6C78,24.3,77.9,24.5,77.9,24.7z"/>
		<path class="st18" d="M122.3,53c0.7,0.4,0.7,1.1,0.8,1.7c0.4,2,0.1,3.8-1.1,5.5c-1.6,2.2-3.8,3-6.4,2.6c-2.4-0.3-4.2-1.7-5.1-4.1
			c-1.2-2.9-0.1-6.5,2.7-8.1c1.8-1.1,3.7-1.4,5.7-0.7c0.1,0,0.3,0.1,0.3,0.3c-0.2,0.4-0.4,0.8-0.5,1.2c-0.3,1,0.5,2.1,1.4,2.3
			C120.8,53.9,121.7,53.7,122.3,53z M116.6,53.9c-1.5-0.2-2.6,1.4-2.6,2.5c0,1.1,1.2,2.5,2.6,2.5c1.2,0,2.5-1.2,2.5-2.5
			C119.1,54.8,118.1,53.9,116.6,53.9z"/>
		<path class="st3" d="M122.3,53c-0.6,0.7-1.4,0.9-2.3,0.7c-0.9-0.2-1.7-1.4-1.4-2.3c0.1-0.4,0.3-0.8,0.5-1.2c0.5-0.3,1-0.5,1.6-0.5
			c1.6-0.2,2.5,2,1.8,3C122.4,52.8,122.3,52.9,122.3,53z"/>
		<path class="st18" d="M31,52.9c1.1,1.5,1.2,3.3,0.7,5c-0.8,2.9-2.7,4.5-5.6,4.9c-3,0.5-6.2-1.7-7.1-4.5c-1.3-4,1.4-7.9,5.3-8.6
			c1-0.2,2-0.1,2.9,0.1c0.3,0.1,0.4,0.2,0.5,0.5c-0.4,0.6-0.7,1.2-0.5,1.9c0.2,0.8,0.8,1.3,1.6,1.5C29.7,53.9,30.4,53.6,31,52.9z
			 M27.7,56.3c0-1.6-0.9-2.4-2.7-2.4c-1.1,0-2.2,1.2-2.2,2.4c0,1.4,1.1,2.5,2.6,2.5C26.8,58.8,27.7,57.7,27.7,56.3z"/>
		<path class="st3" d="M31,52.9c-0.6,0.7-1.3,1-2.1,0.8c-0.8-0.2-1.3-0.7-1.6-1.5c-0.2-0.7,0.1-1.3,0.5-1.9c1.2-1.1,2.4-0.7,3.1,0.1
			C31.4,51.1,31.5,51.9,31,52.9z"/>
		<path class="st3" d="M70.6,32.1c-1.9,0.2-3.3-1.6-3.3-3.1c0-1.7,1.3-3.2,2.9-3.2c2.2,0,3.5,1.1,3.5,2.8
			C73.7,30.8,72.6,32.1,70.6,32.1z"/>
		<path class="st3" d="M116.6,53.9c1.5,0,2.4,1,2.5,2.5c0,1.2-1.2,2.5-2.5,2.5c-1.4,0-2.6-1.4-2.6-2.5
			C114.1,55.2,115.2,53.6,116.6,53.9z"/>
		<path class="st3" d="M27.7,56.3c0,1.5-1,2.5-2.4,2.5c-1.4,0-2.6-1.1-2.6-2.5c0-1.2,1.1-2.4,2.2-2.4C26.8,53.9,27.7,54.6,27.7,56.3
			z"/>
	</g>
</g>
</svg>
