<?xml version="1.0" encoding="utf-8"?>
<!-- Generator: Adobe Illustrator 27.3.1, SVG Export Plug-In . SVG Version: 6.00 Build 0)  -->
<svg version="1.1" id="Ebene_1" xmlns="http://www.w3.org/2000/svg" xmlns:xlink="http://www.w3.org/1999/xlink" x="0px" y="0px"
	 viewBox="0 0 141.7 141.7" style="enable-background:new 0 0 141.7 141.7;" xml:space="preserve">
<style type="text/css">
	.st0{fill:#F6BB37;}
	.st1{fill:#3684C6;}
	.st2{fill:#DCA12A;}
	.st3{fill:#FCFCFE;}
	.st4{fill:#E97E2F;}
	.st5{fill:#28273D;}
	.st6{fill:#7F65AA;}
	.st7{fill:#B49ECB;}
	.st8{fill:#66529D;}
	.st9{fill:#33314C;}
	.st10{fill:#35ACC6;}
	.st11{fill:#27263D;}
	.st12{fill:#DB191D;}
	.st13{fill:#42BEE1;}
	.st14{fill:#EE715E;}
	.st15{fill:#396CB3;}
	.st16{fill:#EA5B4C;}
	.st17{fill:#F2C551;}
	.st18{fill:#27273D;}
	.st19{fill:#B0CF6D;}
	.st20{fill:#28263D;}
	.st21{fill:#9E4A30;}
	.st22{fill:#DB1E1D;}
	.st23{fill:#FBFBFD;}
	.st24{fill:#A3C163;}
	.st25{fill:#3F426D;}
	.st26{fill:#33304C;}
	.st27{fill:#DB181D;}
	.st28{fill:#83C4ED;}
	.st29{fill:#B6622B;}
	.st30{fill:#AB795E;}
	.st31{fill:#88C7EE;}
	.st32{fill:#9BB7CC;}
	.st33{fill:#E97F31;}
	.st34{fill:#CD6F2C;}
	.st35{fill:#A8A4A6;}
	.st36{fill:#84C4EC;}
	.st37{fill:#FEFEFE;}
	.st38{fill:#D91F1D;}
	.st39{fill:#F29454;}
	.st40{fill:#3C86C6;}
	.st41{fill:#F8FAFD;}
	.st42{fill:#AD8ABF;}
	.st43{fill:#67529E;}
	.st44{fill:#F6D373;}
	.st45{fill:#29273D;}
	.st46{fill:#EE715D;}
	.st47{fill:#F9C6BD;}
	.st48{fill:#A65E3A;}
	.st49{fill:#F18B88;}
	.st50{fill:#82C2EC;}
	.st51{fill:#E28080;}
	.st52{fill:#D57474;}
	.st53{fill:#4F5173;}
	.st54{fill:#3785C6;}
	.st55{fill:#E84680;}
	.st56{fill:#28273E;}
	.st57{fill:#E13072;}
	.st58{fill:#F5BA37;}
	.st59{fill:#F3C651;}
	.st60{fill:#DB5144;}
	.st61{fill:#A17FB8;}
	.st62{fill:#AC8ABE;}
	.st63{fill:#342E4F;}
	.st64{fill:#2DAC64;}
	.st65{fill:#5CB993;}
	.st66{fill:#9DBA5C;}
	.st67{fill:#5AB992;}
	.st68{fill:#66529E;}
	.st69{fill:#EA5A4C;}
	.st70{fill:#12994E;}
	.st71{fill:#DE5044;}
	.st72{fill:#EE715F;}
	.st73{fill:#E97F2F;}
	.st74{fill:#A89AC9;}
	.st75{fill:#38B3CD;}
	.st76{fill:#DD3D78;}
	.st77{fill:#F5D373;}
	.st78{fill:#FDEAB4;}
	.st79{fill:#7F66AA;}
	.st80{fill:#3885C6;}
	.st81{fill:#40436D;}
	.st82{fill:#A99ACA;}
	.st83{fill:#34314B;}
	.st84{fill:#F4D273;}
	.st85{fill:#83C5ED;}
	.st86{fill:#D29C2C;}
	.st87{fill:#87C7EE;}
	.st88{fill:#F6BB38;}
	.st89{fill:#F6BB3A;}
	.st90{fill:#E83D69;}
	.st91{fill:#F4BC3F;}
	.st92{fill:#85C5EB;}
	.st93{fill:#DA1E1D;}
	.st94{fill:#DDA736;}
	.st95{fill:#F18D88;}
	.st96{fill:#FFFEFE;}
	.st97{fill:#F9C8BC;}
	.st98{fill:#3B85C6;}
</style>
<g id="oFi5iA.tif">
	<g>
		<path class="st81" d="M99.6,135.2c-5.1,3-10.8,4.2-16.5,5.4c-0.9,0.2-1.8,0.9-2.8,0.5c-0.6-1.1-0.6-2.5-1.2-3.6
			c-1.6-2.7-3.8-2.9-5.3-0.2c-0.8,1.3-1.4,2.7-1.2,4.3c-8.4,0.8-16.4-1.2-24.3-3.5c-0.3-0.1-0.6-0.5-0.8-0.8
			c-0.9-2.2-1.7-2.4-3.9-1.1c-3.3-0.9-5.9-2.9-8.8-4.5c-0.5-6.1,0.4-12,2.2-17.8c2.6-8.5,3.8-17.3,3.7-26.2c0-0.7,0.2-1.5-0.4-2.1
			c-0.2-1.9-0.4-3.8-0.6-5.7c0-1-0.1-1.9-0.3-2.9C37.1,69,35.4,61,37,52.8c0.9-4.9,2.1-9.7,5-13.9c1.7,0.3,3.3,0.1,4.2-1.6
			c0.6-1.2,0-2.3-0.8-3.3c2.3-3.5,4.2-7.3,8.5-8.9c3.2-0.1,4-0.9,4.9-4.3c2,0.1,3.5-1.2,5.2-1.9c3.4-1.4,7-2.1,10.5-3.1
			c2.9,0,5.6,0.9,8.3,1.6c0,2.1,0,4.2,1.1,6c1.5,2.3,3.8,2.4,5.2,0c0.5-1,0.8-2.1,1.2-3.1c4.8,2,8.5,5.4,12.3,8.9
			c-2,1.5-3.8,3.5-6.1,4.7c-1.6,0.8-2.5,2-1.6,3.7c0.9,1.6,2.4,2,4.2,1.1c2.7-1.3,5-3.1,7.2-5.1c2,2.5,3.7,5.2,4.5,8.3
			c-2.4,0.8-3.4,2.9-4.3,4.9c-0.5,1-0.4,2.3,0.8,3.3c1,0.9,2,0.9,3.1,0.5c1.1-0.4,2.2-0.8,3.4-1.2c1.6,7.6,1.7,15.2-0.3,22.7
			c-2.4,9.1-2.9,18.4-1.6,27.7c1.2,8.1,2.8,16.2,6.3,23.7c-2.1,1.6-4.3,3-6.3,4.6c-2.1,1.6-4.3,3.2-6.5,4.6
			c-0.2,0.2-0.6,0.1-0.9,0.2c1.1-2.5,0.9-5,0.3-7.5c-0.4-1.6-1.2-3.2-3.3-3.3c-2.1-0.1-2.6,1.4-3.2,3
			C96.8,128.6,97.5,132,99.6,135.2z M68.5,109.3c2.2,1.2,4.3,1.3,6.4-0.1c2.4-0.5,4.4-1.5,5.5-3.8c0.3-0.4,0.8-0.9,1-1.3
			c2.2-4.3,1.8-8.9,0.8-13.3c-0.7-2.9-2.7-5.2-5.8-6.1c-3.2-1.5-6.3-1.5-9.5,0c-3.8,2.2-6.1,5.3-5.9,9.8c0.1,1.5,0,3.1,0,4.6
			c-0.1,2.4,0.6,4.5,2,6.3C64.2,107.6,66.1,108.7,68.5,109.3z M48.8,58.5c0.4,12.6,9.6,22.2,21.8,22c12.5-0.1,21.7-8.8,21.9-21.9
			c0.2-12.3-9.2-21.6-21.8-21.7C58,36.8,49.2,47,48.8,58.5z M107.9,84.2c-0.1-2.3-0.5-3.9-1.2-5.4c-0.5-1.2-1.4-2-2.8-2
			c-1.3,0-2.3,0.8-2.9,1.9c-1.6,3.5-1.5,7,0.2,10.4c0.6,1.2,1.6,1.6,3,1.5c1.3-0.1,2.2-1,2.5-2C107.3,87,108,85.4,107.9,84.2z
			 M74.9,27.6c0-2.3-0.3-3.8-1.2-5.3c-1.2-2.2-3.9-2.3-5.2-0.2c-2,3.3-1.8,6.8-0.4,10.1c0.5,1.1,1.6,2.6,3,2.6
			c1.3,0,2.3-1.4,2.8-2.7C74.5,30.6,75.2,29.1,74.9,27.6z M68.5,121.7c-0.2,2,0.4,3.8,1.4,5.5c1.3,2,2.9,2.3,4.5,0.4
			c2.7-3.1,2.4-8.8,0-11.8c-1.1-1.4-3.6-1-4.5,0.6C68.9,118.1,68.3,119.8,68.5,121.7z M96,109.9c0.4-1.8,0.1-3.7-1.1-5.4
			c-0.9-1.4-3.4-1.7-4.5-0.7c-2.5,2.5-2.4,9.8,0.1,12.4c1.3,1.3,2.5,1.2,3.8-0.1C95.9,114.4,96.3,112.3,96,109.9z M42.4,110
			c-0.1,2.2,0.4,4.1,1.8,5.7c1.4,1.7,2.4,1.8,4,0.2c2.5-2.5,2.8-7.2,0.7-11c-0.6-1.1-1.3-1.7-2.6-1.7c-1.4,0-2.4,0.8-2.8,2
			C42.9,106.8,42.1,108.4,42.4,110z"/>
		<path class="st82" d="M110.8,41.7c-0.8-3.1-2.5-5.8-4.5-8.3c2.8-3,5.2-6.3,7.4-9.7c2.8,0.2,5.3-1.2,7.8-2.1
			c5.6,5.6,10.3,11.9,13.5,19.1c3.4,7.6,5.5,15.5,6.3,23.9c1,10.4-0.3,20.3-3.8,30c-2.7,7.5-6.2,14.7-11.9,20.6
			c-2.6,2.6-4.5,5.9-7.6,8.1c-3.4-7.5-5.1-15.6-6.3-23.7c-1.4-9.3-0.8-18.6,1.6-27.7c2-7.6,1.9-15.1,0.3-22.7
			C112.9,46.7,112.8,43.9,110.8,41.7z"/>
		<path class="st82" d="M23.2,123c-2.9-1.1-4.1-4.1-6.1-6.1c-4-3.9-6.7-8.9-9.3-13.7C4.5,97,2.5,90.4,1.1,83.6
			c-1.2-6.1-1.3-12.3-0.9-18.5C0.7,57.4,2.6,50,5.8,42.9c3.5-7.9,8.1-15,14-21.3c2.6,0.9,4.9,2.5,7.8,2c1.5,3.7,4.3,6.6,7,9.4
			c-2.1,2.5-3.4,5.4-4.7,8.3c-1.3,2.5-2.3,5-2.6,7.8c-2.1,6.2-2,12.6-0.7,18.9c1.2,5.8,2.7,11.6,3.2,17.6c0,1.8,0,3.6,0,5.4
			c0,3.8-0.4,7.6-1.2,11.3c-0.5,2.6-0.1,5.3-1,7.7C25.9,114.3,24.9,118.7,23.2,123z"/>
		<path class="st82" d="M102.6,29c-3.8-3.4-7.5-6.8-12.3-8.9c-2.3-1.4-4.9-2.3-7.5-2.9c-2.7-0.7-5.5-1.6-8.3-1.6
			c-0.3-0.1-0.5-0.4-0.8-0.4c-4.9-0.1-9.8,0.2-14.6,1.5c-2.5,0.8-5.2,1.3-7.4,2.9c-4.9,2.3-9.5,5-13.2,9c-2.6-1.8-4.1-4.6-6-7
			c0-0.5,0.3-0.9,0.6-1.3c3-3.2,3.8-6.9,2-11c3.1-1.4,6.2-2.9,9.3-4.2c6.2-2.6,12.7-3.9,19.3-4.7c6.6-0.8,13-0.4,19.4,0.7
			c8,1.4,15.7,4,22.8,8.2c-0.9,3.8-1.3,7.5,1.9,10.6c0.4,0.4,0.7,1.1,1,1.6C106.6,24,105,26.9,102.6,29z"/>
		<path class="st83" d="M29.7,85.6c-0.5-5.9-2-11.7-3.2-17.6c-1.3-6.3-1.3-12.7,0.7-18.9c1.1,0.4,2.2,0.8,3.4,1.2
			c1.3,0.5,2.3,0.3,3.3-0.8c0.9-1,0.7-1.9,0.3-3.1c-0.9-2.2-2.7-3.5-4.2-5.1c1.3-2.9,2.7-5.8,4.7-8.3c2.3,2.1,4.6,4.2,7.3,5.7
			c-2.9,4.2-4,9-5,13.9C35.4,61,37.1,69,39.1,76.9c0.2,1,0.3,1.9,0.3,2.9c-2.4-3.4-4.8-3.6-6.3-0.4c-1.7,3.5-1.2,7,0.7,10.3
			c1.2,2,3.4,1.9,4.6-0.2c0.7-1.2,1.1-2.6,1.6-4c0.6,0.6,0.4,1.4,0.4,2.1c0.1,8.9-1.1,17.7-3.7,26.2c-1.8,5.8-2.6,11.8-2.2,17.8
			c-3-1.9-6-4-8.8-6.3c-1-0.8-1.8-1.6-2.6-2.5c1.7-4.2,2.7-8.7,4.4-13c0.9-2.3,0.5-5.1,1-7.7c0.7-3.7,1.2-7.5,1.2-11.3
			C30.3,89.2,30.4,87.4,29.7,85.6z"/>
		<path class="st33" d="M108.8,21.6c-0.3-0.6-0.5-1.2-1-1.6c-3.2-3.1-2.8-6.8-1.9-10.6c0.7-2.2,2.4-4,4.1-4.9
			c2.3-1.1,5.3-1.8,7.8-0.8c2.4,0.9,4.4,2.4,6,4.6c1.4,2,1.6,3.7,1.2,5.9c-0.3,2.4-1,4.4-2.8,6c-0.4,0.4-0.8,0.8-0.8,1.4
			c-2.6,0.9-5,2.3-7.8,2.1C112.1,23,110.4,22.3,108.8,21.6z"/>
		<path class="st33" d="M35.1,9.4c1.8,4.1,1,7.8-2,11c-0.4,0.4-0.6,0.8-0.6,1.3c-1.6,0.7-3.3,1.3-4.9,2c-2.9,0.5-5.2-1.2-7.8-2
			c-3.1-3.4-4.5-7.3-3-11.8c2-6.1,10-8.4,14.8-4.6C33,6.3,34.5,7.5,35.1,9.4z"/>
		<path class="st84" d="M99.6,135.2c-2.1-3.2-2.8-6.6-1.3-10.3c0.6-1.6,1.2-3,3.2-3c2.1,0.1,2.9,1.7,3.3,3.3c0.6,2.5,0.8,5-0.3,7.5
			C103.1,134.1,101.5,135,99.6,135.2z"/>
		<path class="st84" d="M72.4,141.6c-0.2-1.6,0.5-3,1.2-4.3c1.6-2.7,3.8-2.5,5.3,0.2c0.7,1.1,0.6,2.5,1.2,3.6
			C77.6,141.4,75.1,141.9,72.4,141.6z"/>
		<path class="st84" d="M43.4,136.2c2.2-1.3,3-1.1,3.9,1.1C45.8,137.6,44.6,136.8,43.4,136.2z"/>
		<path class="st23" d="M48.8,58.5C49.2,47,58,36.8,70.6,37c12.7,0.1,22,9.4,21.8,21.7c-0.2,13-9.4,21.7-21.9,21.9
			C58.4,80.6,49.3,71.1,48.8,58.5z M83.3,59.8C84.1,52.5,77,47,70.1,47.1c-6,0.1-12.6,5.7-12.4,12.8c0.1,6.8,5.5,13.1,13.3,13
			C76.4,72.8,84.1,67.8,83.3,59.8z"/>
		<path class="st83" d="M63.1,105.4c-1.4-1.9-2.1-4-2-6.3c0-1.5,0.1-3.1,0-4.6c-0.2-4.6,2.1-7.7,5.9-9.8c0,1.1,0,2.1,0.1,3.2
			c0.1,2,1.3,3.5,2.9,4c1.5,0.5,3.3,0.5,5-0.9c2.2-1.9,1.1-4.2,1.6-6.3c3.1,0.9,5.1,3.2,5.8,6.1c1,4.4,1.4,9-0.8,13.3
			c-0.3,0.5-0.7,0.9-1,1.3C75.1,100.2,67.7,100.6,63.1,105.4z"/>
		<path class="st84" d="M108.8,21.6c1.6,0.7,3.3,1.4,4.9,2.1c-2.3,3.4-4.6,6.7-7.4,9.7c-2.2,2-4.5,3.8-7.2,5.1
			c-1.8,0.9-3.3,0.5-4.2-1.1c-0.9-1.7,0-2.8,1.6-3.7c2.3-1.2,4-3.1,6.1-4.7C105,26.9,106.6,24,108.8,21.6z"/>
		<path class="st84" d="M27.6,23.6c1.6-0.7,3.3-1.3,4.9-2c1.8,2.5,3.3,5.2,6,7c2,2.2,4,4.2,6.9,5.2c0.8,1,1.5,2.1,0.8,3.3
			c-0.9,1.7-2.5,1.9-4.2,1.6c-2.7-1.6-5-3.7-7.3-5.7C31.9,30.2,29.1,27.4,27.6,23.6z"/>
		<path class="st83" d="M45.3,33.9c-2.9-1-4.9-3.1-6.9-5.2c3.7-4,8.3-6.7,13.2-9c-0.3,2.2,1.4,3.6,2.2,5.4
			C49.5,26.6,47.6,30.4,45.3,33.9z"/>
		<path class="st84" d="M107.9,84.2c0.1,1.1-0.6,2.7-1.1,4.3c-0.3,1-1.2,1.9-2.5,2c-1.4,0.1-2.4-0.3-3-1.5
			c-1.7-3.4-1.8-6.9-0.2-10.4c0.5-1.1,1.5-1.9,2.9-1.9c1.4,0,2.2,0.9,2.8,2C107.4,80.3,107.8,82,107.9,84.2z"/>
		<path class="st84" d="M40,85.6c-0.5,1.3-0.9,2.7-1.6,4c-1.2,2.1-3.4,2.2-4.6,0.2c-1.9-3.3-2.3-6.8-0.7-10.3c1.5-3.2,3.9-3,6.3,0.4
			C39.6,81.8,39.8,83.7,40,85.6z"/>
		<path class="st84" d="M74.9,27.6c0.3,1.5-0.4,2.9-0.9,4.4c-0.5,1.3-1.5,2.7-2.8,2.7c-1.4,0.1-2.5-1.4-3-2.6
			c-1.5-3.3-1.7-6.8,0.4-10.1c1.3-2.1,4-2,5.2,0.2C74.6,23.8,74.9,25.3,74.9,27.6z"/>
		<path class="st84" d="M68.5,121.7c-0.3-1.9,0.4-3.6,1.3-5.2c0.9-1.6,3.4-2,4.5-0.6c2.4,3,2.7,8.7,0,11.8c-1.6,1.8-3.2,1.6-4.5-0.4
			C68.9,125.5,68.3,123.7,68.5,121.7z"/>
		<path class="st84" d="M96,109.9c0.3,2.4-0.1,4.5-1.7,6.2c-1.2,1.3-2.4,1.4-3.8,0.1c-2.5-2.5-2.6-9.9-0.1-12.4
			c1-1.1,3.6-0.7,4.5,0.7C96,106.2,96.3,108.1,96,109.9z"/>
		<path class="st84" d="M42.4,110c-0.3-1.7,0.5-3.2,1-4.8c0.4-1.2,1.4-1.9,2.8-2c1.3,0,2,0.6,2.6,1.7c2.1,3.8,1.8,8.6-0.7,11
			c-1.6,1.5-2.6,1.4-4-0.2C42.9,114.1,42.3,112.2,42.4,110z"/>
		<path class="st33" d="M63.1,105.4c4.6-4.8,12-5.2,17.3,0c-1.1,2.3-3.1,3.4-5.5,3.8c0.1-2.2-1.4-3.3-3.3-3.3
			c-1.8,0.1-3.2,1.3-3.2,3.4C66.1,108.7,64.2,107.6,63.1,105.4z"/>
		<path class="st23" d="M76.4,84.6c-0.4,2.1,0.6,4.4-1.6,6.3c-1.7,1.4-3.4,1.4-5,0.9c-1.6-0.5-2.8-2-2.9-4c0-1.1-0.1-2.1-0.1-3.2
			C70.1,83.1,73.3,83.1,76.4,84.6z"/>
		<path class="st84" d="M110.8,41.7c1.9,2.1,2,4.9,2.9,7.4c-1.1,0.4-2.3,0.8-3.4,1.2c-1.1,0.5-2.1,0.4-3.1-0.5
			c-1.1-1-1.2-2.3-0.8-3.3C107.4,44.6,108.5,42.5,110.8,41.7z"/>
		<path class="st84" d="M53.8,25.1c-0.8-1.8-2.4-3.2-2.2-5.4c2.2-1.6,4.9-2.1,7.4-2.9c0.3,1.3-0.1,2.6-0.3,3.9
			C57.8,24.2,57,24.9,53.8,25.1z"/>
		<path class="st84" d="M82.8,17.3c2.6,0.6,5.2,1.5,7.5,2.9c-0.4,1-0.7,2.2-1.2,3.1c-1.4,2.4-3.7,2.4-5.2,0
			C82.7,21.5,82.7,19.4,82.8,17.3z"/>
		<path class="st83" d="M58.7,20.7c0.2-1.3,0.6-2.6,0.3-3.9c4.8-1.3,9.6-1.6,14.6-1.5c0.3,0,0.5,0.3,0.8,0.4
			c-3.5,1-7.1,1.6-10.5,3.1C62.2,19.5,60.7,20.8,58.7,20.7z"/>
		<path class="st23" d="M68.5,109.3c0-2.1,1.3-3.3,3.2-3.4c1.9-0.1,3.3,1.1,3.3,3.3C72.8,110.6,70.6,110.5,68.5,109.3z"/>
		<path class="st84" d="M29.9,41.4c1.5,1.6,3.4,2.9,4.2,5.1c0.5,1.2,0.6,2.1-0.3,3.1c-0.9,1.1-2,1.3-3.3,0.8
			c-1.1-0.4-2.2-0.8-3.4-1.2C27.6,46.4,28.6,43.8,29.9,41.4z"/>
		<path class="st81" d="M29.7,85.6c0.7,1.8,0.6,3.6,0,5.4C29.7,89.2,29.7,87.4,29.7,85.6z"/>
		<path class="st82" d="M83.3,59.8c0.8,8-6.9,12.9-12.3,13c-7.8,0.1-13.2-6.1-13.3-13c-0.1-7.1,6.4-12.7,12.4-12.8
			C77,47,84.1,52.5,83.3,59.8z M78.9,55c0.5-1.2,0.8-2.6-0.2-3.6c-1.2-1.2-2.7-1.2-4.2-0.6c-2.5-0.1-5.1-0.6-7.5,0.2
			c-3.7,1.2-5.9,4.7-5.9,8.9c0,3.9,2.5,7.7,5.8,9c3.8,1.5,8.8,0.4,11.3-2.9C80.3,63,81.7,59.7,78.9,55z"/>
		<path class="st83" d="M78.9,55c2.8,4.7,1.5,8.1-0.7,11c-2.5,3.3-7.5,4.4-11.3,2.9c-3.4-1.3-5.9-5.2-5.8-9c0-4.2,2.2-7.7,5.9-8.9
			c2.4-0.8,5-0.4,7.5-0.2c-1.4,1.4-1.5,3.2-0.3,4.5C75.6,56.8,77.4,56.4,78.9,55z M70.5,56.6c-2.3,0-3.4,1-3.5,3.3
			c-0.1,1.9,1.5,3.6,3.4,3.6c2.3,0,3.9-1.5,3.9-3.7C74.2,58,72.5,56.6,70.5,56.6z"/>
		<path class="st23" d="M78.9,55c-1.5,1.4-3.3,1.8-4.7,0.3c-1.3-1.3-1.1-3.1,0.3-4.5c1.5-0.6,3-0.5,4.2,0.6
			C79.7,52.4,79.4,53.7,78.9,55z"/>
		<path class="st23" d="M70.5,56.6c2,0,3.7,1.5,3.8,3.2c0,2.2-1.6,3.7-3.9,3.7c-1.8,0-3.4-1.7-3.4-3.6
			C67.1,57.6,68.2,56.6,70.5,56.6z"/>
	</g>
</g>
</svg>
