<?xml version="1.0" encoding="utf-8"?>
<!-- Generator: Adobe Illustrator 27.3.1, SVG Export Plug-In . SVG Version: 6.00 Build 0)  -->
<svg version="1.1" id="Ebene_1" xmlns="http://www.w3.org/2000/svg" xmlns:xlink="http://www.w3.org/1999/xlink" x="0px" y="0px"
	 viewBox="0 0 141.7 141.7" style="enable-background:new 0 0 141.7 141.7;" xml:space="preserve">
<style type="text/css">
	.st0{fill:#F6BB37;}
	.st1{fill:#3684C6;}
	.st2{fill:#DCA12A;}
	.st3{fill:#FCFCFE;}
	.st4{fill:#E97E2F;}
	.st5{fill:#28273D;}
	.st6{fill:#7F65AA;}
	.st7{fill:#B49ECB;}
	.st8{fill:#66529D;}
	.st9{fill:#33314C;}
	.st10{fill:#35ACC6;}
	.st11{fill:#27263D;}
	.st12{fill:#DB191D;}
	.st13{fill:#42BEE1;}
	.st14{fill:#EE715E;}
	.st15{fill:#396CB3;}
	.st16{fill:#EA5B4C;}
	.st17{fill:#F2C551;}
	.st18{fill:#27273D;}
	.st19{fill:#B0CF6D;}
	.st20{fill:#28263D;}
	.st21{fill:#9E4A30;}
	.st22{fill:#DB1E1D;}
	.st23{fill:#FBFBFD;}
	.st24{fill:#A3C163;}
	.st25{fill:#3F426D;}
	.st26{fill:#33304C;}
	.st27{fill:#DB181D;}
	.st28{fill:#83C4ED;}
	.st29{fill:#B6622B;}
	.st30{fill:#AB795E;}
	.st31{fill:#88C7EE;}
	.st32{fill:#9BB7CC;}
	.st33{fill:#E97F31;}
	.st34{fill:#CD6F2C;}
	.st35{fill:#A8A4A6;}
	.st36{fill:#84C4EC;}
	.st37{fill:#FEFEFE;}
	.st38{fill:#D91F1D;}
	.st39{fill:#F29454;}
	.st40{fill:#3C86C6;}
	.st41{fill:#F8FAFD;}
	.st42{fill:#AD8ABF;}
	.st43{fill:#67529E;}
	.st44{fill:#F6D373;}
	.st45{fill:#29273D;}
	.st46{fill:#EE715D;}
	.st47{fill:#F9C6BD;}
	.st48{fill:#A65E3A;}
	.st49{fill:#F18B88;}
	.st50{fill:#82C2EC;}
	.st51{fill:#E28080;}
	.st52{fill:#D57474;}
	.st53{fill:#4F5173;}
	.st54{fill:#3785C6;}
	.st55{fill:#E84680;}
	.st56{fill:#28273E;}
	.st57{fill:#E13072;}
	.st58{fill:#F5BA37;}
	.st59{fill:#F3C651;}
	.st60{fill:#DB5144;}
	.st61{fill:#A17FB8;}
	.st62{fill:#AC8ABE;}
	.st63{fill:#342E4F;}
	.st64{fill:#2DAC64;}
	.st65{fill:#5CB993;}
	.st66{fill:#9DBA5C;}
	.st67{fill:#5AB992;}
	.st68{fill:#66529E;}
	.st69{fill:#EA5A4C;}
	.st70{fill:#12994E;}
	.st71{fill:#DE5044;}
	.st72{fill:#EE715F;}
	.st73{fill:#E97F2F;}
	.st74{fill:#A89AC9;}
	.st75{fill:#38B3CD;}
	.st76{fill:#DD3D78;}
	.st77{fill:#F5D373;}
	.st78{fill:#FDEAB4;}
	.st79{fill:#7F66AA;}
	.st80{fill:#3885C6;}
	.st81{fill:#40436D;}
	.st82{fill:#A99ACA;}
	.st83{fill:#34314B;}
	.st84{fill:#F4D273;}
	.st85{fill:#83C5ED;}
	.st86{fill:#D29C2C;}
	.st87{fill:#87C7EE;}
	.st88{fill:#F6BB38;}
	.st89{fill:#F6BB3A;}
	.st90{fill:#E83D69;}
	.st91{fill:#F4BC3F;}
	.st92{fill:#85C5EB;}
	.st93{fill:#DA1E1D;}
	.st94{fill:#DDA736;}
	.st95{fill:#F18D88;}
	.st96{fill:#FFFEFE;}
	.st97{fill:#F9C8BC;}
	.st98{fill:#3B85C6;}
</style>
<g id="Vseyvl.tif">
	<g>
		<path class="st59" d="M121.8,119.8c0,0.3-0.2,0.6-0.5,0.8c-3.2,3.2-6.7,6.1-10.4,8.7c-3.3,2.3-6.8,4.2-10.4,5.9
			c-3,1.4-6,2.5-9.1,3.5c-2.8,0.9-5.8,1.5-8.7,2c-5.3,1-10.6,1.1-16,1c-2.3-0.1-4.6-0.4-6.9-0.8c-5.3-0.8-10.4-2.4-15.4-4.2
			c-1.4-0.5-2.7-1.2-4.1-1.9c-1.5-0.7-3-1.6-4.4-2.3c-1.6-0.8-3.1-1.8-4.5-2.8c-2.4-1.6-4.7-3.2-6.8-5.1c-1.2-1.1-2.5-2.1-3.6-3.4
			c0.2-0.2,0.1-0.4,0.1-0.6c0-4.2,0.1-8.5-0.3-12.7c0,0,0-0.1,0-0.1c0-0.1,0-0.3,0-0.4c0,0,0-0.1,0-0.1c0-0.5-0.1-1-0.1-1.5
			c0.2-0.1,0.2-0.3,0-0.4c0.1-0.6-0.1-1.1-0.1-1.6c0-3.2,0-6.4,0-9.6c0-0.4,0-0.9,0-1.3c-0.2-2.6-0.4-5.2-0.4-7.8
			c-0.1-4.4,0.1-8.8-0.2-13.2c-0.3-4.5-0.3-9.1-0.3-13.6c0-0.8,0-1.6,0-2.3c-0.1-1.2-0.3-2.4-0.2-3.7c0.2,0.2,0.4,0.4,0.6,0.6
			c0.8,0.8,1.5,1.7,2.4,2.5c1.3,1.1,3.4,0.6,4.1-1.1c0.6-1.4,0.4-2.9,0.3-4.3c0-0.6,0-1.2-0.3-1.7c-0.2-0.3,0-0.6,0.5-0.5
			c0.8,0.1,1.6,0.2,2.4,0.4c1.7,0.4,3.4,0.4,5.1,0.6c1.4,0.1,2.8-1.3,2.7-2.7c-0.1-0.8-0.2-1.5-0.4-2.3c-0.3-1.6-0.7-3.1-1.1-4.7
			c-0.1-0.3-0.2-0.7,0.2-0.8c0.7-0.2,1.4-0.7,2.1-0.9c0.7-0.3,1.5-0.6,2.2-1c1.5-0.9,1.5-3,0.4-3.9c-0.7-0.5-1.4-0.9-2.1-1.3
			c-1.3-0.8-2.6-1.3-3.9-2.1c0-0.3,0.2-0.4,0.5-0.4c4.3,0.1,8.5-0.1,12.8,0.1c2.1,0.1,4.2,0,6.3,0c0.7,0.3,1.4,0,2.1,0
			c8.5,0,16.9,0,25.4,0c1.6,0,3.2,0.2,4.7-0.1c0.2,0.1,0.4,0.1,0.6,0.1c0.9,0,1.8,0,2.8,0c5.6,0,11.2,0,16.8,0
			c0.2,0,0.6-0.1,0.7,0.2c-0.5,0.5-1.2,0.6-1.7,0.9c-1.1,0.6-2.1,1.2-3.2,1.7c-1.2,0.6-2,1.5-1.9,3c0.1,0.6,0.3,1.2,0.8,1.5
			c1.4,0.9,2.9,1.5,4.5,2.1c0.3,0.1,0.5,0.2,0.4,0.5c-0.2,1.2-0.5,2.4-0.8,3.6c-0.3,1.1-0.6,2.3-0.7,3.4c-0.1,1.6,0.7,3.2,2.6,3.1
			c0.6,0,1.1-0.1,1.6-0.2c1.3-0.2,2.6,0,3.9-0.5c0.7-0.3,1.5-0.3,2.3-0.4c0.3,0,0.5,0,0.4,0.4c-0.1,0.8-0.2,1.6-0.2,2.3
			c0,0.6,0,1.2-0.2,1.8c-0.2,0.8,0,1.6,0.4,2.3c1,1.8,3.4,1.9,4.8,0.1c1-1.3,2.2-2.3,3-3.7c0-0.1,0.2-0.1,0.3-0.2
			c0.2,0.2,0.1,0.5,0.1,0.7c0,1.2-0.1,2.4,0,3.6c0,1.3,0,2.6-0.1,3.9c-0.1,3.5-0.1,7-0.3,10.5c-0.2,2.9,0,5.8-0.1,8.8
			c-0.1,3.2-0.2,6.5-0.3,9.7c-0.2,2.9,0,5.9-0.2,8.8c-0.1,2,0,4.1-0.1,6.1c-0.1,1-0.2,2.1-0.2,3.1c0,2.5-0.1,4.9-0.2,7.4
			C121.9,115.5,122,117.7,121.8,119.8z M83,127.7c0.3-0.1,0.6-0.2,0.9-0.3c1.7-0.3,3.4-1,5.1-1.3c1.1-0.2,2-1,3.1-1.4
			c0.2-0.1,0-0.2,0-0.3c0.4,0.1,0.7,0,1-0.2c1.9-1,3.4-2.5,4.7-4.2c0.3-0.4,0.8-0.8,0.8-1.4c0.4-1,0.7-2,0.9-3
			c0.3-1.6,0.6-3.1,0.9-4.6c0.6-2.4,1.2-4.8,1.3-7.3c0-1-0.1-2-0.3-3c-0.4-1.8-1.3-3.2-2.8-4.3c-0.7-0.5-1.5-0.9-2.3-1.4
			c-0.8-0.5-1.6-0.8-2.5-0.9c-1.1-0.4-2.2-0.6-3.3-0.7c-3.3-0.3-6.7-0.5-10-0.4c-0.2,0-0.4-0.1-0.6,0.1c-2.2,0-4.3,0.5-6.5,0.5
			c-0.3,0-0.6,0.1-0.9,0.2c-0.4,0-0.7,0-1.1,0.1c-3,0.5-5.9,1-8.8,1.8c-0.8,0.2-1.7,0.1-2.4,0.5c-0.3-0.1-0.5,0-0.7,0.1
			c-0.8,0.3-1.6,0.6-2.4,0.8c-0.8,0.2-1.5,0.4-2.3,0.7c-0.2,0-0.4,0.1-0.5,0.1c-2.3,0.8-4.6,1.7-6.7,2.9c-0.4,0.2-0.9,0.3-1.2,0.7
			c-0.1,0-0.3,0-0.4,0.1c-0.9,0.7-1.9,1.5-2.7,2.3c-0.5,0.5-1,1.1-1.3,1.7c-0.5,1.1-0.7,2.1-0.5,3.3c0.2,1.2,0.3,2.4,0.8,3.5
			c0.6,1.3,1.3,2.5,2.3,3.6c0.9,1,1.8,2,2.9,2.7c0.3,0.4,0.8,0.6,1.2,0.9c0.9,0.7,1.8,1.5,2.8,2.1c0.9,0.5,1.9,0.9,2.7,1.4
			c0.2,0.1,0.5,0.3,0.7,0.1c0,0.3,0.2,0.3,0.4,0.3c0.7,0.2,1.4,0.5,2.1,0.7c2.4,0.9,4.9,1.7,7.4,2.3c0.8,0.4,1.8,0.4,2.7,0.5
			c2.9,0.5,5.9,0.7,8.8,0.8c2.1,0.1,4.2-0.5,6.3-0.5C82.8,127.8,82.9,127.8,83,127.7z M75.6,68.1c0,6,1.9,10.8,5.8,14.7
			c3.8,3.8,8.6,5.7,13.8,5.7c6,0,11.1-2.5,15-7c3.8-4.4,5.1-9.6,4.5-15.4c-0.5-4.4-2.5-8.1-5.5-11.2c-4-4.1-9.1-5.8-14.7-5.7
			C84.1,49.5,75.6,58.1,75.6,68.1z M67.4,68.9c0-1.1,0-2.3-0.2-3.4c-0.7-3.8-2.3-7.1-4.9-10c-2.4-2.6-5.4-4.4-8.8-5.5
			c-1.9-0.6-3.8-0.7-5.8-0.8c-2-0.1-3.9,0.3-5.8,0.8c-0.9,0.2-1.8,0.7-2.7,1.1c-2.4,1-4.3,2.8-6.1,4.6c-1.6,1.7-2.7,3.7-3.7,5.8
			c-0.3,0.8-0.4,1.6-0.7,2.4c-0.4,1.1-0.5,2.2-0.6,3.3c-0.1,1.5,0,3.1,0.2,4.7c0.3,3.1,1.7,5.8,3.3,8.4c0.8,1.3,1.9,2.3,3,3.3
			c1.2,1.1,2.5,2,3.9,2.7c2.2,1.1,4.5,1.8,6.9,2.1c1.6,0.2,3.1,0.3,4.7,0.1c1.7-0.2,3.4-0.8,5.1-1.4c3.2-1.2,5.8-3.3,8-5.9
			C66,77.6,67.4,73.5,67.4,68.9z"/>
		<path class="st55" d="M54.2,28.4c-2.1,0-4.2,0.1-6.3,0c-4.3-0.2-8.5,0-12.8-0.1c-0.3,0-0.5,0-0.5,0.4c-1.3-0.7-2.6-1.5-3.8-2.3
			c-0.9-0.6-1.9-1.2-2.8-1.9c-1.8-1.3-3.6-2.7-5.3-4.2c-0.2-0.2-0.5-0.3-0.6-0.7c1-0.9,2-1.7,2.9-2.6c1-1,2.3-1.8,3.4-2.7
			c1.2-1.1,2.6-1.9,3.9-2.8c1.3-0.9,2.7-1.6,4.1-2.4c1.6-0.9,3.3-1.8,5-2.5c1.8-0.8,3.6-1.6,5.4-2.2C47.8,4,48.9,3.6,50,3.3
			c1.1-0.3,2.2-0.7,3.4-0.9c1.1-0.3,2.3-0.5,3.5-0.8c2.7-0.6,5.4-1,8.1-1.2c2.5-0.2,4.9-0.4,7.4-0.3c2.7,0.2,5.4,0.2,8,0.6
			C82.7,1.1,85,1.4,87.3,2c1.5,0.4,3,0.7,4.4,1.3c0.6,0.2,1.3,0.3,1.9,0.6c3.9,1.3,7.6,2.9,11.2,4.9c2.4,1.3,4.7,2.7,7,4.4
			c2.4,1.8,4.9,3.6,7,5.7c0.3,0.3,0.5,0.6,0.9,0.7c-0.1,0.2-0.3,0.4-0.5,0.6c-1.6,1.4-3.3,2.8-5.1,4.1c-1.5,1.1-3.1,2.1-4.7,3.2
			c-0.7,0.5-1.6,0.8-2.2,1.4c-0.1-0.4-0.4-0.2-0.7-0.2c-5.6,0-11.2,0-16.8,0c-0.9,0-1.8,0-2.8,0c-0.2,0-0.4,0-0.6-0.1
			c1.1-0.8,2.5-1.1,3.8-1.5c1.7-0.5,3.4-0.9,5.1-1.3c2.2-0.4,4.4-0.8,6.7-1.1c0.8-0.1,1.7-0.1,2.5-0.4c0.3-0.1,0.7-0.2,0.6-0.6
			c0-0.3-0.3-0.5-0.6-0.6c-1.6-0.4-3.2-0.7-4.9-1c-2.7-0.4-5.4-0.7-8.1-0.9c-0.3,0-0.5-0.2-0.3-0.4c0.7-1.1,1.5-2.2,2.7-2.8
			c1.4-0.7,3-0.8,4.6-0.7c0.5,0,1-0.1,1.2-0.7c0.2-0.6,0.2-1.1-0.3-1.6c-0.4-0.4-0.9-0.7-1.4-1c-2.3-1.4-4.8-2.3-7.5-2.6
			c-2.9-0.2-5.5,0.6-8,1.8c-2.7,1.3-5,3-7,5.2c-0.1,0.1-0.2,0.3-0.3,0.2c-0.2-0.1-0.2-0.3-0.2-0.4c0-1-0.1-2,0-3
			c0-1.8,0.5-3.6,0.6-5.4c0-0.4,0.1-0.8,0-1.2c-0.1-0.7-0.7-1-1.6-0.7c-3,1-5.8,2.6-8.4,4.5c-1.3,1-2.4,2.2-3.6,3.3
			c-0.4,0.4-0.9,0.9-1.2,1.3c-0.4,0.7-0.9,1.3-1.2,2c-0.1,0.2-0.1,0.2-0.4,0.2c-0.9-0.3-1.9-0.6-2.8-0.9c-2.5-0.7-5-0.6-7.5-0.4
			c-1.8,0.2-3.4,0.8-4.9,1.7c-0.8,0.5-0.8,1.6,0.1,2c0.8,0.3,1.5,0.8,2.3,1c1.5,0.4,2.8,1.3,4.2,2.1c1.1,0.7,2.1,1.6,3,2.6
			C53.7,27.6,54.2,27.9,54.2,28.4z"/>
		<path class="st55" d="M19.5,52.1c-0.1,1.2,0.1,2.4,0.2,3.7c0.1,0.8,0,1.6,0,2.3c0,4.5-0.1,9.1,0.3,13.6c0.3,4.4,0.1,8.8,0.2,13.2
			c0.1,2.6,0.2,5.2,0.4,7.8c0,0.4,0,0.9,0,1.3c0,3.2,0,6.4,0,9.6c0,0.6,0.2,1.1,0.1,1.6c-0.1,0.1-0.1,0.3,0,0.4c0,0.5,0.1,1,0.1,1.5
			c0,0,0,0,0,0c0,0,0,0,0,0.1c0,0.1,0,0.3,0,0.4c0,0,0,0,0,0c0,0,0,0,0,0.1c0.4,4.2,0.2,8.5,0.3,12.7c0,0.2,0,0.4-0.1,0.6
			c-0.7-0.7-1.3-1.4-2-2.1c-1.8-1.8-3.4-3.8-4.9-5.8c-1.7-2.3-3.3-4.8-4.8-7.3c-2.4-4.2-4.3-8.5-5.8-13.1c-1.4-4.3-2.4-8.6-2.9-13.1
			c-0.5-4-0.8-8-0.6-12.1c0.1-2.3,0.4-4.5,0.7-6.8c0.3-2.3,0.7-4.6,1.3-6.9c0.7-2.7,1.5-5.4,2.5-8c0.6-1.4,1.1-2.9,1.7-4.3
			c0.7-1.5,1.4-3,2.2-4.5c0.5-0.8,0.9-1.6,1.4-2.4c0.5,0.1,0.6,0.5,0.8,0.9c0.4,1.1,0.6,2.3,1.1,3.4c0.6,1.2,1,2.4,1.6,3.6
			c1.1,2.1,2.2,4.1,3.6,6C17.8,49.9,18.7,51,19.5,52.1z"/>
		<path class="st55" d="M121.8,119.8c0.1-2.2,0-4.3,0.1-6.5c0.1-2.5,0.2-4.9,0.2-7.4c0-1,0.1-2.1,0.2-3.1c0.1-2,0-4.1,0.1-6.1
			c0.2-2.9,0-5.9,0.2-8.8c0.2-3.2,0.2-6.5,0.3-9.7c0.1-2.9-0.1-5.9,0.1-8.8c0.2-3.5,0.3-7,0.3-10.5c0-1.3,0.1-2.6,0.1-3.9
			c0-1.2,0.1-2.4,0-3.6c0-0.2,0.1-0.5-0.1-0.7c0-0.1,0-0.2,0-0.2c1.1-1.3,2-2.8,2.9-4.2c1.5-2.2,2.5-4.7,3.5-7.2
			c0.6-1.5,0.9-3.1,1.6-4.6c1.8,2.9,3.3,6,4.7,9.1c2.2,5.2,3.7,10.7,4.6,16.3c0.4,2.6,0.6,5.2,0.8,7.8c0.2,3.4,0,6.8-0.3,10.2
			c-0.2,1.8-0.4,3.7-0.8,5.5c-0.3,1.7-0.7,3.3-1.1,4.9c-0.2,0.6-0.5,1.2-0.5,1.9c0,0.7-0.3,1.4-0.5,2c-0.7,2-1.4,4-2.3,6
			c-0.3,0.8-0.7,1.6-1.1,2.5c-0.4,0.9-0.8,1.7-1.3,2.6c-0.4,0.8-0.8,1.7-1.3,2.5c-2,3.2-4,6.4-6.4,9.4c-1.3,1.6-2.6,3-3.9,4.5
			C122.1,119.7,122,119.8,121.8,119.8z"/>
		<path class="st60" d="M131.5,34.5c-0.7,1.5-1,3.1-1.6,4.6c-1,2.5-2,4.9-3.5,7.2c-0.9,1.4-1.9,2.9-2.9,4.2c0,0.1,0,0.2,0,0.2
			c-0.1,0.1-0.2,0.1-0.3,0.2c-0.8,1.4-2,2.4-3,3.7c-1.4,1.8-3.8,1.6-4.8-0.1c-0.4-0.7-0.6-1.5-0.4-2.3c0.2-0.6,0.2-1.2,0.2-1.8
			c0-0.8,0.1-1.6,0.2-2.3c0.1-0.4-0.1-0.4-0.4-0.4c-0.8,0.1-1.6,0.1-2.3,0.4c-1.3,0.5-2.6,0.3-3.9,0.5c-0.5,0.1-1.1,0.1-1.6,0.2
			c-1.9,0.1-2.8-1.5-2.6-3.1c0.1-1.2,0.4-2.3,0.7-3.4c0.3-1.2,0.6-2.4,0.8-3.6c0.1-0.4-0.1-0.4-0.4-0.5c-1.5-0.6-3.1-1.2-4.5-2.1
			c-0.5-0.3-0.7-0.9-0.8-1.5c-0.2-1.5,0.6-2.4,1.9-3c1.1-0.6,2.1-1.2,3.2-1.7c0.6-0.3,1.3-0.4,1.7-0.9c0.7-0.6,1.5-0.9,2.2-1.4
			c1.6-1,3.2-2,4.7-3.2c1.7-1.3,3.4-2.7,5.1-4.1c0.2-0.2,0.4-0.3,0.5-0.6c0.7-0.4,1.3-1,1.9-1.6c1.1-1.1,2-2.3,2.9-3.5
			c1-1.3,1.7-2.8,2.4-4.3c0.2-0.3,0.3-0.6,0.6-0.9c0.8-1,1.9-1,2.6,0.1c0.7,1.1,0.8,2.4,1.2,3.7c0.4,1.5,0.6,3,0.8,4.5
			c0.1,1.1,0.3,2.3,0.3,3.4c0,1.5,0.3,3,0.3,4.5c-0.1,1.5-0.3,3-0.5,4.5C132.1,31.4,131.5,32.9,131.5,34.5z"/>
		<path class="st60" d="M19.5,52.1c-0.8-1.1-1.7-2.2-2.5-3.3c-1.4-1.9-2.5-3.9-3.6-6c-0.6-1.2-1-2.4-1.6-3.6
			c-0.5-1.1-0.7-2.3-1.1-3.4c-0.1-0.4-0.2-0.8-0.8-0.9c0.5-0.8,0.2-1.6,0-2.4c-0.3-1.7-0.6-3.3-0.7-5c-0.2-2.3-0.1-4.7,0-7
			c0.1-1.9,0.5-3.9,0.8-5.8c0.2-1.1,0.4-2.1,0.6-3.2c0.2-0.8,0.4-1.7,0.9-2.5c0.4-0.7,1.3-0.9,2-0.4c0.6,0.4,1,1.1,1.3,1.7
			c0.8,1.9,2,3.5,3.2,5.1c1.1,1.4,2.3,2.6,3.6,3.9c0.1,0.1,0.1,0.3,0.3,0.1c0.1,0.3,0.4,0.5,0.6,0.7c1.7,1.5,3.4,2.9,5.3,4.2
			c0.9,0.7,1.9,1.2,2.8,1.9c1.2,0.8,2.5,1.6,3.8,2.3c1.2,0.8,2.6,1.3,3.9,2.1c0.7,0.4,1.5,0.8,2.1,1.3c1.2,0.9,1.1,3-0.4,3.9
			c-0.7,0.4-1.4,0.7-2.2,1c-0.7,0.3-1.3,0.7-2.1,0.9c-0.4,0.1-0.3,0.5-0.2,0.8c0.4,1.6,0.8,3.1,1.1,4.7c0.2,0.8,0.3,1.5,0.4,2.3
			c0.1,1.4-1.2,2.9-2.7,2.7c-1.7-0.1-3.4-0.2-5.1-0.6c-0.8-0.2-1.6-0.3-2.4-0.4c-0.4,0-0.6,0.2-0.5,0.5c0.3,0.6,0.2,1.2,0.3,1.7
			c0.1,1.4,0.3,2.9-0.3,4.3c-0.7,1.6-2.8,2.2-4.1,1.1c-0.9-0.7-1.6-1.6-2.4-2.5C19.9,52.5,19.7,52.2,19.5,52.1z"/>
		<path class="st11" d="M47.4,119c-1.1-0.7-2-1.7-2.9-2.7c-1-1.1-1.7-2.3-2.3-3.6c-0.5-1.1-0.7-2.3-0.8-3.5c-0.2-1.2,0-2.3,0.5-3.3
			c0.3-0.7,0.8-1.2,1.3-1.7c0.8-0.9,1.7-1.6,2.7-2.3c0.1-0.1,0.3-0.1,0.4-0.1c0,1.7,0,3.4,0,5.2c0,0.3,0.1,0.7,0.2,1
			c0.4,1.1,1.2,1.8,2.2,2.3c1,0.5,2.1,0.6,3.1,0.2c1.9-0.8,2.8-2.4,2.9-4.3c0.1-2.7,0-5.4,0-8.1c0.7-0.3,1.5-0.5,2.3-0.7
			c0.8-0.2,1.6-0.6,2.4-0.8c0.2-0.1,0.4-0.3,0.7-0.1c-0.1,0.2-0.1,0.4-0.1,0.6c0,1.1,0,2.3,0,3.4c0,0.6,0.2,1.2,0.5,1.7
			c0.9,1.3,2.2,2,3.7,2.4c1.1,0.3,2.2,0.3,3.3,0.1c1.2-0.2,2.4-0.7,3.4-1.4c1.1-0.8,1.5-2,1.5-3.3c0-2,0-3.9,0-5.9
			c0.3-0.1,0.6-0.2,0.9-0.2c2.2,0,4.3-0.5,6.5-0.5c0,0,0.1,0.1,0.1,0.1c1,2,1.9,4,3,5.9c0.3,0.6,0.6,1.2,0.9,1.8
			c0.4,0.7,0.8,1.4,1.6,1.7c1.2,0.6,2.6,0.2,3.4-0.6c0.5-0.5,0.9-1.1,1.3-1.8c1.2-2.1,2.6-4.2,3.7-6.3c0.9,0.1,1.7,0.5,2.5,0.9
			c0.8,0.4,1.6,0.8,2.3,1.4c1.5,1.1,2.4,2.5,2.8,4.3c0.2,1,0.4,2,0.3,3c-0.1,2.5-0.7,4.9-1.3,7.3c-0.4,1.5-0.7,3.1-0.9,4.6
			c-0.2,1-0.5,2-0.9,3c-0.6-0.1-1.1-0.5-1.7-0.7c-3.8-1.9-7.9-3.1-12.1-3.8c-2.3-0.4-4.6-0.6-6.9-0.9c-1.5-0.2-2.9-0.1-4.4-0.1
			c-1.8,0-3.5-0.1-5.3,0.1c-1.9,0.1-3.9,0.4-5.8,0.7c-2.9,0.4-5.8,1.1-8.6,2c-1,0.3-1.9,0.8-2.9,1.2C49.8,117.6,48.5,118.2,47.4,119
			z"/>
		<path class="st3" d="M75.6,68.1c0-10,8.5-18.7,18.9-18.9c5.6-0.1,10.7,1.6,14.7,5.7c3.1,3.1,5,6.8,5.5,11.2
			c0.7,5.8-0.7,11-4.5,15.4c-3.9,4.5-9,7-15,7c-5.3,0-10-1.9-13.8-5.7C77.5,78.9,75.6,74.2,75.6,68.1z M95.3,58.4
			c-6.6,0-11.6,5-11.6,11.5c0,6.5,5,11.7,12.6,11.7c2.6-0.5,5-1.4,6.9-3.3c2.7-2.7,3.8-6,3.4-9.6c-0.2-2.4-1.2-4.8-3-6.6
			C101.4,59.7,98.6,58.4,95.3,58.4z"/>
		<path class="st3" d="M67.4,68.9c0,4.6-1.4,8.7-4.3,12.2c-2.1,2.6-4.7,4.7-8,5.9c-1.7,0.6-3.3,1.2-5.1,1.4
			c-1.5,0.2-3.1,0.1-4.7-0.1c-2.4-0.3-4.7-1-6.9-2.1c-1.4-0.7-2.7-1.6-3.9-2.7c-1.1-1-2.2-2-3-3.3c-1.6-2.6-3-5.3-3.3-8.4
			c-0.2-1.6-0.3-3.1-0.2-4.7c0.1-1.1,0.2-2.2,0.6-3.3c0.3-0.8,0.4-1.6,0.7-2.4c1-2.1,2.1-4.1,3.7-5.8c1.8-1.8,3.7-3.6,6.1-4.6
			c0.9-0.4,1.7-0.8,2.7-1.1c1.9-0.5,3.9-0.9,5.8-0.8c1.9,0.1,3.9,0.1,5.8,0.8c3.4,1.1,6.3,2.9,8.8,5.5c2.6,2.9,4.2,6.2,4.9,10
			C67.3,66.6,67.4,67.8,67.4,68.9z M47.7,81.5c7.1-0.1,11.4-5.6,11.5-11.4c0.1-6.7-5.2-11.6-11.5-11.7c-6.4-0.1-11.5,5.1-11.6,11.4
			C36.1,76.3,41.6,81.5,47.7,81.5z"/>
		<path class="st60" d="M54.2,28.4c0-0.6-0.5-0.8-0.8-1.1c-0.9-1-1.9-1.9-3-2.6c-1.4-0.8-2.7-1.7-4.2-2.1c-0.8-0.2-1.5-0.7-2.3-1
			c-0.9-0.4-0.9-1.4-0.1-2c1.5-1,3.1-1.5,4.9-1.7c2.5-0.2,5-0.3,7.5,0.4c1,0.3,1.9,0.6,2.8,0.9c0.3,0.1,0.3,0,0.4-0.2
			c0.3-0.7,0.8-1.3,1.2-2c0.3-0.5,0.8-0.9,1.2-1.3c1.2-1.1,2.3-2.3,3.6-3.3c2.6-1.9,5.3-3.5,8.4-4.5c0.8-0.3,1.5,0,1.6,0.7
			c0,0.4,0,0.8,0,1.2c-0.1,1.8-0.6,3.6-0.6,5.4c0,1,0,2,0,3c0,0.2,0,0.4,0.2,0.4c0.1,0,0.2-0.1,0.3-0.2c2-2.1,4.4-3.9,7-5.2
			c2.5-1.2,5.2-2,8-1.8c2.7,0.2,5.2,1.1,7.5,2.6c0.5,0.3,0.9,0.6,1.4,1c0.5,0.4,0.5,1,0.3,1.6c-0.2,0.5-0.7,0.7-1.2,0.7
			c-1.6-0.1-3.1,0-4.6,0.7c-1.2,0.6-2,1.7-2.7,2.8c-0.2,0.2,0,0.4,0.3,0.4c2.7,0.1,5.4,0.5,8.1,0.9c1.6,0.2,3.2,0.6,4.9,1
			c0.3,0.1,0.6,0.2,0.6,0.6c0,0.4-0.3,0.5-0.6,0.6c-0.8,0.3-1.6,0.3-2.5,0.4c-2.2,0.3-4.5,0.7-6.7,1.1c-1.7,0.3-3.4,0.8-5.1,1.3
			c-1.3,0.4-2.7,0.6-3.8,1.5c-1.6,0.3-3.2,0.1-4.7,0.1c-8.5,0-16.9,0-25.4,0C55.6,28.4,54.9,28.7,54.2,28.4z"/>
		<path class="st60" d="M47.4,119c1.1-0.8,2.4-1.4,3.7-1.9c1-0.4,1.9-0.8,2.9-1.2c2.8-0.9,5.7-1.6,8.6-2c1.9-0.3,3.8-0.6,5.8-0.7
			c1.8-0.1,3.5-0.1,5.3-0.1c1.5,0,2.9-0.1,4.4,0.1c2.3,0.3,4.6,0.5,6.9,0.9c4.2,0.7,8.2,1.9,12.1,3.8c0.5,0.3,1,0.7,1.7,0.7
			c0,0.6-0.5,1-0.8,1.4c-1.3,1.7-2.8,3.1-4.7,4.2c-0.3,0.2-0.7,0.3-1,0.2c-0.2-0.2-0.4-0.3-0.5-0.5c-1.1-1.1-2.1-2.2-3.1-3.4
			c-1-1.2-2-2.3-3.3-3.1c-0.9-0.6-2.2-0.5-2.5,0.9c0,0.2-0.1,0.4-0.1,0.6c-0.1,0.1-0.1,0.2-0.1,0.3c0,0.1,0,0.3,0,0.4
			c0,0.1,0,0.1,0,0.2c0,0.1,0,0.3,0,0.4c0,0,0,0.1,0,0.1c0,0.5,0,0.9,0.1,1.4l0,0l0,0c0,1.2,0.1,2.3,0.1,3.5c0,0.1,0,0.1,0,0.2
			c0,0.3,0.1,0.5,0,0.8c0,0.1,0,0.2,0,0.2c0,0.1,0,0.2,0,0.3c0,0,0,0,0,0.1c0,0,0,0.1,0,0.1c0,0.1,0,0.2,0,0.3
			c-0.1,0.2-0.1,0.4-0.2,0.6c-2.1,0-4.2,0.6-6.3,0.5c-3-0.1-5.9-0.3-8.8-0.8c-0.9-0.1-1.8-0.1-2.7-0.5c0.1-0.4,0-0.7-0.1-1
			c-0.5-1.6-0.9-3.2-1.4-4.7c-0.6-1.8-0.8-3.6-1.7-5.3c-0.5-1-1.9-1.1-2.6-0.3c-0.8,0.8-1.1,1.9-1.6,2.9c-0.8,1.7-1.6,3.4-2.6,5
			c-0.3,0.2-0.5,0-0.7-0.1c-0.9-0.5-1.8-1-2.7-1.4c-1-0.6-1.9-1.3-2.8-2.1C48.2,119.6,47.7,119.4,47.4,119z"/>
		<path class="st3" d="M72.5,93.9c0,2,0,3.9,0,5.9c0,1.3-0.4,2.5-1.5,3.3c-1,0.7-2.1,1.2-3.4,1.4c-1.1,0.2-2.2,0.2-3.3-0.1
			c-1.5-0.4-2.8-1.1-3.7-2.4c-0.3-0.5-0.6-1-0.5-1.7c0-1.1,0-2.3,0-3.4c0-0.2,0-0.4,0.1-0.6c0.8-0.4,1.6-0.3,2.4-0.5
			c2.9-0.8,5.9-1.2,8.8-1.8C71.8,93.9,72.1,93.9,72.5,93.9z"/>
		<path class="st3" d="M93.8,94.1c-1.1,2.2-2.5,4.2-3.7,6.3c-0.4,0.6-0.8,1.2-1.3,1.8c-0.8,0.8-2.2,1.2-3.4,0.6
			c-0.8-0.4-1.2-1.1-1.6-1.7c-0.3-0.6-0.6-1.2-0.9-1.8c-1.1-1.9-2-4-3-5.9c0-0.1-0.1-0.1-0.1-0.1C80,93,80.3,93,80.5,93
			c3.4-0.1,6.7,0.1,10,0.4C91.6,93.5,92.7,93.7,93.8,94.1z"/>
		<path class="st3" d="M54.7,97.9c0,2.7,0.1,5.4,0,8.1c-0.1,2-0.9,3.5-2.9,4.3c-1.1,0.5-2.1,0.3-3.1-0.2c-1-0.5-1.8-1.2-2.2-2.3
			c-0.1-0.3-0.2-0.6-0.2-1c0-1.7,0-3.4,0-5.2c0.3-0.4,0.8-0.5,1.2-0.7c2.1-1.2,4.4-2.1,6.7-2.9C54.4,98,54.6,97.9,54.7,97.9z"/>
		<path class="st3" d="M54.9,123.6c1-1.6,1.8-3.3,2.6-5c0.5-1,0.8-2,1.6-2.9c0.7-0.8,2.1-0.7,2.6,0.3c0.9,1.7,1.2,3.5,1.7,5.3
			c0.5,1.6,0.9,3.1,1.4,4.7c0.1,0.3,0.2,0.7,0.1,1c-2.5-0.6-5-1.4-7.4-2.3c-0.7-0.3-1.4-0.5-2.1-0.7
			C55.1,123.8,54.9,123.8,54.9,123.6z"/>
		<path class="st3" d="M82.6,121.8c0-0.5,0-0.9-0.1-1.4c0,0,0,0,0,0l0,0c0-0.1,0-0.3,0-0.4c0.1-0.1,0-0.1,0-0.2c0-0.1,0-0.3,0-0.4
			c0-0.1,0-0.2,0.1-0.3c0-0.2,0.1-0.4,0.1-0.6c0.3-1.3,1.6-1.5,2.5-0.9c1.3,0.8,2.3,1.9,3.3,3.1c1,1.2,2,2.3,3.1,3.4
			c0.2,0.2,0.4,0.3,0.5,0.5c0,0.1,0.2,0.3,0,0.3c-1.1,0.3-1.9,1.2-3.1,1.4c-1.7,0.3-3.4,1-5.1,1.3c-0.3,0-0.6,0.2-0.9,0.3
			c-0.2-0.1-0.2-0.3-0.3-0.5c0-0.1,0-0.2,0-0.3c0,0,0,0,0-0.1c0,0,0-0.1,0-0.1c0-0.1,0-0.2,0-0.3c0.1-0.1,0.1-0.2,0-0.2
			c0.1-0.3,0-0.5,0-0.8c0-0.1,0-0.1,0-0.2C82.7,124.2,82.6,123,82.6,121.8C82.6,121.9,82.6,121.8,82.6,121.8z"/>
		<path class="st55" d="M82.8,127.2c0.1,0.2,0,0.4,0.3,0.5c-0.1,0.1-0.3,0.1-0.4,0.1C82.7,127.6,82.7,127.4,82.8,127.2z"/>
		<path class="st60" d="M20.8,105.8c-0.1-0.2-0.1-0.3,0-0.4C21,105.5,21,105.6,20.8,105.8z"/>
		<path class="st60" d="M20.9,107.4C20.9,107.4,20.9,107.3,20.9,107.4c0-0.1,0-0.1,0-0.1C20.9,107.3,20.9,107.4,20.9,107.4z"/>
		<path class="st60" d="M20.9,107.9C20.9,107.9,20.9,107.8,20.9,107.9c0-0.1,0-0.1,0-0.1C20.9,107.8,20.9,107.8,20.9,107.9z"/>
		<path class="st54" d="M95.3,58.4c3.3,0,6.1,1.3,8.4,3.6c1.8,1.8,2.7,4.1,3,6.6c0.4,3.7-0.7,6.9-3.4,9.6c-1.9,1.9-4.4,2.8-6.9,3.3
			c-7.6,0.1-12.6-5.1-12.6-11.7C83.7,63.4,88.8,58.4,95.3,58.4z M102.5,65.6c0.1-0.2,0.2-0.3,0.2-0.5c0.3-1,0.3-2-0.4-2.8
			c-0.7-0.8-1.7-1.1-2.8-0.9c-0.4,0.1-0.7,0.4-1.1,0.5c-2.2-0.9-4.3-0.8-6.5,0c-2,0.8-3.5,2.1-4.6,4c-0.5,0.9-0.7,1.8-0.9,2.8
			c-0.2,0.8-0.1,1.6,0.1,2.4c0.4,2.2,1.4,4.1,3.2,5.5c1.8,1.4,3.7,2.1,6,1.9c2-0.2,3.7-1,5.2-2.4c2.2-2.2,3.1-4.8,2.6-7.8
			C103.4,67.4,103.2,66.4,102.5,65.6z"/>
		<path class="st54" d="M47.7,81.5c-6.1,0-11.7-5.2-11.5-11.7c0.1-6.2,5.2-11.4,11.6-11.4c6.3,0.1,11.6,5,11.5,11.7
			C59.2,75.9,54.8,81.4,47.7,81.5z M50.9,62c-0.3-0.2-0.6-0.4-0.9-0.5c-1.3-0.4-2.7-0.4-4-0.1c-2.6,0.6-4.7,2-5.9,4.4
			c-0.9,1.7-1.2,3.5-0.9,5.4c0.7,4.5,5,7.8,9.5,7.2c5.2-0.7,8.6-5.7,7.3-10.8c-0.2-0.8-0.7-1.5-0.8-2.4c0.4-1.1,0.5-2.1-0.3-3
			C53.9,61.1,52.4,61,50.9,62z"/>
		<path class="st59" d="M82.6,119c0,0.1,0,0.2-0.1,0.3C82.5,119.2,82.5,119.1,82.6,119z"/>
		<path class="st59" d="M82.5,119.7c0.1,0.1,0.1,0.1,0,0.2C82.5,119.9,82.5,119.8,82.5,119.7z"/>
		<polygon class="st59" points="82.6,121.8 82.6,121.9 82.5,121.8 		"/>
		<path class="st55" d="M82.7,125.3c0,0.1,0,0.1,0,0.2C82.7,125.5,82.7,125.4,82.7,125.3z"/>
		<path class="st55" d="M82.7,126.3c0.1,0.1,0.1,0.2,0,0.2C82.7,126.4,82.7,126.4,82.7,126.3z"/>
		<path class="st55" d="M82.7,126.8c0,0,0,0.1,0,0.1c0,0,0,0,0,0.1C82.7,126.9,82.7,126.9,82.7,126.8
			C82.7,126.8,82.7,126.8,82.7,126.8z"/>
		<path class="st59" d="M82.5,120.3L82.5,120.3C82.5,120.4,82.5,120.4,82.5,120.3C82.5,120.4,82.5,120.4,82.5,120.3z"/>
		<path class="st11" d="M102.5,65.6c0.7,0.8,0.9,1.8,1.1,2.8c0.5,3-0.3,5.6-2.6,7.8c-1.5,1.4-3.2,2.2-5.2,2.4
			c-2.3,0.2-4.3-0.5-6-1.9c-1.8-1.4-2.8-3.3-3.2-5.5c-0.1-0.8-0.2-1.7-0.1-2.4c0.2-0.9,0.4-1.9,0.9-2.8c1-1.9,2.6-3.2,4.6-4
			c2.1-0.9,4.3-0.9,6.5,0c-0.3,0.5-0.7,0.9-0.8,1.5c-0.2,1,0.1,1.8,0.7,2.4c0.6,0.7,1.4,0.9,2.4,0.7C101.5,66.5,102,66,102.5,65.6z
			 M95.1,66.7c-1.8,0-3.3,1.5-3.2,3.3c0.1,2,1.5,3.2,3.4,3.1c1.8-0.1,2.9-1.3,3-3.2C98.3,68.1,97,66.7,95.1,66.7z"/>
		<path class="st3" d="M102.5,65.6c-0.5,0.4-1,0.9-1.8,1c-1,0.2-1.7-0.1-2.4-0.7c-0.6-0.7-0.9-1.5-0.7-2.4c0.1-0.6,0.5-1.1,0.8-1.5
			c0.4-0.1,0.7-0.4,1.1-0.5c1.1-0.2,2,0,2.8,0.9c0.7,0.8,0.7,1.8,0.4,2.8C102.7,65.3,102.6,65.4,102.5,65.6z"/>
		<path class="st11" d="M55.1,65.4c0.1,0.8,0.6,1.5,0.8,2.4c1.3,5.1-2.1,10.1-7.3,10.8c-4.5,0.6-8.8-2.7-9.5-7.2
			c-0.3-1.9,0-3.7,0.9-5.4c1.3-2.4,3.3-3.8,5.9-4.4c1.3-0.3,2.7-0.3,4,0.1c0.3,0.1,0.6,0.3,0.9,0.5c-0.8,0.9-1,2.2-0.6,3
			c0.7,1.3,2.2,1.8,3.6,1.2C54.4,66.1,54.7,65.7,55.1,65.4z M47.4,73.1c1.7,0.1,3.4-1.2,3.4-3.2c0-2-1.4-3.1-3.2-3.3
			c-1.8-0.1-3.3,1.6-3.3,3.3C44.3,71.5,45.8,73.1,47.4,73.1z"/>
		<path class="st3" d="M55.1,65.4c-0.4,0.3-0.7,0.7-1.2,0.9c-1.3,0.6-2.9,0.1-3.6-1.2c-0.4-0.9-0.2-2.2,0.6-3c1.6-1,3-1,4,0.3
			C55.6,63.3,55.5,64.3,55.1,65.4z"/>
		<path class="st3" d="M95.1,66.7c1.9,0.1,3.2,1.5,3.2,3.2c0,1.9-1.1,3.1-3,3.2C93.4,73.2,92,72,91.9,70
			C91.8,68.2,93.3,66.7,95.1,66.7z"/>
		<path class="st3" d="M47.4,73.1c-1.6,0-3.1-1.6-3.1-3.2c0-1.7,1.6-3.4,3.3-3.3c1.8,0.1,3.2,1.3,3.2,3.3
			C50.8,71.9,49.1,73.3,47.4,73.1z"/>
	</g>
</g>
</svg>
